<?xml version="1.0" standalone="yes"?>

<svg version="1.1" viewBox="0.0 0.0 960.0 540.0" fill="none" stroke="none" stroke-linecap="square" stroke-miterlimit="10" xmlns="http://www.w3.org/2000/svg" xmlns:xlink="http://www.w3.org/1999/xlink"><clipPath id="g2549d28fde_0_148.0"><path d="m0 0l960.0 0l0 540.0l-960.0 0l0 -540.0z" clip-rule="nonzero"></path></clipPath><g clip-path="url(#g2549d28fde_0_148.0)"><path fill="#ffffff" d="m0 0l960.0 0l0 540.0l-960.0 0z" fill-rule="evenodd"></path><path fill="#eeeeee" d="m189.22835 238.85364l580.7874 0l0 169.73227l-580.7874 0z" fill-rule="evenodd"></path><path stroke="#595959" stroke-width="1.0" stroke-linejoin="round" stroke-linecap="butt" d="m189.22835 238.85364l580.7874 0l0 169.73227l-580.7874 0z" fill-rule="evenodd"></path><path fill="#000000" d="m200.0096 392.07092q0.1875 -0.9375 0.640625 -1.703125q0.46875 -0.765625 1.078125 -1.28125q0.609375 -0.53125 1.296875 -0.8125q0.703125 -0.296875 1.390625 -0.296875q0.71875 0 1.203125 0.28125q0.484375 0.265625 0.9375 0.734375l0.25 -1.453125l0.640625 -2.984375l1.3125 0l-2.421875 11.390625l-1.078125 0l0.09375 -1.03125l-0.046875 0q-0.578125 0.5 -1.328125 0.859375q-0.734375 0.359375 -1.453125 0.359375q-0.78125 0 -1.328125 -0.265625q-0.546875 -0.28125 -0.890625 -0.796875q-0.34375 -0.515625 -0.4375 -1.265625q-0.078125 -0.75 0.140625 -1.734375zm1.359375 -0.015625q-0.296875 1.40625 0.125 2.203125q0.4375 0.78125 1.53125 0.78125q1.15625 0 2.4375 -1.171875l0.828125 -3.875q-0.421875 -0.5 -0.890625 -0.703125q-0.453125 -0.203125 -0.96875 -0.203125q-0.515625 0 -1.0 0.21875q-0.46875 0.203125 -0.890625 0.609375q-0.40625 0.390625 -0.71875 0.9375q-0.3125 0.53125 -0.453125 1.203125zm9.553146 -3.890625l4.9375 0l-1.65625 7.78125l-1.3125 0l1.421875 -6.703125l-3.625 0l0.234375 -1.078125zm4.46875 -1.59375q-0.453125 0 -0.703125 -0.265625q-0.234375 -0.28125 -0.140625 -0.75q0.109375 -0.453125 0.453125 -0.734375q0.359375 -0.28125 0.8125 -0.28125q0.453125 0 0.703125 0.28125q0.25 0.28125 0.140625 0.734375q-0.09375 0.46875 -0.453125 0.75q-0.359375 0.265625 -0.8125 0.265625zm4.6468964 1.59375l1.03125 0l-0.109375 1.03125l0.046875 0q0.40625 -0.546875 0.859375 -0.875q0.46875 -0.34375 1.140625 -0.34375q1.1875 0 1.1875 1.34375q0.484375 -0.609375 0.96875 -0.96875q0.5 -0.375 1.15625 -0.375q0.8125 0 1.125 0.625q0.3125 0.609375 0.0625 1.78125l-1.1875 5.5625l-1.265625 0l1.15625 -5.453125q0.296875 -1.375 -0.546875 -1.375q-0.40625 0 -0.78125 0.296875q-0.359375 0.296875 -0.796875 0.90625l-1.203125 5.625l-1.046875 0l1.15625 -5.453125q0.296875 -1.375 -0.59375 -1.375q-0.40625 0 -0.765625 0.296875q-0.34375 0.296875 -0.78125 0.90625l-1.203125 5.625l-1.265625 0l1.65625 -7.78125zm8.709396 5.765625q0.140625 -0.65625 0.5625 -1.140625q0.421875 -0.484375 1.171875 -0.84375q0.75 -0.359375 1.859375 -0.578125q1.125 -0.21875 2.65625 -0.34375q0.0625 -0.40625 0.03125 -0.75q-0.03125 -0.359375 -0.21875 -0.625q-0.1875 -0.265625 -0.546875 -0.421875q-0.34375 -0.15625 -0.90625 -0.15625q-0.765625 0 -1.546875 0.296875q-0.765625 0.296875 -1.375 0.625l-0.328125 -0.890625q0.34375 -0.203125 0.765625 -0.390625q0.4375 -0.203125 0.90625 -0.359375q0.484375 -0.171875 1.0 -0.265625q0.515625 -0.109375 1.03125 -0.109375q1.59375 0 2.1875 0.875q0.59375 0.875 0.28125 2.328125l-1.015625 4.765625l-1.0625 0l0.109375 -1.0625l-0.046875 0q-0.765625 0.515625 -1.640625 0.890625q-0.875 0.359375 -1.703125 0.359375q-0.546875 0 -1.0 -0.15625q-0.4375 -0.140625 -0.734375 -0.421875q-0.296875 -0.28125 -0.421875 -0.6875q-0.125 -0.40625 -0.015625 -0.9375zm1.3125 -0.09375q-0.078125 0.328125 0.015625 0.5625q0.09375 0.234375 0.296875 0.390625q0.203125 0.140625 0.5 0.21875q0.296875 0.078125 0.625 0.078125q0.671875 0 1.375 -0.296875q0.71875 -0.296875 1.5 -0.859375l0.4375 -2.046875q-1.25 0.09375 -2.140625 0.28125q-0.875 0.171875 -1.4375 0.421875q-0.546875 0.234375 -0.828125 0.546875q-0.265625 0.3125 -0.34375 0.703125zm9.225021 2.765625l-0.5625 2.625l-1.3125 0l2.359375 -11.0625l1.09375 0l-0.109375 1.0l0.046875 0q0.65625 -0.515625 1.4375 -0.84375q0.78125 -0.34375 1.5 -0.34375q0.78125 0 1.328125 0.28125q0.546875 0.28125 0.84375 0.796875q0.296875 0.515625 0.34375 1.25q0.0625 0.734375 -0.140625 1.640625q-0.203125 0.984375 -0.65625 1.765625q-0.453125 0.78125 -1.0625 1.328125q-0.59375 0.53125 -1.296875 0.8125q-0.703125 0.28125 -1.40625 0.28125q-0.546875 0 -1.125 -0.265625q-0.5625 -0.265625 -1.0 -0.734375l-0.28125 1.46875zm0.53125 -2.484375q0.453125 0.5 0.96875 0.71875q0.515625 0.203125 0.90625 0.203125q1.0625 0 1.90625 -0.8125q0.859375 -0.828125 1.15625 -2.28125q0.140625 -0.640625 0.125 -1.171875q0 -0.53125 -0.1875 -0.90625q-0.1875 -0.375 -0.578125 -0.578125q-0.375 -0.203125 -0.9375 -0.203125q-0.515625 0 -1.15625 0.28125q-0.640625 0.28125 -1.375 0.875l-0.828125 3.875z" fill-rule="nonzero"></path><path fill="#000000" d="m264.76596 385.8053q-0.46875 -0.234375 -0.890625 -0.296875q-0.40625 -0.078125 -0.90625 -0.078125q-1.0625 0 -1.515625 0.546875q-0.453125 0.53125 -0.453125 1.484375l0 0.703125l3.265625 0l0 1.078125l-3.265625 0l0 6.703125l-1.296875 0l0 -6.703125l-2.234375 0l0 -1.0l2.234375 -0.078125l0 -0.65625q0 -1.421875 0.75 -2.28125q0.765625 -0.859375 2.390625 -0.859375q1.140625 0 2.234375 0.4375l-0.3125 1.0zm3.0062866 2.359375l1.078125 0l0.109375 1.84375l0.046875 0q0.609375 -0.9375 1.5 -1.484375q0.890625 -0.546875 1.984375 -0.546875q0.421875 0 0.78125 0.078125q0.375 0.0625 0.75 0.25l-0.3125 1.125q-0.40625 -0.140625 -0.6875 -0.203125q-0.28125 -0.0625 -0.75 -0.0625q-0.875 0 -1.6875 0.5q-0.796875 0.5 -1.515625 1.71875l0 4.5625l-1.296875 0l0 -7.78125zm8.209381 3.90625q0 -0.96875 0.3125 -1.734375q0.3125 -0.765625 0.84375 -1.28125q0.53125 -0.53125 1.21875 -0.796875q0.703125 -0.28125 1.46875 -0.28125q0.765625 0 1.453125 0.28125q0.703125 0.265625 1.234375 0.796875q0.53125 0.515625 0.84375 1.28125q0.3125 0.765625 0.3125 1.734375q0 0.96875 -0.3125 1.734375q-0.3125 0.75 -0.84375 1.265625q-0.53125 0.515625 -1.234375 0.796875q-0.6875 0.265625 -1.453125 0.265625q-0.765625 0 -1.46875 -0.265625q-0.6875 -0.28125 -1.21875 -0.796875q-0.53125 -0.515625 -0.84375 -1.265625q-0.3125 -0.765625 -0.3125 -1.734375zm1.359375 0q0 0.671875 0.171875 1.21875q0.1875 0.546875 0.515625 0.9375q0.328125 0.390625 0.78125 0.609375q0.453125 0.21875 1.015625 0.21875q0.5625 0 1.015625 -0.21875q0.453125 -0.21875 0.78125 -0.609375q0.328125 -0.390625 0.5 -0.9375q0.1875 -0.546875 0.1875 -1.21875q0 -0.671875 -0.1875 -1.21875q-0.171875 -0.546875 -0.5 -0.953125q-0.328125 -0.40625 -0.78125 -0.609375q-0.453125 -0.21875 -1.015625 -0.21875q-0.5625 0 -1.015625 0.21875q-0.453125 0.203125 -0.78125 0.609375q-0.328125 0.40625 -0.515625 0.953125q-0.171875 0.546875 -0.171875 1.21875zm8.240662 -3.90625l1.03125 0l0.109375 1.03125l0.046875 0q0.296875 -0.546875 0.6875 -0.875q0.390625 -0.34375 1.0625 -0.34375q1.1875 0 1.46875 1.34375q0.359375 -0.609375 0.765625 -0.96875q0.421875 -0.375 1.078125 -0.375q0.8125 0 1.25 0.625q0.4375 0.609375 0.4375 1.78125l0 5.5625l-1.265625 0l0 -5.453125q0 -1.375 -0.84375 -1.375q-0.40625 0 -0.71875 0.296875q-0.296875 0.296875 -0.609375 0.90625l0 5.625l-1.046875 0l0 -5.453125q0 -1.375 -0.890625 -1.375q-0.40625 0 -0.703125 0.296875q-0.28125 0.296875 -0.59375 0.90625l0 5.625l-1.265625 0l0 -7.78125zm21.543793 1.078125l-2.1875 0l0 -1.0l2.234375 -0.078125l0.171875 -2.171875l1.09375 0l0 2.171875l3.828125 0l0 1.078125l-3.828125 0l0 3.6875q0 0.53125 0.09375 0.921875q0.09375 0.390625 0.3125 0.671875q0.234375 0.265625 0.609375 0.40625q0.390625 0.140625 0.953125 0.140625q0.5625 0 1.0 -0.09375q0.453125 -0.109375 0.875 -0.265625l0.28125 0.96875q-0.53125 0.1875 -1.171875 0.3125q-0.640625 0.140625 -1.28125 0.140625q-0.84375 0 -1.421875 -0.21875q-0.578125 -0.234375 -0.921875 -0.65625q-0.34375 -0.4375 -0.5 -1.015625q-0.140625 -0.59375 -0.140625 -1.328125l0 -3.671875zm7.256256 2.828125q0 -0.96875 0.3125 -1.734375q0.3125 -0.765625 0.84375 -1.28125q0.53125 -0.53125 1.21875 -0.796875q0.703125 -0.28125 1.46875 -0.28125q0.765625 0 1.453125 0.28125q0.703125 0.265625 1.234375 0.796875q0.53125 0.515625 0.84375 1.28125q0.3125 0.765625 0.3125 1.734375q0 0.96875 -0.3125 1.734375q-0.3125 0.75 -0.84375 1.265625q-0.53125 0.515625 -1.234375 0.796875q-0.6875 0.265625 -1.453125 0.265625q-0.765625 0 -1.46875 -0.265625q-0.6875 -0.28125 -1.21875 -0.796875q-0.53125 -0.515625 -0.84375 -1.265625q-0.3125 -0.765625 -0.3125 -1.734375zm1.359375 0q0 0.671875 0.171875 1.21875q0.1875 0.546875 0.515625 0.9375q0.328125 0.390625 0.78125 0.609375q0.453125 0.21875 1.015625 0.21875q0.5625 0 1.015625 -0.21875q0.453125 -0.21875 0.78125 -0.609375q0.328125 -0.390625 0.5 -0.9375q0.1875 -0.546875 0.1875 -1.21875q0 -0.671875 -0.1875 -1.21875q-0.171875 -0.546875 -0.5 -0.953125q-0.328125 -0.40625 -0.78125 -0.609375q-0.453125 -0.21875 -1.015625 -0.21875q-0.5625 0 -1.015625 0.21875q-0.453125 0.203125 -0.78125 0.609375q-0.328125 0.40625 -0.515625 0.953125q-0.171875 0.546875 -0.171875 1.21875z" fill-rule="nonzero"></path><path fill="#cfe2f3" d="m393.72308 287.3497l167.30713 0l0 73.00787l-167.30713 0z" fill-rule="evenodd"></path><path stroke="#595959" stroke-width="1.0" stroke-linejoin="round" stroke-linecap="butt" d="m393.72308 287.3497l167.30713 0l0 73.00787l-167.30713 0z" fill-rule="evenodd"></path><path fill="#000000" d="m473.73288 318.49487l2.34375 0l0 2.75l-0.125 1.53125q0.234375 -0.234375 0.515625 -0.4375q0.28125 -0.21875 0.609375 -0.390625q0.328125 -0.171875 0.71875 -0.265625q0.390625 -0.09375 0.84375 -0.09375q1.34375 0 1.953125 0.859375q0.625 0.859375 0.625 2.375l0 4.890625l-2.359375 0l0 -4.59375q0 -0.796875 -0.25 -1.15625q-0.25 -0.375 -0.90625 -0.375q-0.484375 0 -0.84375 0.203125q-0.359375 0.203125 -0.78125 0.625l0 5.296875l-2.34375 0l0 -11.21875z" fill-rule="nonzero"></path><path fill="#000000" fill-opacity="0.0" d="m323.92914 324.0696l69.79526 -0.2204895" fill-rule="evenodd"></path><path stroke="#595959" stroke-width="1.0" stroke-linejoin="round" stroke-linecap="butt" d="m323.92914 324.06958l63.79532 -0.20150757" fill-rule="evenodd"></path><path fill="#595959" stroke="#595959" stroke-width="1.0" stroke-linecap="butt" d="m387.72964 325.5198l4.5328674 -1.6660767l-4.5433044 -1.6373901z" fill-rule="evenodd"></path><path fill="#000000" fill-opacity="0.0" d="m561.0302 323.85364l70.01575 -0.28347778" fill-rule="evenodd"></path><path stroke="#595959" stroke-width="1.0" stroke-linejoin="round" stroke-linecap="butt" d="m561.0302 323.85364l64.01575 -0.25915527" fill-rule="evenodd"></path><path fill="#595959" stroke="#595959" stroke-width="1.0" stroke-linecap="butt" d="m625.0527 325.2462l4.531372 -1.670105l-4.544739 -1.6333313z" fill-rule="evenodd"></path><path fill="#000000" fill-opacity="0.0" d="m341.25198 292.10562l29.51181 0l0 31.496033l-29.51181 0z" fill-rule="evenodd"></path><path fill="#000000" d="m357.93948 317.80685q-0.9375 0.796875 -1.796875 1.125q-0.859375 0.3125 -1.84375 0.3125q-1.609375 0 -2.484375 -0.78125q-0.875 -0.796875 -0.875 -2.03125q0 -0.734375 0.328125 -1.328125q0.328125 -0.59375 0.859375 -0.953125q0.53125 -0.359375 1.203125 -0.546875q0.5 -0.140625 1.484375 -0.25q2.03125 -0.25 2.984375 -0.578125q0 -0.34375 0 -0.4375q0 -1.015625 -0.46875 -1.4375q-0.640625 -0.5625 -1.90625 -0.5625q-1.171875 0 -1.734375 0.40625q-0.5625 0.40625 -0.828125 1.46875l-1.640625 -0.234375q0.234375 -1.046875 0.734375 -1.6875q0.515625 -0.640625 1.46875 -0.984375q0.96875 -0.359375 2.25 -0.359375q1.265625 0 2.046875 0.296875q0.78125 0.296875 1.15625 0.75q0.375 0.453125 0.515625 1.140625q0.09375 0.421875 0.09375 1.53125l0 2.234375q0 2.328125 0.09375 2.953125q0.109375 0.609375 0.4375 1.171875l-1.75 0q-0.265625 -0.515625 -0.328125 -1.21875zm-0.140625 -3.71875q-0.90625 0.359375 -2.734375 0.625q-1.03125 0.140625 -1.453125 0.328125q-0.421875 0.1875 -0.65625 0.546875q-0.234375 0.359375 -0.234375 0.796875q0 0.671875 0.5 1.125q0.515625 0.4375 1.484375 0.4375q0.96875 0 1.71875 -0.421875q0.75 -0.4375 1.109375 -1.15625q0.265625 -0.578125 0.265625 -1.671875l0 -0.609375z" fill-rule="nonzero"></path><path fill="#000000" fill-opacity="0.0" d="m578.9921 292.10562l29.51184 0l0 31.496033l-29.51184 0z" fill-rule="evenodd"></path><path fill="#000000" d="m590.789 319.0256l-1.546875 0l0 -13.59375l1.65625 0l0 4.84375q1.0625 -1.328125 2.703125 -1.328125q0.90625 0 1.71875 0.375q0.8125 0.359375 1.328125 1.03125q0.53125 0.65625 0.828125 1.59375q0.296875 0.9375 0.296875 2.0q0 2.53125 -1.25 3.921875q-1.25 1.375 -3.0 1.375q-1.75 0 -2.734375 -1.453125l0 1.234375zm-0.015625 -5.0q0 1.765625 0.46875 2.5625q0.796875 1.28125 2.140625 1.28125q1.09375 0 1.890625 -0.9375q0.796875 -0.953125 0.796875 -2.84375q0 -1.921875 -0.765625 -2.84375q-0.765625 -0.921875 -1.84375 -0.921875q-1.09375 0 -1.890625 0.953125q-0.796875 0.953125 -0.796875 2.75z" fill-rule="nonzero"></path><path fill="#d9ead3" d="m240.2126 324.0696l0 0c0 -22.926361 18.740585 -41.51184 41.85826 -41.51184l0 0c11.101501 0 21.748322 4.3735657 29.598267 12.158539c7.849945 7.784973 12.26001 18.343658 12.26001 29.353302l0 0c0 22.92633 -18.7406 41.51181 -41.858276 41.51181l0 0c-23.117676 0 -41.85826 -18.58548 -41.85826 -41.51181z" fill-rule="evenodd"></path><path stroke="#595959" stroke-width="1.0" stroke-linejoin="round" stroke-linecap="butt" d="m240.2126 324.0696l0 0c0 -22.926361 18.740585 -41.51184 41.85826 -41.51184l0 0c11.101501 0 21.748322 4.3735657 29.598267 12.158539c7.849945 7.784973 12.26001 18.343658 12.26001 29.353302l0 0c0 22.92633 -18.7406 41.51181 -41.858276 41.51181l0 0c-23.117676 0 -41.85826 -18.58548 -41.85826 -41.51181z" fill-rule="evenodd"></path><path fill="#000000" d="m271.77707 320.6796q-0.78125 -0.296875 -1.65625 -0.296875q-0.765625 0 -1.125 0.34375q-0.359375 0.328125 -0.359375 1.046875l0 0.21875l2.734375 0l0 1.84375l-2.734375 0l0 6.09375l-2.359375 0l0 -6.09375l-2.09375 0l0 -1.75l2.09375 -0.09375l0 -0.203125q0 -0.6875 0.203125 -1.28125q0.21875 -0.59375 0.640625 -1.03125q0.4375 -0.4375 1.109375 -0.6875q0.671875 -0.265625 1.59375 -0.265625q0.6875 0 1.28125 0.125q0.609375 0.125 1.125 0.3125l-0.453125 1.71875zm2.5531616 1.3125l1.921875 0l0.1875 1.734375l0.046875 0q0.59375 -0.984375 1.421875 -1.453125q0.828125 -0.46875 1.796875 -0.46875q0.53125 0 0.859375 0.078125q0.328125 0.078125 0.671875 0.234375l-0.484375 1.96875q-0.359375 -0.109375 -0.65625 -0.15625q-0.296875 -0.0625 -0.75 -0.0625q-0.734375 0 -1.453125 0.4375q-0.703125 0.421875 -1.21875 1.5l0 4.125l-2.34375 0l0 -7.9375zm8.490631 3.96875q0 -0.984375 0.328125 -1.765625q0.34375 -0.78125 0.90625 -1.296875q0.578125 -0.53125 1.296875 -0.8125q0.734375 -0.28125 1.515625 -0.28125q0.78125 0 1.515625 0.28125q0.734375 0.28125 1.296875 0.8125q0.5625 0.515625 0.890625 1.296875q0.34375 0.78125 0.34375 1.765625q0 1.0 -0.34375 1.78125q-0.328125 0.765625 -0.890625 1.296875q-0.5625 0.515625 -1.296875 0.796875q-0.734375 0.28125 -1.515625 0.28125q-0.78125 0 -1.515625 -0.28125q-0.71875 -0.28125 -1.296875 -0.796875q-0.5625 -0.53125 -0.90625 -1.296875q-0.328125 -0.78125 -0.328125 -1.78125zm2.421875 0q0 1.046875 0.40625 1.65625q0.40625 0.59375 1.21875 0.59375q0.8125 0 1.21875 -0.59375q0.421875 -0.609375 0.421875 -1.65625q0 -1.046875 -0.421875 -1.640625q-0.40625 -0.609375 -1.21875 -0.609375q-0.8125 0 -1.21875 0.609375q-0.40625 0.59375 -0.40625 1.640625zm7.0062866 -3.96875l1.765625 0l0.171875 1.0l0.0625 0q0.21875 -0.5 0.609375 -0.84375q0.390625 -0.34375 1.078125 -0.34375q0.53125 0 0.890625 0.328125q0.359375 0.328125 0.5 0.96875q0.234375 -0.546875 0.65625 -0.921875q0.421875 -0.375 1.09375 -0.375q0.828125 0 1.296875 0.6875q0.46875 0.671875 0.46875 1.875l0 5.5625l-2.21875 0l0 -5.390625q0 -0.734375 -0.4375 -0.734375q-0.4375 0 -0.734375 0.765625l0 5.359375l-1.8125 0l0 -5.390625q0 -0.734375 -0.46875 -0.734375q-0.21875 0 -0.390625 0.1875q-0.15625 0.1875 -0.328125 0.578125l0 5.359375l-2.203125 0l0 -7.9375z" fill-rule="nonzero"></path><path fill="#000000" fill-opacity="0.0" d="m189.22835 323.7198l50.992126 0.34643555" fill-rule="evenodd"></path><path stroke="#595959" stroke-width="1.0" stroke-linejoin="round" stroke-linecap="butt" d="m189.22835 323.7198l44.992264 0.30569458" fill-rule="evenodd"></path><path fill="#595959" stroke="#595959" stroke-width="1.0" stroke-linecap="butt" d="m234.2094 325.67715l4.5492096 -1.6208496l-4.526779 -1.6825256z" fill-rule="evenodd"></path><path fill="#000000" fill-opacity="0.0" d="m195.93958 290.10562l36.913376 0l0 31.496033l-36.913376 0z" fill-rule="evenodd"></path><path fill="#000000" d="m205.5177 314.0881l1.65625 -0.265625q0.140625 1.0 0.765625 1.53125q0.640625 0.515625 1.78125 0.515625q1.15625 0 1.703125 -0.46875q0.5625 -0.46875 0.5625 -1.09375q0 -0.5625 -0.484375 -0.890625q-0.34375 -0.21875 -1.703125 -0.5625q-1.84375 -0.46875 -2.5625 -0.796875q-0.703125 -0.34375 -1.078125 -0.9375q-0.359375 -0.609375 -0.359375 -1.328125q0 -0.65625 0.296875 -1.21875q0.3125 -0.5625 0.828125 -0.9375q0.390625 -0.28125 1.0625 -0.484375q0.671875 -0.203125 1.4375 -0.203125q1.171875 0 2.046875 0.34375q0.875 0.328125 1.28125 0.90625q0.421875 0.5625 0.578125 1.515625l-1.625 0.21875q-0.109375 -0.75 -0.65625 -1.171875q-0.53125 -0.4375 -1.5 -0.4375q-1.15625 0 -1.640625 0.390625q-0.484375 0.375 -0.484375 0.875q0 0.328125 0.203125 0.59375q0.203125 0.265625 0.640625 0.4375q0.25 0.09375 1.46875 0.4375q1.765625 0.46875 2.46875 0.765625q0.703125 0.296875 1.09375 0.875q0.40625 0.578125 0.40625 1.4375q0 0.828125 -0.484375 1.578125q-0.484375 0.734375 -1.40625 1.140625q-0.921875 0.390625 -2.078125 0.390625q-1.921875 0 -2.9375 -0.796875q-1.0 -0.796875 -1.28125 -2.359375z" fill-rule="nonzero"></path><path fill="#f4cccc" d="m631.0615 323.5645l0 0c0 -20.160553 15.786377 -36.503937 35.259827 -36.503937l0 0c9.351501 0 18.320007 3.8459473 24.932495 10.691772c6.612488 6.8457947 10.327393 16.130707 10.327393 25.812164l0 0c0 20.160583 -15.786377 36.503937 -35.259888 36.503937l0 0c-19.47345 0 -35.259827 -16.343353 -35.259827 -36.503937z" fill-rule="evenodd"></path><path stroke="#595959" stroke-width="1.0" stroke-linejoin="round" stroke-linecap="butt" d="m631.0615 323.5645l0 0c0 -20.160553 15.786377 -36.503937 35.259827 -36.503937l0 0c9.351501 0 18.320007 3.8459473 24.932495 10.691772c6.612488 6.8457947 10.327393 16.130707 10.327393 25.812164l0 0c0 20.160583 -15.786377 36.503937 -35.259888 36.503937l0 0c-19.47345 0 -35.259827 -16.343353 -35.259827 -36.503937z" fill-rule="evenodd"></path><path fill="#000000" d="m659.5026 323.33078l-2.0 0l0 -1.75l2.109375 -0.09375l0.3125 -2.109375l1.9375 0l0 2.109375l3.359375 0l0 1.84375l-3.359375 0l0 2.78125q0 0.90625 0.390625 1.296875q0.40625 0.375 1.265625 0.375q0.46875 0 0.84375 -0.078125q0.390625 -0.09375 0.75 -0.21875l0.40625 1.703125q-0.53125 0.15625 -1.1875 0.28125q-0.640625 0.140625 -1.40625 0.140625q-0.9375 0 -1.59375 -0.25q-0.65625 -0.25 -1.0625 -0.703125q-0.40625 -0.46875 -0.59375 -1.109375q-0.171875 -0.640625 -0.171875 -1.421875l0 -2.796875zm7.5687256 2.125q0 -0.984375 0.328125 -1.765625q0.34375 -0.78125 0.90625 -1.296875q0.578125 -0.53125 1.296875 -0.8125q0.734375 -0.28125 1.515625 -0.28125q0.78125 0 1.515625 0.28125q0.734375 0.28125 1.296875 0.8125q0.5625 0.515625 0.890625 1.296875q0.34375 0.78125 0.34375 1.765625q0 1.0 -0.34375 1.78125q-0.328125 0.765625 -0.890625 1.296875q-0.5625 0.515625 -1.296875 0.796875q-0.734375 0.28125 -1.515625 0.28125q-0.78125 0 -1.515625 -0.28125q-0.71875 -0.28125 -1.296875 -0.796875q-0.5625 -0.53125 -0.90625 -1.296875q-0.328125 -0.78125 -0.328125 -1.78125zm2.421875 0q0 1.046875 0.40625 1.65625q0.40625 0.59375 1.21875 0.59375q0.8125 0 1.21875 -0.59375q0.421875 -0.609375 0.421875 -1.65625q0 -1.046875 -0.421875 -1.640625q-0.40625 -0.609375 -1.21875 -0.609375q-0.8125 0 -1.21875 0.609375q-0.40625 0.59375 -0.40625 1.640625z" fill-rule="nonzero"></path><path fill="#000000" fill-opacity="0.0" d="m701.58124 323.5645l68.44092 0.1574707" fill-rule="evenodd"></path><path stroke="#595959" stroke-width="1.0" stroke-linejoin="round" stroke-linecap="butt" d="m701.5812 323.5645l62.44098 0.14367676" fill-rule="evenodd"></path><path fill="#595959" stroke="#595959" stroke-width="1.0" stroke-linecap="butt" d="m764.0184 325.35992l4.54187 -1.6412964l-4.5343018 -1.6621704z" fill-rule="evenodd"></path><path fill="#000000" fill-opacity="0.0" d="m714.10236 291.10562l36.91339 0l0 31.496033l-36.91339 0z" fill-rule="evenodd"></path><path fill="#000000" d="m728.0086 316.5256l0.234375 1.484375q-0.703125 0.140625 -1.265625 0.140625q-0.90625 0 -1.40625 -0.28125q-0.5 -0.296875 -0.703125 -0.75q-0.203125 -0.46875 -0.203125 -1.984375l0 -5.65625l-1.234375 0l0 -1.3125l1.234375 0l0 -2.4375l1.65625 -1.0l0 3.4375l1.6875 0l0 1.3125l-1.6875 0l0 5.75q0 0.71875 0.078125 0.921875q0.09375 0.203125 0.296875 0.328125q0.203125 0.125 0.578125 0.125q0.265625 0 0.734375 -0.078125z" fill-rule="nonzero"></path><path fill="#000000" fill-opacity="0.0" d="m105.51181 323.7198l83.71654 0" fill-rule="evenodd"></path><path stroke="#595959" stroke-width="1.0" stroke-linejoin="round" stroke-linecap="butt" d="m105.51181 323.7198l77.71654 0" fill-rule="evenodd"></path><path fill="#595959" stroke="#595959" stroke-width="1.0" stroke-linecap="butt" d="m183.22835 325.37152l4.538101 -1.6517334l-4.538101 -1.6517334z" fill-rule="evenodd"></path><path fill="#000000" fill-opacity="0.0" d="m770.01575 323.7198l84.47241 0" fill-rule="evenodd"></path><path stroke="#595959" stroke-width="1.0" stroke-linejoin="round" stroke-linecap="butt" d="m770.01575 323.7198l78.47241 0" fill-rule="evenodd"></path><path fill="#595959" stroke="#595959" stroke-width="1.0" stroke-linecap="butt" d="m848.48816 325.37152l4.538147 -1.6517334l-4.538147 -1.6517334z" fill-rule="evenodd"></path><path fill="#000000" fill-opacity="0.0" d="m127.10236 290.10562l36.913383 0l0 31.496033l-36.913383 0z" fill-rule="evenodd"></path><path fill="#000000" d="m136.68048 314.0881l1.65625 -0.265625q0.140625 1.0 0.765625 1.53125q0.640625 0.515625 1.78125 0.515625q1.15625 0 1.703125 -0.46875q0.5625 -0.46875 0.5625 -1.09375q0 -0.5625 -0.484375 -0.890625q-0.34375 -0.21875 -1.703125 -0.5625q-1.84375 -0.46875 -2.5625 -0.796875q-0.703125 -0.34375 -1.078125 -0.9375q-0.359375 -0.609375 -0.359375 -1.328125q0 -0.65625 0.296875 -1.21875q0.3125 -0.5625 0.828125 -0.9375q0.390625 -0.28125 1.0625 -0.484375q0.671875 -0.203125 1.4375 -0.203125q1.171875 0 2.046875 0.34375q0.875 0.328125 1.28125 0.90625q0.421875 0.5625 0.578125 1.515625l-1.625 0.21875q-0.109375 -0.75 -0.65625 -1.171875q-0.53125 -0.4375 -1.5 -0.4375q-1.15625 0 -1.640625 0.390625q-0.484375 0.375 -0.484375 0.875q0 0.328125 0.203125 0.59375q0.203125 0.265625 0.640625 0.4375q0.25 0.09375 1.46875 0.4375q1.765625 0.46875 2.46875 0.765625q0.703125 0.296875 1.09375 0.875q0.40625 0.578125 0.40625 1.4375q0 0.828125 -0.484375 1.578125q-0.484375 0.734375 -1.40625 1.140625q-0.921875 0.390625 -2.078125 0.390625q-1.921875 0 -2.9375 -0.796875q-1.0 -0.796875 -1.28125 -2.359375z" fill-rule="nonzero"></path><path fill="#000000" fill-opacity="0.0" d="m794.10236 291.10562l36.91339 0l0 31.496033l-36.91339 0z" fill-rule="evenodd"></path><path fill="#000000" d="m808.0086 316.5256l0.234375 1.484375q-0.703125 0.140625 -1.265625 0.140625q-0.90625 0 -1.40625 -0.28125q-0.5 -0.296875 -0.703125 -0.75q-0.203125 -0.46875 -0.203125 -1.984375l0 -5.65625l-1.234375 0l0 -1.3125l1.234375 0l0 -2.4375l1.65625 -1.0l0 3.4375l1.6875 0l0 1.3125l-1.6875 0l0 5.75q0 0.71875 0.078125 0.921875q0.09375 0.203125 0.296875 0.328125q0.203125 0.125 0.578125 0.125q0.265625 0 0.734375 -0.078125z" fill-rule="nonzero"></path><path fill="#cfe2f3" d="m394.1286 19.120115l167.30707 0l0 73.00787l-167.30707 0z" fill-rule="evenodd"></path><path stroke="#595959" stroke-width="1.0" stroke-linejoin="round" stroke-linecap="butt" d="m394.1286 19.120115l167.30707 0l0 73.00787l-167.30707 0z" fill-rule="evenodd"></path><path fill="#000000" d="m474.1384 50.265305l2.34375 0l0 2.75l-0.125 1.53125q0.234375 -0.234375 0.515625 -0.4375q0.28125 -0.21875 0.609375 -0.390625q0.328125 -0.171875 0.71875 -0.265625q0.390625 -0.09375 0.84375 -0.09375q1.34375 0 1.953125 0.859375q0.625 0.859375 0.625 2.375l0 4.890625l-2.359375 0l0 -4.59375q0 -0.796875 -0.25 -1.15625q-0.25 -0.375 -0.90625 -0.375q-0.484375 0 -0.84375 0.203125q-0.359375 0.203125 -0.78125 0.625l0 5.296875l-2.34375 0l0 -11.21875z" fill-rule="nonzero"></path><path fill="#000000" fill-opacity="0.0" d="m295.042 55.309093l99.08661 0.31496048" fill-rule="evenodd"></path><path stroke="#595959" stroke-width="1.0" stroke-linejoin="round" stroke-linecap="butt" d="m295.042 55.30909l93.08667 0.2958908" fill-rule="evenodd"></path><path fill="#595959" stroke="#595959" stroke-width="1.0" stroke-linecap="butt" d="m388.12338 57.256702l4.543335 -1.6372986l-4.532837 -1.6661491z" fill-rule="evenodd"></path><path fill="#000000" fill-opacity="0.0" d="m561.43567 55.624054l106.36224 0" fill-rule="evenodd"></path><path stroke="#595959" stroke-width="1.0" stroke-linejoin="round" stroke-linecap="butt" d="m561.43567 55.62405l100.36224 0" fill-rule="evenodd"></path><path fill="#595959" stroke="#595959" stroke-width="1.0" stroke-linecap="butt" d="m661.7979 57.275784l4.538086 -1.6517334l-4.538086 -1.6517296z" fill-rule="evenodd"></path><path fill="#000000" fill-opacity="0.0" d="m327.65747 23.87602l29.51181 0l0 31.496065l-29.51181 0z" fill-rule="evenodd"></path><path fill="#000000" d="m344.34497 49.57727q-0.9375 0.796875 -1.796875 1.125q-0.859375 0.3125 -1.84375 0.3125q-1.609375 0 -2.484375 -0.78125q-0.875 -0.796875 -0.875 -2.03125q0 -0.734375 0.328125 -1.328125q0.328125 -0.59375 0.859375 -0.953125q0.53125 -0.359375 1.203125 -0.546875q0.5 -0.140625 1.484375 -0.25q2.03125 -0.25 2.984375 -0.578125q0 -0.34375 0 -0.4375q0 -1.015625 -0.46875 -1.4375q-0.640625 -0.5625 -1.90625 -0.5625q-1.171875 0 -1.734375 0.40625q-0.5625 0.40625 -0.828125 1.46875l-1.640625 -0.234375q0.234375 -1.046875 0.734375 -1.6875q0.515625 -0.640625 1.46875 -0.984375q0.96875 -0.359375 2.25 -0.359375q1.265625 0 2.046875 0.296875q0.78125 0.296875 1.15625 0.75q0.375 0.453125 0.515625 1.140625q0.09375 0.421875 0.09375 1.53125l0 2.234375q0 2.328125 0.09375 2.953125q0.109375 0.609375 0.4375 1.171875l-1.75 0q-0.265625 -0.515625 -0.328125 -1.21875zm-0.140625 -3.71875q-0.90625 0.359375 -2.734375 0.625q-1.03125 0.140625 -1.453125 0.328125q-0.421875 0.1875 -0.65625 0.546875q-0.234375 0.359375 -0.234375 0.796875q0 0.671875 0.5 1.125q0.515625 0.4375 1.484375 0.4375q0.96875 0 1.71875 -0.421875q0.75 -0.4375 1.109375 -1.15625q0.265625 -0.578125 0.265625 -1.671875l0 -0.609375z" fill-rule="nonzero"></path><path fill="#000000" fill-opacity="0.0" d="m596.39764 23.87602l29.51178 0l0 31.496065l-29.51178 0z" fill-rule="evenodd"></path><path fill="#000000" d="m608.1945 50.79602l-1.546875 0l0 -13.59375l1.65625 0l0 4.84375q1.0625 -1.328125 2.703125 -1.328125q0.90625 0 1.71875 0.375q0.8125 0.359375 1.328125 1.03125q0.53125 0.65625 0.828125 1.59375q0.296875 0.9375 0.296875 2.0q0 2.53125 -1.25 3.921875q-1.25 1.375 -3.0 1.375q-1.75 0 -2.734375 -1.453125l0 1.234375zm-0.015625 -5.0q0 1.765625 0.46875 2.5625q0.796875 1.28125 2.140625 1.28125q1.09375 0 1.890625 -0.9375q0.796875 -0.953125 0.796875 -2.84375q0 -1.921875 -0.765625 -2.84375q-0.765625 -0.921875 -1.84375 -0.921875q-1.09375 0 -1.890625 0.953125q-0.796875 0.953125 -0.796875 2.75z" fill-rule="nonzero"></path><path fill="#000000" fill-opacity="0.0" d="m0 136.41843l960.69293 1.3858185" fill-rule="evenodd"></path><path stroke="#595959" stroke-width="1.0" stroke-linejoin="round" stroke-linecap="butt" stroke-dasharray="1.0,3.0" d="m0 136.41843l960.69293 1.3858185" fill-rule="evenodd"></path></g></svg>

