<?xml version="1.0" standalone="yes"?>

<svg version="1.1" viewBox="0.0 0.0 960.0 540.0" fill="none" stroke="none" stroke-linecap="square" stroke-miterlimit="10" xmlns="http://www.w3.org/2000/svg" xmlns:xlink="http://www.w3.org/1999/xlink"><clipPath id="g255716face_0_0.0"><path d="m0 0l960.0 0l0 540.0l-960.0 0l0 -540.0z" clip-rule="nonzero"></path></clipPath><g clip-path="url(#g255716face_0_0.0)"><path fill="#ffffff" d="m0 0l960.0 0l0 540.0l-960.0 0z" fill-rule="evenodd"></path><path fill="#eeeeee" d="m100.83727 169.55643l767.77954 0l0 321.6063l-767.77954 0z" fill-rule="evenodd"></path><path stroke="#595959" stroke-width="1.0" stroke-linejoin="round" stroke-linecap="butt" d="m100.83727 169.55643l767.77954 0l0 321.6063l-767.77954 0z" fill-rule="evenodd"></path><path fill="#000000" d="m111.05602 476.74646q0.140625 -0.65625 0.453125 -1.171875q0.3125 -0.53125 0.71875 -0.890625q0.421875 -0.359375 0.90625 -0.5625q0.5 -0.203125 0.96875 -0.203125q0.5 0 0.828125 0.1875q0.328125 0.1875 0.625 0.515625l0.1875 -1.0l0.421875 -2.046875l0.90625 0l-1.65625 7.828125l-0.75 0l0.078125 -0.703125l-0.03125 0q-0.40625 0.34375 -0.921875 0.59375q-0.515625 0.234375 -1.0 0.234375q-0.53125 0 -0.921875 -0.171875q-0.375 -0.1875 -0.609375 -0.546875q-0.234375 -0.359375 -0.296875 -0.875q-0.046875 -0.515625 0.09375 -1.1875zm0.9375 -0.015625q-0.203125 0.96875 0.09375 1.515625q0.3125 0.53125 1.0625 0.53125q0.78125 0 1.671875 -0.8125l0.5625 -2.65625q-0.296875 -0.34375 -0.609375 -0.484375q-0.3125 -0.140625 -0.671875 -0.140625q-0.34375 0 -0.6875 0.15625q-0.328125 0.140625 -0.609375 0.40625q-0.28125 0.265625 -0.5 0.640625q-0.203125 0.375 -0.3125 0.84375zm6.362564 -2.671875l3.390625 0l-1.140625 5.34375l-0.90625 0l0.984375 -4.609375l-2.484375 0l0.15625 -0.734375zm3.078125 -1.109375q-0.3125 0 -0.484375 -0.171875q-0.15625 -0.1875 -0.09375 -0.515625q0.0625 -0.3125 0.3125 -0.5q0.25 -0.203125 0.5625 -0.203125q0.3125 0 0.46875 0.203125q0.15625 0.1875 0.09375 0.5q-0.0625 0.328125 -0.3125 0.515625q-0.234375 0.171875 -0.546875 0.171875zm2.987564 1.109375l0.703125 0l-0.078125 0.703125l0.03125 0q0.28125 -0.375 0.609375 -0.609375q0.328125 -0.234375 0.78125 -0.234375q0.8125 0 0.8125 0.9375q0.328125 -0.421875 0.671875 -0.671875q0.34374237 -0.265625 0.7968674 -0.265625q0.5625 0 0.765625 0.4375q0.203125 0.421875 0.03125 1.21875l-0.8125 3.828125l-0.8593674 0l0.7968674 -3.75q0.203125 -0.953125 -0.390625 -0.953125q-0.28124237 0 -0.5468674 0.203125q-0.25 0.203125 -0.53125 0.625l-0.828125 3.875l-0.71875 0l0.796875 -3.75q0.203125 -0.953125 -0.40625 -0.953125q-0.28125 0 -0.53125 0.203125q-0.25 0.203125 -0.53125 0.625l-0.828125 3.875l-0.875 0l1.140625 -5.34375zm5.7844315 3.953125q0.09375 -0.453125 0.375 -0.78125q0.28125 -0.34375 0.796875 -0.578125q0.53125 -0.234375 1.296875 -0.390625q0.78125 -0.15625 1.828125 -0.25q0.046875 -0.265625 0.015625 -0.5q-0.03125 -0.25 -0.15625 -0.4375q-0.125 -0.1875 -0.375 -0.296875q-0.234375 -0.109375 -0.625 -0.109375q-0.53125 0 -1.0625 0.203125q-0.515625 0.203125 -0.9375 0.4375l-0.21875 -0.609375q0.21875 -0.140625 0.515625 -0.265625q0.3125 -0.140625 0.625 -0.25q0.328125 -0.109375 0.6875 -0.1875q0.359375 -0.078125 0.71875 -0.078125q1.09375 0 1.5 0.609375q0.40625 0.59375 0.203125 1.59375l-0.703125 3.28125l-0.75 0l0.078125 -0.71875l-0.03125 0q-0.53125 0.34375 -1.125 0.59375q-0.59375 0.25 -1.171875 0.25q-0.375 0 -0.6875 -0.109375q-0.296875 -0.09375 -0.515625 -0.28125q-0.203125 -0.203125 -0.28125 -0.46875q-0.078125 -0.28125 0 -0.65625zm0.890625 -0.0625q-0.046875 0.234375 0.015625 0.390625q0.0625 0.15625 0.1875 0.265625q0.140625 0.109375 0.34375 0.15625q0.21875 0.046875 0.453125 0.046875q0.453125 0 0.9375 -0.203125q0.5 -0.203125 1.046875 -0.59375l0.296875 -1.40625q-0.875 0.0625 -1.484375 0.1875q-0.59375 0.125 -0.984375 0.296875q-0.375 0.171875 -0.578125 0.390625q-0.1875 0.203125 -0.234375 0.46875zm6.143814 1.90625l-0.390625 1.796875l-0.90625 0l1.625 -7.59375l0.75 0l-0.078125 0.6875l0.03125 0q0.453125 -0.359375 1.0 -0.59375q0.546875 -0.234375 1.046875 -0.234375q0.53125 0 0.890625 0.203125q0.375 0.1875 0.578125 0.546875q0.21875 0.359375 0.25 0.859375q0.03125 0.5 -0.109375 1.125q-0.140625 0.6875 -0.453125 1.21875q-0.296875 0.53125 -0.71875 0.90625q-0.421875 0.375 -0.90625 0.5625q-0.46875 0.1875 -0.953125 0.1875q-0.375 0 -0.78125 -0.171875q-0.390625 -0.1875 -0.671875 -0.515625l-0.203125 1.015625zm0.359375 -1.703125q0.3125 0.34375 0.671875 0.484375q0.359375 0.140625 0.640625 0.140625q0.71875 0 1.296875 -0.5625q0.578125 -0.5625 0.78125 -1.5625q0.09375 -0.4375 0.078125 -0.796875q0 -0.375 -0.125 -0.625q-0.125 -0.265625 -0.390625 -0.40625q-0.25 -0.140625 -0.640625 -0.140625q-0.359375 0 -0.796875 0.203125q-0.4375 0.1875 -0.953125 0.59375l-0.5625 2.671875z" fill-rule="nonzero"></path><path fill="#000000" d="m150.12202 479.85583l0 1.796875l-0.90625 0l0 -7.59375l0.75 0l0.078125 0.6875l0.03125 0q0.375 -0.359375 0.859375 -0.59375q0.5 -0.234375 1.0 -0.234375q0.53125 0 0.9375 0.203125q0.421875 0.1875 0.703125 0.546875q0.28125 0.359375 0.421875 0.859375q0.140625 0.5 0.140625 1.125q0 0.6875 -0.203125 1.21875q-0.1875 0.53125 -0.53125 0.90625q-0.328125 0.375 -0.765625 0.5625q-0.4375 0.1875 -0.921875 0.1875q-0.375 0 -0.8125 -0.171875q-0.4375 -0.1875 -0.796875 -0.515625l0.015625 1.015625zm0 -1.703125q0.390625 0.34375 0.765625 0.484375q0.390625 0.140625 0.671875 0.140625q0.71875 0 1.171875 -0.5625q0.46875 -0.5625 0.46875 -1.5625q0 -0.4375 -0.09375 -0.796875q-0.078125 -0.375 -0.265625 -0.625q-0.171875 -0.265625 -0.46875 -0.40625q-0.28125 -0.140625 -0.671875 -0.140625q-0.359375 0 -0.765625 0.203125q-0.390625 0.1875 -0.8125 0.59375l0 2.671875zm6.081314 -4.09375l0.75 0l0.078125 1.265625l0.03125 0q0.40625 -0.65625 1.015625 -1.03125q0.625 -0.375 1.359375 -0.375q0.296875 0 0.546875 0.0625q0.265625 0.046875 0.515625 0.15625l-0.203125 0.78125q-0.296875 -0.09375 -0.484375 -0.125q-0.1875 -0.046875 -0.515625 -0.046875q-0.59375 0 -1.15625 0.34375q-0.5625 0.34375 -1.03125 1.171875l0 3.140625l-0.90625 0l0 -5.34375zm5.550064 2.6875q0 -0.671875 0.21875 -1.1875q0.234375 -0.515625 0.609375 -0.875q0.390625 -0.375 0.875 -0.5625q0.484375 -0.203125 1.0 -0.203125q0.578125 0 1.03125 0.1875q0.453125 0.1875 0.765625 0.515625q0.3125 0.328125 0.46875 0.796875q0.171875 0.453125 0.171875 1.015625q0 0.140625 -0.015625 0.28125q0 0.140625 -0.015625 0.234375l-4.1875 0q0.015625 0.421875 0.171875 0.765625q0.171875 0.34375 0.4375 0.59375q0.265625 0.234375 0.625 0.375q0.375 0.125 0.8125 0.125q0.484375 0 0.875 -0.125q0.390625 -0.140625 0.765625 -0.375l0.3125 0.59375q-0.390625 0.265625 -0.90625 0.453125q-0.5 0.171875 -1.15625 0.171875q-0.59375 0 -1.125 -0.1875q-0.515625 -0.1875 -0.90625 -0.546875q-0.390625 -0.359375 -0.609375 -0.875q-0.21875 -0.515625 -0.21875 -1.171875zm4.3125 -0.453125q0 -0.796875 -0.421875 -1.21875q-0.421875 -0.4375 -1.171875 -0.4375q-0.328125 0 -0.640625 0.109375q-0.296875 0.109375 -0.546875 0.328125q-0.234375 0.21875 -0.40625 0.53125q-0.15625 0.296875 -0.203125 0.6875l3.390625 0zm1.8781891 -2.234375l0.90625 0l1.234375 3.03125q0.171875 0.40625 0.3125 0.796875q0.15625 0.390625 0.296875 0.78125l0.046875 0q0.140625 -0.390625 0.265625 -0.78125q0.140625 -0.390625 0.3125 -0.796875l1.234375 -3.03125l0.859375 0l-2.203125 5.34375l-1.015625 0l-2.25 -5.34375zm6.815689 0l3.390625 0l0 5.34375l-0.90625 0l0 -4.609375l-2.484375 0l0 -0.734375zm2.84375 -1.109375q-0.3125 0 -0.515625 -0.171875q-0.203125 -0.1875 -0.203125 -0.515625q0 -0.3125 0.203125 -0.5q0.203125 -0.203125 0.515625 -0.203125q0.3125 0 0.515625 0.203125q0.203125 0.1875 0.203125 0.5q0 0.328125 -0.203125 0.515625q-0.203125 0.171875 -0.515625 0.171875zm3.331314 3.796875q0 -0.671875 0.21875 -1.1875q0.234375 -0.515625 0.609375 -0.875q0.390625 -0.375 0.875 -0.5625q0.484375 -0.203125 1.0 -0.203125q0.578125 0 1.03125 0.1875q0.453125 0.1875 0.765625 0.515625q0.3125 0.328125 0.46875 0.796875q0.171875 0.453125 0.171875 1.015625q0 0.140625 -0.015625 0.28125q0 0.140625 -0.015625 0.234375l-4.1875 0q0.015625 0.421875 0.171875 0.765625q0.171875 0.34375 0.4375 0.59375q0.265625 0.234375 0.625 0.375q0.375 0.125 0.8125 0.125q0.484375 0 0.875 -0.125q0.390625 -0.140625 0.765625 -0.375l0.3125 0.59375q-0.390625 0.265625 -0.90625 0.453125q-0.5 0.171875 -1.15625 0.171875q-0.59375 0 -1.125 -0.1875q-0.515625 -0.1875 -0.90625 -0.546875q-0.390625 -0.359375 -0.609375 -0.875q-0.21875 -0.515625 -0.21875 -1.171875zm4.3125 -0.453125q0 -0.796875 -0.421875 -1.21875q-0.421875 -0.4375 -1.171875 -0.4375q-0.328125 0 -0.640625 0.109375q-0.296875 0.109375 -0.546875 0.328125q-0.234375 0.21875 -0.40625 0.53125q-0.15625 0.296875 -0.203125 0.6875l3.390625 0zm1.4094391 -2.234375l0.921875 0l0.640625 3.09375q0.078125 0.375 0.140625 0.75q0.078125 0.359375 0.125 0.734375l0.046875 0q0.078125 -0.375 0.15625 -0.734375q0.078125 -0.375 0.15625 -0.75l0.65625 -2.78125l0.765625 0l0.65625 2.78125q0.09375 0.375 0.171875 0.75q0.078125 0.359375 0.171875 0.734375l0.03125 0q0.078125 -0.375 0.140625 -0.734375q0.0625 -0.375 0.125 -0.75l0.65625 -3.09375l0.859375 0l-1.171875 5.34375l-1.09375 0l-0.625 -2.703125q-0.078125 -0.390625 -0.15625 -0.765625q-0.0625 -0.375 -0.140625 -0.78125l-0.046875 0q-0.0625 0.34375 -0.140625 0.71875q-0.0625 0.375 -0.15625 0.84375l-0.625 2.6875l-1.078125 0l-1.1875 -5.34375zm8.690689 0.96875q0.53125 -0.28125 0.8125 -0.71875q0.296875 -0.4375 0.328125 -1.015625q-0.125 0.0625 -0.28125 0.0625q-0.359375 0 -0.578125 -0.21875q-0.203125 -0.21875 -0.203125 -0.5625q0 -0.390625 0.21875 -0.625q0.234375 -0.234375 0.59375 -0.234375q0.4375 0 0.703125 0.359375q0.28125 0.34375 0.28125 0.96875q0 0.828125 -0.421875 1.484375q-0.40625 0.640625 -1.15625 1.03125l-0.296875 -0.53125zm15.162628 6.3125q-1.140625 -0.890625 -1.8125 -2.140625q-0.671875 -1.265625 -0.671875 -2.859375q0 -1.59375 0.671875 -2.84375q0.671875 -1.25 1.8125 -2.140625l0.5 0.453125q-1.125 0.9375 -1.640625 2.046875q-0.515625 1.09375 -0.515625 2.484375q0 1.40625 0.515625 2.5q0.515625 1.09375 1.640625 2.03125l-0.5 0.46875l0 0zm2.393814 -4.59375q0 -0.671875 0.21875 -1.1875q0.234375 -0.515625 0.609375 -0.875q0.390625 -0.375 0.875 -0.5625q0.484375 -0.203125 1.0 -0.203125q0.578125 0 1.03125 0.1875q0.453125 0.1875 0.765625 0.515625q0.3125 0.328125 0.46875 0.796875q0.171875 0.453125 0.171875 1.015625q0 0.140625 -0.015625 0.28125q0 0.140625 -0.015625 0.234375l-4.1875 0q0.015625 0.421875 0.171875 0.765625q0.171875 0.34375 0.4375 0.59375q0.265625 0.234375 0.625 0.375q0.375 0.125 0.8125 0.125q0.484375 0 0.875 -0.125q0.390625 -0.140625 0.765625 -0.375l0.3125 0.59375q-0.390625 0.265625 -0.90625 0.453125q-0.5 0.171875 -1.15625 0.171875q-0.59375 0 -1.125 -0.1875q-0.515625 -0.1875 -0.90625 -0.546875q-0.390625 -0.359375 -0.609375 -0.875q-0.21875 -0.515625 -0.21875 -1.171875zm4.3125 -0.453125q0 -0.796875 -0.421875 -1.21875q-0.421875 -0.4375 -1.171875 -0.4375q-0.328125 0 -0.640625 0.109375q-0.296875 0.109375 -0.546875 0.328125q-0.234375 0.21875 -0.40625 0.53125q-0.15625 0.296875 -0.203125 0.6875l3.390625 0zm2.300064 -2.234375l3.390625 0l0 5.34375l-0.90625 0l0 -4.609375l-2.484375 0l0 -0.734375zm2.84375 -1.109375q-0.3125 0 -0.515625 -0.171875q-0.203125 -0.1875 -0.203125 -0.515625q0 -0.3125 0.203125 -0.5q0.203125 -0.203125 0.515625 -0.203125q0.3125 0 0.515625 0.203125q0.203125 0.1875 0.203125 0.5q0 0.328125 -0.203125 0.515625q-0.203125 0.171875 -0.515625 0.171875zm4.831314 1.84375l-1.5 0l0 -0.6875l1.53125 -0.046875l0.125 -1.5l0.75 0l0 1.5l2.625 0l0 0.734375l-2.625 0l0 2.546875q0 0.359375 0.0625 0.625q0.0625 0.265625 0.21875 0.453125q0.15625 0.1875 0.421875 0.28125q0.265625 0.09375 0.640625 0.09375q0.390625 0 0.6875 -0.0625q0.3125 -0.0625 0.609375 -0.171875l0.1875 0.65625q-0.359375 0.125 -0.796875 0.21875q-0.4375 0.09375 -0.875 0.09375q-0.59375 0 -0.984375 -0.15625q-0.390625 -0.15625 -0.640625 -0.4375q-0.234375 -0.296875 -0.34375 -0.703125q-0.09375 -0.40625 -0.09375 -0.90625l0 -2.53125zm5.143814 -3.21875l0.90625 0l0 2.125l-0.046875 1.265625q0.4375 -0.453125 0.921875 -0.75q0.484375 -0.296875 1.109375 -0.296875q0.953125 0 1.390625 0.546875q0.453125 0.546875 0.453125 1.609375l0 3.328125l-0.90625 0l0 -3.203125q0 -0.75 -0.28125 -1.125q-0.28125 -0.375 -0.9375 -0.375q-0.25 0 -0.453125 0.0625q-0.203125 0.0625 -0.40625 0.1875q-0.1875 0.125 -0.40625 0.3125q-0.203125 0.171875 -0.4375 0.40625l0 3.734375l-0.90625 0l0 -7.828125zm6.143814 5.171875q0 -0.671875 0.21875 -1.1875q0.234375 -0.515625 0.609375 -0.875q0.390625 -0.375 0.875 -0.5625q0.484375 -0.203125 1.0 -0.203125q0.578125 0 1.03125 0.1875q0.453125 0.1875 0.765625 0.515625q0.3125 0.328125 0.46875 0.796875q0.171875 0.453125 0.171875 1.015625q0 0.140625 -0.015625 0.28125q0 0.140625 -0.015625 0.234375l-4.1875 0q0.015625 0.421875 0.171875 0.765625q0.171875 0.34375 0.4375 0.59375q0.265625 0.234375 0.625 0.375q0.375 0.125 0.8125 0.125q0.484375 0 0.875 -0.125q0.390625 -0.140625 0.765625 -0.375l0.3125 0.59375q-0.390625 0.265625 -0.90625 0.453125q-0.5 0.171875 -1.15625 0.171875q-0.59375 0 -1.125 -0.1875q-0.515625 -0.1875 -0.90625 -0.546875q-0.390625 -0.359375 -0.609375 -0.875q-0.21875 -0.515625 -0.21875 -1.171875zm4.3125 -0.453125q0 -0.796875 -0.421875 -1.21875q-0.421875 -0.4375 -1.171875 -0.4375q-0.328125 0 -0.640625 0.109375q-0.296875 0.109375 -0.546875 0.328125q-0.234375 0.21875 -0.40625 0.53125q-0.15625 0.296875 -0.203125 0.6875l3.390625 0zm2.925064 -2.234375l0.75 0l0.078125 1.265625l0.03125 0q0.40625 -0.65625 1.015625 -1.03125q0.625 -0.375 1.359375 -0.375q0.296875 0 0.546875 0.0625q0.265625 0.046875 0.515625 0.15625l-0.203125 0.78125q-0.296875 -0.09375 -0.484375 -0.125q-0.1875 -0.046875 -0.515625 -0.046875q-0.59375 0 -1.15625 0.34375q-0.5625 0.34375 -1.03125 1.171875l0 3.140625l-0.90625 0l0 -5.34375zm12.162628 0l3.390625 0l0 5.34375l-0.90625 0l0 -4.609375l-2.484375 0l0 -0.734375zm2.84375 -1.109375q-0.3125 0 -0.515625 -0.171875q-0.203125 -0.1875 -0.203125 -0.515625q0 -0.3125 0.203125 -0.5q0.203125 -0.203125 0.515625 -0.203125q0.3125 0 0.515625 0.203125q0.203125 0.1875 0.203125 0.5q0 0.328125 -0.203125 0.515625q-0.203125 0.171875 -0.515625 0.171875zm3.2219543 3.796875q0 -0.65625 0.203125 -1.171875q0.203125 -0.53125 0.53125 -0.890625q0.34375 -0.359375 0.78125 -0.5625q0.453125 -0.203125 0.921875 -0.203125q0.5 0 0.859375 0.1875q0.375 0.1875 0.75 0.515625l-0.03125 -1.0l0 -2.046875l0.90625 0l0 7.828125l-0.75 0l-0.078125 -0.703125l-0.03125 0q-0.328125 0.34375 -0.796875 0.59375q-0.453125 0.234375 -0.9375 0.234375q-0.53125 0 -0.953125 -0.171875q-0.421875 -0.1875 -0.734375 -0.546875q-0.3125 -0.359375 -0.484375 -0.875q-0.15625 -0.515625 -0.15625 -1.1875zm0.9375 -0.015625q0 0.96875 0.40625 1.515625q0.421875 0.53125 1.171875 0.53125q0.78125 0 1.5 -0.8125l0 -2.65625q-0.359375 -0.34375 -0.703125 -0.484375q-0.34375 -0.140625 -0.703125 -0.140625q-0.34375 0 -0.65625 0.15625q-0.296875 0.140625 -0.53125 0.40625q-0.21875 0.265625 -0.359375 0.640625q-0.125 0.375 -0.125 0.84375zm12.178253 -2.671875l3.390625 0l0 5.34375l-0.90625 0l0 -4.609375l-2.484375 0l0 -0.734375zm2.84375 -1.109375q-0.3125 0 -0.515625 -0.171875q-0.203125 -0.1875 -0.203125 -0.515625q0 -0.3125 0.203125 -0.5q0.203125 -0.203125 0.515625 -0.203125q0.3125 0 0.515625 0.203125q0.203125 0.1875 0.203125 0.5q0 0.328125 -0.203125 0.515625q-0.203125 0.171875 -0.515625 0.171875zm3.2219238 3.796875q0 -0.65625 0.203125 -1.171875q0.203125 -0.53125 0.53125 -0.890625q0.34375 -0.359375 0.78125 -0.5625q0.453125 -0.203125 0.921875 -0.203125q0.5 0 0.859375 0.1875q0.375 0.1875 0.75 0.515625l-0.03125 -1.0l0 -2.046875l0.90625 0l0 7.828125l-0.75 0l-0.078125 -0.703125l-0.03125 0q-0.328125 0.34375 -0.796875 0.59375q-0.453125 0.234375 -0.9375 0.234375q-0.53125 0 -0.953125 -0.171875q-0.421875 -0.1875 -0.734375 -0.546875q-0.3125 -0.359375 -0.484375 -0.875q-0.15625 -0.515625 -0.15625 -1.1875zm0.9375 -0.015625q0 0.96875 0.40625 1.515625q0.421875 0.53125 1.171875 0.53125q0.78125 0 1.5 -0.8125l0 -2.65625q-0.359375 -0.34375 -0.703125 -0.484375q-0.34375 -0.140625 -0.703125 -0.140625q-0.34375 0 -0.65625 0.15625q-0.296875 0.140625 -0.53125 0.40625q-0.21875 0.265625 -0.359375 0.640625q-0.125 0.375 -0.125 0.84375zm6.1438293 4.140625q1.109375 -0.9375 1.625 -2.03125q0.53125 -1.09375 0.53125 -2.5q0 -1.390625 -0.53125 -2.484375q-0.515625 -1.109375 -1.625 -2.046875l0.5 -0.453125q1.140625 0.890625 1.796875 2.140625q0.671875 1.25 0.671875 2.84375q0 1.59375 -0.671875 2.859375q-0.65625 1.25 -1.796875 2.140625l-0.5 -0.46875z" fill-rule="nonzero"></path><path fill="#d9d2e9" d="m267.93176 205.80052l455.68506 0l0 250.4882l-455.68506 0z" fill-rule="evenodd"></path><path stroke="#595959" stroke-width="1.0" stroke-linejoin="round" stroke-linecap="butt" d="m267.93176 205.80052l455.68506 0l0 250.4882l-455.68506 0z" fill-rule="evenodd"></path><path fill="#000000" d="m279.47864 436.7006l2.734375 0l-1.28125 6.09375q-0.125 0.59375 0.09375 0.859375q0.21875 0.265625 0.6875 0.265625q0.453125 0 1.078125 -0.265625l0.09375 0.6875q-0.390625 0.125 -0.734375 0.21875q-0.34375 0.09375 -0.78125 0.09375q-0.859375 0 -1.203125 -0.484375q-0.34375 -0.484375 -0.140625 -1.4375l1.125 -5.296875l-1.828125 0l0.15625 -0.734375zm5.175049 5.171875q0.140625 -0.671875 0.46875 -1.1875q0.34375 -0.515625 0.796875 -0.875q0.46875 -0.375 1.0 -0.5625q0.53125 -0.203125 1.046875 -0.203125q0.578125 0 0.984375 0.1875q0.421875 0.1875 0.65625 0.515625q0.25 0.328125 0.3125 0.796875q0.0625 0.453125 -0.0625 1.015625q-0.03125 0.140625 -0.0625 0.28125q-0.03125 0.140625 -0.078125 0.234375l-4.1875 0q-0.0625 0.421875 0.015625 0.765625q0.09375 0.34375 0.3125 0.59375q0.21875 0.234375 0.546875 0.375q0.34375 0.125 0.78125 0.125q0.484375 0 0.90625 -0.125q0.421875 -0.140625 0.84375 -0.375l0.1875 0.59375q-0.453125 0.265625 -1.0 0.453125q-0.546875 0.171875 -1.203125 0.171875q-0.59375 0 -1.078125 -0.1875q-0.484375 -0.1875 -0.796875 -0.546875q-0.3125 -0.359375 -0.421875 -0.875q-0.109375 -0.515625 0.03125 -1.171875zm4.40625 -0.453125q0.171875 -0.796875 -0.15625 -1.21875q-0.328125 -0.4375 -1.078125 -0.4375q-0.328125 0 -0.65625 0.109375q-0.328125 0.109375 -0.625 0.328125q-0.28125 0.21875 -0.515625 0.53125q-0.21875 0.296875 -0.359375 0.6875l3.390625 0zm8.300079 -3.859375q-0.3125 -0.15625 -0.578125 -0.203125q-0.265625 -0.0625 -0.625 -0.0625q-0.71875 0 -1.125 0.375q-0.390625 0.375 -0.53125 1.03125l-0.09375 0.484375l2.25 0l-0.15625 0.734375l-2.25 0l-0.984375 4.609375l-0.890625 0l0.984375 -4.609375l-1.515625 0l0.140625 -0.6875l1.53125 -0.046875l0.09375 -0.453125q0.203125 -0.984375 0.84375 -1.578125q0.65625 -0.59375 1.765625 -0.59375q0.796875 0 1.484375 0.3125l-0.34375 0.6875zm2.0031738 2.359375l-1.5 0l0.140625 -0.6875l1.546875 -0.046875l0.4375 -1.5l0.75 0l-0.3125 1.5l2.625 0l-0.15625 0.734375l-2.625 0l-0.546875 2.546875q-0.078125 0.359375 -0.078125 0.625q0.015625 0.265625 0.125 0.453125q0.125 0.1875 0.359375 0.28125q0.25 0.09375 0.625 0.09375q0.390625 0 0.703125 -0.0625q0.328125 -0.0625 0.640625 -0.171875l0.0625 0.65625q-0.390625 0.125 -0.859375 0.21875q-0.453125 0.09375 -0.890625 0.09375q-0.59375 0 -0.953125 -0.15625q-0.34375 -0.15625 -0.53125 -0.4375q-0.1875 -0.296875 -0.203125 -0.703125q-0.015625 -0.40625 0.09375 -0.90625l0.546875 -2.53125z" fill-rule="nonzero"></path><path fill="#cfe2f3" d="m394.1286 30.029205l167.30707 0l0 73.00787l-167.30707 0z" fill-rule="evenodd"></path><path stroke="#595959" stroke-width="1.0" stroke-linejoin="round" stroke-linecap="butt" d="m394.1286 30.029205l167.30707 0l0 73.00787l-167.30707 0z" fill-rule="evenodd"></path><path fill="#000000" d="m474.1384 61.174393l2.34375 0l0 2.75l-0.125 1.53125q0.234375 -0.234375 0.515625 -0.4375q0.28125 -0.21875 0.609375 -0.390625q0.328125 -0.171875 0.71875 -0.265625q0.390625 -0.09375 0.84375 -0.09375q1.34375 0 1.953125 0.859375q0.625 0.859375 0.625 2.375l0 4.890625l-2.359375 0l0 -4.59375q0 -0.796875 -0.25 -1.15625q-0.25 -0.375 -0.90625 -0.375q-0.484375 0 -0.84375 0.203125q-0.359375 0.203125 -0.78125 0.625l0 5.296875l-2.34375 0l0 -11.21875z" fill-rule="nonzero"></path><path fill="#000000" fill-opacity="0.0" d="m295.042 66.218185l99.08661 0.31495667" fill-rule="evenodd"></path><path stroke="#595959" stroke-width="1.0" stroke-linejoin="round" stroke-linecap="butt" d="m295.042 66.21818l93.08667 0.2958908" fill-rule="evenodd"></path><path fill="#595959" stroke="#595959" stroke-width="1.0" stroke-linecap="butt" d="m388.12338 68.165794l4.543335 -1.6372986l-4.532837 -1.666153z" fill-rule="evenodd"></path><path fill="#000000" fill-opacity="0.0" d="m561.43567 66.53314l106.36224 0" fill-rule="evenodd"></path><path stroke="#595959" stroke-width="1.0" stroke-linejoin="round" stroke-linecap="butt" d="m561.43567 66.53314l100.36224 0" fill-rule="evenodd"></path><path fill="#595959" stroke="#595959" stroke-width="1.0" stroke-linecap="butt" d="m661.7979 68.184875l4.538086 -1.6517334l-4.538086 -1.6517334z" fill-rule="evenodd"></path><path fill="#000000" fill-opacity="0.0" d="m327.65747 34.78511l29.51181 0l0 31.496063l-29.51181 0z" fill-rule="evenodd"></path><path fill="#000000" d="m344.34497 60.48636q-0.9375 0.796875 -1.796875 1.125q-0.859375 0.3125 -1.84375 0.3125q-1.609375 0 -2.484375 -0.78125q-0.875 -0.796875 -0.875 -2.03125q0 -0.734375 0.328125 -1.328125q0.328125 -0.59375 0.859375 -0.953125q0.53125 -0.359375 1.203125 -0.546875q0.5 -0.140625 1.484375 -0.25q2.03125 -0.25 2.984375 -0.578125q0 -0.34375 0 -0.4375q0 -1.015625 -0.46875 -1.4375q-0.640625 -0.5625 -1.90625 -0.5625q-1.171875 0 -1.734375 0.40625q-0.5625 0.40625 -0.828125 1.46875l-1.640625 -0.234375q0.234375 -1.046875 0.734375 -1.6875q0.515625 -0.640625 1.46875 -0.984375q0.96875 -0.359375 2.25 -0.359375q1.265625 0 2.046875 0.296875q0.78125 0.296875 1.15625 0.75q0.375 0.453125 0.515625 1.140625q0.09375 0.421875 0.09375 1.53125l0 2.234375q0 2.328125 0.09375 2.953125q0.109375 0.609375 0.4375 1.171875l-1.75 0q-0.265625 -0.515625 -0.328125 -1.21875zm-0.140625 -3.71875q-0.90625 0.359375 -2.734375 0.625q-1.03125 0.140625 -1.453125 0.328125q-0.421875 0.1875 -0.65625 0.546875q-0.234375 0.359375 -0.234375 0.796875q0 0.671875 0.5 1.125q0.515625 0.4375 1.484375 0.4375q0.96875 0 1.71875 -0.421875q0.75 -0.4375 1.109375 -1.15625q0.265625 -0.578125 0.265625 -1.671875l0 -0.609375z" fill-rule="nonzero"></path><path fill="#000000" fill-opacity="0.0" d="m596.39764 34.78511l29.51178 0l0 31.496063l-29.51178 0z" fill-rule="evenodd"></path><path fill="#000000" d="m608.1945 61.70511l-1.546875 0l0 -13.59375l1.65625 0l0 4.84375q1.0625 -1.328125 2.703125 -1.328125q0.90625 0 1.71875 0.375q0.8125 0.359375 1.328125 1.03125q0.53125 0.65625 0.828125 1.59375q0.296875 0.9375 0.296875 2.0q0 2.53125 -1.25 3.921875q-1.25 1.375 -3.0 1.375q-1.75 0 -2.734375 -1.453125l0 1.234375zm-0.015625 -5.0q0 1.765625 0.46875 2.5625q0.796875 1.28125 2.140625 1.28125q1.09375 0 1.890625 -0.9375q0.796875 -0.953125 0.796875 -2.84375q0 -1.921875 -0.765625 -2.84375q-0.765625 -0.921875 -1.84375 -0.921875q-1.09375 0 -1.890625 0.953125q-0.796875 0.953125 -0.796875 2.75z" fill-rule="nonzero"></path><path fill="#000000" fill-opacity="0.0" d="m0 136.41843l960.69293 1.3858185" fill-rule="evenodd"></path><path stroke="#595959" stroke-width="1.0" stroke-linejoin="round" stroke-linecap="butt" stroke-dasharray="1.0,3.0" d="m0 136.41843l960.69293 1.3858185" fill-rule="evenodd"></path><path fill="#fff2cc" d="m353.45145 212.55643l289.5748 0l0 168.37796l-289.5748 0z" fill-rule="evenodd"></path><path stroke="#595959" stroke-width="1.0" stroke-linejoin="round" stroke-linecap="butt" d="m353.45145 212.55643l289.5748 0l0 168.37796l-289.5748 0z" fill-rule="evenodd"></path><path fill="#000000" d="m365.20145 363.83066l0.75 0l-0.203125 1.265625l0.03125 0q0.546875 -0.65625 1.25 -1.03125q0.703125 -0.375 1.4375 -0.375q0.296875 0 0.53125 0.0625q0.25 0.046875 0.484375 0.15625l-0.375 0.78125q-0.28125 -0.09375 -0.46875 -0.125q-0.171875 -0.046875 -0.5 -0.046875q-0.59375 0 -1.234375 0.34375q-0.625 0.34375 -1.265625 1.171875l-0.671875 3.140625l-0.90625 0l1.140625 -5.34375zm5.440674 0l0.703125 0l-0.078125 0.703125l0.03125 0q0.28125 -0.375 0.609375 -0.609375q0.328125 -0.234375 0.78125 -0.234375q0.8125 0 0.8125 0.9375q0.328125 -0.421875 0.671875 -0.671875q0.34375 -0.265625 0.796875 -0.265625q0.5625 0 0.765625 0.4375q0.203125 0.421875 0.03125 1.21875l-0.8125 3.828125l-0.859375 0l0.796875 -3.75q0.203125 -0.953125 -0.390625 -0.953125q-0.28125 0 -0.546875 0.203125q-0.25 0.203125 -0.53125 0.625l-0.828125 3.875l-0.71875 0l0.796875 -3.75q0.203125 -0.953125 -0.40625 -0.953125q-0.28125 0 -0.53125 0.203125q-0.25 0.203125 -0.53125 0.625l-0.828125 3.875l-0.875 0l1.140625 -5.34375zm5.7844543 3.953125q0.09375 -0.453125 0.375 -0.78125q0.28125 -0.34375 0.796875 -0.578125q0.53125 -0.234375 1.296875 -0.390625q0.78125 -0.15625 1.828125 -0.25q0.046875 -0.265625 0.015625 -0.5q-0.03125 -0.25 -0.15625 -0.4375q-0.125 -0.1875 -0.375 -0.296875q-0.234375 -0.109375 -0.625 -0.109375q-0.53125 0 -1.0625 0.203125q-0.515625 0.203125 -0.9375 0.4375l-0.21875 -0.609375q0.21875 -0.140625 0.515625 -0.265625q0.3125 -0.140625 0.625 -0.25q0.328125 -0.109375 0.6875 -0.1875q0.359375 -0.078125 0.71875 -0.078125q1.09375 0 1.5 0.609375q0.40625 0.59375 0.203125 1.59375l-0.703125 3.28125l-0.75 0l0.078125 -0.71875l-0.03125 0q-0.53125 0.34375 -1.125 0.59375q-0.59375 0.25 -1.171875 0.25q-0.375 0 -0.6875 -0.109375q-0.296875 -0.09375 -0.515625 -0.28125q-0.203125 -0.203125 -0.28125 -0.46875q-0.078125 -0.28125 0 -0.65625zm0.890625 -0.0625q-0.046875 0.234375 0.015625 0.390625q0.0625 0.15625 0.1875 0.265625q0.140625 0.109375 0.34375 0.15625q0.21875 0.046875 0.453125 0.046875q0.453125 0 0.9375 -0.203125q0.5 -0.203125 1.046875 -0.59375l0.296875 -1.40625q-0.875 0.0625 -1.484375 0.1875q-0.59375 0.125 -0.984375 0.296875q-0.375 0.171875 -0.578125 0.390625q-0.1875 0.203125 -0.234375 0.46875zm6.143799 1.90625l-0.390625 1.796875l-0.90625 0l1.625 -7.59375l0.75 0l-0.078125 0.6875l0.03125 0q0.453125 -0.359375 1.0 -0.59375q0.546875 -0.234375 1.046875 -0.234375q0.53125 0 0.890625 0.203125q0.375 0.1875 0.578125 0.546875q0.21875 0.359375 0.25 0.859375q0.03125 0.5 -0.109375 1.125q-0.140625 0.6875 -0.453125 1.21875q-0.296875 0.53125 -0.71875 0.90625q-0.421875 0.375 -0.90625 0.5625q-0.46875 0.1875 -0.953125 0.1875q-0.375 0 -0.78125 -0.171875q-0.390625 -0.1875 -0.671875 -0.515625l-0.203125 1.015625zm0.359375 -1.703125q0.3125 0.34375 0.671875 0.484375q0.359375 0.140625 0.640625 0.140625q0.71875 0 1.296875 -0.5625q0.578125 -0.5625 0.78125 -1.5625q0.09375 -0.4375 0.078125 -0.796875q0 -0.375 -0.125 -0.625q-0.125 -0.265625 -0.390625 -0.40625q-0.25 -0.140625 -0.640625 -0.140625q-0.359375 0 -0.796875 0.203125q-0.4375 0.1875 -0.953125 0.59375l-0.5625 2.671875z" fill-rule="nonzero"></path><path fill="#000000" d="m395.65488 367.87753q0.453125 0.328125 0.96875 0.53125q0.515625 0.1875 1.234375 0.1875q0.734375 0 1.078125 -0.234375q0.359375 -0.25 0.359375 -0.59375q0 -0.3125 -0.390625 -0.546875q-0.375 -0.25 -1.34375 -0.484375q-0.421875 -0.109375 -0.796875 -0.25q-0.359375 -0.140625 -0.640625 -0.328125q-0.265625 -0.203125 -0.4375 -0.421875q-0.171875 -0.234375 -0.171875 -0.515625q0 -0.328125 0.140625 -0.609375q0.15625 -0.28125 0.4375 -0.484375q0.28125 -0.203125 0.703125 -0.3125q0.421875 -0.125 0.96875 -0.125q0.609375 0 1.171875 0.203125q0.578125 0.203125 0.96875 0.484375l-0.4375 0.578125q-0.34375 -0.25 -0.78125 -0.40625q-0.421875 -0.15625 -0.921875 -0.15625q-0.375 0 -0.625 0.0625q-0.25 0.0625 -0.40625 0.171875q-0.15625 0.109375 -0.21875 0.25q-0.0625 0.140625 -0.0625 0.296875q0 0.328125 0.4375 0.546875q0.453125 0.203125 1.1875 0.390625q1.078125 0.28125 1.59375 0.640625q0.53125 0.34375 0.53125 0.953125q0 0.328125 -0.15625 0.625q-0.140625 0.28125 -0.453125 0.5q-0.296875 0.21875 -0.75 0.34375q-0.4375 0.125 -1.015625 0.125q-0.78125 0 -1.453125 -0.234375q-0.671875 -0.25 -1.15625 -0.59375l0.4375 -0.59375zm5.9250793 -1.359375q0 -0.671875 0.21875 -1.1875q0.234375 -0.515625 0.609375 -0.875q0.390625 -0.375 0.875 -0.5625q0.484375 -0.203125 1.0 -0.203125q0.578125 0 1.03125 0.1875q0.453125 0.1875 0.765625 0.515625q0.3125 0.328125 0.46875 0.796875q0.171875 0.453125 0.171875 1.015625q0 0.140625 -0.015625 0.28125q0 0.140625 -0.015625 0.234375l-4.1875 0q0.015625 0.421875 0.171875 0.765625q0.171875 0.34375 0.4375 0.59375q0.265625 0.234375 0.625 0.375q0.375 0.125 0.8125 0.125q0.484375 0 0.875 -0.125q0.390625 -0.140625 0.765625 -0.375l0.3125 0.59375q-0.390625 0.265625 -0.90625 0.453125q-0.5 0.171875 -1.15625 0.171875q-0.59375 0 -1.125 -0.1875q-0.515625 -0.1875 -0.90625 -0.546875q-0.390625 -0.359375 -0.609375 -0.875q-0.21875 -0.515625 -0.21875 -1.171875zm4.3125 -0.453125q0 -0.796875 -0.421875 -1.21875q-0.421875 -0.4375 -1.171875 -0.4375q-0.328125 0 -0.640625 0.109375q-0.296875 0.109375 -0.546875 0.328125q-0.234375 0.21875 -0.40625 0.53125q-0.15625 0.296875 -0.203125 0.6875l3.390625 0zm3.5812988 -1.5l-1.5 0l0 -0.6875l1.53125 -0.046875l0.125 -1.5l0.75 0l0 1.5l2.625 0l0 0.734375l-2.625 0l0 2.546875q0 0.359375 0.0625 0.625q0.0625 0.265625 0.21875 0.453125q0.15625 0.1875 0.421875 0.28125q0.265625 0.09375 0.640625 0.09375q0.390625 0 0.6875 -0.0625q0.3125 -0.0625 0.609375 -0.171875l0.1875 0.65625q-0.359375 0.125 -0.796875 0.21875q-0.4375 0.09375 -0.875 0.09375q-0.59375 0 -0.984375 -0.15625q-0.390625 -0.15625 -0.640625 -0.4375q-0.234375 -0.296875 -0.34375 -0.703125q-0.09375 -0.40625 -0.09375 -0.90625l0 -2.53125z" fill-rule="nonzero"></path><path fill="#d9ead3" d="m121.58615 331.40945l0 0c0 -30.43219 23.809982 -55.102356 53.181107 -55.102356l0 0c14.104492 0 27.631317 5.8053894 37.604706 16.1391c9.973404 10.33371 15.5763855 24.349182 15.5763855 38.963257l0 0c0 30.43219 -23.809982 55.102356 -53.18109 55.102356l0 0c-29.371124 0 -53.181107 -24.670166 -53.181107 -55.102356z" fill-rule="evenodd"></path><path stroke="#595959" stroke-width="1.0" stroke-linejoin="round" stroke-linecap="butt" d="m121.58615 331.40945l0 0c0 -30.43219 23.809982 -55.102356 53.181107 -55.102356l0 0c14.104492 0 27.631317 5.8053894 37.604706 16.1391c9.973404 10.33371 15.5763855 24.349182 15.5763855 38.963257l0 0c0 30.43219 -23.809982 55.102356 -53.18109 55.102356l0 0c-29.371124 0 -53.181107 -24.670166 -53.181107 -55.102356z" fill-rule="evenodd"></path><path fill="#000000" d="m151.59824 335.57132l0 1.609375l-1.609375 0l0 -7.484375l1.3125 0l0.125 0.546875l0.03125 0q0.328125 -0.296875 0.75 -0.484375q0.4375 -0.203125 0.875 -0.203125q0.515625 0 0.921875 0.203125q0.40625 0.203125 0.6875 0.5625q0.28125 0.359375 0.421875 0.875q0.15625 0.515625 0.15625 1.140625q0 0.703125 -0.203125 1.25q-0.1875 0.546875 -0.515625 0.921875q-0.328125 0.375 -0.75 0.578125q-0.421875 0.1875 -0.890625 0.1875q-0.75 0 -1.359375 -0.59375l0.046875 0.890625zm0 -1.96875q0.234375 0.1875 0.484375 0.28125q0.25 0.078125 0.453125 0.078125q0.46875 0 0.765625 -0.375q0.3125 -0.390625 0.3125 -1.234375q0 -1.46875 -1.0 -1.46875q-0.515625 0 -1.015625 0.5l0 2.21875zm5.268814 -3.90625l1.3125 0l0.140625 1.1875l0.03125 0q0.40625 -0.671875 0.96875 -1.0q0.578125 -0.328125 1.234375 -0.328125q0.359375 0 0.578125 0.0625q0.234375 0.046875 0.484375 0.15625l-0.328125 1.359375q-0.265625 -0.078125 -0.46875 -0.109375q-0.203125 -0.046875 -0.5 -0.046875q-0.515625 0 -1.0 0.296875q-0.484375 0.296875 -0.84375 1.03125l0 2.84375l-1.609375 0l0 -5.453125zm5.721939 2.71875q0 -0.671875 0.234375 -1.1875q0.234375 -0.53125 0.625 -0.890625q0.40625 -0.375 0.90625 -0.578125q0.515625 -0.203125 1.0625 -0.203125q0.625 0 1.109375 0.203125q0.484375 0.203125 0.796875 0.5625q0.328125 0.34375 0.484375 0.828125q0.171875 0.46875 0.171875 1.03125q0 0.21875 -0.015625 0.421875q-0.015625 0.1875 -0.046875 0.296875l-3.671875 0q0.09375 0.609375 0.53125 0.890625q0.453125 0.265625 1.046875 0.265625q0.375 0 0.703125 -0.09375q0.34375 -0.09375 0.71875 -0.28125l0.515625 0.96875q-0.453125 0.296875 -1.03125 0.46875q-0.5625 0.15625 -1.125 0.15625q-0.640625 0 -1.1875 -0.1875q-0.546875 -0.1875 -0.953125 -0.546875q-0.40625 -0.375 -0.640625 -0.90625q-0.234375 -0.53125 -0.234375 -1.21875zm3.9375 -0.59375q0 -0.453125 -0.265625 -0.734375q-0.25 -0.296875 -0.8125 -0.296875q-0.4375 0 -0.78125 0.265625q-0.328125 0.25 -0.4375 0.765625l2.296875 0zm2.190689 -2.125l1.625 0l0.859375 2.578125q0.125 0.40625 0.25 0.828125q0.125 0.421875 0.25 0.84375l0.03125 0q0.125 -0.421875 0.234375 -0.84375q0.125 -0.421875 0.25 -0.828125l0.859375 -2.578125l1.5625 0l-2.015625 5.453125l-1.859375 0l-2.046875 -5.453125zm6.925064 0l3.796875 0l0 5.453125l-1.609375 0l0 -4.1875l-2.1875 0l0 -1.265625zm2.921875 -0.8125q-0.46875 0 -0.78125 -0.25q-0.296875 -0.265625 -0.296875 -0.71875q0 -0.453125 0.296875 -0.734375q0.3125 -0.28125 0.78125 -0.28125q0.46875 0 0.765625 0.28125q0.3125 0.28125 0.3125 0.734375q0 0.453125 -0.3125 0.71875q-0.296875 0.25 -0.765625 0.25zm3.206314 3.53125q0 -0.671875 0.234375 -1.1875q0.234375 -0.53125 0.625 -0.890625q0.40625 -0.375 0.90625 -0.578125q0.515625 -0.203125 1.0625 -0.203125q0.625 0 1.109375 0.203125q0.484375 0.203125 0.796875 0.5625q0.328125 0.34375 0.484375 0.828125q0.171875 0.46875 0.171875 1.03125q0 0.21875 -0.015625 0.421875q-0.015625 0.1875 -0.046875 0.296875l-3.671875 0q0.09375 0.609375 0.53125 0.890625q0.453125 0.265625 1.046875 0.265625q0.375 0 0.703125 -0.09375q0.34375 -0.09375 0.71875 -0.28125l0.515625 0.96875q-0.453125 0.296875 -1.03125 0.46875q-0.5625 0.15625 -1.125 0.15625q-0.640625 0 -1.1875 -0.1875q-0.546875 -0.1875 -0.953125 -0.546875q-0.40625 -0.375 -0.640625 -0.90625q-0.234375 -0.53125 -0.234375 -1.21875zm3.9375 -0.59375q0 -0.453125 -0.265625 -0.734375q-0.25 -0.296875 -0.8125 -0.296875q-0.4375 0 -0.78125 0.265625q-0.328125 0.25 -0.4375 0.765625l2.296875 0zm1.8938141 -2.125l1.578125 0l0.328125 2.53125q0.0625 0.40625 0.09375 0.796875q0.046875 0.390625 0.09375 0.8125l0.03125 0q0.0625 -0.421875 0.109375 -0.828125q0.0625 -0.40625 0.15625 -0.78125l0.328125 -1.8125l1.140625 0l0.359375 1.8125q0.078125 0.40625 0.140625 0.796875q0.078125 0.390625 0.125 0.8125l0.046875 0q0.046875 -0.421875 0.078125 -0.8125q0.046875 -0.390625 0.09375 -0.796875l0.328125 -2.53125l1.484375 0l-0.859375 5.453125l-1.859375 0l-0.3125 -1.8125q-0.0625 -0.390625 -0.109375 -0.78125q-0.046875 -0.390625 -0.09375 -0.828125l-0.046875 0q-0.03125 0.296875 -0.078125 0.671875q-0.03125 0.375 -0.125 0.9375l-0.296875 1.8125l-1.828125 0l-0.90625 -5.453125zm8.565689 1.40625q1.15625 -0.515625 1.234375 -1.53125q-0.125 0.03125 -0.21875 0.03125q-0.453125 0 -0.734375 -0.265625q-0.28125 -0.28125 -0.28125 -0.75q0 -0.5 0.296875 -0.796875q0.296875 -0.3125 0.765625 -0.3125q0.625 0 0.953125 0.46875q0.328125 0.46875 0.328125 1.296875q0 0.90625 -0.46875 1.59375q-0.46875 0.6875 -1.4375 1.125l-0.4375 -0.859375z" fill-rule="nonzero"></path><path fill="#ffffff" d="m759.33124 331.53897l0 0c0 -22.465363 18.902771 -40.677155 42.22052 -40.677155l0 0c11.19751 0 21.936462 4.285614 29.85437 11.9140625c7.9178467 7.6284485 12.366089 17.974854 12.366089 28.763092l0 0c0 22.465393 -18.902771 40.677185 -42.22046 40.677185l0 0c-23.317749 0 -42.22052 -18.211792 -42.22052 -40.677185z" fill-rule="evenodd"></path><path stroke="#595959" stroke-width="1.0" stroke-linejoin="round" stroke-linecap="butt" d="m759.33124 331.53897l0 0c0 -22.465363 18.902771 -40.677155 42.22052 -40.677155l0 0c11.19751 0 21.936462 4.285614 29.85437 11.9140625c7.9178467 7.6284485 12.366089 17.974854 12.366089 28.763092l0 0c0 22.465393 -18.902771 40.677185 -42.22046 40.677185l0 0c-23.317749 0 -42.22052 -18.211792 -42.22052 -40.677185z" fill-rule="evenodd"></path><path fill="#000000" fill-opacity="0.0" d="m843.7722 331.53897l24.850403 -1.1653442" fill-rule="evenodd"></path><path stroke="#595959" stroke-width="1.0" stroke-linejoin="round" stroke-linecap="butt" d="m843.7722 331.53897l18.856995 -0.88427734" fill-rule="evenodd"></path><path fill="#595959" stroke="#595959" stroke-width="1.0" stroke-linecap="butt" d="m862.7066 332.3046l4.4557495 -1.8624878l-4.6105347 -1.4373474z" fill-rule="evenodd"></path><path fill="#000000" fill-opacity="0.0" d="m100.83727 330.3596l20.755905 1.0393677" fill-rule="evenodd"></path><path stroke="#595959" stroke-width="1.0" stroke-linejoin="round" stroke-linecap="butt" d="m100.83727 330.3596l14.763405 0.73928833" fill-rule="evenodd"></path><path fill="#595959" stroke="#595959" stroke-width="1.0" stroke-linecap="butt" d="m115.518074 332.74854l4.6150284 -1.422699l-4.449806 -1.8766174z" fill-rule="evenodd"></path><path fill="#000000" fill-opacity="0.0" d="m44.333332 330.01312l56.50394 0.34646606" fill-rule="evenodd"></path><path stroke="#595959" stroke-width="1.0" stroke-linejoin="round" stroke-linecap="butt" d="m44.333332 330.01312l50.504047 0.30966187" fill-rule="evenodd"></path><path fill="#595959" stroke="#595959" stroke-width="1.0" stroke-linecap="butt" d="m94.827255 331.9745l4.5481415 -1.6238708l-4.5278854 -1.6795349z" fill-rule="evenodd"></path><path fill="#000000" fill-opacity="0.0" d="m868.6168 330.3596l58.078735 0.18896484" fill-rule="evenodd"></path><path stroke="#595959" stroke-width="1.0" stroke-linejoin="round" stroke-linecap="butt" d="m868.6168 330.3596l52.078735 0.1694336" fill-rule="evenodd"></path><path fill="#595959" stroke="#595959" stroke-width="1.0" stroke-linecap="butt" d="m920.6902 332.18076l4.543457 -1.6369629l-4.532715 -1.6664734z" fill-rule="evenodd"></path><path fill="#000000" fill-opacity="0.0" d="m98.43535 303.19745l29.795273 0l0 25.51181l-29.795273 0z" fill-rule="evenodd"></path><path fill="#000000" d="m107.7791 320.7343l0.953125 -0.15625q0.078125 0.578125 0.4375 0.890625q0.375 0.296875 1.03125 0.296875q0.671875 0 0.984375 -0.265625q0.328125 -0.265625 0.328125 -0.640625q0 -0.328125 -0.28125 -0.515625q-0.203125 -0.125 -0.984375 -0.328125q-1.0625 -0.265625 -1.484375 -0.453125q-0.40625 -0.203125 -0.625 -0.546875q-0.203125 -0.34375 -0.203125 -0.765625q0 -0.390625 0.171875 -0.703125q0.171875 -0.328125 0.484375 -0.546875q0.21875 -0.171875 0.609375 -0.28125q0.390625 -0.109375 0.828125 -0.109375q0.671875 0 1.171875 0.1875q0.515625 0.1875 0.75 0.53125q0.25 0.328125 0.34375 0.875l-0.9375 0.125q-0.078125 -0.4375 -0.390625 -0.671875q-0.296875 -0.25 -0.859375 -0.25q-0.671875 0 -0.953125 0.21875q-0.28125 0.21875 -0.28125 0.515625q0 0.1875 0.109375 0.328125q0.125 0.15625 0.375 0.265625q0.140625 0.046875 0.859375 0.25q1.015625 0.265625 1.421875 0.4375q0.40625 0.171875 0.640625 0.515625q0.234375 0.328125 0.234375 0.828125q0 0.484375 -0.28125 0.90625q-0.28125 0.421875 -0.8125 0.65625q-0.53125 0.234375 -1.203125 0.234375q-1.109375 0 -1.703125 -0.453125q-0.578125 -0.46875 -0.734375 -1.375z" fill-rule="nonzero"></path><path fill="#000000" fill-opacity="0.0" d="m54.62481 299.3844l29.795273 0l0 25.51181l-29.795273 0z" fill-rule="evenodd"></path><path fill="#000000" d="m64.202934 323.36688l1.65625 -0.265625q0.140625 1.0 0.765625 1.53125q0.640625 0.515625 1.78125 0.515625q1.15625 0 1.703125 -0.46875q0.5625 -0.46875 0.5625 -1.09375q0 -0.5625 -0.484375 -0.890625q-0.34375 -0.21875 -1.703125 -0.5625q-1.84375 -0.46875 -2.5625 -0.796875q-0.703125 -0.34375 -1.078125 -0.9375q-0.359375 -0.609375 -0.359375 -1.328125q0 -0.65625 0.296875 -1.21875q0.3125 -0.5625 0.828125 -0.9375q0.390625 -0.28125 1.0625 -0.484375q0.671875 -0.203125 1.4375 -0.203125q1.171875 0 2.046875 0.34375q0.875 0.328125 1.28125 0.90625q0.421875 0.5625 0.578125 1.515625l-1.625 0.21875q-0.109375 -0.75 -0.65625 -1.171875q-0.53125 -0.4375 -1.5 -0.4375q-1.15625 0 -1.640625 0.390625q-0.484375 0.375 -0.484375 0.875q0 0.328125 0.203125 0.59375q0.203125 0.265625 0.640625 0.4375q0.25 0.09375 1.46875 0.4375q1.765625 0.46875 2.46875 0.765625q0.703125 0.296875 1.09375 0.875q0.40625 0.578125 0.40625 1.4375q0 0.828125 -0.484375 1.578125q-0.484375 0.734375 -1.40625 1.140625q-0.921875 0.390625 -2.078125 0.390625q-1.921875 0 -2.9375 -0.796875q-1.0 -0.796875 -1.28125 -2.359375z" fill-rule="nonzero"></path><path fill="#000000" fill-opacity="0.0" d="m842.15967 304.26813l29.795288 0l0 25.51181l-29.795288 0z" fill-rule="evenodd"></path><path fill="#000000" d="m854.0034 322.64874l0.125 0.84375q-0.40625 0.09375 -0.71875 0.09375q-0.53125 0 -0.828125 -0.171875q-0.28125 -0.171875 -0.40625 -0.4375q-0.109375 -0.265625 -0.109375 -1.140625l0 -3.28125l-0.71875 0l0 -0.75l0.71875 0l0 -1.40625l0.953125 -0.59375l0 2.0l0.984375 0l0 0.75l-0.984375 0l0 3.34375q0 0.40625 0.046875 0.53125q0.0625 0.109375 0.171875 0.1875q0.125 0.0625 0.328125 0.0625q0.171875 0 0.4375 -0.03125z" fill-rule="nonzero"></path><path fill="#000000" fill-opacity="0.0" d="m872.71783 301.10532l29.795288 0l0 25.51181l-29.795288 0z" fill-rule="evenodd"></path><path fill="#000000" d="m886.6241 326.52533l0.234375 1.484375q-0.703125 0.140625 -1.265625 0.140625q-0.90625 0 -1.40625 -0.28125q-0.5 -0.296875 -0.703125 -0.75q-0.203125 -0.46875 -0.203125 -1.984375l0 -5.65625l-1.234375 0l0 -1.3125l1.234375 0l0 -2.4375l1.65625 -1.0l0 3.4375l1.6875 0l0 1.3125l-1.6875 0l0 5.75q0 0.71875 0.078125 0.921875q0.09375 0.203125 0.296875 0.328125q0.203125 0.125 0.578125 0.125q0.265625 0 0.734375 -0.078125z" fill-rule="nonzero"></path><path fill="#000000" fill-opacity="0.0" d="m227.94835 331.40945l39.96852 -0.3779602" fill-rule="evenodd"></path><path stroke="#595959" stroke-width="1.0" stroke-linejoin="round" stroke-linecap="butt" d="m227.94835 331.40945l33.968765 -0.32122803" fill-rule="evenodd"></path><path fill="#595959" stroke="#595959" stroke-width="1.0" stroke-linecap="butt" d="m261.93274 332.7399l4.522278 -1.6945801l-4.553528 -1.6087341z" fill-rule="evenodd"></path><path fill="#000000" fill-opacity="0.0" d="m218.99426 303.94073l58.078735 0l0 25.51181l-58.078735 0z" fill-rule="evenodd"></path><path fill="#000000" d="m230.57239 325.49323q-0.8125 -1.0 -1.359375 -2.359375q-0.546875 -1.359375 -0.546875 -2.8125q0 -1.265625 0.40625 -2.4375q0.484375 -1.359375 1.5 -2.71875l0.6875 0q-0.65625 1.125 -0.859375 1.609375q-0.328125 0.734375 -0.515625 1.546875q-0.234375 1.0 -0.234375 2.015625q0 2.578125 1.609375 5.15625l-0.6875 0zm5.4236145 -3.015625q-0.546875 0.453125 -1.046875 0.640625q-0.484375 0.1875 -1.0625 0.1875q-0.9375 0 -1.453125 -0.453125q-0.5 -0.46875 -0.5 -1.171875q0 -0.421875 0.1875 -0.765625q0.203125 -0.34375 0.5 -0.546875q0.3125 -0.21875 0.703125 -0.328125q0.28125 -0.078125 0.859375 -0.140625q1.171875 -0.140625 1.71875 -0.34375q0.015625 -0.1875 0.015625 -0.25q0 -0.59375 -0.28125 -0.828125q-0.359375 -0.328125 -1.09375 -0.328125q-0.6875 0 -1.015625 0.234375q-0.3125 0.234375 -0.46875 0.84375l-0.953125 -0.125q0.125 -0.609375 0.421875 -0.984375q0.296875 -0.375 0.859375 -0.5625q0.5625 -0.203125 1.296875 -0.203125q0.734375 0 1.1875 0.171875q0.453125 0.171875 0.65625 0.4375q0.21875 0.25 0.3125 0.640625q0.046875 0.25 0.046875 0.90625l0 1.28125q0 1.34375 0.0625 1.703125q0.0625 0.359375 0.25 0.6875l-1.015625 0q-0.15625 -0.296875 -0.1875 -0.703125zm-0.09375 -2.15625q-0.515625 0.21875 -1.578125 0.359375q-0.59375 0.09375 -0.84375 0.203125q-0.234375 0.09375 -0.375 0.3125q-0.140625 0.203125 -0.140625 0.453125q0 0.390625 0.296875 0.65625q0.296875 0.25 0.859375 0.25q0.5625 0 0.984375 -0.25q0.4375 -0.25 0.65625 -0.671875q0.140625 -0.328125 0.140625 -0.96875l0 -0.34375zm2.5514984 2.859375l0 -1.09375l1.09375 0l0 1.09375q0 0.609375 -0.21875 0.984375q-0.203125 0.375 -0.671875 0.578125l-0.28125 -0.421875q0.3125 -0.125 0.453125 -0.390625q0.15625 -0.265625 0.171875 -0.75l-0.546875 0zm2.3200226 -1.703125l0.953125 -0.15625q0.078125 0.578125 0.4375 0.890625q0.375 0.296875 1.03125 0.296875q0.671875 0 0.984375 -0.265625q0.328125 -0.265625 0.328125 -0.640625q0 -0.328125 -0.28125 -0.515625q-0.203125 -0.125 -0.984375 -0.328125q-1.0625 -0.265625 -1.484375 -0.453125q-0.40625 -0.203125 -0.625 -0.546875q-0.203125 -0.34375 -0.203125 -0.765625q0 -0.390625 0.171875 -0.703125q0.171875 -0.328125 0.484375 -0.546875q0.21875 -0.171875 0.609375 -0.28125q0.390625 -0.109375 0.828125 -0.109375q0.671875 0 1.171875 0.1875q0.515625 0.1875 0.75 0.53125q0.25 0.328125 0.34375 0.875l-0.9375 0.125q-0.078125 -0.4375 -0.390625 -0.671875q-0.296875 -0.25 -0.859375 -0.25q-0.671875 0 -0.953125 0.21875q-0.28125 0.21875 -0.28125 0.515625q0 0.1875 0.109375 0.328125q0.125 0.15625 0.375 0.265625q0.140625 0.046875 0.859375 0.25q1.015625 0.265625 1.421875 0.4375q0.40625 0.171875 0.640625 0.515625q0.234375 0.328125 0.234375 0.828125q0 0.484375 -0.28125 0.90625q-0.28125 0.421875 -0.8125 0.65625q-0.53125 0.234375 -1.203125 0.234375q-1.109375 0 -1.703125 -0.453125q-0.578125 -0.46875 -0.734375 -1.375zm6.34375 4.015625l-0.6875 0q1.59375 -2.578125 1.59375 -5.15625q0 -1.015625 -0.21875 -2.0q-0.1875 -0.8125 -0.515625 -1.546875q-0.203125 -0.484375 -0.859375 -1.625l0.6875 0q1.015625 1.359375 1.5 2.71875q0.40625 1.171875 0.40625 2.4375q0 1.453125 -0.5625 2.8125q-0.546875 1.359375 -1.34375 2.359375zm7.899887 -3.578125l0 -2.171875l-2.140625 0l0 -0.890625l2.140625 0l0 -2.15625l0.921875 0l0 2.15625l2.1406097 0l0 0.890625l-2.1406097 0l0 2.171875l-0.921875 0zm9.277481 0.40625l0.125 0.84375q-0.40625 0.09375 -0.71875 0.09375q-0.53125 0 -0.828125 -0.171875q-0.28125 -0.171875 -0.40625 -0.4375q-0.109375 -0.265625 -0.109375 -1.140625l0 -3.28125l-0.71875 0l0 -0.75l0.71875 0l0 -1.40625l0.953125 -0.59375l0 2.0l0.984375 0l0 0.75l-0.984375 0l0 3.34375q0 0.40625 0.046875 0.53125q0.0625 0.109375 0.171875 0.1875q0.125 0.0625 0.328125 0.0625q0.171875 0 0.4375 -0.03125z" fill-rule="nonzero"></path><path fill="#000000" fill-opacity="0.0" d="m723.6168 331.04462l35.71649 0.50393677" fill-rule="evenodd"></path><path stroke="#595959" stroke-width="1.0" stroke-linejoin="round" stroke-linecap="butt" d="m723.6168 331.04462l29.717102 0.419281" fill-rule="evenodd"></path><path fill="#595959" stroke="#595959" stroke-width="1.0" stroke-linecap="butt" d="m753.3106 333.11548l4.560974 -1.5875549l-4.5143433 -1.7155762z" fill-rule="evenodd"></path><path fill="#000000" fill-opacity="0.0" d="m717.95734 303.89423l49.448853 0l0 25.51181l-49.448853 0z" fill-rule="evenodd"></path><path fill="#000000" d="m729.8011 322.27484l0.125 0.84375q-0.40625 0.09375 -0.71875 0.09375q-0.53125 0 -0.828125 -0.171875q-0.28125 -0.171875 -0.40625 -0.4375q-0.109375 -0.265625 -0.109375 -1.140625l0 -3.28125l-0.71875 0l0 -0.75l0.71875 0l0 -1.40625l0.953125 -0.59375l0 2.0l0.984375 0l0 0.75l-0.984375 0l0 3.34375q0 0.40625 0.046875 0.53125q0.0625 0.109375 0.171875 0.1875q0.125 0.0625 0.328125 0.0625q0.171875 0 0.4375 -0.03125zm5.8275757 -0.40625l0 -2.171875l-2.140625 0l0 -0.890625l2.140625 0l0 -2.15625l0.921875 0l0 2.15625l2.140625 0l0 0.890625l-2.140625 0l0 2.171875l-0.921875 0zm9.277466 0.40625l0.125 0.84375q-0.40625 0.09375 -0.71875 0.09375q-0.53125 0 -0.828125 -0.171875q-0.28125 -0.171875 -0.40625 -0.4375q-0.109375 -0.265625 -0.109375 -1.140625l0 -3.28125l-0.71875 0l0 -0.75l0.71875 0l0 -1.40625l0.953125 -0.59375l0 2.0l0.984375 0l0 0.75l-0.984375 0l0 3.34375q0 0.40625 0.046875 0.53125q0.0625 0.109375 0.171875 0.1875q0.125 0.0625 0.328125 0.0625q0.171875 0 0.4375 -0.03125z" fill-rule="nonzero"></path><path fill="#000000" fill-opacity="0.0" d="m311.0876 400.48544l364.9449 1.3858032" fill-rule="evenodd"></path><path stroke="#595959" stroke-width="1.0" stroke-linejoin="round" stroke-linecap="butt" d="m314.87753 400.49985l357.3649 1.3570251" fill-rule="evenodd"></path><path fill="#595959" stroke="#595959" stroke-width="1.0" stroke-linecap="butt" d="m311.5876 400.48734c0.0034484863 -0.9085083 0.7427368 -1.6421814 1.6512146 -1.6387329c0.9085083 0.0034484863 1.6422119 0.7427368 1.6387634 1.6512451c-0.0034484863 0.9084778 -0.7427368 1.6421814 -1.6512451 1.6387329c-0.9085083 -0.0034484863 -1.6421814 -0.7427368 -1.6387329 -1.6512451z" fill-rule="nonzero"></path><path fill="#595959" stroke="#595959" stroke-width="1.0" stroke-linecap="butt" d="m675.5325 401.86935c-0.003479004 0.9085083 -0.7427368 1.6422119 -1.6512451 1.6387634c-0.9085083 -0.0034484863 -1.6422119 -0.7427368 -1.6387329 -1.6512451c0.0034179688 -0.9085083 0.7427368 -1.6421814 1.6511841 -1.6387329c0.9085083 0.0034484863 1.6422119 0.7427368 1.638794 1.6512146z" fill-rule="nonzero"></path><path fill="#000000" fill-opacity="0.0" d="m288.1391 331.39407l31.748047 -37.66928" fill-rule="evenodd"></path><path stroke="#595959" stroke-width="1.0" stroke-linejoin="round" stroke-linecap="butt" stroke-dasharray="1.0,3.0" d="m288.1391 331.39407l29.305573 -34.7713" fill-rule="evenodd"></path><path fill="#595959" stroke="#595959" stroke-width="1.0" stroke-linecap="butt" d="m319.5649 294.10712c0.69470215 0.58547974 0.7832031 1.6232605 0.19772339 2.3179626c-0.58547974 0.69467163 -1.623291 0.7832031 -2.3179626 0.19769287c-0.69470215 -0.58547974 -0.7832031 -1.6232605 -0.19772339 -2.3179626c0.58547974 -0.69467163 1.623291 -0.7832031 2.3179626 -0.19769287z" fill-rule="nonzero"></path><path fill="#000000" fill-opacity="0.0" d="m267.93176 331.04462l23.181091 0" fill-rule="evenodd"></path><path stroke="#595959" stroke-width="1.0" stroke-linejoin="round" stroke-linecap="butt" d="m267.93176 331.04462l19.391083 0" fill-rule="evenodd"></path><path fill="#595959" stroke="#595959" stroke-width="1.0" stroke-linecap="butt" d="m290.61285 331.04462c0 0.9085083 -0.7364807 1.644989 -1.644989 1.644989c-0.9085083 0 -1.644989 -0.7364807 -1.644989 -1.644989c0 -0.9085083 0.7364807 -1.644989 1.644989 -1.644989c0.9085083 0 1.644989 0.7364807 1.644989 1.644989z" fill-rule="nonzero"></path><path fill="#000000" fill-opacity="0.0" d="m694.26245 331.2966l29.35437 -0.25198364" fill-rule="evenodd"></path><path stroke="#595959" stroke-width="1.0" stroke-linejoin="round" stroke-linecap="butt" d="m698.0523 331.26407l19.564758 -0.16793823" fill-rule="evenodd"></path><path fill="#595959" stroke="#595959" stroke-width="1.0" stroke-linecap="butt" d="m694.76245 331.2923c-0.0078125 -0.9084778 0.7223511 -1.6512756 1.6307983 -1.6590576c0.9085083 -0.0078125 1.6513062 0.7223511 1.6590576 1.6308289c0.0078125 0.9084778 -0.7223511 1.6512451 -1.6307983 1.6590576c-0.90844727 0.0077819824 -1.6512451 -0.7223511 -1.6590576 -1.6308289z" fill-rule="nonzero"></path><path fill="#595959" stroke="#595959" stroke-width="1.0" stroke-linecap="butt" d="m717.6312 332.7478l4.5237427 -1.6906433l-4.552124 -1.6127014z" fill-rule="evenodd"></path><path fill="#000000" fill-opacity="0.0" d="m668.37195 293.024l30.015747 39.055115" fill-rule="evenodd"></path><path stroke="#595959" stroke-width="1.0" stroke-linejoin="round" stroke-linecap="butt" stroke-dasharray="1.0,3.0" d="m668.37195 293.024l30.015747 39.055115" fill-rule="evenodd"></path><path fill="#000000" fill-opacity="0.0" d="m484.85394 375.56952l29.795288 0l0 25.51181l-29.795288 0z" fill-rule="evenodd"></path><path fill="#000000" d="m496.6977 393.95016l0.125 0.84375q-0.40625 0.09375 -0.71875 0.09375q-0.53125 0 -0.828125 -0.171875q-0.28125 -0.171875 -0.40625 -0.4375q-0.109375 -0.265625 -0.109375 -1.140625l0 -3.28125l-0.71875 0l0 -0.75l0.71875 0l0 -1.40625l0.953125 -0.59375l0 2.0l0.984375 0l0 0.75l-0.984375 0l0 3.34375q0 0.40625 0.046875 0.53125q0.0625 0.109375 0.171875 0.1875q0.125 0.0625 0.328125 0.0625q0.171875 0 0.4375 -0.03125z" fill-rule="nonzero"></path><path fill="#000000" fill-opacity="0.0" d="m801.284 331.75946l42.48822 -0.2204895" fill-rule="evenodd"></path><path stroke="#595959" stroke-width="1.0" stroke-linejoin="round" stroke-linecap="butt" d="m801.28406 331.75946l36.48828 -0.18936157" fill-rule="evenodd"></path><path fill="#595959" stroke="#595959" stroke-width="1.0" stroke-linecap="butt" d="m837.7809 333.22183l4.52948 -1.6752625l-4.546631 -1.6281738z" fill-rule="evenodd"></path><path fill="#000000" fill-opacity="0.0" d="m771.6973 302.77588l30.267761 28.97638" fill-rule="evenodd"></path><path stroke="#595959" stroke-width="1.0" stroke-linejoin="round" stroke-linecap="butt" d="m771.6973 302.77588l30.267761 28.97638" fill-rule="evenodd"></path><path fill="#000000" fill-opacity="0.0" d="m771.6973 360.3021l30.267761 -28.53543" fill-rule="evenodd"></path><path stroke="#595959" stroke-width="1.0" stroke-linejoin="round" stroke-linecap="butt" d="m771.6973 360.3021l30.267761 -28.53543" fill-rule="evenodd"></path><path fill="#f4cccc" d="m562.3448 296.1572l0 0c0 -16.33374 13.001343 -29.57483 29.039368 -29.57483l0 0c7.701721 0 15.088013 3.1159058 20.533936 8.662262c5.445923 5.546356 8.505432 13.068817 8.505432 20.912567l0 0c0 16.33371 -13.001343 29.574799 -29.039368 29.574799l0 0c-16.038025 0 -29.039368 -13.241089 -29.039368 -29.574799z" fill-rule="evenodd"></path><path stroke="#595959" stroke-width="1.0" stroke-linejoin="round" stroke-linecap="butt" d="m562.3448 296.1572l0 0c0 -16.33374 13.001343 -29.57483 29.039368 -29.57483l0 0c7.701721 0 15.088013 3.1159058 20.533936 8.662262c5.445923 5.546356 8.505432 13.068817 8.505432 20.912567l0 0c0 16.33371 -13.001343 29.574799 -29.039368 29.574799l0 0c-16.038025 0 -29.039368 -13.241089 -29.039368 -29.574799z" fill-rule="evenodd"></path><path fill="#000000" d="m583.10596 298.17844q0.46875 0.296875 0.9375 0.484375q0.484375 0.171875 1.03125 0.171875q0.5625 0 0.796875 -0.125q0.25 -0.125 0.25 -0.34375q0 -0.25 -0.40625 -0.40625q-0.390625 -0.15625 -1.046875 -0.34375q-0.359375 -0.109375 -0.71875 -0.234375q-0.34375 -0.140625 -0.625 -0.328125q-0.265625 -0.203125 -0.4375 -0.453125q-0.171875 -0.25 -0.171875 -0.59375q0 -0.359375 0.171875 -0.671875q0.1875 -0.328125 0.5 -0.546875q0.328125 -0.21875 0.796875 -0.34375q0.46875 -0.140625 1.046875 -0.140625q0.734375 0 1.328125 0.25q0.609375 0.234375 1.03125 0.5l-0.71875 0.96875q-0.375 -0.21875 -0.78125 -0.359375q-0.390625 -0.15625 -0.828125 -0.15625q-0.515625 0 -0.734375 0.109375q-0.203125 0.109375 -0.203125 0.328125q0 0.109375 0.109375 0.21875q0.109375 0.09375 0.296875 0.171875q0.1875 0.078125 0.4375 0.15625q0.265625 0.0625 0.546875 0.140625q0.40625 0.109375 0.765625 0.25q0.375 0.140625 0.640625 0.328125q0.28125 0.171875 0.4375 0.4375q0.171875 0.265625 0.171875 0.625q0 0.375 -0.171875 0.703125q-0.171875 0.3125 -0.515625 0.546875q-0.328125 0.234375 -0.828125 0.375q-0.5 0.125 -1.171875 0.125q-0.734375 0 -1.4375 -0.234375q-0.703125 -0.25 -1.234375 -0.59375l0.734375 -1.015625zm5.690674 -1.015625q0 -0.671875 0.234375 -1.1875q0.234375 -0.53125 0.625 -0.890625q0.40625 -0.375 0.90625 -0.578125q0.515625 -0.203125 1.0625 -0.203125q0.625 0 1.109375 0.203125q0.484375 0.203125 0.796875 0.5625q0.328125 0.34375 0.484375 0.828125q0.171875 0.46875 0.171875 1.03125q0 0.21875 -0.015625 0.421875q-0.015625 0.1875 -0.046875 0.296875l-3.671875 0q0.09375 0.609375 0.53125 0.890625q0.453125 0.265625 1.046875 0.265625q0.375 0 0.703125 -0.09375q0.34375 -0.09375 0.71875 -0.28125l0.515625 0.96875q-0.453125 0.296875 -1.03125 0.46875q-0.5625 0.15625 -1.125 0.15625q-0.640625 0 -1.1875 -0.1875q-0.546875 -0.1875 -0.953125 -0.546875q-0.40625 -0.375 -0.640625 -0.90625q-0.234375 -0.53125 -0.234375 -1.21875zm3.9375 -0.59375q0 -0.453125 -0.265625 -0.734375q-0.25 -0.296875 -0.8125 -0.296875q-0.4375 0 -0.78125 0.265625q-0.328125 0.25 -0.4375 0.765625l2.296875 0zm3.7531738 -0.859375l-1.375 0l0 -1.203125l1.453125 -0.0625l0.21875 -1.453125l1.328125 0l0 1.453125l2.3125 0l0 1.265625l-2.3125 0l0 1.90625q0 0.625 0.265625 0.890625q0.28125 0.25 0.875 0.25q0.328125 0 0.578125 -0.046875q0.265625 -0.0625 0.515625 -0.140625l0.28125 1.15625q-0.359375 0.109375 -0.8125 0.203125q-0.4375 0.09375 -0.96875 0.09375q-0.640625 0 -1.09375 -0.171875q-0.453125 -0.171875 -0.734375 -0.484375q-0.28125 -0.3125 -0.40625 -0.75q-0.125 -0.453125 -0.125 -0.984375l0 -1.921875z" fill-rule="nonzero"></path><path fill="#000000" fill-opacity="0.0" d="m620.4235 296.1572l22.614197 0.5984192" fill-rule="evenodd"></path><path stroke="#595959" stroke-width="1.0" stroke-linejoin="round" stroke-linecap="butt" d="m620.4235 296.15717l16.616272 0.43972778" fill-rule="evenodd"></path><path fill="#595959" stroke="#595959" stroke-width="1.0" stroke-linecap="butt" d="m636.9961 298.24805l4.5802 -1.5311279l-4.492798 -1.7711792z" fill-rule="evenodd"></path><path fill="#000000" fill-opacity="0.0" d="m643.02625 296.7454l29.606323 0.25198364" fill-rule="evenodd"></path><path stroke="#595959" stroke-width="1.0" stroke-linejoin="round" stroke-linecap="butt" d="m643.02625 296.7454l25.816467 0.21972656" fill-rule="evenodd"></path><path fill="#595959" stroke="#595959" stroke-width="1.0" stroke-linecap="butt" d="m672.13257 296.99313c-0.007751465 0.90844727 -0.7504883 1.6386719 -1.6589355 1.6309204c-0.9085083 -0.0077209473 -1.6386719 -0.75045776 -1.6309204 -1.6589355c0.0076904297 -0.9084778 0.75042725 -1.6386719 1.6589355 -1.6309509c0.90844727 0.007751465 1.6386719 0.7504883 1.6309204 1.6589661z" fill-rule="nonzero"></path><path fill="#000000" fill-opacity="0.0" d="m617.69116 266.36023l29.795288 0l0 25.51181l-29.795288 0z" fill-rule="evenodd"></path><path fill="#000000" d="m629.5349 284.74084l0.125 0.84375q-0.40625 0.09375 -0.71875 0.09375q-0.53125 0 -0.828125 -0.171875q-0.28125 -0.171875 -0.40625 -0.4375q-0.109375 -0.265625 -0.109375 -1.140625l0 -3.28125l-0.71875 0l0 -0.75l0.71875 0l0 -1.40625l0.953125 -0.59375l0 2.0l0.984375 0l0 0.75l-0.984375 0l0 3.34375q0 0.40625 0.046875 0.53125q0.0625 0.109375 0.171875 0.1875q0.125 0.0625 0.328125 0.0625q0.171875 0 0.4375 -0.03125z" fill-rule="nonzero"></path><path fill="#000000" fill-opacity="0.0" d="m645.04 266.68582l29.795288 0l0 25.51181l-29.795288 0z" fill-rule="evenodd"></path><path fill="#000000" d="m656.8837 285.06644l0.125 0.84375q-0.40625 0.09375 -0.71875 0.09375q-0.53125 0 -0.828125 -0.171875q-0.28125 -0.171875 -0.40625 -0.4375q-0.109375 -0.265625 -0.109375 -1.140625l0 -3.28125l-0.71875 0l0 -0.75l0.71875 0l0 -1.40625l0.953125 -0.59375l0 2.0l0.984375 0l0 0.75l-0.984375 0l0 3.34375q0 0.40625 0.046875 0.53125q0.0625 0.109375 0.171875 0.1875q0.125 0.0625 0.328125 0.0625q0.171875 0 0.4375 -0.03125z" fill-rule="nonzero"></path><path fill="#eeeeee" d="m368.3727 231.56955l174.74014 0l0 122.23624l-174.74014 0z" fill-rule="evenodd"></path><path stroke="#595959" stroke-width="1.0" stroke-linejoin="round" stroke-linecap="butt" d="m368.3727 231.56955l174.74014 0l0 122.23624l-174.74014 0z" fill-rule="evenodd"></path><path fill="#000000" d="m385.01334 335.07703q-0.3125 -0.15625 -0.578125 -0.203125q-0.265625 -0.0625 -0.625 -0.0625q-0.71875 0 -1.125 0.375q-0.390625 0.375 -0.53125 1.03125l-0.09375 0.484375l2.25 0l-0.15625 0.734375l-2.25 0l-0.984375 4.609375l-0.890625 0l0.984375 -4.609375l-1.515625 0l0.140625 -0.6875l1.53125 -0.046875l0.09375 -0.453125q0.203125 -0.984375 0.84375 -1.578125q0.65625 -0.59375 1.765625 -0.59375q0.796875 0 1.484375 0.3125l-0.34375 0.6875zm0.8781738 1.625l3.390625 0l-1.140625 5.34375l-0.90625 0l0.984375 -4.609375l-2.484375 0l0.15625 -0.734375zm3.078125 -1.109375q-0.3125 0 -0.484375 -0.171875q-0.15625 -0.1875 -0.09375 -0.515625q0.0625 -0.3125 0.3125 -0.5q0.25 -0.203125 0.5625 -0.203125q0.3125 0 0.46875 0.203125q0.15625 0.1875 0.09375 0.5q-0.0625 0.328125 -0.3125 0.515625q-0.234375 0.171875 -0.546875 0.171875zm3.9407043 1.109375l0.75 0l-0.203125 1.265625l0.03125 0q0.546875 -0.65625 1.25 -1.03125q0.703125 -0.375 1.4375 -0.375q0.296875 0 0.53125 0.0625q0.25 0.046875 0.484375 0.15625l-0.375 0.78125q-0.28125 -0.09375 -0.46875 -0.125q-0.171875 -0.046875 -0.5 -0.046875q-0.59375 0 -1.234375 0.34375q-0.625 0.34375 -1.265625 1.171875l-0.671875 3.140625l-0.90625 0l1.140625 -5.34375zm5.159424 4.046875q0.375 0.328125 0.84375 0.53125q0.484375 0.1875 1.203125 0.1875q0.734375 0 1.125 -0.234375q0.40625 -0.25 0.484375 -0.59375q0.0625 -0.3125 -0.265625 -0.546875q-0.328125 -0.25 -1.25 -0.484375q-0.390625 -0.109375 -0.734375 -0.25q-0.34375 -0.140625 -0.578125 -0.328125q-0.21875 -0.203125 -0.34375 -0.421875q-0.125 -0.234375 -0.0625 -0.515625q0.0625 -0.328125 0.265625 -0.609375q0.21875 -0.28125 0.53125 -0.484375q0.328125 -0.203125 0.78125 -0.3125q0.453125 -0.125 1.0 -0.125q0.609375 0 1.125 0.203125q0.53125 0.203125 0.859375 0.484375l-0.5625 0.578125q-0.28125 -0.25 -0.6875 -0.40625q-0.390625 -0.15625 -0.890625 -0.15625q-0.375 0 -0.640625 0.0625q-0.265625 0.0625 -0.453125 0.171875q-0.171875 0.109375 -0.265625 0.25q-0.078125 0.140625 -0.125 0.296875q-0.0625 0.328125 0.328125 0.546875q0.40625 0.203125 1.109375 0.390625q1.015625 0.28125 1.453125 0.640625q0.453125 0.34375 0.328125 0.953125q-0.0625 0.328125 -0.28125 0.625q-0.203125 0.28125 -0.5625 0.5q-0.34375 0.21875 -0.828125 0.34375q-0.46875 0.125 -1.046875 0.125q-0.78125 0 -1.40625 -0.234375q-0.609375 -0.25 -1.015625 -0.59375l0.5625 -0.59375zm8.128204 -3.3125l-1.5 0l0.140625 -0.6875l1.546875 -0.046875l0.4375 -1.5l0.75 0l-0.3125 1.5l2.625 0l-0.15625 0.734375l-2.625 0l-0.546875 2.546875q-0.078125 0.359375 -0.078125 0.625q0.015625 0.265625 0.125 0.453125q0.125 0.1875 0.359375 0.28125q0.25 0.09375 0.625 0.09375q0.390625 0 0.703125 -0.0625q0.328125 -0.0625 0.640625 -0.171875l0.0625 0.65625q-0.390625 0.125 -0.859375 0.21875q-0.453125 0.09375 -0.890625 0.09375q-0.59375 0 -0.953125 -0.15625q-0.34375 -0.15625 -0.53125 -0.4375q-0.1875 -0.296875 -0.203125 -0.703125q-0.015625 -0.40625 0.09375 -0.90625l0.546875 -2.53125z" fill-rule="nonzero"></path><path fill="#cfe2f3" d="m388.23096 259.3019l135.02362 0l0 40.283447l-135.02362 0z" fill-rule="evenodd"></path><path stroke="#595959" stroke-width="1.0" stroke-linejoin="round" stroke-linecap="butt" d="m388.23096 259.3019l135.02362 0l0 40.283447l-135.02362 0z" fill-rule="evenodd"></path><path fill="#000000" d="m453.34274 275.46487l1.609375 0l0 1.90625l-0.078125 1.03125q0.15625 -0.140625 0.34375 -0.28125q0.203125 -0.15625 0.421875 -0.265625q0.234375 -0.125 0.5 -0.1875q0.265625 -0.078125 0.578125 -0.078125q0.921875 0 1.34375 0.59375q0.421875 0.59375 0.421875 1.640625l0 3.359375l-1.609375 0l0 -3.15625q0 -0.546875 -0.1875 -0.796875q-0.171875 -0.265625 -0.625 -0.265625q-0.328125 0 -0.578125 0.15625q-0.25 0.140625 -0.53125 0.421875l0 3.640625l-1.609375 0l0 -7.71875z" fill-rule="nonzero"></path><path fill="#000000" fill-opacity="0.0" d="m523.2546 279.44363l20.062988 0.1574707" fill-rule="evenodd"></path><path stroke="#595959" stroke-width="1.0" stroke-linejoin="round" stroke-linecap="butt" d="m523.2546 279.44363l14.063232 0.11038208" fill-rule="evenodd"></path><path fill="#595959" stroke="#595959" stroke-width="1.0" stroke-linecap="butt" d="m537.3048 281.2057l4.5509033 -1.6160583l-4.5249634 -1.6872864z" fill-rule="evenodd"></path><path fill="#000000" fill-opacity="0.0" d="m368.54593 279.25467l19.685028 0.18896484" fill-rule="evenodd"></path><path stroke="#595959" stroke-width="1.0" stroke-linejoin="round" stroke-linecap="butt" d="m368.54593 279.25467l13.685333 0.13134766" fill-rule="evenodd"></path><path fill="#595959" stroke="#595959" stroke-width="1.0" stroke-linecap="butt" d="m382.2154 281.0377l4.5537415 -1.6080933l-4.5220337 -1.695221z" fill-rule="evenodd"></path><path fill="#000000" fill-opacity="0.0" d="m368.54593 326.86127l174.77164 0.5354309" fill-rule="evenodd"></path><path stroke="#595959" stroke-width="1.0" stroke-linejoin="round" stroke-linecap="butt" d="m368.54593 326.86127l168.7717 0.5170593" fill-rule="evenodd"></path><path fill="#595959" stroke="#595959" stroke-width="1.0" stroke-linecap="butt" d="m537.31256 329.03003l4.543152 -1.6378174l-4.53302 -1.6656189z" fill-rule="evenodd"></path><path fill="#000000" fill-opacity="0.0" d="m544.04706 327.49493l26.803162 0l0 -10.425201" fill-rule="evenodd"></path><path stroke="#595959" stroke-width="1.0" stroke-linejoin="round" stroke-linecap="butt" d="m544.04706 327.4949l26.803162 0l0 -4.425171" fill-rule="evenodd"></path><path fill="#595959" stroke="#595959" stroke-width="1.0" stroke-linecap="butt" d="m572.50195 323.06973l-1.6517334 -4.5381165l-1.6517334 4.5381165z" fill-rule="evenodd"></path><path fill="#000000" fill-opacity="0.0" d="m544.17303 279.68558l9.085999 0l0 -9.685577l17.591187 0l0 5.244629" fill-rule="evenodd"></path><path stroke="#595959" stroke-width="1.0" stroke-linejoin="round" stroke-linecap="butt" d="m544.17303 279.68558l9.085999 0l0 -9.685547l14.676758 0" fill-rule="evenodd"></path><path fill="#595959" stroke="#595959" stroke-width="1.0" stroke-linecap="butt" d="m566.492 270.80234l3.6481323 3.1644287l-0.7605591 -4.7690735z" fill-rule="evenodd"></path><path fill="#000000" fill-opacity="0.0" d="m353.54593 279.4177l14.992126 0.03149414" fill-rule="evenodd"></path><path stroke="#595959" stroke-width="1.0" stroke-linejoin="round" stroke-linecap="butt" d="m353.54593 279.4177l8.992126 0.01889038" fill-rule="evenodd"></path><path fill="#595959" stroke="#595959" stroke-width="1.0" stroke-linecap="butt" d="m362.5346 281.08832l4.541565 -1.6422119l-4.5346375 -1.6612549z" fill-rule="evenodd"></path><path fill="#000000" fill-opacity="0.0" d="m353.54593 326.68542l14.992126 0.18896484" fill-rule="evenodd"></path><path stroke="#595959" stroke-width="1.0" stroke-linejoin="round" stroke-linecap="butt" d="m353.54593 326.6854l8.992615 0.1133728" fill-rule="evenodd"></path><path fill="#595959" stroke="#595959" stroke-width="1.0" stroke-linecap="butt" d="m362.51773 328.45035l4.5585327 -1.5943909l-4.5169067 -1.7088013z" fill-rule="evenodd"></path><path fill="#000000" fill-opacity="0.0" d="m544.3085 240.66045l29.795288 0l0 25.511795l-29.795288 0z" fill-rule="evenodd"></path><path fill="#000000" d="m554.91785 259.90045l-0.890625 0l0 -7.8750153l0.96875 0l0 2.8125q0.609375 -0.765625 1.5625 -0.765625q0.53125 0 1.0 0.21875q0.46875 0.203125 0.765625 0.59375q0.3125 0.375 0.484375 0.921875q0.171875 0.53126526 0.171875 1.1562653q0 1.46875 -0.734375 2.265625q-0.71875 0.796875 -1.734375 0.796875q-1.015625 0 -1.59375 -0.84375l0 0.71875zm0 -2.890625q0 1.015625 0.28125 1.484375q0.453125 0.734375 1.234375 0.734375q0.625 0 1.078125 -0.546875q0.46875 -0.546875 0.46875 -1.640625q0 -1.1093903 -0.4375 -1.6406403q-0.4375 -0.53125 -1.078125 -0.53125q-0.625 0 -1.09375 0.546875q-0.453125 0.546875 -0.453125 1.5937653z" fill-rule="nonzero"></path><path fill="#000000" fill-opacity="0.0" d="m544.6679 300.77884l29.795288 0l0 25.51181l-29.795288 0z" fill-rule="evenodd"></path><path fill="#000000" d="m554.01166 318.3157l0.953125 -0.15625q0.078125 0.578125 0.4375 0.890625q0.375 0.296875 1.03125 0.296875q0.671875 0 0.984375 -0.265625q0.328125 -0.265625 0.328125 -0.640625q0 -0.328125 -0.28125 -0.515625q-0.203125 -0.125 -0.984375 -0.328125q-1.0625 -0.265625 -1.484375 -0.453125q-0.40625 -0.203125 -0.625 -0.546875q-0.203125 -0.34375 -0.203125 -0.765625q0 -0.390625 0.171875 -0.703125q0.171875 -0.328125 0.484375 -0.546875q0.21875 -0.171875 0.609375 -0.28125q0.390625 -0.109375 0.828125 -0.109375q0.671875 0 1.171875 0.1875q0.515625 0.1875 0.75 0.53125q0.25 0.328125 0.34375 0.875l-0.9375 0.125q-0.078125 -0.4375 -0.390625 -0.671875q-0.296875 -0.25 -0.859375 -0.25q-0.671875 0 -0.953125 0.21875q-0.28125 0.21875 -0.28125 0.515625q0 0.1875 0.109375 0.328125q0.125 0.15625 0.375 0.265625q0.140625 0.046875 0.859375 0.25q1.015625 0.265625 1.421875 0.4375q0.40625 0.171875 0.640625 0.515625q0.234375 0.328125 0.234375 0.828125q0 0.484375 -0.28125 0.90625q-0.28125 0.421875 -0.8125 0.65625q-0.53125 0.234375 -1.203125 0.234375q-1.109375 0 -1.703125 -0.453125q-0.578125 -0.46875 -0.734375 -1.375z" fill-rule="nonzero"></path><path fill="#000000" fill-opacity="0.0" d="m448.6679 300.08115l29.795258 0l0 25.51181l-29.795258 0z" fill-rule="evenodd"></path><path fill="#000000" d="m458.01166 317.61804l0.953125 -0.15625q0.078125 0.578125 0.4375 0.890625q0.375 0.296875 1.03125 0.296875q0.671875 0 0.984375 -0.265625q0.328125 -0.265625 0.328125 -0.640625q0 -0.328125 -0.28125 -0.515625q-0.203125 -0.125 -0.984375 -0.328125q-1.0625 -0.265625 -1.484375 -0.453125q-0.40625 -0.203125 -0.625 -0.546875q-0.203125 -0.34375 -0.203125 -0.765625q0 -0.390625 0.171875 -0.703125q0.171875 -0.328125 0.484375 -0.546875q0.21875 -0.171875 0.609375 -0.28125q0.390625 -0.109375 0.828125 -0.109375q0.671875 0 1.171875 0.1875q0.515625 0.1875 0.75 0.53125q0.25 0.328125 0.34375 0.875l-0.9375 0.125q-0.078125 -0.4375 -0.390625 -0.671875q-0.296875 -0.25 -0.859375 -0.25q-0.671875 0 -0.953125 0.21875q-0.28125 0.21875 -0.28125 0.515625q0 0.1875 0.109375 0.328125q0.125 0.15625 0.375 0.265625q0.140625 0.046875 0.859375 0.25q1.015625 0.265625 1.421875 0.4375q0.40625 0.171875 0.640625 0.515625q0.234375 0.328125 0.234375 0.828125q0 0.484375 -0.28125 0.90625q-0.28125 0.421875 -0.8125 0.65625q-0.53125 0.234375 -1.203125 0.234375q-1.109375 0 -1.703125 -0.453125q-0.578125 -0.46875 -0.734375 -1.375z" fill-rule="nonzero"></path><path fill="#000000" fill-opacity="0.0" d="m318.063 296.47806l17.748047 0l0 -17.070862l17.748016 0" fill-rule="evenodd"></path><path stroke="#595959" stroke-width="1.0" stroke-linejoin="round" stroke-linecap="butt" d="m318.063 296.47806l17.748047 0l0 -17.070862l17.748016 0" fill-rule="evenodd"></path><path fill="#000000" fill-opacity="0.0" d="m318.063 296.41507l17.750732 0l0 30.299225l17.80832 0" fill-rule="evenodd"></path><path stroke="#595959" stroke-width="1.0" stroke-linejoin="round" stroke-linecap="butt" d="m318.063 296.41507l17.750732 0l0 30.299225l17.80832 0" fill-rule="evenodd"></path><path fill="#000000" fill-opacity="0.0" d="m331.4586 251.0579l29.795288 0l0 25.511795l-29.795288 0z" fill-rule="evenodd"></path><path fill="#000000" d="m344.9117 269.5948q-0.546875 0.453125 -1.046875 0.640625q-0.484375 0.1875 -1.0625 0.1875q-0.9375 0 -1.453125 -0.453125q-0.5 -0.46875 -0.5 -1.171875q0 -0.421875 0.1875 -0.765625q0.203125 -0.34375 0.5 -0.546875q0.3125 -0.21875 0.703125 -0.328125q0.28125 -0.078125 0.859375 -0.140625q1.171875 -0.140625 1.71875 -0.34375q0.015625 -0.1875 0.015625 -0.25q0 -0.59375 -0.28125 -0.828125q-0.359375 -0.328125 -1.09375 -0.328125q-0.6875 0 -1.015625 0.234375q-0.3125 0.234375 -0.46875 0.84375l-0.953125 -0.125q0.125 -0.609375 0.421875 -0.984375q0.296875 -0.375 0.859375 -0.5625q0.5625 -0.203125 1.296875 -0.203125q0.734375 0 1.1875 0.171875q0.453125 0.171875 0.65625 0.4375q0.21875 0.25 0.3125 0.640625q0.046875 0.25 0.046875 0.90625l0 1.28125q0 1.34375 0.0625 1.703125q0.0625 0.359375 0.25 0.6875l-1.015625 0q-0.15625 -0.296875 -0.1875 -0.703125zm-0.09375 -2.15625q-0.515625 0.21875 -1.578125 0.359375q-0.59375 0.09375 -0.84375 0.203125q-0.234375 0.09375 -0.375 0.3125q-0.140625 0.203125 -0.140625 0.453125q0 0.390625 0.296875 0.65625q0.296875 0.25 0.859375 0.25q0.5625 0 0.984375 -0.25q0.4375 -0.25 0.65625 -0.671875q0.140625 -0.328125 0.140625 -0.96875l0 -0.34375z" fill-rule="nonzero"></path><path fill="#000000" fill-opacity="0.0" d="m332.85394 299.38348l29.795288 0l0 25.51181l-29.795288 0z" fill-rule="evenodd"></path><path fill="#000000" d="m342.1977 316.92035l0.953125 -0.15625q0.078125 0.578125 0.4375 0.890625q0.375 0.296875 1.03125 0.296875q0.671875 0 0.984375 -0.265625q0.328125 -0.265625 0.328125 -0.640625q0 -0.328125 -0.28125 -0.515625q-0.203125 -0.125 -0.984375 -0.328125q-1.0625 -0.265625 -1.484375 -0.453125q-0.40625 -0.203125 -0.625 -0.546875q-0.203125 -0.34375 -0.203125 -0.765625q0 -0.390625 0.171875 -0.703125q0.171875 -0.328125 0.484375 -0.546875q0.21875 -0.171875 0.609375 -0.28125q0.390625 -0.109375 0.828125 -0.109375q0.671875 0 1.171875 0.1875q0.515625 0.1875 0.75 0.53125q0.25 0.328125 0.34375 0.875l-0.9375 0.125q-0.078125 -0.4375 -0.390625 -0.671875q-0.296875 -0.25 -0.859375 -0.25q-0.671875 0 -0.953125 0.21875q-0.28125 0.21875 -0.28125 0.515625q0 0.1875 0.109375 0.328125q0.125 0.15625 0.375 0.265625q0.140625 0.046875 0.859375 0.25q1.015625 0.265625 1.421875 0.4375q0.40625 0.171875 0.640625 0.515625q0.234375 0.328125 0.234375 0.828125q0 0.484375 -0.28125 0.90625q-0.28125 0.421875 -0.8125 0.65625q-0.53125 0.234375 -1.203125 0.234375q-1.109375 0 -1.703125 -0.453125q-0.578125 -0.46875 -0.734375 -1.375z" fill-rule="nonzero"></path><path fill="#000000" fill-opacity="0.0" d="m180.2916 66.908165l56.314957 -0.1889801" fill-rule="evenodd"></path><path stroke="#595959" stroke-width="1.0" stroke-linejoin="round" stroke-linecap="butt" d="m180.29158 66.908165l50.315002 -0.16884613" fill-rule="evenodd"></path><path fill="#595959" stroke="#595959" stroke-width="1.0" stroke-linecap="butt" d="m230.61212 68.391045l4.5325317 -1.666954l-4.5436096 -1.6364975z" fill-rule="evenodd"></path><path fill="#000000" fill-opacity="0.0" d="m180.30272 41.0l42.48819 0l0 25.51181l-42.48819 0z" fill-rule="evenodd"></path><path fill="#000000" d="m193.75584 59.536873q-0.546875 0.453125 -1.046875 0.640625q-0.484375 0.1875 -1.0625 0.1875q-0.9375 0 -1.453125 -0.453125q-0.5 -0.46875 -0.5 -1.171875q0 -0.421875 0.1875 -0.765625q0.203125 -0.34375 0.5 -0.546875q0.3125 -0.21875 0.703125 -0.328125q0.28125 -0.078125 0.859375 -0.140625q1.171875 -0.140625 1.71875 -0.34375q0.015625 -0.1875 0.015625 -0.25q0 -0.59375 -0.28125 -0.828125q-0.359375 -0.328125 -1.09375 -0.328125q-0.6875 0 -1.015625 0.234375q-0.3125 0.234375 -0.46875 0.84375l-0.953125 -0.125q0.125 -0.609375 0.421875 -0.984375q0.296875 -0.375 0.859375 -0.5625q0.5625 -0.203125 1.296875 -0.203125q0.734375 0 1.1875 0.171875q0.453125 0.171875 0.65625 0.4375q0.21875 0.25 0.3125 0.640625q0.046875 0.25 0.046875 0.90625l0 1.28125q0 1.34375 0.0625 1.703125q0.0625 0.359375 0.25 0.6875l-1.015625 0q-0.15625 -0.296875 -0.1875 -0.703125zm-0.09375 -2.15625q-0.515625 0.21875 -1.578125 0.359375q-0.59375 0.09375 -0.84375 0.203125q-0.234375 0.09375 -0.375 0.3125q-0.140625 0.203125 -0.140625 0.453125q0 0.390625 0.296875 0.65625q0.296875 0.25 0.859375 0.25q0.5625 0 0.984375 -0.25q0.4375 -0.25 0.65625 -0.671875q0.140625 -0.328125 0.140625 -0.96875l0 -0.34375zm7.277771 1.59375l0 -2.171875l-2.140625 0l0 -0.890625l2.140625 0l0 -2.15625l0.921875 0l0 2.15625l2.140625 0l0 0.890625l-2.140625 0l0 2.171875l-0.921875 0zm9.277481 0.40625l0.125 0.84375q-0.40625 0.09375 -0.71875 0.09375q-0.53125 0 -0.828125 -0.171875q-0.28125 -0.171875 -0.40625 -0.4375q-0.109375 -0.265625 -0.109375 -1.140625l0 -3.28125l-0.71875 0l0 -0.75l0.71875 0l0 -1.40625l0.953125 -0.59375l0 2.0l0.984375 0l0 0.75l-0.984375 0l0 3.34375q0 0.40625 0.046875 0.53125q0.0625 0.109375 0.171875 0.1875q0.125 0.0625 0.328125 0.0625q0.171875 0 0.4375 -0.03125z" fill-rule="nonzero"></path><path fill="#d9ead3" d="m86.18136 66.908165l0 0c0 -25.813877 21.067291 -46.740158 47.055122 -46.740158l0 0c12.479782 0 24.44844 4.9243946 33.272995 13.689877c8.824539 8.76548 13.78212 20.654018 13.78212 33.05028l0 0c0 25.813873 -21.067291 46.740158 -47.055115 46.740158l0 0c-25.987831 0 -47.055122 -20.926285 -47.055122 -46.740158z" fill-rule="evenodd"></path><path stroke="#595959" stroke-width="1.0" stroke-linejoin="round" stroke-linecap="butt" d="m86.18136 66.908165l0 0c0 -25.813877 21.067291 -46.740158 47.055122 -46.740158l0 0c12.479782 0 24.44844 4.9243946 33.272995 13.689877c8.824539 8.76548 13.78212 20.654018 13.78212 33.05028l0 0c0 25.813873 -21.067291 46.740158 -47.055115 46.740158l0 0c-25.987831 0 -47.055122 -20.926285 -47.055122 -46.740158z" fill-rule="evenodd"></path><path fill="#000000" d="m113.26437 71.07004l0 1.609375l-1.609375 0l0 -7.484375l1.3125 0l0.125 0.546875l0.03125 0q0.328125 -0.296875 0.75 -0.484375q0.4375 -0.203125 0.875 -0.203125q0.515625 0 0.921875 0.203125q0.40625 0.203125 0.6875 0.5625q0.28125 0.359375 0.421875 0.875q0.15625 0.515625 0.15625 1.140625q0 0.703125 -0.203125 1.25q-0.1875 0.546875 -0.515625 0.921875q-0.328125 0.375 -0.75 0.578125q-0.421875 0.1875 -0.890625 0.1875q-0.75 0 -1.359375 -0.59375l0.046875 0.890625zm0 -1.96875q0.234375 0.1875 0.484375 0.28125q0.25 0.078125 0.453125 0.078125q0.46875 0 0.765625 -0.375q0.3125 -0.390625 0.3125 -1.234375q0 -1.46875 -1.0 -1.46875q-0.515625 0 -1.015625 0.5l0 2.21875zm5.268814 -3.90625l1.3125 0l0.140625 1.1875l0.03125 0q0.40625 -0.671875 0.96875 -1.0q0.578125 -0.328125 1.234375 -0.328125q0.359375 0 0.578125 0.0625q0.234375 0.046875 0.484375 0.15625l-0.328125 1.359375q-0.265625 -0.078125 -0.46875 -0.109375q-0.203125 -0.046875 -0.5 -0.046875q-0.515625 0 -1.0 0.296875q-0.484375 0.296875 -0.84375 1.03125l0 2.84375l-1.609375 0l0 -5.453125zm5.721939 2.71875q0 -0.671875 0.234375 -1.1875q0.234375 -0.53125 0.625 -0.890625q0.40625 -0.375 0.90625 -0.578125q0.515625 -0.203125 1.0625 -0.203125q0.625 0 1.109375 0.203125q0.484375 0.203125 0.796875 0.5625q0.328125 0.34375 0.484375 0.828125q0.171875 0.46875 0.171875 1.03125q0 0.21875 -0.015625 0.421875q-0.015625 0.1875 -0.046875 0.296875l-3.671875 0q0.09375 0.609375 0.53125 0.890625q0.453125 0.265625 1.046875 0.265625q0.375 0 0.703125 -0.09375q0.34375 -0.09375 0.71875 -0.28125l0.515625 0.96875q-0.453125 0.296875 -1.03125 0.46875q-0.5625 0.15625 -1.125 0.15625q-0.640625 0 -1.1875 -0.1875q-0.546875 -0.1875 -0.953125 -0.546875q-0.40625 -0.375 -0.640625 -0.90625q-0.234375 -0.53125 -0.234375 -1.21875zm3.9375 -0.59375q0 -0.453125 -0.265625 -0.734375q-0.25 -0.296875 -0.8125 -0.296875q-0.4375 0 -0.78125 0.265625q-0.328125 0.25 -0.4375 0.765625l2.296875 0zm2.190689 -2.125l1.625 0l0.859375 2.578125q0.125 0.40625 0.25 0.828125q0.125 0.421875 0.25 0.84375l0.03125 0q0.125 -0.421875 0.234375 -0.84375q0.125 -0.421875 0.25 -0.828125l0.859375 -2.578125l1.5625 0l-2.015625 5.453125l-1.859375 0l-2.046875 -5.453125zm6.925064 0l3.796875 0l0 5.453125l-1.609375 0l0 -4.1875l-2.1875 0l0 -1.265625zm2.921875 -0.8125q-0.46875 0 -0.78125 -0.25q-0.296875 -0.2656212 -0.296875 -0.7187462q0 -0.453125 0.296875 -0.734375q0.3125 -0.28125 0.78125 -0.28125q0.46875 0 0.765625 0.28125q0.3125 0.28125 0.3125 0.734375q0 0.453125 -0.3125 0.7187462q-0.296875 0.25 -0.765625 0.25zm3.206314 3.53125q0 -0.671875 0.234375 -1.1875q0.234375 -0.53125 0.625 -0.890625q0.40625 -0.375 0.90625 -0.578125q0.515625 -0.203125 1.0625 -0.203125q0.625 0 1.109375 0.203125q0.484375 0.203125 0.796875 0.5625q0.328125 0.34375 0.484375 0.828125q0.171875 0.46875 0.171875 1.03125q0 0.21875 -0.015625 0.421875q-0.015625 0.1875 -0.046875 0.296875l-3.671875 0q0.09375 0.609375 0.53125 0.890625q0.453125 0.265625 1.046875 0.265625q0.375 0 0.703125 -0.09375q0.34375 -0.09375 0.71875 -0.28125l0.515625 0.96875q-0.453125 0.296875 -1.03125 0.46875q-0.5625 0.15625 -1.125 0.15625q-0.640625 0 -1.1875 -0.1875q-0.546875 -0.1875 -0.953125 -0.546875q-0.40625 -0.375 -0.640625 -0.90625q-0.234375 -0.53125 -0.234375 -1.21875zm3.9375 -0.59375q0 -0.453125 -0.265625 -0.734375q-0.25 -0.296875 -0.8125 -0.296875q-0.4375 0 -0.78125 0.265625q-0.328125 0.25 -0.4375 0.765625l2.296875 0zm1.8938141 -2.125l1.578125 0l0.328125 2.53125q0.0625 0.40625 0.09375 0.796875q0.046875 0.390625 0.09375 0.8125l0.03125 0q0.0625 -0.421875 0.109375 -0.828125q0.0625 -0.40625 0.15625 -0.78125l0.328125 -1.8125l1.140625 0l0.359375 1.8125q0.078125 0.40625 0.140625 0.796875q0.078125 0.390625 0.125 0.8125l0.046875 0q0.046875 -0.421875 0.078125 -0.8125q0.046875 -0.390625 0.09375 -0.796875l0.328125 -2.53125l1.484375 0l-0.859375 5.453125l-1.859375 0l-0.3125 -1.8125q-0.0625 -0.390625 -0.109375 -0.78125q-0.046875 -0.390625 -0.09375 -0.828125l-0.046875 0q-0.03125 0.296875 -0.078125 0.671875q-0.03125 0.375 -0.125 0.9375l-0.296875 1.8125l-1.828125 0l-0.90625 -5.453125z" fill-rule="nonzero"></path><path fill="#000000" fill-opacity="0.0" d="m45.0475 67.002655l41.133858 -0.09449005" fill-rule="evenodd"></path><path stroke="#595959" stroke-width="1.0" stroke-linejoin="round" stroke-linecap="butt" d="m45.0475 67.00265l35.133873 -0.080703735" fill-rule="evenodd"></path><path fill="#595959" stroke="#595959" stroke-width="1.0" stroke-linecap="butt" d="m80.185165 68.57367l4.534294 -1.6621475l-4.5418777 -1.641304z" fill-rule="evenodd"></path><path fill="#000000" fill-opacity="0.0" d="m47.369965 39.378952l29.795273 0l0 25.51181l-29.795273 0z" fill-rule="evenodd"></path><path fill="#000000" d="m56.713715 56.91583l0.953125 -0.15625q0.078125 0.578125 0.4375 0.890625q0.375 0.296875 1.03125 0.296875q0.671875 0 0.984375 -0.265625q0.328125 -0.265625 0.328125 -0.640625q0 -0.328125 -0.28125 -0.515625q-0.203125 -0.125 -0.984375 -0.328125q-1.0625 -0.265625 -1.484375 -0.453125q-0.40625 -0.203125 -0.625 -0.546875q-0.203125 -0.34375 -0.203125 -0.765625q0 -0.390625 0.171875 -0.703125q0.171875 -0.328125 0.484375 -0.546875q0.21875 -0.171875 0.609375 -0.28125q0.390625 -0.109375 0.828125 -0.109375q0.671875 0 1.171875 0.1875q0.515625 0.1875 0.75 0.53125q0.25 0.328125 0.34375 0.875l-0.9375 0.125q-0.078125 -0.4375 -0.390625 -0.671875q-0.296875 -0.25 -0.859375 -0.25q-0.671875 0 -0.953125 0.21875q-0.28125 0.21875 -0.28125 0.515625q0 0.1875 0.109375 0.328125q0.125 0.15625 0.375 0.265625q0.140625 0.046875 0.859375 0.25q1.015625 0.265625 1.421875 0.4375q0.40625 0.171875 0.640625 0.515625q0.234375 0.328125 0.234375 0.828125q0 0.484375 -0.28125 0.90625q-0.28125 0.421875 -0.8125 0.65625q-0.53125 0.234375 -1.203125 0.234375q-1.109375 0 -1.703125 -0.453125q-0.578125 -0.46875 -0.734375 -1.375z" fill-rule="nonzero"></path><path fill="#f4cccc" d="m772.68243 72.635284l0 0c0 -22.465382 18.90271 -40.67717 42.22046 -40.67717l0 0c11.197571 0 21.936523 4.285618 29.85437 11.914066c7.9179077 7.6284485 12.366089 17.974846 12.366089 28.763103l0 0c0 22.465378 -18.902771 40.677162 -42.22046 40.677162l0 0c-23.317749 0 -42.22046 -18.211784 -42.22046 -40.677162z" fill-rule="evenodd"></path><path stroke="#595959" stroke-width="1.0" stroke-linejoin="round" stroke-linecap="butt" d="m772.68243 72.635284l0 0c0 -22.465382 18.90271 -40.67717 42.22046 -40.67717l0 0c11.197571 0 21.936523 4.285618 29.85437 11.914066c7.9179077 7.6284485 12.366089 17.974846 12.366089 28.763103l0 0c0 22.465378 -18.902771 40.677162 -42.22046 40.677162l0 0c-23.317749 0 -42.22046 -18.211784 -42.22046 -40.677162z" fill-rule="evenodd"></path><path fill="#000000" d="m802.4091 75.995285q0.6875 0.4375 1.375 0.703125q0.703125 0.25 1.5 0.25q0.8125 0 1.15625 -0.171875q0.359375 -0.1875 0.359375 -0.5q0 -0.375 -0.578125 -0.609375q-0.578125 -0.234375 -1.546875 -0.5q-0.53125 -0.140625 -1.03125 -0.34375q-0.5 -0.203125 -0.90625 -0.484375q-0.390625 -0.28125 -0.640625 -0.640625q-0.25 -0.375 -0.25 -0.84375q0 -0.546875 0.25 -1.015625q0.265625 -0.46875 0.734375 -0.78125q0.46875 -0.328125 1.140625 -0.5q0.6875 -0.1875 1.546875 -0.1875q1.046875 0 1.921875 0.34375q0.875 0.34375 1.5 0.734375l-1.0625 1.421875q-0.546875 -0.328125 -1.125 -0.546875q-0.5625 -0.21875 -1.1875 -0.21875q-0.765625 0 -1.078125 0.171875q-0.296875 0.15625 -0.296875 0.453125q0 0.1875 0.15625 0.328125q0.15625 0.140625 0.421875 0.25q0.28125 0.109375 0.65625 0.21875q0.375 0.109375 0.796875 0.21875q0.578125 0.15625 1.109375 0.359375q0.53125 0.203125 0.921875 0.484375q0.40625 0.265625 0.640625 0.65625q0.25 0.375 0.25 0.875q0 0.546875 -0.265625 1.015625q-0.25 0.46875 -0.734375 0.8125q-0.484375 0.34375 -1.21875 0.546875q-0.71875 0.1875 -1.6875 0.1875q-1.078125 0 -2.109375 -0.34375q-1.015625 -0.359375 -1.78125 -0.875l1.0625 -1.46875zm8.568787 -1.46875q0 -0.96875 0.34375 -1.734375q0.34375 -0.78125 0.921875 -1.3125q0.578125 -0.53125 1.3125 -0.8125q0.75 -0.296875 1.5625 -0.296875q0.90625 0 1.609375 0.296875q0.703125 0.28125 1.15625 0.796875q0.46875 0.5 0.703125 1.203125q0.25 0.6875 0.25 1.515625q0 0.3125 -0.03125 0.609375q-0.03125 0.28125 -0.0625 0.421875l-5.34375 0q0.125 0.890625 0.765625 1.296875q0.65625 0.390625 1.53125 0.390625q0.546875 0 1.03125 -0.140625q0.5 -0.140625 1.015625 -0.40625l0.78125 1.40625q-0.671875 0.4375 -1.515625 0.6875q-0.828125 0.234375 -1.625 0.234375q-0.921875 0 -1.734375 -0.28125q-0.796875 -0.28125 -1.390625 -0.8125q-0.59375 -0.53125 -0.9375 -1.296875q-0.34375 -0.765625 -0.34375 -1.765625zm5.734375 -0.859375q0 -0.671875 -0.375 -1.09375q-0.359375 -0.421875 -1.171875 -0.421875q-0.640625 0 -1.140625 0.375q-0.5 0.375 -0.65625 1.140625l3.34375 0zm5.7718506 -1.265625l-2.0 0l0 -1.75l2.109375 -0.09375l0.3125 -2.109375l1.9375 0l0 2.109375l3.359375 0l0 1.84375l-3.359375 0l0 2.78125q0 0.90625 0.390625 1.296875q0.40625 0.375 1.265625 0.375q0.46875 0 0.84375 -0.078125q0.390625 -0.09375 0.75 -0.21875l0.40625 1.703125q-0.53125 0.15625 -1.1875 0.28125q-0.640625 0.140625 -1.40625 0.140625q-0.9375 0 -1.59375 -0.25q-0.65625 -0.25 -1.0625 -0.703125q-0.40625 -0.46875 -0.59375 -1.109375q-0.171875 -0.640625 -0.171875 -1.421875l0 -2.796875z" fill-rule="nonzero"></path><path fill="#000000" fill-opacity="0.0" d="m737.0912 74.779305l29.795288 0l0 25.51181l-29.795288 0z" fill-rule="evenodd"></path><path fill="#000000" d="m746.43494 92.31618l0.953125 -0.15625q0.078125 0.578125 0.4375 0.890625q0.375 0.296875 1.03125 0.296875q0.671875 0 0.984375 -0.265625q0.328125 -0.265625 0.328125 -0.640625q0 -0.328125 -0.28125 -0.515625q-0.203125 -0.125 -0.984375 -0.328125q-1.0625 -0.265625 -1.484375 -0.453125q-0.40625 -0.203125 -0.625 -0.546875q-0.203125 -0.34375 -0.203125 -0.765625q0 -0.390625 0.171875 -0.703125q0.171875 -0.328125 0.484375 -0.546875q0.21875 -0.171875 0.609375 -0.28125q0.390625 -0.109375 0.828125 -0.109375q0.671875 0 1.171875 0.1875q0.515625 0.1875 0.75 0.53125q0.25 0.328125 0.34375 0.875l-0.9375 0.125q-0.078125 -0.4375 -0.390625 -0.671875q-0.296875 -0.25 -0.859375 -0.25q-0.671875 0 -0.953125 0.21875q-0.28125 0.21875 -0.28125 0.515625q0 0.1875 0.109375 0.328125q0.125 0.15625 0.375 0.265625q0.140625 0.046875 0.859375 0.25q1.015625 0.265625 1.421875 0.4375q0.40625 0.171875 0.640625 0.515625q0.234375 0.328125 0.234375 0.828125q0 0.484375 -0.28125 0.90625q-0.28125 0.421875 -0.8125 0.65625q-0.53125 0.234375 -1.203125 0.234375q-1.109375 0 -1.703125 -0.453125q-0.578125 -0.46875 -0.734375 -1.375z" fill-rule="nonzero"></path><path fill="#000000" fill-opacity="0.0" d="m737.0912 17.128384l29.795288 0l0 25.51181l-29.795288 0z" fill-rule="evenodd"></path><path fill="#000000" d="m747.70056 36.36838l-0.890625 0l0 -7.874998l0.96875 0l0 2.8125q0.609375 -0.765625 1.5625 -0.765625q0.53125 0 1.0 0.21875q0.46875 0.203125 0.765625 0.59375q0.3125 0.375 0.484375 0.9218731q0.171875 0.53125 0.171875 1.15625q0 1.46875 -0.734375 2.265625q-0.71875 0.796875 -1.734375 0.796875q-1.015625 0 -1.59375 -0.84375l0 0.71875zm0 -2.890625q0 1.015625 0.28125 1.484375q0.453125 0.734375 1.234375 0.734375q0.625 0 1.078125 -0.546875q0.46875 -0.546875 0.46875 -1.640625q0 -1.109375 -0.4375 -1.6406231q-0.4375 -0.53125 -1.078125 -0.53125q-0.625 0 -1.09375 0.546875q-0.453125 0.5468731 -0.453125 1.5937481z" fill-rule="nonzero"></path><path fill="#000000" fill-opacity="0.0" d="m858.2619 45.41789l29.795227 0l0 25.511814l-29.795227 0z" fill-rule="evenodd"></path><path fill="#000000" d="m870.10565 63.798515l0.125 0.84375q-0.40625 0.09375 -0.71875 0.09375q-0.53125 0 -0.828125 -0.171875q-0.28125 -0.171875 -0.40625 -0.4375q-0.109375 -0.265625 -0.109375 -1.140625l0 -3.28125l-0.71875 0l0 -0.75l0.71875 0l0 -1.40625l0.953125 -0.59375l0 2.0l0.984375 0l0 0.75l-0.984375 0l0 3.34375q0 0.40625 0.046875 0.53125q0.0625 0.109375 0.171875 0.1875q0.125 0.0625 0.328125 0.0625q0.171875 0 0.4375 -0.03125z" fill-rule="nonzero"></path><path fill="#000000" fill-opacity="0.0" d="m856.7454 76.563866l55.811035 0" fill-rule="evenodd"></path><path stroke="#595959" stroke-width="1.0" stroke-linejoin="round" stroke-linecap="butt" d="m856.7454 76.563866l49.811035 0" fill-rule="evenodd"></path><path fill="#595959" stroke="#595959" stroke-width="1.0" stroke-linecap="butt" d="m906.55646 78.2156l4.538086 -1.6517334l-4.538086 -1.6517334z" fill-rule="evenodd"></path><path fill="#000000" fill-opacity="0.0" d="m725.5839 43.58872l59.4646 0.28346252" fill-rule="evenodd"></path><path stroke="#595959" stroke-width="1.0" stroke-linejoin="round" stroke-linecap="butt" d="m725.5839 43.588715l53.46466 0.25486755" fill-rule="evenodd"></path><path fill="#595959" stroke="#595959" stroke-width="1.0" stroke-linecap="butt" d="m779.04065 45.495293l4.5459595 -1.6300812l-4.5302124 -1.6733475z" fill-rule="evenodd"></path><path fill="#000000" fill-opacity="0.0" d="m728.1981 101.68185l56.850403 -0.28346252" fill-rule="evenodd"></path><path stroke="#595959" stroke-width="1.0" stroke-linejoin="round" stroke-linecap="butt" d="m728.19806 101.68184l50.850525 -0.25354767" fill-rule="evenodd"></path><path fill="#595959" stroke="#595959" stroke-width="1.0" stroke-linecap="butt" d="m779.05676 103.08l4.529846 -1.6743393l-4.5463257 -1.6290817z" fill-rule="evenodd"></path><path fill="#000000" fill-opacity="0.0" d="m889.4969 489.57657l57.606323 0l0 41.322845l-57.606323 0z" fill-rule="evenodd"></path><path fill="#595959" d="m927.4814 515.03796l0 -2.234375l-4.03125 0l0 -1.0468445l4.234375 -6.03125l0.9375 0l0 6.03125l1.265625 0l0 1.0468445l-1.265625 0l0 2.234375l-1.140625 0zm0 -3.2812195l0 -4.1875l-2.921875 4.1875l2.921875 0zm8.053101 3.2812195l-1.140625 0l0 -7.2812195q-0.421875 0.390625 -1.09375 0.796875q-0.65625 0.390625 -1.1875 0.578125l0 -1.109375q0.953125 -0.4375 1.671875 -1.078125q0.71875 -0.640625 1.015625 -1.25l0.734375 0l0 9.3437195z" fill-rule="nonzero"></path></g></svg>

