<?xml version="1.0" standalone="yes"?>

<svg version="1.1" viewBox="0.0 0.0 960.0 540.0" fill="none" stroke="none" stroke-linecap="square" stroke-miterlimit="10" xmlns="http://www.w3.org/2000/svg" xmlns:xlink="http://www.w3.org/1999/xlink"><clipPath id="g261bd0c8e1_0_0.0"><path d="m0 0l960.0 0l0 540.0l-960.0 0l0 -540.0z" clip-rule="nonzero"></path></clipPath><g clip-path="url(#g261bd0c8e1_0_0.0)"><path fill="#ffffff" d="m0 0l960.0 0l0 540.0l-960.0 0z" fill-rule="evenodd"></path><path fill="#eeeeee" d="m195.50656 118.6893l580.78735 0l0 185.38583l-580.78735 0z" fill-rule="evenodd"></path><path stroke="#595959" stroke-width="1.0" stroke-linejoin="round" stroke-linecap="butt" d="m195.50656 118.6893l580.78735 0l0 185.38583l-580.78735 0z" fill-rule="evenodd"></path><path fill="#000000" d="m215.60031 281.2945q-0.421875 -0.234375 -0.828125 -0.296875q-0.390625 -0.078125 -0.890625 -0.078125q-1.0625 0 -1.640625 0.546875q-0.5625 0.53125 -0.765625 1.484375l-0.140625 0.703125l3.265625 0l-0.234375 1.078125l-3.265625 0l-1.421875 6.703125l-1.296875 0l1.421875 -6.703125l-2.234375 0l0.21875 -1.0l2.25 -0.078125l0.140625 -0.65625q0.296875 -1.421875 1.234375 -2.28125q0.953125 -0.859375 2.578125 -0.859375q1.140625 0 2.140625 0.4375l-0.53125 1.0zm1.6000214 2.359375l4.9375 0l-1.65625 7.78125l-1.3125 0l1.421875 -6.703125l-3.625 0l0.234375 -1.078125zm4.46875 -1.59375q-0.453125 0 -0.703125 -0.265625q-0.234375 -0.28125 -0.140625 -0.75q0.109375 -0.453125 0.453125 -0.734375q0.359375 -0.28125 0.8125 -0.28125q0.453125 0 0.703125 0.28125q0.25 0.28125 0.140625 0.734375q-0.09375 0.46875 -0.453125 0.75q-0.359375 0.265625 -0.8125 0.265625zm6.0375214 1.59375l1.078125 0l-0.28125 1.84375l0.046875 0q0.8125 -0.9375 1.8125 -1.484375q1.0 -0.546875 2.09375 -0.546875q0.421875 0 0.765625 0.078125q0.359375 0.0625 0.703125 0.25l-0.546875 1.125q-0.375 -0.140625 -0.65625 -0.203125q-0.265625 -0.0625 -0.734375 -0.0625q-0.875 0 -1.78125 0.5q-0.90625 0.5 -1.890625 1.71875l-0.96875 4.5625l-1.296875 0l1.65625 -7.78125zm7.8031464 5.890625q0.546875 0.484375 1.234375 0.78125q0.6875 0.28125 1.75 0.28125q1.046875 0 1.640625 -0.34375q0.59375 -0.359375 0.703125 -0.875q0.09375 -0.453125 -0.390625 -0.796875q-0.46875 -0.359375 -1.828125 -0.703125q-0.578125 -0.15625 -1.078125 -0.359375q-0.484375 -0.203125 -0.828125 -0.484375q-0.328125 -0.28125 -0.5 -0.609375q-0.171875 -0.34375 -0.09375 -0.765625q0.109375 -0.453125 0.40625 -0.859375q0.296875 -0.421875 0.765625 -0.703125q0.46875 -0.296875 1.109375 -0.46875q0.65625 -0.171875 1.453125 -0.171875q0.890625 0 1.65625 0.296875q0.765625 0.296875 1.265625 0.703125l-0.828125 0.84375q-0.4375 -0.375 -1.015625 -0.59375q-0.578125 -0.21875 -1.296875 -0.21875q-0.546875 0 -0.9375 0.09375q-0.375 0.078125 -0.625 0.234375q-0.25 0.140625 -0.40625 0.359375q-0.140625 0.203125 -0.1875 0.421875q-0.09375 0.484375 0.484375 0.796875q0.59375 0.3125 1.609375 0.578125q1.484375 0.40625 2.140625 0.921875q0.65625 0.5 0.46875 1.40625q-0.109375 0.484375 -0.421875 0.90625q-0.3125 0.40625 -0.828125 0.734375q-0.5 0.3125 -1.1875 0.484375q-0.6875 0.1875 -1.53125 0.1875q-1.140625 0 -2.03125 -0.359375q-0.890625 -0.359375 -1.5 -0.859375l0.828125 -0.859375zm12.115646 -4.8125l-2.1875 0l0.21875 -1.0l2.25 -0.078125l0.625 -2.171875l1.09375 0l-0.453125 2.171875l3.828125 0l-0.234375 1.078125l-3.828125 0l-0.78125 3.6875q-0.109375 0.53125 -0.109375 0.921875q0.015625 0.390625 0.1875 0.671875q0.171875 0.265625 0.515625 0.40625q0.359375 0.140625 0.921875 0.140625q0.5625 0 1.03125 -0.09375q0.46875 -0.109375 0.921875 -0.265625l0.078125 0.96875q-0.578125 0.1875 -1.25 0.3125q-0.671875 0.140625 -1.3125 0.140625q-0.84375 0 -1.375 -0.21875q-0.515625 -0.234375 -0.78125 -0.65625q-0.25 -0.4375 -0.28125 -1.015625q-0.015625 -0.59375 0.140625 -1.328125l0.78125 -3.671875z" fill-rule="nonzero"></path><path fill="#cfe2f3" d="m394.1286 19.120115l167.30707 0l0 73.00787l-167.30707 0z" fill-rule="evenodd"></path><path stroke="#595959" stroke-width="1.0" stroke-linejoin="round" stroke-linecap="butt" d="m394.1286 19.120115l167.30707 0l0 73.00787l-167.30707 0z" fill-rule="evenodd"></path><path fill="#000000" d="m474.1384 50.265305l2.34375 0l0 2.75l-0.125 1.53125q0.234375 -0.234375 0.515625 -0.4375q0.28125 -0.21875 0.609375 -0.390625q0.328125 -0.171875 0.71875 -0.265625q0.390625 -0.09375 0.84375 -0.09375q1.34375 0 1.953125 0.859375q0.625 0.859375 0.625 2.375l0 4.890625l-2.359375 0l0 -4.59375q0 -0.796875 -0.25 -1.15625q-0.25 -0.375 -0.90625 -0.375q-0.484375 0 -0.84375 0.203125q-0.359375 0.203125 -0.78125 0.625l0 5.296875l-2.34375 0l0 -11.21875z" fill-rule="nonzero"></path><path fill="#000000" fill-opacity="0.0" d="m295.042 55.309093l99.08661 0.31496048" fill-rule="evenodd"></path><path stroke="#595959" stroke-width="1.0" stroke-linejoin="round" stroke-linecap="butt" d="m295.042 55.30909l93.08667 0.2958908" fill-rule="evenodd"></path><path fill="#595959" stroke="#595959" stroke-width="1.0" stroke-linecap="butt" d="m388.12338 57.256702l4.543335 -1.6372986l-4.532837 -1.6661491z" fill-rule="evenodd"></path><path fill="#000000" fill-opacity="0.0" d="m561.43567 55.624054l106.36224 0" fill-rule="evenodd"></path><path stroke="#595959" stroke-width="1.0" stroke-linejoin="round" stroke-linecap="butt" d="m561.43567 55.62405l100.36224 0" fill-rule="evenodd"></path><path fill="#595959" stroke="#595959" stroke-width="1.0" stroke-linecap="butt" d="m661.7979 57.275784l4.538086 -1.6517334l-4.538086 -1.6517296z" fill-rule="evenodd"></path><path fill="#000000" fill-opacity="0.0" d="m327.65747 23.87602l29.51181 0l0 31.496065l-29.51181 0z" fill-rule="evenodd"></path><path fill="#000000" d="m344.34497 49.57727q-0.9375 0.796875 -1.796875 1.125q-0.859375 0.3125 -1.84375 0.3125q-1.609375 0 -2.484375 -0.78125q-0.875 -0.796875 -0.875 -2.03125q0 -0.734375 0.328125 -1.328125q0.328125 -0.59375 0.859375 -0.953125q0.53125 -0.359375 1.203125 -0.546875q0.5 -0.140625 1.484375 -0.25q2.03125 -0.25 2.984375 -0.578125q0 -0.34375 0 -0.4375q0 -1.015625 -0.46875 -1.4375q-0.640625 -0.5625 -1.90625 -0.5625q-1.171875 0 -1.734375 0.40625q-0.5625 0.40625 -0.828125 1.46875l-1.640625 -0.234375q0.234375 -1.046875 0.734375 -1.6875q0.515625 -0.640625 1.46875 -0.984375q0.96875 -0.359375 2.25 -0.359375q1.265625 0 2.046875 0.296875q0.78125 0.296875 1.15625 0.75q0.375 0.453125 0.515625 1.140625q0.09375 0.421875 0.09375 1.53125l0 2.234375q0 2.328125 0.09375 2.953125q0.109375 0.609375 0.4375 1.171875l-1.75 0q-0.265625 -0.515625 -0.328125 -1.21875zm-0.140625 -3.71875q-0.90625 0.359375 -2.734375 0.625q-1.03125 0.140625 -1.453125 0.328125q-0.421875 0.1875 -0.65625 0.546875q-0.234375 0.359375 -0.234375 0.796875q0 0.671875 0.5 1.125q0.515625 0.4375 1.484375 0.4375q0.96875 0 1.71875 -0.421875q0.75 -0.4375 1.109375 -1.15625q0.265625 -0.578125 0.265625 -1.671875l0 -0.609375z" fill-rule="nonzero"></path><path fill="#000000" fill-opacity="0.0" d="m596.39764 23.87602l29.51178 0l0 31.496065l-29.51178 0z" fill-rule="evenodd"></path><path fill="#000000" d="m608.1945 50.79602l-1.546875 0l0 -13.59375l1.65625 0l0 4.84375q1.0625 -1.328125 2.703125 -1.328125q0.90625 0 1.71875 0.375q0.8125 0.359375 1.328125 1.03125q0.53125 0.65625 0.828125 1.59375q0.296875 0.9375 0.296875 2.0q0 2.53125 -1.25 3.921875q-1.25 1.375 -3.0 1.375q-1.75 0 -2.734375 -1.453125l0 1.234375zm-0.015625 -5.0q0 1.765625 0.46875 2.5625q0.796875 1.28125 2.140625 1.28125q1.09375 0 1.890625 -0.9375q0.796875 -0.953125 0.796875 -2.84375q0 -1.921875 -0.765625 -2.84375q-0.765625 -0.921875 -1.84375 -0.921875q-1.09375 0 -1.890625 0.953125q-0.796875 0.953125 -0.796875 2.75z" fill-rule="nonzero"></path><path fill="#cfe2f3" d="m396.664 140.53879l167.30707 0l0 73.00787l-167.30707 0z" fill-rule="evenodd"></path><path stroke="#595959" stroke-width="1.0" stroke-linejoin="round" stroke-linecap="butt" d="m396.664 140.53879l167.30707 0l0 73.00787l-167.30707 0z" fill-rule="evenodd"></path><path fill="#000000" d="m476.6738 171.68398l2.34375 0l0 2.75l-0.125 1.53125q0.234375 -0.234375 0.515625 -0.4375q0.28125 -0.21875 0.609375 -0.390625q0.328125 -0.171875 0.71875 -0.265625q0.390625 -0.09375 0.84375 -0.09375q1.34375 0 1.953125 0.859375q0.625 0.859375 0.625 2.375l0 4.890625l-2.359375 0l0 -4.59375q0 -0.796875 -0.25 -1.15625q-0.25 -0.375 -0.90625 -0.375q-0.484375 0 -0.84375 0.203125q-0.359375 0.203125 -0.78125 0.625l0 5.296875l-2.34375 0l0 -11.21875z" fill-rule="nonzero"></path><path fill="#000000" fill-opacity="0.0" d="m110.39547 176.34595l83.71653 0" fill-rule="evenodd"></path><path stroke="#595959" stroke-width="1.0" stroke-linejoin="round" stroke-linecap="butt" d="m110.39548 176.34595l77.71652 0" fill-rule="evenodd"></path><path fill="#595959" stroke="#595959" stroke-width="1.0" stroke-linecap="butt" d="m188.112 177.99768l4.538101 -1.6517334l-4.538101 -1.6517334z" fill-rule="evenodd"></path><path fill="#000000" fill-opacity="0.0" d="m776.29395 177.04362l84.47247 0" fill-rule="evenodd"></path><path stroke="#595959" stroke-width="1.0" stroke-linejoin="round" stroke-linecap="butt" d="m776.29395 177.04364l78.47247 0" fill-rule="evenodd"></path><path fill="#595959" stroke="#595959" stroke-width="1.0" stroke-linecap="butt" d="m854.7664 178.69537l4.538086 -1.6517334l-4.538086 -1.6517334z" fill-rule="evenodd"></path><path fill="#000000" fill-opacity="0.0" d="m563.97107 177.04272l212.53546 0.1574707" fill-rule="evenodd"></path><path stroke="#595959" stroke-width="1.0" stroke-linejoin="round" stroke-linecap="butt" d="m563.97107 177.04271l206.53552 0.1530304" fill-rule="evenodd"></path><path fill="#595959" stroke="#595959" stroke-width="1.0" stroke-linecap="butt" d="m770.5053 178.84747l4.5393677 -1.6483612l-4.536865 -1.6550903z" fill-rule="evenodd"></path><path fill="#000000" fill-opacity="0.0" d="m189.07346 175.81438l207.59055 1.2283478" fill-rule="evenodd"></path><path stroke="#595959" stroke-width="1.0" stroke-linejoin="round" stroke-linecap="butt" d="m189.07346 175.81436l201.59067 1.1928558" fill-rule="evenodd"></path><path fill="#595959" stroke="#595959" stroke-width="1.0" stroke-linecap="butt" d="m390.65433 178.65892l4.5477905 -1.6248627l-4.5282288 -1.6785583z" fill-rule="evenodd"></path><path fill="#000000" fill-opacity="0.0" d="m110.39547 248.1596l83.71653 0" fill-rule="evenodd"></path><path stroke="#595959" stroke-width="1.0" stroke-linejoin="round" stroke-linecap="butt" d="m110.39548 248.15959l77.71652 0" fill-rule="evenodd"></path><path fill="#595959" stroke="#595959" stroke-width="1.0" stroke-linecap="butt" d="m188.112 249.81133l4.538101 -1.6517334l-4.538101 -1.6517334z" fill-rule="evenodd"></path><path fill="#000000" fill-opacity="0.0" d="m776.6711 248.1596l83.71649 0" fill-rule="evenodd"></path><path stroke="#595959" stroke-width="1.0" stroke-linejoin="round" stroke-linecap="butt" d="m776.6711 248.15959l77.71655 0" fill-rule="evenodd"></path><path fill="#595959" stroke="#595959" stroke-width="1.0" stroke-linecap="butt" d="m854.38763 249.81133l4.538086 -1.6517334l-4.538086 -1.6517334z" fill-rule="evenodd"></path><path fill="#000000" fill-opacity="0.0" d="m196.04724 248.37178l580.4725 0" fill-rule="evenodd"></path><path stroke="#595959" stroke-width="1.0" stroke-linejoin="round" stroke-linecap="butt" d="m196.04724 248.37178l574.4725 0" fill-rule="evenodd"></path><path fill="#595959" stroke="#595959" stroke-width="1.0" stroke-linecap="butt" d="m770.5197 250.02351l4.538086 -1.6517334l-4.538086 -1.6517334z" fill-rule="evenodd"></path><path fill="#000000" fill-opacity="0.0" d="m130.86745 145.54764l29.511826 0l0 31.496063l-29.511826 0z" fill-rule="evenodd"></path><path fill="#000000" d="m147.55495 171.24889q-0.9375 0.796875 -1.796875 1.125q-0.859375 0.3125 -1.84375 0.3125q-1.609375 0 -2.484375 -0.78125q-0.875 -0.796875 -0.875 -2.03125q0 -0.734375 0.328125 -1.328125q0.328125 -0.59375 0.859375 -0.953125q0.53125 -0.359375 1.203125 -0.546875q0.5 -0.140625 1.484375 -0.25q2.03125 -0.25 2.984375 -0.578125q0 -0.34375 0 -0.4375q0 -1.015625 -0.46875 -1.4375q-0.640625 -0.5625 -1.90625 -0.5625q-1.171875 0 -1.734375 0.40625q-0.5625 0.40625 -0.828125 1.46875l-1.640625 -0.234375q0.234375 -1.046875 0.734375 -1.6875q0.515625 -0.640625 1.46875 -0.984375q0.96875 -0.359375 2.25 -0.359375q1.265625 0 2.046875 0.296875q0.78125 0.296875 1.15625 0.75q0.375 0.453125 0.515625 1.140625q0.09375 0.421875 0.09375 1.53125l0 2.234375q0 2.328125 0.09375 2.953125q0.109375 0.609375 0.4375 1.171875l-1.75 0q-0.265625 -0.515625 -0.328125 -1.21875zm-0.140625 -3.71875q-0.90625 0.359375 -2.734375 0.625q-1.03125 0.140625 -1.453125 0.328125q-0.421875 0.1875 -0.65625 0.546875q-0.234375 0.359375 -0.234375 0.796875q0 0.671875 0.5 1.125q0.515625 0.4375 1.484375 0.4375q0.96875 0 1.71875 -0.421875q0.75 -0.4375 1.109375 -1.15625q0.265625 -0.578125 0.265625 -1.671875l0 -0.609375z" fill-rule="nonzero"></path><path fill="#000000" fill-opacity="0.0" d="m800.2533 145.54764l29.51178 0l0 31.496063l-29.51178 0z" fill-rule="evenodd"></path><path fill="#000000" d="m812.0502 172.46764l-1.546875 0l0 -13.59375l1.65625 0l0 4.84375q1.0625 -1.328125 2.703125 -1.328125q0.90625 0 1.71875 0.375q0.8125 0.359375 1.328125 1.03125q0.53125 0.65625 0.828125 1.59375q0.296875 0.9375 0.296875 2.0q0 2.53125 -1.25 3.921875q-1.25 1.375 -3.0 1.375q-1.75 0 -2.734375 -1.453125l0 1.234375zm-0.015625 -5.0q0 1.765625 0.46875 2.5625q0.796875 1.28125 2.140625 1.28125q1.09375 0 1.890625 -0.9375q0.796875 -0.953125 0.796875 -2.84375q0 -1.921875 -0.765625 -2.84375q-0.765625 -0.921875 -1.84375 -0.921875q-1.09375 0 -1.890625 0.953125q-0.796875 0.953125 -0.796875 2.75z" fill-rule="nonzero"></path><path fill="#000000" fill-opacity="0.0" d="m130.86745 216.87572l29.511826 0l0 31.496063l-29.511826 0z" fill-rule="evenodd"></path><path fill="#000000" d="m147.55495 240.18634l1.640625 0.21875q-0.265625 1.6875 -1.375 2.65625q-1.109375 0.953125 -2.734375 0.953125q-2.015625 0 -3.25 -1.3125q-1.21875 -1.328125 -1.21875 -3.796875q0 -1.59375 0.515625 -2.78125q0.53125 -1.203125 1.609375 -1.796875q1.09375 -0.609375 2.359375 -0.609375q1.609375 0 2.625 0.8125q1.015625 0.8125 1.3125 2.3125l-1.625 0.25q-0.234375 -1.0 -0.828125 -1.5q-0.59375 -0.5 -1.421875 -0.5q-1.265625 0 -2.0625 0.90625q-0.78125 0.90625 -0.78125 2.859375q0 1.984375 0.765625 2.890625q0.765625 0.890625 1.984375 0.890625q0.984375 0 1.640625 -0.59375q0.65625 -0.609375 0.84375 -1.859375z" fill-rule="nonzero"></path><path fill="#000000" fill-opacity="0.0" d="m803.77295 216.87572l29.51184 0l0 31.496063l-29.51184 0z" fill-rule="evenodd"></path><path fill="#000000" d="m820.46045 240.18634l1.640625 0.21875q-0.265625 1.6875 -1.375 2.65625q-1.109375 0.953125 -2.734375 0.953125q-2.015625 0 -3.25 -1.3125q-1.21875 -1.328125 -1.21875 -3.796875q0 -1.59375 0.515625 -2.78125q0.53125 -1.203125 1.609375 -1.796875q1.09375 -0.609375 2.359375 -0.609375q1.609375 0 2.625 0.8125q1.015625 0.8125 1.3125 2.3125l-1.625 0.25q-0.234375 -1.0 -0.828125 -1.5q-0.59375 -0.5 -1.421875 -0.5q-1.265625 0 -2.0625 0.90625q-0.78125 0.90625 -0.78125 2.859375q0 1.984375 0.765625 2.890625q0.765625 0.890625 1.984375 0.890625q0.984375 0 1.640625 -0.59375q0.65625 -0.609375 0.84375 -1.859375z" fill-rule="nonzero"></path><path fill="#000000" fill-opacity="0.0" d="m278.11154 145.54764l29.51181 0l0 31.496063l-29.51181 0z" fill-rule="evenodd"></path><path fill="#000000" d="m294.79904 171.24889q-0.9375 0.796875 -1.796875 1.125q-0.859375 0.3125 -1.84375 0.3125q-1.609375 0 -2.484375 -0.78125q-0.875 -0.796875 -0.875 -2.03125q0 -0.734375 0.328125 -1.328125q0.328125 -0.59375 0.859375 -0.953125q0.53125 -0.359375 1.203125 -0.546875q0.5 -0.140625 1.484375 -0.25q2.03125 -0.25 2.984375 -0.578125q0 -0.34375 0 -0.4375q0 -1.015625 -0.46875 -1.4375q-0.640625 -0.5625 -1.90625 -0.5625q-1.171875 0 -1.734375 0.40625q-0.5625 0.40625 -0.828125 1.46875l-1.640625 -0.234375q0.234375 -1.046875 0.734375 -1.6875q0.515625 -0.640625 1.46875 -0.984375q0.96875 -0.359375 2.25 -0.359375q1.265625 0 2.046875 0.296875q0.78125 0.296875 1.15625 0.75q0.375 0.453125 0.515625 1.140625q0.09375 0.421875 0.09375 1.53125l0 2.234375q0 2.328125 0.09375 2.953125q0.109375 0.609375 0.4375 1.171875l-1.75 0q-0.265625 -0.515625 -0.328125 -1.21875zm-0.140625 -3.71875q-0.90625 0.359375 -2.734375 0.625q-1.03125 0.140625 -1.453125 0.328125q-0.421875 0.1875 -0.65625 0.546875q-0.234375 0.359375 -0.234375 0.796875q0 0.671875 0.5 1.125q0.515625 0.4375 1.484375 0.4375q0.96875 0 1.71875 -0.421875q0.75 -0.4375 1.109375 -1.15625q0.265625 -0.578125 0.265625 -1.671875l0 -0.609375z" fill-rule="nonzero"></path><path fill="#000000" fill-opacity="0.0" d="m655.3753 145.54764l29.51184 0l0 31.496063l-29.51184 0z" fill-rule="evenodd"></path><path fill="#000000" d="m667.1722 172.46764l-1.546875 0l0 -13.59375l1.65625 0l0 4.84375q1.0625 -1.328125 2.703125 -1.328125q0.90625 0 1.71875 0.375q0.8125 0.359375 1.328125 1.03125q0.53125 0.65625 0.828125 1.59375q0.296875 0.9375 0.296875 2.0q0 2.53125 -1.25 3.921875q-1.25 1.375 -3.0 1.375q-1.75 0 -2.734375 -1.453125l0 1.234375zm-0.015625 -5.0q0 1.765625 0.46875 2.5625q0.796875 1.28125 2.140625 1.28125q1.09375 0 1.890625 -0.9375q0.796875 -0.953125 0.796875 -2.84375q0 -1.921875 -0.765625 -2.84375q-0.765625 -0.921875 -1.84375 -0.921875q-1.09375 0 -1.890625 0.953125q-0.796875 0.953125 -0.796875 2.75z" fill-rule="nonzero"></path><path fill="#000000" fill-opacity="0.0" d="m470.63516 215.21167l29.51181 0l0 31.496063l-29.51181 0z" fill-rule="evenodd"></path><path fill="#000000" d="m487.32266 238.5223l1.640625 0.21875q-0.265625 1.6875 -1.375 2.65625q-1.109375 0.953125 -2.734375 0.953125q-2.015625 0 -3.25 -1.3125q-1.21875 -1.328125 -1.21875 -3.796875q0 -1.59375 0.515625 -2.78125q0.53125 -1.203125 1.609375 -1.796875q1.09375 -0.609375 2.359375 -0.609375q1.609375 0 2.625 0.8125q1.015625 0.8125 1.3125 2.3125l-1.625 0.25q-0.234375 -1.0 -0.828125 -1.5q-0.59375 -0.5 -1.421875 -0.5q-1.265625 0 -2.0625 0.90625q-0.78125 0.90625 -0.78125 2.859375q0 1.984375 0.765625 2.890625q0.765625 0.890625 1.984375 0.890625q0.984375 0 1.640625 -0.59375q0.65625 -0.609375 0.84375 -1.859375z" fill-rule="nonzero"></path><path fill="#eeeeee" d="m195.31627 324.4583l580.7874 0l0 185.38583l-580.7874 0z" fill-rule="evenodd"></path><path stroke="#595959" stroke-width="1.0" stroke-linejoin="round" stroke-linecap="butt" d="m195.31627 324.4583l580.7874 0l0 185.38583l-580.7874 0z" fill-rule="evenodd"></path><path fill="#000000" d="m206.5194 495.31354q0.546875 0.484375 1.234375 0.78125q0.6875 0.28125 1.75 0.28125q1.046875 0 1.640625 -0.34375q0.59375 -0.359375 0.703125 -0.875q0.09375 -0.453125 -0.390625 -0.796875q-0.46875 -0.359375 -1.828125 -0.703125q-0.578125 -0.15625 -1.078125 -0.359375q-0.484375 -0.203125 -0.828125 -0.484375q-0.328125 -0.28125 -0.5 -0.609375q-0.171875 -0.34375 -0.09375 -0.765625q0.109375 -0.453125 0.40625 -0.859375q0.296875 -0.421875 0.765625 -0.703125q0.46875 -0.296875 1.109375 -0.46875q0.65625 -0.171875 1.453125 -0.171875q0.890625 0 1.65625 0.296875q0.765625 0.296875 1.265625 0.703125l-0.828125 0.84375q-0.4375 -0.375 -1.015625 -0.59375q-0.578125 -0.21875 -1.296875 -0.21875q-0.546875 0 -0.9375 0.09375q-0.375 0.078125 -0.625 0.234375q-0.25 0.140625 -0.40625 0.359375q-0.140625 0.203125 -0.1875 0.421875q-0.09375 0.484375 0.484375 0.796875q0.59375 0.3125 1.609375 0.578125q1.484375 0.40625 2.140625 0.921875q0.65625 0.5 0.46875 1.40625q-0.109375 0.484375 -0.421875 0.90625q-0.3125 0.40625 -0.828125 0.734375q-0.5 0.3125 -1.1875 0.484375q-0.6875 0.1875 -1.53125 0.1875q-1.140625 0 -2.03125 -0.359375q-0.890625 -0.359375 -1.5 -0.859375l0.828125 -0.859375zm9.334396 -1.984375q0.203125 -0.953125 0.703125 -1.71875q0.5 -0.765625 1.15625 -1.28125q0.65625 -0.53125 1.421875 -0.8125q0.765625 -0.28125 1.53125 -0.28125q0.828125 0 1.421875 0.265625q0.609375 0.265625 0.953125 0.75q0.359375 0.46875 0.453125 1.140625q0.109375 0.671875 -0.0625 1.5q-0.046875 0.203125 -0.09375 0.40625q-0.046875 0.1875 -0.125 0.34375l-6.078125 0q-0.109375 0.625 0.015625 1.125q0.125 0.484375 0.4375 0.84375q0.328125 0.34375 0.8125 0.546875q0.5 0.1875 1.140625 0.1875q0.6875 0 1.296875 -0.1875q0.609375 -0.203125 1.21875 -0.53125l0.28125 0.859375q-0.640625 0.359375 -1.453125 0.640625q-0.796875 0.265625 -1.734375 0.265625q-0.859375 0 -1.5625 -0.28125q-0.703125 -0.28125 -1.15625 -0.796875q-0.453125 -0.515625 -0.625 -1.265625q-0.15625 -0.75 0.046875 -1.71875zm6.390625 -0.640625q0.25 -1.171875 -0.234375 -1.78125q-0.46875 -0.625 -1.546875 -0.625q-0.484375 0 -0.953125 0.15625q-0.46875 0.15625 -0.890625 0.46875q-0.421875 0.3125 -0.765625 0.765625q-0.328125 0.4375 -0.53125 1.015625l4.921875 0zm3.3812714 0.640625q0.203125 -0.96875 0.703125 -1.734375q0.515625 -0.765625 1.21875 -1.28125q0.703125 -0.53125 1.546875 -0.796875q0.84375 -0.28125 1.71875 -0.28125q0.96875 0 1.59375 0.34375q0.625 0.328125 1.015625 0.796875l-0.84375 0.84375q-0.390625 -0.421875 -0.859375 -0.65625q-0.46875 -0.234375 -1.078125 -0.234375q-0.671875 0 -1.28125 0.21875q-0.59375 0.203125 -1.078125 0.609375q-0.46875 0.40625 -0.8125 0.953125q-0.34375 0.546875 -0.484375 1.21875q-0.140625 0.671875 -0.046875 1.21875q0.109375 0.546875 0.40625 0.9375q0.3125 0.390625 0.8125 0.609375q0.5 0.21875 1.171875 0.21875q0.734375 0 1.390625 -0.28125q0.65625 -0.28125 1.25 -0.703125l0.390625 0.84375q-0.765625 0.578125 -1.625 0.90625q-0.859375 0.3125 -1.734375 0.3125q-0.90625 0 -1.625 -0.265625q-0.703125 -0.28125 -1.171875 -0.796875q-0.46875 -0.515625 -0.625 -1.265625q-0.15625 -0.765625 0.046875 -1.734375zm9.271896 0q0.203125 -0.96875 0.671875 -1.734375q0.484375 -0.765625 1.125 -1.28125q0.640625 -0.53125 1.390625 -0.796875q0.75 -0.28125 1.515625 -0.28125q0.765625 0 1.40625 0.28125q0.640625 0.265625 1.0625 0.796875q0.421875 0.515625 0.5625 1.28125q0.15625 0.765625 -0.046875 1.734375q-0.203125 0.96875 -0.6875 1.734375q-0.46875 0.75 -1.109375 1.265625q-0.640625 0.515625 -1.40625 0.796875q-0.75 0.265625 -1.515625 0.265625q-0.765625 0 -1.40625 -0.265625q-0.625 -0.28125 -1.046875 -0.796875q-0.421875 -0.515625 -0.578125 -1.265625q-0.140625 -0.765625 0.0625 -1.734375zm1.359375 0q-0.140625 0.671875 -0.078125 1.21875q0.0625 0.546875 0.296875 0.9375q0.25 0.390625 0.65625 0.609375q0.40625 0.21875 0.96875 0.21875q0.5625 0 1.0625 -0.21875q0.5 -0.21875 0.90625 -0.609375q0.421875 -0.390625 0.71875 -0.9375q0.296875 -0.546875 0.4375 -1.21875q0.140625 -0.671875 0.078125 -1.21875q-0.0625 -0.546875 -0.3125 -0.953125q-0.234375 -0.40625 -0.640625 -0.609375q-0.40625 -0.21875 -0.96875 -0.21875q-0.5625 0 -1.0625 0.21875q-0.5 0.203125 -0.921875 0.609375q-0.40625 0.40625 -0.703125 0.953125q-0.296875 0.546875 -0.4375 1.21875zm9.600021 -3.90625l1.09375 0l-0.171875 1.328125l0.0625 0q0.75 -0.65625 1.53125 -1.078125q0.796875 -0.4375 1.71875 -0.4375q1.390625 0 1.875 0.796875q0.484375 0.78125 0.15625 2.34375l-1.03125 4.828125l-1.3125 0l0.984375 -4.65625q0.234375 -1.109375 -0.078125 -1.640625q-0.296875 -0.53125 -1.25 -0.53125q-0.359375 0 -0.671875 0.09375q-0.3125 0.078125 -0.640625 0.265625q-0.3125 0.171875 -0.671875 0.4375q-0.359375 0.25 -0.78125 0.609375l-1.15625 5.421875l-1.3125 0l1.65625 -7.78125zm8.240646 3.90625q0.1875 -0.9375 0.640625 -1.703125q0.46875 -0.765625 1.078125 -1.28125q0.609375 -0.53125 1.296875 -0.8125q0.703125 -0.296875 1.390625 -0.296875q0.71875 0 1.203125 0.28125q0.484375 0.265625 0.9375 0.734375l0.25 -1.453125l0.640625 -2.984375l1.3125 0l-2.421875 11.390625l-1.078125 0l0.09375 -1.03125l-0.046875 0q-0.578125 0.5 -1.328125 0.859375q-0.734375 0.359375 -1.453125 0.359375q-0.78125 0 -1.328125 -0.265625q-0.546875 -0.28125 -0.890625 -0.796875q-0.34375 -0.515625 -0.4375 -1.265625q-0.078125 -0.75 0.140625 -1.734375zm1.359375 -0.015625q-0.296875 1.40625 0.125 2.203125q0.4375 0.78125 1.53125 0.78125q1.15625 0 2.4375 -1.171875l0.828125 -3.875q-0.421875 -0.5 -0.890625 -0.703125q-0.453125 -0.203125 -0.96875 -0.203125q-0.515625 0 -1.0 0.21875q-0.46875 0.203125 -0.890625 0.609375q-0.40625 0.390625 -0.71875 0.9375q-0.3125 0.53125 -0.453125 1.203125z" fill-rule="nonzero"></path><path fill="#cfe2f3" d="m396.47372 418.35434l167.3071 0l0 73.00787l-167.3071 0z" fill-rule="evenodd"></path><path stroke="#595959" stroke-width="1.0" stroke-linejoin="round" stroke-linecap="butt" d="m396.47372 418.35434l167.3071 0l0 73.00787l-167.3071 0z" fill-rule="evenodd"></path><path fill="#000000" d="m476.4835 449.4995l2.34375 0l0 2.75l-0.125 1.53125q0.234375 -0.234375 0.515625 -0.4375q0.28125 -0.21875 0.609375 -0.390625q0.328125 -0.171875 0.71875 -0.265625q0.390625 -0.09375 0.84375 -0.09375q1.34375 0 1.953125 0.859375q0.625 0.859375 0.625 2.375l0 4.890625l-2.359375 0l0 -4.59375q0 -0.796875 -0.25 -1.15625q-0.25 -0.375 -0.90625 -0.375q-0.484375 0 -0.84375 0.203125q-0.359375 0.203125 -0.78125 0.625l0 5.296875l-2.34375 0l0 -11.21875z" fill-rule="nonzero"></path><path fill="#000000" fill-opacity="0.0" d="m110.20518 382.115l83.716545 0" fill-rule="evenodd"></path><path stroke="#595959" stroke-width="1.0" stroke-linejoin="round" stroke-linecap="butt" d="m110.205185 382.115l77.71652 0" fill-rule="evenodd"></path><path fill="#595959" stroke="#595959" stroke-width="1.0" stroke-linecap="butt" d="m187.9217 383.76672l4.538101 -1.6517334l-4.538101 -1.6517334z" fill-rule="evenodd"></path><path fill="#000000" fill-opacity="0.0" d="m776.1037 382.81265l84.47241 0" fill-rule="evenodd"></path><path stroke="#595959" stroke-width="1.0" stroke-linejoin="round" stroke-linecap="butt" d="m776.1037 382.81265l78.47241 0" fill-rule="evenodd"></path><path fill="#595959" stroke="#595959" stroke-width="1.0" stroke-linecap="butt" d="m854.5761 384.4644l4.538086 -1.6517334l-4.538086 -1.6517334z" fill-rule="evenodd"></path><path fill="#000000" fill-opacity="0.0" d="m563.7808 454.85828l212.5354 0.1574707" fill-rule="evenodd"></path><path stroke="#595959" stroke-width="1.0" stroke-linejoin="round" stroke-linecap="butt" d="m563.7808 454.85828l206.53546 0.15304565" fill-rule="evenodd"></path><path fill="#595959" stroke="#595959" stroke-width="1.0" stroke-linecap="butt" d="m770.31506 456.66302l4.5393066 -1.648346l-4.536865 -1.6551208z" fill-rule="evenodd"></path><path fill="#000000" fill-opacity="0.0" d="m188.88316 453.6299l207.59056 1.228363" fill-rule="evenodd"></path><path stroke="#595959" stroke-width="1.0" stroke-linejoin="round" stroke-linecap="butt" d="m188.88316 453.6299l201.59068 1.1928406" fill-rule="evenodd"></path><path fill="#595959" stroke="#595959" stroke-width="1.0" stroke-linecap="butt" d="m390.46405 456.47446l4.5477905 -1.6248474l-4.5282593 -1.6785583z" fill-rule="evenodd"></path><path fill="#000000" fill-opacity="0.0" d="m110.20518 453.92862l83.716545 0" fill-rule="evenodd"></path><path stroke="#595959" stroke-width="1.0" stroke-linejoin="round" stroke-linecap="butt" d="m110.205185 453.92865l77.71652 0" fill-rule="evenodd"></path><path fill="#595959" stroke="#595959" stroke-width="1.0" stroke-linecap="butt" d="m187.9217 455.58038l4.538101 -1.6517334l-4.538101 -1.6517334z" fill-rule="evenodd"></path><path fill="#000000" fill-opacity="0.0" d="m776.4808 453.92862l83.71655 0" fill-rule="evenodd"></path><path stroke="#595959" stroke-width="1.0" stroke-linejoin="round" stroke-linecap="butt" d="m776.48083 453.92865l77.71649 0" fill-rule="evenodd"></path><path fill="#595959" stroke="#595959" stroke-width="1.0" stroke-linecap="butt" d="m854.1973 455.58038l4.538086 -1.6517334l-4.538086 -1.6517334z" fill-rule="evenodd"></path><path fill="#000000" fill-opacity="0.0" d="m195.85695 381.81522l580.4725 0" fill-rule="evenodd"></path><path stroke="#595959" stroke-width="1.0" stroke-linejoin="round" stroke-linecap="butt" d="m195.85695 381.81525l574.4725 0" fill-rule="evenodd"></path><path fill="#595959" stroke="#595959" stroke-width="1.0" stroke-linecap="butt" d="m770.3294 383.46698l4.538086 -1.6517334l-4.538086 -1.6517334z" fill-rule="evenodd"></path><path fill="#000000" fill-opacity="0.0" d="m130.67717 351.31665l29.51181 0l0 31.496063l-29.51181 0z" fill-rule="evenodd"></path><path fill="#000000" d="m147.36467 374.6273l1.640625 0.21875q-0.265625 1.6875 -1.375 2.65625q-1.109375 0.953125 -2.734375 0.953125q-2.015625 0 -3.25 -1.3125q-1.21875 -1.328125 -1.21875 -3.796875q0 -1.59375 0.515625 -2.78125q0.53125 -1.203125 1.609375 -1.796875q1.09375 -0.609375 2.359375 -0.609375q1.609375 0 2.625 0.8125q1.015625 0.8125 1.3125 2.3125l-1.625 0.25q-0.234375 -1.0 -0.828125 -1.5q-0.59375 -0.5 -1.421875 -0.5q-1.265625 0 -2.0625 0.90625q-0.78125 0.90625 -0.78125 2.859375q0 1.984375 0.765625 2.890625q0.765625 0.890625 1.984375 0.890625q0.984375 0 1.640625 -0.59375q0.65625 -0.609375 0.84375 -1.859375z" fill-rule="nonzero"></path><path fill="#000000" fill-opacity="0.0" d="m800.063 351.31665l29.51184 0l0 31.496063l-29.51184 0z" fill-rule="evenodd"></path><path fill="#000000" d="m816.7505 374.6273l1.640625 0.21875q-0.265625 1.6875 -1.375 2.65625q-1.109375 0.953125 -2.734375 0.953125q-2.015625 0 -3.25 -1.3125q-1.21875 -1.328125 -1.21875 -3.796875q0 -1.59375 0.515625 -2.78125q0.53125 -1.203125 1.609375 -1.796875q1.09375 -0.609375 2.359375 -0.609375q1.609375 0 2.625 0.8125q1.015625 0.8125 1.3125 2.3125l-1.625 0.25q-0.234375 -1.0 -0.828125 -1.5q-0.59375 -0.5 -1.421875 -0.5q-1.265625 0 -2.0625 0.90625q-0.78125 0.90625 -0.78125 2.859375q0 1.984375 0.765625 2.890625q0.765625 0.890625 1.984375 0.890625q0.984375 0 1.640625 -0.59375q0.65625 -0.609375 0.84375 -1.859375z" fill-rule="nonzero"></path><path fill="#000000" fill-opacity="0.0" d="m130.67717 422.64474l29.51181 0l0 31.496063l-29.51181 0z" fill-rule="evenodd"></path><path fill="#000000" d="m147.36467 448.346q-0.9375 0.796875 -1.796875 1.125q-0.859375 0.3125 -1.84375 0.3125q-1.609375 0 -2.484375 -0.78125q-0.875 -0.796875 -0.875 -2.03125q0 -0.734375 0.328125 -1.328125q0.328125 -0.59375 0.859375 -0.953125q0.53125 -0.359375 1.203125 -0.546875q0.5 -0.140625 1.484375 -0.25q2.03125 -0.25 2.984375 -0.578125q0 -0.34375 0 -0.4375q0 -1.015625 -0.46875 -1.4375q-0.640625 -0.5625 -1.90625 -0.5625q-1.171875 0 -1.734375 0.40625q-0.5625 0.40625 -0.828125 1.46875l-1.640625 -0.234375q0.234375 -1.046875 0.734375 -1.6875q0.515625 -0.640625 1.46875 -0.984375q0.96875 -0.359375 2.25 -0.359375q1.265625 0 2.046875 0.296875q0.78125 0.296875 1.15625 0.75q0.375 0.453125 0.515625 1.140625q0.09375 0.421875 0.09375 1.53125l0 2.234375q0 2.328125 0.09375 2.953125q0.109375 0.609375 0.4375 1.171875l-1.75 0q-0.265625 -0.515625 -0.328125 -1.21875zm-0.140625 -3.71875q-0.90625 0.359375 -2.734375 0.625q-1.03125 0.140625 -1.453125 0.328125q-0.421875 0.1875 -0.65625 0.546875q-0.234375 0.359375 -0.234375 0.796875q0 0.671875 0.5 1.125q0.515625 0.4375 1.484375 0.4375q0.96875 0 1.71875 -0.421875q0.75 -0.4375 1.109375 -1.15625q0.265625 -0.578125 0.265625 -1.671875l0 -0.609375z" fill-rule="nonzero"></path><path fill="#000000" fill-opacity="0.0" d="m803.5827 422.64474l29.51178 0l0 31.496063l-29.51178 0z" fill-rule="evenodd"></path><path fill="#000000" d="m815.3796 449.56476l-1.546875 0l0 -13.59375l1.65625 0l0 4.84375q1.0625 -1.328125 2.703125 -1.328125q0.90625 0 1.71875 0.375q0.8125 0.359375 1.328125 1.03125q0.53125 0.65625 0.828125 1.59375q0.296875 0.9375 0.296875 2.0q0 2.53125 -1.25 3.921875q-1.25 1.375 -3.0 1.375q-1.75 0 -2.734375 -1.453125l0 1.234375zm-0.015625 -5.0q0 1.765625 0.46875 2.5625q0.796875 1.28125 2.140625 1.28125q1.09375 0 1.890625 -0.9375q0.796875 -0.953125 0.796875 -2.84375q0 -1.921875 -0.765625 -2.84375q-0.765625 -0.921875 -1.84375 -0.921875q-1.09375 0 -1.890625 0.953125q-0.796875 0.953125 -0.796875 2.75z" fill-rule="nonzero"></path><path fill="#000000" fill-opacity="0.0" d="m277.92126 423.3632l29.51181 0l0 31.496063l-29.51181 0z" fill-rule="evenodd"></path><path fill="#000000" d="m294.60876 449.06442q-0.9375 0.796875 -1.796875 1.125q-0.859375 0.3125 -1.84375 0.3125q-1.609375 0 -2.484375 -0.78125q-0.875 -0.796875 -0.875 -2.03125q0 -0.734375 0.328125 -1.328125q0.328125 -0.59375 0.859375 -0.953125q0.53125 -0.359375 1.203125 -0.546875q0.5 -0.140625 1.484375 -0.25q2.03125 -0.25 2.984375 -0.578125q0 -0.34375 0 -0.4375q0 -1.015625 -0.46875 -1.4375q-0.640625 -0.5625 -1.90625 -0.5625q-1.171875 0 -1.734375 0.40625q-0.5625 0.40625 -0.828125 1.46875l-1.640625 -0.234375q0.234375 -1.046875 0.734375 -1.6875q0.515625 -0.640625 1.46875 -0.984375q0.96875 -0.359375 2.25 -0.359375q1.265625 0 2.046875 0.296875q0.78125 0.296875 1.15625 0.75q0.375 0.453125 0.515625 1.140625q0.09375 0.421875 0.09375 1.53125l0 2.234375q0 2.328125 0.09375 2.953125q0.109375 0.609375 0.4375 1.171875l-1.75 0q-0.265625 -0.515625 -0.328125 -1.21875zm-0.140625 -3.71875q-0.90625 0.359375 -2.734375 0.625q-1.03125 0.140625 -1.453125 0.328125q-0.421875 0.1875 -0.65625 0.546875q-0.234375 0.359375 -0.234375 0.796875q0 0.671875 0.5 1.125q0.515625 0.4375 1.484375 0.4375q0.96875 0 1.71875 -0.421875q0.75 -0.4375 1.109375 -1.15625q0.265625 -0.578125 0.265625 -1.671875l0 -0.609375z" fill-rule="nonzero"></path><path fill="#000000" fill-opacity="0.0" d="m655.18506 423.3632l29.51178 0l0 31.496063l-29.51178 0z" fill-rule="evenodd"></path><path fill="#000000" d="m666.98193 450.28317l-1.546875 0l0 -13.59375l1.65625 0l0 4.84375q1.0625 -1.328125 2.703125 -1.328125q0.90625 0 1.71875 0.375q0.8125 0.359375 1.328125 1.03125q0.53125 0.65625 0.828125 1.59375q0.296875 0.9375 0.296875 2.0q0 2.53125 -1.25 3.921875q-1.25 1.375 -3.0 1.375q-1.75 0 -2.734375 -1.453125l0 1.234375zm-0.015625 -5.0q0 1.765625 0.46875 2.5625q0.796875 1.28125 2.140625 1.28125q1.09375 0 1.890625 -0.9375q0.796875 -0.953125 0.796875 -2.84375q0 -1.921875 -0.765625 -2.84375q-0.765625 -0.921875 -1.84375 -0.921875q-1.09375 0 -1.890625 0.953125q-0.796875 0.953125 -0.796875 2.75z" fill-rule="nonzero"></path><path fill="#000000" fill-opacity="0.0" d="m470.4449 348.65512l29.51181 0l0 31.496063l-29.51181 0z" fill-rule="evenodd"></path><path fill="#000000" d="m487.1324 371.96576l1.640625 0.21875q-0.265625 1.6875 -1.375 2.65625q-1.109375 0.953125 -2.734375 0.953125q-2.015625 0 -3.25 -1.3125q-1.21875 -1.328125 -1.21875 -3.796875q0 -1.59375 0.515625 -2.78125q0.53125 -1.203125 1.609375 -1.796875q1.09375 -0.609375 2.359375 -0.609375q1.609375 0 2.625 0.8125q1.015625 0.8125 1.3125 2.3125l-1.625 0.25q-0.234375 -1.0 -0.828125 -1.5q-0.59375 -0.5 -1.421875 -0.5q-1.265625 0 -2.0625 0.90625q-0.78125 0.90625 -0.78125 2.859375q0 1.984375 0.765625 2.890625q0.765625 0.890625 1.984375 0.890625q0.984375 0 1.640625 -0.59375q0.65625 -0.609375 0.84375 -1.859375z" fill-rule="nonzero"></path><path fill="#000000" fill-opacity="0.0" d="m0 104.41842l960.69293 1.3858261" fill-rule="evenodd"></path><path stroke="#595959" stroke-width="1.0" stroke-linejoin="round" stroke-linecap="butt" stroke-dasharray="1.0,3.0" d="m0 104.41842l960.69293 1.3858261" fill-rule="evenodd"></path></g></svg>

