<?xml version="1.0" standalone="yes"?>

<svg version="1.1" viewBox="0.0 0.0 960.0 540.0" fill="none" stroke="none" stroke-linecap="square" stroke-miterlimit="10" xmlns="http://www.w3.org/2000/svg" xmlns:xlink="http://www.w3.org/1999/xlink"><clipPath id="g2563b22d09_0_65.0"><path d="m0 0l960.0 0l0 540.0l-960.0 0l0 -540.0z" clip-rule="nonzero"></path></clipPath><g clip-path="url(#g2563b22d09_0_65.0)"><path fill="#ffffff" d="m0 0l960.0 0l0 540.0l-960.0 0z" fill-rule="evenodd"></path><path fill="#ffffff" d="m446.6691 238.93765l66.66177 0l0 15.91951l-66.66177 0zm0 23.879272l66.66177 0l0 15.919525l-66.66177 0z" fill-rule="evenodd"></path><path stroke="#595959" stroke-width="1.0" stroke-linejoin="round" stroke-linecap="butt" d="m446.6691 238.93765l66.66177 0l0 15.91951l-66.66177 0zm0 23.879272l66.66177 0l0 15.919525l-66.66177 0z" fill-rule="evenodd"></path><path fill="#eeeeee" d="m189.22835 36.878403l580.7874 0l0 169.73228l-580.7874 0z" fill-rule="evenodd"></path><path stroke="#595959" stroke-width="1.0" stroke-linejoin="round" stroke-linecap="butt" d="m189.22835 36.878403l580.7874 0l0 169.73228l-580.7874 0z" fill-rule="evenodd"></path><path fill="#000000" d="m200.0096 190.09569q0.1875 -0.9375 0.640625 -1.703125q0.46875 -0.765625 1.078125 -1.28125q0.609375 -0.53125 1.296875 -0.8125q0.703125 -0.296875 1.390625 -0.296875q0.71875 0 1.203125 0.28125q0.484375 0.265625 0.9375 0.734375l0.25 -1.453125l0.640625 -2.984375l1.3125 0l-2.421875 11.390625l-1.078125 0l0.09375 -1.03125l-0.046875 0q-0.578125 0.5 -1.328125 0.859375q-0.734375 0.359375 -1.453125 0.359375q-0.78125 0 -1.328125 -0.265625q-0.546875 -0.28125 -0.890625 -0.796875q-0.34375 -0.515625 -0.4375 -1.265625q-0.078125 -0.75 0.140625 -1.734375zm1.359375 -0.015625q-0.296875 1.40625 0.125 2.203125q0.4375 0.78125 1.53125 0.78125q1.15625 0 2.4375 -1.171875l0.828125 -3.875q-0.421875 -0.5 -0.890625 -0.703125q-0.453125 -0.203125 -0.96875 -0.203125q-0.515625 0 -1.0 0.21875q-0.46875 0.203125 -0.890625 0.609375q-0.40625 0.390625 -0.71875 0.9375q-0.3125 0.53125 -0.453125 1.203125zm9.553146 -3.890625l4.9375 0l-1.65625 7.78125l-1.3125 0l1.421875 -6.703125l-3.625 0l0.234375 -1.078125zm4.46875 -1.59375q-0.453125 0 -0.703125 -0.265625q-0.234375 -0.28125 -0.140625 -0.75q0.109375 -0.453125 0.453125 -0.734375q0.359375 -0.28125 0.8125 -0.28125q0.453125 0 0.703125 0.28125q0.25 0.28125 0.140625 0.734375q-0.09375 0.46875 -0.453125 0.75q-0.359375 0.265625 -0.8125 0.265625zm4.6468964 1.59375l1.03125 0l-0.109375 1.03125l0.046875 0q0.40625 -0.546875 0.859375 -0.875q0.46875 -0.34375 1.140625 -0.34375q1.1875 0 1.1875 1.34375q0.484375 -0.609375 0.96875 -0.96875q0.5 -0.375 1.15625 -0.375q0.8125 0 1.125 0.625q0.3125 0.609375 0.0625 1.78125l-1.1875 5.5625l-1.265625 0l1.15625 -5.453125q0.296875 -1.375 -0.546875 -1.375q-0.40625 0 -0.78125 0.296875q-0.359375 0.296875 -0.796875 0.90625l-1.203125 5.625l-1.046875 0l1.15625 -5.453125q0.296875 -1.375 -0.59375 -1.375q-0.40625 0 -0.765625 0.296875q-0.34375 0.296875 -0.78125 0.90625l-1.203125 5.625l-1.265625 0l1.65625 -7.78125zm8.709396 5.765625q0.140625 -0.65625 0.5625 -1.140625q0.421875 -0.484375 1.171875 -0.84375q0.75 -0.359375 1.859375 -0.578125q1.125 -0.21875 2.65625 -0.34375q0.0625 -0.40625 0.03125 -0.75q-0.03125 -0.359375 -0.21875 -0.625q-0.1875 -0.265625 -0.546875 -0.421875q-0.34375 -0.15625 -0.90625 -0.15625q-0.765625 0 -1.546875 0.296875q-0.765625 0.296875 -1.375 0.625l-0.328125 -0.890625q0.34375 -0.203125 0.765625 -0.390625q0.4375 -0.203125 0.90625 -0.359375q0.484375 -0.171875 1.0 -0.265625q0.515625 -0.109375 1.03125 -0.109375q1.59375 0 2.1875 0.875q0.59375 0.875 0.28125 2.328125l-1.015625 4.765625l-1.0625 0l0.109375 -1.0625l-0.046875 0q-0.765625 0.515625 -1.640625 0.890625q-0.875 0.359375 -1.703125 0.359375q-0.546875 0 -1.0 -0.15625q-0.4375 -0.140625 -0.734375 -0.421875q-0.296875 -0.28125 -0.421875 -0.6875q-0.125 -0.40625 -0.015625 -0.9375zm1.3125 -0.09375q-0.078125 0.328125 0.015625 0.5625q0.09375 0.234375 0.296875 0.390625q0.203125 0.140625 0.5 0.21875q0.296875 0.078125 0.625 0.078125q0.671875 0 1.375 -0.296875q0.71875 -0.296875 1.5 -0.859375l0.4375 -2.046875q-1.25 0.09375 -2.140625 0.28125q-0.875 0.171875 -1.4375 0.421875q-0.546875 0.234375 -0.828125 0.546875q-0.265625 0.3125 -0.34375 0.703125zm9.225021 2.765625l-0.5625 2.625l-1.3125 0l2.359375 -11.0625l1.09375 0l-0.109375 1.0l0.046875 0q0.65625 -0.515625 1.4375 -0.84375q0.78125 -0.34375 1.5 -0.34375q0.78125 0 1.328125 0.28125q0.546875 0.28125 0.84375 0.796875q0.296875 0.515625 0.34375 1.25q0.0625 0.734375 -0.140625 1.640625q-0.203125 0.984375 -0.65625 1.765625q-0.453125 0.78125 -1.0625 1.328125q-0.59375 0.53125 -1.296875 0.8125q-0.703125 0.28125 -1.40625 0.28125q-0.546875 0 -1.125 -0.265625q-0.5625 -0.265625 -1.0 -0.734375l-0.28125 1.46875zm0.53125 -2.484375q0.453125 0.5 0.96875 0.71875q0.515625 0.203125 0.90625 0.203125q1.0625 0 1.90625 -0.8125q0.859375 -0.828125 1.15625 -2.28125q0.140625 -0.640625 0.125 -1.171875q0 -0.53125 -0.1875 -0.90625q-0.1875 -0.375 -0.578125 -0.578125q-0.375 -0.203125 -0.9375 -0.203125q-0.515625 0 -1.15625 0.28125q-0.640625 0.28125 -1.375 0.875l-0.828125 3.875z" fill-rule="nonzero"></path><path fill="#000000" d="m258.1722 186.18944l1.078125 0l0.109375 1.84375l0.046875 0q0.609375 -0.9375 1.5 -1.484375q0.890625 -0.546875 1.984375 -0.546875q0.421875 0 0.78125 0.078125q0.375 0.0625 0.75 0.25l-0.3125 1.125q-0.40625 -0.140625 -0.6875 -0.203125q-0.28125 -0.0625 -0.75 -0.0625q-0.875 0 -1.6875 0.5q-0.796875 0.5 -1.515625 1.71875l0 4.5625l-1.296875 0l0 -7.78125zm15.709412 6.6875l0 1.09375l-6.890625 0l0 -1.09375l2.90625 0l0 -7.515625l-2.1875 0l0 -0.84375q0.828125 -0.125 1.421875 -0.3125q0.609375 -0.1875 1.09375 -0.4375l0.984375 0l0 9.109375l2.671875 0zm13.090668 -6.6875l1.078125 0l0.109375 1.84375l0.046875 0q0.609375 -0.9375 1.5 -1.484375q0.890625 -0.546875 1.984375 -0.546875q0.421875 0 0.78125 0.078125q0.375 0.0625 0.75 0.25l-0.3125 1.125q-0.40625 -0.140625 -0.6875 -0.203125q-0.28125 -0.0625 -0.75 -0.0625q-0.875 0 -1.6875 0.5q-0.796875 0.5 -1.515625 1.71875l0 4.5625l-1.296875 0l0 -7.78125zm15.709381 6.6875l0 1.09375l-6.890625 0l0 -1.09375l2.90625 0l0 -7.515625l-2.1875 0l0 -0.84375q0.828125 -0.125 1.421875 -0.3125q0.609375 -0.1875 1.09375 -0.4375l0.984375 0l0 9.109375l2.671875 0zm4.6156616 -5.28125q0.765625 -0.40625 1.1875 -1.03125q0.4375 -0.640625 0.484375 -1.484375q-0.203125 0.09375 -0.421875 0.09375q-0.515625 0 -0.828125 -0.3125q-0.3125 -0.3125 -0.3125 -0.828125q0 -0.5625 0.328125 -0.90625q0.34375 -0.34375 0.859375 -0.34375q0.640625 0 1.03125 0.515625q0.40625 0.515625 0.40625 1.421875q0 1.203125 -0.609375 2.15625q-0.609375 0.9375 -1.671875 1.5l-0.453125 -0.78125z" fill-rule="nonzero"></path><path fill="#cfe2f3" d="m393.72308 85.374466l167.30713 0l0 73.00787l-167.30713 0z" fill-rule="evenodd"></path><path stroke="#595959" stroke-width="1.0" stroke-linejoin="round" stroke-linecap="butt" d="m393.72308 85.374466l167.30713 0l0 73.00787l-167.30713 0z" fill-rule="evenodd"></path><path fill="#000000" d="m473.73288 116.51965l2.34375 0l0 2.75l-0.125 1.53125q0.234375 -0.234375 0.515625 -0.4375q0.28125 -0.21875 0.609375 -0.390625q0.328125 -0.171875 0.71875 -0.265625q0.390625 -0.09375 0.84375 -0.09375q1.34375 0 1.953125 0.859375q0.625 0.859375 0.625 2.375l0 4.890625l-2.359375 0l0 -4.59375q0 -0.796875 -0.25 -1.15625q-0.25 -0.375 -0.90625 -0.375q-0.484375 0 -0.84375 0.203125q-0.359375 0.203125 -0.78125 0.625l0 5.296875l-2.34375 0l0 -11.21875z" fill-rule="nonzero"></path><path fill="#000000" fill-opacity="0.0" d="m329.14697 122.41042l64.566925 -0.5354309" fill-rule="evenodd"></path><path stroke="#595959" stroke-width="1.0" stroke-linejoin="round" stroke-linecap="butt" d="m329.14697 122.41042l58.56714 -0.48567963" fill-rule="evenodd"></path><path fill="#595959" stroke="#595959" stroke-width="1.0" stroke-linecap="butt" d="m387.7278 123.576416l4.524231 -1.6893005l-4.5516357 -1.6140442z" fill-rule="evenodd"></path><path fill="#000000" fill-opacity="0.0" d="m561.0302 121.8784l65.543274 0.5669327" fill-rule="evenodd"></path><path stroke="#595959" stroke-width="1.0" stroke-linejoin="round" stroke-linecap="butt" d="m561.0302 121.8784l59.543457 0.5150299" fill-rule="evenodd"></path><path fill="#595959" stroke="#595959" stroke-width="1.0" stroke-linecap="butt" d="m620.55945 124.045105l4.552185 -1.6124191l-4.5236206 -1.690918z" fill-rule="evenodd"></path><path fill="#ffffff" d="m245.43045 122.41042l0 0c0 -22.908943 18.74057 -41.480316 41.858276 -41.480316l0 0c11.101501 0 21.748291 4.3702393 29.598267 12.149307c7.849945 7.779068 12.259979 18.32975 12.259979 29.331009l0 0c0 22.908943 -18.74057 41.480324 -41.858246 41.480324l0 0c-23.117706 0 -41.858276 -18.57138 -41.858276 -41.480324z" fill-rule="evenodd"></path><path stroke="#595959" stroke-width="1.0" stroke-linejoin="round" stroke-linecap="butt" d="m245.43045 122.41042l0 0c0 -22.908943 18.74057 -41.480316 41.858276 -41.480316l0 0c11.101501 0 21.748291 4.3702393 29.598267 12.149307c7.849945 7.779068 12.259979 18.32975 12.259979 29.331009l0 0c0 22.908943 -18.74057 41.480324 -41.858246 41.480324l0 0c-23.117706 0 -41.858276 -18.57138 -41.858276 -41.480324z" fill-rule="evenodd"></path><path fill="#000000" d="m279.54807 120.332924l1.921875 0l0.1875 1.734375l0.046875 0q0.59375 -0.984375 1.421875 -1.453125q0.828125 -0.46875 1.796875 -0.46875q0.53125 0 0.859375 0.078125q0.328125 0.078125 0.671875 0.234375l-0.484375 1.96875q-0.359375 -0.109375 -0.65625 -0.15625q-0.296875 -0.0625 -0.75 -0.0625q-0.734375 0 -1.453125 0.4375q-0.703125 0.421875 -1.21875 1.5l0 4.1250076l-2.34375 0l0 -7.9375076zm16.334412 6.03125l0 1.9062576l-7.28125 0l0 -1.9062576l2.625 0l0 -5.875l-2.09375 0l0 -1.453125q0.890625 -0.15625 1.515625 -0.375q0.640625 -0.234375 1.203125 -0.546875l1.71875 0l0 8.25l2.3125 0z" fill-rule="nonzero"></path><path fill="#ffffff" d="m626.5591 122.43142l0 0c0 -22.908943 18.74054 -41.48031 41.858215 -41.48031l0 0c11.101501 0 21.748352 4.3702316 29.598267 12.1493c7.8499756 7.779068 12.26001 18.32975 12.26001 29.331009l0 0c0 22.908943 -18.74054 41.480324 -41.858276 41.480324l0 0c-23.117676 0 -41.858215 -18.57138 -41.858215 -41.480324z" fill-rule="evenodd"></path><path stroke="#595959" stroke-width="1.0" stroke-linejoin="round" stroke-linecap="butt" d="m626.5591 122.43142l0 0c0 -22.908943 18.74054 -41.48031 41.858215 -41.48031l0 0c11.101501 0 21.748352 4.3702316 29.598267 12.1493c7.8499756 7.779068 12.26001 18.32975 12.26001 29.331009l0 0c0 22.908943 -18.74054 41.480324 -41.858276 41.480324l0 0c-23.117676 0 -41.858215 -18.57138 -41.858215 -41.480324z" fill-rule="evenodd"></path><path fill="#000000" d="m655.87665 120.35393l1.921875 0l0.1875 1.734375l0.046875 0q0.59375 -0.984375 1.421875 -1.453125q0.828125 -0.46875 1.796875 -0.46875q0.53125 0 0.859375 0.078125q0.328125 0.078125 0.671875 0.234375l-0.484375 1.96875q-0.359375 -0.109375 -0.65625 -0.15625q-0.296875 -0.0625 -0.75 -0.0625q-0.734375 0 -1.453125 0.4375q-0.703125 0.421875 -1.21875 1.5l0 4.125l-2.34375 0l0 -7.9375zm16.334412 6.03125l0 1.90625l-7.28125 0l0 -1.90625l2.625 0l0 -5.875l-2.09375 0l0 -1.453125q0.890625 -0.15625 1.515625 -0.375q0.640625 -0.234375 1.203125 -0.546875l1.71875 0l0 8.25l2.3125 0zm4.2406616 -3.984375q1.671875 -0.75 1.796875 -2.21875q-0.1875 0.046875 -0.328125 0.046875q-0.65625 0 -1.0625 -0.390625q-0.40625 -0.40625 -0.40625 -1.078125q0 -0.734375 0.421875 -1.171875q0.4375 -0.453125 1.109375 -0.453125q0.921875 0 1.390625 0.6875q0.484375 0.671875 0.484375 1.875q0 1.3125 -0.6875 2.3125q-0.6875 1.0 -2.09375 1.640625l-0.625 -1.25z" fill-rule="nonzero"></path><path fill="#000000" fill-opacity="0.0" d="m189.40698 77.26839l68.28348 0l0 15.811028" fill-rule="evenodd"></path><path stroke="#595959" stroke-width="1.0" stroke-linejoin="round" stroke-linecap="butt" d="m189.40698 77.26839l68.28348 0l0 9.811028" fill-rule="evenodd"></path><path fill="#595959" stroke="#595959" stroke-width="1.0" stroke-linecap="butt" d="m256.03873 87.079414l1.6517334 4.538101l1.6517334 -4.538101z" fill-rule="evenodd"></path><path fill="#000000" fill-opacity="0.0" d="m189.40698 167.269l68.28348 0l0 -15.527557" fill-rule="evenodd"></path><path stroke="#595959" stroke-width="1.0" stroke-linejoin="round" stroke-linecap="butt" d="m189.40698 167.269l68.28348 0l0 -9.527557" fill-rule="evenodd"></path><path fill="#595959" stroke="#595959" stroke-width="1.0" stroke-linecap="butt" d="m259.3422 157.74144l-1.6517334 -4.538101l-1.6517334 4.538101z" fill-rule="evenodd"></path><path fill="#000000" fill-opacity="0.0" d="m108.22572 77.1811l81.5748 0.28347015" fill-rule="evenodd"></path><path stroke="#595959" stroke-width="1.0" stroke-linejoin="round" stroke-linecap="butt" d="m108.22572 77.1811l75.574844 0.26261902" fill-rule="evenodd"></path><path fill="#595959" stroke="#595959" stroke-width="1.0" stroke-linecap="butt" d="m183.79482 79.09544l4.5438232 -1.6359558l-4.5323334 -1.6674957z" fill-rule="evenodd"></path><path fill="#000000" fill-opacity="0.0" d="m108.22572 166.94855l81.5748 0.28346252" fill-rule="evenodd"></path><path stroke="#595959" stroke-width="1.0" stroke-linejoin="round" stroke-linecap="butt" d="m108.22572 166.94855l75.574844 0.26260376" fill-rule="evenodd"></path><path fill="#595959" stroke="#595959" stroke-width="1.0" stroke-linecap="butt" d="m183.79482 168.86288l4.5438232 -1.6359558l-4.5323334 -1.6674957z" fill-rule="evenodd"></path><path fill="#000000" fill-opacity="0.0" d="m770.0979 77.1811l81.57477 0.28347015" fill-rule="evenodd"></path><path stroke="#595959" stroke-width="1.0" stroke-linejoin="round" stroke-linecap="butt" d="m770.09784 77.1811l75.57483 0.26261902" fill-rule="evenodd"></path><path fill="#595959" stroke="#595959" stroke-width="1.0" stroke-linecap="butt" d="m845.66693 79.09544l4.5438232 -1.6359558l-4.5323486 -1.6674957z" fill-rule="evenodd"></path><path fill="#000000" fill-opacity="0.0" d="m770.0496 166.94751l81.57477 0.28346252" fill-rule="evenodd"></path><path stroke="#595959" stroke-width="1.0" stroke-linejoin="round" stroke-linecap="butt" d="m770.0496 166.94751l75.57483 0.26260376" fill-rule="evenodd"></path><path fill="#595959" stroke="#595959" stroke-width="1.0" stroke-linecap="butt" d="m845.6187 168.86185l4.5438232 -1.6359558l-4.5323486 -1.6674957z" fill-rule="evenodd"></path><path fill="#000000" fill-opacity="0.0" d="m698.01556 93.10041l0 -15.842522l72.031494 0" fill-rule="evenodd"></path><path stroke="#595959" stroke-width="1.0" stroke-linejoin="round" stroke-linecap="butt" d="m698.01556 93.10041l0 -15.842522l66.031494 0" fill-rule="evenodd"></path><path fill="#595959" stroke="#595959" stroke-width="1.0" stroke-linecap="butt" d="m764.04706 78.90962l4.538147 -1.6517334l-4.538147 -1.6517334z" fill-rule="evenodd"></path><path fill="#000000" fill-opacity="0.0" d="m698.01556 151.76244l0 15.338577l72.37799 0" fill-rule="evenodd"></path><path stroke="#595959" stroke-width="1.0" stroke-linejoin="round" stroke-linecap="butt" d="m698.01556 151.76244l0 15.338577l66.37799 0" fill-rule="evenodd"></path><path fill="#595959" stroke="#595959" stroke-width="1.0" stroke-linecap="butt" d="m764.39355 168.75275l4.538086 -1.6517334l-4.538086 -1.6517334z" fill-rule="evenodd"></path><path fill="#000000" fill-opacity="0.0" d="m130.86745 41.547634l29.511826 0l0 31.49606l-29.511826 0z" fill-rule="evenodd"></path><path fill="#000000" d="m147.55495 67.24888q-0.9375 0.796875 -1.796875 1.125q-0.859375 0.3125 -1.84375 0.3125q-1.609375 0 -2.484375 -0.78125q-0.875 -0.796875 -0.875 -2.03125q0 -0.734375 0.328125 -1.328125q0.328125 -0.5937462 0.859375 -0.9531212q0.53125 -0.359375 1.203125 -0.546875q0.5 -0.140625 1.484375 -0.25q2.03125 -0.25 2.984375 -0.578125q0 -0.34375 0 -0.4375q0 -1.015625 -0.46875 -1.4375q-0.640625 -0.5625 -1.90625 -0.5625q-1.171875 0 -1.734375 0.40625q-0.5625 0.40625 -0.828125 1.46875l-1.640625 -0.234375q0.234375 -1.046875 0.734375 -1.6875q0.515625 -0.640625 1.46875 -0.984375q0.96875 -0.359375 2.25 -0.359375q1.265625 0 2.046875 0.296875q0.78125 0.296875 1.15625 0.75q0.375 0.453125 0.515625 1.140625q0.09375 0.421875 0.09375 1.53125l0 2.2343712q0 2.328125 0.09375 2.953125q0.109375 0.609375 0.4375 1.171875l-1.75 0q-0.265625 -0.515625 -0.328125 -1.21875zm-0.140625 -3.7187462q-0.90625 0.359375 -2.734375 0.6249962q-1.03125 0.140625 -1.453125 0.328125q-0.421875 0.1875 -0.65625 0.546875q-0.234375 0.359375 -0.234375 0.796875q0 0.671875 0.5 1.125q0.515625 0.4375 1.484375 0.4375q0.96875 0 1.71875 -0.421875q0.75 -0.4375 1.109375 -1.15625q0.265625 -0.578125 0.265625 -1.671875l0 -0.6093712z" fill-rule="nonzero"></path><path fill="#000000" fill-opacity="0.0" d="m130.86745 129.54764l29.511826 0l0 31.496063l-29.511826 0z" fill-rule="evenodd"></path><path fill="#000000" d="m146.94557 156.46764l-1.671875 0l0 -10.640625q-0.59375 0.578125 -1.578125 1.15625q-0.984375 0.5625 -1.765625 0.859375l0 -1.625q1.40625 -0.65625 2.453125 -1.59375q1.046875 -0.9375 1.484375 -1.8125l1.078125 0l0 13.65625z" fill-rule="nonzero"></path><path fill="#000000" fill-opacity="0.0" d="m341.65814 83.640656l29.51181 0l0 31.496063l-29.51181 0z" fill-rule="evenodd"></path><path fill="#000000" d="m358.34564 109.3419q-0.9375 0.796875 -1.796875 1.125q-0.859375 0.3125 -1.84375 0.3125q-1.609375 0 -2.484375 -0.78125q-0.875 -0.796875 -0.875 -2.03125q0 -0.734375 0.328125 -1.328125q0.328125 -0.59375 0.859375 -0.953125q0.53125 -0.359375 1.203125 -0.546875q0.5 -0.140625 1.484375 -0.25q2.03125 -0.25 2.984375 -0.578125q0 -0.34375 0 -0.4375q0 -1.015625 -0.46875 -1.4375q-0.640625 -0.5625 -1.90625 -0.5625q-1.171875 0 -1.734375 0.40625q-0.5625 0.40625 -0.828125 1.46875l-1.640625 -0.234375q0.234375 -1.046875 0.734375 -1.6875q0.515625 -0.640625 1.46875 -0.984375q0.96875 -0.359375 2.25 -0.359375q1.265625 0 2.046875 0.296875q0.78125 0.296875 1.15625 0.75q0.375 0.453125 0.515625 1.140625q0.09375 0.421875 0.09375 1.53125l0 2.234375q0 2.328125 0.09375 2.953125q0.109375 0.609375 0.4375 1.171875l-1.75 0q-0.265625 -0.515625 -0.328125 -1.21875zm-0.140625 -3.71875q-0.90625 0.359375 -2.734375 0.625q-1.03125 0.140625 -1.453125 0.328125q-0.421875 0.1875 -0.65625 0.546875q-0.234375 0.359375 -0.234375 0.796875q0 0.671875 0.5 1.125q0.515625 0.4375 1.484375 0.4375q0.96875 0 1.71875 -0.421875q0.75 -0.4375 1.109375 -1.15625q0.265625 -0.578125 0.265625 -1.671875l0 -0.609375z" fill-rule="nonzero"></path><path fill="#000000" fill-opacity="0.0" d="m577.4721 82.94298l29.51178 0l0 31.496063l-29.51178 0z" fill-rule="evenodd"></path><path fill="#000000" d="m589.269 109.862976l-1.546875 0l0 -13.59375l1.65625 0l0 4.84375q1.0625 -1.328125 2.703125 -1.328125q0.90625 0 1.71875 0.375q0.8125 0.359375 1.328125 1.03125q0.53125 0.65625 0.828125 1.59375q0.296875 0.9375 0.296875 2.0q0 2.53125 -1.25 3.921875q-1.25 1.375 -3.0 1.375q-1.75 0 -2.734375 -1.453125l0 1.234375zm-0.015625 -5.0q0 1.765625 0.46875 2.5625q0.796875 1.28125 2.140625 1.28125q1.09375 0 1.890625 -0.9375q0.796875 -0.953125 0.796875 -2.84375q0 -1.921875 -0.765625 -2.84375q-0.765625 -0.921875 -1.84375 -0.921875q-1.09375 0 -1.890625 0.953125q-0.796875 0.953125 -0.796875 2.75z" fill-rule="nonzero"></path><path fill="#000000" fill-opacity="0.0" d="m791.38074 41.548306l29.51178 0l0 31.49606l-29.51178 0z" fill-rule="evenodd"></path><path fill="#000000" d="m803.1776 68.4683l-1.546875 0l0 -13.593746l1.65625 0l0 4.84375q1.0625 -1.328125 2.703125 -1.328125q0.90625 0 1.71875 0.375q0.8125 0.359375 1.328125 1.03125q0.53125 0.65625 0.828125 1.59375q0.296875 0.9375 0.296875 2.0q0 2.5312462 -1.25 3.9218712q-1.25 1.375 -3.0 1.375q-1.75 0 -2.734375 -1.453125l0 1.234375zm-0.015625 -4.999996q0 1.7656212 0.46875 2.5624962q0.796875 1.28125 2.140625 1.28125q1.09375 0 1.890625 -0.9375q0.796875 -0.953125 0.796875 -2.8437462q0 -1.921875 -0.765625 -2.84375q-0.765625 -0.921875 -1.84375 -0.921875q-1.09375 0 -1.890625 0.953125q-0.796875 0.953125 -0.796875 2.75z" fill-rule="nonzero"></path><path fill="#000000" fill-opacity="0.0" d="m794.86743 129.54764l29.51184 0l0 31.496063l-29.51184 0z" fill-rule="evenodd"></path><path fill="#000000" d="m810.94556 156.46764l-1.671875 0l0 -10.640625q-0.59375 0.578125 -1.578125 1.15625q-0.984375 0.5625 -1.765625 0.859375l0 -1.625q1.40625 -0.65625 2.453125 -1.59375q1.046875 -0.9375 1.484375 -1.8125l1.078125 0l0 13.65625z" fill-rule="nonzero"></path><path fill="#eeeeee" d="m187.30443 317.61923l580.7874 0l0 185.38583l-580.7874 0z" fill-rule="evenodd"></path><path stroke="#595959" stroke-width="1.0" stroke-linejoin="round" stroke-linecap="butt" d="m187.30443 317.61923l580.7874 0l0 185.38583l-580.7874 0z" fill-rule="evenodd"></path><path fill="#000000" d="m207.39818 480.22443q-0.421875 -0.234375 -0.828125 -0.296875q-0.390625 -0.078125 -0.890625 -0.078125q-1.0625 0 -1.640625 0.546875q-0.5625 0.53125 -0.765625 1.484375l-0.140625 0.703125l3.265625 0l-0.234375 1.078125l-3.265625 0l-1.421875 6.703125l-1.296875 0l1.421875 -6.703125l-2.234375 0l0.21875 -1.0l2.25 -0.078125l0.140625 -0.65625q0.296875 -1.421875 1.234375 -2.28125q0.953125 -0.859375 2.578125 -0.859375q1.140625 0 2.140625 0.4375l-0.53125 1.0zm1.6000214 2.359375l4.9375 0l-1.65625 7.78125l-1.3125 0l1.421875 -6.703125l-3.625 0l0.234375 -1.078125zm4.46875 -1.59375q-0.453125 0 -0.703125 -0.265625q-0.234375 -0.28125 -0.140625 -0.75q0.109375 -0.453125 0.453125 -0.734375q0.359375 -0.28125 0.8125 -0.28125q0.453125 0 0.703125 0.28125q0.25 0.28125 0.140625 0.734375q-0.09375 0.46875 -0.453125 0.75q-0.359375 0.265625 -0.8125 0.265625zm6.0375214 1.59375l1.078125 0l-0.28125 1.84375l0.046875 0q0.8125 -0.9375 1.8125 -1.484375q1.0 -0.546875 2.09375 -0.546875q0.421875 0 0.765625 0.078125q0.359375 0.0625 0.703125 0.25l-0.546875 1.125q-0.375 -0.140625 -0.65625 -0.203125q-0.265625 -0.0625 -0.734375 -0.0625q-0.875 0 -1.78125 0.5q-0.90625 0.5 -1.890625 1.71875l-0.96875 4.5625l-1.296875 0l1.65625 -7.78125zm7.8031464 5.890625q0.546875 0.484375 1.234375 0.78125q0.6875 0.28125 1.75 0.28125q1.046875 0 1.640625 -0.34375q0.59375 -0.359375 0.703125 -0.875q0.09375 -0.453125 -0.390625 -0.796875q-0.46875 -0.359375 -1.828125 -0.703125q-0.578125 -0.15625 -1.078125 -0.359375q-0.484375 -0.203125 -0.828125 -0.484375q-0.328125 -0.28125 -0.5 -0.609375q-0.171875 -0.34375 -0.09375 -0.765625q0.109375 -0.453125 0.40625 -0.859375q0.296875 -0.421875 0.765625 -0.703125q0.46875 -0.296875 1.109375 -0.46875q0.65625 -0.171875 1.453125 -0.171875q0.890625 0 1.65625 0.296875q0.765625 0.296875 1.265625 0.703125l-0.828125 0.84375q-0.4375 -0.375 -1.015625 -0.59375q-0.578125 -0.21875 -1.296875 -0.21875q-0.546875 0 -0.9375 0.09375q-0.375 0.078125 -0.625 0.234375q-0.25 0.140625 -0.40625 0.359375q-0.140625 0.203125 -0.1875 0.421875q-0.09375 0.484375 0.484375 0.796875q0.59375 0.3125 1.609375 0.578125q1.484375 0.40625 2.140625 0.921875q0.65625 0.5 0.46875 1.40625q-0.109375 0.484375 -0.421875 0.90625q-0.3125 0.40625 -0.828125 0.734375q-0.5 0.3125 -1.1875 0.484375q-0.6875 0.1875 -1.53125 0.1875q-1.140625 0 -2.03125 -0.359375q-0.890625 -0.359375 -1.5 -0.859375l0.828125 -0.859375zm12.115646 -4.8125l-2.1875 0l0.21875 -1.0l2.25 -0.078125l0.625 -2.171875l1.09375 0l-0.453125 2.171875l3.828125 0l-0.234375 1.078125l-3.828125 0l-0.78125 3.6875q-0.109375 0.53125 -0.109375 0.921875q0.015625 0.390625 0.1875 0.671875q0.171875 0.265625 0.515625 0.40625q0.359375 0.140625 0.921875 0.140625q0.5625 0 1.03125 -0.09375q0.46875 -0.109375 0.921875 -0.265625l0.078125 0.96875q-0.578125 0.1875 -1.25 0.3125q-0.671875 0.140625 -1.3125 0.140625q-0.84375 0 -1.375 -0.21875q-0.515625 -0.234375 -0.78125 -0.65625q-0.25 -0.4375 -0.28125 -1.015625q-0.015625 -0.59375 0.140625 -1.328125l0.78125 -3.671875z" fill-rule="nonzero"></path><path fill="#cfe2f3" d="m388.46188 339.46872l167.3071 0l0 73.00787l-167.3071 0z" fill-rule="evenodd"></path><path stroke="#595959" stroke-width="1.0" stroke-linejoin="round" stroke-linecap="butt" d="m388.46188 339.46872l167.3071 0l0 73.00787l-167.3071 0z" fill-rule="evenodd"></path><path fill="#000000" d="m468.47165 370.6139l2.34375 0l0 2.75l-0.125 1.53125q0.234375 -0.234375 0.515625 -0.4375q0.28125 -0.21875 0.609375 -0.390625q0.328125 -0.171875 0.71875 -0.265625q0.390625 -0.09375 0.84375 -0.09375q1.34375 0 1.953125 0.859375q0.625 0.859375 0.625 2.375l0 4.890625l-2.359375 0l0 -4.59375q0 -0.796875 -0.25 -1.15625q-0.25 -0.375 -0.90625 -0.375q-0.484375 0 -0.84375 0.203125q-0.359375 0.203125 -0.78125 0.625l0 5.296875l-2.34375 0l0 -11.21875z" fill-rule="nonzero"></path><path fill="#000000" fill-opacity="0.0" d="m102.19334 375.27588l83.716545 0" fill-rule="evenodd"></path><path stroke="#595959" stroke-width="1.0" stroke-linejoin="round" stroke-linecap="butt" d="m102.19334 375.27588l77.716545 0" fill-rule="evenodd"></path><path fill="#595959" stroke="#595959" stroke-width="1.0" stroke-linecap="butt" d="m179.90988 376.9276l4.538101 -1.6517334l-4.538101 -1.6517334z" fill-rule="evenodd"></path><path fill="#000000" fill-opacity="0.0" d="m768.09186 375.97354l84.47241 0" fill-rule="evenodd"></path><path stroke="#595959" stroke-width="1.0" stroke-linejoin="round" stroke-linecap="butt" d="m768.09186 375.97354l78.47247 0" fill-rule="evenodd"></path><path fill="#595959" stroke="#595959" stroke-width="1.0" stroke-linecap="butt" d="m846.56433 377.62527l4.538086 -1.6517334l-4.538086 -1.6517334z" fill-rule="evenodd"></path><path fill="#000000" fill-opacity="0.0" d="m555.769 375.97266l212.5354 0.1574707" fill-rule="evenodd"></path><path stroke="#595959" stroke-width="1.0" stroke-linejoin="round" stroke-linecap="butt" d="m555.7689 375.97266l206.53546 0.15304565" fill-rule="evenodd"></path><path fill="#595959" stroke="#595959" stroke-width="1.0" stroke-linecap="butt" d="m762.30316 377.7774l4.5393066 -1.6483765l-4.536865 -1.6550903z" fill-rule="evenodd"></path><path fill="#000000" fill-opacity="0.0" d="m180.87132 374.7443l207.59056 1.228363" fill-rule="evenodd"></path><path stroke="#595959" stroke-width="1.0" stroke-linejoin="round" stroke-linecap="butt" d="m180.87132 374.7443l201.59065 1.1928406" fill-rule="evenodd"></path><path fill="#595959" stroke="#595959" stroke-width="1.0" stroke-linecap="butt" d="m382.45218 377.58884l4.5477905 -1.6248474l-4.5282288 -1.6785583z" fill-rule="evenodd"></path><path fill="#000000" fill-opacity="0.0" d="m102.891014 456.1593l83.71653 0" fill-rule="evenodd"></path><path stroke="#595959" stroke-width="1.0" stroke-linejoin="round" stroke-linecap="butt" d="m102.891014 456.15927l77.71653 0" fill-rule="evenodd"></path><path fill="#595959" stroke="#595959" stroke-width="1.0" stroke-linecap="butt" d="m180.60754 457.811l4.538101 -1.6517334l-4.538101 -1.6517334z" fill-rule="evenodd"></path><path fill="#000000" fill-opacity="0.0" d="m768.46893 456.1593l83.71655 0" fill-rule="evenodd"></path><path stroke="#595959" stroke-width="1.0" stroke-linejoin="round" stroke-linecap="butt" d="m768.46893 456.15927l77.71649 0" fill-rule="evenodd"></path><path fill="#595959" stroke="#595959" stroke-width="1.0" stroke-linecap="butt" d="m846.1854 457.811l4.538147 -1.6517334l-4.538147 -1.6517334z" fill-rule="evenodd"></path><path fill="#000000" fill-opacity="0.0" d="m187.84511 456.37146l580.4725 0" fill-rule="evenodd"></path><path stroke="#595959" stroke-width="1.0" stroke-linejoin="round" stroke-linecap="butt" d="m187.84511 456.37146l574.4725 0" fill-rule="evenodd"></path><path fill="#595959" stroke="#595959" stroke-width="1.0" stroke-linecap="butt" d="m762.31757 458.0232l4.538147 -1.6517334l-4.538147 -1.6517334z" fill-rule="evenodd"></path><path fill="#000000" fill-opacity="0.0" d="m122.66532 344.47757l29.511818 0l0 31.496063l-29.511818 0z" fill-rule="evenodd"></path><path fill="#000000" d="m139.35283 370.1788q-0.9375 0.796875 -1.796875 1.125q-0.859375 0.3125 -1.84375 0.3125q-1.609375 0 -2.484375 -0.78125q-0.875 -0.796875 -0.875 -2.03125q0 -0.734375 0.328125 -1.328125q0.328125 -0.59375 0.859375 -0.953125q0.53125 -0.359375 1.203125 -0.546875q0.5 -0.140625 1.484375 -0.25q2.03125 -0.25 2.984375 -0.578125q0 -0.34375 0 -0.4375q0 -1.015625 -0.46875 -1.4375q-0.640625 -0.5625 -1.90625 -0.5625q-1.171875 0 -1.734375 0.40625q-0.5625 0.40625 -0.828125 1.46875l-1.640625 -0.234375q0.234375 -1.046875 0.734375 -1.6875q0.515625 -0.640625 1.46875 -0.984375q0.96875 -0.359375 2.25 -0.359375q1.265625 0 2.046875 0.296875q0.78125 0.296875 1.15625 0.75q0.375 0.453125 0.515625 1.140625q0.09375 0.421875 0.09375 1.53125l0 2.234375q0 2.328125 0.09375 2.953125q0.109375 0.609375 0.4375 1.171875l-1.75 0q-0.265625 -0.515625 -0.328125 -1.21875zm-0.140625 -3.71875q-0.90625 0.359375 -2.734375 0.625q-1.03125 0.140625 -1.453125 0.328125q-0.421875 0.1875 -0.65625 0.546875q-0.234375 0.359375 -0.234375 0.796875q0 0.671875 0.5 1.125q0.515625 0.4375 1.484375 0.4375q0.96875 0 1.71875 -0.421875q0.75 -0.4375 1.109375 -1.15625q0.265625 -0.578125 0.265625 -1.671875l0 -0.609375z" fill-rule="nonzero"></path><path fill="#000000" fill-opacity="0.0" d="m792.05115 344.47757l29.51184 0l0 31.496063l-29.51184 0z" fill-rule="evenodd"></path><path fill="#000000" d="m803.848 371.39755l-1.546875 0l0 -13.59375l1.65625 0l0 4.84375q1.0625 -1.328125 2.703125 -1.328125q0.90625 0 1.71875 0.375q0.8125 0.359375 1.328125 1.03125q0.53125 0.65625 0.828125 1.59375q0.296875 0.9375 0.296875 2.0q0 2.53125 -1.25 3.921875q-1.25 1.375 -3.0 1.375q-1.75 0 -2.734375 -1.453125l0 1.234375zm-0.015625 -5.0q0 1.765625 0.46875 2.5625q0.796875 1.28125 2.140625 1.28125q1.09375 0 1.890625 -0.9375q0.796875 -0.953125 0.796875 -2.84375q0 -1.921875 -0.765625 -2.84375q-0.765625 -0.921875 -1.84375 -0.921875q-1.09375 0 -1.890625 0.953125q-0.796875 0.953125 -0.796875 2.75z" fill-rule="nonzero"></path><path fill="#000000" fill-opacity="0.0" d="m122.66532 424.87543l29.511818 0l0 31.496033l-29.511818 0z" fill-rule="evenodd"></path><path fill="#000000" d="m138.74345 451.7954l-1.671875 0l0 -10.640625q-0.59375 0.578125 -1.578125 1.15625q-0.984375 0.5625 -1.765625 0.859375l0 -1.625q1.40625 -0.65625 2.453125 -1.59375q1.046875 -0.9375 1.484375 -1.8125l1.078125 0l0 13.65625z" fill-rule="nonzero"></path><path fill="#000000" fill-opacity="0.0" d="m795.57086 424.87543l29.51178 0l0 31.496033l-29.51178 0z" fill-rule="evenodd"></path><path fill="#000000" d="m811.649 451.7954l-1.671875 0l0 -10.640625q-0.59375 0.578125 -1.578125 1.15625q-0.984375 0.5625 -1.765625 0.859375l0 -1.625q1.40625 -0.65625 2.453125 -1.59375q1.046875 -0.9375 1.484375 -1.8125l1.078125 0l0 13.65625z" fill-rule="nonzero"></path><path fill="#000000" fill-opacity="0.0" d="m269.90942 344.47757l29.51181 0l0 31.496063l-29.51181 0z" fill-rule="evenodd"></path><path fill="#000000" d="m286.59692 370.1788q-0.9375 0.796875 -1.796875 1.125q-0.859375 0.3125 -1.84375 0.3125q-1.609375 0 -2.484375 -0.78125q-0.875 -0.796875 -0.875 -2.03125q0 -0.734375 0.328125 -1.328125q0.328125 -0.59375 0.859375 -0.953125q0.53125 -0.359375 1.203125 -0.546875q0.5 -0.140625 1.484375 -0.25q2.03125 -0.25 2.984375 -0.578125q0 -0.34375 0 -0.4375q0 -1.015625 -0.46875 -1.4375q-0.640625 -0.5625 -1.90625 -0.5625q-1.171875 0 -1.734375 0.40625q-0.5625 0.40625 -0.828125 1.46875l-1.640625 -0.234375q0.234375 -1.046875 0.734375 -1.6875q0.515625 -0.640625 1.46875 -0.984375q0.96875 -0.359375 2.25 -0.359375q1.265625 0 2.046875 0.296875q0.78125 0.296875 1.15625 0.75q0.375 0.453125 0.515625 1.140625q0.09375 0.421875 0.09375 1.53125l0 2.234375q0 2.328125 0.09375 2.953125q0.109375 0.609375 0.4375 1.171875l-1.75 0q-0.265625 -0.515625 -0.328125 -1.21875zm-0.140625 -3.71875q-0.90625 0.359375 -2.734375 0.625q-1.03125 0.140625 -1.453125 0.328125q-0.421875 0.1875 -0.65625 0.546875q-0.234375 0.359375 -0.234375 0.796875q0 0.671875 0.5 1.125q0.515625 0.4375 1.484375 0.4375q0.96875 0 1.71875 -0.421875q0.75 -0.4375 1.109375 -1.15625q0.265625 -0.578125 0.265625 -1.671875l0 -0.609375z" fill-rule="nonzero"></path><path fill="#000000" fill-opacity="0.0" d="m647.1732 344.47757l29.51178 0l0 31.496063l-29.51178 0z" fill-rule="evenodd"></path><path fill="#000000" d="m658.9701 371.39755l-1.546875 0l0 -13.59375l1.65625 0l0 4.84375q1.0625 -1.328125 2.703125 -1.328125q0.90625 0 1.71875 0.375q0.8125 0.359375 1.328125 1.03125q0.53125 0.65625 0.828125 1.59375q0.296875 0.9375 0.296875 2.0q0 2.53125 -1.25 3.921875q-1.25 1.375 -3.0 1.375q-1.75 0 -2.734375 -1.453125l0 1.234375zm-0.015625 -5.0q0 1.765625 0.46875 2.5625q0.796875 1.28125 2.140625 1.28125q1.09375 0 1.890625 -0.9375q0.796875 -0.953125 0.796875 -2.84375q0 -1.921875 -0.765625 -2.84375q-0.765625 -0.921875 -1.84375 -0.921875q-1.09375 0 -1.890625 0.953125q-0.796875 0.953125 -0.796875 2.75z" fill-rule="nonzero"></path><path fill="#000000" fill-opacity="0.0" d="m462.43304 423.21136l29.51181 0l0 31.496063l-29.51181 0z" fill-rule="evenodd"></path><path fill="#000000" d="m478.51117 450.13138l-1.671875 0l0 -10.640625q-0.59375 0.578125 -1.578125 1.15625q-0.984375 0.5625 -1.765625 0.859375l0 -1.625q1.40625 -0.65625 2.453125 -1.59375q1.046875 -0.9375 1.484375 -1.8125l1.078125 0l0 13.65625z" fill-rule="nonzero"></path></g></svg>

