<?xml version="1.0" standalone="yes"?>

<svg version="1.1" viewBox="0.0 0.0 960.0 540.0" fill="none" stroke="none" stroke-linecap="square" stroke-miterlimit="10" xmlns="http://www.w3.org/2000/svg" xmlns:xlink="http://www.w3.org/1999/xlink"><clipPath id="g2563b22d09_0_115.0"><path d="m0 0l960.0 0l0 540.0l-960.0 0l0 -540.0z" clip-rule="nonzero"></path></clipPath><g clip-path="url(#g2563b22d09_0_115.0)"><path fill="#ffffff" d="m0 0l960.0 0l0 540.0l-960.0 0z" fill-rule="evenodd"></path><path fill="#d9ead3" d="m127.908134 15.349081l698.1417 0l0 233.73228l-698.1417 0z" fill-rule="evenodd"></path><path stroke="#595959" stroke-width="1.0" stroke-linejoin="round" stroke-linecap="butt" d="m127.908134 15.349081l698.1417 0l0 233.73228l-698.1417 0z" fill-rule="evenodd"></path><path fill="#000000" d="m138.68939 232.56636q0.1875 -0.9375 0.640625 -1.703125q0.46875 -0.765625 1.078125 -1.28125q0.609375 -0.53125 1.296875 -0.8125q0.703125 -0.296875 1.390625 -0.296875q0.71875 0 1.203125 0.28125q0.484375 0.265625 0.9375 0.734375l0.25 -1.453125l0.640625 -2.984375l1.3125 0l-2.421875 11.390625l-1.078125 0l0.09375 -1.03125l-0.046875 0q-0.578125 0.5 -1.328125 0.859375q-0.734375 0.359375 -1.453125 0.359375q-0.78125 0 -1.328125 -0.265625q-0.546875 -0.28125 -0.890625 -0.796875q-0.34375 -0.515625 -0.4375 -1.265625q-0.078125 -0.75 0.140625 -1.734375zm1.359375 -0.015625q-0.296875 1.40625 0.125 2.203125q0.4375 0.78125 1.53125 0.78125q1.15625 0 2.4375 -1.171875l0.828125 -3.875q-0.421875 -0.5 -0.890625 -0.703125q-0.453125 -0.203125 -0.96875 -0.203125q-0.515625 0 -1.0 0.21875q-0.46875 0.203125 -0.890625 0.609375q-0.40625 0.390625 -0.71875 0.9375q-0.3125 0.53125 -0.453125 1.203125zm9.553146 -3.890625l4.9375 0l-1.65625 7.78125l-1.3125 0l1.421875 -6.703125l-3.625 0l0.234375 -1.078125zm4.46875 -1.59375q-0.453125 0 -0.703125 -0.265625q-0.234375 -0.28125 -0.140625 -0.75q0.109375 -0.453125 0.453125 -0.734375q0.359375 -0.28125 0.8125 -0.28125q0.453125 0 0.703125 0.28125q0.25 0.28125 0.140625 0.734375q-0.09375 0.46875 -0.453125 0.75q-0.359375 0.265625 -0.8125 0.265625zm4.6468964 1.59375l1.03125 0l-0.109375 1.03125l0.046875 0q0.40625 -0.546875 0.859375 -0.875q0.46875 -0.34375 1.140625 -0.34375q1.1875 0 1.1875 1.34375q0.484375 -0.609375 0.96875 -0.96875q0.5 -0.375 1.15625 -0.375q0.8125 0 1.125 0.625q0.3125 0.609375 0.0625 1.78125l-1.1875 5.5625l-1.265625 0l1.15625 -5.453125q0.296875 -1.375 -0.546875 -1.375q-0.40625 0 -0.78125 0.296875q-0.359375 0.296875 -0.796875 0.90625l-1.203125 5.625l-1.046875 0l1.15625 -5.453125q0.296875 -1.375 -0.59375 -1.375q-0.40625 0 -0.765625 0.296875q-0.34375 0.296875 -0.78125 0.90625l-1.203125 5.625l-1.265625 0l1.65625 -7.78125zm8.709396 5.765625q0.140625 -0.65625 0.5625 -1.140625q0.421875 -0.484375 1.171875 -0.84375q0.75 -0.359375 1.859375 -0.578125q1.125 -0.21875 2.65625 -0.34375q0.0625 -0.40625 0.03125 -0.75q-0.03125 -0.359375 -0.21875 -0.625q-0.1875 -0.265625 -0.546875 -0.421875q-0.34375 -0.15625 -0.90625 -0.15625q-0.765625 0 -1.546875 0.296875q-0.765625 0.296875 -1.375 0.625l-0.328125 -0.890625q0.34375 -0.203125 0.765625 -0.390625q0.4375 -0.203125 0.90625 -0.359375q0.484375 -0.171875 1.0 -0.265625q0.515625 -0.109375 1.03125 -0.109375q1.59375 0 2.1875 0.875q0.59375 0.875 0.28125 2.328125l-1.015625 4.765625l-1.0625 0l0.109375 -1.0625l-0.046875 0q-0.765625 0.515625 -1.640625 0.890625q-0.875 0.359375 -1.703125 0.359375q-0.546875 0 -1.0 -0.15625q-0.4375 -0.140625 -0.734375 -0.421875q-0.296875 -0.28125 -0.421875 -0.6875q-0.125 -0.40625 -0.015625 -0.9375zm1.3125 -0.09375q-0.078125 0.328125 0.015625 0.5625q0.09375 0.234375 0.296875 0.390625q0.203125 0.140625 0.5 0.21875q0.296875 0.078125 0.625 0.078125q0.671875 0 1.375 -0.296875q0.71875 -0.296875 1.5 -0.859375l0.4375 -2.046875q-1.25 0.09375 -2.140625 0.28125q-0.875 0.171875 -1.4375 0.421875q-0.546875 0.234375 -0.828125 0.546875q-0.265625 0.3125 -0.34375 0.703125zm9.225021 2.765625l-0.5625 2.625l-1.3125 0l2.359375 -11.0625l1.09375 0l-0.109375 1.0l0.046875 0q0.65625 -0.515625 1.4375 -0.84375q0.78125 -0.34375 1.5 -0.34375q0.78125 0 1.328125 0.28125q0.546875 0.28125 0.84375 0.796875q0.296875 0.515625 0.34375 1.25q0.0625 0.734375 -0.140625 1.640625q-0.203125 0.984375 -0.65625 1.765625q-0.453125 0.78125 -1.0625 1.328125q-0.59375 0.53125 -1.296875 0.8125q-0.703125 0.28125 -1.40625 0.28125q-0.546875 0 -1.125 -0.265625q-0.5625 -0.265625 -1.0 -0.734375l-0.28125 1.46875zm0.53125 -2.484375q0.453125 0.5 0.96875 0.71875q0.515625 0.203125 0.90625 0.203125q1.0625 0 1.90625 -0.8125q0.859375 -0.828125 1.15625 -2.28125q0.140625 -0.640625 0.125 -1.171875q0 -0.53125 -0.1875 -0.90625q-0.1875 -0.375 -0.578125 -0.578125q-0.375 -0.203125 -0.9375 -0.203125q-0.515625 0 -1.15625 0.28125q-0.640625 0.28125 -1.375 0.875l-0.828125 3.875z" fill-rule="nonzero"></path><path fill="#000000" d="m195.80515 234.42574q0 -0.65625 0.3125 -1.140625q0.3125 -0.484375 0.984375 -0.84375q0.6875 -0.359375 1.75 -0.578125q1.078125 -0.21875 2.578125 -0.34375q-0.015625 -0.40625 -0.125 -0.75q-0.109375 -0.359375 -0.359375 -0.625q-0.234375 -0.265625 -0.625 -0.421875q-0.390625 -0.15625 -0.953125 -0.15625q-0.765625 0 -1.46875 0.296875q-0.703125 0.296875 -1.25 0.625l-0.515625 -0.890625q0.296875 -0.203125 0.6875 -0.390625q0.390625 -0.203125 0.828125 -0.359375q0.4375 -0.171875 0.9375 -0.265625q0.5 -0.109375 1.015625 -0.109375q1.59375 0 2.359375 0.875q0.78125 0.875 0.78125 2.328125l0 4.765625l-1.0625 0l-0.109375 -1.0625l-0.046875 0q-0.65625 0.515625 -1.453125 0.890625q-0.796875 0.359375 -1.625 0.359375q-0.546875 0 -1.03125 -0.15625q-0.46875 -0.140625 -0.828125 -0.421875q-0.359375 -0.28125 -0.578125 -0.6875q-0.203125 -0.40625 -0.203125 -0.9375zm1.28125 -0.09375q0 0.328125 0.140625 0.5625q0.140625 0.234375 0.375 0.390625q0.234375 0.140625 0.546875 0.21875q0.3125 0.078125 0.640625 0.078125q0.671875 0 1.3125 -0.296875q0.65625 -0.296875 1.328125 -0.859375l0 -2.046875q-1.234375 0.09375 -2.078125 0.28125q-0.84375 0.171875 -1.359375 0.421875q-0.5 0.234375 -0.703125 0.546875q-0.203125 0.3125 -0.203125 0.703125zm8.818771 0.21875q0.65625 0.484375 1.40625 0.78125q0.75 0.28125 1.8125 0.28125q1.046875 0 1.5625 -0.34375q0.515625 -0.359375 0.515625 -0.875q0 -0.453125 -0.5625 -0.796875q-0.546875 -0.359375 -1.96875 -0.703125q-0.609375 -0.15625 -1.15625 -0.359375q-0.53125 -0.203125 -0.9375 -0.484375q-0.390625 -0.28125 -0.640625 -0.609375q-0.234375 -0.34375 -0.234375 -0.765625q0 -0.453125 0.203125 -0.859375q0.21875 -0.421875 0.625 -0.703125q0.40625 -0.296875 1.015625 -0.46875q0.625 -0.171875 1.421875 -0.171875q0.890625 0 1.71875 0.296875q0.828125 0.296875 1.40625 0.703125l-0.640625 0.84375q-0.515625 -0.375 -1.140625 -0.59375q-0.625 -0.21875 -1.34375 -0.21875q-0.546875 0 -0.921875 0.09375q-0.359375 0.078125 -0.578125 0.234375q-0.21875 0.140625 -0.328125 0.359375q-0.09375 0.203125 -0.09375 0.421875q0 0.484375 0.65625 0.796875q0.65625 0.3125 1.71875 0.578125q1.578125 0.40625 2.34375 0.921875q0.765625 0.5 0.765625 1.40625q0 0.484375 -0.234375 0.90625q-0.21875 0.40625 -0.65625 0.734375q-0.4375 0.3125 -1.09375 0.484375q-0.640625 0.1875 -1.484375 0.1875q-1.140625 0 -2.109375 -0.359375q-0.96875 -0.359375 -1.6875 -0.859375l0.640625 -0.859375zm9.600021 0q0.65625 0.484375 1.40625 0.78125q0.75 0.28125 1.8125 0.28125q1.046875 0 1.5625 -0.34375q0.515625 -0.359375 0.515625 -0.875q0 -0.453125 -0.5625 -0.796875q-0.546875 -0.359375 -1.96875 -0.703125q-0.609375 -0.15625 -1.15625 -0.359375q-0.53125 -0.203125 -0.9375 -0.484375q-0.390625 -0.28125 -0.640625 -0.609375q-0.234375 -0.34375 -0.234375 -0.765625q0 -0.453125 0.203125 -0.859375q0.21875 -0.421875 0.625 -0.703125q0.40625 -0.296875 1.015625 -0.46875q0.625 -0.171875 1.421875 -0.171875q0.890625 0 1.71875 0.296875q0.828125 0.296875 1.40625 0.703125l-0.640625 0.84375q-0.515625 -0.375 -1.140625 -0.59375q-0.625 -0.21875 -1.34375 -0.21875q-0.546875 0 -0.921875 0.09375q-0.359375 0.078125 -0.578125 0.234375q-0.21875 0.140625 -0.328125 0.359375q-0.09375 0.203125 -0.09375 0.421875q0 0.484375 0.65625 0.796875q0.65625 0.3125 1.71875 0.578125q1.578125 0.40625 2.34375 0.921875q0.765625 0.5 0.765625 1.40625q0 0.484375 -0.234375 0.90625q-0.21875 0.40625 -0.65625 0.734375q-0.4375 0.3125 -1.09375 0.484375q-0.640625 0.1875 -1.484375 0.1875q-1.140625 0 -2.109375 -0.359375q-0.96875 -0.359375 -1.6875 -0.859375l0.640625 -0.859375zm8.756271 -1.984375q0 -0.96875 0.3125 -1.734375q0.3125 -0.765625 0.84375 -1.28125q0.53125 -0.53125 1.21875 -0.796875q0.703125 -0.28125 1.46875 -0.28125q0.765625 0 1.453125 0.28125q0.703125 0.265625 1.234375 0.796875q0.53125 0.515625 0.84375 1.28125q0.3125 0.765625 0.3125 1.734375q0 0.96875 -0.3125 1.734375q-0.3125 0.75 -0.84375 1.265625q-0.53125 0.515625 -1.234375 0.796875q-0.6875 0.265625 -1.453125 0.265625q-0.765625 0 -1.46875 -0.265625q-0.6875 -0.28125 -1.21875 -0.796875q-0.53125 -0.515625 -0.84375 -1.265625q-0.3125 -0.765625 -0.3125 -1.734375zm1.359375 0q0 0.671875 0.171875 1.21875q0.1875 0.546875 0.515625 0.9375q0.328125 0.390625 0.78125 0.609375q0.453125 0.21875 1.015625 0.21875q0.5625 0 1.015625 -0.21875q0.453125 -0.21875 0.78125 -0.609375q0.328125 -0.390625 0.5 -0.9375q0.1875 -0.546875 0.1875 -1.21875q0 -0.671875 -0.1875 -1.21875q-0.171875 -0.546875 -0.5 -0.953125q-0.328125 -0.40625 -0.78125 -0.609375q-0.453125 -0.21875 -1.015625 -0.21875q-0.5625 0 -1.015625 0.21875q-0.453125 0.203125 -0.78125 0.609375q-0.328125 0.40625 -0.515625 0.953125q-0.171875 0.546875 -0.171875 1.21875zm8.568771 0q0 -0.96875 0.34375 -1.734375q0.34375 -0.765625 0.9375 -1.28125q0.59375 -0.53125 1.375 -0.796875q0.796875 -0.28125 1.671875 -0.28125q0.96875 0 1.65625 0.34375q0.703125 0.328125 1.1875 0.796875l-0.65625 0.84375q-0.484375 -0.421875 -1.015625 -0.65625q-0.515625 -0.234375 -1.125 -0.234375q-0.671875 0 -1.234375 0.21875q-0.546875 0.203125 -0.9375 0.609375q-0.390625 0.40625 -0.625 0.953125q-0.21875 0.546875 -0.21875 1.21875q0 0.671875 0.21875 1.21875q0.21875 0.546875 0.609375 0.9375q0.390625 0.390625 0.9375 0.609375q0.546875 0.21875 1.21875 0.21875q0.734375 0 1.328125 -0.28125q0.59375 -0.28125 1.09375 -0.703125l0.578125 0.84375q-0.640625 0.578125 -1.4375 0.90625q-0.78125 0.3125 -1.65625 0.3125q-0.90625 0 -1.6875 -0.265625q-0.765625 -0.28125 -1.34375 -0.796875q-0.578125 -0.515625 -0.90625 -1.265625q-0.3125 -0.765625 -0.3125 -1.734375zm19.215668 1.859375q0 -0.65625 0.3125 -1.140625q0.3125 -0.484375 0.984375 -0.84375q0.6875 -0.359375 1.75 -0.578125q1.078125 -0.21875 2.578125 -0.34375q-0.015625 -0.40625 -0.125 -0.75q-0.109375 -0.359375 -0.359375 -0.625q-0.234375 -0.265625 -0.625 -0.421875q-0.390625 -0.15625 -0.953125 -0.15625q-0.765625 0 -1.46875 0.296875q-0.703125 0.296875 -1.25 0.625l-0.515625 -0.890625q0.296875 -0.203125 0.6875 -0.390625q0.390625 -0.203125 0.828125 -0.359375q0.4375 -0.171875 0.9375 -0.265625q0.5 -0.109375 1.015625 -0.109375q1.59375 0 2.359375 0.875q0.78125 0.875 0.78125 2.328125l0 4.765625l-1.0625 0l-0.109375 -1.0625l-0.046875 0q-0.65625 0.515625 -1.453125 0.890625q-0.796875 0.359375 -1.625 0.359375q-0.546875 0 -1.03125 -0.15625q-0.46875 -0.140625 -0.828125 -0.421875q-0.359375 -0.28125 -0.578125 -0.6875q-0.203125 -0.40625 -0.203125 -0.9375zm1.28125 -0.09375q0 0.328125 0.140625 0.5625q0.140625 0.234375 0.375 0.390625q0.234375 0.140625 0.546875 0.21875q0.3125 0.078125 0.640625 0.078125q0.671875 0 1.3125 -0.296875q0.65625 -0.296875 1.328125 -0.859375l0 -2.046875q-1.234375 0.09375 -2.078125 0.28125q-0.84375 0.171875 -1.359375 0.421875q-0.5 0.234375 -0.703125 0.546875q-0.203125 0.3125 -0.203125 0.703125zm8.818756 0.21875q0.65625 0.484375 1.40625 0.78125q0.75 0.28125 1.8125 0.28125q1.046875 0 1.5625 -0.34375q0.515625 -0.359375 0.515625 -0.875q0 -0.453125 -0.5625 -0.796875q-0.546875 -0.359375 -1.96875 -0.703125q-0.609375 -0.15625 -1.15625 -0.359375q-0.53125 -0.203125 -0.9375 -0.484375q-0.390625 -0.28125 -0.640625 -0.609375q-0.234375 -0.34375 -0.234375 -0.765625q0 -0.453125 0.203125 -0.859375q0.21875 -0.421875 0.625 -0.703125q0.40625 -0.296875 1.015625 -0.46875q0.625 -0.171875 1.421875 -0.171875q0.890625 0 1.71875 0.296875q0.828125 0.296875 1.40625 0.703125l-0.640625 0.84375q-0.515625 -0.375 -1.140625 -0.59375q-0.625 -0.21875 -1.34375 -0.21875q-0.546875 0 -0.921875 0.09375q-0.359375 0.078125 -0.578125 0.234375q-0.21875 0.140625 -0.328125 0.359375q-0.09375 0.203125 -0.09375 0.421875q0 0.484375 0.65625 0.796875q0.65625 0.3125 1.71875 0.578125q1.578125 0.40625 2.34375 0.921875q0.765625 0.5 0.765625 1.40625q0 0.484375 -0.234375 0.90625q-0.21875 0.40625 -0.65625 0.734375q-0.4375 0.3125 -1.09375 0.484375q-0.640625 0.1875 -1.484375 0.1875q-1.140625 0 -2.109375 -0.359375q-0.96875 -0.359375 -1.6875 -0.859375l0.640625 -0.859375zm9.600037 0q0.65625 0.484375 1.40625 0.78125q0.75 0.28125 1.8125 0.28125q1.046875 0 1.5625 -0.34375q0.515625 -0.359375 0.515625 -0.875q0 -0.453125 -0.5625 -0.796875q-0.546875 -0.359375 -1.96875 -0.703125q-0.609375 -0.15625 -1.15625 -0.359375q-0.53125 -0.203125 -0.9375 -0.484375q-0.390625 -0.28125 -0.640625 -0.609375q-0.234375 -0.34375 -0.234375 -0.765625q0 -0.453125 0.203125 -0.859375q0.21875 -0.421875 0.625 -0.703125q0.40625 -0.296875 1.015625 -0.46875q0.625 -0.171875 1.421875 -0.171875q0.890625 0 1.71875 0.296875q0.828125 0.296875 1.40625 0.703125l-0.640625 0.84375q-0.515625 -0.375 -1.140625 -0.59375q-0.625 -0.21875 -1.34375 -0.21875q-0.546875 0 -0.921875 0.09375q-0.359375 0.078125 -0.578125 0.234375q-0.21875 0.140625 -0.328125 0.359375q-0.09375 0.203125 -0.09375 0.421875q0 0.484375 0.65625 0.796875q0.65625 0.3125 1.71875 0.578125q1.578125 0.40625 2.34375 0.921875q0.765625 0.5 0.765625 1.40625q0 0.484375 -0.234375 0.90625q-0.21875 0.40625 -0.65625 0.734375q-0.4375 0.3125 -1.09375 0.484375q-0.640625 0.1875 -1.484375 0.1875q-1.140625 0 -2.109375 -0.359375q-0.96875 -0.359375 -1.6875 -0.859375l0.640625 -0.859375zm8.756256 -1.984375q0 -0.96875 0.3125 -1.734375q0.3125 -0.765625 0.84375 -1.28125q0.53125 -0.53125 1.21875 -0.796875q0.703125 -0.28125 1.46875 -0.28125q0.765625 0 1.453125 0.28125q0.703125 0.265625 1.234375 0.796875q0.53125 0.515625 0.84375 1.28125q0.3125 0.765625 0.3125 1.734375q0 0.96875 -0.3125 1.734375q-0.3125 0.75 -0.84375 1.265625q-0.53125 0.515625 -1.234375 0.796875q-0.6875 0.265625 -1.453125 0.265625q-0.765625 0 -1.46875 -0.265625q-0.6875 -0.28125 -1.21875 -0.796875q-0.53125 -0.515625 -0.84375 -1.265625q-0.3125 -0.765625 -0.3125 -1.734375zm1.359375 0q0 0.671875 0.171875 1.21875q0.1875 0.546875 0.515625 0.9375q0.328125 0.390625 0.78125 0.609375q0.453125 0.21875 1.015625 0.21875q0.5625 0 1.015625 -0.21875q0.453125 -0.21875 0.78125 -0.609375q0.328125 -0.390625 0.5 -0.9375q0.1875 -0.546875 0.1875 -1.21875q0 -0.671875 -0.1875 -1.21875q-0.171875 -0.546875 -0.5 -0.953125q-0.328125 -0.40625 -0.78125 -0.609375q-0.453125 -0.21875 -1.015625 -0.21875q-0.5625 0 -1.015625 0.21875q-0.453125 0.203125 -0.78125 0.609375q-0.328125 0.40625 -0.515625 0.953125q-0.171875 0.546875 -0.171875 1.21875zm8.568787 0q0 -0.96875 0.34375 -1.734375q0.34375 -0.765625 0.9375 -1.28125q0.59375 -0.53125 1.375 -0.796875q0.796875 -0.28125 1.671875 -0.28125q0.96875 0 1.65625 0.34375q0.703125 0.328125 1.1875 0.796875l-0.65625 0.84375q-0.484375 -0.421875 -1.015625 -0.65625q-0.515625 -0.234375 -1.125 -0.234375q-0.671875 0 -1.234375 0.21875q-0.546875 0.203125 -0.9375 0.609375q-0.390625 0.40625 -0.625 0.953125q-0.21875 0.546875 -0.21875 1.21875q0 0.671875 0.21875 1.21875q0.21875 0.546875 0.609375 0.9375q0.390625 0.390625 0.9375 0.609375q0.546875 0.21875 1.21875 0.21875q0.734375 0 1.328125 -0.28125q0.59375 -0.28125 1.09375 -0.703125l0.578125 0.84375q-0.640625 0.578125 -1.4375 0.90625q-0.78125 0.3125 -1.65625 0.3125q-0.90625 0 -1.6875 -0.265625q-0.765625 -0.28125 -1.34375 -0.796875q-0.578125 -0.515625 -0.90625 -1.265625q-0.3125 -0.765625 -0.3125 -1.734375zm11.787506 -2.5q0.765625 -0.40625 1.1875 -1.03125q0.4375 -0.640625 0.484375 -1.484375q-0.203125 0.09375 -0.421875 0.09375q-0.515625 0 -0.828125 -0.3125q-0.3125 -0.3125 -0.3125 -0.828125q0 -0.5625 0.328125 -0.90625q0.34375 -0.34375 0.859375 -0.34375q0.640625 0 1.03125 0.515625q0.40625 0.515625 0.40625 1.421875q0 1.203125 -0.609375 2.15625q-0.609375 0.9375 -1.671875 1.5l-0.453125 -0.78125z" fill-rule="nonzero"></path><path fill="#d9d2e9" d="m352.67715 26.16273l254.64566 0l0 213.13385l-254.64566 0z" fill-rule="evenodd"></path><path stroke="#595959" stroke-width="1.0" stroke-linejoin="round" stroke-linecap="butt" d="m352.67715 26.16273l254.64566 0l0 213.13385l-254.64566 0z" fill-rule="evenodd"></path><path fill="#000000" d="m372.7709 216.51598q-0.421875 -0.234375 -0.828125 -0.296875q-0.390625 -0.078125 -0.890625 -0.078125q-1.0625 0 -1.640625 0.546875q-0.5625 0.53125 -0.765625 1.484375l-0.140625 0.703125l3.265625 0l-0.234375 1.078125l-3.265625 0l-1.421875 6.703125l-1.296875 0l1.421875 -6.703125l-2.234375 0l0.21875 -1.0l2.25 -0.078125l0.140625 -0.65625q0.296875 -1.421875 1.234375 -2.28125q0.953125 -0.859375 2.578125 -0.859375q1.140625 0 2.140625 0.4375l-0.53125 1.0zm1.6000366 2.359375l4.9375 0l-1.65625 7.78125l-1.3125 0l1.421875 -6.703125l-3.625 0l0.234375 -1.078125zm4.46875 -1.59375q-0.453125 0 -0.703125 -0.265625q-0.234375 -0.28125 -0.140625 -0.75q0.109375 -0.453125 0.453125 -0.734375q0.359375 -0.28125 0.8125 -0.28125q0.453125 0 0.703125 0.28125q0.25 0.28125 0.140625 0.734375q-0.09375 0.46875 -0.453125 0.75q-0.359375 0.265625 -0.8125 0.265625zm6.037506 1.59375l1.078125 0l-0.28125 1.84375l0.046875 0q0.8125 -0.9375 1.8125 -1.484375q1.0 -0.546875 2.09375 -0.546875q0.421875 0 0.765625 0.078125q0.359375 0.0625 0.703125 0.25l-0.546875 1.125q-0.375 -0.140625 -0.65625 -0.203125q-0.265625 -0.0625 -0.734375 -0.0625q-0.875 0 -1.78125 0.5q-0.90625 0.5 -1.890625 1.71875l-0.96875 4.5625l-1.296875 0l1.65625 -7.78125zm7.8031616 5.890625q0.546875 0.484375 1.234375 0.78125q0.6875 0.28125 1.75 0.28125q1.046875 0 1.640625 -0.34375q0.59375 -0.359375 0.703125 -0.875q0.09375 -0.453125 -0.390625 -0.796875q-0.46875 -0.359375 -1.828125 -0.703125q-0.578125 -0.15625 -1.078125 -0.359375q-0.484375 -0.203125 -0.828125 -0.484375q-0.328125 -0.28125 -0.5 -0.609375q-0.171875 -0.34375 -0.09375 -0.765625q0.109375 -0.453125 0.40625 -0.859375q0.296875 -0.421875 0.765625 -0.703125q0.46875 -0.296875 1.109375 -0.46875q0.65625 -0.171875 1.453125 -0.171875q0.890625 0 1.65625 0.296875q0.765625 0.296875 1.265625 0.703125l-0.828125 0.84375q-0.4375 -0.375 -1.015625 -0.59375q-0.578125 -0.21875 -1.296875 -0.21875q-0.546875 0 -0.9375 0.09375q-0.375 0.078125 -0.625 0.234375q-0.25 0.140625 -0.40625 0.359375q-0.140625 0.203125 -0.1875 0.421875q-0.09375 0.484375 0.484375 0.796875q0.59375 0.3125 1.609375 0.578125q1.484375 0.40625 2.140625 0.921875q0.65625 0.5 0.46875 1.40625q-0.109375 0.484375 -0.421875 0.90625q-0.3125 0.40625 -0.828125 0.734375q-0.5 0.3125 -1.1875 0.484375q-0.6875 0.1875 -1.53125 0.1875q-1.140625 0 -2.03125 -0.359375q-0.890625 -0.359375 -1.5 -0.859375l0.828125 -0.859375zm12.115631 -4.8125l-2.1875 0l0.21875 -1.0l2.25 -0.078125l0.625 -2.171875l1.09375 0l-0.453125 2.171875l3.828125 0l-0.234375 1.078125l-3.828125 0l-0.78125 3.6875q-0.109375 0.53125 -0.109375 0.921875q0.015625 0.390625 0.1875 0.671875q0.171875 0.265625 0.515625 0.40625q0.359375 0.140625 0.921875 0.140625q0.5625 0 1.03125 -0.09375q0.46875 -0.109375 0.921875 -0.265625l0.078125 0.96875q-0.578125 0.1875 -1.25 0.3125q-0.671875 0.140625 -1.3125 0.140625q-0.84375 0 -1.375 -0.21875q-0.515625 -0.234375 -0.78125 -0.65625q-0.25 -0.4375 -0.28125 -1.015625q-0.015625 -0.59375 0.140625 -1.328125l0.78125 -3.671875z" fill-rule="nonzero"></path><path fill="#eeeeee" d="m379.15222 37.687664l198.70868 0l0 152.22047l-198.70868 0z" fill-rule="evenodd"></path><path stroke="#595959" stroke-width="1.0" stroke-linejoin="round" stroke-linecap="butt" d="m379.15222 37.687664l198.70868 0l0 152.22047l-198.70868 0z" fill-rule="evenodd"></path><path fill="#000000" d="m399.24597 167.12752q-0.421875 -0.234375 -0.828125 -0.296875q-0.390625 -0.078125 -0.890625 -0.078125q-1.0625 0 -1.640625 0.546875q-0.5625 0.53125 -0.765625 1.484375l-0.140625 0.703125l3.265625 0l-0.234375 1.078125l-3.265625 0l-1.421875 6.703125l-1.296875 0l1.421875 -6.703125l-2.234375 0l0.21875 -1.0l2.25 -0.078125l0.140625 -0.65625q0.296875 -1.421875 1.234375 -2.28125q0.953125 -0.859375 2.578125 -0.859375q1.140625 0 2.140625 0.4375l-0.53125 1.0zm1.6000366 2.359375l4.9375 0l-1.65625 7.78125l-1.3125 0l1.421875 -6.703125l-3.625 0l0.234375 -1.078125zm4.46875 -1.59375q-0.453125 0 -0.703125 -0.265625q-0.234375 -0.28125 -0.140625 -0.75q0.109375 -0.453125 0.453125 -0.734375q0.359375 -0.28125 0.8125 -0.28125q0.453125 0 0.703125 0.28125q0.25 0.28125 0.140625 0.734375q-0.09375 0.46875 -0.453125 0.75q-0.359375 0.265625 -0.8125 0.265625zm6.037506 1.59375l1.078125 0l-0.28125 1.84375l0.046875 0q0.8125 -0.9375 1.8125 -1.484375q1.0 -0.546875 2.09375 -0.546875q0.421875 0 0.765625 0.078125q0.359375 0.0625 0.703125 0.25l-0.546875 1.125q-0.375 -0.140625 -0.65625 -0.203125q-0.265625 -0.0625 -0.734375 -0.0625q-0.875 0 -1.78125 0.5q-0.90625 0.5 -1.890625 1.71875l-0.96875 4.5625l-1.296875 0l1.65625 -7.78125zm7.8031616 5.890625q0.546875 0.484375 1.234375 0.78125q0.6875 0.28125 1.75 0.28125q1.046875 0 1.640625 -0.34375q0.59375 -0.359375 0.703125 -0.875q0.09375 -0.453125 -0.390625 -0.796875q-0.46875 -0.359375 -1.828125 -0.703125q-0.578125 -0.15625 -1.078125 -0.359375q-0.484375 -0.203125 -0.828125 -0.484375q-0.328125 -0.28125 -0.5 -0.609375q-0.171875 -0.34375 -0.09375 -0.765625q0.109375 -0.453125 0.40625 -0.859375q0.296875 -0.421875 0.765625 -0.703125q0.46875 -0.296875 1.109375 -0.46875q0.65625 -0.171875 1.453125 -0.171875q0.890625 0 1.65625 0.296875q0.765625 0.296875 1.265625 0.703125l-0.828125 0.84375q-0.4375 -0.375 -1.015625 -0.59375q-0.578125 -0.21875 -1.296875 -0.21875q-0.546875 0 -0.9375 0.09375q-0.375 0.078125 -0.625 0.234375q-0.25 0.140625 -0.40625 0.359375q-0.140625 0.203125 -0.1875 0.421875q-0.09375 0.484375 0.484375 0.796875q0.59375 0.3125 1.609375 0.578125q1.484375 0.40625 2.140625 0.921875q0.65625 0.5 0.46875 1.40625q-0.109375 0.484375 -0.421875 0.90625q-0.3125 0.40625 -0.828125 0.734375q-0.5 0.3125 -1.1875 0.484375q-0.6875 0.1875 -1.53125 0.1875q-1.140625 0 -2.03125 -0.359375q-0.890625 -0.359375 -1.5 -0.859375l0.828125 -0.859375zm12.115631 -4.8125l-2.1875 0l0.21875 -1.0l2.25 -0.078125l0.625 -2.171875l1.09375 0l-0.453125 2.171875l3.828125 0l-0.234375 1.078125l-3.828125 0l-0.78125 3.6875q-0.109375 0.53125 -0.109375 0.921875q0.015625 0.390625 0.1875 0.671875q0.171875 0.265625 0.515625 0.40625q0.359375 0.140625 0.921875 0.140625q0.5625 0 1.03125 -0.09375q0.46875 -0.109375 0.921875 -0.265625l0.078125 0.96875q-0.578125 0.1875 -1.25 0.3125q-0.671875 0.140625 -1.3125 0.140625q-0.84375 0 -1.375 -0.21875q-0.515625 -0.234375 -0.78125 -0.65625q-0.25 -0.4375 -0.28125 -1.015625q-0.015625 -0.59375 0.140625 -1.328125l0.78125 -3.671875z" fill-rule="nonzero"></path><path fill="#ffffff" d="m446.6696 265.55713l66.66177 0l0 15.919525l-66.66177 0zm0 23.879272l66.66177 0l0 15.919525l-66.66177 0z" fill-rule="evenodd"></path><path stroke="#595959" stroke-width="1.0" stroke-linejoin="round" stroke-linecap="butt" d="m446.6696 265.55713l66.66177 0l0 15.919525l-66.66177 0zm0 23.879272l66.66177 0l0 15.919525l-66.66177 0z" fill-rule="evenodd"></path><path fill="#eeeeee" d="m187.30443 325.29364l580.7874 0l0 185.38583l-580.7874 0z" fill-rule="evenodd"></path><path stroke="#595959" stroke-width="1.0" stroke-linejoin="round" stroke-linecap="butt" d="m187.30443 325.29364l580.7874 0l0 185.38583l-580.7874 0z" fill-rule="evenodd"></path><path fill="#000000" d="m207.39818 487.89886q-0.421875 -0.234375 -0.828125 -0.296875q-0.390625 -0.078125 -0.890625 -0.078125q-1.0625 0 -1.640625 0.546875q-0.5625 0.53125 -0.765625 1.484375l-0.140625 0.703125l3.265625 0l-0.234375 1.078125l-3.265625 0l-1.421875 6.703125l-1.296875 0l1.421875 -6.703125l-2.234375 0l0.21875 -1.0l2.25 -0.078125l0.140625 -0.65625q0.296875 -1.421875 1.234375 -2.28125q0.953125 -0.859375 2.578125 -0.859375q1.140625 0 2.140625 0.4375l-0.53125 1.0zm1.6000214 2.359375l4.9375 0l-1.65625 7.78125l-1.3125 0l1.421875 -6.703125l-3.625 0l0.234375 -1.078125zm4.46875 -1.59375q-0.453125 0 -0.703125 -0.265625q-0.234375 -0.28125 -0.140625 -0.75q0.109375 -0.453125 0.453125 -0.734375q0.359375 -0.28125 0.8125 -0.28125q0.453125 0 0.703125 0.28125q0.25 0.28125 0.140625 0.734375q-0.09375 0.46875 -0.453125 0.75q-0.359375 0.265625 -0.8125 0.265625zm6.0375214 1.59375l1.078125 0l-0.28125 1.84375l0.046875 0q0.8125 -0.9375 1.8125 -1.484375q1.0 -0.546875 2.09375 -0.546875q0.421875 0 0.765625 0.078125q0.359375 0.0625 0.703125 0.25l-0.546875 1.125q-0.375 -0.140625 -0.65625 -0.203125q-0.265625 -0.0625 -0.734375 -0.0625q-0.875 0 -1.78125 0.5q-0.90625 0.5 -1.890625 1.71875l-0.96875 4.5625l-1.296875 0l1.65625 -7.78125zm7.8031464 5.890625q0.546875 0.484375 1.234375 0.78125q0.6875 0.28125 1.75 0.28125q1.046875 0 1.640625 -0.34375q0.59375 -0.359375 0.703125 -0.875q0.09375 -0.453125 -0.390625 -0.796875q-0.46875 -0.359375 -1.828125 -0.703125q-0.578125 -0.15625 -1.078125 -0.359375q-0.484375 -0.203125 -0.828125 -0.484375q-0.328125 -0.28125 -0.5 -0.609375q-0.171875 -0.34375 -0.09375 -0.765625q0.109375 -0.453125 0.40625 -0.859375q0.296875 -0.421875 0.765625 -0.703125q0.46875 -0.296875 1.109375 -0.46875q0.65625 -0.171875 1.453125 -0.171875q0.890625 0 1.65625 0.296875q0.765625 0.296875 1.265625 0.703125l-0.828125 0.84375q-0.4375 -0.375 -1.015625 -0.59375q-0.578125 -0.21875 -1.296875 -0.21875q-0.546875 0 -0.9375 0.09375q-0.375 0.078125 -0.625 0.234375q-0.25 0.140625 -0.40625 0.359375q-0.140625 0.203125 -0.1875 0.421875q-0.09375 0.484375 0.484375 0.796875q0.59375 0.3125 1.609375 0.578125q1.484375 0.40625 2.140625 0.921875q0.65625 0.5 0.46875 1.40625q-0.109375 0.484375 -0.421875 0.90625q-0.3125 0.40625 -0.828125 0.734375q-0.5 0.3125 -1.1875 0.484375q-0.6875 0.1875 -1.53125 0.1875q-1.140625 0 -2.03125 -0.359375q-0.890625 -0.359375 -1.5 -0.859375l0.828125 -0.859375zm12.115646 -4.8125l-2.1875 0l0.21875 -1.0l2.25 -0.078125l0.625 -2.171875l1.09375 0l-0.453125 2.171875l3.828125 0l-0.234375 1.078125l-3.828125 0l-0.78125 3.6875q-0.109375 0.53125 -0.109375 0.921875q0.015625 0.390625 0.1875 0.671875q0.171875 0.265625 0.515625 0.40625q0.359375 0.140625 0.921875 0.140625q0.5625 0 1.03125 -0.09375q0.46875 -0.109375 0.921875 -0.265625l0.078125 0.96875q-0.578125 0.1875 -1.25 0.3125q-0.671875 0.140625 -1.3125 0.140625q-0.84375 0 -1.375 -0.21875q-0.515625 -0.234375 -0.78125 -0.65625q-0.25 -0.4375 -0.28125 -1.015625q-0.015625 -0.59375 0.140625 -1.328125l0.78125 -3.671875z" fill-rule="nonzero"></path><path fill="#cfe2f3" d="m388.46188 347.14313l167.3071 0l0 73.00787l-167.3071 0z" fill-rule="evenodd"></path><path stroke="#595959" stroke-width="1.0" stroke-linejoin="round" stroke-linecap="butt" d="m388.46188 347.14313l167.3071 0l0 73.00787l-167.3071 0z" fill-rule="evenodd"></path><path fill="#000000" d="m468.47165 378.28833l2.34375 0l0 2.75l-0.125 1.53125q0.234375 -0.234375 0.515625 -0.4375q0.28125 -0.21875 0.609375 -0.390625q0.328125 -0.171875 0.71875 -0.265625q0.390625 -0.09375 0.84375 -0.09375q1.34375 0 1.953125 0.859375q0.625 0.859375 0.625 2.375l0 4.890625l-2.359375 0l0 -4.59375q0 -0.796875 -0.25 -1.15625q-0.25 -0.375 -0.90625 -0.375q-0.484375 0 -0.84375 0.203125q-0.359375 0.203125 -0.78125 0.625l0 5.296875l-2.34375 0l0 -11.21875z" fill-rule="nonzero"></path><path fill="#000000" fill-opacity="0.0" d="m102.19334 382.9503l83.716545 0" fill-rule="evenodd"></path><path stroke="#595959" stroke-width="1.0" stroke-linejoin="round" stroke-linecap="butt" d="m102.19334 382.9503l77.716545 0" fill-rule="evenodd"></path><path fill="#595959" stroke="#595959" stroke-width="1.0" stroke-linecap="butt" d="m179.90988 384.60202l4.538101 -1.6517334l-4.538101 -1.6517334z" fill-rule="evenodd"></path><path fill="#000000" fill-opacity="0.0" d="m768.09186 383.64798l84.47241 0" fill-rule="evenodd"></path><path stroke="#595959" stroke-width="1.0" stroke-linejoin="round" stroke-linecap="butt" d="m768.09186 383.64798l78.47247 0" fill-rule="evenodd"></path><path fill="#595959" stroke="#595959" stroke-width="1.0" stroke-linecap="butt" d="m846.56433 385.2997l4.538086 -1.6517334l-4.538086 -1.6517334z" fill-rule="evenodd"></path><path fill="#000000" fill-opacity="0.0" d="m555.769 383.64706l212.5354 0.1574707" fill-rule="evenodd"></path><path stroke="#595959" stroke-width="1.0" stroke-linejoin="round" stroke-linecap="butt" d="m555.7689 383.64706l206.53546 0.15304565" fill-rule="evenodd"></path><path fill="#595959" stroke="#595959" stroke-width="1.0" stroke-linecap="butt" d="m762.30316 385.45184l4.5393066 -1.6483765l-4.536865 -1.6550903z" fill-rule="evenodd"></path><path fill="#000000" fill-opacity="0.0" d="m180.87132 382.41873l207.59056 1.2283325" fill-rule="evenodd"></path><path stroke="#595959" stroke-width="1.0" stroke-linejoin="round" stroke-linecap="butt" d="m180.87132 382.41873l201.59065 1.19281" fill-rule="evenodd"></path><path fill="#595959" stroke="#595959" stroke-width="1.0" stroke-linecap="butt" d="m382.45218 385.26328l4.5477905 -1.6248474l-4.5282288 -1.6785583z" fill-rule="evenodd"></path><path fill="#000000" fill-opacity="0.0" d="m102.891014 453.3686l83.71653 0" fill-rule="evenodd"></path><path stroke="#595959" stroke-width="1.0" stroke-linejoin="round" stroke-linecap="butt" d="m102.891014 453.3686l77.71653 0" fill-rule="evenodd"></path><path fill="#595959" stroke="#595959" stroke-width="1.0" stroke-linecap="butt" d="m180.60754 455.02032l4.538101 -1.6517334l-4.538101 -1.6517334z" fill-rule="evenodd"></path><path fill="#000000" fill-opacity="0.0" d="m768.46893 453.3686l83.71655 0" fill-rule="evenodd"></path><path stroke="#595959" stroke-width="1.0" stroke-linejoin="round" stroke-linecap="butt" d="m768.46893 453.3686l77.71649 0" fill-rule="evenodd"></path><path fill="#595959" stroke="#595959" stroke-width="1.0" stroke-linecap="butt" d="m846.1854 455.02032l4.538147 -1.6517334l-4.538147 -1.6517334z" fill-rule="evenodd"></path><path fill="#000000" fill-opacity="0.0" d="m187.84511 453.58078l580.4725 0" fill-rule="evenodd"></path><path stroke="#595959" stroke-width="1.0" stroke-linejoin="round" stroke-linecap="butt" d="m187.84511 453.58078l574.4725 0" fill-rule="evenodd"></path><path fill="#595959" stroke="#595959" stroke-width="1.0" stroke-linecap="butt" d="m762.31757 455.2325l4.538147 -1.6517334l-4.538147 -1.6517334z" fill-rule="evenodd"></path><path fill="#000000" fill-opacity="0.0" d="m122.66532 352.15198l29.511818 0l0 31.496063l-29.511818 0z" fill-rule="evenodd"></path><path fill="#000000" d="m139.35283 377.85324q-0.9375 0.796875 -1.796875 1.125q-0.859375 0.3125 -1.84375 0.3125q-1.609375 0 -2.484375 -0.78125q-0.875 -0.796875 -0.875 -2.03125q0 -0.734375 0.328125 -1.328125q0.328125 -0.59375 0.859375 -0.953125q0.53125 -0.359375 1.203125 -0.546875q0.5 -0.140625 1.484375 -0.25q2.03125 -0.25 2.984375 -0.578125q0 -0.34375 0 -0.4375q0 -1.015625 -0.46875 -1.4375q-0.640625 -0.5625 -1.90625 -0.5625q-1.171875 0 -1.734375 0.40625q-0.5625 0.40625 -0.828125 1.46875l-1.640625 -0.234375q0.234375 -1.046875 0.734375 -1.6875q0.515625 -0.640625 1.46875 -0.984375q0.96875 -0.359375 2.25 -0.359375q1.265625 0 2.046875 0.296875q0.78125 0.296875 1.15625 0.75q0.375 0.453125 0.515625 1.140625q0.09375 0.421875 0.09375 1.53125l0 2.234375q0 2.328125 0.09375 2.953125q0.109375 0.609375 0.4375 1.171875l-1.75 0q-0.265625 -0.515625 -0.328125 -1.21875zm-0.140625 -3.71875q-0.90625 0.359375 -2.734375 0.625q-1.03125 0.140625 -1.453125 0.328125q-0.421875 0.1875 -0.65625 0.546875q-0.234375 0.359375 -0.234375 0.796875q0 0.671875 0.5 1.125q0.515625 0.4375 1.484375 0.4375q0.96875 0 1.71875 -0.421875q0.75 -0.4375 1.109375 -1.15625q0.265625 -0.578125 0.265625 -1.671875l0 -0.609375z" fill-rule="nonzero"></path><path fill="#000000" fill-opacity="0.0" d="m792.05115 352.15198l29.51184 0l0 31.496063l-29.51184 0z" fill-rule="evenodd"></path><path fill="#000000" d="m808.73865 377.85324q-0.9375 0.796875 -1.796875 1.125q-0.859375 0.3125 -1.84375 0.3125q-1.609375 0 -2.484375 -0.78125q-0.875 -0.796875 -0.875 -2.03125q0 -0.734375 0.328125 -1.328125q0.328125 -0.59375 0.859375 -0.953125q0.53125 -0.359375 1.203125 -0.546875q0.5 -0.140625 1.484375 -0.25q2.03125 -0.25 2.984375 -0.578125q0 -0.34375 0 -0.4375q0 -1.015625 -0.46875 -1.4375q-0.640625 -0.5625 -1.90625 -0.5625q-1.171875 0 -1.734375 0.40625q-0.5625 0.40625 -0.828125 1.46875l-1.640625 -0.234375q0.234375 -1.046875 0.734375 -1.6875q0.515625 -0.640625 1.46875 -0.984375q0.96875 -0.359375 2.25 -0.359375q1.265625 0 2.046875 0.296875q0.78125 0.296875 1.15625 0.75q0.375 0.453125 0.515625 1.140625q0.09375 0.421875 0.09375 1.53125l0 2.234375q0 2.328125 0.09375 2.953125q0.109375 0.609375 0.4375 1.171875l-1.75 0q-0.265625 -0.515625 -0.328125 -1.21875zm-0.140625 -3.71875q-0.90625 0.359375 -2.734375 0.625q-1.03125 0.140625 -1.453125 0.328125q-0.421875 0.1875 -0.65625 0.546875q-0.234375 0.359375 -0.234375 0.796875q0 0.671875 0.5 1.125q0.515625 0.4375 1.484375 0.4375q0.96875 0 1.71875 -0.421875q0.75 -0.4375 1.109375 -1.15625q0.265625 -0.578125 0.265625 -1.671875l0 -0.609375z" fill-rule="nonzero"></path><path fill="#000000" fill-opacity="0.0" d="m121.96765 419.9917l29.51181 0l0 31.496063l-29.51181 0z" fill-rule="evenodd"></path><path fill="#000000" d="m133.76453 446.91168l-1.546875 0l0 -13.59375l1.65625 0l0 4.84375q1.0625 -1.328125 2.703125 -1.328125q0.90625 0 1.71875 0.375q0.8125 0.359375 1.328125 1.03125q0.53125 0.65625 0.828125 1.59375q0.296875 0.9375 0.296875 2.0q0 2.53125 -1.25 3.921875q-1.25 1.375 -3.0 1.375q-1.75 0 -2.734375 -1.453125l0 1.234375zm-0.015625 -5.0q0 1.765625 0.46875 2.5625q0.796875 1.28125 2.140625 1.28125q1.09375 0 1.890625 -0.9375q0.796875 -0.953125 0.796875 -2.84375q0 -1.921875 -0.765625 -2.84375q-0.765625 -0.921875 -1.84375 -0.921875q-1.09375 0 -1.890625 0.953125q-0.796875 0.953125 -0.796875 2.75z" fill-rule="nonzero"></path><path fill="#000000" fill-opacity="0.0" d="m269.90942 352.15198l29.51181 0l0 31.496063l-29.51181 0z" fill-rule="evenodd"></path><path fill="#000000" d="m286.59692 377.85324q-0.9375 0.796875 -1.796875 1.125q-0.859375 0.3125 -1.84375 0.3125q-1.609375 0 -2.484375 -0.78125q-0.875 -0.796875 -0.875 -2.03125q0 -0.734375 0.328125 -1.328125q0.328125 -0.59375 0.859375 -0.953125q0.53125 -0.359375 1.203125 -0.546875q0.5 -0.140625 1.484375 -0.25q2.03125 -0.25 2.984375 -0.578125q0 -0.34375 0 -0.4375q0 -1.015625 -0.46875 -1.4375q-0.640625 -0.5625 -1.90625 -0.5625q-1.171875 0 -1.734375 0.40625q-0.5625 0.40625 -0.828125 1.46875l-1.640625 -0.234375q0.234375 -1.046875 0.734375 -1.6875q0.515625 -0.640625 1.46875 -0.984375q0.96875 -0.359375 2.25 -0.359375q1.265625 0 2.046875 0.296875q0.78125 0.296875 1.15625 0.75q0.375 0.453125 0.515625 1.140625q0.09375 0.421875 0.09375 1.53125l0 2.234375q0 2.328125 0.09375 2.953125q0.109375 0.609375 0.4375 1.171875l-1.75 0q-0.265625 -0.515625 -0.328125 -1.21875zm-0.140625 -3.71875q-0.90625 0.359375 -2.734375 0.625q-1.03125 0.140625 -1.453125 0.328125q-0.421875 0.1875 -0.65625 0.546875q-0.234375 0.359375 -0.234375 0.796875q0 0.671875 0.5 1.125q0.515625 0.4375 1.484375 0.4375q0.96875 0 1.71875 -0.421875q0.75 -0.4375 1.109375 -1.15625q0.265625 -0.578125 0.265625 -1.671875l0 -0.609375z" fill-rule="nonzero"></path><path fill="#000000" fill-opacity="0.0" d="m647.1732 352.15198l29.51178 0l0 31.496063l-29.51178 0z" fill-rule="evenodd"></path><path fill="#000000" d="m663.8607 377.85324q-0.9375 0.796875 -1.796875 1.125q-0.859375 0.3125 -1.84375 0.3125q-1.609375 0 -2.484375 -0.78125q-0.875 -0.796875 -0.875 -2.03125q0 -0.734375 0.328125 -1.328125q0.328125 -0.59375 0.859375 -0.953125q0.53125 -0.359375 1.203125 -0.546875q0.5 -0.140625 1.484375 -0.25q2.03125 -0.25 2.984375 -0.578125q0 -0.34375 0 -0.4375q0 -1.015625 -0.46875 -1.4375q-0.640625 -0.5625 -1.90625 -0.5625q-1.171875 0 -1.734375 0.40625q-0.5625 0.40625 -0.828125 1.46875l-1.640625 -0.234375q0.234375 -1.046875 0.734375 -1.6875q0.515625 -0.640625 1.46875 -0.984375q0.96875 -0.359375 2.25 -0.359375q1.265625 0 2.046875 0.296875q0.78125 0.296875 1.15625 0.75q0.375 0.453125 0.515625 1.140625q0.09375 0.421875 0.09375 1.53125l0 2.234375q0 2.328125 0.09375 2.953125q0.109375 0.609375 0.4375 1.171875l-1.75 0q-0.265625 -0.515625 -0.328125 -1.21875zm-0.140625 -3.71875q-0.90625 0.359375 -2.734375 0.625q-1.03125 0.140625 -1.453125 0.328125q-0.421875 0.1875 -0.65625 0.546875q-0.234375 0.359375 -0.234375 0.796875q0 0.671875 0.5 1.125q0.515625 0.4375 1.484375 0.4375q0.96875 0 1.71875 -0.421875q0.75 -0.4375 1.109375 -1.15625q0.265625 -0.578125 0.265625 -1.671875l0 -0.609375z" fill-rule="nonzero"></path><path fill="#000000" fill-opacity="0.0" d="m462.43304 420.4207l29.51181 0l0 31.496063l-29.51181 0z" fill-rule="evenodd"></path><path fill="#000000" d="m474.22992 447.34067l-1.546875 0l0 -13.59375l1.65625 0l0 4.84375q1.0625 -1.328125 2.703125 -1.328125q0.90625 0 1.71875 0.375q0.8125 0.359375 1.328125 1.03125q0.53125 0.65625 0.828125 1.59375q0.296875 0.9375 0.296875 2.0q0 2.53125 -1.25 3.921875q-1.25 1.375 -3.0 1.375q-1.75 0 -2.734375 -1.453125l0 1.234375zm-0.015625 -5.0q0 1.765625 0.46875 2.5625q0.796875 1.28125 2.140625 1.28125q1.09375 0 1.890625 -0.9375q0.796875 -0.953125 0.796875 -2.84375q0 -1.921875 -0.765625 -2.84375q-0.765625 -0.921875 -1.84375 -0.921875q-1.09375 0 -1.890625 0.953125q-0.796875 0.953125 -0.796875 2.75z" fill-rule="nonzero"></path><path fill="#000000" fill-opacity="0.0" d="m102.891014 469.3686l83.71653 0" fill-rule="evenodd"></path><path stroke="#595959" stroke-width="1.0" stroke-linejoin="round" stroke-linecap="butt" d="m102.891014 469.3686l77.71653 0" fill-rule="evenodd"></path><path fill="#595959" stroke="#595959" stroke-width="1.0" stroke-linecap="butt" d="m180.60754 471.02032l4.538101 -1.6517334l-4.538101 -1.6517334z" fill-rule="evenodd"></path><path fill="#000000" fill-opacity="0.0" d="m768.46893 469.3686l83.71655 0" fill-rule="evenodd"></path><path stroke="#595959" stroke-width="1.0" stroke-linejoin="round" stroke-linecap="butt" d="m768.46893 469.3686l77.71649 0" fill-rule="evenodd"></path><path fill="#595959" stroke="#595959" stroke-width="1.0" stroke-linecap="butt" d="m846.1854 471.02032l4.538147 -1.6517334l-4.538147 -1.6517334z" fill-rule="evenodd"></path><path fill="#000000" fill-opacity="0.0" d="m187.84511 469.58078l580.4725 0" fill-rule="evenodd"></path><path stroke="#595959" stroke-width="1.0" stroke-linejoin="round" stroke-linecap="butt" d="m187.84511 469.58078l574.4725 0" fill-rule="evenodd"></path><path fill="#595959" stroke="#595959" stroke-width="1.0" stroke-linecap="butt" d="m762.31757 471.2325l4.538147 -1.6517334l-4.538147 -1.6517334z" fill-rule="evenodd"></path><path fill="#000000" fill-opacity="0.0" d="m122.66532 462.08472l29.511818 0l0 31.496063l-29.511818 0z" fill-rule="evenodd"></path><path fill="#000000" d="m139.35283 485.39532l1.640625 0.21875q-0.265625 1.6875 -1.375 2.65625q-1.109375 0.953125 -2.734375 0.953125q-2.015625 0 -3.25 -1.3125q-1.21875 -1.328125 -1.21875 -3.796875q0 -1.59375 0.515625 -2.78125q0.53125 -1.203125 1.609375 -1.796875q1.09375 -0.609375 2.359375 -0.609375q1.609375 0 2.625 0.8125q1.015625 0.8125 1.3125 2.3125l-1.625 0.25q-0.234375 -1.0 -0.828125 -1.5q-0.59375 -0.5 -1.421875 -0.5q-1.265625 0 -2.0625 0.90625q-0.78125 0.90625 -0.78125 2.859375q0 1.984375 0.765625 2.890625q0.765625 0.890625 1.984375 0.890625q0.984375 0 1.640625 -0.59375q0.65625 -0.609375 0.84375 -1.859375z" fill-rule="nonzero"></path><path fill="#000000" fill-opacity="0.0" d="m463.1307 460.4207l29.51181 0l0 31.496063l-29.51181 0z" fill-rule="evenodd"></path><path fill="#000000" d="m479.8182 483.7313l1.640625 0.21875q-0.265625 1.6875 -1.375 2.65625q-1.109375 0.953125 -2.734375 0.953125q-2.015625 0 -3.25 -1.3125q-1.21875 -1.328125 -1.21875 -3.796875q0 -1.59375 0.515625 -2.78125q0.53125 -1.203125 1.609375 -1.796875q1.09375 -0.609375 2.359375 -0.609375q1.609375 0 2.625 0.8125q1.015625 0.8125 1.3125 2.3125l-1.625 0.25q-0.234375 -1.0 -0.828125 -1.5q-0.59375 -0.5 -1.421875 -0.5q-1.265625 0 -2.0625 0.90625q-0.78125 0.90625 -0.78125 2.859375q0 1.984375 0.765625 2.890625q0.765625 0.890625 1.984375 0.890625q0.984375 0 1.640625 -0.59375q0.65625 -0.609375 0.84375 -1.859375z" fill-rule="nonzero"></path><path fill="#000000" fill-opacity="0.0" d="m791.13074 419.723l29.51178 0l0 31.496063l-29.51178 0z" fill-rule="evenodd"></path><path fill="#000000" d="m802.9276 446.643l-1.546875 0l0 -13.59375l1.65625 0l0 4.84375q1.0625 -1.328125 2.703125 -1.328125q0.90625 0 1.71875 0.375q0.8125 0.359375 1.328125 1.03125q0.53125 0.65625 0.828125 1.59375q0.296875 0.9375 0.296875 2.0q0 2.53125 -1.25 3.921875q-1.25 1.375 -3.0 1.375q-1.75 0 -2.734375 -1.453125l0 1.234375zm-0.015625 -5.0q0 1.765625 0.46875 2.5625q0.796875 1.28125 2.140625 1.28125q1.09375 0 1.890625 -0.9375q0.796875 -0.953125 0.796875 -2.84375q0 -1.921875 -0.765625 -2.84375q-0.765625 -0.921875 -1.84375 -0.921875q-1.09375 0 -1.890625 0.953125q-0.796875 0.953125 -0.796875 2.75z" fill-rule="nonzero"></path><path fill="#000000" fill-opacity="0.0" d="m791.82837 459.723l29.51184 0l0 31.496063l-29.51184 0z" fill-rule="evenodd"></path><path fill="#000000" d="m808.51587 483.03363l1.640625 0.21875q-0.265625 1.6875 -1.375 2.65625q-1.109375 0.953125 -2.734375 0.953125q-2.015625 0 -3.25 -1.3125q-1.21875 -1.328125 -1.21875 -3.796875q0 -1.59375 0.515625 -2.78125q0.53125 -1.203125 1.609375 -1.796875q1.09375 -0.609375 2.359375 -0.609375q1.609375 0 2.625 0.8125q1.015625 0.8125 1.3125 2.3125l-1.625 0.25q-0.234375 -1.0 -0.828125 -1.5q-0.59375 -0.5 -1.421875 -0.5q-1.265625 0 -2.0625 0.90625q-0.78125 0.90625 -0.78125 2.859375q0 1.984375 0.765625 2.890625q0.765625 0.890625 1.984375 0.890625q0.984375 0 1.640625 -0.59375q0.65625 -0.609375 0.84375 -1.859375z" fill-rule="nonzero"></path><path fill="#cfe2f3" d="m407.79788 55.900158l145.44882 0l0 67.68504l-145.44882 0z" fill-rule="evenodd"></path><path stroke="#595959" stroke-width="1.0" stroke-linejoin="round" stroke-linecap="butt" d="m407.79788 55.900158l145.44882 0l0 67.68504l-145.44882 0z" fill-rule="evenodd"></path><path fill="#000000" d="m476.87854 84.38393l2.34375 0l0 2.75l-0.125 1.53125q0.234375 -0.234375 0.515625 -0.4375q0.28125 -0.21875 0.609375 -0.390625q0.328125 -0.171875 0.71875 -0.265625q0.390625 -0.09375 0.84375 -0.09375q1.34375 0 1.953125 0.859375q0.625 0.859375 0.625 2.375l0 4.890625l-2.359375 0l0 -4.59375q0 -0.796875 -0.25 -1.15625q-0.25 -0.375 -0.90625 -0.375q-0.484375 0 -0.84375 0.203125q-0.359375 0.203125 -0.78125 0.625l0 5.296875l-2.34375 0l0 -11.21875z" fill-rule="nonzero"></path><path fill="#ffffff" d="m187.84514 125.86993l0 0c0 -30.936638 24.923996 -56.015747 55.669296 -56.015747l0 0c14.764404 0 28.924103 5.901642 39.364136 16.406631c10.440002 10.504997 16.305145 24.752815 16.305145 39.609116l0 0c0 30.936653 -24.92398 56.015755 -55.66928 56.015755l0 0c-30.7453 0 -55.669296 -25.079102 -55.669296 -56.015755z" fill-rule="evenodd"></path><path stroke="#595959" stroke-width="1.0" stroke-linejoin="round" stroke-linecap="butt" d="m187.84514 125.86993l0 0c0 -30.936638 24.923996 -56.015747 55.669296 -56.015747l0 0c14.764404 0 28.924103 5.901642 39.364136 16.406631c10.440002 10.504997 16.305145 24.752815 16.305145 39.609116l0 0c0 30.936653 -24.92398 56.015755 -55.66928 56.015755l0 0c-30.7453 0 -55.669296 -25.079102 -55.669296 -56.015755z" fill-rule="evenodd"></path><path fill="#000000" d="m220.48314 129.52681q0 -0.671875 0.28125 -1.171875q0.296875 -0.5156326 0.921875 -0.8593826q0.640625 -0.359375 1.625 -0.578125q1.0 -0.21875 2.40625 -0.296875q-0.0625 -0.53125 -0.46875 -0.828125q-0.40625 -0.3125 -1.21875 -0.3125q-0.578125 0 -1.171875 0.203125q-0.578125 0.1875 -1.25 0.53125l-0.828125 -1.546875q0.8125 -0.453125 1.75 -0.75q0.9375 -0.3125 1.953125 -0.3125q1.671875 0 2.625 0.875q0.96875 0.875 0.96875 2.703125l0 4.5468826l-1.921875 0l-0.171875 -0.890625l-0.0625 0q-0.609375 0.453125 -1.328125 0.765625q-0.71875 0.3125 -1.5 0.3125q-0.609375 0 -1.09375 -0.1875q-0.46875 -0.171875 -0.8125 -0.5q-0.328125 -0.328125 -0.515625 -0.765625q-0.1875 -0.4375 -0.1875 -0.9375zm2.265625 -0.1875q0 0.390625 0.296875 0.578125q0.296875 0.1875 0.8125 0.1875q0.515625 0 0.984375 -0.21875q0.46875 -0.21875 0.875 -0.546875l0 -1.3125q-0.875 0.0625 -1.453125 0.171875q-0.578125 0.109375 -0.921875 0.28125q-0.328125 0.15625 -0.46875 0.390625q-0.125 0.21875 -0.125 0.46875zm8.271896 -0.109375q0.6875 0.4375 1.375 0.703125q0.703125 0.25 1.5 0.25q0.8125 0 1.15625 -0.171875q0.359375 -0.1875 0.359375 -0.5q0 -0.375 -0.578125 -0.609375q-0.578125 -0.234375 -1.546875 -0.5q-0.53125 -0.140625 -1.03125 -0.34375q-0.5 -0.20313263 -0.90625 -0.48438263q-0.390625 -0.28125 -0.640625 -0.640625q-0.25 -0.375 -0.25 -0.84375q0 -0.546875 0.25 -1.015625q0.265625 -0.46875 0.734375 -0.78125q0.46875 -0.328125 1.140625 -0.5q0.6875 -0.1875 1.546875 -0.1875q1.046875 0 1.921875 0.34375q0.875 0.34375 1.5 0.734375l-1.0625 1.421875q-0.546875 -0.328125 -1.125 -0.546875q-0.5625 -0.21875 -1.1875 -0.21875q-0.765625 0 -1.078125 0.171875q-0.296875 0.15625 -0.296875 0.453125q0 0.1875 0.15625 0.328125q0.15625 0.140625 0.421875 0.25q0.28125 0.109375 0.65625 0.21875q0.375 0.109375 0.796875 0.21875q0.578125 0.15625 1.109375 0.359375q0.53125 0.203125 0.921875 0.484375q0.40625 0.26563263 0.640625 0.6562576q0.25 0.375 0.25 0.875q0 0.546875 -0.265625 1.015625q-0.25 0.46875 -0.734375 0.8125q-0.484375 0.34375 -1.21875 0.546875q-0.71875 0.1875 -1.6875 0.1875q-1.078125 0 -2.109375 -0.34375q-1.015625 -0.359375 -1.78125 -0.875l1.0625 -1.46875zm9.600021 0q0.6875 0.4375 1.375 0.703125q0.703125 0.25 1.5 0.25q0.8125 0 1.15625 -0.171875q0.359375 -0.1875 0.359375 -0.5q0 -0.375 -0.578125 -0.609375q-0.578125 -0.234375 -1.546875 -0.5q-0.53125 -0.140625 -1.03125 -0.34375q-0.5 -0.20313263 -0.90625 -0.48438263q-0.390625 -0.28125 -0.640625 -0.640625q-0.25 -0.375 -0.25 -0.84375q0 -0.546875 0.25 -1.015625q0.265625 -0.46875 0.734375 -0.78125q0.46875 -0.328125 1.140625 -0.5q0.6875 -0.1875 1.546875 -0.1875q1.046875 0 1.921875 0.34375q0.875 0.34375 1.5 0.734375l-1.0625 1.421875q-0.546875 -0.328125 -1.125 -0.546875q-0.5625 -0.21875 -1.1875 -0.21875q-0.765625 0 -1.078125 0.171875q-0.296875 0.15625 -0.296875 0.453125q0 0.1875 0.15625 0.328125q0.15625 0.140625 0.421875 0.25q0.28125 0.109375 0.65625 0.21875q0.375 0.109375 0.796875 0.21875q0.578125 0.15625 1.109375 0.359375q0.53125 0.203125 0.921875 0.484375q0.40625 0.26563263 0.640625 0.6562576q0.25 0.375 0.25 0.875q0 0.546875 -0.265625 1.015625q-0.25 0.46875 -0.734375 0.8125q-0.484375 0.34375 -1.21875 0.546875q-0.71875 0.1875 -1.6875 0.1875q-1.078125 0 -2.109375 -0.34375q-1.015625 -0.359375 -1.78125 -0.875l1.0625 -1.46875zm8.443771 -1.4687576q0 -0.984375 0.328125 -1.765625q0.34375 -0.78125 0.90625 -1.296875q0.578125 -0.53125 1.296875 -0.8125q0.734375 -0.28125 1.515625 -0.28125q0.78125 0 1.515625 0.28125q0.734375 0.28125 1.296875 0.8125q0.5625 0.515625 0.890625 1.296875q0.34375 0.78125 0.34375 1.765625q0 1.0000076 -0.34375 1.7812576q-0.328125 0.765625 -0.890625 1.296875q-0.5625 0.515625 -1.296875 0.796875q-0.734375 0.28125 -1.515625 0.28125q-0.78125 0 -1.515625 -0.28125q-0.71875 -0.28125 -1.296875 -0.796875q-0.5625 -0.53125 -0.90625 -1.296875q-0.328125 -0.78125 -0.328125 -1.7812576zm2.421875 0q0 1.0468826 0.40625 1.6562576q0.40625 0.59375 1.21875 0.59375q0.8125 0 1.21875 -0.59375q0.421875 -0.609375 0.421875 -1.6562576q0 -1.046875 -0.421875 -1.640625q-0.40625 -0.609375 -1.21875 -0.609375q-0.8125 0 -1.21875 0.609375q-0.40625 0.59375 -0.40625 1.640625zm7.506256 0q0 -0.984375 0.375 -1.765625q0.375 -0.78125 1.0 -1.296875q0.640625 -0.53125 1.46875 -0.8125q0.828125 -0.28125 1.734375 -0.28125q0.953125 0 1.703125 0.3125q0.765625 0.296875 1.28125 0.75l-1.09375 1.46875q-0.875 -0.625 -1.75 -0.625q-1.03125 0 -1.671875 0.609375q-0.640625 0.59375 -0.640625 1.640625q0 1.0468826 0.609375 1.6562576q0.625 0.59375 1.625 0.59375q0.625 0 1.140625 -0.21875q0.53125 -0.21875 0.953125 -0.53125l0.953125 1.5q-0.71875 0.59375 -1.59375 0.875q-0.875 0.28125 -1.6875 0.28125q-0.9375 0 -1.75 -0.28125q-0.796875 -0.28125 -1.390625 -0.796875q-0.59375 -0.53125 -0.9375 -1.296875q-0.328125 -0.78125 -0.328125 -1.7812576z" fill-rule="nonzero"></path><path fill="#ffffff" d="m656.7533 133.86993l0 0c0 -30.936646 24.92395 -56.015755 55.66925 -56.015755l0 0c14.764465 0 28.924133 5.901642 39.364136 16.406631c10.440063 10.504997 16.305176 24.752815 16.305176 39.609123l0 0c0 30.936646 -24.924011 56.015747 -55.66931 56.015747l0 0c-30.7453 0 -55.66925 -25.079102 -55.66925 -56.015747z" fill-rule="evenodd"></path><path stroke="#595959" stroke-width="1.0" stroke-linejoin="round" stroke-linecap="butt" d="m656.7533 133.86993l0 0c0 -30.936646 24.92395 -56.015755 55.66925 -56.015755l0 0c14.764465 0 28.924133 5.901642 39.364136 16.406631c10.440063 10.504997 16.305176 24.752815 16.305176 39.609123l0 0c0 30.936646 -24.924011 56.015747 -55.66931 56.015747l0 0c-30.7453 0 -55.66925 -25.079102 -55.66925 -56.015747z" fill-rule="evenodd"></path><path fill="#000000" d="m684.59125 137.52681q0 -0.671875 0.28125 -1.171875q0.296875 -0.515625 0.921875 -0.859375q0.640625 -0.359375 1.625 -0.578125q1.0 -0.21875 2.40625 -0.296875q-0.0625 -0.53125 -0.46875 -0.828125q-0.40625 -0.3125 -1.21875 -0.3125q-0.578125 0 -1.171875 0.203125q-0.578125 0.1875 -1.25 0.53125l-0.828125 -1.546875q0.8125 -0.453125 1.75 -0.75q0.9375 -0.3125 1.953125 -0.3125q1.671875 0 2.625 0.875q0.96875 0.875 0.96875 2.703125l0 4.546875l-1.921875 0l-0.171875 -0.890625l-0.0625 0q-0.609375 0.453125 -1.328125 0.765625q-0.71875 0.3125 -1.5 0.3125q-0.609375 0 -1.09375 -0.1875q-0.46875 -0.171875 -0.8125 -0.5q-0.328125 -0.328125 -0.515625 -0.765625q-0.1875 -0.4375 -0.1875 -0.9375zm2.265625 -0.1875q0 0.390625 0.296875 0.578125q0.296875 0.1875 0.8125 0.1875q0.515625 0 0.984375 -0.21875q0.46875 -0.21875 0.875 -0.546875l0 -1.3125q-0.875 0.0625 -1.453125 0.171875q-0.578125 0.109375 -0.921875 0.28125q-0.328125 0.15625 -0.46875 0.390625q-0.125 0.21875 -0.125 0.46875zm8.271912 -0.109375q0.6875 0.4375 1.375 0.703125q0.703125 0.25 1.5 0.25q0.8125 0 1.15625 -0.171875q0.359375 -0.1875 0.359375 -0.5q0 -0.375 -0.578125 -0.609375q-0.578125 -0.234375 -1.546875 -0.5q-0.53125 -0.140625 -1.03125 -0.34375q-0.5 -0.203125 -0.90625 -0.484375q-0.390625 -0.28125 -0.640625 -0.640625q-0.25 -0.375 -0.25 -0.84375q0 -0.546875 0.25 -1.015625q0.265625 -0.46875 0.734375 -0.78125q0.46875 -0.328125 1.140625 -0.5q0.6875 -0.1875 1.546875 -0.1875q1.046875 0 1.921875 0.34375q0.875 0.34375 1.5 0.734375l-1.0625 1.421875q-0.546875 -0.328125 -1.125 -0.546875q-0.5625 -0.21875 -1.1875 -0.21875q-0.765625 0 -1.078125 0.171875q-0.296875 0.15625 -0.296875 0.453125q0 0.1875 0.15625 0.328125q0.15625 0.140625 0.421875 0.25q0.28125 0.109375 0.65625 0.21875q0.375 0.109375 0.796875 0.21875q0.578125 0.15625 1.109375 0.359375q0.53125 0.203125 0.921875 0.484375q0.40625 0.265625 0.640625 0.65625q0.25 0.375 0.25 0.875q0 0.546875 -0.265625 1.015625q-0.25 0.46875 -0.734375 0.8125q-0.484375 0.34375 -1.21875 0.546875q-0.71875 0.1875 -1.6875 0.1875q-1.078125 0 -2.109375 -0.34375q-1.015625 -0.359375 -1.78125 -0.875l1.0625 -1.46875zm9.600037 0q0.6875 0.4375 1.375 0.703125q0.703125 0.25 1.5 0.25q0.8125 0 1.15625 -0.171875q0.359375 -0.1875 0.359375 -0.5q0 -0.375 -0.578125 -0.609375q-0.578125 -0.234375 -1.546875 -0.5q-0.53125 -0.140625 -1.03125 -0.34375q-0.5 -0.203125 -0.90625 -0.484375q-0.390625 -0.28125 -0.640625 -0.640625q-0.25 -0.375 -0.25 -0.84375q0 -0.546875 0.25 -1.015625q0.265625 -0.46875 0.734375 -0.78125q0.46875 -0.328125 1.140625 -0.5q0.6875 -0.1875 1.546875 -0.1875q1.046875 0 1.921875 0.34375q0.875 0.34375 1.5 0.734375l-1.0625 1.421875q-0.546875 -0.328125 -1.125 -0.546875q-0.5625 -0.21875 -1.1875 -0.21875q-0.765625 0 -1.078125 0.171875q-0.296875 0.15625 -0.296875 0.453125q0 0.1875 0.15625 0.328125q0.15625 0.140625 0.421875 0.25q0.28125 0.109375 0.65625 0.21875q0.375 0.109375 0.796875 0.21875q0.578125 0.15625 1.109375 0.359375q0.53125 0.203125 0.921875 0.484375q0.40625 0.265625 0.640625 0.65625q0.25 0.375 0.25 0.875q0 0.546875 -0.265625 1.015625q-0.25 0.46875 -0.734375 0.8125q-0.484375 0.34375 -1.21875 0.546875q-0.71875 0.1875 -1.6875 0.1875q-1.078125 0 -2.109375 -0.34375q-1.015625 -0.359375 -1.78125 -0.875l1.0625 -1.46875zm8.443726 -1.46875q0 -0.984375 0.328125 -1.765625q0.34375 -0.78125 0.90625 -1.296875q0.578125 -0.53125 1.296875 -0.8125q0.734375 -0.28125 1.515625 -0.28125q0.78125 0 1.515625 0.28125q0.734375 0.28125 1.296875 0.8125q0.5625 0.515625 0.890625 1.296875q0.34375 0.78125 0.34375 1.765625q0 1.0 -0.34375 1.78125q-0.328125 0.765625 -0.890625 1.296875q-0.5625 0.515625 -1.296875 0.796875q-0.734375 0.28125 -1.515625 0.28125q-0.78125 0 -1.515625 -0.28125q-0.71875 -0.28125 -1.296875 -0.796875q-0.5625 -0.53125 -0.90625 -1.296875q-0.328125 -0.78125 -0.328125 -1.78125zm2.421875 0q0 1.046875 0.40625 1.65625q0.40625 0.59375 1.21875 0.59375q0.8125 0 1.21875 -0.59375q0.421875 -0.609375 0.421875 -1.65625q0 -1.046875 -0.421875 -1.640625q-0.40625 -0.609375 -1.21875 -0.609375q-0.8125 0 -1.21875 0.609375q-0.40625 0.59375 -0.40625 1.640625zm7.5062866 0q0 -0.984375 0.375 -1.765625q0.375 -0.78125 1.0 -1.296875q0.640625 -0.53125 1.46875 -0.8125q0.828125 -0.28125 1.734375 -0.28125q0.953125 0 1.703125 0.3125q0.765625 0.296875 1.28125 0.75l-1.09375 1.46875q-0.875 -0.625 -1.75 -0.625q-1.03125 0 -1.671875 0.609375q-0.640625 0.59375 -0.640625 1.640625q0 1.046875 0.609375 1.65625q0.625 0.59375 1.625 0.59375q0.625 0 1.140625 -0.21875q0.53125 -0.21875 0.953125 -0.53125l0.953125 1.5q-0.71875 0.59375 -1.59375 0.875q-0.875 0.28125 -1.6875 0.28125q-0.9375 0 -1.75 -0.28125q-0.796875 -0.28125 -1.390625 -0.796875q-0.59375 -0.53125 -0.9375 -1.296875q-0.328125 -0.78125 -0.328125 -1.78125zm11.756287 -1.921875q1.671875 -0.75 1.796875 -2.21875q-0.1875 0.046875 -0.328125 0.046875q-0.65625 0 -1.0625 -0.390625q-0.40625 -0.40625 -0.40625 -1.078125q0 -0.734375 0.421875 -1.171875q0.4375 -0.453125 1.109375 -0.453125q0.921875 0 1.390625 0.6875q0.484375 0.671875 0.484375 1.875q0 1.3125 -0.6875 2.3125q-0.6875 1.0 -2.09375 1.640625l-0.625 -1.25z" fill-rule="nonzero"></path><path fill="#000000" fill-opacity="0.0" d="m46.047245 68.48518l81.732285 0" fill-rule="evenodd"></path><path stroke="#595959" stroke-width="1.0" stroke-linejoin="round" stroke-linecap="butt" d="m46.047245 68.485176l75.732285 0" fill-rule="evenodd"></path><path fill="#595959" stroke="#595959" stroke-width="1.0" stroke-linecap="butt" d="m121.779526 70.13691l4.538101 -1.6517334l-4.538101 -1.6517258z" fill-rule="evenodd"></path><path fill="#000000" fill-opacity="0.0" d="m46.047245 187.04303l81.732285 0" fill-rule="evenodd"></path><path stroke="#595959" stroke-width="1.0" stroke-linejoin="round" stroke-linecap="butt" d="m46.047245 187.04301l75.732285 0" fill-rule="evenodd"></path><path fill="#595959" stroke="#595959" stroke-width="1.0" stroke-linecap="butt" d="m121.779526 188.69475l4.538101 -1.6517334l-4.538101 -1.6517334z" fill-rule="evenodd"></path><path fill="#000000" fill-opacity="0.0" d="m65.35204 37.68686l28.818901 0l0 31.496063l-28.818901 0z" fill-rule="evenodd"></path><path fill="#000000" d="m82.03954 63.388107q-0.9375 0.796875 -1.796875 1.125q-0.859375 0.3125 -1.84375 0.3125q-1.609375 0 -2.484375 -0.78125q-0.875 -0.796875 -0.875 -2.03125q0 -0.734375 0.328125 -1.328125q0.328125 -0.59375 0.859375 -0.953125q0.53125 -0.359375 1.203125 -0.546875q0.5 -0.140625 1.484375 -0.25q2.03125 -0.25 2.984375 -0.578125q0 -0.34375 0 -0.4375q0 -1.015625 -0.46875 -1.4375q-0.640625 -0.5625 -1.90625 -0.5625q-1.171875 0 -1.734375 0.40625q-0.5625 0.40625 -0.828125 1.46875l-1.640625 -0.234375q0.234375 -1.046875 0.734375 -1.6875q0.515625 -0.640625 1.46875 -0.984375q0.96875 -0.359375 2.25 -0.359375q1.265625 0 2.046875 0.296875q0.78125 0.296875 1.15625 0.75q0.375 0.453125 0.515625 1.140625q0.09375 0.421875 0.09375 1.53125l0 2.234375q0 2.328125 0.09375 2.953125q0.109375 0.609375 0.4375 1.171875l-1.75 0q-0.265625 -0.515625 -0.328125 -1.21875zm-0.140625 -3.71875q-0.90625 0.359375 -2.734375 0.625q-1.03125 0.140625 -1.453125 0.328125q-0.421875 0.1875 -0.65625 0.546875q-0.234375 0.359375 -0.234375 0.796875q0 0.671875 0.5 1.125q0.515625 0.4375 1.484375 0.4375q0.96875 0 1.71875 -0.421875q0.75 -0.4375 1.109375 -1.15625q0.265625 -0.578125 0.265625 -1.671875l0 -0.609375z" fill-rule="nonzero"></path><path fill="#000000" fill-opacity="0.0" d="m64.67094 153.66612l28.818901 0l0 31.496063l-28.818901 0z" fill-rule="evenodd"></path><path fill="#000000" d="m76.46781 180.58612l-1.546875 0l0 -13.59375l1.65625 0l0 4.84375q1.0625 -1.328125 2.703125 -1.328125q0.90625 0 1.71875 0.375q0.8125 0.359375 1.328125 1.03125q0.53125 0.65625 0.828125 1.59375q0.296875 0.9375 0.296875 2.0q0 2.53125 -1.25 3.921875q-1.25 1.375 -3.0 1.375q-1.75 0 -2.734375 -1.453125l0 1.234375zm-0.015625 -5.0q0 1.765625 0.46875 2.5625q0.796875 1.28125 2.140625 1.28125q1.09375 0 1.890625 -0.9375q0.796875 -0.953125 0.796875 -2.84375q0 -1.921875 -0.765625 -2.84375q-0.765625 -0.921875 -1.84375 -0.921875q-1.09375 0 -1.890625 0.953125q-0.796875 0.953125 -0.796875 2.75z" fill-rule="nonzero"></path><path fill="#000000" fill-opacity="0.0" d="m46.047245 203.04303l81.732285 0" fill-rule="evenodd"></path><path stroke="#595959" stroke-width="1.0" stroke-linejoin="round" stroke-linecap="butt" d="m46.047245 203.04301l75.732285 0" fill-rule="evenodd"></path><path fill="#595959" stroke="#595959" stroke-width="1.0" stroke-linecap="butt" d="m121.779526 204.69475l4.538101 -1.6517334l-4.538101 -1.6517334z" fill-rule="evenodd"></path><path fill="#000000" fill-opacity="0.0" d="m65.35204 195.75914l28.818901 0l0 31.496063l-28.818901 0z" fill-rule="evenodd"></path><path fill="#000000" d="m82.03954 219.06976l1.640625 0.21875q-0.265625 1.6875 -1.375 2.65625q-1.109375 0.953125 -2.734375 0.953125q-2.015625 0 -3.25 -1.3125q-1.21875 -1.328125 -1.21875 -3.796875q0 -1.59375 0.515625 -2.78125q0.53125 -1.203125 1.609375 -1.796875q1.09375 -0.609375 2.359375 -0.609375q1.609375 0 2.625 0.8125q1.015625 0.8125 1.3125 2.3125l-1.625 0.25q-0.234375 -1.0 -0.828125 -1.5q-0.59375 -0.5 -1.421875 -0.5q-1.265625 0 -2.0625 0.90625q-0.78125 0.90625 -0.78125 2.859375q0 1.984375 0.765625 2.890625q0.765625 0.890625 1.984375 0.890625q0.984375 0 1.640625 -0.59375q0.65625 -0.609375 0.84375 -1.859375z" fill-rule="nonzero"></path><path fill="#000000" fill-opacity="0.0" d="m127.89833 68.56003l76.25197 0l0 17.70079" fill-rule="evenodd"></path><path stroke="#595959" stroke-width="1.0" stroke-linejoin="round" stroke-linecap="butt" d="m127.89834 68.56003l76.25196 0l0 11.70079" fill-rule="evenodd"></path><path fill="#595959" stroke="#595959" stroke-width="1.0" stroke-linecap="butt" d="m202.49857 80.26082l1.6517334 4.5380936l1.6517334 -4.5380936z" fill-rule="evenodd"></path><path fill="#000000" fill-opacity="0.0" d="m128.08731 187.33731l76.06299 0l0 -21.858261" fill-rule="evenodd"></path><path stroke="#595959" stroke-width="1.0" stroke-linejoin="round" stroke-linecap="butt" d="m128.08731 187.33731l76.06299 0l0 -15.858261" fill-rule="evenodd"></path><path fill="#595959" stroke="#595959" stroke-width="1.0" stroke-linecap="butt" d="m205.80203 171.47905l-1.6517334 -4.538101l-1.6517334 4.538101z" fill-rule="evenodd"></path><path fill="#000000" fill-opacity="0.0" d="m127.89239 203.20851l115.62205 0l0 -21.32283" fill-rule="evenodd"></path><path stroke="#595959" stroke-width="1.0" stroke-linejoin="round" stroke-linecap="butt" d="m127.89239 203.20851l115.62205 0l0 -15.32283" fill-rule="evenodd"></path><path fill="#595959" stroke="#595959" stroke-width="1.0" stroke-linecap="butt" d="m245.16617 187.88568l-1.6517334 -4.538101l-1.6517334 4.538101z" fill-rule="evenodd"></path><path fill="#000000" fill-opacity="0.0" d="m353.02362 211.39633l254.64569 0.3464508" fill-rule="evenodd"></path><path stroke="#595959" stroke-width="1.0" stroke-linejoin="round" stroke-linecap="butt" d="m353.02362 211.39633l248.64569 0.33828735" fill-rule="evenodd"></path><path fill="#595959" stroke="#595959" stroke-width="1.0" stroke-linecap="butt" d="m601.66705 213.38635l4.540344 -1.6455536l-4.5358276 -1.6579132z" fill-rule="evenodd"></path><path fill="#000000" fill-opacity="0.0" d="m379.4786 139.18611l198.61417 0" fill-rule="evenodd"></path><path stroke="#595959" stroke-width="1.0" stroke-linejoin="round" stroke-linecap="butt" d="m379.47864 139.18611l192.6142 0" fill-rule="evenodd"></path><path fill="#595959" stroke="#595959" stroke-width="1.0" stroke-linecap="butt" d="m572.09283 140.83784l4.538086 -1.6517334l-4.538086 -1.6517334z" fill-rule="evenodd"></path><path fill="#000000" fill-opacity="0.0" d="m553.2467 89.742676l24.787415 0.25196838" fill-rule="evenodd"></path><path stroke="#595959" stroke-width="1.0" stroke-linejoin="round" stroke-linecap="butt" d="m553.2467 89.74268l18.78772 0.19097137" fill-rule="evenodd"></path><path fill="#595959" stroke="#595959" stroke-width="1.0" stroke-linecap="butt" d="m572.01764 91.585304l4.5546265 -1.6055145l-4.521057 -1.6977768z" fill-rule="evenodd"></path><path fill="#000000" fill-opacity="0.0" d="m379.8924 89.64819l27.905487 0.09448242" fill-rule="evenodd"></path><path stroke="#595959" stroke-width="1.0" stroke-linejoin="round" stroke-linecap="butt" d="m379.8924 89.64819l21.905548 0.074165344" fill-rule="evenodd"></path><path fill="#595959" stroke="#595959" stroke-width="1.0" stroke-linecap="butt" d="m401.79233 91.374084l4.5436707 -1.6363525l-4.5324707 -1.6670914z" fill-rule="evenodd"></path><path fill="#000000" fill-opacity="0.0" d="m353.02362 89.65092l26.519684 0" fill-rule="evenodd"></path><path stroke="#595959" stroke-width="1.0" stroke-linejoin="round" stroke-linecap="butt" d="m353.02362 89.65092l20.519684 0" fill-rule="evenodd"></path><path fill="#595959" stroke="#595959" stroke-width="1.0" stroke-linecap="butt" d="m373.5433 91.30265l4.538086 -1.6517334l-4.538086 -1.6517334z" fill-rule="evenodd"></path><path fill="#000000" fill-opacity="0.0" d="m352.67453 138.48843l26.86615 0.3464508" fill-rule="evenodd"></path><path stroke="#595959" stroke-width="1.0" stroke-linejoin="round" stroke-linecap="butt" d="m352.67453 138.48843l20.866638 0.26908875" fill-rule="evenodd"></path><path fill="#595959" stroke="#595959" stroke-width="1.0" stroke-linecap="butt" d="m373.5199 140.40912l4.5589905 -1.5930786l-4.5164185 -1.7101135z" fill-rule="evenodd"></path><path fill="#000000" fill-opacity="0.0" d="m578.0236 90.000244l29.637817 0" fill-rule="evenodd"></path><path stroke="#595959" stroke-width="1.0" stroke-linejoin="round" stroke-linecap="butt" d="m578.0236 90.000244l23.637817 0" fill-rule="evenodd"></path><path fill="#595959" stroke="#595959" stroke-width="1.0" stroke-linecap="butt" d="m601.66144 91.65198l4.538086 -1.6517334l-4.538086 -1.6517334z" fill-rule="evenodd"></path><path fill="#000000" fill-opacity="0.0" d="m578.0236 138.48843l29.637817 0" fill-rule="evenodd"></path><path stroke="#595959" stroke-width="1.0" stroke-linejoin="round" stroke-linecap="butt" d="m578.0236 138.48843l23.637817 0" fill-rule="evenodd"></path><path fill="#595959" stroke="#595959" stroke-width="1.0" stroke-linecap="butt" d="m601.66144 140.14017l4.538086 -1.6517334l-4.538086 -1.6517334z" fill-rule="evenodd"></path><path fill="#000000" fill-opacity="0.0" d="m243.51443 69.85418l0 -24.999908l82.590515 0l0 45.157394l26.921295 0" fill-rule="evenodd"></path><path stroke="#595959" stroke-width="1.0" stroke-linejoin="round" stroke-linecap="butt" d="m243.51443 69.85418l0 -24.999908l82.590546 0l0 45.157387l20.921265 0" fill-rule="evenodd"></path><path fill="#595959" stroke="#595959" stroke-width="1.0" stroke-linecap="butt" d="m347.02625 91.66339l4.538086 -1.6517334l-4.538086 -1.6517334z" fill-rule="evenodd"></path><path fill="#000000" fill-opacity="0.0" d="m282.87857 86.26082l0 -16.494385l29.680328 0l0 68.80934l40.303925 0" fill-rule="evenodd"></path><path stroke="#595959" stroke-width="1.0" stroke-linejoin="round" stroke-linecap="butt" d="m282.87857 86.26082l0 -16.494392l29.680328 0l0 68.80935l34.303925 0" fill-rule="evenodd"></path><path fill="#595959" stroke="#595959" stroke-width="1.0" stroke-linecap="butt" d="m346.86282 140.22751l4.538086 -1.6517334l-4.538086 -1.6517334z" fill-rule="evenodd"></path><path fill="#000000" fill-opacity="0.0" d="m282.87857 165.47905l0 46.614166l70.834656 0" fill-rule="evenodd"></path><path stroke="#595959" stroke-width="1.0" stroke-linejoin="round" stroke-linecap="butt" d="m282.87857 165.47905l0 46.614166l64.834656 0" fill-rule="evenodd"></path><path fill="#595959" stroke="#595959" stroke-width="1.0" stroke-linecap="butt" d="m347.71323 213.74495l4.538086 -1.6517334l-4.538086 -1.6517334z" fill-rule="evenodd"></path><path fill="#000000" fill-opacity="0.0" d="m247.54904 11.593838l29.51181 0l0 31.496063l-29.51181 0z" fill-rule="evenodd"></path><path fill="#000000" d="m264.23654 37.295086q-0.9375 0.796875 -1.796875 1.125q-0.859375 0.3125 -1.84375 0.3125q-1.609375 0 -2.484375 -0.78125q-0.875 -0.796875 -0.875 -2.03125q0 -0.734375 0.328125 -1.328125q0.328125 -0.59375 0.859375 -0.953125q0.53125 -0.359375 1.203125 -0.546875q0.5 -0.140625 1.484375 -0.25q2.03125 -0.25 2.984375 -0.578125q0 -0.34375 0 -0.4375q0 -1.015625 -0.46875 -1.4375q-0.640625 -0.5625 -1.90625 -0.5625q-1.171875 0 -1.734375 0.40625q-0.5625 0.40625 -0.828125 1.46875l-1.640625 -0.234375q0.234375 -1.046875 0.734375 -1.6875q0.515625 -0.640625 1.46875 -0.984375q0.96875 -0.359375 2.25 -0.359375q1.265625 0 2.046875 0.296875q0.78125 0.296875 1.15625 0.75q0.375 0.453125 0.515625 1.140625q0.09375 0.421875 0.09375 1.53125l0 2.234375q0 2.328125 0.09375 2.953125q0.109375 0.609375 0.4375 1.171875l-1.75 0q-0.265625 -0.515625 -0.328125 -1.21875zm-0.140625 -3.71875q-0.90625 0.359375 -2.734375 0.625q-1.03125 0.140625 -1.453125 0.328125q-0.421875 0.1875 -0.65625 0.546875q-0.234375 0.359375 -0.234375 0.796875q0 0.671875 0.5 1.125q0.515625 0.4375 1.484375 0.4375q0.96875 0 1.71875 -0.421875q0.75 -0.4375 1.109375 -1.15625q0.265625 -0.578125 0.265625 -1.671875l0 -0.609375z" fill-rule="nonzero"></path><path fill="#000000" fill-opacity="0.0" d="m264.2467 34.36379l29.51184 0l0 31.496067l-29.51184 0z" fill-rule="evenodd"></path><path fill="#000000" d="m276.04358 61.283787l-1.546875 0l0 -13.59375l1.65625 0l0 4.84375q1.0625 -1.328125 2.703125 -1.328125q0.90625 0 1.71875 0.375q0.8125 0.359375 1.328125 1.03125q0.53125 0.65625 0.828125 1.59375q0.296875 0.9375 0.296875 2.0q0 2.53125 -1.25 3.921875q-1.25 1.375 -3.0 1.375q-1.75 0 -2.734375 -1.453125l0 1.234375zm-0.015625 -5.0q0 1.765625 0.46875 2.5625q0.796875 1.28125 2.140625 1.28125q1.09375 0 1.890625 -0.9375q0.796875 -0.953125 0.796875 -2.84375q0 -1.921875 -0.765625 -2.84375q-0.765625 -0.921875 -1.84375 -0.921875q-1.09375 0 -1.890625 0.953125q-0.796875 0.953125 -0.796875 2.75z" fill-rule="nonzero"></path><path fill="#000000" fill-opacity="0.0" d="m286.85138 178.36378l29.51181 0l0 31.496063l-29.51181 0z" fill-rule="evenodd"></path><path fill="#000000" d="m303.53888 201.67441l1.640625 0.21875q-0.265625 1.6875 -1.375 2.65625q-1.109375 0.953125 -2.734375 0.953125q-2.015625 0 -3.25 -1.3125q-1.21875 -1.328125 -1.21875 -3.796875q0 -1.59375 0.515625 -2.78125q0.53125 -1.203125 1.609375 -1.796875q1.09375 -0.609375 2.359375 -0.609375q1.609375 0 2.625 0.8125q1.015625 0.8125 1.3125 2.3125l-1.625 0.25q-0.234375 -1.0 -0.828125 -1.5q-0.59375 -0.5 -1.421875 -0.5q-1.265625 0 -2.0625 0.90625q-0.78125 0.90625 -0.78125 2.859375q0 1.984375 0.765625 2.890625q0.765625 0.890625 1.984375 0.890625q0.984375 0 1.640625 -0.59375q0.65625 -0.609375 0.84375 -1.859375z" fill-rule="nonzero"></path><path fill="#000000" fill-opacity="0.0" d="m607.5092 90.26363l19.00293 0l0 -42.822655l85.9104 0l0 30.4132" fill-rule="evenodd"></path><path stroke="#595959" stroke-width="1.0" stroke-linejoin="round" stroke-linecap="butt" d="m607.5092 90.263626l19.00293 0l0 -42.822647l85.9104 0l0 24.4132" fill-rule="evenodd"></path><path fill="#595959" stroke="#595959" stroke-width="1.0" stroke-linecap="butt" d="m710.7708 71.85418l1.6517334 4.538101l1.6517334 -4.538101z" fill-rule="evenodd"></path><path fill="#000000" fill-opacity="0.0" d="m607.51514 211.99873l65.543274 0l0 -38.519684" fill-rule="evenodd"></path><path stroke="#595959" stroke-width="1.0" stroke-linejoin="round" stroke-linecap="butt" d="m607.51514 211.99873l65.543274 0l0 -32.519684" fill-rule="evenodd"></path><path fill="#595959" stroke="#595959" stroke-width="1.0" stroke-linecap="butt" d="m674.71014 179.47905l-1.6517334 -4.538101l-1.6517334 4.538101z" fill-rule="evenodd"></path><path fill="#000000" fill-opacity="0.0" d="m607.38916 138.51279l33.075623 0l0 -62.465637l32.593628 0l0 18.213669" fill-rule="evenodd"></path><path stroke="#595959" stroke-width="1.0" stroke-linejoin="round" stroke-linecap="butt" d="m607.38916 138.51279l33.075623 0l0 -62.465637l32.593628 0l0 12.213669" fill-rule="evenodd"></path><path fill="#595959" stroke="#595959" stroke-width="1.0" stroke-linecap="butt" d="m671.4067 88.26082l1.6517334 4.5380936l1.6517334 -4.5380936z" fill-rule="evenodd"></path><path fill="#000000" fill-opacity="0.0" d="m632.2467 40.270767l29.51184 0l0 31.496063l-29.51184 0z" fill-rule="evenodd"></path><path fill="#000000" d="m644.0436 67.190765l-1.546875 0l0 -13.59375l1.65625 0l0 4.84375q1.0625 -1.328125 2.703125 -1.328125q0.90625 0 1.71875 0.375q0.8125 0.359375 1.328125 1.03125q0.53125 0.65625 0.828125 1.59375q0.296875 0.9375 0.296875 2.0q0 2.53125 -1.25 3.921875q-1.25 1.375 -3.0 1.375q-1.75 0 -2.734375 -1.453125l0 1.234375zm-0.015625 -5.0q0 1.765625 0.46875 2.5625q0.796875 1.28125 2.140625 1.28125q1.09375 0 1.890625 -0.9375q0.796875 -0.953125 0.796875 -2.84375q0 -1.921875 -0.765625 -2.84375q-0.765625 -0.921875 -1.84375 -0.921875q-1.09375 0 -1.890625 0.953125q-0.796875 0.953125 -0.796875 2.75z" fill-rule="nonzero"></path><path fill="#000000" fill-opacity="0.0" d="m623.5491 10.896163l29.51178 0l0 31.496063l-29.51178 0z" fill-rule="evenodd"></path><path fill="#000000" d="m640.2366 36.597412q-0.9375 0.796875 -1.796875 1.125q-0.859375 0.3125 -1.84375 0.3125q-1.609375 0 -2.484375 -0.78125q-0.875 -0.796875 -0.875 -2.03125q0 -0.734375 0.328125 -1.328125q0.328125 -0.59375 0.859375 -0.953125q0.53125 -0.359375 1.203125 -0.546875q0.5 -0.140625 1.484375 -0.25q2.03125 -0.2500019 2.984375 -0.5781269q0 -0.34375 0 -0.4375q0 -1.015625 -0.46875 -1.4375q-0.640625 -0.5625 -1.90625 -0.5625q-1.171875 0 -1.734375 0.40625q-0.5625 0.40625 -0.828125 1.46875l-1.640625 -0.234375q0.234375 -1.046875 0.734375 -1.6875q0.515625 -0.640625 1.46875 -0.984375q0.96875 -0.359375 2.25 -0.359375q1.265625 0 2.046875 0.296875q0.78125 0.296875 1.15625 0.75q0.375 0.453125 0.515625 1.140625q0.09375 0.421875 0.09375 1.53125l0 2.234377q0 2.328125 0.09375 2.953125q0.109375 0.609375 0.4375 1.171875l-1.75 0q-0.265625 -0.515625 -0.328125 -1.21875zm-0.140625 -3.71875q-0.90625 0.359375 -2.734375 0.625q-1.03125 0.140625 -1.453125 0.328125q-0.421875 0.1875 -0.65625 0.546875q-0.234375 0.359375 -0.234375 0.796875q0 0.671875 0.5 1.125q0.515625 0.4375 1.484375 0.4375q0.96875 0 1.71875 -0.421875q0.75 -0.4375 1.109375 -1.15625q0.265625 -0.578125 0.265625 -1.671875l0 -0.609375z" fill-rule="nonzero"></path><path fill="#000000" fill-opacity="0.0" d="m630.8514 178.36378l29.51178 0l0 31.496063l-29.51178 0z" fill-rule="evenodd"></path><path fill="#000000" d="m647.5389 201.67441l1.640625 0.21875q-0.265625 1.6875 -1.375 2.65625q-1.109375 0.953125 -2.734375 0.953125q-2.015625 0 -3.25 -1.3125q-1.21875 -1.328125 -1.21875 -3.796875q0 -1.59375 0.515625 -2.78125q0.53125 -1.203125 1.609375 -1.796875q1.09375 -0.609375 2.359375 -0.609375q1.609375 0 2.625 0.8125q1.015625 0.8125 1.3125 2.3125l-1.625 0.25q-0.234375 -1.0 -0.828125 -1.5q-0.59375 -0.5 -1.421875 -0.5q-1.265625 0 -2.0625 0.90625q-0.78125 0.90625 -0.78125 2.859375q0 1.984375 0.765625 2.890625q0.765625 0.890625 1.984375 0.890625q0.984375 0 1.640625 -0.59375q0.65625 -0.609375 0.84375 -1.859375z" fill-rule="nonzero"></path><path fill="#000000" fill-opacity="0.0" d="m825.35614 68.48518l83.71655 0" fill-rule="evenodd"></path><path stroke="#595959" stroke-width="1.0" stroke-linejoin="round" stroke-linecap="butt" d="m825.35614 68.485176l77.71655 0" fill-rule="evenodd"></path><path fill="#595959" stroke="#595959" stroke-width="1.0" stroke-linecap="butt" d="m903.0727 70.13691l4.538086 -1.6517334l-4.538086 -1.6517258z" fill-rule="evenodd"></path><path fill="#000000" fill-opacity="0.0" d="m825.35614 187.04303l83.71655 0" fill-rule="evenodd"></path><path stroke="#595959" stroke-width="1.0" stroke-linejoin="round" stroke-linecap="butt" d="m825.35614 187.04301l77.71655 0" fill-rule="evenodd"></path><path fill="#595959" stroke="#595959" stroke-width="1.0" stroke-linecap="butt" d="m903.0727 188.69475l4.538086 -1.6517334l-4.538086 -1.6517334z" fill-rule="evenodd"></path><path fill="#000000" fill-opacity="0.0" d="m845.13043 37.68686l29.51184 0l0 31.496063l-29.51184 0z" fill-rule="evenodd"></path><path fill="#000000" d="m861.81793 63.388107q-0.9375 0.796875 -1.796875 1.125q-0.859375 0.3125 -1.84375 0.3125q-1.609375 0 -2.484375 -0.78125q-0.875 -0.796875 -0.875 -2.03125q0 -0.734375 0.328125 -1.328125q0.328125 -0.59375 0.859375 -0.953125q0.53125 -0.359375 1.203125 -0.546875q0.5 -0.140625 1.484375 -0.25q2.03125 -0.25 2.984375 -0.578125q0 -0.34375 0 -0.4375q0 -1.015625 -0.46875 -1.4375q-0.640625 -0.5625 -1.90625 -0.5625q-1.171875 0 -1.734375 0.40625q-0.5625 0.40625 -0.828125 1.46875l-1.640625 -0.234375q0.234375 -1.046875 0.734375 -1.6875q0.515625 -0.640625 1.46875 -0.984375q0.96875 -0.359375 2.25 -0.359375q1.265625 0 2.046875 0.296875q0.78125 0.296875 1.15625 0.75q0.375 0.453125 0.515625 1.140625q0.09375 0.421875 0.09375 1.53125l0 2.234375q0 2.328125 0.09375 2.953125q0.109375 0.609375 0.4375 1.171875l-1.75 0q-0.265625 -0.515625 -0.328125 -1.21875zm-0.140625 -3.71875q-0.90625 0.359375 -2.734375 0.625q-1.03125 0.140625 -1.453125 0.328125q-0.421875 0.1875 -0.65625 0.546875q-0.234375 0.359375 -0.234375 0.796875q0 0.671875 0.5 1.125q0.515625 0.4375 1.484375 0.4375q0.96875 0 1.71875 -0.421875q0.75 -0.4375 1.109375 -1.15625q0.265625 -0.578125 0.265625 -1.671875l0 -0.609375z" fill-rule="nonzero"></path><path fill="#000000" fill-opacity="0.0" d="m844.43274 153.66612l29.51184 0l0 31.496063l-29.51184 0z" fill-rule="evenodd"></path><path fill="#000000" d="m856.2296 180.58612l-1.546875 0l0 -13.59375l1.65625 0l0 4.84375q1.0625 -1.328125 2.703125 -1.328125q0.90625 0 1.71875 0.375q0.8125 0.359375 1.328125 1.03125q0.53125 0.65625 0.828125 1.59375q0.296875 0.9375 0.296875 2.0q0 2.53125 -1.25 3.921875q-1.25 1.375 -3.0 1.375q-1.75 0 -2.734375 -1.453125l0 1.234375zm-0.015625 -5.0q0 1.765625 0.46875 2.5625q0.796875 1.28125 2.140625 1.28125q1.09375 0 1.890625 -0.9375q0.796875 -0.953125 0.796875 -2.84375q0 -1.921875 -0.765625 -2.84375q-0.765625 -0.921875 -1.84375 -0.921875q-1.09375 0 -1.890625 0.953125q-0.796875 0.953125 -0.796875 2.75z" fill-rule="nonzero"></path><path fill="#000000" fill-opacity="0.0" d="m825.35614 203.04303l83.71655 0" fill-rule="evenodd"></path><path stroke="#595959" stroke-width="1.0" stroke-linejoin="round" stroke-linecap="butt" d="m825.35614 203.04301l77.71655 0" fill-rule="evenodd"></path><path fill="#595959" stroke="#595959" stroke-width="1.0" stroke-linecap="butt" d="m903.0727 204.69475l4.538086 -1.6517334l-4.538086 -1.6517334z" fill-rule="evenodd"></path><path fill="#000000" fill-opacity="0.0" d="m845.13043 195.75914l29.51184 0l0 31.496063l-29.51184 0z" fill-rule="evenodd"></path><path fill="#000000" d="m861.81793 219.06976l1.640625 0.21875q-0.265625 1.6875 -1.375 2.65625q-1.109375 0.953125 -2.734375 0.953125q-2.015625 0 -3.25 -1.3125q-1.21875 -1.328125 -1.21875 -3.796875q0 -1.59375 0.515625 -2.78125q0.53125 -1.203125 1.609375 -1.796875q1.09375 -0.609375 2.359375 -0.609375q1.609375 0 2.625 0.8125q1.015625 0.8125 1.3125 2.3125l-1.625 0.25q-0.234375 -1.0 -0.828125 -1.5q-0.59375 -0.5 -1.421875 -0.5q-1.265625 0 -2.0625 0.90625q-0.78125 0.90625 -0.78125 2.859375q0 1.984375 0.765625 2.890625q0.765625 0.890625 1.984375 0.890625q0.984375 0 1.640625 -0.59375q0.65625 -0.609375 0.84375 -1.859375z" fill-rule="nonzero"></path><path fill="#000000" fill-opacity="0.0" d="m751.7867 94.26082l0 -25.196854l74.96063 0" fill-rule="evenodd"></path><path stroke="#595959" stroke-width="1.0" stroke-linejoin="round" stroke-linecap="butt" d="m751.78674 94.26082l0 -25.196854l68.96063 0" fill-rule="evenodd"></path><path fill="#595959" stroke="#595959" stroke-width="1.0" stroke-linecap="butt" d="m820.7474 70.7157l4.538086 -1.6517334l-4.538086 -1.6517334z" fill-rule="evenodd"></path><path fill="#000000" fill-opacity="0.0" d="m751.7867 173.47905l0 13.51181l74.26776 0" fill-rule="evenodd"></path><path stroke="#595959" stroke-width="1.0" stroke-linejoin="round" stroke-linecap="butt" d="m751.78674 173.47905l0 13.51181l68.2677 0" fill-rule="evenodd"></path><path fill="#595959" stroke="#595959" stroke-width="1.0" stroke-linecap="butt" d="m820.05444 188.6426l4.538086 -1.6517334l-4.538086 -1.6517334z" fill-rule="evenodd"></path><path fill="#000000" fill-opacity="0.0" d="m712.42255 189.88568l0 13.480316l113.98425 0" fill-rule="evenodd"></path><path stroke="#595959" stroke-width="1.0" stroke-linejoin="round" stroke-linecap="butt" d="m712.42255 189.88568l0 13.480316l107.98425 0" fill-rule="evenodd"></path><path fill="#595959" stroke="#595959" stroke-width="1.0" stroke-linecap="butt" d="m820.4068 205.01773l4.538147 -1.6517334l-4.538147 -1.6517334z" fill-rule="evenodd"></path></g></svg>

