<?xml version="1.0" standalone="yes"?>

<svg version="1.1" viewBox="0.0 0.0 960.0 540.0" fill="none" stroke="none" stroke-linecap="square" stroke-miterlimit="10" xmlns="http://www.w3.org/2000/svg" xmlns:xlink="http://www.w3.org/1999/xlink"><clipPath id="g200dd00d73_0_99.0"><path d="m0 0l960.0 0l0 540.0l-960.0 0l0 -540.0z" clip-rule="nonzero"></path></clipPath><g clip-path="url(#g200dd00d73_0_99.0)"><path fill="#ffffff" d="m0 0l960.0 0l0 540.0l-960.0 0z" fill-rule="evenodd"></path><path fill="#eeeeee" d="m127.908134 15.349081l698.1417 0l0 247.1811l-698.1417 0z" fill-rule="evenodd"></path><path stroke="#595959" stroke-width="1.0" stroke-linejoin="round" stroke-linecap="butt" d="m127.908134 15.349081l698.1417 0l0 247.1811l-698.1417 0z" fill-rule="evenodd"></path><path fill="#000000" d="m138.68939 246.01518q0.1875 -0.9375 0.640625 -1.703125q0.46875 -0.765625 1.078125 -1.28125q0.609375 -0.53125 1.296875 -0.8125q0.703125 -0.296875 1.390625 -0.296875q0.71875 0 1.203125 0.28125q0.484375 0.265625 0.9375 0.734375l0.25 -1.453125l0.640625 -2.984375l1.3125 0l-2.421875 11.390625l-1.078125 0l0.09375 -1.03125l-0.046875 0q-0.578125 0.5 -1.328125 0.859375q-0.734375 0.359375 -1.453125 0.359375q-0.78125 0 -1.328125 -0.265625q-0.546875 -0.28125 -0.890625 -0.796875q-0.34375 -0.515625 -0.4375 -1.265625q-0.078125 -0.75 0.140625 -1.734375zm1.359375 -0.015625q-0.296875 1.40625 0.125 2.203125q0.4375 0.78125 1.53125 0.78125q1.15625 0 2.4375 -1.171875l0.828125 -3.875q-0.421875 -0.5 -0.890625 -0.703125q-0.453125 -0.203125 -0.96875 -0.203125q-0.515625 0 -1.0 0.21875q-0.46875 0.203125 -0.890625 0.609375q-0.40625 0.390625 -0.71875 0.9375q-0.3125 0.53125 -0.453125 1.203125zm9.553146 -3.890625l4.9375 0l-1.65625 7.78125l-1.3125 0l1.421875 -6.703125l-3.625 0l0.234375 -1.078125zm4.46875 -1.59375q-0.453125 0 -0.703125 -0.265625q-0.234375 -0.28125 -0.140625 -0.75q0.109375 -0.453125 0.453125 -0.734375q0.359375 -0.28125 0.8125 -0.28125q0.453125 0 0.703125 0.28125q0.25 0.28125 0.140625 0.734375q-0.09375 0.46875 -0.453125 0.75q-0.359375 0.265625 -0.8125 0.265625zm4.6468964 1.59375l1.03125 0l-0.109375 1.03125l0.046875 0q0.40625 -0.546875 0.859375 -0.875q0.46875 -0.34375 1.140625 -0.34375q1.1875 0 1.1875 1.34375q0.484375 -0.609375 0.96875 -0.96875q0.5 -0.375 1.15625 -0.375q0.8125 0 1.125 0.625q0.3125 0.609375 0.0625 1.78125l-1.1875 5.5625l-1.265625 0l1.15625 -5.453125q0.296875 -1.375 -0.546875 -1.375q-0.40625 0 -0.78125 0.296875q-0.359375 0.296875 -0.796875 0.90625l-1.203125 5.625l-1.046875 0l1.15625 -5.453125q0.296875 -1.375 -0.59375 -1.375q-0.40625 0 -0.765625 0.296875q-0.34375 0.296875 -0.78125 0.90625l-1.203125 5.625l-1.265625 0l1.65625 -7.78125zm8.709396 5.765625q0.140625 -0.65625 0.5625 -1.140625q0.421875 -0.484375 1.171875 -0.84375q0.75 -0.359375 1.859375 -0.578125q1.125 -0.21875 2.65625 -0.34375q0.0625 -0.40625 0.03125 -0.75q-0.03125 -0.359375 -0.21875 -0.625q-0.1875 -0.265625 -0.546875 -0.421875q-0.34375 -0.15625 -0.90625 -0.15625q-0.765625 0 -1.546875 0.296875q-0.765625 0.296875 -1.375 0.625l-0.328125 -0.890625q0.34375 -0.203125 0.765625 -0.390625q0.4375 -0.203125 0.90625 -0.359375q0.484375 -0.171875 1.0 -0.265625q0.515625 -0.109375 1.03125 -0.109375q1.59375 0 2.1875 0.875q0.59375 0.875 0.28125 2.328125l-1.015625 4.765625l-1.0625 0l0.109375 -1.0625l-0.046875 0q-0.765625 0.515625 -1.640625 0.890625q-0.875 0.359375 -1.703125 0.359375q-0.546875 0 -1.0 -0.15625q-0.4375 -0.140625 -0.734375 -0.421875q-0.296875 -0.28125 -0.421875 -0.6875q-0.125 -0.40625 -0.015625 -0.9375zm1.3125 -0.09375q-0.078125 0.328125 0.015625 0.5625q0.09375 0.234375 0.296875 0.390625q0.203125 0.140625 0.5 0.21875q0.296875 0.078125 0.625 0.078125q0.671875 0 1.375 -0.296875q0.71875 -0.296875 1.5 -0.859375l0.4375 -2.046875q-1.25 0.09375 -2.140625 0.28125q-0.875 0.171875 -1.4375 0.421875q-0.546875 0.234375 -0.828125 0.546875q-0.265625 0.3125 -0.34375 0.703125zm9.225021 2.765625l-0.5625 2.625l-1.3125 0l2.359375 -11.0625l1.09375 0l-0.109375 1.0l0.046875 0q0.65625 -0.515625 1.4375 -0.84375q0.78125 -0.34375 1.5 -0.34375q0.78125 0 1.328125 0.28125q0.546875 0.28125 0.84375 0.796875q0.296875 0.515625 0.34375 1.25q0.0625 0.734375 -0.140625 1.640625q-0.203125 0.984375 -0.65625 1.765625q-0.453125 0.78125 -1.0625 1.328125q-0.59375 0.53125 -1.296875 0.8125q-0.703125 0.28125 -1.40625 0.28125q-0.546875 0 -1.125 -0.265625q-0.5625 -0.265625 -1.0 -0.734375l-0.28125 1.46875zm0.53125 -2.484375q0.453125 0.5 0.96875 0.71875q0.515625 0.203125 0.90625 0.203125q1.0625 0 1.90625 -0.8125q0.859375 -0.828125 1.15625 -2.28125q0.140625 -0.640625 0.125 -1.171875q0 -0.53125 -0.1875 -0.90625q-0.1875 -0.375 -0.578125 -0.578125q-0.375 -0.203125 -0.9375 -0.203125q-0.515625 0 -1.15625 0.28125q-0.640625 0.28125 -1.375 0.875l-0.828125 3.875z" fill-rule="nonzero"></path><path fill="#000000" d="m195.80515 247.87456q0 -0.65625 0.3125 -1.140625q0.3125 -0.484375 0.984375 -0.84375q0.6875 -0.359375 1.75 -0.578125q1.078125 -0.21875 2.578125 -0.34375q-0.015625 -0.40625 -0.125 -0.75q-0.109375 -0.359375 -0.359375 -0.625q-0.234375 -0.265625 -0.625 -0.421875q-0.390625 -0.15625 -0.953125 -0.15625q-0.765625 0 -1.46875 0.296875q-0.703125 0.296875 -1.25 0.625l-0.515625 -0.890625q0.296875 -0.203125 0.6875 -0.390625q0.390625 -0.203125 0.828125 -0.359375q0.4375 -0.171875 0.9375 -0.265625q0.5 -0.109375 1.015625 -0.109375q1.59375 0 2.359375 0.875q0.78125 0.875 0.78125 2.328125l0 4.765625l-1.0625 0l-0.109375 -1.0625l-0.046875 0q-0.65625 0.515625 -1.453125 0.890625q-0.796875 0.359375 -1.625 0.359375q-0.546875 0 -1.03125 -0.15625q-0.46875 -0.140625 -0.828125 -0.421875q-0.359375 -0.28125 -0.578125 -0.6875q-0.203125 -0.40625 -0.203125 -0.9375zm1.28125 -0.09375q0 0.328125 0.140625 0.5625q0.140625 0.234375 0.375 0.390625q0.234375 0.140625 0.546875 0.21875q0.3125 0.078125 0.640625 0.078125q0.671875 0 1.3125 -0.296875q0.65625 -0.296875 1.328125 -0.859375l0 -2.046875q-1.234375 0.09375 -2.078125 0.28125q-0.84375 0.171875 -1.359375 0.421875q-0.5 0.234375 -0.703125 0.546875q-0.203125 0.3125 -0.203125 0.703125zm8.818771 0.21875q0.65625 0.484375 1.40625 0.78125q0.75 0.28125 1.8125 0.28125q1.046875 0 1.5625 -0.34375q0.515625 -0.359375 0.515625 -0.875q0 -0.453125 -0.5625 -0.796875q-0.546875 -0.359375 -1.96875 -0.703125q-0.609375 -0.15625 -1.15625 -0.359375q-0.53125 -0.203125 -0.9375 -0.484375q-0.390625 -0.28125 -0.640625 -0.609375q-0.234375 -0.34375 -0.234375 -0.765625q0 -0.453125 0.203125 -0.859375q0.21875 -0.421875 0.625 -0.703125q0.40625 -0.296875 1.015625 -0.46875q0.625 -0.171875 1.421875 -0.171875q0.890625 0 1.71875 0.296875q0.828125 0.296875 1.40625 0.703125l-0.640625 0.84375q-0.515625 -0.375 -1.140625 -0.59375q-0.625 -0.21875 -1.34375 -0.21875q-0.546875 0 -0.921875 0.09375q-0.359375 0.078125 -0.578125 0.234375q-0.21875 0.140625 -0.328125 0.359375q-0.09375 0.203125 -0.09375 0.421875q0 0.484375 0.65625 0.796875q0.65625 0.3125 1.71875 0.578125q1.578125 0.40625 2.34375 0.921875q0.765625 0.5 0.765625 1.40625q0 0.484375 -0.234375 0.90625q-0.21875 0.40625 -0.65625 0.734375q-0.4375 0.3125 -1.09375 0.484375q-0.640625 0.1875 -1.484375 0.1875q-1.140625 0 -2.109375 -0.359375q-0.96875 -0.359375 -1.6875 -0.859375l0.640625 -0.859375zm9.600021 0q0.65625 0.484375 1.40625 0.78125q0.75 0.28125 1.8125 0.28125q1.046875 0 1.5625 -0.34375q0.515625 -0.359375 0.515625 -0.875q0 -0.453125 -0.5625 -0.796875q-0.546875 -0.359375 -1.96875 -0.703125q-0.609375 -0.15625 -1.15625 -0.359375q-0.53125 -0.203125 -0.9375 -0.484375q-0.390625 -0.28125 -0.640625 -0.609375q-0.234375 -0.34375 -0.234375 -0.765625q0 -0.453125 0.203125 -0.859375q0.21875 -0.421875 0.625 -0.703125q0.40625 -0.296875 1.015625 -0.46875q0.625 -0.171875 1.421875 -0.171875q0.890625 0 1.71875 0.296875q0.828125 0.296875 1.40625 0.703125l-0.640625 0.84375q-0.515625 -0.375 -1.140625 -0.59375q-0.625 -0.21875 -1.34375 -0.21875q-0.546875 0 -0.921875 0.09375q-0.359375 0.078125 -0.578125 0.234375q-0.21875 0.140625 -0.328125 0.359375q-0.09375 0.203125 -0.09375 0.421875q0 0.484375 0.65625 0.796875q0.65625 0.3125 1.71875 0.578125q1.578125 0.40625 2.34375 0.921875q0.765625 0.5 0.765625 1.40625q0 0.484375 -0.234375 0.90625q-0.21875 0.40625 -0.65625 0.734375q-0.4375 0.3125 -1.09375 0.484375q-0.640625 0.1875 -1.484375 0.1875q-1.140625 0 -2.109375 -0.359375q-0.96875 -0.359375 -1.6875 -0.859375l0.640625 -0.859375zm8.756271 -1.984375q0 -0.96875 0.3125 -1.734375q0.3125 -0.765625 0.84375 -1.28125q0.53125 -0.53125 1.21875 -0.796875q0.703125 -0.28125 1.46875 -0.28125q0.765625 0 1.453125 0.28125q0.703125 0.265625 1.234375 0.796875q0.53125 0.515625 0.84375 1.28125q0.3125 0.765625 0.3125 1.734375q0 0.96875 -0.3125 1.734375q-0.3125 0.75 -0.84375 1.265625q-0.53125 0.515625 -1.234375 0.796875q-0.6875 0.265625 -1.453125 0.265625q-0.765625 0 -1.46875 -0.265625q-0.6875 -0.28125 -1.21875 -0.796875q-0.53125 -0.515625 -0.84375 -1.265625q-0.3125 -0.765625 -0.3125 -1.734375zm1.359375 0q0 0.671875 0.171875 1.21875q0.1875 0.546875 0.515625 0.9375q0.328125 0.390625 0.78125 0.609375q0.453125 0.21875 1.015625 0.21875q0.5625 0 1.015625 -0.21875q0.453125 -0.21875 0.78125 -0.609375q0.328125 -0.390625 0.5 -0.9375q0.1875 -0.546875 0.1875 -1.21875q0 -0.671875 -0.1875 -1.21875q-0.171875 -0.546875 -0.5 -0.953125q-0.328125 -0.40625 -0.78125 -0.609375q-0.453125 -0.21875 -1.015625 -0.21875q-0.5625 0 -1.015625 0.21875q-0.453125 0.203125 -0.78125 0.609375q-0.328125 0.40625 -0.515625 0.953125q-0.171875 0.546875 -0.171875 1.21875zm8.568771 0q0 -0.96875 0.34375 -1.734375q0.34375 -0.765625 0.9375 -1.28125q0.59375 -0.53125 1.375 -0.796875q0.796875 -0.28125 1.671875 -0.28125q0.96875 0 1.65625 0.34375q0.703125 0.328125 1.1875 0.796875l-0.65625 0.84375q-0.484375 -0.421875 -1.015625 -0.65625q-0.515625 -0.234375 -1.125 -0.234375q-0.671875 0 -1.234375 0.21875q-0.546875 0.203125 -0.9375 0.609375q-0.390625 0.40625 -0.625 0.953125q-0.21875 0.546875 -0.21875 1.21875q0 0.671875 0.21875 1.21875q0.21875 0.546875 0.609375 0.9375q0.390625 0.390625 0.9375 0.609375q0.546875 0.21875 1.21875 0.21875q0.734375 0 1.328125 -0.28125q0.59375 -0.28125 1.09375 -0.703125l0.578125 0.84375q-0.640625 0.578125 -1.4375 0.90625q-0.78125 0.3125 -1.65625 0.3125q-0.90625 0 -1.6875 -0.265625q-0.765625 -0.28125 -1.34375 -0.796875q-0.578125 -0.515625 -0.90625 -1.265625q-0.3125 -0.765625 -0.3125 -1.734375zm19.215668 1.859375q0 -0.65625 0.3125 -1.140625q0.3125 -0.484375 0.984375 -0.84375q0.6875 -0.359375 1.75 -0.578125q1.078125 -0.21875 2.578125 -0.34375q-0.015625 -0.40625 -0.125 -0.75q-0.109375 -0.359375 -0.359375 -0.625q-0.234375 -0.265625 -0.625 -0.421875q-0.390625 -0.15625 -0.953125 -0.15625q-0.765625 0 -1.46875 0.296875q-0.703125 0.296875 -1.25 0.625l-0.515625 -0.890625q0.296875 -0.203125 0.6875 -0.390625q0.390625 -0.203125 0.828125 -0.359375q0.4375 -0.171875 0.9375 -0.265625q0.5 -0.109375 1.015625 -0.109375q1.59375 0 2.359375 0.875q0.78125 0.875 0.78125 2.328125l0 4.765625l-1.0625 0l-0.109375 -1.0625l-0.046875 0q-0.65625 0.515625 -1.453125 0.890625q-0.796875 0.359375 -1.625 0.359375q-0.546875 0 -1.03125 -0.15625q-0.46875 -0.140625 -0.828125 -0.421875q-0.359375 -0.28125 -0.578125 -0.6875q-0.203125 -0.40625 -0.203125 -0.9375zm1.28125 -0.09375q0 0.328125 0.140625 0.5625q0.140625 0.234375 0.375 0.390625q0.234375 0.140625 0.546875 0.21875q0.3125 0.078125 0.640625 0.078125q0.671875 0 1.3125 -0.296875q0.65625 -0.296875 1.328125 -0.859375l0 -2.046875q-1.234375 0.09375 -2.078125 0.28125q-0.84375 0.171875 -1.359375 0.421875q-0.5 0.234375 -0.703125 0.546875q-0.203125 0.3125 -0.203125 0.703125zm8.818756 0.21875q0.65625 0.484375 1.40625 0.78125q0.75 0.28125 1.8125 0.28125q1.046875 0 1.5625 -0.34375q0.515625 -0.359375 0.515625 -0.875q0 -0.453125 -0.5625 -0.796875q-0.546875 -0.359375 -1.96875 -0.703125q-0.609375 -0.15625 -1.15625 -0.359375q-0.53125 -0.203125 -0.9375 -0.484375q-0.390625 -0.28125 -0.640625 -0.609375q-0.234375 -0.34375 -0.234375 -0.765625q0 -0.453125 0.203125 -0.859375q0.21875 -0.421875 0.625 -0.703125q0.40625 -0.296875 1.015625 -0.46875q0.625 -0.171875 1.421875 -0.171875q0.890625 0 1.71875 0.296875q0.828125 0.296875 1.40625 0.703125l-0.640625 0.84375q-0.515625 -0.375 -1.140625 -0.59375q-0.625 -0.21875 -1.34375 -0.21875q-0.546875 0 -0.921875 0.09375q-0.359375 0.078125 -0.578125 0.234375q-0.21875 0.140625 -0.328125 0.359375q-0.09375 0.203125 -0.09375 0.421875q0 0.484375 0.65625 0.796875q0.65625 0.3125 1.71875 0.578125q1.578125 0.40625 2.34375 0.921875q0.765625 0.5 0.765625 1.40625q0 0.484375 -0.234375 0.90625q-0.21875 0.40625 -0.65625 0.734375q-0.4375 0.3125 -1.09375 0.484375q-0.640625 0.1875 -1.484375 0.1875q-1.140625 0 -2.109375 -0.359375q-0.96875 -0.359375 -1.6875 -0.859375l0.640625 -0.859375zm9.600037 0q0.65625 0.484375 1.40625 0.78125q0.75 0.28125 1.8125 0.28125q1.046875 0 1.5625 -0.34375q0.515625 -0.359375 0.515625 -0.875q0 -0.453125 -0.5625 -0.796875q-0.546875 -0.359375 -1.96875 -0.703125q-0.609375 -0.15625 -1.15625 -0.359375q-0.53125 -0.203125 -0.9375 -0.484375q-0.390625 -0.28125 -0.640625 -0.609375q-0.234375 -0.34375 -0.234375 -0.765625q0 -0.453125 0.203125 -0.859375q0.21875 -0.421875 0.625 -0.703125q0.40625 -0.296875 1.015625 -0.46875q0.625 -0.171875 1.421875 -0.171875q0.890625 0 1.71875 0.296875q0.828125 0.296875 1.40625 0.703125l-0.640625 0.84375q-0.515625 -0.375 -1.140625 -0.59375q-0.625 -0.21875 -1.34375 -0.21875q-0.546875 0 -0.921875 0.09375q-0.359375 0.078125 -0.578125 0.234375q-0.21875 0.140625 -0.328125 0.359375q-0.09375 0.203125 -0.09375 0.421875q0 0.484375 0.65625 0.796875q0.65625 0.3125 1.71875 0.578125q1.578125 0.40625 2.34375 0.921875q0.765625 0.5 0.765625 1.40625q0 0.484375 -0.234375 0.90625q-0.21875 0.40625 -0.65625 0.734375q-0.4375 0.3125 -1.09375 0.484375q-0.640625 0.1875 -1.484375 0.1875q-1.140625 0 -2.109375 -0.359375q-0.96875 -0.359375 -1.6875 -0.859375l0.640625 -0.859375zm8.756256 -1.984375q0 -0.96875 0.3125 -1.734375q0.3125 -0.765625 0.84375 -1.28125q0.53125 -0.53125 1.21875 -0.796875q0.703125 -0.28125 1.46875 -0.28125q0.765625 0 1.453125 0.28125q0.703125 0.265625 1.234375 0.796875q0.53125 0.515625 0.84375 1.28125q0.3125 0.765625 0.3125 1.734375q0 0.96875 -0.3125 1.734375q-0.3125 0.75 -0.84375 1.265625q-0.53125 0.515625 -1.234375 0.796875q-0.6875 0.265625 -1.453125 0.265625q-0.765625 0 -1.46875 -0.265625q-0.6875 -0.28125 -1.21875 -0.796875q-0.53125 -0.515625 -0.84375 -1.265625q-0.3125 -0.765625 -0.3125 -1.734375zm1.359375 0q0 0.671875 0.171875 1.21875q0.1875 0.546875 0.515625 0.9375q0.328125 0.390625 0.78125 0.609375q0.453125 0.21875 1.015625 0.21875q0.5625 0 1.015625 -0.21875q0.453125 -0.21875 0.78125 -0.609375q0.328125 -0.390625 0.5 -0.9375q0.1875 -0.546875 0.1875 -1.21875q0 -0.671875 -0.1875 -1.21875q-0.171875 -0.546875 -0.5 -0.953125q-0.328125 -0.40625 -0.78125 -0.609375q-0.453125 -0.21875 -1.015625 -0.21875q-0.5625 0 -1.015625 0.21875q-0.453125 0.203125 -0.78125 0.609375q-0.328125 0.40625 -0.515625 0.953125q-0.171875 0.546875 -0.171875 1.21875zm8.568787 0q0 -0.96875 0.34375 -1.734375q0.34375 -0.765625 0.9375 -1.28125q0.59375 -0.53125 1.375 -0.796875q0.796875 -0.28125 1.671875 -0.28125q0.96875 0 1.65625 0.34375q0.703125 0.328125 1.1875 0.796875l-0.65625 0.84375q-0.484375 -0.421875 -1.015625 -0.65625q-0.515625 -0.234375 -1.125 -0.234375q-0.671875 0 -1.234375 0.21875q-0.546875 0.203125 -0.9375 0.609375q-0.390625 0.40625 -0.625 0.953125q-0.21875 0.546875 -0.21875 1.21875q0 0.671875 0.21875 1.21875q0.21875 0.546875 0.609375 0.9375q0.390625 0.390625 0.9375 0.609375q0.546875 0.21875 1.21875 0.21875q0.734375 0 1.328125 -0.28125q0.59375 -0.28125 1.09375 -0.703125l0.578125 0.84375q-0.640625 0.578125 -1.4375 0.90625q-0.78125 0.3125 -1.65625 0.3125q-0.90625 0 -1.6875 -0.265625q-0.765625 -0.28125 -1.34375 -0.796875q-0.578125 -0.515625 -0.90625 -1.265625q-0.3125 -0.765625 -0.3125 -1.734375zm11.787506 -2.5q0.765625 -0.40625 1.1875 -1.03125q0.4375 -0.640625 0.484375 -1.484375q-0.203125 0.09375 -0.421875 0.09375q-0.515625 0 -0.828125 -0.3125q-0.3125 -0.3125 -0.3125 -0.828125q0 -0.5625 0.328125 -0.90625q0.34375 -0.34375 0.859375 -0.34375q0.640625 0 1.03125 0.515625q0.40625 0.515625 0.40625 1.421875q0 1.203125 -0.609375 2.15625q-0.609375 0.9375 -1.671875 1.5l-0.453125 -0.78125z" fill-rule="nonzero"></path><path fill="#d9d2e9" d="m352.67715 26.16273l254.64566 0l0 213.13385l-254.64566 0z" fill-rule="evenodd"></path><path stroke="#595959" stroke-width="1.0" stroke-linejoin="round" stroke-linecap="butt" d="m352.67715 26.16273l254.64566 0l0 213.13385l-254.64566 0z" fill-rule="evenodd"></path><path fill="#000000" d="m372.7709 216.51598q-0.421875 -0.234375 -0.828125 -0.296875q-0.390625 -0.078125 -0.890625 -0.078125q-1.0625 0 -1.640625 0.546875q-0.5625 0.53125 -0.765625 1.484375l-0.140625 0.703125l3.265625 0l-0.234375 1.078125l-3.265625 0l-1.421875 6.703125l-1.296875 0l1.421875 -6.703125l-2.234375 0l0.21875 -1.0l2.25 -0.078125l0.140625 -0.65625q0.296875 -1.421875 1.234375 -2.28125q0.953125 -0.859375 2.578125 -0.859375q1.140625 0 2.140625 0.4375l-0.53125 1.0zm1.6000366 2.359375l4.9375 0l-1.65625 7.78125l-1.3125 0l1.421875 -6.703125l-3.625 0l0.234375 -1.078125zm4.46875 -1.59375q-0.453125 0 -0.703125 -0.265625q-0.234375 -0.28125 -0.140625 -0.75q0.109375 -0.453125 0.453125 -0.734375q0.359375 -0.28125 0.8125 -0.28125q0.453125 0 0.703125 0.28125q0.25 0.28125 0.140625 0.734375q-0.09375 0.46875 -0.453125 0.75q-0.359375 0.265625 -0.8125 0.265625zm6.037506 1.59375l1.078125 0l-0.28125 1.84375l0.046875 0q0.8125 -0.9375 1.8125 -1.484375q1.0 -0.546875 2.09375 -0.546875q0.421875 0 0.765625 0.078125q0.359375 0.0625 0.703125 0.25l-0.546875 1.125q-0.375 -0.140625 -0.65625 -0.203125q-0.265625 -0.0625 -0.734375 -0.0625q-0.875 0 -1.78125 0.5q-0.90625 0.5 -1.890625 1.71875l-0.96875 4.5625l-1.296875 0l1.65625 -7.78125zm7.8031616 5.890625q0.546875 0.484375 1.234375 0.78125q0.6875 0.28125 1.75 0.28125q1.046875 0 1.640625 -0.34375q0.59375 -0.359375 0.703125 -0.875q0.09375 -0.453125 -0.390625 -0.796875q-0.46875 -0.359375 -1.828125 -0.703125q-0.578125 -0.15625 -1.078125 -0.359375q-0.484375 -0.203125 -0.828125 -0.484375q-0.328125 -0.28125 -0.5 -0.609375q-0.171875 -0.34375 -0.09375 -0.765625q0.109375 -0.453125 0.40625 -0.859375q0.296875 -0.421875 0.765625 -0.703125q0.46875 -0.296875 1.109375 -0.46875q0.65625 -0.171875 1.453125 -0.171875q0.890625 0 1.65625 0.296875q0.765625 0.296875 1.265625 0.703125l-0.828125 0.84375q-0.4375 -0.375 -1.015625 -0.59375q-0.578125 -0.21875 -1.296875 -0.21875q-0.546875 0 -0.9375 0.09375q-0.375 0.078125 -0.625 0.234375q-0.25 0.140625 -0.40625 0.359375q-0.140625 0.203125 -0.1875 0.421875q-0.09375 0.484375 0.484375 0.796875q0.59375 0.3125 1.609375 0.578125q1.484375 0.40625 2.140625 0.921875q0.65625 0.5 0.46875 1.40625q-0.109375 0.484375 -0.421875 0.90625q-0.3125 0.40625 -0.828125 0.734375q-0.5 0.3125 -1.1875 0.484375q-0.6875 0.1875 -1.53125 0.1875q-1.140625 0 -2.03125 -0.359375q-0.890625 -0.359375 -1.5 -0.859375l0.828125 -0.859375zm12.115631 -4.8125l-2.1875 0l0.21875 -1.0l2.25 -0.078125l0.625 -2.171875l1.09375 0l-0.453125 2.171875l3.828125 0l-0.234375 1.078125l-3.828125 0l-0.78125 3.6875q-0.109375 0.53125 -0.109375 0.921875q0.015625 0.390625 0.1875 0.671875q0.171875 0.265625 0.515625 0.40625q0.359375 0.140625 0.921875 0.140625q0.5625 0 1.03125 -0.09375q0.46875 -0.109375 0.921875 -0.265625l0.078125 0.96875q-0.578125 0.1875 -1.25 0.3125q-0.671875 0.140625 -1.3125 0.140625q-0.84375 0 -1.375 -0.21875q-0.515625 -0.234375 -0.78125 -0.65625q-0.25 -0.4375 -0.28125 -1.015625q-0.015625 -0.59375 0.140625 -1.328125l0.78125 -3.671875z" fill-rule="nonzero"></path><path fill="#d9ead3" d="m379.15222 37.687664l198.70868 0l0 152.22047l-198.70868 0z" fill-rule="evenodd"></path><path stroke="#595959" stroke-width="1.0" stroke-linejoin="round" stroke-linecap="butt" d="m379.15222 37.687664l198.70868 0l0 152.22047l-198.70868 0z" fill-rule="evenodd"></path><path fill="#000000" d="m399.24597 167.12752q-0.421875 -0.234375 -0.828125 -0.296875q-0.390625 -0.078125 -0.890625 -0.078125q-1.0625 0 -1.640625 0.546875q-0.5625 0.53125 -0.765625 1.484375l-0.140625 0.703125l3.265625 0l-0.234375 1.078125l-3.265625 0l-1.421875 6.703125l-1.296875 0l1.421875 -6.703125l-2.234375 0l0.21875 -1.0l2.25 -0.078125l0.140625 -0.65625q0.296875 -1.421875 1.234375 -2.28125q0.953125 -0.859375 2.578125 -0.859375q1.140625 0 2.140625 0.4375l-0.53125 1.0zm1.6000366 2.359375l4.9375 0l-1.65625 7.78125l-1.3125 0l1.421875 -6.703125l-3.625 0l0.234375 -1.078125zm4.46875 -1.59375q-0.453125 0 -0.703125 -0.265625q-0.234375 -0.28125 -0.140625 -0.75q0.109375 -0.453125 0.453125 -0.734375q0.359375 -0.28125 0.8125 -0.28125q0.453125 0 0.703125 0.28125q0.25 0.28125 0.140625 0.734375q-0.09375 0.46875 -0.453125 0.75q-0.359375 0.265625 -0.8125 0.265625zm6.037506 1.59375l1.078125 0l-0.28125 1.84375l0.046875 0q0.8125 -0.9375 1.8125 -1.484375q1.0 -0.546875 2.09375 -0.546875q0.421875 0 0.765625 0.078125q0.359375 0.0625 0.703125 0.25l-0.546875 1.125q-0.375 -0.140625 -0.65625 -0.203125q-0.265625 -0.0625 -0.734375 -0.0625q-0.875 0 -1.78125 0.5q-0.90625 0.5 -1.890625 1.71875l-0.96875 4.5625l-1.296875 0l1.65625 -7.78125zm7.8031616 5.890625q0.546875 0.484375 1.234375 0.78125q0.6875 0.28125 1.75 0.28125q1.046875 0 1.640625 -0.34375q0.59375 -0.359375 0.703125 -0.875q0.09375 -0.453125 -0.390625 -0.796875q-0.46875 -0.359375 -1.828125 -0.703125q-0.578125 -0.15625 -1.078125 -0.359375q-0.484375 -0.203125 -0.828125 -0.484375q-0.328125 -0.28125 -0.5 -0.609375q-0.171875 -0.34375 -0.09375 -0.765625q0.109375 -0.453125 0.40625 -0.859375q0.296875 -0.421875 0.765625 -0.703125q0.46875 -0.296875 1.109375 -0.46875q0.65625 -0.171875 1.453125 -0.171875q0.890625 0 1.65625 0.296875q0.765625 0.296875 1.265625 0.703125l-0.828125 0.84375q-0.4375 -0.375 -1.015625 -0.59375q-0.578125 -0.21875 -1.296875 -0.21875q-0.546875 0 -0.9375 0.09375q-0.375 0.078125 -0.625 0.234375q-0.25 0.140625 -0.40625 0.359375q-0.140625 0.203125 -0.1875 0.421875q-0.09375 0.484375 0.484375 0.796875q0.59375 0.3125 1.609375 0.578125q1.484375 0.40625 2.140625 0.921875q0.65625 0.5 0.46875 1.40625q-0.109375 0.484375 -0.421875 0.90625q-0.3125 0.40625 -0.828125 0.734375q-0.5 0.3125 -1.1875 0.484375q-0.6875 0.1875 -1.53125 0.1875q-1.140625 0 -2.03125 -0.359375q-0.890625 -0.359375 -1.5 -0.859375l0.828125 -0.859375zm12.115631 -4.8125l-2.1875 0l0.21875 -1.0l2.25 -0.078125l0.625 -2.171875l1.09375 0l-0.453125 2.171875l3.828125 0l-0.234375 1.078125l-3.828125 0l-0.78125 3.6875q-0.109375 0.53125 -0.109375 0.921875q0.015625 0.390625 0.1875 0.671875q0.171875 0.265625 0.515625 0.40625q0.359375 0.140625 0.921875 0.140625q0.5625 0 1.03125 -0.09375q0.46875 -0.109375 0.921875 -0.265625l0.078125 0.96875q-0.578125 0.1875 -1.25 0.3125q-0.671875 0.140625 -1.3125 0.140625q-0.84375 0 -1.375 -0.21875q-0.515625 -0.234375 -0.78125 -0.65625q-0.25 -0.4375 -0.28125 -1.015625q-0.015625 -0.59375 0.140625 -1.328125l0.78125 -3.671875z" fill-rule="nonzero"></path><path fill="#ffffff" d="m446.6696 273.73895l66.66177 0l0 15.919525l-66.66177 0zm0 23.879272l66.66177 0l0 15.919525l-66.66177 0z" fill-rule="evenodd"></path><path stroke="#595959" stroke-width="1.0" stroke-linejoin="round" stroke-linecap="butt" d="m446.6696 273.73895l66.66177 0l0 15.919525l-66.66177 0zm0 23.879272l66.66177 0l0 15.919525l-66.66177 0z" fill-rule="evenodd"></path><path fill="#eeeeee" d="m128.1811 325.29398l698.1417 0l0 185.3858l-698.1417 0z" fill-rule="evenodd"></path><path stroke="#595959" stroke-width="1.0" stroke-linejoin="round" stroke-linecap="butt" d="m128.1811 325.29398l698.1417 0l0 185.3858l-698.1417 0z" fill-rule="evenodd"></path><path fill="#000000" d="m148.27486 487.89917q-0.421875 -0.234375 -0.828125 -0.296875q-0.390625 -0.078125 -0.890625 -0.078125q-1.0625 0 -1.640625 0.546875q-0.5625 0.53125 -0.765625 1.484375l-0.140625 0.703125l3.265625 0l-0.234375 1.078125l-3.265625 0l-1.421875 6.703125l-1.296875 0l1.421875 -6.703125l-2.234375 0l0.21875 -1.0l2.25 -0.078125l0.140625 -0.65625q0.296875 -1.421875 1.234375 -2.28125q0.953125 -0.859375 2.578125 -0.859375q1.140625 0 2.140625 0.4375l-0.53125 1.0zm1.6000214 2.359375l4.9375 0l-1.65625 7.78125l-1.3125 0l1.421875 -6.703125l-3.625 0l0.234375 -1.078125zm4.46875 -1.59375q-0.453125 0 -0.703125 -0.265625q-0.234375 -0.28125 -0.140625 -0.75q0.109375 -0.453125 0.453125 -0.734375q0.359375 -0.28125 0.8125 -0.28125q0.453125 0 0.703125 0.28125q0.25 0.28125 0.140625 0.734375q-0.09375 0.46875 -0.453125 0.75q-0.359375 0.265625 -0.8125 0.265625zm6.0375214 1.59375l1.078125 0l-0.28125 1.84375l0.046875 0q0.8125 -0.9375 1.8125 -1.484375q1.0 -0.546875 2.09375 -0.546875q0.421875 0 0.765625 0.078125q0.359375 0.0625 0.703125 0.25l-0.546875 1.125q-0.375 -0.140625 -0.65625 -0.203125q-0.265625 -0.0625 -0.734375 -0.0625q-0.875 0 -1.78125 0.5q-0.90625 0.5 -1.890625 1.71875l-0.96875 4.5625l-1.296875 0l1.65625 -7.78125zm7.8031464 5.890625q0.546875 0.484375 1.234375 0.78125q0.6875 0.28125 1.75 0.28125q1.046875 0 1.640625 -0.34375q0.59375 -0.359375 0.703125 -0.875q0.09375 -0.453125 -0.390625 -0.796875q-0.46875 -0.359375 -1.828125 -0.703125q-0.578125 -0.15625 -1.078125 -0.359375q-0.484375 -0.203125 -0.828125 -0.484375q-0.328125 -0.28125 -0.5 -0.609375q-0.171875 -0.34375 -0.09375 -0.765625q0.109375 -0.453125 0.40625 -0.859375q0.296875 -0.421875 0.765625 -0.703125q0.46875 -0.296875 1.109375 -0.46875q0.65625 -0.171875 1.453125 -0.171875q0.890625 0 1.65625 0.296875q0.765625 0.296875 1.265625 0.703125l-0.828125 0.84375q-0.4375 -0.375 -1.015625 -0.59375q-0.578125 -0.21875 -1.296875 -0.21875q-0.546875 0 -0.9375 0.09375q-0.375 0.078125 -0.625 0.234375q-0.25 0.140625 -0.40625 0.359375q-0.140625 0.203125 -0.1875 0.421875q-0.09375 0.484375 0.484375 0.796875q0.59375 0.3125 1.609375 0.578125q1.484375 0.40625 2.140625 0.921875q0.65625 0.5 0.46875 1.40625q-0.109375 0.484375 -0.421875 0.90625q-0.3125 0.40625 -0.828125 0.734375q-0.5 0.3125 -1.1875 0.484375q-0.6875 0.1875 -1.53125 0.1875q-1.140625 0 -2.03125 -0.359375q-0.890625 -0.359375 -1.5 -0.859375l0.828125 -0.859375zm12.115646 -4.8125l-2.1875 0l0.21875 -1.0l2.25 -0.078125l0.625 -2.171875l1.09375 0l-0.453125 2.171875l3.828125 0l-0.234375 1.078125l-3.828125 0l-0.78125 3.6875q-0.109375 0.53125 -0.109375 0.921875q0.015625 0.390625 0.1875 0.671875q0.171875 0.265625 0.515625 0.40625q0.359375 0.140625 0.921875 0.140625q0.5625 0 1.03125 -0.09375q0.46875 -0.109375 0.921875 -0.265625l0.078125 0.96875q-0.578125 0.1875 -1.25 0.3125q-0.671875 0.140625 -1.3125 0.140625q-0.84375 0 -1.375 -0.21875q-0.515625 -0.234375 -0.78125 -0.65625q-0.25 -0.4375 -0.28125 -1.015625q-0.015625 -0.59375 0.140625 -1.328125l0.78125 -3.671875z" fill-rule="nonzero"></path><path fill="#cfe2f3" d="m388.46188 347.14313l167.3071 0l0 73.00787l-167.3071 0z" fill-rule="evenodd"></path><path stroke="#595959" stroke-width="1.0" stroke-linejoin="round" stroke-linecap="butt" d="m388.46188 347.14313l167.3071 0l0 73.00787l-167.3071 0z" fill-rule="evenodd"></path><path fill="#000000" d="m468.47165 378.28833l2.34375 0l0 2.75l-0.125 1.53125q0.234375 -0.234375 0.515625 -0.4375q0.28125 -0.21875 0.609375 -0.390625q0.328125 -0.171875 0.71875 -0.265625q0.390625 -0.09375 0.84375 -0.09375q1.34375 0 1.953125 0.859375q0.625 0.859375 0.625 2.375l0 4.890625l-2.359375 0l0 -4.59375q0 -0.796875 -0.25 -1.15625q-0.25 -0.375 -0.90625 -0.375q-0.484375 0 -0.84375 0.203125q-0.359375 0.203125 -0.78125 0.625l0 5.296875l-2.34375 0l0 -11.21875z" fill-rule="nonzero"></path><path fill="#000000" fill-opacity="0.0" d="m46.047245 382.95062l82.36221 -0.2204895" fill-rule="evenodd"></path><path stroke="#595959" stroke-width="1.0" stroke-linejoin="round" stroke-linecap="butt" d="m46.04725 382.95062l76.36222 -0.20440674" fill-rule="evenodd"></path><path fill="#595959" stroke="#595959" stroke-width="1.0" stroke-linecap="butt" d="m122.413895 384.39795l4.533661 -1.6638794l-4.5425034 -1.6395874z" fill-rule="evenodd"></path><path fill="#000000" fill-opacity="0.0" d="m826.5906 383.86353l82.48816 -0.2204895" fill-rule="evenodd"></path><path stroke="#595959" stroke-width="1.0" stroke-linejoin="round" stroke-linecap="butt" d="m826.5906 383.86353l76.48816 -0.20443726" fill-rule="evenodd"></path><path fill="#595959" stroke="#595959" stroke-width="1.0" stroke-linecap="butt" d="m903.0832 385.31082l4.5336304 -1.6638794l-4.5424805 -1.6395874z" fill-rule="evenodd"></path><path fill="#000000" fill-opacity="0.0" d="m555.769 383.64706l270.83466 0.22045898" fill-rule="evenodd"></path><path stroke="#595959" stroke-width="1.0" stroke-linejoin="round" stroke-linecap="butt" d="m555.7689 383.64706l264.83466 0.21560669" fill-rule="evenodd"></path><path fill="#595959" stroke="#595959" stroke-width="1.0" stroke-linecap="butt" d="m820.60223 385.51437l4.5394287 -1.6480408l-4.536743 -1.655426z" fill-rule="evenodd"></path><path fill="#000000" fill-opacity="0.0" d="m128.39888 382.95416l260.063 0.6929016" fill-rule="evenodd"></path><path stroke="#595959" stroke-width="1.0" stroke-linejoin="round" stroke-linecap="butt" d="m128.3989 382.95416l254.06302 0.6769104" fill-rule="evenodd"></path><path fill="#595959" stroke="#595959" stroke-width="1.0" stroke-linecap="butt" d="m382.4575 385.2828l4.5424805 -1.6396484l-4.5336914 -1.6638184z" fill-rule="evenodd"></path><path fill="#000000" fill-opacity="0.0" d="m46.803726 453.36893l81.60629 0.25195312" fill-rule="evenodd"></path><path stroke="#595959" stroke-width="1.0" stroke-linejoin="round" stroke-linecap="butt" d="m46.80373 453.36893l75.60632 0.23342896" fill-rule="evenodd"></path><path fill="#595959" stroke="#595959" stroke-width="1.0" stroke-linecap="butt" d="m122.40495 455.2541l4.5431747 -1.6376953l-4.5329742 -1.665741z" fill-rule="evenodd"></path><path fill="#000000" fill-opacity="0.0" d="m826.5906 453.40945l82.078735 -0.03149414" fill-rule="evenodd"></path><path stroke="#595959" stroke-width="1.0" stroke-linejoin="round" stroke-linecap="butt" d="m826.5906 453.40945l76.078735 -0.029205322" fill-rule="evenodd"></path><path fill="#595959" stroke="#595959" stroke-width="1.0" stroke-linecap="butt" d="m902.6699 455.03198l4.5374756 -1.6534729l-4.5387573 -1.6499939z" fill-rule="evenodd"></path><path fill="#000000" fill-opacity="0.0" d="m128.40945 453.86353l697.95276 -0.2204895" fill-rule="evenodd"></path><path stroke="#595959" stroke-width="1.0" stroke-linejoin="round" stroke-linecap="butt" d="m128.40945 453.86353l691.95276 -0.21859741" fill-rule="evenodd"></path><path fill="#595959" stroke="#595959" stroke-width="1.0" stroke-linecap="butt" d="m820.36273 455.29666l4.5375977 -1.6531677l-4.5386353 -1.6502991z" fill-rule="evenodd"></path><path fill="#000000" fill-opacity="0.0" d="m68.24477 352.1523l32.0 0l0 31.496033l-32.0 0z" fill-rule="evenodd"></path><path fill="#000000" d="m84.93227 377.85355q-0.9375 0.796875 -1.796875 1.125q-0.859375 0.3125 -1.84375 0.3125q-1.609375 0 -2.484375 -0.78125q-0.875 -0.796875 -0.875 -2.03125q0 -0.734375 0.328125 -1.328125q0.328125 -0.59375 0.859375 -0.953125q0.53125 -0.359375 1.203125 -0.546875q0.5 -0.140625 1.484375 -0.25q2.03125 -0.25 2.984375 -0.578125q0 -0.34375 0 -0.4375q0 -1.015625 -0.46875 -1.4375q-0.640625 -0.5625 -1.90625 -0.5625q-1.171875 0 -1.734375 0.40625q-0.5625 0.40625 -0.828125 1.46875l-1.640625 -0.234375q0.234375 -1.046875 0.734375 -1.6875q0.515625 -0.640625 1.46875 -0.984375q0.96875 -0.359375 2.25 -0.359375q1.265625 0 2.046875 0.296875q0.78125 0.296875 1.15625 0.75q0.375 0.453125 0.515625 1.140625q0.09375 0.421875 0.09375 1.53125l0 2.234375q0 2.328125 0.09375 2.953125q0.109375 0.609375 0.4375 1.171875l-1.75 0q-0.265625 -0.515625 -0.328125 -1.21875zm-0.140625 -3.71875q-0.90625 0.359375 -2.734375 0.625q-1.03125 0.140625 -1.453125 0.328125q-0.421875 0.1875 -0.65625 0.546875q-0.234375 0.359375 -0.234375 0.796875q0 0.671875 0.5 1.125q0.515625 0.4375 1.484375 0.4375q0.96875 0 1.71875 -0.421875q0.75 -0.4375 1.109375 -1.15625q0.265625 -0.578125 0.265625 -1.671875l0 -0.609375z" fill-rule="nonzero"></path><path fill="#000000" fill-opacity="0.0" d="m843.8397 352.15198l31.811035 0l0 31.496063l-31.811035 0z" fill-rule="evenodd"></path><path fill="#000000" d="m860.5272 377.85324q-0.9375 0.796875 -1.796875 1.125q-0.859375 0.3125 -1.84375 0.3125q-1.609375 0 -2.484375 -0.78125q-0.875 -0.796875 -0.875 -2.03125q0 -0.734375 0.328125 -1.328125q0.328125 -0.59375 0.859375 -0.953125q0.53125 -0.359375 1.203125 -0.546875q0.5 -0.140625 1.484375 -0.25q2.03125 -0.25 2.984375 -0.578125q0 -0.34375 0 -0.4375q0 -1.015625 -0.46875 -1.4375q-0.640625 -0.5625 -1.90625 -0.5625q-1.171875 0 -1.734375 0.40625q-0.5625 0.40625 -0.828125 1.46875l-1.640625 -0.234375q0.234375 -1.046875 0.734375 -1.6875q0.515625 -0.640625 1.46875 -0.984375q0.96875 -0.359375 2.25 -0.359375q1.265625 0 2.046875 0.296875q0.78125 0.296875 1.15625 0.75q0.375 0.453125 0.515625 1.140625q0.09375 0.421875 0.09375 1.53125l0 2.234375q0 2.328125 0.09375 2.953125q0.109375 0.609375 0.4375 1.171875l-1.75 0q-0.265625 -0.515625 -0.328125 -1.21875zm-0.140625 -3.71875q-0.90625 0.359375 -2.734375 0.625q-1.03125 0.140625 -1.453125 0.328125q-0.421875 0.1875 -0.65625 0.546875q-0.234375 0.359375 -0.234375 0.796875q0 0.671875 0.5 1.125q0.515625 0.4375 1.484375 0.4375q0.96875 0 1.71875 -0.421875q0.75 -0.4375 1.109375 -1.15625q0.265625 -0.578125 0.265625 -1.671875l0 -0.609375z" fill-rule="nonzero"></path><path fill="#000000" fill-opacity="0.0" d="m67.48829 419.992l32.0 0l0 31.496063l-32.0 0z" fill-rule="evenodd"></path><path fill="#000000" d="m79.285164 446.91202l-1.546875 0l0 -13.59375l1.65625 0l0 4.84375q1.0625 -1.328125 2.703125 -1.328125q0.90625 0 1.71875 0.375q0.8125 0.359375 1.328125 1.03125q0.53125 0.65625 0.828125 1.59375q0.296875 0.9375 0.296875 2.0q0 2.53125 -1.25 3.921875q-1.25 1.375 -3.0 1.375q-1.75 0 -2.734375 -1.453125l0 1.234375zm-0.015625 -5.0q0 1.765625 0.46875 2.5625q0.796875 1.28125 2.140625 1.28125q1.09375 0 1.890625 -0.9375q0.796875 -0.953125 0.796875 -2.84375q0 -1.921875 -0.765625 -2.84375q-0.765625 -0.921875 -1.84375 -0.921875q-1.09375 0 -1.890625 0.953125q-0.796875 0.953125 -0.796875 2.75z" fill-rule="nonzero"></path><path fill="#000000" fill-opacity="0.0" d="m269.90942 352.15198l29.51181 0l0 31.496063l-29.51181 0z" fill-rule="evenodd"></path><path fill="#000000" d="m286.59692 377.85324q-0.9375 0.796875 -1.796875 1.125q-0.859375 0.3125 -1.84375 0.3125q-1.609375 0 -2.484375 -0.78125q-0.875 -0.796875 -0.875 -2.03125q0 -0.734375 0.328125 -1.328125q0.328125 -0.59375 0.859375 -0.953125q0.53125 -0.359375 1.203125 -0.546875q0.5 -0.140625 1.484375 -0.25q2.03125 -0.25 2.984375 -0.578125q0 -0.34375 0 -0.4375q0 -1.015625 -0.46875 -1.4375q-0.640625 -0.5625 -1.90625 -0.5625q-1.171875 0 -1.734375 0.40625q-0.5625 0.40625 -0.828125 1.46875l-1.640625 -0.234375q0.234375 -1.046875 0.734375 -1.6875q0.515625 -0.640625 1.46875 -0.984375q0.96875 -0.359375 2.25 -0.359375q1.265625 0 2.046875 0.296875q0.78125 0.296875 1.15625 0.75q0.375 0.453125 0.515625 1.140625q0.09375 0.421875 0.09375 1.53125l0 2.234375q0 2.328125 0.09375 2.953125q0.109375 0.609375 0.4375 1.171875l-1.75 0q-0.265625 -0.515625 -0.328125 -1.21875zm-0.140625 -3.71875q-0.90625 0.359375 -2.734375 0.625q-1.03125 0.140625 -1.453125 0.328125q-0.421875 0.1875 -0.65625 0.546875q-0.234375 0.359375 -0.234375 0.796875q0 0.671875 0.5 1.125q0.515625 0.4375 1.484375 0.4375q0.96875 0 1.71875 -0.421875q0.75 -0.4375 1.109375 -1.15625q0.265625 -0.578125 0.265625 -1.671875l0 -0.609375z" fill-rule="nonzero"></path><path fill="#000000" fill-opacity="0.0" d="m647.1732 352.15198l29.51178 0l0 31.496063l-29.51178 0z" fill-rule="evenodd"></path><path fill="#000000" d="m663.8607 377.85324q-0.9375 0.796875 -1.796875 1.125q-0.859375 0.3125 -1.84375 0.3125q-1.609375 0 -2.484375 -0.78125q-0.875 -0.796875 -0.875 -2.03125q0 -0.734375 0.328125 -1.328125q0.328125 -0.59375 0.859375 -0.953125q0.53125 -0.359375 1.203125 -0.546875q0.5 -0.140625 1.484375 -0.25q2.03125 -0.25 2.984375 -0.578125q0 -0.34375 0 -0.4375q0 -1.015625 -0.46875 -1.4375q-0.640625 -0.5625 -1.90625 -0.5625q-1.171875 0 -1.734375 0.40625q-0.5625 0.40625 -0.828125 1.46875l-1.640625 -0.234375q0.234375 -1.046875 0.734375 -1.6875q0.515625 -0.640625 1.46875 -0.984375q0.96875 -0.359375 2.25 -0.359375q1.265625 0 2.046875 0.296875q0.78125 0.296875 1.15625 0.75q0.375 0.453125 0.515625 1.140625q0.09375 0.421875 0.09375 1.53125l0 2.234375q0 2.328125 0.09375 2.953125q0.109375 0.609375 0.4375 1.171875l-1.75 0q-0.265625 -0.515625 -0.328125 -1.21875zm-0.140625 -3.71875q-0.90625 0.359375 -2.734375 0.625q-1.03125 0.140625 -1.453125 0.328125q-0.421875 0.1875 -0.65625 0.546875q-0.234375 0.359375 -0.234375 0.796875q0 0.671875 0.5 1.125q0.515625 0.4375 1.484375 0.4375q0.96875 0 1.71875 -0.421875q0.75 -0.4375 1.109375 -1.15625q0.265625 -0.578125 0.265625 -1.671875l0 -0.609375z" fill-rule="nonzero"></path><path fill="#000000" fill-opacity="0.0" d="m462.43304 420.4207l29.51181 0l0 31.496063l-29.51181 0z" fill-rule="evenodd"></path><path fill="#000000" d="m474.22992 447.34067l-1.546875 0l0 -13.59375l1.65625 0l0 4.84375q1.0625 -1.328125 2.703125 -1.328125q0.90625 0 1.71875 0.375q0.8125 0.359375 1.328125 1.03125q0.53125 0.65625 0.828125 1.59375q0.296875 0.9375 0.296875 2.0q0 2.53125 -1.25 3.921875q-1.25 1.375 -3.0 1.375q-1.75 0 -2.734375 -1.453125l0 1.234375zm-0.015625 -5.0q0 1.765625 0.46875 2.5625q0.796875 1.28125 2.140625 1.28125q1.09375 0 1.890625 -0.9375q0.796875 -0.953125 0.796875 -2.84375q0 -1.921875 -0.765625 -2.84375q-0.765625 -0.921875 -1.84375 -0.921875q-1.09375 0 -1.890625 0.953125q-0.796875 0.953125 -0.796875 2.75z" fill-rule="nonzero"></path><path fill="#000000" fill-opacity="0.0" d="m46.803726 469.36893l81.60629 -0.06298828" fill-rule="evenodd"></path><path stroke="#595959" stroke-width="1.0" stroke-linejoin="round" stroke-linecap="butt" d="m46.80373 469.36893l75.60629 -0.05834961" fill-rule="evenodd"></path><path fill="#595959" stroke="#595959" stroke-width="1.0" stroke-linecap="butt" d="m122.4113 470.9623l4.5368195 -1.6552429l-4.5393677 -1.6482239z" fill-rule="evenodd"></path><path fill="#000000" fill-opacity="0.0" d="m826.5906 469.54593l82.078735 -0.18896484" fill-rule="evenodd"></path><path stroke="#595959" stroke-width="1.0" stroke-linejoin="round" stroke-linecap="butt" d="m826.5906 469.54593l76.078735 -0.17514038" fill-rule="evenodd"></path><path fill="#595959" stroke="#595959" stroke-width="1.0" stroke-linecap="butt" d="m902.6731 471.0225l4.5343018 -1.6621704l-4.54187 -1.6412659z" fill-rule="evenodd"></path><path fill="#000000" fill-opacity="0.0" d="m128.40945 469.54593l698.1732 0.2204895" fill-rule="evenodd"></path><path stroke="#595959" stroke-width="1.0" stroke-linejoin="round" stroke-linecap="butt" d="m128.40945 469.54593l692.1732 0.21859741" fill-rule="evenodd"></path><path fill="#595959" stroke="#595959" stroke-width="1.0" stroke-linecap="butt" d="m820.58215 471.41623l4.5386353 -1.6502991l-4.5375977 -1.6531677z" fill-rule="evenodd"></path><path fill="#000000" fill-opacity="0.0" d="m68.24477 462.08502l32.0 0l0 31.496063l-32.0 0z" fill-rule="evenodd"></path><path fill="#000000" d="m84.93227 485.39566l1.640625 0.21875q-0.265625 1.6875 -1.375 2.65625q-1.109375 0.953125 -2.734375 0.953125q-2.015625 0 -3.25 -1.3125q-1.21875 -1.328125 -1.21875 -3.796875q0 -1.59375 0.515625 -2.78125q0.53125 -1.203125 1.609375 -1.796875q1.09375 -0.609375 2.359375 -0.609375q1.609375 0 2.625 0.8125q1.015625 0.8125 1.3125 2.3125l-1.625 0.25q-0.234375 -1.0 -0.828125 -1.5q-0.59375 -0.5 -1.421875 -0.5q-1.265625 0 -2.0625 0.90625q-0.78125 0.90625 -0.78125 2.859375q0 1.984375 0.765625 2.890625q0.765625 0.890625 1.984375 0.890625q0.984375 0 1.640625 -0.59375q0.65625 -0.609375 0.84375 -1.859375z" fill-rule="nonzero"></path><path fill="#000000" fill-opacity="0.0" d="m463.1307 460.4207l29.51181 0l0 31.496063l-29.51181 0z" fill-rule="evenodd"></path><path fill="#000000" d="m479.8182 483.7313l1.640625 0.21875q-0.265625 1.6875 -1.375 2.65625q-1.109375 0.953125 -2.734375 0.953125q-2.015625 0 -3.25 -1.3125q-1.21875 -1.328125 -1.21875 -3.796875q0 -1.59375 0.515625 -2.78125q0.53125 -1.203125 1.609375 -1.796875q1.09375 -0.609375 2.359375 -0.609375q1.609375 0 2.625 0.8125q1.015625 0.8125 1.3125 2.3125l-1.625 0.25q-0.234375 -1.0 -0.828125 -1.5q-0.59375 -0.5 -1.421875 -0.5q-1.265625 0 -2.0625 0.90625q-0.78125 0.90625 -0.78125 2.859375q0 1.984375 0.765625 2.890625q0.765625 0.890625 1.984375 0.890625q0.984375 0 1.640625 -0.59375q0.65625 -0.609375 0.84375 -1.859375z" fill-rule="nonzero"></path><path fill="#000000" fill-opacity="0.0" d="m842.8475 419.723l31.811035 0l0 31.496063l-31.811035 0z" fill-rule="evenodd"></path><path fill="#000000" d="m854.64435 446.643l-1.546875 0l0 -13.59375l1.65625 0l0 4.84375q1.0625 -1.328125 2.703125 -1.328125q0.90625 0 1.71875 0.375q0.8125 0.359375 1.328125 1.03125q0.53125 0.65625 0.828125 1.59375q0.296875 0.9375 0.296875 2.0q0 2.53125 -1.25 3.921875q-1.25 1.375 -3.0 1.375q-1.75 0 -2.734375 -1.453125l0 1.234375zm-0.015625 -5.0q0 1.765625 0.46875 2.5625q0.796875 1.28125 2.140625 1.28125q1.09375 0 1.890625 -0.9375q0.796875 -0.953125 0.796875 -2.84375q0 -1.921875 -0.765625 -2.84375q-0.765625 -0.921875 -1.84375 -0.921875q-1.09375 0 -1.890625 0.953125q-0.796875 0.953125 -0.796875 2.75z" fill-rule="nonzero"></path><path fill="#000000" fill-opacity="0.0" d="m843.5996 459.723l31.810974 0l0 31.496063l-31.810974 0z" fill-rule="evenodd"></path><path fill="#000000" d="m860.2871 483.03363l1.640625 0.21875q-0.265625 1.6875 -1.375 2.65625q-1.109375 0.953125 -2.734375 0.953125q-2.015625 0 -3.25 -1.3125q-1.21875 -1.328125 -1.21875 -3.796875q0 -1.59375 0.515625 -2.78125q0.53125 -1.203125 1.609375 -1.796875q1.09375 -0.609375 2.359375 -0.609375q1.609375 0 2.625 0.8125q1.015625 0.8125 1.3125 2.3125l-1.625 0.25q-0.234375 -1.0 -0.828125 -1.5q-0.59375 -0.5 -1.421875 -0.5q-1.265625 0 -2.0625 0.90625q-0.78125 0.90625 -0.78125 2.859375q0 1.984375 0.765625 2.890625q0.765625 0.890625 1.984375 0.890625q0.984375 0 1.640625 -0.59375q0.65625 -0.609375 0.84375 -1.859375z" fill-rule="nonzero"></path><path fill="#cfe2f3" d="m407.79788 55.900158l145.44882 0l0 67.68504l-145.44882 0z" fill-rule="evenodd"></path><path stroke="#595959" stroke-width="1.0" stroke-linejoin="round" stroke-linecap="butt" d="m407.79788 55.900158l145.44882 0l0 67.68504l-145.44882 0z" fill-rule="evenodd"></path><path fill="#000000" d="m476.87854 84.38393l2.34375 0l0 2.75l-0.125 1.53125q0.234375 -0.234375 0.515625 -0.4375q0.28125 -0.21875 0.609375 -0.390625q0.328125 -0.171875 0.71875 -0.265625q0.390625 -0.09375 0.84375 -0.09375q1.34375 0 1.953125 0.859375q0.625 0.859375 0.625 2.375l0 4.890625l-2.359375 0l0 -4.59375q0 -0.796875 -0.25 -1.15625q-0.25 -0.375 -0.90625 -0.375q-0.484375 0 -0.84375 0.203125q-0.359375 0.203125 -0.78125 0.625l0 5.296875l-2.34375 0l0 -11.21875z" fill-rule="nonzero"></path><path fill="#000000" fill-opacity="0.0" d="m46.047245 89.650536l81.732285 0" fill-rule="evenodd"></path><path stroke="#595959" stroke-width="1.0" stroke-linejoin="round" stroke-linecap="butt" d="m46.047245 89.650536l75.732285 0" fill-rule="evenodd"></path><path fill="#595959" stroke="#595959" stroke-width="1.0" stroke-linecap="butt" d="m121.779526 91.30227l4.538101 -1.6517334l-4.538101 -1.6517258z" fill-rule="evenodd"></path><path fill="#000000" fill-opacity="0.0" d="m46.047245 148.48921l81.732285 0" fill-rule="evenodd"></path><path stroke="#595959" stroke-width="1.0" stroke-linejoin="round" stroke-linecap="butt" d="m46.047245 148.48921l75.732285 0" fill-rule="evenodd"></path><path fill="#595959" stroke="#595959" stroke-width="1.0" stroke-linecap="butt" d="m121.779526 150.14095l4.538101 -1.6517334l-4.538101 -1.6517334z" fill-rule="evenodd"></path><path fill="#000000" fill-opacity="0.0" d="m68.989845 51.202488l28.818893 0l0 31.496067l-28.818893 0z" fill-rule="evenodd"></path><path fill="#000000" d="m85.677345 76.90374q-0.9375 0.796875 -1.796875 1.125q-0.859375 0.3125 -1.84375 0.3125q-1.609375 0 -2.484375 -0.78125q-0.875 -0.796875 -0.875 -2.03125q0 -0.734375 0.328125 -1.328125q0.328125 -0.59375 0.859375 -0.953125q0.53125 -0.359375 1.203125 -0.546875q0.5 -0.140625 1.484375 -0.25q2.03125 -0.25 2.984375 -0.578125q0 -0.34375 0 -0.4375q0 -1.015625 -0.46875 -1.4375q-0.640625 -0.5625 -1.90625 -0.5625q-1.171875 0 -1.734375 0.40625q-0.5625 0.40625 -0.828125 1.46875l-1.640625 -0.234375q0.234375 -1.046875 0.734375 -1.6875q0.515625 -0.640625 1.46875 -0.984375q0.96875 -0.359375 2.25 -0.359375q1.265625 0 2.046875 0.296875q0.78125 0.296875 1.15625 0.75q0.375 0.453125 0.515625 1.140625q0.09375 0.421875 0.09375 1.53125l0 2.234375q0 2.328125 0.09375 2.953125q0.109375 0.609375 0.4375 1.171875l-1.75 0q-0.265625 -0.515625 -0.328125 -1.21875zm-0.140625 -3.71875q-0.90625 0.359375 -2.734375 0.625q-1.03125 0.140625 -1.453125 0.328125q-0.421875 0.1875 -0.65625 0.546875q-0.234375 0.359375 -0.234375 0.796875q0 0.671875 0.5 1.125q0.515625 0.4375 1.484375 0.4375q0.96875 0 1.71875 -0.421875q0.75 -0.4375 1.109375 -1.15625q0.265625 -0.578125 0.265625 -1.671875l0 -0.609375z" fill-rule="nonzero"></path><path fill="#000000" fill-opacity="0.0" d="m68.988525 111.93574l28.818893 0l0 31.49607l-28.818893 0z" fill-rule="evenodd"></path><path fill="#000000" d="m80.7854 138.85574l-1.546875 0l0 -13.593758l1.65625 0l0 4.8437576q1.0625 -1.328125 2.703125 -1.328125q0.90625 0 1.71875 0.375q0.8125 0.359375 1.328125 1.03125q0.53125 0.65625 0.828125 1.59375q0.296875 0.9375 0.296875 2.0q0 2.53125 -1.25 3.921875q-1.25 1.375 -3.0 1.375q-1.75 0 -2.734375 -1.453125l0 1.234375zm-0.015625 -5.0q0 1.765625 0.46875 2.5625q0.796875 1.28125 2.140625 1.28125q1.09375 0 1.890625 -0.9375q0.796875 -0.953125 0.796875 -2.84375q0 -1.921875 -0.765625 -2.84375q-0.765625 -0.921875 -1.84375 -0.921875q-1.09375 0 -1.890625 0.953125q-0.796875 0.953125 -0.796875 2.75z" fill-rule="nonzero"></path><path fill="#000000" fill-opacity="0.0" d="m46.047245 211.5076l81.732285 0" fill-rule="evenodd"></path><path stroke="#595959" stroke-width="1.0" stroke-linejoin="round" stroke-linecap="butt" d="m46.047245 211.50758l75.732285 0" fill-rule="evenodd"></path><path fill="#595959" stroke="#595959" stroke-width="1.0" stroke-linecap="butt" d="m121.779526 213.15932l4.538101 -1.6517334l-4.538101 -1.6517334z" fill-rule="evenodd"></path><path fill="#000000" fill-opacity="0.0" d="m68.98841 174.4864l28.818893 0l0 31.496063l-28.818893 0z" fill-rule="evenodd"></path><path fill="#000000" d="m85.67591 197.79703l1.640625 0.21875q-0.265625 1.6875 -1.375 2.65625q-1.109375 0.953125 -2.734375 0.953125q-2.015625 0 -3.25 -1.3125q-1.21875 -1.328125 -1.21875 -3.796875q0 -1.59375 0.515625 -2.78125q0.53125 -1.203125 1.609375 -1.796875q1.09375 -0.609375 2.359375 -0.609375q1.609375 0 2.625 0.8125q1.015625 0.8125 1.3125 2.3125l-1.625 0.25q-0.234375 -1.0 -0.828125 -1.5q-0.59375 -0.5 -1.421875 -0.5q-1.265625 0 -2.0625 0.90625q-0.78125 0.90625 -0.78125 2.859375q0 1.984375 0.765625 2.890625q0.765625 0.890625 1.984375 0.890625q0.984375 0 1.640625 -0.59375q0.65625 -0.609375 0.84375 -1.859375z" fill-rule="nonzero"></path><path fill="#000000" fill-opacity="0.0" d="m353.02362 211.39633l254.64569 0.3464508" fill-rule="evenodd"></path><path stroke="#595959" stroke-width="1.0" stroke-linejoin="round" stroke-linecap="butt" d="m353.02362 211.39633l248.64569 0.33828735" fill-rule="evenodd"></path><path fill="#595959" stroke="#595959" stroke-width="1.0" stroke-linecap="butt" d="m601.66705 213.38635l4.540344 -1.6455536l-4.5358276 -1.6579132z" fill-rule="evenodd"></path><path fill="#000000" fill-opacity="0.0" d="m379.4786 149.18611l198.61417 0" fill-rule="evenodd"></path><path stroke="#595959" stroke-width="1.0" stroke-linejoin="round" stroke-linecap="butt" d="m379.47864 149.18611l192.6142 0" fill-rule="evenodd"></path><path fill="#595959" stroke="#595959" stroke-width="1.0" stroke-linecap="butt" d="m572.09283 150.83784l4.538086 -1.6517334l-4.538086 -1.6517334z" fill-rule="evenodd"></path><path fill="#000000" fill-opacity="0.0" d="m553.2467 89.742676l24.787415 0.25196838" fill-rule="evenodd"></path><path stroke="#595959" stroke-width="1.0" stroke-linejoin="round" stroke-linecap="butt" d="m553.2467 89.74268l18.78772 0.19097137" fill-rule="evenodd"></path><path fill="#595959" stroke="#595959" stroke-width="1.0" stroke-linecap="butt" d="m572.01764 91.585304l4.5546265 -1.6055145l-4.521057 -1.6977768z" fill-rule="evenodd"></path><path fill="#000000" fill-opacity="0.0" d="m379.8924 89.64819l27.905487 0.09448242" fill-rule="evenodd"></path><path stroke="#595959" stroke-width="1.0" stroke-linejoin="round" stroke-linecap="butt" d="m379.8924 89.64819l21.905548 0.074165344" fill-rule="evenodd"></path><path fill="#595959" stroke="#595959" stroke-width="1.0" stroke-linecap="butt" d="m401.79233 91.374084l4.5436707 -1.6363525l-4.5324707 -1.6670914z" fill-rule="evenodd"></path><path fill="#000000" fill-opacity="0.0" d="m353.02362 89.65092l26.519684 0" fill-rule="evenodd"></path><path stroke="#595959" stroke-width="1.0" stroke-linejoin="round" stroke-linecap="butt" d="m353.02362 89.65092l20.519684 0" fill-rule="evenodd"></path><path fill="#595959" stroke="#595959" stroke-width="1.0" stroke-linecap="butt" d="m373.5433 91.30265l4.538086 -1.6517334l-4.538086 -1.6517334z" fill-rule="evenodd"></path><path fill="#000000" fill-opacity="0.0" d="m352.67453 148.48843l26.86615 0.3464508" fill-rule="evenodd"></path><path stroke="#595959" stroke-width="1.0" stroke-linejoin="round" stroke-linecap="butt" d="m352.67453 148.48842l20.866638 0.269104" fill-rule="evenodd"></path><path fill="#595959" stroke="#595959" stroke-width="1.0" stroke-linecap="butt" d="m373.5199 150.4091l4.5589905 -1.5930786l-4.5164185 -1.7101135z" fill-rule="evenodd"></path><path fill="#000000" fill-opacity="0.0" d="m578.0236 90.000244l29.637817 0" fill-rule="evenodd"></path><path stroke="#595959" stroke-width="1.0" stroke-linejoin="round" stroke-linecap="butt" d="m578.0236 90.000244l23.637817 0" fill-rule="evenodd"></path><path fill="#595959" stroke="#595959" stroke-width="1.0" stroke-linecap="butt" d="m601.66144 91.65198l4.538086 -1.6517334l-4.538086 -1.6517334z" fill-rule="evenodd"></path><path fill="#000000" fill-opacity="0.0" d="m578.0236 148.48843l29.637817 0" fill-rule="evenodd"></path><path stroke="#595959" stroke-width="1.0" stroke-linejoin="round" stroke-linecap="butt" d="m578.0236 148.48842l23.637817 0" fill-rule="evenodd"></path><path fill="#595959" stroke="#595959" stroke-width="1.0" stroke-linecap="butt" d="m601.66144 150.14015l4.538086 -1.6517334l-4.538086 -1.6517334z" fill-rule="evenodd"></path><path fill="#000000" fill-opacity="0.0" d="m825.35614 89.99962l83.71655 0" fill-rule="evenodd"></path><path stroke="#595959" stroke-width="1.0" stroke-linejoin="round" stroke-linecap="butt" d="m825.35614 89.99962l77.71655 0" fill-rule="evenodd"></path><path fill="#595959" stroke="#595959" stroke-width="1.0" stroke-linecap="butt" d="m903.0727 91.65135l4.538086 -1.6517334l-4.538086 -1.6517334z" fill-rule="evenodd"></path><path fill="#000000" fill-opacity="0.0" d="m825.35614 149.18738l83.71655 0" fill-rule="evenodd"></path><path stroke="#595959" stroke-width="1.0" stroke-linejoin="round" stroke-linecap="butt" d="m825.35614 149.18738l77.71655 0" fill-rule="evenodd"></path><path fill="#595959" stroke="#595959" stroke-width="1.0" stroke-linecap="butt" d="m903.0727 150.83911l4.538086 -1.6517334l-4.538086 -1.6517334z" fill-rule="evenodd"></path><path fill="#000000" fill-opacity="0.0" d="m847.8577 48.59595l29.51178 0l0 31.49606l-29.51178 0z" fill-rule="evenodd"></path><path fill="#000000" d="m864.5452 74.297195q-0.9375 0.796875 -1.796875 1.125q-0.859375 0.3125 -1.84375 0.3125q-1.609375 0 -2.484375 -0.78125q-0.875 -0.796875 -0.875 -2.03125q0 -0.734375 0.328125 -1.328125q0.328125 -0.59375 0.859375 -0.953125q0.53125 -0.359375 1.203125 -0.546875q0.5 -0.140625 1.484375 -0.25q2.03125 -0.25 2.984375 -0.578125q0 -0.34375 0 -0.4375q0 -1.015625 -0.46875 -1.4375q-0.640625 -0.5625 -1.90625 -0.5625q-1.171875 0 -1.734375 0.40625q-0.5625 0.40625 -0.828125 1.46875l-1.640625 -0.234375q0.234375 -1.046875 0.734375 -1.6875q0.515625 -0.640625 1.46875 -0.984375q0.96875 -0.359375 2.25 -0.359375q1.265625 0 2.046875 0.296875q0.78125 0.296875 1.15625 0.75q0.375 0.453125 0.515625 1.140625q0.09375 0.421875 0.09375 1.53125l0 2.234375q0 2.328125 0.09375 2.953125q0.109375 0.609375 0.4375 1.171875l-1.75 0q-0.265625 -0.515625 -0.328125 -1.21875zm-0.140625 -3.71875q-0.90625 0.359375 -2.734375 0.625q-1.03125 0.140625 -1.453125 0.328125q-0.421875 0.1875 -0.65625 0.546875q-0.234375 0.359375 -0.234375 0.796875q0 0.671875 0.5 1.125q0.515625 0.4375 1.484375 0.4375q0.96875 0 1.71875 -0.421875q0.75 -0.4375 1.109375 -1.15625q0.265625 -0.578125 0.265625 -1.671875l0 -0.609375z" fill-rule="nonzero"></path><path fill="#000000" fill-opacity="0.0" d="m848.9792 109.121376l29.51178 0l0 31.49607l-29.51178 0z" fill-rule="evenodd"></path><path fill="#000000" d="m860.77606 136.04138l-1.546875 0l0 -13.593758l1.65625 0l0 4.84375q1.0625 -1.328125 2.703125 -1.328125q0.90625 0 1.71875 0.375q0.8125 0.359375 1.328125 1.03125q0.53125 0.6562576 0.828125 1.5937576q0.296875 0.9375 0.296875 2.0q0 2.53125 -1.25 3.921875q-1.25 1.375 -3.0 1.375q-1.75 0 -2.734375 -1.453125l0 1.234375zm-0.015625 -5.0q0 1.765625 0.46875 2.5625q0.796875 1.28125 2.140625 1.28125q1.09375 0 1.890625 -0.9375q0.796875 -0.953125 0.796875 -2.84375q0 -1.921875 -0.765625 -2.84375q-0.765625 -0.9218826 -1.84375 -0.9218826q-1.09375 0 -1.890625 0.9531326q-0.796875 0.953125 -0.796875 2.75z" fill-rule="nonzero"></path><path fill="#000000" fill-opacity="0.0" d="m825.35614 211.57059l83.71655 0" fill-rule="evenodd"></path><path stroke="#595959" stroke-width="1.0" stroke-linejoin="round" stroke-linecap="butt" d="m825.35614 211.57057l77.71655 0" fill-rule="evenodd"></path><path fill="#595959" stroke="#595959" stroke-width="1.0" stroke-linecap="butt" d="m903.0727 213.2223l4.538086 -1.6517334l-4.538086 -1.6517181z" fill-rule="evenodd"></path><path fill="#000000" fill-opacity="0.0" d="m849.6759 172.85005l29.51178 0l0 31.496063l-29.51178 0z" fill-rule="evenodd"></path><path fill="#000000" d="m866.3634 196.16068l1.640625 0.21875q-0.265625 1.6875 -1.375 2.65625q-1.109375 0.953125 -2.734375 0.953125q-2.015625 0 -3.25 -1.3125q-1.21875 -1.328125 -1.21875 -3.796875q0 -1.59375 0.515625 -2.78125q0.53125 -1.203125 1.609375 -1.796875q1.09375 -0.609375 2.359375 -0.609375q1.609375 0 2.625 0.8125q1.015625 0.8125 1.3125 2.3125l-1.625 0.25q-0.234375 -1.0 -0.828125 -1.5q-0.59375 -0.5 -1.421875 -0.5q-1.265625 0 -2.0625 0.90625q-0.78125 0.90625 -0.78125 2.859375q0 1.984375 0.765625 2.890625q0.765625 0.890625 1.984375 0.890625q0.984375 0 1.640625 -0.59375q0.65625 -0.609375 0.84375 -1.859375z" fill-rule="nonzero"></path><path fill="#ffffff" d="m220.74803 143.33333l0 0c0 -48.28795 7.9390106 -87.43307 17.732285 -87.43307l0 0c4.702896 0 9.213165 9.21167 12.53862 25.608559c3.3254395 16.396881 5.1936493 38.63582 5.1936493 61.82451l0 0c0 48.287964 -7.9389954 87.433075 -17.73227 87.433075l0 0c-4.702896 0 -9.213165 -9.21167 -12.53862 -25.608551c-3.3254547 -16.396881 -5.1936646 -38.635834 -5.1936646 -61.824524z" fill-rule="evenodd"></path><path stroke="#595959" stroke-width="1.0" stroke-linejoin="round" stroke-linecap="butt" d="m220.74803 143.33333l0 0c0 -48.28795 7.9390106 -87.43307 17.732285 -87.43307l0 0c4.702896 0 9.213165 9.21167 12.53862 25.608559c3.3254395 16.396881 5.1936493 38.63582 5.1936493 61.82451l0 0c0 48.287964 -7.9389954 87.433075 -17.73227 87.433075l0 0c-4.702896 0 -9.213165 -9.21167 -12.53862 -25.608551c-3.3254547 -16.396881 -5.1936646 -38.635834 -5.1936646 -61.824524z" fill-rule="evenodd"></path><path fill="#000000" d="m240.1917 115.305214q-0.625 0.53125 -1.21875 0.765625q-0.578125 0.21875 -1.25 0.21875q-1.125 0 -1.71875 -0.546875q-0.59375 -0.546875 -0.59375 -1.390625q0 -0.484375 0.21875 -0.890625q0.234375 -0.421875 0.59375 -0.671875q0.375 -0.25 0.828125 -0.375q0.328125 -0.078125 1.015625 -0.171875q1.375 -0.15625 2.03125 -0.390625q0.015625 -0.234375 0.015625 -0.296875q0 -0.703125 -0.328125 -0.984375q-0.4375 -0.390625 -1.296875 -0.390625q-0.8125 0 -1.203125 0.28125q-0.375 0.28125 -0.5625 1.0l-1.109375 -0.140625q0.140625 -0.71875 0.484375 -1.15625q0.359375 -0.453125 1.015625 -0.6875q0.671875 -0.234375 1.53125 -0.234375q0.875 0 1.40625 0.203125q0.546875 0.203125 0.796875 0.515625q0.25 0.296875 0.359375 0.765625q0.046875 0.296875 0.046875 1.0625l0 1.515625q0 1.59375 0.078125 2.015625q0.078125 0.421875 0.28125 0.8125l-1.1875 0q-0.171875 -0.359375 -0.234375 -0.828125zm-0.09375 -2.5625q-0.625 0.265625 -1.859375 0.4375q-0.703125 0.109375 -1.0 0.234375q-0.296875 0.125 -0.453125 0.375q-0.15625 0.234375 -0.15625 0.53125q0 0.453125 0.34375 0.765625q0.34375 0.296875 1.015625 0.296875q0.65625 0 1.171875 -0.28125q0.515625 -0.296875 0.765625 -0.796875q0.171875 -0.375 0.171875 -1.140625l0 -0.421875z" fill-rule="nonzero"></path><path fill="#000000" d="m235.34795 130.1177l1.125 -0.171875q0.09375 0.671875 0.53125 1.046875q0.4375 0.359375 1.21875 0.359375q0.78125 0 1.15625 -0.3125q0.390625 -0.328125 0.390625 -0.765625q0 -0.390625 -0.34375 -0.609375q-0.234375 -0.15625 -1.171875 -0.390625q-1.25 -0.3125 -1.734375 -0.546875q-0.484375 -0.234375 -0.734375 -0.640625q-0.25 -0.40624237 -0.25 -0.9062424q0 -0.453125 0.203125 -0.828125q0.203125 -0.390625 0.5625 -0.640625q0.265625 -0.203125 0.71875 -0.328125q0.46875 -0.140625 1.0 -0.140625q0.78125 0 1.375 0.234375q0.609375 0.21875 0.890625 0.609375q0.296875 0.390625 0.40625 1.046875l-1.125 0.15625q-0.078125 -0.53125 -0.4375 -0.8125q-0.359375 -0.296875 -1.03125 -0.296875q-0.78125 0 -1.125 0.265625q-0.34375 0.25 -0.34375 0.609375q0 0.21875 0.140625 0.390625q0.140625 0.1875 0.4375 0.3125q0.171875 0.0625 1.015625 0.28124237q1.21875 0.328125 1.6875 0.53125q0.484375 0.203125 0.75 0.609375q0.28125 0.390625 0.28125 0.96875q0 0.578125 -0.34375 1.078125q-0.328125 0.5 -0.953125 0.78125q-0.625 0.28125 -1.421875 0.28125q-1.3125 0 -2.0 -0.546875q-0.6875 -0.546875 -0.875 -1.625z" fill-rule="nonzero"></path><path fill="#000000" d="m235.34795 146.1177l1.125 -0.171875q0.09375 0.671875 0.53125 1.046875q0.4375 0.359375 1.21875 0.359375q0.78125 0 1.15625 -0.3125q0.390625 -0.328125 0.390625 -0.765625q0 -0.390625 -0.34375 -0.609375q-0.234375 -0.15625 -1.171875 -0.390625q-1.25 -0.3125 -1.734375 -0.546875q-0.484375 -0.234375 -0.734375 -0.640625q-0.25 -0.40625 -0.25 -0.90625q0 -0.453125 0.203125 -0.828125q0.203125 -0.390625 0.5625 -0.640625q0.265625 -0.203125 0.71875 -0.328125q0.46875 -0.140625 1.0 -0.140625q0.78125 0 1.375 0.234375q0.609375 0.21875 0.890625 0.609375q0.296875 0.390625 0.40625 1.046875l-1.125 0.15625q-0.078125 -0.53125 -0.4375 -0.8125q-0.359375 -0.296875 -1.03125 -0.296875q-0.78125 0 -1.125 0.265625q-0.34375 0.25 -0.34375 0.609375q0 0.21875 0.140625 0.390625q0.140625 0.1875 0.4375 0.3125q0.171875 0.0625 1.015625 0.28125q1.21875 0.328125 1.6875 0.53125q0.484375 0.203125 0.75 0.609375q0.28125 0.390625 0.28125 0.96875q0 0.578125 -0.34375 1.078125q-0.328125 0.5 -0.953125 0.78125q-0.625 0.28125 -1.421875 0.28125q-1.3125 0 -2.0 -0.546875q-0.6875 -0.546875 -0.875 -1.625z" fill-rule="nonzero"></path><path fill="#000000" d="m235.3792 160.75835q0 -1.875 1.03125 -2.765625q0.875 -0.75 2.125 -0.75q1.390625 0 2.265625 0.90625q0.890625 0.90625 0.890625 2.515625q0 1.296875 -0.390625 2.046875q-0.390625 0.75 -1.140625 1.171875q-0.75 0.40625 -1.625 0.40625q-1.421875 0 -2.296875 -0.90625q-0.859375 -0.90625 -0.859375 -2.625zm1.171875 0q0 1.296875 0.5625 1.953125q0.5625 0.640625 1.421875 0.640625q0.84375 0 1.40625 -0.640625q0.578125 -0.65625 0.578125 -1.984375q0 -1.25 -0.578125 -1.890625q-0.5625 -0.65625 -1.40625 -0.65625q-0.859375 0 -1.421875 0.640625q-0.5625 0.640625 -0.5625 1.9375z" fill-rule="nonzero"></path><path fill="#000000" d="m240.1917 177.6646l1.125 0.140625q-0.171875 1.171875 -0.9375 1.828125q-0.765625 0.65625 -1.859375 0.65625q-1.390625 0 -2.234375 -0.90625q-0.828125 -0.90625 -0.828125 -2.59375q0 -1.09375 0.359375 -1.90625q0.359375 -0.828125 1.09375 -1.234375q0.734375 -0.40625 1.609375 -0.40625q1.09375 0 1.796875 0.5625q0.703125 0.546875 0.890625 1.5625l-1.109375 0.171875q-0.15625 -0.671875 -0.5625 -1.015625q-0.390625 -0.34375 -0.96875 -0.34375q-0.859375 0 -1.40625 0.625q-0.53125 0.609375 -0.53125 1.953125q0 1.359375 0.515625 1.984375q0.515625 0.609375 1.359375 0.609375q0.671875 0 1.125 -0.40625q0.453125 -0.421875 0.5625 -1.28125z" fill-rule="nonzero"></path><path fill="#ffffff" d="m698.78217 147.82832l0 0c0 -50.64495 7.939026 -91.70079 17.7323 -91.70079l0 0c4.702881 0 9.213135 9.661304 12.538574 26.85854c3.3254395 17.197227 5.1936646 40.521683 5.1936646 64.84225l0 0c0 50.644943 -7.939026 91.70079 -17.732239 91.70079l0 0c-4.702942 0 -9.213196 -9.661316 -12.538635 -26.858536c-3.3254395 -17.197235 -5.1936646 -40.521698 -5.1936646 -64.842255z" fill-rule="evenodd"></path><path stroke="#595959" stroke-width="1.0" stroke-linejoin="round" stroke-linecap="butt" d="m698.78217 147.82832l0 0c0 -50.64495 7.939026 -91.70079 17.7323 -91.70079l0 0c4.702881 0 9.213135 9.661304 12.538574 26.85854c3.3254395 17.197227 5.1936646 40.521683 5.1936646 64.84225l0 0c0 50.644943 -7.939026 91.70079 -17.732239 91.70079l0 0c-4.702942 0 -9.213196 -9.661316 -12.538635 -26.858536c-3.3254395 -17.197235 -5.1936646 -40.521698 -5.1936646 -64.842255z" fill-rule="evenodd"></path><path fill="#000000" d="m718.2258 111.80019q-0.625 0.53125 -1.21875 0.765625q-0.578125 0.21875 -1.25 0.21875q-1.125 0 -1.71875 -0.546875q-0.59375 -0.546875 -0.59375 -1.390625q0 -0.484375 0.21875 -0.890625q0.234375 -0.421875 0.59375 -0.671875q0.375 -0.25 0.828125 -0.375q0.328125 -0.078125 1.015625 -0.171875q1.375 -0.15625 2.03125 -0.390625q0.015625 -0.234375 0.015625 -0.296875q0 -0.703125 -0.328125 -0.984375q-0.4375 -0.390625 -1.296875 -0.390625q-0.8125 0 -1.203125 0.28125q-0.375 0.28125 -0.5625 1.0l-1.109375 -0.140625q0.140625 -0.71875 0.484375 -1.15625q0.359375 -0.453125 1.015625 -0.6875q0.671875 -0.234375 1.53125 -0.234375q0.875 0 1.40625 0.203125q0.546875 0.203125 0.796875 0.515625q0.25 0.296875 0.359375 0.765625q0.046875 0.296875 0.046875 1.0625l0 1.515625q0 1.59375 0.078125 2.015625q0.078125 0.421875 0.28125 0.8125l-1.1875 0q-0.171875 -0.359375 -0.234375 -0.828125zm-0.09375 -2.5625q-0.625 0.265625 -1.859375 0.4375q-0.703125 0.109375 -1.0 0.234375q-0.296875 0.125 -0.453125 0.375q-0.15625 0.234375 -0.15625 0.53125q0 0.453125 0.34375 0.765625q0.34375 0.296875 1.015625 0.296875q0.65625 0 1.171875 -0.28125q0.515625 -0.296875 0.765625 -0.796875q0.171875 -0.375 0.171875 -1.140625l0 -0.421875z" fill-rule="nonzero"></path><path fill="#000000" d="m713.3821 126.61269l1.125 -0.171875q0.09375 0.671875 0.53125 1.046875q0.4375 0.359375 1.21875 0.359375q0.78125 0 1.15625 -0.3125q0.390625 -0.328125 0.390625 -0.765625q0 -0.390625 -0.34375 -0.609375q-0.234375 -0.15625 -1.171875 -0.390625q-1.25 -0.3125 -1.734375 -0.546875q-0.484375 -0.234375 -0.734375 -0.640625q-0.25 -0.40625 -0.25 -0.90625q0 -0.453125 0.203125 -0.828125q0.203125 -0.390625 0.5625 -0.640625q0.265625 -0.203125 0.71875 -0.328125q0.46875 -0.140625 1.0 -0.140625q0.78125 0 1.375 0.234375q0.609375 0.21875 0.890625 0.609375q0.296875 0.390625 0.40625 1.046875l-1.125 0.15625q-0.078125 -0.53125 -0.4375 -0.8125q-0.359375 -0.296875 -1.03125 -0.296875q-0.78125 0 -1.125 0.265625q-0.34375 0.25 -0.34375 0.609375q0 0.21875 0.140625 0.390625q0.140625 0.1875 0.4375 0.3125q0.171875 0.0625 1.015625 0.28125q1.21875 0.328125 1.6875 0.53125q0.484375 0.203125 0.75 0.609375q0.28125 0.390625 0.28125 0.96875q0 0.578125 -0.34375 1.078125q-0.328125 0.5000076 -0.953125 0.7812576q-0.625 0.28125 -1.421875 0.28125q-1.3125 0 -2.0 -0.546875q-0.6875 -0.5468826 -0.875 -1.6250076z" fill-rule="nonzero"></path><path fill="#000000" d="m713.3821 142.6127l1.125 -0.171875q0.09375 0.671875 0.53125 1.046875q0.4375 0.359375 1.21875 0.359375q0.78125 0 1.15625 -0.3125q0.390625 -0.328125 0.390625 -0.765625q0 -0.390625 -0.34375 -0.609375q-0.234375 -0.15625 -1.171875 -0.390625q-1.25 -0.3125 -1.734375 -0.546875q-0.484375 -0.234375 -0.734375 -0.640625q-0.25 -0.40625 -0.25 -0.90625q0 -0.453125 0.203125 -0.828125q0.203125 -0.390625 0.5625 -0.640625q0.265625 -0.203125 0.71875 -0.328125q0.46875 -0.140625 1.0 -0.140625q0.78125 0 1.375 0.234375q0.609375 0.21875 0.890625 0.609375q0.296875 0.390625 0.40625 1.046875l-1.125 0.15625q-0.078125 -0.53125 -0.4375 -0.8125q-0.359375 -0.296875 -1.03125 -0.296875q-0.78125 0 -1.125 0.265625q-0.34375 0.25 -0.34375 0.609375q0 0.21875 0.140625 0.390625q0.140625 0.1875 0.4375 0.3125q0.171875 0.0625 1.015625 0.28125q1.21875 0.328125 1.6875 0.53125q0.484375 0.203125 0.75 0.609375q0.28125 0.390625 0.28125 0.96875q0 0.578125 -0.34375 1.078125q-0.328125 0.5 -0.953125 0.78125q-0.625 0.28125 -1.421875 0.28125q-1.3125 0 -2.0 -0.546875q-0.6875 -0.546875 -0.875 -1.625z" fill-rule="nonzero"></path><path fill="#000000" d="m713.4133 157.25331q0 -1.875 1.03125 -2.765625q0.875 -0.75 2.125 -0.75q1.390625 0 2.265625 0.90625q0.890625 0.90625 0.890625 2.515625q0 1.296875 -0.390625 2.046875q-0.390625 0.75 -1.140625 1.171875q-0.75 0.40625 -1.625 0.40625q-1.421875 0 -2.296875 -0.90625q-0.859375 -0.90625 -0.859375 -2.625zm1.171875 0q0 1.296875 0.5625 1.953125q0.5625 0.640625 1.421875 0.640625q0.84375 0 1.40625 -0.640625q0.578125 -0.65625 0.578125 -1.984375q0 -1.25 -0.578125 -1.890625q-0.5625 -0.65625 -1.40625 -0.65625q-0.859375 0 -1.421875 0.640625q-0.5625 0.640625 -0.5625 1.9375z" fill-rule="nonzero"></path><path fill="#000000" d="m718.2258 174.15956l1.125 0.140625q-0.171875 1.171875 -0.9375 1.828125q-0.765625 0.65625 -1.859375 0.65625q-1.390625 0 -2.234375 -0.90625q-0.828125 -0.90625 -0.828125 -2.59375q0 -1.09375 0.359375 -1.90625q0.359375 -0.828125 1.09375 -1.234375q0.734375 -0.40625 1.609375 -0.40625q1.09375 0 1.796875 0.5625q0.703125 0.546875 0.890625 1.5625l-1.109375 0.171875q-0.15625 -0.671875 -0.5625 -1.015625q-0.390625 -0.34375 -0.96875 -0.34375q-0.859375 0 -1.40625 0.625q-0.53125 0.609375 -0.53125 1.953125q0 1.359375 0.515625 1.984375q0.515625 0.609375 1.359375 0.609375q0.671875 0 1.125 -0.40625q0.453125 -0.421875 0.5625 -1.28125z" fill-rule="nonzero"></path><path fill="#000000" d="m713.7571 184.55019l0 -1.328125l1.234375 0l0 1.046875q0 0.859375 -0.203125 1.234375q-0.265625 0.515625 -0.84375 0.765625l-0.28125 -0.453125q0.34375 -0.125 0.5 -0.421875q0.171875 -0.3125 0.203125 -0.84375l-0.609375 0z" fill-rule="nonzero"></path><path fill="#000000" fill-opacity="0.0" d="m128.1811 90.0l95.46457 0.9133835" fill-rule="evenodd"></path><path stroke="#595959" stroke-width="1.0" stroke-linejoin="round" stroke-linecap="butt" d="m128.1811 90.0l89.46483 0.8559799" fill-rule="evenodd"></path><path fill="#595959" stroke="#595959" stroke-width="1.0" stroke-linecap="butt" d="m217.63014 92.50764l4.5536957 -1.6082382l-4.5220947 -1.695076z" fill-rule="evenodd"></path><path fill="#000000" fill-opacity="0.0" d="m127.727036 149.09186l93.13385 0.03149414" fill-rule="evenodd"></path><path stroke="#595959" stroke-width="1.0" stroke-linejoin="round" stroke-linecap="butt" d="m127.727036 149.09186l87.13385 0.029464722" fill-rule="evenodd"></path><path fill="#595959" stroke="#595959" stroke-width="1.0" stroke-linecap="butt" d="m214.86034 150.77306l4.5386505 -1.6501923l-4.5375366 -1.6532593z" fill-rule="evenodd"></path><path fill="#000000" fill-opacity="0.0" d="m127.95538 211.59055l99.433075 0.12599182" fill-rule="evenodd"></path><path stroke="#595959" stroke-width="1.0" stroke-linejoin="round" stroke-linecap="butt" d="m127.95538 211.59055l93.433075 0.118377686" fill-rule="evenodd"></path><path fill="#595959" stroke="#595959" stroke-width="1.0" stroke-linecap="butt" d="m221.38637 213.36067l4.5401764 -1.6459961l-4.5359955 -1.6574707z" fill-rule="evenodd"></path><path fill="#000000" fill-opacity="0.0" d="m252.61417 89.77165l100.22049 0.12598419" fill-rule="evenodd"></path><path stroke="#595959" stroke-width="1.0" stroke-linejoin="round" stroke-linecap="butt" d="m252.61417 89.77165l94.22049 0.11843872" fill-rule="evenodd"></path><path fill="#595959" stroke="#595959" stroke-width="1.0" stroke-linecap="butt" d="m346.83258 91.541824l4.540161 -1.6460266l-4.5360107 -1.6574326z" fill-rule="evenodd"></path><path fill="#000000" fill-opacity="0.0" d="m256.24933 148.86351l96.47244 -0.22045898" fill-rule="evenodd"></path><path stroke="#595959" stroke-width="1.0" stroke-linejoin="round" stroke-linecap="butt" d="m256.24933 148.86351l90.47244 -0.20675659" fill-rule="evenodd"></path><path fill="#595959" stroke="#595959" stroke-width="1.0" stroke-linecap="butt" d="m346.7256 150.30849l4.5343018 -1.6620941l-4.54187 -1.6413574z" fill-rule="evenodd"></path><path fill="#000000" fill-opacity="0.0" d="m249.54593 211.8189l103.3071 -0.22047424" fill-rule="evenodd"></path><path stroke="#595959" stroke-width="1.0" stroke-linejoin="round" stroke-linecap="butt" d="m249.54593 211.8189l97.3071 -0.20767212" fill-rule="evenodd"></path><path fill="#595959" stroke="#595959" stroke-width="1.0" stroke-linecap="butt" d="m346.85657 213.26295l4.534546 -1.6614075l-4.5415955 -1.6420441z" fill-rule="evenodd"></path><path fill="#000000" fill-opacity="0.0" d="m607.49866 90.0l95.24414 0.9133835" fill-rule="evenodd"></path><path stroke="#595959" stroke-width="1.0" stroke-linejoin="round" stroke-linecap="butt" d="m607.49866 90.0l89.244385 0.8558502" fill-rule="evenodd"></path><path fill="#595959" stroke="#595959" stroke-width="1.0" stroke-linecap="butt" d="m696.72723 92.50751l4.553711 -1.608139l-4.5220337 -1.6951752z" fill-rule="evenodd"></path><path fill="#000000" fill-opacity="0.0" d="m730.45404 89.54593l95.68506 0.69291687" fill-rule="evenodd"></path><path stroke="#595959" stroke-width="1.0" stroke-linejoin="round" stroke-linecap="butt" d="m730.45404 89.54593l89.68524 0.64946747" fill-rule="evenodd"></path><path fill="#595959" stroke="#595959" stroke-width="1.0" stroke-linecap="butt" d="m820.1273 91.847084l4.5499268 -1.6188278l-4.526001 -1.6845474z" fill-rule="evenodd"></path><path fill="#000000" fill-opacity="0.0" d="m607.5066 148.86769l91.27557 -1.0393677" fill-rule="evenodd"></path><path stroke="#595959" stroke-width="1.0" stroke-linejoin="round" stroke-linecap="butt" d="m607.5066 148.86769l85.276 -0.9710541" fill-rule="evenodd"></path><path fill="#595959" stroke="#595959" stroke-width="1.0" stroke-linecap="butt" d="m692.80133 149.54826l4.519043 -1.7032928l-4.5566406 -1.5999603z" fill-rule="evenodd"></path><path fill="#000000" fill-opacity="0.0" d="m734.2467 147.60104l91.653564 1.7007904" fill-rule="evenodd"></path><path stroke="#595959" stroke-width="1.0" stroke-linejoin="round" stroke-linecap="butt" d="m734.2467 147.60104l85.6546 1.5894775" fill-rule="evenodd"></path><path fill="#595959" stroke="#595959" stroke-width="1.0" stroke-linecap="butt" d="m819.87067 150.84196l4.567932 -1.5672455l-4.506653 -1.7356567z" fill-rule="evenodd"></path><path fill="#000000" fill-opacity="0.0" d="m607.50336 212.04065l96.47247 0.6299286" fill-rule="evenodd"></path><path stroke="#595959" stroke-width="1.0" stroke-linejoin="round" stroke-linecap="butt" d="m607.50336 212.04063l90.472595 0.590744" fill-rule="evenodd"></path><path fill="#595959" stroke="#595959" stroke-width="1.0" stroke-linecap="butt" d="m697.96515 214.28308l4.548767 -1.6220703l-4.5272217 -1.6813202z" fill-rule="evenodd"></path><path fill="#000000" fill-opacity="0.0" d="m729.05304 212.67058l96.409485 -0.40945435" fill-rule="evenodd"></path><path stroke="#595959" stroke-width="1.0" stroke-linejoin="round" stroke-linecap="butt" d="m729.05304 212.67056l90.409546 -0.3839569" fill-rule="evenodd"></path><path fill="#595959" stroke="#595959" stroke-width="1.0" stroke-linecap="butt" d="m819.4696 213.93831l4.531006 -1.67099l-4.545044 -1.6324463z" fill-rule="evenodd"></path></g></svg>

