<?xml version="1.0" standalone="yes"?>

<svg version="1.1" viewBox="0.0 0.0 960.0 540.0" fill="none" stroke="none" stroke-linecap="square" stroke-miterlimit="10" xmlns="http://www.w3.org/2000/svg" xmlns:xlink="http://www.w3.org/1999/xlink"><clipPath id="g261bd0c8e1_0_79.0"><path d="m0 0l960.0 0l0 540.0l-960.0 0l0 -540.0z" clip-rule="nonzero"></path></clipPath><g clip-path="url(#g261bd0c8e1_0_79.0)"><path fill="#ffffff" d="m0 0l960.0 0l0 540.0l-960.0 0z" fill-rule="evenodd"></path><path fill="#eeeeee" d="m173.72179 118.69029l626.3307 0l0 185.38582l-626.3307 0z" fill-rule="evenodd"></path><path stroke="#595959" stroke-width="1.0" stroke-linejoin="round" stroke-linecap="butt" d="m173.72179 118.69029l626.3307 0l0 185.38582l-626.3307 0z" fill-rule="evenodd"></path><path fill="#000000" d="m186.44054 280.0455l3.96875 0l-1.890625 8.875q-0.1875 0.875 0.140625 1.25q0.328125 0.375 1.03125 0.375q0.640625 0 1.546875 -0.375l0.140625 1.0q-0.578125 0.1875 -1.078125 0.3125q-0.484375 0.140625 -1.125 0.140625q-1.25 0 -1.75 -0.703125q-0.484375 -0.703125 -0.203125 -2.09375l1.640625 -7.703125l-2.65625 0l0.234375 -1.078125zm7.8187714 7.515625q0.203125 -0.953125 0.703125 -1.71875q0.5 -0.765625 1.15625 -1.28125q0.65625 -0.53125 1.421875 -0.8125q0.765625 -0.28125 1.53125 -0.28125q0.828125 0 1.421875 0.265625q0.609375 0.265625 0.953125 0.75q0.359375 0.46875 0.453125 1.140625q0.109375 0.671875 -0.0625 1.5q-0.046875 0.203125 -0.09375 0.40625q-0.046875 0.1875 -0.125 0.34375l-6.078125 0q-0.109375 0.625 0.015625 1.125q0.125 0.484375 0.4375 0.84375q0.328125 0.34375 0.8125 0.546875q0.5 0.1875 1.140625 0.1875q0.6875 0 1.296875 -0.1875q0.609375 -0.203125 1.21875 -0.53125l0.28125 0.859375q-0.640625 0.359375 -1.453125 0.640625q-0.796875 0.265625 -1.734375 0.265625q-0.859375 0 -1.5625 -0.28125q-0.703125 -0.28125 -1.15625 -0.796875q-0.453125 -0.515625 -0.625 -1.265625q-0.15625 -0.75 0.046875 -1.71875zm6.390625 -0.640625q0.25 -1.171875 -0.234375 -1.78125q-0.46875 -0.625 -1.546875 -0.625q-0.484375 0 -0.953125 0.15625q-0.46875 0.15625 -0.890625 0.46875q-0.421875 0.3125 -0.765625 0.765625q-0.328125 0.4375 -0.53125 1.015625l4.921875 0zm12.365646 -5.625q-0.421875 -0.234375 -0.828125 -0.296875q-0.390625 -0.078125 -0.890625 -0.078125q-1.0625 0 -1.640625 0.546875q-0.5625 0.53125 -0.765625 1.484375l-0.140625 0.703125l3.265625 0l-0.234375 1.078125l-3.265625 0l-1.421875 6.703125l-1.296875 0l1.421875 -6.703125l-2.234375 0l0.21875 -1.0l2.25 -0.078125l0.140625 -0.65625q0.296875 -1.421875 1.234375 -2.28125q0.953125 -0.859375 2.578125 -0.859375q1.140625 0 2.140625 0.4375l-0.53125 1.0zm3.2250214 3.4375l-2.1875 0l0.21875 -1.0l2.25 -0.078125l0.625 -2.171875l1.09375 0l-0.453125 2.171875l3.828125 0l-0.234375 1.078125l-3.828125 0l-0.78125 3.6875q-0.109375 0.53125 -0.109375 0.921875q0.015625 0.390625 0.1875 0.671875q0.171875 0.265625 0.515625 0.40625q0.359375 0.140625 0.921875 0.140625q0.5625 0 1.03125 -0.09375q0.46875 -0.109375 0.921875 -0.265625l0.078125 0.96875q-0.578125 0.1875 -1.25 0.3125q-0.671875 0.140625 -1.3125 0.140625q-0.84375 0 -1.375 -0.21875q-0.515625 -0.234375 -0.78125 -0.65625q-0.25 -0.4375 -0.28125 -1.015625q-0.015625 -0.59375 0.140625 -1.328125l0.78125 -3.671875z" fill-rule="nonzero"></path><path fill="#cfe2f3" d="m394.1286 18.422441l167.30707 0l0 73.00787l-167.30707 0z" fill-rule="evenodd"></path><path stroke="#595959" stroke-width="1.0" stroke-linejoin="round" stroke-linecap="butt" d="m394.1286 18.422441l167.30707 0l0 73.00787l-167.30707 0z" fill-rule="evenodd"></path><path fill="#000000" d="m474.1384 49.567627l2.34375 0l0 2.75l-0.125 1.53125q0.234375 -0.234375 0.515625 -0.4375q0.28125 -0.21875 0.609375 -0.390625q0.328125 -0.171875 0.71875 -0.265625q0.390625 -0.09375 0.84375 -0.09375q1.34375 0 1.953125 0.859375q0.625 0.859375 0.625 2.375l0 4.890625l-2.359375 0l0 -4.59375q0 -0.796875 -0.25 -1.15625q-0.25 -0.375 -0.90625 -0.375q-0.484375 0 -0.84375 0.203125q-0.359375 0.203125 -0.78125 0.625l0 5.296875l-2.34375 0l0 -11.21875z" fill-rule="nonzero"></path><path fill="#000000" fill-opacity="0.0" d="m295.042 54.611416l99.08661 0.31496048" fill-rule="evenodd"></path><path stroke="#595959" stroke-width="1.0" stroke-linejoin="round" stroke-linecap="butt" d="m295.042 54.611416l93.08667 0.2958908" fill-rule="evenodd"></path><path fill="#595959" stroke="#595959" stroke-width="1.0" stroke-linecap="butt" d="m388.12338 56.55903l4.543335 -1.6372986l-4.532837 -1.6661491z" fill-rule="evenodd"></path><path fill="#000000" fill-opacity="0.0" d="m561.43567 54.926376l106.36224 0" fill-rule="evenodd"></path><path stroke="#595959" stroke-width="1.0" stroke-linejoin="round" stroke-linecap="butt" d="m561.43567 54.926376l100.36224 0" fill-rule="evenodd"></path><path fill="#595959" stroke="#595959" stroke-width="1.0" stroke-linecap="butt" d="m661.7979 56.57811l4.538086 -1.6517334l-4.538086 -1.6517334z" fill-rule="evenodd"></path><path fill="#000000" fill-opacity="0.0" d="m327.65747 23.178347l29.51181 0l0 31.496061l-29.51181 0z" fill-rule="evenodd"></path><path fill="#000000" d="m344.34497 48.879593q-0.9375 0.796875 -1.796875 1.125q-0.859375 0.3125 -1.84375 0.3125q-1.609375 0 -2.484375 -0.78125q-0.875 -0.796875 -0.875 -2.03125q0 -0.734375 0.328125 -1.328125q0.328125 -0.59375 0.859375 -0.953125q0.53125 -0.359375 1.203125 -0.546875q0.5 -0.140625 1.484375 -0.25q2.03125 -0.25 2.984375 -0.578125q0 -0.34375 0 -0.4375q0 -1.015625 -0.46875 -1.4375q-0.640625 -0.5625 -1.90625 -0.5625q-1.171875 0 -1.734375 0.40625q-0.5625 0.40625 -0.828125 1.46875l-1.640625 -0.234375q0.234375 -1.046875 0.734375 -1.6875q0.515625 -0.640625 1.46875 -0.984375q0.96875 -0.359375 2.25 -0.359375q1.265625 0 2.046875 0.296875q0.78125 0.296875 1.15625 0.75q0.375 0.453125 0.515625 1.140625q0.09375 0.421875 0.09375 1.53125l0 2.234375q0 2.328125 0.09375 2.953125q0.109375 0.609375 0.4375 1.171875l-1.75 0q-0.265625 -0.515625 -0.328125 -1.21875zm-0.140625 -3.71875q-0.90625 0.359375 -2.734375 0.625q-1.03125 0.140625 -1.453125 0.328125q-0.421875 0.1875 -0.65625 0.546875q-0.234375 0.359375 -0.234375 0.796875q0 0.671875 0.5 1.125q0.515625 0.4375 1.484375 0.4375q0.96875 0 1.71875 -0.421875q0.75 -0.4375 1.109375 -1.15625q0.265625 -0.578125 0.265625 -1.671875l0 -0.609375z" fill-rule="nonzero"></path><path fill="#000000" fill-opacity="0.0" d="m596.39764 23.178347l29.51178 0l0 31.496061l-29.51178 0z" fill-rule="evenodd"></path><path fill="#000000" d="m608.1945 50.098343l-1.546875 0l0 -13.59375l1.65625 0l0 4.84375q1.0625 -1.328125 2.703125 -1.328125q0.90625 0 1.71875 0.375q0.8125 0.359375 1.328125 1.03125q0.53125 0.65625 0.828125 1.59375q0.296875 0.9375 0.296875 2.0q0 2.53125 -1.25 3.921875q-1.25 1.375 -3.0 1.375q-1.75 0 -2.734375 -1.453125l0 1.234375zm-0.015625 -5.0q0 1.765625 0.46875 2.5625q0.796875 1.28125 2.140625 1.28125q1.09375 0 1.890625 -0.9375q0.796875 -0.953125 0.796875 -2.84375q0 -1.921875 -0.765625 -2.84375q-0.765625 -0.921875 -1.84375 -0.921875q-1.09375 0 -1.890625 0.953125q-0.796875 0.953125 -0.796875 2.75z" fill-rule="nonzero"></path><path fill="#cfe2f3" d="m394.1286 140.53806l167.30707 0l0 73.00787l-167.30707 0z" fill-rule="evenodd"></path><path stroke="#595959" stroke-width="1.0" stroke-linejoin="round" stroke-linecap="butt" d="m394.1286 140.53806l167.30707 0l0 73.00787l-167.30707 0z" fill-rule="evenodd"></path><path fill="#000000" d="m474.13837 171.68324l2.34375 0l0 2.75l-0.125 1.53125q0.234375 -0.234375 0.515625 -0.4375q0.28125 -0.21875 0.609375 -0.390625q0.328125 -0.171875 0.71875 -0.265625q0.390625 -0.09375 0.84375 -0.09375q1.34375 0 1.953125 0.859375q0.625 0.859375 0.625 2.375l0 4.890625l-2.359375 0l0 -4.59375q0 -0.796875 -0.25 -1.15625q-0.25 -0.375 -0.90625 -0.375q-0.484375 0 -0.84375 0.203125q-0.359375 0.203125 -0.78125 0.625l0 5.296875l-2.34375 0l0 -11.21875z" fill-rule="nonzero"></path><path fill="#000000" fill-opacity="0.0" d="m241.40419 177.19948l152.72441 -0.15748596" fill-rule="evenodd"></path><path stroke="#595959" stroke-width="1.0" stroke-linejoin="round" stroke-linecap="butt" d="m245.19418 177.19556l142.93442 -0.14736938" fill-rule="evenodd"></path><path fill="#595959" stroke="#595959" stroke-width="1.0" stroke-linecap="butt" d="m241.90417 177.19896c-9.3078613E-4 -0.9085083 0.73480225 -1.645752 1.6433105 -1.646698c0.9085083 -9.3078613E-4 1.645752 0.73480225 1.646698 1.6433105c9.3078613E-4 0.9085083 -0.73480225 1.645752 -1.6433105 1.646698c-0.9085083 9.3078613E-4 -1.645752 -0.73480225 -1.646698 -1.6433105z" fill-rule="nonzero"></path><path fill="#595959" stroke="#595959" stroke-width="1.0" stroke-linecap="butt" d="m388.1303 178.69992l4.5364075 -1.6564178l-4.539795 -1.647049z" fill-rule="evenodd"></path><path fill="#000000" fill-opacity="0.0" d="m561.43567 177.04199l156.47247 0.15748596" fill-rule="evenodd"></path><path stroke="#595959" stroke-width="1.0" stroke-linejoin="round" stroke-linecap="butt" d="m561.43567 177.04199l152.68243 0.15367126" fill-rule="evenodd"></path><path fill="#595959" stroke="#595959" stroke-width="1.0" stroke-linecap="butt" d="m717.40814 177.19897c-9.1552734E-4 0.9085083 -0.7381592 1.6442566 -1.6466675 1.6433411c-0.9085083 -9.1552734E-4 -1.6442261 -0.7381439 -1.6433105 -1.6466522c9.1552734E-4 -0.9085083 0.73809814 -1.6442566 1.6466064 -1.6433411c0.9085083 9.1552734E-4 1.6442871 0.7381439 1.6433716 1.6466522z" fill-rule="nonzero"></path><path fill="#000000" fill-opacity="0.0" d="m240.32715 248.1596l476.0 0.91337585" fill-rule="evenodd"></path><path stroke="#595959" stroke-width="1.0" stroke-linejoin="round" stroke-linecap="butt" d="m244.11713 248.16687l468.42004 0.8988342" fill-rule="evenodd"></path><path fill="#595959" stroke="#595959" stroke-width="1.0" stroke-linecap="butt" d="m240.82713 248.16055c0.0017547607 -0.9085083 0.73965454 -1.6435852 1.6481628 -1.6418457c0.9085083 0.0017547607 1.6435852 0.73965454 1.6418304 1.6481628c-0.001739502 0.9085083 -0.7396393 1.6435852 -1.6481476 1.6418304c-0.9085083 -0.001739502 -1.6435852 -0.7396393 -1.6418457 -1.6481476z" fill-rule="nonzero"></path><path fill="#595959" stroke="#595959" stroke-width="1.0" stroke-linecap="butt" d="m715.8272 249.07202c-0.0017700195 0.9085083 -0.73968506 1.6435852 -1.6481934 1.6418304c-0.9085083 -0.001739502 -1.6435547 -0.7396393 -1.6418457 -1.6481476c0.0017700195 -0.9085083 0.73968506 -1.6435852 1.6481934 -1.6418457c0.9085083 0.0017547607 1.6435547 0.73965454 1.6418457 1.6481628z" fill-rule="nonzero"></path><path fill="#000000" fill-opacity="0.0" d="m282.65863 145.54764l22.393707 0l0 31.496063l-22.393707 0z" fill-rule="evenodd"></path><path fill="#000000" d="m299.34613 171.24889q-0.9375 0.796875 -1.796875 1.125q-0.859375 0.3125 -1.84375 0.3125q-1.609375 0 -2.484375 -0.78125q-0.875 -0.796875 -0.875 -2.03125q0 -0.734375 0.328125 -1.328125q0.328125 -0.59375 0.859375 -0.953125q0.53125 -0.359375 1.203125 -0.546875q0.5 -0.140625 1.484375 -0.25q2.03125 -0.25 2.984375 -0.578125q0 -0.34375 0 -0.4375q0 -1.015625 -0.46875 -1.4375q-0.640625 -0.5625 -1.90625 -0.5625q-1.171875 0 -1.734375 0.40625q-0.5625 0.40625 -0.828125 1.46875l-1.640625 -0.234375q0.234375 -1.046875 0.734375 -1.6875q0.515625 -0.640625 1.46875 -0.984375q0.96875 -0.359375 2.25 -0.359375q1.265625 0 2.046875 0.296875q0.78125 0.296875 1.15625 0.75q0.375 0.453125 0.515625 1.140625q0.09375 0.421875 0.09375 1.53125l0 2.234375q0 2.328125 0.09375 2.953125q0.109375 0.609375 0.4375 1.171875l-1.75 0q-0.265625 -0.515625 -0.328125 -1.21875zm-0.140625 -3.71875q-0.90625 0.359375 -2.734375 0.625q-1.03125 0.140625 -1.453125 0.328125q-0.421875 0.1875 -0.65625 0.546875q-0.234375 0.359375 -0.234375 0.796875q0 0.671875 0.5 1.125q0.515625 0.4375 1.484375 0.4375q0.96875 0 1.71875 -0.421875q0.75 -0.4375 1.109375 -1.15625q0.265625 -0.578125 0.265625 -1.671875l0 -0.609375z" fill-rule="nonzero"></path><path fill="#000000" fill-opacity="0.0" d="m471.85013 216.87572l22.393707 0l0 31.496063l-22.393707 0z" fill-rule="evenodd"></path><path fill="#000000" d="m488.53763 240.18634l1.640625 0.21875q-0.265625 1.6875 -1.375 2.65625q-1.109375 0.953125 -2.734375 0.953125q-2.015625 0 -3.25 -1.3125q-1.21875 -1.328125 -1.21875 -3.796875q0 -1.59375 0.515625 -2.78125q0.53125 -1.203125 1.609375 -1.796875q1.09375 -0.609375 2.359375 -0.609375q1.609375 0 2.625 0.8125q1.015625 0.8125 1.3125 2.3125l-1.625 0.25q-0.234375 -1.0 -0.828125 -1.5q-0.59375 -0.5 -1.421875 -0.5q-1.265625 0 -2.0625 0.90625q-0.78125 0.90625 -0.78125 2.859375q0 1.984375 0.765625 2.890625q0.765625 0.890625 1.984375 0.890625q0.984375 0 1.640625 -0.59375q0.65625 -0.609375 0.84375 -1.859375z" fill-rule="nonzero"></path><path fill="#000000" fill-opacity="0.0" d="m629.56085 145.54764l22.393677 0l0 31.496063l-22.393677 0z" fill-rule="evenodd"></path><path fill="#000000" d="m641.3577 172.46764l-1.546875 0l0 -13.59375l1.65625 0l0 4.84375q1.0625 -1.328125 2.703125 -1.328125q0.90625 0 1.71875 0.375q0.8125 0.359375 1.328125 1.03125q0.53125 0.65625 0.828125 1.59375q0.296875 0.9375 0.296875 2.0q0 2.53125 -1.25 3.921875q-1.25 1.375 -3.0 1.375q-1.75 0 -2.734375 -1.453125l0 1.234375zm-0.015625 -5.0q0 1.765625 0.46875 2.5625q0.796875 1.28125 2.140625 1.28125q1.09375 0 1.890625 -0.9375q0.796875 -0.953125 0.796875 -2.84375q0 -1.921875 -0.765625 -2.84375q-0.765625 -0.921875 -1.84375 -0.921875q-1.09375 0 -1.890625 0.953125q-0.796875 0.953125 -0.796875 2.75z" fill-rule="nonzero"></path><path fill="#000000" fill-opacity="0.0" d="m102.046936 211.38321l71.87402 0" fill-rule="evenodd"></path><path stroke="#595959" stroke-width="1.0" stroke-linejoin="round" stroke-linecap="butt" d="m102.046936 211.38321l65.87402 0" fill-rule="evenodd"></path><path fill="#595959" stroke="#595959" stroke-width="1.0" stroke-linecap="butt" d="m167.92096 213.03493l4.538086 -1.6517181l-4.538086 -1.6517334z" fill-rule="evenodd"></path><path fill="#000000" fill-opacity="0.0" d="m799.6957 211.38321l97.82678 -0.69291687" fill-rule="evenodd"></path><path stroke="#595959" stroke-width="1.0" stroke-linejoin="round" stroke-linecap="butt" d="m799.6957 211.38321l91.826965 -0.6504059" fill-rule="evenodd"></path><path fill="#595959" stroke="#595959" stroke-width="1.0" stroke-linecap="butt" d="m891.5343 212.38448l4.526306 -1.6838379l-4.5496826 -1.6195374z" fill-rule="evenodd"></path><path fill="#000000" fill-opacity="0.0" d="m217.98415 210.69817l23.275589 -32.094498" fill-rule="evenodd"></path><path stroke="#595959" stroke-width="2.0" stroke-linejoin="round" stroke-linecap="butt" stroke-dasharray="2.0,6.0" d="m217.98415 210.69817l23.275589 -32.094498" fill-rule="evenodd"></path><path fill="#000000" fill-opacity="0.0" d="m102.04809 178.16621l63.65354 0l0 31.496063l-63.65354 0z" fill-rule="evenodd"></path><path fill="#000000" d="m118.73559 203.86746q-0.9375 0.796875 -1.796875 1.125q-0.859375 0.3125 -1.84375 0.3125q-1.609375 0 -2.484375 -0.78125q-0.875 -0.796875 -0.875 -2.03125q0 -0.734375 0.328125 -1.328125q0.328125 -0.59375 0.859375 -0.953125q0.53125 -0.359375 1.203125 -0.546875q0.5 -0.140625 1.484375 -0.25q2.03125 -0.25 2.984375 -0.578125q0 -0.34375 0 -0.4375q0 -1.015625 -0.46875 -1.4375q-0.640625 -0.5625 -1.90625 -0.5625q-1.171875 0 -1.734375 0.40625q-0.5625 0.40625 -0.828125 1.46875l-1.640625 -0.234375q0.234375 -1.046875 0.734375 -1.6875q0.515625 -0.640625 1.46875 -0.984375q0.96875 -0.359375 2.25 -0.359375q1.265625 0 2.046875 0.296875q0.78125 0.296875 1.15625 0.75q0.375 0.453125 0.515625 1.140625q0.09375 0.421875 0.09375 1.53125l0 2.234375q0 2.328125 0.09375 2.953125q0.109375 0.609375 0.4375 1.171875l-1.75 0q-0.265625 -0.515625 -0.328125 -1.21875zm-0.140625 -3.71875q-0.90625 0.359375 -2.734375 0.625q-1.03125 0.140625 -1.453125 0.328125q-0.421875 0.1875 -0.65625 0.546875q-0.234375 0.359375 -0.234375 0.796875q0 0.671875 0.5 1.125q0.515625 0.4375 1.484375 0.4375q0.96875 0 1.71875 -0.421875q0.75 -0.4375 1.109375 -1.15625q0.265625 -0.578125 0.265625 -1.671875l0 -0.609375zm12.777779 2.734375l0 -3.71875l-3.7031326 0l0 -1.5625l3.7031326 0l0 -3.703125l1.578125 0l0 3.703125l3.6875 0l0 1.5625l-3.6875 0l0 3.71875l-1.578125 0zm19.000137 -1.40625l1.640625 0.21875q-0.265625 1.6875 -1.375 2.65625q-1.109375 0.953125 -2.734375 0.953125q-2.015625 0 -3.25 -1.3125q-1.21875 -1.328125 -1.21875 -3.796875q0 -1.59375 0.515625 -2.78125q0.53125 -1.203125 1.609375 -1.796875q1.09375 -0.609375 2.359375 -0.609375q1.609375 0 2.625 0.8125q1.015625 0.8125 1.3125 2.3125l-1.625 0.25q-0.234375 -1.0 -0.828125 -1.5q-0.59375 -0.5 -1.421875 -0.5q-1.265625 0 -2.0625 0.90625q-0.78125 0.90625 -0.78125 2.859375q0 1.984375 0.765625 2.890625q0.765625 0.890625 1.984375 0.890625q0.984375 0 1.640625 -0.59375q0.65625 -0.609375 0.84375 -1.859375z" fill-rule="nonzero"></path><path fill="#000000" fill-opacity="0.0" d="m819.6 177.84923l63.653564 0l0 31.496063l-63.653564 0z" fill-rule="evenodd"></path><path fill="#000000" d="m831.39685 204.76923l-1.546875 0l0 -13.59375l1.65625 0l0 4.84375q1.0625 -1.328125 2.703125 -1.328125q0.90625 0 1.71875 0.375q0.8125 0.359375 1.328125 1.03125q0.53125 0.65625 0.828125 1.59375q0.296875 0.9375 0.296875 2.0q0 2.53125 -1.25 3.921875q-1.25 1.375 -3.0 1.375q-1.75 0 -2.734375 -1.453125l0 1.234375zm-0.015625 -5.0q0 1.765625 0.46875 2.5625q0.796875 1.28125 2.140625 1.28125q1.09375 0 1.890625 -0.9375q0.796875 -0.953125 0.796875 -2.84375q0 -1.921875 -0.765625 -2.84375q-0.765625 -0.921875 -1.84375 -0.921875q-1.09375 0 -1.890625 0.953125q-0.796875 0.953125 -0.796875 2.75zm17.543396 2.796875l0 -3.71875l-3.703125 0l0 -1.5625l3.703125 0l0 -3.703125l1.578125 0l0 3.703125l3.6875 0l0 1.5625l-3.6875 0l0 3.71875l-1.578125 0zm19.000183 -1.40625l1.640625 0.21875q-0.265625 1.6875 -1.375 2.65625q-1.109375 0.953125 -2.734375 0.953125q-2.015625 0 -3.25 -1.3125q-1.21875 -1.328125 -1.21875 -3.796875q0 -1.59375 0.515625 -2.78125q0.53125 -1.203125 1.609375 -1.796875q1.09375 -0.609375 2.359375 -0.609375q1.609375 0 2.625 0.8125q1.015625 0.8125 1.3125 2.3125l-1.625 0.25q-0.234375 -1.0 -0.828125 -1.5q-0.59375 -0.5 -1.421875 -0.5q-1.265625 0 -2.0625 0.90625q-0.78125 0.90625 -0.78125 2.859375q0 1.984375 0.765625 2.890625q0.765625 0.890625 1.984375 0.890625q0.984375 0 1.640625 -0.59375q0.65625 -0.609375 0.84375 -1.859375z" fill-rule="nonzero"></path><path fill="#000000" fill-opacity="0.0" d="m0 103.95329l960.69293 1.3858337" fill-rule="evenodd"></path><path stroke="#595959" stroke-width="1.0" stroke-linejoin="round" stroke-linecap="butt" stroke-dasharray="1.0,3.0" d="m0 103.95329l960.69293 1.3858337" fill-rule="evenodd"></path><path fill="#000000" fill-opacity="0.0" d="m715.9481 178.5958l28.944885 32.787415" fill-rule="evenodd"></path><path stroke="#595959" stroke-width="2.0" stroke-linejoin="round" stroke-linecap="butt" stroke-dasharray="2.0,6.0" d="m715.9481 178.5958l28.944885 32.787415" fill-rule="evenodd"></path><path fill="#000000" fill-opacity="0.0" d="m173.72179 211.38321l45.354324 -0.69291687" fill-rule="evenodd"></path><path stroke="#595959" stroke-width="1.0" stroke-linejoin="round" stroke-linecap="butt" d="m173.72179 211.38321l41.564774 -0.6350403" fill-rule="evenodd"></path><path fill="#595959" stroke="#595959" stroke-width="1.0" stroke-linecap="butt" d="m218.57617 210.69792c0.013885498 0.9084015 -0.7112732 1.6560669 -1.6196747 1.6699371c-0.9084015 0.013885498 -1.6560669 -0.7112732 -1.6699371 -1.6196747c-0.013885498 -0.9084015 0.7112732 -1.6560516 1.6196747 -1.6699371c0.9084015 -0.013870239 1.6560669 0.7112732 1.6699371 1.6196747z" fill-rule="nonzero"></path><path fill="#000000" fill-opacity="0.0" d="m745.8163 212.07611l54.236206 -0.6929016" fill-rule="evenodd"></path><path stroke="#595959" stroke-width="1.0" stroke-linejoin="round" stroke-linecap="butt" d="m749.60596 212.02771l44.44702 -0.56785583" fill-rule="evenodd"></path><path fill="#595959" stroke="#595959" stroke-width="1.0" stroke-linecap="butt" d="m746.3162 212.06973c-0.01159668 -0.908432 0.7154541 -1.6542816 1.6238403 -1.6658783c0.90844727 -0.0116119385 1.6542969 0.7154083 1.6658936 1.6238403c0.01159668 0.908432 -0.71539307 1.6542816 -1.6238403 1.6658783c-0.90844727 0.0116119385 -1.6542969 -0.7154083 -1.6658936 -1.6238403z" fill-rule="nonzero"></path><path fill="#595959" stroke="#595959" stroke-width="1.0" stroke-linecap="butt" d="m794.0741 213.11145l4.5166016 -1.7095795l-4.558838 -1.5936127z" fill-rule="evenodd"></path><path fill="#eeeeee" d="m173.72179 330.7355l626.3307 0l0 185.38583l-626.3307 0z" fill-rule="evenodd"></path><path stroke="#595959" stroke-width="1.0" stroke-linejoin="round" stroke-linecap="butt" d="m173.72179 330.7355l626.3307 0l0 185.38583l-626.3307 0z" fill-rule="evenodd"></path><path fill="#000000" d="m186.72179 495.7001l1.078125 0l-0.28125 1.84375l0.046875 0q0.8125 -0.9375 1.8125 -1.484375q1.0 -0.546875 2.09375 -0.546875q0.421875 0 0.765625 0.078125q0.359375 0.0625 0.703125 0.25l-0.546875 1.125q-0.375 -0.140625 -0.65625 -0.203125q-0.265625 -0.0625 -0.734375 -0.0625q-0.875 0 -1.78125 0.5q-0.90625 0.5 -1.890625 1.71875l-0.96875 4.5625l-1.296875 0l1.65625 -7.78125zm8.693771 0l4.9375 0l-1.65625 7.78125l-1.3125 0l1.421875 -6.703125l-3.625 0l0.234375 -1.078125zm4.46875 -1.59375q-0.453125 0 -0.703125 -0.265625q-0.234375 -0.28125 -0.140625 -0.75q0.109375 -0.453125 0.453125 -0.734375q0.359375 -0.28125 0.8125 -0.28125q0.453125 0 0.703125 0.28125q0.25 0.28125 0.140625 0.734375q-0.09375 0.46875 -0.453125 0.75q-0.359375 0.265625 -0.8125 0.265625zm4.0375214 10.671875q-0.125 0.609375 0.4375 0.984375q0.578125 0.390625 1.828125 0.390625q0.671875 0 1.234375 -0.140625q0.578125 -0.125 1.0 -0.359375q0.4375 -0.21875 0.703125 -0.515625q0.265625 -0.28125 0.328125 -0.578125q0.125 -0.5625 -0.28125 -0.765625q-0.40625 -0.1875 -1.296875 -0.1875l-1.515625 0q-0.34375 0 -0.640625 -0.03125q-0.28125 -0.015625 -0.515625 -0.09375q-0.625 0.296875 -0.921875 0.625q-0.28125 0.328125 -0.359375 0.671875zm-1.140625 0.125q0.09375 -0.46875 0.515625 -0.921875q0.421875 -0.4375 1.125 -0.796875l0.015625 -0.078125q-0.296875 -0.171875 -0.46875 -0.46875q-0.171875 -0.3125 -0.078125 -0.796875q0.078125 -0.375 0.40625 -0.765625q0.328125 -0.390625 0.84375 -0.703125l0.015625 -0.0625q-0.34375 -0.296875 -0.515625 -0.796875q-0.171875 -0.515625 -0.015625 -1.21875q0.125 -0.640625 0.484375 -1.140625q0.359375 -0.515625 0.84375 -0.875q0.5 -0.359375 1.09375 -0.5625q0.59375 -0.203125 1.21875 -0.203125q0.640625 0 1.125 0.1875l3.21875 0l-0.21875 1.015625l-2.09375 0q0.21875 0.28125 0.34375 0.703125q0.140625 0.421875 0.03125 0.921875q-0.140625 0.625 -0.46875 1.125q-0.328125 0.5 -0.8125 0.84375q-0.484375 0.34375 -1.078125 0.53125q-0.578125 0.171875 -1.203125 0.171875q-0.296875 0 -0.640625 -0.0625q-0.34375 -0.078125 -0.625 -0.21875q-0.6875 0.375 -0.796875 0.890625q-0.09375 0.46875 0.28125 0.6875q0.375 0.21875 1.15625 0.21875l1.734375 0q1.5 0 2.140625 0.421875q0.65625 0.40625 0.4375 1.390625q-0.109375 0.546875 -0.53125 1.046875q-0.40625 0.5 -1.046875 0.859375q-0.640625 0.375 -1.484375 0.59375q-0.84375 0.21875 -1.84375 0.21875q-1.703125 0 -2.53125 -0.5625q-0.8125 -0.546875 -0.578125 -1.59375zm4.5 -4.765625q0.75 0 1.375 -0.5q0.640625 -0.5 0.828125 -1.34375q0.078125 -0.390625 0 -0.71875q-0.078125 -0.34375 -0.265625 -0.578125q-0.171875 -0.25 -0.484375 -0.390625q-0.296875 -0.140625 -0.671875 -0.140625q-0.375 0 -0.734375 0.140625q-0.34375 0.140625 -0.640625 0.390625q-0.28125 0.234375 -0.5 0.578125q-0.21875 0.328125 -0.296875 0.71875q-0.1875 0.84375 0.234375 1.34375q0.421875 0.5 1.15625 0.5zm8.146896 -8.046875l1.3125 0l-0.65625 3.109375l-0.453125 1.828125q0.765625 -0.65625 1.546875 -1.078125q0.796875 -0.4375 1.71875 -0.4375q1.390625 0 1.875 0.796875q0.484375 0.78125 0.15625 2.34375l-1.03125 4.828125l-1.3125 0l0.984375 -4.65625q0.234375 -1.109375 -0.078125 -1.640625q-0.296875 -0.53125 -1.25 -0.53125q-0.359375 0 -0.671875 0.09375q-0.3125 0.078125 -0.640625 0.265625q-0.3125 0.171875 -0.671875 0.4375q-0.359375 0.25 -0.78125 0.609375l-1.15625 5.421875l-1.3125 0l2.421875 -11.390625zm10.412521 4.6875l-2.1875 0l0.21875 -1.0l2.25 -0.078125l0.625 -2.171875l1.09375 0l-0.453125 2.171875l3.828125 0l-0.234375 1.078125l-3.828125 0l-0.78125 3.6875q-0.109375 0.53125 -0.109375 0.921875q0.015625 0.390625 0.1875 0.671875q0.171875 0.265625 0.515625 0.40625q0.359375 0.140625 0.921875 0.140625q0.5625 0 1.03125 -0.09375q0.46875 -0.109375 0.921875 -0.265625l0.078125 0.96875q-0.578125 0.1875 -1.25 0.3125q-0.671875 0.140625 -1.3125 0.140625q-0.84375 0 -1.375 -0.21875q-0.515625 -0.234375 -0.78125 -0.65625q-0.25 -0.4375 -0.28125 -1.015625q-0.015625 -0.59375 0.140625 -1.328125l0.78125 -3.671875z" fill-rule="nonzero"></path><path fill="#000000" fill-opacity="0.0" d="m240.32715 385.78622l476.0 0.9133911" fill-rule="evenodd"></path><path stroke="#595959" stroke-width="1.0" stroke-linejoin="round" stroke-linecap="butt" d="m244.11713 385.79346l468.42004 0.89889526" fill-rule="evenodd"></path><path fill="#595959" stroke="#595959" stroke-width="1.0" stroke-linecap="butt" d="m240.82713 385.78717c0.0017547607 -0.9085083 0.73965454 -1.6435852 1.6481628 -1.6418457c0.9085083 0.001739502 1.6435852 0.73965454 1.6418304 1.6481628c-0.001739502 0.9085083 -0.7396393 1.6435852 -1.6481476 1.6418457c-0.9085083 -0.001739502 -1.6435852 -0.73965454 -1.6418457 -1.6481628z" fill-rule="nonzero"></path><path fill="#595959" stroke="#595959" stroke-width="1.0" stroke-linecap="butt" d="m715.8272 386.69864c-0.0017700195 0.9085083 -0.73968506 1.6435852 -1.6481934 1.6418457c-0.9085083 -0.001739502 -1.6435547 -0.73965454 -1.6418457 -1.6481628c0.0017700195 -0.9085083 0.73968506 -1.6435852 1.6481934 -1.6418457c0.9085083 0.001739502 1.6435547 0.73965454 1.6418457 1.6481628z" fill-rule="nonzero"></path><path fill="#000000" fill-opacity="0.0" d="m282.65863 423.68588l22.393707 0l0 31.496063l-22.393707 0z" fill-rule="evenodd"></path><path fill="#000000" d="m299.34613 449.38715q-0.9375 0.796875 -1.796875 1.125q-0.859375 0.3125 -1.84375 0.3125q-1.609375 0 -2.484375 -0.78125q-0.875 -0.796875 -0.875 -2.03125q0 -0.734375 0.328125 -1.328125q0.328125 -0.59375 0.859375 -0.953125q0.53125 -0.359375 1.203125 -0.546875q0.5 -0.140625 1.484375 -0.25q2.03125 -0.25 2.984375 -0.578125q0 -0.34375 0 -0.4375q0 -1.015625 -0.46875 -1.4375q-0.640625 -0.5625 -1.90625 -0.5625q-1.171875 0 -1.734375 0.40625q-0.5625 0.40625 -0.828125 1.46875l-1.640625 -0.234375q0.234375 -1.046875 0.734375 -1.6875q0.515625 -0.640625 1.46875 -0.984375q0.96875 -0.359375 2.25 -0.359375q1.265625 0 2.046875 0.296875q0.78125 0.296875 1.15625 0.75q0.375 0.453125 0.515625 1.140625q0.09375 0.421875 0.09375 1.53125l0 2.234375q0 2.328125 0.09375 2.953125q0.109375 0.609375 0.4375 1.171875l-1.75 0q-0.265625 -0.515625 -0.328125 -1.21875zm-0.140625 -3.71875q-0.90625 0.359375 -2.734375 0.625q-1.03125 0.140625 -1.453125 0.328125q-0.421875 0.1875 -0.65625 0.546875q-0.234375 0.359375 -0.234375 0.796875q0 0.671875 0.5 1.125q0.515625 0.4375 1.484375 0.4375q0.96875 0 1.71875 -0.421875q0.75 -0.4375 1.109375 -1.15625q0.265625 -0.578125 0.265625 -1.671875l0 -0.609375z" fill-rule="nonzero"></path><path fill="#000000" fill-opacity="0.0" d="m471.85013 354.50235l22.393707 0l0 31.496063l-22.393707 0z" fill-rule="evenodd"></path><path fill="#000000" d="m488.53763 377.81296l1.640625 0.21875q-0.265625 1.6875 -1.375 2.65625q-1.109375 0.953125 -2.734375 0.953125q-2.015625 0 -3.25 -1.3125q-1.21875 -1.328125 -1.21875 -3.796875q0 -1.59375 0.515625 -2.78125q0.53125 -1.203125 1.609375 -1.796875q1.09375 -0.609375 2.359375 -0.609375q1.609375 0 2.625 0.8125q1.015625 0.8125 1.3125 2.3125l-1.625 0.25q-0.234375 -1.0 -0.828125 -1.5q-0.59375 -0.5 -1.421875 -0.5q-1.265625 0 -2.0625 0.90625q-0.78125 0.90625 -0.78125 2.859375q0 1.984375 0.765625 2.890625q0.765625 0.890625 1.984375 0.890625q0.984375 0 1.640625 -0.59375q0.65625 -0.609375 0.84375 -1.859375z" fill-rule="nonzero"></path><path fill="#000000" fill-opacity="0.0" d="m629.56085 423.68588l22.393677 0l0 31.496063l-22.393677 0z" fill-rule="evenodd"></path><path fill="#000000" d="m641.3577 450.6059l-1.546875 0l0 -13.59375l1.65625 0l0 4.84375q1.0625 -1.328125 2.703125 -1.328125q0.90625 0 1.71875 0.375q0.8125 0.359375 1.328125 1.03125q0.53125 0.65625 0.828125 1.59375q0.296875 0.9375 0.296875 2.0q0 2.53125 -1.25 3.921875q-1.25 1.375 -3.0 1.375q-1.75 0 -2.734375 -1.453125l0 1.234375zm-0.015625 -5.0q0 1.765625 0.46875 2.5625q0.796875 1.28125 2.140625 1.28125q1.09375 0 1.890625 -0.9375q0.796875 -0.953125 0.796875 -2.84375q0 -1.921875 -0.765625 -2.84375q-0.765625 -0.921875 -1.84375 -0.921875q-1.09375 0 -1.890625 0.953125q-0.796875 0.953125 -0.796875 2.75z" fill-rule="nonzero"></path><path fill="#000000" fill-opacity="0.0" d="m102.046936 423.42844l71.87402 0" fill-rule="evenodd"></path><path stroke="#595959" stroke-width="1.0" stroke-linejoin="round" stroke-linecap="butt" d="m102.046936 423.42844l65.87402 0" fill-rule="evenodd"></path><path fill="#595959" stroke="#595959" stroke-width="1.0" stroke-linecap="butt" d="m167.92096 425.08017l4.538086 -1.6517334l-4.538086 -1.6517334z" fill-rule="evenodd"></path><path fill="#000000" fill-opacity="0.0" d="m799.6957 423.42844l97.82678 -0.6929321" fill-rule="evenodd"></path><path stroke="#595959" stroke-width="1.0" stroke-linejoin="round" stroke-linecap="butt" d="m799.6957 423.42844l91.826965 -0.65042114" fill-rule="evenodd"></path><path fill="#595959" stroke="#595959" stroke-width="1.0" stroke-linecap="butt" d="m891.5343 424.42972l4.526306 -1.6838379l-4.5496826 -1.6195374z" fill-rule="evenodd"></path><path fill="#000000" fill-opacity="0.0" d="m217.98415 422.74338l23.275589 -32.094482" fill-rule="evenodd"></path><path stroke="#595959" stroke-width="2.0" stroke-linejoin="round" stroke-linecap="butt" stroke-dasharray="2.0,6.0" d="m217.98415 422.74338l23.275589 -32.094482" fill-rule="evenodd"></path><path fill="#000000" fill-opacity="0.0" d="m102.04809 390.21143l63.65354 0l0 31.496063l-63.65354 0z" fill-rule="evenodd"></path><path fill="#000000" d="m118.73559 413.52206l1.640625 0.21875q-0.265625 1.6875 -1.375 2.65625q-1.109375 0.953125 -2.734375 0.953125q-2.015625 0 -3.25 -1.3125q-1.21875 -1.328125 -1.21875 -3.796875q0 -1.59375 0.515625 -2.78125q0.53125 -1.203125 1.609375 -1.796875q1.09375 -0.609375 2.359375 -0.609375q1.609375 0 2.625 0.8125q1.015625 0.8125 1.3125 2.3125l-1.625 0.25q-0.234375 -1.0 -0.828125 -1.5q-0.59375 -0.5 -1.421875 -0.5q-1.265625 0 -2.0625 0.90625q-0.78125 0.90625 -0.78125 2.859375q0 1.984375 0.765625 2.890625q0.765625 0.890625 1.984375 0.890625q0.984375 0 1.640625 -0.59375q0.65625 -0.609375 0.84375 -1.859375zm11.589561 1.40625l0 -3.71875l-3.7031326 0l0 -1.5625l3.7031326 0l0 -3.703125l1.578125 0l0 3.703125l3.6875 0l0 1.5625l-3.6875 0l0 3.71875l-1.578125 0zm19.000137 0.984375q-0.9375 0.796875 -1.796875 1.125q-0.859375 0.3125 -1.84375 0.3125q-1.609375 0 -2.484375 -0.78125q-0.875 -0.796875 -0.875 -2.03125q0 -0.734375 0.328125 -1.328125q0.328125 -0.59375 0.859375 -0.953125q0.53125 -0.359375 1.203125 -0.546875q0.5 -0.140625 1.484375 -0.25q2.03125 -0.25 2.984375 -0.578125q0 -0.34375 0 -0.4375q0 -1.015625 -0.46875 -1.4375q-0.640625 -0.5625 -1.90625 -0.5625q-1.171875 0 -1.734375 0.40625q-0.5625 0.40625 -0.828125 1.46875l-1.640625 -0.234375q0.234375 -1.046875 0.734375 -1.6875q0.515625 -0.640625 1.46875 -0.984375q0.96875 -0.359375 2.25 -0.359375q1.265625 0 2.046875 0.296875q0.78125 0.296875 1.15625 0.75q0.375 0.453125 0.515625 1.140625q0.09375 0.421875 0.09375 1.53125l0 2.234375q0 2.328125 0.09375 2.953125q0.109375 0.609375 0.4375 1.171875l-1.75 0q-0.265625 -0.515625 -0.328125 -1.21875zm-0.140625 -3.71875q-0.90625 0.359375 -2.734375 0.625q-1.03125 0.140625 -1.453125 0.328125q-0.421875 0.1875 -0.65625 0.546875q-0.234375 0.359375 -0.234375 0.796875q0 0.671875 0.5 1.125q0.515625 0.4375 1.484375 0.4375q0.96875 0 1.71875 -0.421875q0.75 -0.4375 1.109375 -1.15625q0.265625 -0.578125 0.265625 -1.671875l0 -0.609375z" fill-rule="nonzero"></path><path fill="#000000" fill-opacity="0.0" d="m819.6 389.89447l63.653564 0l0 31.496063l-63.653564 0z" fill-rule="evenodd"></path><path fill="#000000" d="m836.2875 413.20508l1.640625 0.21875q-0.265625 1.6875 -1.375 2.65625q-1.109375 0.953125 -2.734375 0.953125q-2.015625 0 -3.25 -1.3125q-1.21875 -1.328125 -1.21875 -3.796875q0 -1.59375 0.515625 -2.78125q0.53125 -1.203125 1.609375 -1.796875q1.09375 -0.609375 2.359375 -0.609375q1.609375 0 2.625 0.8125q1.015625 0.8125 1.3125 2.3125l-1.625 0.25q-0.234375 -1.0 -0.828125 -1.5q-0.59375 -0.5 -1.421875 -0.5q-1.265625 0 -2.0625 0.90625q-0.78125 0.90625 -0.78125 2.859375q0 1.984375 0.765625 2.890625q0.765625 0.890625 1.984375 0.890625q0.984375 0 1.640625 -0.59375q0.65625 -0.609375 0.84375 -1.859375zm11.5896 1.40625l0 -3.71875l-3.703125 0l0 -1.5625l3.703125 0l0 -3.703125l1.578125 0l0 3.703125l3.6875 0l0 1.5625l-3.6875 0l0 3.71875l-1.578125 0zm14.109497 2.203125l-1.546875 0l0 -13.59375l1.65625 0l0 4.84375q1.0625 -1.328125 2.703125 -1.328125q0.90625 0 1.71875 0.375q0.8125 0.359375 1.328125 1.03125q0.53125 0.65625 0.828125 1.59375q0.296875 0.9375 0.296875 2.0q0 2.53125 -1.25 3.921875q-1.25 1.375 -3.0 1.375q-1.75 0 -2.734375 -1.453125l0 1.234375zm-0.015625 -5.0q0 1.765625 0.46875 2.5625q0.796875 1.28125 2.140625 1.28125q1.09375 0 1.890625 -0.9375q0.796875 -0.953125 0.796875 -2.84375q0 -1.921875 -0.765625 -2.84375q-0.765625 -0.921875 -1.84375 -0.921875q-1.09375 0 -1.890625 0.953125q-0.796875 0.953125 -0.796875 2.75z" fill-rule="nonzero"></path><path fill="#000000" fill-opacity="0.0" d="m715.9481 390.64102l28.944885 32.787415" fill-rule="evenodd"></path><path stroke="#595959" stroke-width="2.0" stroke-linejoin="round" stroke-linecap="butt" stroke-dasharray="2.0,6.0" d="m715.9481 390.64102l28.944885 32.787415" fill-rule="evenodd"></path><path fill="#000000" fill-opacity="0.0" d="m173.72179 423.42844l45.354324 -0.6929321" fill-rule="evenodd"></path><path stroke="#595959" stroke-width="1.0" stroke-linejoin="round" stroke-linecap="butt" d="m173.72179 423.42844l41.564774 -0.63500977" fill-rule="evenodd"></path><path fill="#595959" stroke="#595959" stroke-width="1.0" stroke-linecap="butt" d="m218.57617 422.74316c0.013885498 0.90838623 -0.7112732 1.6560669 -1.6196747 1.6699219c-0.9084015 0.013885498 -1.6560669 -0.7112732 -1.6699371 -1.6196594c-0.013885498 -0.90841675 0.7112732 -1.6560669 1.6196747 -1.6699524c0.9084015 -0.0138549805 1.6560669 0.7112732 1.6699371 1.61969z" fill-rule="nonzero"></path><path fill="#000000" fill-opacity="0.0" d="m745.8163 424.12134l54.236206 -0.6929016" fill-rule="evenodd"></path><path stroke="#595959" stroke-width="1.0" stroke-linejoin="round" stroke-linecap="butt" d="m749.60596 424.0729l44.44702 -0.56781006" fill-rule="evenodd"></path><path fill="#595959" stroke="#595959" stroke-width="1.0" stroke-linecap="butt" d="m746.3162 424.11496c-0.01159668 -0.90841675 0.7154541 -1.6542664 1.6238403 -1.665863c0.90844727 -0.011627197 1.6542969 0.71539307 1.6658936 1.6238403c0.01159668 0.90841675 -0.71539307 1.6542664 -1.6238403 1.665863c-0.90844727 0.011627197 -1.6542969 -0.71539307 -1.6658936 -1.6238403z" fill-rule="nonzero"></path><path fill="#595959" stroke="#595959" stroke-width="1.0" stroke-linecap="butt" d="m794.0741 425.15668l4.5166016 -1.7095642l-4.558838 -1.5936279z" fill-rule="evenodd"></path><path fill="#cfe2f3" d="m391.24408 420.64188l167.30707 0l0 73.00787l-167.30707 0z" fill-rule="evenodd"></path><path stroke="#595959" stroke-width="1.0" stroke-linejoin="round" stroke-linecap="butt" d="m391.24408 420.64188l167.30707 0l0 73.00787l-167.30707 0z" fill-rule="evenodd"></path><path fill="#000000" d="m471.25385 451.78708l2.34375 0l0 2.75l-0.125 1.53125q0.234375 -0.234375 0.515625 -0.4375q0.28125 -0.21875 0.609375 -0.390625q0.328125 -0.171875 0.71875 -0.265625q0.390625 -0.09375 0.84375 -0.09375q1.34375 0 1.953125 0.859375q0.625 0.859375 0.625 2.375l0 4.890625l-2.359375 0l0 -4.59375q0 -0.796875 -0.25 -1.15625q-0.25 -0.375 -0.90625 -0.375q-0.484375 0 -0.84375 0.203125q-0.359375 0.203125 -0.78125 0.625l0 5.296875l-2.34375 0l0 -11.21875z" fill-rule="nonzero"></path><path fill="#000000" fill-opacity="0.0" d="m238.51967 457.3033l152.72441 -0.15750122" fill-rule="evenodd"></path><path stroke="#595959" stroke-width="1.0" stroke-linejoin="round" stroke-linecap="butt" d="m242.30968 457.2994l142.9344 -0.14736938" fill-rule="evenodd"></path><path fill="#595959" stroke="#595959" stroke-width="1.0" stroke-linecap="butt" d="m239.01967 457.3028c-9.460449E-4 -0.9085083 0.734787 -1.645752 1.6432953 -1.646698c0.9085083 -9.460449E-4 1.6457672 0.73480225 1.646698 1.6433105c9.3078613E-4 0.9085083 -0.734787 1.645752 -1.6432953 1.646698c-0.9085083 9.460449E-4 -1.6457672 -0.73480225 -1.646698 -1.6433105z" fill-rule="nonzero"></path><path fill="#595959" stroke="#595959" stroke-width="1.0" stroke-linecap="butt" d="m385.2458 458.80374l4.5364075 -1.6564026l-4.539795 -1.6470642z" fill-rule="evenodd"></path><path fill="#000000" fill-opacity="0.0" d="m558.55115 457.1458l156.47247 0.15750122" fill-rule="evenodd"></path><path stroke="#595959" stroke-width="1.0" stroke-linejoin="round" stroke-linecap="butt" d="m558.5512 457.14584l152.68237 0.153656" fill-rule="evenodd"></path><path fill="#595959" stroke="#595959" stroke-width="1.0" stroke-linecap="butt" d="m714.5236 457.3028c-9.1552734E-4 0.9085083 -0.7381592 1.6442871 -1.6466675 1.6433716c-0.9085083 -9.1552734E-4 -1.6442261 -0.7381592 -1.6433105 -1.6466675c9.1552734E-4 -0.9085083 0.73809814 -1.6442566 1.6466064 -1.6433411c0.9085083 9.1552734E-4 1.6442871 0.7381592 1.6433716 1.646637z" fill-rule="nonzero"></path></g></svg>

