<?xml version="1.0" standalone="yes"?>

<svg version="1.1" viewBox="0.0 0.0 960.0 540.0" fill="none" stroke="none" stroke-linecap="square" stroke-miterlimit="10" xmlns="http://www.w3.org/2000/svg" xmlns:xlink="http://www.w3.org/1999/xlink"><clipPath id="g26953a6c8f_0_0.0"><path d="m0 0l960.0 0l0 540.0l-960.0 0l0 -540.0z" clip-rule="nonzero"></path></clipPath><g clip-path="url(#g26953a6c8f_0_0.0)"><path fill="#ffffff" d="m0 0l960.0 0l0 540.0l-960.0 0z" fill-rule="evenodd"></path><path fill="#eeeeee" d="m305.9175 38.85314l448.91342 0l0 135.90552l-448.91342 0z" fill-rule="evenodd"></path><path stroke="#595959" stroke-width="1.0" stroke-linejoin="round" stroke-linecap="butt" d="m305.9175 38.85314l448.91342 0l0 135.90552l-448.91342 0z" fill-rule="evenodd"></path><path fill="#000000" d="m316.13626 160.3424q0.140625 -0.65625 0.453125 -1.171875q0.3125 -0.53125 0.71875 -0.890625q0.421875 -0.359375 0.90625 -0.5625q0.5 -0.203125 0.96875 -0.203125q0.5 0 0.828125 0.1875q0.328125 0.1875 0.625 0.515625l0.1875 -1.0l0.421875 -2.046875l0.90625 0l-1.65625 7.828125l-0.75 0l0.078125 -0.703125l-0.03125 0q-0.40625 0.34375 -0.921875 0.59375q-0.515625 0.234375 -1.0 0.234375q-0.53125 0 -0.921875 -0.171875q-0.375 -0.1875 -0.609375 -0.546875q-0.234375 -0.359375 -0.296875 -0.875q-0.046875 -0.515625 0.09375 -1.1875zm0.9375 -0.015625q-0.203125 0.96875 0.09375 1.515625q0.3125 0.53125 1.0625 0.53125q0.78125 0 1.671875 -0.8125l0.5625 -2.65625q-0.296875 -0.34375 -0.609375 -0.484375q-0.3125 -0.140625 -0.671875 -0.140625q-0.34375 0 -0.6875 0.15625q-0.328125 0.140625 -0.609375 0.40625q-0.28125 0.265625 -0.5 0.640625q-0.203125 0.375 -0.3125 0.84375zm6.3625793 -2.671875l3.390625 0l-1.140625 5.34375l-0.90625 0l0.984375 -4.609375l-2.484375 0l0.15625 -0.734375zm3.078125 -1.109375q-0.3125 0 -0.484375 -0.171875q-0.15625 -0.1875 -0.09375 -0.515625q0.0625 -0.3125 0.3125 -0.5q0.25 -0.203125 0.5625 -0.203125q0.3125 0 0.46875 0.203125q0.15625 0.1875 0.09375 0.5q-0.0625 0.328125 -0.3125 0.515625q-0.234375 0.171875 -0.546875 0.171875zm2.9875488 1.109375l0.703125 0l-0.078125 0.703125l0.03125 0q0.28125 -0.375 0.609375 -0.609375q0.328125 -0.234375 0.78125 -0.234375q0.8125 0 0.8125 0.9375q0.328125 -0.421875 0.671875 -0.671875q0.34375 -0.265625 0.796875 -0.265625q0.5625 0 0.765625 0.4375q0.203125 0.421875 0.03125 1.21875l-0.8125 3.828125l-0.859375 0l0.796875 -3.75q0.203125 -0.953125 -0.390625 -0.953125q-0.28125 0 -0.546875 0.203125q-0.25 0.203125 -0.53125 0.625l-0.828125 3.875l-0.71875 0l0.796875 -3.75q0.203125 -0.953125 -0.40625 -0.953125q-0.28125 0 -0.53125 0.203125q-0.25 0.203125 -0.53125 0.625l-0.828125 3.875l-0.875 0l1.140625 -5.34375zm5.7844543 3.953125q0.09375 -0.453125 0.375 -0.78125q0.28125 -0.34375 0.796875 -0.578125q0.53125 -0.234375 1.296875 -0.390625q0.78125 -0.15625 1.828125 -0.25q0.046875 -0.265625 0.015625 -0.5q-0.03125 -0.25 -0.15625 -0.4375q-0.125 -0.1875 -0.375 -0.296875q-0.234375 -0.109375 -0.625 -0.109375q-0.53125 0 -1.0625 0.203125q-0.515625 0.203125 -0.9375 0.4375l-0.21875 -0.609375q0.21875 -0.140625 0.515625 -0.265625q0.3125 -0.140625 0.625 -0.25q0.328125 -0.109375 0.6875 -0.1875q0.359375 -0.078125 0.71875 -0.078125q1.09375 0 1.5 0.609375q0.40625 0.59375 0.203125 1.59375l-0.703125 3.28125l-0.75 0l0.078125 -0.71875l-0.03125 0q-0.53125 0.34375 -1.125 0.59375q-0.59375 0.25 -1.171875 0.25q-0.375 0 -0.6875 -0.109375q-0.296875 -0.09375 -0.515625 -0.28125q-0.203125 -0.203125 -0.28125 -0.46875q-0.078125 -0.28125 0 -0.65625zm0.890625 -0.0625q-0.046875 0.234375 0.015625 0.390625q0.0625 0.15625 0.1875 0.265625q0.140625 0.109375 0.34375 0.15625q0.21875 0.046875 0.453125 0.046875q0.453125 0 0.9375 -0.203125q0.5 -0.203125 1.046875 -0.59375l0.296875 -1.40625q-0.875 0.0625 -1.484375 0.1875q-0.59375 0.125 -0.984375 0.296875q-0.375 0.171875 -0.578125 0.390625q-0.1875 0.203125 -0.234375 0.46875zm6.143799 1.90625l-0.390625 1.796875l-0.90625 0l1.625 -7.59375l0.75 0l-0.078125 0.6875l0.03125 0q0.453125 -0.359375 1.0 -0.59375q0.546875 -0.234375 1.046875 -0.234375q0.53125 0 0.890625 0.203125q0.375 0.1875 0.578125 0.546875q0.21875 0.359375 0.25 0.859375q0.03125 0.5 -0.109375 1.125q-0.140625 0.6875 -0.453125 1.21875q-0.296875 0.53125 -0.71875 0.90625q-0.421875 0.375 -0.90625 0.5625q-0.46875 0.1875 -0.953125 0.1875q-0.375 0 -0.78125 -0.171875q-0.390625 -0.1875 -0.671875 -0.515625l-0.203125 1.015625zm0.359375 -1.703125q0.3125 0.34375 0.671875 0.484375q0.359375 0.140625 0.640625 0.140625q0.71875 0 1.296875 -0.5625q0.578125 -0.5625 0.78125 -1.5625q0.09375 -0.4375 0.078125 -0.796875q0 -0.375 -0.125 -0.625q-0.125 -0.265625 -0.390625 -0.40625q-0.25 -0.140625 -0.640625 -0.140625q-0.359375 0 -0.796875 0.203125q-0.4375 0.1875 -0.953125 0.59375l-0.5625 2.671875z" fill-rule="nonzero"></path><path fill="#000000" d="m359.43665 156.0299q-0.34375 -0.15625 -0.625 -0.203125q-0.265625 -0.0625 -0.625 -0.0625q-0.71875 0 -1.046875 0.375q-0.3125 0.375 -0.3125 1.03125l0 0.484375l2.25 0l0 0.734375l-2.25 0l0 4.609375l-0.890625 0l0 -4.609375l-1.515625 0l0 -0.6875l1.515625 -0.046875l0 -0.453125q0 -0.984375 0.515625 -1.578125q0.53125 -0.59375 1.640625 -0.59375q0.796875 0 1.546875 0.3125l-0.203125 0.6875zm1.8469543 1.625l0.75 0l0.078125 1.265625l0.03125 0q0.40625 -0.65625 1.015625 -1.03125q0.625 -0.375 1.359375 -0.375q0.296875 0 0.546875 0.0625q0.265625 0.046875 0.515625 0.15625l-0.203125 0.78125q-0.296875 -0.09375 -0.484375 -0.125q-0.1875 -0.046875 -0.515625 -0.046875q-0.59375 0 -1.15625 0.34375q-0.5625 0.34375 -1.03125 1.171875l0 3.140625l-0.90625 0l0 -5.34375zm5.440674 2.6875q0 -0.671875 0.21875 -1.1875q0.21875 -0.53125 0.578125 -0.890625q0.359375 -0.375 0.828125 -0.5625q0.484375 -0.1875 1.015625 -0.1875q0.53125 0 1.0 0.1875q0.484375 0.1875 0.84375 0.5625q0.375 0.359375 0.578125 0.890625q0.21875 0.515625 0.21875 1.1875q0 0.65625 -0.21875 1.1875q-0.203125 0.515625 -0.578125 0.875q-0.359375 0.359375 -0.84375 0.546875q-0.46875 0.171875 -1.0 0.171875q-0.53125 0 -1.015625 -0.171875q-0.46875 -0.1875 -0.828125 -0.546875q-0.359375 -0.359375 -0.578125 -0.875q-0.21875 -0.53125 -0.21875 -1.1875zm0.9375 0q0 0.453125 0.125 0.828125q0.125 0.375 0.34375 0.65625q0.21875 0.265625 0.53125 0.421875q0.328125 0.140625 0.703125 0.140625q0.390625 0 0.703125 -0.140625q0.3125 -0.15625 0.53125 -0.421875q0.234375 -0.28125 0.34375 -0.65625q0.125 -0.375 0.125 -0.828125q0 -0.46875 -0.125 -0.84375q-0.109375 -0.390625 -0.34375 -0.65625q-0.21875 -0.28125 -0.53125 -0.421875q-0.3125 -0.15625 -0.703125 -0.15625q-0.375 0 -0.703125 0.15625q-0.3125 0.140625 -0.53125 0.421875q-0.21875 0.265625 -0.34375 0.65625q-0.125 0.375 -0.125 0.84375zm5.4563293 -2.6875l0.703125 0l0.078125 0.703125l0.03125 0q0.203125 -0.375 0.46875 -0.609375q0.28125 -0.234375 0.734375 -0.234375q0.8125 0 1.015625 0.9375q0.234375 -0.421875 0.515625 -0.671875q0.296875 -0.265625 0.75 -0.265625q0.5625 0 0.859375 0.4375q0.296875 0.421875 0.296875 1.21875l0 3.828125l-0.859375 0l0 -3.75q0 -0.953125 -0.59375 -0.953125q-0.28125 0 -0.5 0.203125q-0.203125 0.203125 -0.40625 0.625l0 3.875l-0.71875 0l0 -3.75q0 -0.953125 -0.609375 -0.953125q-0.28125 0 -0.484375 0.203125q-0.203125 0.203125 -0.40625 0.625l0 3.875l-0.875 0l0 -5.34375zm14.397003 0.734375l-1.5 0l0 -0.6875l1.53125 -0.046875l0.125 -1.5l0.75 0l0 1.5l2.625 0l0 0.734375l-2.625 0l0 2.546875q0 0.359375 0.0625 0.625q0.0625 0.265625 0.21875 0.453125q0.15625 0.1875 0.421875 0.28125q0.265625 0.09375 0.640625 0.09375q0.390625 0 0.6875 -0.0625q0.3125 -0.0625 0.609375 -0.171875l0.1875 0.65625q-0.359375 0.125 -0.796875 0.21875q-0.4375 0.09375 -0.875 0.09375q-0.59375 0 -0.984375 -0.15625q-0.390625 -0.15625 -0.640625 -0.4375q-0.234375 -0.296875 -0.34375 -0.703125q-0.09375 -0.40625 -0.09375 -0.90625l0 -2.53125zm4.784424 1.953125q0 -0.671875 0.21875 -1.1875q0.21875 -0.53125 0.578125 -0.890625q0.359375 -0.375 0.828125 -0.5625q0.484375 -0.1875 1.015625 -0.1875q0.53125 0 1.0 0.1875q0.484375 0.1875 0.84375 0.5625q0.375 0.359375 0.578125 0.890625q0.21875 0.515625 0.21875 1.1875q0 0.65625 -0.21875 1.1875q-0.203125 0.515625 -0.578125 0.875q-0.359375 0.359375 -0.84375 0.546875q-0.46875 0.171875 -1.0 0.171875q-0.53125 0 -1.015625 -0.171875q-0.46875 -0.1875 -0.828125 -0.546875q-0.359375 -0.359375 -0.578125 -0.875q-0.21875 -0.53125 -0.21875 -1.1875zm0.9375 0q0 0.453125 0.125 0.828125q0.125 0.375 0.34375 0.65625q0.21875 0.265625 0.53125 0.421875q0.328125 0.140625 0.703125 0.140625q0.390625 0 0.703125 -0.140625q0.3125 -0.15625 0.53125 -0.421875q0.234375 -0.28125 0.34375 -0.65625q0.125 -0.375 0.125 -0.828125q0 -0.46875 -0.125 -0.84375q-0.109375 -0.390625 -0.34375 -0.65625q-0.21875 -0.28125 -0.53125 -0.421875q-0.3125 -0.15625 -0.703125 -0.15625q-0.375 0 -0.703125 0.15625q-0.3125 0.140625 -0.53125 0.421875q-0.21875 0.265625 -0.34375 0.65625q-0.125 0.375 -0.125 0.84375z" fill-rule="nonzero"></path><path fill="#cfe2f3" d="m463.97742 77.68044l129.32288 0l0 58.456688l-129.32288 0z" fill-rule="evenodd"></path><path stroke="#595959" stroke-width="1.0" stroke-linejoin="round" stroke-linecap="butt" d="m463.97742 77.68044l129.32288 0l0 58.456688l-129.32288 0z" fill-rule="evenodd"></path><path fill="#000000" d="m526.31696 105.19566l3.796875 0l0 5.125q0 0.5 -0.125 0.9375q-0.109375 0.453125 -0.40625 0.796875q-0.28125 0.34375 -0.78125 0.546875q-0.484375 0.203125 -1.21875 0.203125q-0.5 0 -0.921875 -0.109375q-0.40625 -0.09375 -0.75 -0.265625l0.46875 -1.15625q0.328125 0.15625 0.59375 0.203125q0.265625 0.0625 0.515625 0.0625q0.578125 0 0.796875 -0.28125q0.21875 -0.28125 0.21875 -0.875l0 -3.921875l-2.1875 0l0 -1.265625zm2.921875 -0.8125q-0.46875 0 -0.78125 -0.25q-0.296875 -0.265625 -0.296875 -0.71875q0 -0.453125 0.296875 -0.734375q0.3125 -0.28125 0.78125 -0.28125q0.46875 0 0.765625 0.28125q0.3125 0.28125 0.3125 0.734375q0 0.453125 -0.3125 0.71875q-0.296875 0.25 -0.765625 0.25z" fill-rule="nonzero"></path><path fill="#000000" fill-opacity="0.0" d="m410.01764 107.07224l53.95276 -0.15747833" fill-rule="evenodd"></path><path stroke="#595959" stroke-width="1.0" stroke-linejoin="round" stroke-linecap="butt" d="m410.01764 107.07224l47.95279 -0.13996887" fill-rule="evenodd"></path><path fill="#595959" stroke="#595959" stroke-width="1.0" stroke-linecap="butt" d="m457.97525 108.584l4.5332336 -1.6649704l-4.542877 -1.6384811z" fill-rule="evenodd"></path><path fill="#000000" fill-opacity="0.0" d="m593.3003 106.90878l54.11023 -0.22046661" fill-rule="evenodd"></path><path stroke="#595959" stroke-width="1.0" stroke-linejoin="round" stroke-linecap="butt" d="m593.3003 106.90878l48.11029 -0.19602966" fill-rule="evenodd"></path><path fill="#595959" stroke="#595959" stroke-width="1.0" stroke-linecap="butt" d="m641.4173 108.36448l4.531311 -1.6702118l-4.5448 -1.6332321z" fill-rule="evenodd"></path><path fill="#000000" fill-opacity="0.0" d="m423.421 81.48815l22.803131 0l0 25.228348l-22.803131 0z" fill-rule="evenodd"></path><path fill="#000000" d="m436.8741 98.6344l0.9375 0.125q-0.140625 0.984375 -0.796875 1.546875q-0.640625 0.546875 -1.5625 0.546875q-1.171875 0 -1.890625 -0.765625q-0.703125 -0.765625 -0.703125 -2.1875q0 -0.921875 0.296875 -1.609375q0.3125 -0.703125 0.9375 -1.046875q0.625 -0.34375 1.359375 -0.34375q0.921875 0 1.515625 0.46875q0.59375 0.46875 0.765625 1.328125l-0.953125 0.140625q-0.125 -0.5625 -0.46875 -0.84375q-0.34375 -0.296875 -0.828125 -0.296875q-0.71875 0 -1.1875 0.53125q-0.453125 0.515625 -0.453125 1.640625q0 1.15625 0.4375 1.671875q0.4375 0.515625 1.15625 0.515625q0.5625 0 0.9375 -0.34375q0.390625 -0.34375 0.5 -1.078125z" fill-rule="nonzero"></path><path fill="#000000" fill-opacity="0.0" d="m607.17725 81.48815l22.8031 0l0 25.228348l-22.8031 0z" fill-rule="evenodd"></path><path fill="#000000" d="m620.5991 100.72815l0 -0.71875q-0.53125 0.84375 -1.59375 0.84375q-0.671875 0 -1.25 -0.375q-0.578125 -0.375 -0.890625 -1.046875q-0.3125 -0.671875 -0.3125 -1.546875q0 -0.859375 0.28125 -1.546875q0.296875 -0.703125 0.859375 -1.0625q0.5625 -0.375 1.265625 -0.375q0.515625 0 0.921875 0.21875q0.40625 0.21875 0.65625 0.5625l0 -2.828125l0.96875 0l0 7.875l-0.90625 0zm-3.046875 -2.84375q0 1.09375 0.453125 1.640625q0.46875 0.53125 1.09375 0.53125q0.640625 0 1.078125 -0.515625q0.4375 -0.515625 0.4375 -1.578125q0 -1.171875 -0.453125 -1.71875q-0.4375 -0.546875 -1.109375 -0.546875q-0.640625 0 -1.078125 0.53125q-0.421875 0.515625 -0.421875 1.65625z" fill-rule="nonzero"></path><path fill="#b6d7a8" d="m345.32474 107.07224l0 0c0 -18.35151 14.481995 -33.228348 32.346436 -33.228348l0 0c8.578827 0 16.806274 3.5008392 22.872406 9.732361c6.0661316 6.2315216 9.47406 14.683281 9.47406 23.495987l0 0c0 18.35151 -14.481995 33.228355 -32.346466 33.228355l0 0c-17.86444 0 -32.346436 -14.876846 -32.346436 -33.228355z" fill-rule="evenodd"></path><path stroke="#595959" stroke-width="1.0" stroke-linejoin="round" stroke-linecap="butt" d="m345.32474 107.07224l0 0c0 -18.35151 14.481995 -33.228348 32.346436 -33.228348l0 0c8.578827 0 16.806274 3.5008392 22.872406 9.732361c6.0661316 6.2315216 9.47406 14.683281 9.47406 23.495987l0 0c0 18.35151 -14.481995 33.228355 -32.346466 33.228355l0 0c-17.86444 0 -32.346436 -14.876846 -32.346436 -33.228355z" fill-rule="evenodd"></path><path fill="#000000" d="m371.00854 104.452866q-0.53125 -0.203125 -1.140625 -0.203125q-0.53125 0 -0.78125 0.234375q-0.25 0.21875 -0.25 0.71875l0 0.15625l1.890625 0l0 1.265625l-1.890625 0l0 4.1875l-1.609375 0l0 -4.1875l-1.4375 0l0 -1.203125l1.4375 -0.0625l0 -0.140625q0 -0.484375 0.140625 -0.890625q0.140625 -0.40625 0.4375 -0.703125q0.296875 -0.296875 0.75 -0.46875q0.46875 -0.1875 1.109375 -0.1875q0.484375 0 0.890625 0.09375q0.40625 0.078125 0.765625 0.203125l-0.3125 1.1875zm1.5500793 0.90625l1.3125 0l0.140625 1.1875l0.03125 0q0.40625 -0.671875 0.96875 -1.0q0.578125 -0.328125 1.234375 -0.328125q0.359375 0 0.578125 0.0625q0.234375 0.046875 0.484375 0.15625l-0.328125 1.359375q-0.265625 -0.078125 -0.46875 -0.109375q-0.203125 -0.046875 -0.5 -0.046875q-0.515625 0 -1.0 0.296875q-0.484375 0.296875 -0.84375 1.03125l0 2.84375l-1.609375 0l0 -5.453125zm5.628174 2.71875q0 -0.671875 0.234375 -1.203125q0.234375 -0.546875 0.625 -0.90625q0.390625 -0.359375 0.890625 -0.546875q0.5 -0.203125 1.03125 -0.203125q0.546875 0 1.046875 0.203125q0.5 0.1875 0.890625 0.546875q0.390625 0.359375 0.609375 0.90625q0.234375 0.53125 0.234375 1.203125q0 0.6875 -0.234375 1.21875q-0.21875 0.53125 -0.609375 0.90625q-0.390625 0.359375 -0.890625 0.546875q-0.5 0.1875 -1.046875 0.1875q-0.53125 0 -1.03125 -0.1875q-0.5 -0.1875 -0.890625 -0.546875q-0.390625 -0.375 -0.625 -0.90625q-0.234375 -0.53125 -0.234375 -1.21875zm1.65625 0q0 0.71875 0.28125 1.140625q0.28125 0.421875 0.84375 0.421875q0.5625 0 0.84375 -0.421875q0.28125 -0.421875 0.28125 -1.140625q0 -0.703125 -0.28125 -1.125q-0.28125 -0.421875 -0.84375 -0.421875q-0.5625 0 -0.84375 0.421875q-0.28125 0.421875 -0.28125 1.125zm4.6125793 -2.71875l1.21875 0l0.125 0.671875l0.03125 0q0.15625 -0.328125 0.421875 -0.5625q0.28125 -0.25 0.75 -0.25q0.359375 0 0.609375 0.234375q0.25 0.21875 0.34375 0.65625q0.15625 -0.375 0.4375 -0.625q0.296875 -0.265625 0.765625 -0.265625q0.578125 0 0.890625 0.46875q0.3125 0.46875 0.3125 1.296875l0 3.828125l-1.515625 0l0 -3.703125q0 -0.515625 -0.296875 -0.515625q-0.296875 0 -0.515625 0.53125l0 3.6875l-1.234375 0l0 -3.703125q0 -0.515625 -0.328125 -0.515625q-0.15625 0 -0.265625 0.140625q-0.109375 0.125 -0.234375 0.390625l0 3.6875l-1.515625 0l0 -5.453125z" fill-rule="nonzero"></path><path fill="#000000" fill-opacity="0.0" d="m305.9175 106.8059l39.40158 0.25196838" fill-rule="evenodd"></path><path stroke="#595959" stroke-width="1.0" stroke-linejoin="round" stroke-linecap="butt" d="m305.91754 106.8059l33.401672 0.21360016" fill-rule="evenodd"></path><path fill="#595959" stroke="#595959" stroke-width="1.0" stroke-linecap="butt" d="m339.30865 108.671196l4.548584 -1.6226807l-4.527466 -1.6807175z" fill-rule="evenodd"></path><path fill="#000000" fill-opacity="0.0" d="m311.10483 79.886894l28.53543 0l0 25.228348l-28.53543 0z" fill-rule="evenodd"></path><path fill="#000000" d="m324.55795 98.42377q-0.546875 0.453125 -1.046875 0.640625q-0.484375 0.1875 -1.0625 0.1875q-0.9375 0 -1.453125 -0.453125q-0.5 -0.46875 -0.5 -1.171875q0 -0.421875 0.1875 -0.765625q0.203125 -0.34375 0.5 -0.546875q0.3125 -0.21875 0.703125 -0.328125q0.28125 -0.078125 0.859375 -0.140625q1.171875 -0.140625 1.71875 -0.34375q0.015625 -0.1875 0.015625 -0.25q0 -0.59375 -0.28125 -0.828125q-0.359375 -0.328125 -1.09375 -0.328125q-0.6875 0 -1.015625 0.234375q-0.3125 0.234375 -0.46875 0.84375l-0.953125 -0.125q0.125 -0.609375 0.421875 -0.984375q0.296875 -0.375 0.859375 -0.5625q0.5625 -0.203125 1.296875 -0.203125q0.734375 0 1.1875 0.171875q0.453125 0.171875 0.65625 0.4375q0.21875 0.25 0.3125 0.640625q0.046875 0.25 0.046875 0.90625l0 1.28125q0 1.34375 0.0625 1.703125q0.0625 0.359375 0.25 0.6875l-1.015625 0q-0.15625 -0.296875 -0.1875 -0.703125zm-0.09375 -2.15625q-0.515625 0.21875 -1.578125 0.359375q-0.59375 0.09375 -0.84375 0.203125q-0.234375 0.09375 -0.375 0.3125q-0.140625 0.203125 -0.140625 0.453125q0 0.390625 0.296875 0.65625q0.296875 0.25 0.859375 0.25q0.5625 0 0.984375 -0.25q0.4375 -0.25 0.65625 -0.671875q0.140625 -0.328125 0.140625 -0.96875l0 -0.34375z" fill-rule="nonzero"></path><path fill="#ea9999" d="m647.42255 106.67716l0 0c0 -16.142365 13.001343 -29.22834 29.039368 -29.22834l0 0c7.701721 0 15.087952 3.0794067 20.533936 8.560783c5.445923 5.4813766 8.505432 12.915718 8.505432 20.667557l0 0c0 16.142372 -13.001404 29.228355 -29.039368 29.228355l0 0c-16.038025 0 -29.039368 -13.085983 -29.039368 -29.228355z" fill-rule="evenodd"></path><path stroke="#595959" stroke-width="1.0" stroke-linejoin="round" stroke-linecap="butt" d="m647.42255 106.67716l0 0c0 -16.142365 13.001343 -29.22834 29.039368 -29.22834l0 0c7.701721 0 15.087952 3.0794067 20.533936 8.560783c5.445923 5.4813766 8.505432 12.915718 8.505432 20.667557l0 0c0 16.142372 -13.001404 29.228355 -29.039368 29.228355l0 0c-16.038025 0 -29.039368 -13.085983 -29.039368 -29.228355z" fill-rule="evenodd"></path><path fill="#000000" d="m671.9743 106.22967l-1.375 0l0 -1.203125l1.453125 -0.0625l0.21875 -1.453125l1.328125 0l0 1.453125l2.3125 0l0 1.265625l-2.3125 0l0 1.90625q0 0.625 0.265625 0.890625q0.28125 0.25 0.875 0.25q0.328125 0 0.578125 -0.046875q0.265625 -0.0625 0.515625 -0.140625l0.28125 1.15625q-0.359375 0.109375 -0.8125 0.203125q-0.4375 0.09375 -0.96875 0.09375q-0.640625 0 -1.09375 -0.171875q-0.453125 -0.171875 -0.734375 -0.484375q-0.28125 -0.3125 -0.40625 -0.75q-0.125 -0.453125 -0.125 -0.984375l0 -1.921875zm5.003235 1.453125q0 -0.671875 0.234375 -1.203125q0.234375 -0.546875 0.625 -0.90625q0.390625 -0.359375 0.890625 -0.546875q0.5 -0.203125 1.03125 -0.203125q0.546875 0 1.046875 0.203125q0.5 0.1875 0.890625 0.546875q0.390625 0.359375 0.609375 0.90625q0.234375 0.53125 0.234375 1.203125q0 0.6875 -0.234375 1.21875q-0.21875 0.53125 -0.609375 0.90625q-0.390625 0.359375 -0.890625 0.546875q-0.5 0.1875 -1.046875 0.1875q-0.53125 0 -1.03125 -0.1875q-0.5 -0.1875 -0.890625 -0.546875q-0.390625 -0.375 -0.625 -0.90625q-0.234375 -0.53125 -0.234375 -1.21875zm1.65625 0q0 0.71875 0.28125 1.140625q0.28125 0.421875 0.84375 0.421875q0.5625 0 0.84375 -0.421875q0.28125 -0.421875 0.28125 -1.140625q0 -0.703125 -0.28125 -1.125q-0.28125 -0.421875 -0.84375 -0.421875q-0.5625 0 -0.84375 0.421875q-0.28125 0.421875 -0.28125 1.125z" fill-rule="nonzero"></path><path fill="#000000" fill-opacity="0.0" d="m705.5013 106.67716l49.322815 0.12598419" fill-rule="evenodd"></path><path stroke="#595959" stroke-width="1.0" stroke-linejoin="round" stroke-linecap="butt" d="m705.5012 106.67716l43.322815 0.11065674" fill-rule="evenodd"></path><path fill="#595959" stroke="#595959" stroke-width="1.0" stroke-linecap="butt" d="m748.8199 108.43955l4.5422974 -1.6401367l-4.5338745 -1.6633224z" fill-rule="evenodd"></path><path fill="#000000" fill-opacity="0.0" d="m711.60785 80.68752l28.5354 0l0 25.228348l-28.5354 0z" fill-rule="evenodd"></path><path fill="#000000" d="m722.2172 99.92752l-0.890625 0l0 -7.875l0.96875 0l0 2.8125q0.609375 -0.765625 1.5625 -0.765625q0.53125 0 1.0 0.21875q0.46875 0.203125 0.765625 0.59375q0.3125 0.375 0.484375 0.921875q0.171875 0.53125 0.171875 1.15625q0 1.46875 -0.734375 2.265625q-0.71875 0.796875 -1.734375 0.796875q-1.015625 0 -1.59375 -0.84375l0 0.71875zm0 -2.890625q0 1.015625 0.28125 1.484375q0.453125 0.734375 1.234375 0.734375q0.625 0 1.078125 -0.546875q0.46875 -0.546875 0.46875 -1.640625q0 -1.109375 -0.4375 -1.640625q-0.4375 -0.53125 -1.078125 -0.53125q-0.625 0 -1.09375 0.546875q-0.453125 0.546875 -0.453125 1.59375z" fill-rule="nonzero"></path><path fill="#000000" fill-opacity="0.0" d="m257.89856 151.88689l28.53543 0l0 25.228348l-28.53543 0z" fill-rule="evenodd"></path><path fill="#000000" d="m271.35168 170.42377q-0.546875 0.453125 -1.046875 0.640625q-0.484375 0.1875 -1.0625 0.1875q-0.9375 0 -1.453125 -0.453125q-0.5 -0.46875 -0.5 -1.171875q0 -0.421875 0.1875 -0.765625q0.203125 -0.34375 0.5 -0.546875q0.3125 -0.21875 0.703125 -0.328125q0.28125 -0.078125 0.859375 -0.140625q1.171875 -0.140625 1.71875 -0.34375q0.015625 -0.1875 0.015625 -0.25q0 -0.59375 -0.28125 -0.828125q-0.359375 -0.328125 -1.09375 -0.328125q-0.6875 0 -1.015625 0.234375q-0.3125 0.234375 -0.46875 0.84375l-0.953125 -0.125q0.125 -0.609375 0.421875 -0.984375q0.296875 -0.375 0.859375 -0.5625q0.5625 -0.203125 1.296875 -0.203125q0.734375 0 1.1875 0.171875q0.453125 0.171875 0.65625 0.4375q0.21875 0.25 0.3125 0.640625q0.046875 0.25 0.046875 0.90625l0 1.28125q0 1.34375 0.0625 1.703125q0.0625 0.359375 0.25 0.6875l-1.015625 0q-0.15625 -0.296875 -0.1875 -0.703125zm-0.09375 -2.15625q-0.515625 0.21875 -1.578125 0.359375q-0.59375 0.09375 -0.84375 0.203125q-0.234375 0.09375 -0.375 0.3125q-0.140625 0.203125 -0.140625 0.453125q0 0.390625 0.296875 0.65625q0.296875 0.25 0.859375 0.25q0.5625 0 0.984375 -0.25q0.4375 -0.25 0.65625 -0.671875q0.140625 -0.328125 0.140625 -0.96875l0 -0.34375z" fill-rule="nonzero"></path><path fill="#000000" fill-opacity="0.0" d="m776.0932 157.4684l28.5354 0l0 25.228348l-28.5354 0z" fill-rule="evenodd"></path><path fill="#000000" d="m786.7026 176.70839l-0.890625 0l0 -7.875l0.96875 0l0 2.8125q0.609375 -0.765625 1.5625 -0.765625q0.53125 0 1.0 0.21875q0.46875 0.203125 0.765625 0.59375q0.3125 0.375 0.484375 0.921875q0.171875 0.53125 0.171875 1.15625q0 1.46875 -0.734375 2.265625q-0.71875 0.796875 -1.734375 0.796875q-1.015625 0 -1.59375 -0.84375l0 0.71875zm0 -2.890625q0 1.015625 0.28125 1.484375q0.453125 0.734375 1.234375 0.734375q0.625 0 1.078125 -0.546875q0.46875 -0.546875 0.46875 -1.640625q0 -1.109375 -0.4375 -1.640625q-0.4375 -0.53125 -1.078125 -0.53125q-0.625 0 -1.09375 0.546875q-0.453125 0.546875 -0.453125 1.59375z" fill-rule="nonzero"></path><path fill="#eeeeee" d="m100.83727 236.32545l760.25195 0l0 260.9134l-760.25195 0z" fill-rule="evenodd"></path><path stroke="#595959" stroke-width="1.0" stroke-linejoin="round" stroke-linecap="butt" d="m100.83727 236.32545l760.25195 0l0 260.9134l-760.25195 0z" fill-rule="evenodd"></path><path fill="#000000" d="m111.05602 482.8226q0.140625 -0.65625 0.453125 -1.171875q0.3125 -0.53125 0.71875 -0.890625q0.421875 -0.359375 0.90625 -0.5625q0.5 -0.203125 0.96875 -0.203125q0.5 0 0.828125 0.1875q0.328125 0.1875 0.625 0.515625l0.1875 -1.0l0.421875 -2.046875l0.90625 0l-1.65625 7.828125l-0.75 0l0.078125 -0.703125l-0.03125 0q-0.40625 0.34375 -0.921875 0.59375q-0.515625 0.234375 -1.0 0.234375q-0.53125 0 -0.921875 -0.171875q-0.375 -0.1875 -0.609375 -0.546875q-0.234375 -0.359375 -0.296875 -0.875q-0.046875 -0.515625 0.09375 -1.1875zm0.9375 -0.015625q-0.203125 0.96875 0.09375 1.515625q0.3125 0.53125 1.0625 0.53125q0.78125 0 1.671875 -0.8125l0.5625 -2.65625q-0.296875 -0.34375 -0.609375 -0.484375q-0.3125 -0.140625 -0.671875 -0.140625q-0.34375 0 -0.6875 0.15625q-0.328125 0.140625 -0.609375 0.40625q-0.28125 0.265625 -0.5 0.640625q-0.203125 0.375 -0.3125 0.84375zm6.362564 -2.671875l3.390625 0l-1.140625 5.34375l-0.90625 0l0.984375 -4.609375l-2.484375 0l0.15625 -0.734375zm3.078125 -1.109375q-0.3125 0 -0.484375 -0.171875q-0.15625 -0.1875 -0.09375 -0.515625q0.0625 -0.3125 0.3125 -0.5q0.25 -0.203125 0.5625 -0.203125q0.3125 0 0.46875 0.203125q0.15625 0.1875 0.09375 0.5q-0.0625 0.328125 -0.3125 0.515625q-0.234375 0.171875 -0.546875 0.171875zm2.987564 1.109375l0.703125 0l-0.078125 0.703125l0.03125 0q0.28125 -0.375 0.609375 -0.609375q0.328125 -0.234375 0.78125 -0.234375q0.8125 0 0.8125 0.9375q0.328125 -0.421875 0.671875 -0.671875q0.34374237 -0.265625 0.7968674 -0.265625q0.5625 0 0.765625 0.4375q0.203125 0.421875 0.03125 1.21875l-0.8125 3.828125l-0.8593674 0l0.7968674 -3.75q0.203125 -0.953125 -0.390625 -0.953125q-0.28124237 0 -0.5468674 0.203125q-0.25 0.203125 -0.53125 0.625l-0.828125 3.875l-0.71875 0l0.796875 -3.75q0.203125 -0.953125 -0.40625 -0.953125q-0.28125 0 -0.53125 0.203125q-0.25 0.203125 -0.53125 0.625l-0.828125 3.875l-0.875 0l1.140625 -5.34375zm5.7844315 3.953125q0.09375 -0.453125 0.375 -0.78125q0.28125 -0.34375 0.796875 -0.578125q0.53125 -0.234375 1.296875 -0.390625q0.78125 -0.15625 1.828125 -0.25q0.046875 -0.265625 0.015625 -0.5q-0.03125 -0.25 -0.15625 -0.4375q-0.125 -0.1875 -0.375 -0.296875q-0.234375 -0.109375 -0.625 -0.109375q-0.53125 0 -1.0625 0.203125q-0.515625 0.203125 -0.9375 0.4375l-0.21875 -0.609375q0.21875 -0.140625 0.515625 -0.265625q0.3125 -0.140625 0.625 -0.25q0.328125 -0.109375 0.6875 -0.1875q0.359375 -0.078125 0.71875 -0.078125q1.09375 0 1.5 0.609375q0.40625 0.59375 0.203125 1.59375l-0.703125 3.28125l-0.75 0l0.078125 -0.71875l-0.03125 0q-0.53125 0.34375 -1.125 0.59375q-0.59375 0.25 -1.171875 0.25q-0.375 0 -0.6875 -0.109375q-0.296875 -0.09375 -0.515625 -0.28125q-0.203125 -0.203125 -0.28125 -0.46875q-0.078125 -0.28125 0 -0.65625zm0.890625 -0.0625q-0.046875 0.234375 0.015625 0.390625q0.0625 0.15625 0.1875 0.265625q0.140625 0.109375 0.34375 0.15625q0.21875 0.046875 0.453125 0.046875q0.453125 0 0.9375 -0.203125q0.5 -0.203125 1.046875 -0.59375l0.296875 -1.40625q-0.875 0.0625 -1.484375 0.1875q-0.59375 0.125 -0.984375 0.296875q-0.375 0.171875 -0.578125 0.390625q-0.1875 0.203125 -0.234375 0.46875zm6.143814 1.90625l-0.390625 1.796875l-0.90625 0l1.625 -7.59375l0.75 0l-0.078125 0.6875l0.03125 0q0.453125 -0.359375 1.0 -0.59375q0.546875 -0.234375 1.046875 -0.234375q0.53125 0 0.890625 0.203125q0.375 0.1875 0.578125 0.546875q0.21875 0.359375 0.25 0.859375q0.03125 0.5 -0.109375 1.125q-0.140625 0.6875 -0.453125 1.21875q-0.296875 0.53125 -0.71875 0.90625q-0.421875 0.375 -0.90625 0.5625q-0.46875 0.1875 -0.953125 0.1875q-0.375 0 -0.78125 -0.171875q-0.390625 -0.1875 -0.671875 -0.515625l-0.203125 1.015625zm0.359375 -1.703125q0.3125 0.34375 0.671875 0.484375q0.359375 0.140625 0.640625 0.140625q0.71875 0 1.296875 -0.5625q0.578125 -0.5625 0.78125 -1.5625q0.09375 -0.4375 0.078125 -0.796875q0 -0.375 -0.125 -0.625q-0.125 -0.265625 -0.390625 -0.40625q-0.25 -0.140625 -0.640625 -0.140625q-0.359375 0 -0.796875 0.203125q-0.4375 0.1875 -0.953125 0.59375l-0.5625 2.671875z" fill-rule="nonzero"></path><path fill="#000000" d="m148.8564 482.8226q0 -0.65625 0.203125 -1.171875q0.203125 -0.53125 0.53125 -0.890625q0.34375 -0.359375 0.78125 -0.5625q0.453125 -0.203125 0.921875 -0.203125q0.5 0 0.859375 0.1875q0.375 0.1875 0.75 0.515625l-0.03125 -1.0l0 -2.046875l0.90625 0l0 7.828125l-0.75 0l-0.078125 -0.703125l-0.03125 0q-0.328125 0.34375 -0.796875 0.59375q-0.453125 0.234375 -0.9375 0.234375q-0.53125 0 -0.953125 -0.171875q-0.421875 -0.1875 -0.734375 -0.546875q-0.3125 -0.359375 -0.484375 -0.875q-0.15625 -0.515625 -0.15625 -1.1875zm0.9375 -0.015625q0 0.96875 0.40625 1.515625q0.421875 0.53125 1.171875 0.53125q0.78125 0 1.5 -0.8125l0 -2.65625q-0.359375 -0.34375 -0.703125 -0.484375q-0.34375 -0.140625 -0.703125 -0.140625q-0.34375 0 -0.65625 0.15625q-0.296875 0.140625 -0.53125 0.40625q-0.21875 0.265625 -0.359375 0.640625q-0.125 0.375 -0.125 0.84375zm10.362564 2.671875l-0.75 0l-0.078125 -0.9375l-0.03125 0q-0.40625 0.46875 -0.890625 0.765625q-0.484375 0.296875 -1.109375 0.296875q-0.96875 0 -1.421875 -0.53125q-0.4375 -0.546875 -0.4375 -1.625l0 -3.3125l0.921875 0l0 3.203125q0 0.75 0.28125 1.125q0.28125 0.359375 0.9375 0.359375q0.46875 0 0.84375 -0.234375q0.375 -0.234375 0.828125 -0.75l0 -3.703125l0.90625 0l0 5.34375zm2.753189 0.453125l0 1.796875l-0.90625 0l0 -7.59375l0.75 0l0.078125 0.6875l0.03125 0q0.375 -0.359375 0.859375 -0.59375q0.5 -0.234375 1.0 -0.234375q0.53125 0 0.9375 0.203125q0.421875 0.1875 0.703125 0.546875q0.28125 0.359375 0.421875 0.859375q0.140625 0.5 0.140625 1.125q0 0.6875 -0.203125 1.21875q-0.1875 0.53125 -0.53125 0.90625q-0.328125 0.375 -0.765625 0.5625q-0.4375 0.1875 -0.921875 0.1875q-0.375 0 -0.8125 -0.171875q-0.4375 -0.1875 -0.796875 -0.515625l0.015625 1.015625zm0 -1.703125q0.390625 0.34375 0.765625 0.484375q0.390625 0.140625 0.671875 0.140625q0.71875 0 1.171875 -0.5625q0.46875 -0.5625 0.46875 -1.5625q0 -0.4375 -0.09375 -0.796875q-0.078125 -0.375 -0.265625 -0.625q-0.171875 -0.265625 -0.46875 -0.40625q-0.28125 -0.140625 -0.671875 -0.140625q-0.359375 0 -0.765625 0.203125q-0.390625 0.1875 -0.8125 0.59375l0 2.671875zm16.428253 1.25l-0.75 0l-0.078125 -0.9375l-0.03125 0q-0.40625 0.46875 -0.890625 0.765625q-0.484375 0.296875 -1.109375 0.296875q-0.96875 0 -1.421875 -0.53125q-0.4375 -0.546875 -0.4375 -1.625l0 -3.3125l0.921875 0l0 3.203125q0 0.75 0.28125 1.125q0.28125 0.359375 0.9375 0.359375q0.46875 0 0.84375 -0.234375q0.375 -0.234375 0.828125 -0.75l0 -3.703125l0.90625 0l0 5.34375zm2.753189 0.453125l0 1.796875l-0.90625 0l0 -7.59375l0.75 0l0.078125 0.6875l0.03125 0q0.375 -0.359375 0.859375 -0.59375q0.5 -0.234375 1.0 -0.234375q0.53125 0 0.9375 0.203125q0.421875 0.1875 0.703125 0.546875q0.28125 0.359375 0.421875 0.859375q0.140625 0.5 0.140625 1.125q0 0.6875 -0.203125 1.21875q-0.1875 0.53125 -0.53125 0.90625q-0.328125 0.375 -0.765625 0.5625q-0.4375 0.1875 -0.921875 0.1875q-0.375 0 -0.8125 -0.171875q-0.4375 -0.1875 -0.796875 -0.515625l0.015625 1.015625zm0 -1.703125q0.390625 0.34375 0.765625 0.484375q0.390625 0.140625 0.671875 0.140625q0.71875 0 1.171875 -0.5625q0.46875 -0.5625 0.46875 -1.5625q0 -0.4375 -0.09375 -0.796875q-0.078125 -0.375 -0.265625 -0.625q-0.171875 -0.265625 -0.46875 -0.40625q-0.28125 -0.140625 -0.671875 -0.140625q-0.359375 0 -0.765625 0.203125q-0.390625 0.1875 -0.8125 0.59375l0 2.671875zm5.128189 -1.40625q0 -0.65625 0.203125 -1.171875q0.203125 -0.53125 0.53125 -0.890625q0.34375 -0.359375 0.78125 -0.5625q0.453125 -0.203125 0.921875 -0.203125q0.5 0 0.859375 0.1875q0.375 0.1875 0.75 0.515625l-0.03125 -1.0l0 -2.046875l0.90625 0l0 7.828125l-0.75 0l-0.078125 -0.703125l-0.03125 0q-0.328125 0.34375 -0.796875 0.59375q-0.453125 0.234375 -0.9375 0.234375q-0.53125 0 -0.953125 -0.171875q-0.421875 -0.1875 -0.734375 -0.546875q-0.3125 -0.359375 -0.484375 -0.875q-0.15625 -0.515625 -0.15625 -1.1875zm0.9375 -0.015625q0 0.96875 0.40625 1.515625q0.421875 0.53125 1.171875 0.53125q0.78125 0 1.5 -0.8125l0 -2.65625q-0.359375 -0.34375 -0.703125 -0.484375q-0.34375 -0.140625 -0.703125 -0.140625q-0.34375 0 -0.65625 0.15625q-0.296875 0.140625 -0.53125 0.40625q-0.21875 0.265625 -0.359375 0.640625q-0.125 0.375 -0.125 0.84375zm5.690689 1.28125q0 -0.453125 0.203125 -0.78125q0.21875 -0.34375 0.6875 -0.578125q0.46875 -0.234375 1.203125 -0.390625q0.75 -0.15625 1.78125 -0.25q-0.015625 -0.265625 -0.09375 -0.5q-0.078125 -0.25 -0.25 -0.4375q-0.15625 -0.1875 -0.421875 -0.296875q-0.265625 -0.109375 -0.65625 -0.109375q-0.53125 0 -1.015625 0.203125q-0.484375 0.203125 -0.859375 0.4375l-0.34375 -0.609375q0.1875 -0.140625 0.453125 -0.265625q0.28125 -0.140625 0.578125 -0.25q0.3125 -0.109375 0.640625 -0.1875q0.34375 -0.078125 0.703125 -0.078125q1.09375 0 1.625 0.609375q0.546875 0.59375 0.546875 1.59375l0 3.28125l-0.75 0l-0.078125 -0.71875l-0.03125 0q-0.453125 0.34375 -1.0 0.59375q-0.53125 0.25 -1.109375 0.25q-0.375 0 -0.703125 -0.109375q-0.328125 -0.09375 -0.578125 -0.28125q-0.25 -0.203125 -0.390625 -0.46875q-0.140625 -0.28125 -0.140625 -0.65625zm0.875 -0.0625q0 0.234375 0.09375 0.390625q0.109375 0.15625 0.265625 0.265625q0.15625 0.109375 0.375 0.15625q0.21875 0.046875 0.453125 0.046875q0.453125 0 0.890625 -0.203125q0.453125 -0.203125 0.921875 -0.59375l0 -1.40625q-0.859375 0.0625 -1.4375 0.1875q-0.578125 0.125 -0.921875 0.296875q-0.34375 0.171875 -0.5 0.390625q-0.140625 0.203125 -0.140625 0.46875zm6.893814 -3.15625l-1.5 0l0 -0.6875l1.53125 -0.046875l0.125 -1.5l0.75 0l0 1.5l2.625 0l0 0.734375l-2.625 0l0 2.546875q0 0.359375 0.0625 0.625q0.0625 0.265625 0.21875 0.453125q0.15625 0.1875 0.421875 0.28125q0.265625 0.09375 0.640625 0.09375q0.390625 0 0.6875 -0.0625q0.3125 -0.0625 0.609375 -0.171875l0.1875 0.65625q-0.359375 0.125 -0.796875 0.21875q-0.4375 0.09375 -0.875 0.09375q-0.59375 0 -0.984375 -0.15625q-0.390625 -0.15625 -0.640625 -0.4375q-0.234375 -0.296875 -0.34375 -0.703125q-0.09375 -0.40625 -0.09375 -0.90625l0 -2.53125zm4.893814 1.953125q0 -0.671875 0.21875 -1.1875q0.234375 -0.515625 0.609375 -0.875q0.390625 -0.375 0.875 -0.5625q0.484375 -0.203125 1.0 -0.203125q0.578125 0 1.03125 0.1875q0.453125 0.1875 0.765625 0.515625q0.3125 0.328125 0.46875 0.796875q0.171875 0.453125 0.171875 1.015625q0 0.140625 -0.015625 0.28125q0 0.140625 -0.015625 0.234375l-4.1875 0q0.015625 0.421875 0.171875 0.765625q0.171875 0.34375 0.4375 0.59375q0.265625 0.234375 0.625 0.375q0.375 0.125 0.8125 0.125q0.484375 0 0.875 -0.125q0.390625 -0.140625 0.765625 -0.375l0.3125 0.59375q-0.390625 0.265625 -0.90625 0.453125q-0.5 0.171875 -1.15625 0.171875q-0.59375 0 -1.125 -0.1875q-0.515625 -0.1875 -0.90625 -0.546875q-0.390625 -0.359375 -0.609375 -0.875q-0.21875 -0.515625 -0.21875 -1.171875zm4.3125 -0.453125q0 -0.796875 -0.421875 -1.21875q-0.421875 -0.4375 -1.171875 -0.4375q-0.328125 0 -0.640625 0.109375q-0.296875 0.109375 -0.546875 0.328125q-0.234375 0.21875 -0.40625 0.53125q-0.15625 0.296875 -0.203125 0.6875l3.390625 0z" fill-rule="nonzero"></path><path fill="#d9d2e9" d="m251.88452 269.58267l444.063 0l0 199.24411l-444.063 0z" fill-rule="evenodd"></path><path stroke="#595959" stroke-width="1.0" stroke-linejoin="round" stroke-linecap="butt" d="m251.88452 269.58267l444.063 0l0 199.24411l-444.063 0z" fill-rule="evenodd"></path><path fill="#000000" d="m268.52515 450.09802q-0.3125 -0.15625 -0.578125 -0.203125q-0.265625 -0.0625 -0.625 -0.0625q-0.71875 0 -1.125 0.375q-0.390625 0.375 -0.53125 1.03125l-0.09375 0.484375l2.25 0l-0.15625 0.734375l-2.25 0l-0.984375 4.609375l-0.890625 0l0.984375 -4.609375l-1.515625 0l0.140625 -0.6875l1.53125 -0.046875l0.09375 -0.453125q0.203125 -0.984375 0.84375 -1.578125q0.65625 -0.59375 1.765625 -0.59375q0.796875 0 1.484375 0.3125l-0.34375 0.6875zm0.8781738 1.625l3.390625 0l-1.140625 5.34375l-0.90625 0l0.984375 -4.609375l-2.484375 0l0.15625 -0.734375zm3.078125 -1.109375q-0.3125 0 -0.484375 -0.171875q-0.15625 -0.1875 -0.09375 -0.515625q0.0625 -0.3125 0.3125 -0.5q0.25 -0.203125 0.5625 -0.203125q0.3125 0 0.46875 0.203125q0.15625 0.1875 0.09375 0.5q-0.0625 0.328125 -0.3125 0.515625q-0.234375 0.171875 -0.546875 0.171875zm3.9407043 1.109375l0.75 0l-0.203125 1.265625l0.03125 0q0.546875 -0.65625 1.25 -1.03125q0.703125 -0.375 1.4375 -0.375q0.296875 0 0.53125 0.0625q0.25 0.046875 0.484375 0.15625l-0.375 0.78125q-0.28125 -0.09375 -0.46875 -0.125q-0.171875 -0.046875 -0.5 -0.046875q-0.59375 0 -1.234375 0.34375q-0.625 0.34375 -1.265625 1.171875l-0.671875 3.140625l-0.90625 0l1.140625 -5.34375zm5.159424 4.046875q0.375 0.328125 0.84375 0.53125q0.484375 0.1875 1.203125 0.1875q0.734375 0 1.125 -0.234375q0.40625 -0.25 0.484375 -0.59375q0.0625 -0.3125 -0.265625 -0.546875q-0.328125 -0.25 -1.25 -0.484375q-0.390625 -0.109375 -0.734375 -0.25q-0.34375 -0.140625 -0.578125 -0.328125q-0.21875 -0.203125 -0.34375 -0.421875q-0.125 -0.234375 -0.0625 -0.515625q0.0625 -0.328125 0.265625 -0.609375q0.21875 -0.28125 0.53125 -0.484375q0.328125 -0.203125 0.78125 -0.3125q0.453125 -0.125 1.0 -0.125q0.609375 0 1.125 0.203125q0.53125 0.203125 0.859375 0.484375l-0.5625 0.578125q-0.28125 -0.25 -0.6875 -0.40625q-0.390625 -0.15625 -0.890625 -0.15625q-0.375 0 -0.640625 0.0625q-0.265625 0.0625 -0.453125 0.171875q-0.171875 0.109375 -0.265625 0.25q-0.078125 0.140625 -0.125 0.296875q-0.0625 0.328125 0.328125 0.546875q0.40625 0.203125 1.109375 0.390625q1.015625 0.28125 1.453125 0.640625q0.453125 0.34375 0.328125 0.953125q-0.0625 0.328125 -0.28125 0.625q-0.203125 0.28125 -0.5625 0.5q-0.34375 0.21875 -0.828125 0.34375q-0.46875 0.125 -1.046875 0.125q-0.78125 0 -1.40625 -0.234375q-0.609375 -0.25 -1.015625 -0.59375l0.5625 -0.59375zm8.128204 -3.3125l-1.5 0l0.140625 -0.6875l1.546875 -0.046875l0.4375 -1.5l0.75 0l-0.3125 1.5l2.625 0l-0.15625 0.734375l-2.625 0l-0.546875 2.546875q-0.078125 0.359375 -0.078125 0.625q0.015625 0.265625 0.125 0.453125q0.125 0.1875 0.359375 0.28125q0.25 0.09375 0.625 0.09375q0.390625 0 0.703125 -0.0625q0.328125 -0.0625 0.640625 -0.171875l0.0625 0.65625q-0.390625 0.125 -0.859375 0.21875q-0.453125 0.09375 -0.890625 0.09375q-0.59375 0 -0.953125 -0.15625q-0.34375 -0.15625 -0.53125 -0.4375q-0.1875 -0.296875 -0.203125 -0.703125q-0.015625 -0.40625 0.09375 -0.90625l0.546875 -2.53125z" fill-rule="nonzero"></path><path fill="#eeeeee" d="m301.64435 283.00262l342.6772 0l0 122.61417l-342.6772 0z" fill-rule="evenodd"></path><path stroke="#595959" stroke-width="1.0" stroke-linejoin="round" stroke-linecap="butt" d="m301.64435 283.00262l342.6772 0l0 122.61417l-342.6772 0z" fill-rule="evenodd"></path><path fill="#000000" d="m313.19122 386.0287l2.734375 0l-1.28125 6.09375q-0.125 0.59375 0.09375 0.859375q0.21875 0.265625 0.6875 0.265625q0.453125 0 1.078125 -0.265625l0.09375 0.6875q-0.390625 0.125 -0.734375 0.21875q-0.34375 0.09375 -0.78125 0.09375q-0.859375 0 -1.203125 -0.484375q-0.34375 -0.484375 -0.140625 -1.4375l1.125 -5.296875l-1.828125 0l0.15625 -0.734375zm5.6438293 2.484375l0.703125 0l-0.078125 0.703125l0.03125 0q0.28125 -0.375 0.609375 -0.609375q0.328125 -0.234375 0.78125 -0.234375q0.8125 0 0.8125 0.9375q0.328125 -0.421875 0.671875 -0.671875q0.34375 -0.265625 0.796875 -0.265625q0.5625 0 0.765625 0.4375q0.203125 0.421875 0.03125 1.21875l-0.8125 3.828125l-0.859375 0l0.796875 -3.75q0.203125 -0.953125 -0.390625 -0.953125q-0.28125 0 -0.546875 0.203125q-0.25 0.203125 -0.53125 0.625l-0.828125 3.875l-0.71875 0l0.796875 -3.75q0.203125 -0.953125 -0.40625 -0.953125q-0.28125 0 -0.53125 0.203125q-0.25 0.203125 -0.53125 0.625l-0.828125 3.875l-0.875 0l1.140625 -5.34375zm5.784424 3.953125q0.09375 -0.453125 0.375 -0.78125q0.28125 -0.34375 0.796875 -0.578125q0.53125 -0.234375 1.296875 -0.390625q0.78125 -0.15625 1.828125 -0.25q0.046875 -0.265625 0.015625 -0.5q-0.03125 -0.25 -0.15625 -0.4375q-0.125 -0.1875 -0.375 -0.296875q-0.234375 -0.109375 -0.625 -0.109375q-0.53125 0 -1.0625 0.203125q-0.515625 0.203125 -0.9375 0.4375l-0.21875 -0.609375q0.21875 -0.140625 0.515625 -0.265625q0.3125 -0.140625 0.625 -0.25q0.328125 -0.109375 0.6875 -0.1875q0.359375 -0.078125 0.71875 -0.078125q1.09375 0 1.5 0.609375q0.40625 0.59375 0.203125 1.59375l-0.703125 3.28125l-0.75 0l0.078125 -0.71875l-0.03125 0q-0.53125 0.34375 -1.125 0.59375q-0.59375 0.25 -1.171875 0.25q-0.375 0 -0.6875 -0.109375q-0.296875 -0.09375 -0.515625 -0.28125q-0.203125 -0.203125 -0.28125 -0.46875q-0.078125 -0.28125 0 -0.65625zm0.890625 -0.0625q-0.046875 0.234375 0.015625 0.390625q0.0625 0.15625 0.1875 0.265625q0.140625 0.109375 0.34375 0.15625q0.21875 0.046875 0.453125 0.046875q0.453125 0 0.9375 -0.203125q0.5 -0.203125 1.046875 -0.59375l0.296875 -1.40625q-0.875 0.0625 -1.484375 0.1875q-0.59375 0.125 -0.984375 0.296875q-0.375 0.171875 -0.578125 0.390625q-0.1875 0.203125 -0.234375 0.46875zm6.1438293 1.90625l-0.390625 1.796875l-0.90625 0l1.625 -7.59375l0.75 0l-0.078125 0.6875l0.03125 0q0.453125 -0.359375 1.0 -0.59375q0.546875 -0.234375 1.046875 -0.234375q0.53125 0 0.890625 0.203125q0.375 0.1875 0.578125 0.546875q0.21875 0.359375 0.25 0.859375q0.03125 0.5 -0.109375 1.125q-0.140625 0.6875 -0.453125 1.21875q-0.296875 0.53125 -0.71875 0.90625q-0.421875 0.375 -0.90625 0.5625q-0.46875 0.1875 -0.953125 0.1875q-0.375 0 -0.78125 -0.171875q-0.390625 -0.1875 -0.671875 -0.515625l-0.203125 1.015625zm0.359375 -1.703125q0.3125 0.34375 0.671875 0.484375q0.359375 0.140625 0.640625 0.140625q0.71875 0 1.296875 -0.5625q0.578125 -0.5625 0.78125 -1.5625q0.09375 -0.4375 0.078125 -0.796875q0 -0.375 -0.125 -0.625q-0.125 -0.265625 -0.390625 -0.40625q-0.25 -0.140625 -0.640625 -0.140625q-0.359375 0 -0.796875 0.203125q-0.4375 0.1875 -0.953125 0.59375l-0.5625 2.671875z" fill-rule="nonzero"></path><path fill="#000000" d="m343.17593 388.51306l0.90625 0l1.234375 3.03125q0.171875 0.40625 0.3125 0.796875q0.15625 0.390625 0.296875 0.78125l0.046875 0q0.140625 -0.390625 0.265625 -0.78125q0.140625 -0.390625 0.3125 -0.796875l1.234375 -3.03125l0.859375 0l-2.203125 5.34375l-1.015625 0l-2.25 -5.34375zm6.815674 0l3.390625 0l0 5.34375l-0.90625 0l0 -4.609375l-2.484375 0l0 -0.734375zm2.84375 -1.109375q-0.3125 0 -0.515625 -0.171875q-0.203125 -0.1875 -0.203125 -0.515625q0 -0.3125 0.203125 -0.5q0.203125 -0.203125 0.515625 -0.203125q0.3125 0 0.515625 0.203125q0.203125 0.1875 0.203125 0.5q0 0.328125 -0.203125 0.515625q-0.203125 0.171875 -0.515625 0.171875zm3.3313293 3.796875q0 -0.671875 0.21875 -1.1875q0.234375 -0.515625 0.609375 -0.875q0.390625 -0.375 0.875 -0.5625q0.484375 -0.203125 1.0 -0.203125q0.578125 0 1.03125 0.1875q0.453125 0.1875 0.765625 0.515625q0.3125 0.328125 0.46875 0.796875q0.171875 0.453125 0.171875 1.015625q0 0.140625 -0.015625 0.28125q0 0.140625 -0.015625 0.234375l-4.1875 0q0.015625 0.421875 0.171875 0.765625q0.171875 0.34375 0.4375 0.59375q0.265625 0.234375 0.625 0.375q0.375 0.125 0.8125 0.125q0.484375 0 0.875 -0.125q0.390625 -0.140625 0.765625 -0.375l0.3125 0.59375q-0.390625 0.265625 -0.90625 0.453125q-0.5 0.171875 -1.15625 0.171875q-0.59375 0 -1.125 -0.1875q-0.515625 -0.1875 -0.90625 -0.546875q-0.390625 -0.359375 -0.609375 -0.875q-0.21875 -0.515625 -0.21875 -1.171875zm4.3125 -0.453125q0 -0.796875 -0.421875 -1.21875q-0.421875 -0.4375 -1.171875 -0.4375q-0.328125 0 -0.640625 0.109375q-0.296875 0.109375 -0.546875 0.328125q-0.234375 0.21875 -0.40625 0.53125q-0.15625 0.296875 -0.203125 0.6875l3.390625 0zm1.4094238 -2.234375l0.921875 0l0.640625 3.09375q0.078125 0.375 0.140625 0.75q0.078125 0.359375 0.125 0.734375l0.046875 0q0.078125 -0.375 0.15625 -0.734375q0.078125 -0.375 0.15625 -0.75l0.65625 -2.78125l0.765625 0l0.65625 2.78125q0.09375 0.375 0.171875 0.75q0.078125 0.359375 0.171875 0.734375l0.03125 0q0.078125 -0.375 0.140625 -0.734375q0.0625 -0.375 0.125 -0.75l0.65625 -3.09375l0.859375 0l-1.171875 5.34375l-1.09375 0l-0.625 -2.703125q-0.078125 -0.390625 -0.15625 -0.765625q-0.0625 -0.375 -0.140625 -0.78125l-0.046875 0q-0.0625 0.34375 -0.140625 0.71875q-0.0625 0.375 -0.15625 0.84375l-0.625 2.6875l-1.078125 0l-1.1875 -5.34375z" fill-rule="nonzero"></path><path fill="#000000" d="m466.6672 314.4539l135.02365 0l0 59.149597l-135.02365 0z" fill-rule="evenodd"></path><path stroke="#595959" stroke-width="1.0" stroke-linejoin="round" stroke-linecap="butt" d="m466.6672 314.4539l135.02365 0l0 59.149597l-135.02365 0z" fill-rule="evenodd"></path><path fill="#d9ead3" d="m342.78668 344.20926l0 0c0 -18.577637 15.123627 -33.637787 33.77954 -33.637787l0 0c8.958893 0 17.550842 3.5439758 23.885712 9.852295c6.3349 6.3082886 9.893799 14.864197 9.893799 23.785492l0 0c0 18.577667 -15.123596 33.637817 -33.77951 33.637817l0 0c-18.655914 0 -33.77954 -15.06015 -33.77954 -33.637817z" fill-rule="evenodd"></path><path stroke="#595959" stroke-width="1.0" stroke-linejoin="round" stroke-linecap="butt" d="m342.78668 344.20926l0 0c0 -18.577637 15.123627 -33.637787 33.77954 -33.637787l0 0c8.958893 0 17.550842 3.5439758 23.885712 9.852295c6.3349 6.3082886 9.893799 14.864197 9.893799 23.785492l0 0c0 18.577667 -15.123596 33.637817 -33.77951 33.637817l0 0c-18.655914 0 -33.77954 -15.06015 -33.77954 -33.637817z" fill-rule="evenodd"></path><path fill="#000000" d="m364.12234 342.49615l1.625 0l0.859375 2.578125q0.125 0.40625 0.25 0.828125q0.125 0.421875 0.25 0.84375l0.03125 0q0.125 -0.421875 0.234375 -0.84375q0.125 -0.421875 0.25 -0.828125l0.859375 -2.578125l1.5625 0l-2.015625 5.453125l-1.859375 0l-2.046875 -5.453125zm6.925049 0l3.796875 0l0 5.453125l-1.609375 0l0 -4.1875l-2.1875 0l0 -1.265625zm2.921875 -0.8125q-0.46875 0 -0.78125 -0.25q-0.296875 -0.265625 -0.296875 -0.71875q0 -0.453125 0.296875 -0.734375q0.3125 -0.28125 0.78125 -0.28125q0.46875 0 0.765625 0.28125q0.3125 0.28125 0.3125 0.734375q0 0.453125 -0.3125 0.71875q-0.296875 0.25 -0.765625 0.25zm3.2063293 3.53125q0 -0.671875 0.234375 -1.1875q0.234375 -0.53125 0.625 -0.890625q0.40625 -0.375 0.90625 -0.578125q0.515625 -0.203125 1.0625 -0.203125q0.625 0 1.109375 0.203125q0.484375 0.203125 0.796875 0.5625q0.328125 0.34375 0.484375 0.828125q0.171875 0.46875 0.171875 1.03125q0 0.21875 -0.015625 0.421875q-0.015625 0.1875 -0.046875 0.296875l-3.671875 0q0.09375 0.609375 0.53125 0.890625q0.453125 0.265625 1.046875 0.265625q0.375 0 0.703125 -0.09375q0.34375 -0.09375 0.71875 -0.28125l0.515625 0.96875q-0.453125 0.296875 -1.03125 0.46875q-0.5625 0.15625 -1.125 0.15625q-0.640625 0 -1.1875 -0.1875q-0.546875 -0.1875 -0.953125 -0.546875q-0.40625 -0.375 -0.640625 -0.90625q-0.234375 -0.53125 -0.234375 -1.21875zm3.9375 -0.59375q0 -0.453125 -0.265625 -0.734375q-0.25 -0.296875 -0.8125 -0.296875q-0.4375 0 -0.78125 0.265625q-0.328125 0.25 -0.4375 0.765625l2.296875 0zm1.8937988 -2.125l1.578125 0l0.328125 2.53125q0.0625 0.40625 0.09375 0.796875q0.046875 0.390625 0.09375 0.8125l0.03125 0q0.0625 -0.421875 0.109375 -0.828125q0.0625 -0.40625 0.15625 -0.78125l0.328125 -1.8125l1.140625 0l0.359375 1.8125q0.078125 0.40625 0.140625 0.796875q0.078125 0.390625 0.125 0.8125l0.046875 0q0.046875 -0.421875 0.078125 -0.8125q0.046875 -0.390625 0.09375 -0.796875l0.328125 -2.53125l1.484375 0l-0.859375 5.453125l-1.859375 0l-0.3125 -1.8125q-0.0625 -0.390625 -0.109375 -0.78125q-0.046875 -0.390625 -0.09375 -0.828125l-0.046875 0q-0.03125 0.296875 -0.078125 0.671875q-0.03125 0.375 -0.125 0.9375l-0.296875 1.8125l-1.828125 0l-0.90625 -5.453125z" fill-rule="nonzero"></path><path fill="#000000" fill-opacity="0.0" d="m301.64435 344.30972l41.13388 -0.09451294" fill-rule="evenodd"></path><path stroke="#595959" stroke-width="1.0" stroke-linejoin="round" stroke-linecap="butt" d="m301.64435 344.30972l35.13388 -0.080718994" fill-rule="evenodd"></path><path fill="#595959" stroke="#595959" stroke-width="1.0" stroke-linecap="butt" d="m336.782 345.88074l4.5343018 -1.6621704l-4.54187 -1.6412964z" fill-rule="evenodd"></path><path fill="#000000" fill-opacity="0.0" d="m307.05905 316.6867l29.795288 0l0 25.51181l-29.795288 0z" fill-rule="evenodd"></path><path fill="#000000" d="m316.4028 334.2236l0.953125 -0.15625q0.078125 0.578125 0.4375 0.890625q0.375 0.296875 1.03125 0.296875q0.671875 0 0.984375 -0.265625q0.328125 -0.265625 0.328125 -0.640625q0 -0.328125 -0.28125 -0.515625q-0.203125 -0.125 -0.984375 -0.328125q-1.0625 -0.265625 -1.484375 -0.453125q-0.40625 -0.203125 -0.625 -0.546875q-0.203125 -0.34375 -0.203125 -0.765625q0 -0.390625 0.171875 -0.703125q0.171875 -0.328125 0.484375 -0.546875q0.21875 -0.171875 0.609375 -0.28125q0.390625 -0.109375 0.828125 -0.109375q0.671875 0 1.171875 0.1875q0.515625 0.1875 0.75 0.53125q0.25 0.328125 0.34375 0.875l-0.9375 0.125q-0.078125 -0.4375 -0.390625 -0.671875q-0.296875 -0.25 -0.859375 -0.25q-0.671875 0 -0.953125 0.21875q-0.28125 0.21875 -0.28125 0.515625q0 0.1875 0.109375 0.328125q0.125 0.15625 0.375 0.265625q0.140625 0.046875 0.859375 0.25q1.015625 0.265625 1.421875 0.4375q0.40625 0.171875 0.640625 0.515625q0.234375 0.328125 0.234375 0.828125q0 0.484375 -0.28125 0.90625q-0.28125 0.421875 -0.8125 0.65625q-0.53125 0.234375 -1.203125 0.234375q-1.109375 0 -1.703125 -0.453125q-0.578125 -0.46875 -0.734375 -1.375z" fill-rule="nonzero"></path><path fill="#000000" fill-opacity="0.0" d="m251.91208 344.59317l49.73227 -0.28344727" fill-rule="evenodd"></path><path stroke="#595959" stroke-width="1.0" stroke-linejoin="round" stroke-linecap="butt" d="m251.91208 344.59317l43.73239 -0.24926758" fill-rule="evenodd"></path><path fill="#595959" stroke="#595959" stroke-width="1.0" stroke-linecap="butt" d="m295.65387 345.9956l4.528595 -1.6775513l-4.5474243 -1.6258545z" fill-rule="evenodd"></path><path fill="#000000" fill-opacity="0.0" d="m644.32153 344.30972l51.968506 0.28344727" fill-rule="evenodd"></path><path stroke="#595959" stroke-width="1.0" stroke-linejoin="round" stroke-linecap="butt" d="m644.32153 344.30972l45.968567 0.25073242" fill-rule="evenodd"></path><path fill="#595959" stroke="#595959" stroke-width="1.0" stroke-linecap="butt" d="m690.2811 346.21216l4.546997 -1.6269531l-4.5289917 -1.6764526z" fill-rule="evenodd"></path><path fill="#000000" fill-opacity="0.0" d="m259.50854 316.6867l29.795258 0l0 25.51181l-29.795258 0z" fill-rule="evenodd"></path><path fill="#000000" d="m268.8523 334.2236l0.953125 -0.15625q0.078125 0.578125 0.4375 0.890625q0.375 0.296875 1.03125 0.296875q0.671875 0 0.984375 -0.265625q0.328125 -0.265625 0.328125 -0.640625q0 -0.328125 -0.28125 -0.515625q-0.203125 -0.125 -0.984375 -0.328125q-1.0625 -0.265625 -1.484375 -0.453125q-0.40625 -0.203125 -0.625 -0.546875q-0.203125 -0.34375 -0.203125 -0.765625q0 -0.390625 0.171875 -0.703125q0.171875 -0.328125 0.484375 -0.546875q0.21875 -0.171875 0.609375 -0.28125q0.390625 -0.109375 0.828125 -0.109375q0.671875 0 1.171875 0.1875q0.515625 0.1875 0.75 0.53125q0.25 0.328125 0.34375 0.875l-0.9375 0.125q-0.078125 -0.4375 -0.390625 -0.671875q-0.296875 -0.25 -0.859375 -0.25q-0.671875 0 -0.953125 0.21875q-0.28125 0.21875 -0.28125 0.515625q0 0.1875 0.109375 0.328125q0.125 0.15625 0.375 0.265625q0.140625 0.046875 0.859375 0.25q1.015625 0.265625 1.421875 0.4375q0.40625 0.171875 0.640625 0.515625q0.234375 0.328125 0.234375 0.828125q0 0.484375 -0.28125 0.90625q-0.28125 0.421875 -0.8125 0.65625q-0.53125 0.234375 -1.203125 0.234375q-1.109375 0 -1.703125 -0.453125q-0.578125 -0.46875 -0.734375 -1.375z" fill-rule="nonzero"></path><path fill="#000000" fill-opacity="0.0" d="m657.56116 317.49692l29.795288 0l0 25.51181l-29.795288 0z" fill-rule="evenodd"></path><path fill="#000000" d="m668.17053 336.7369l-0.890625 0l0 -7.875l0.96875 0l0 2.8125q0.609375 -0.765625 1.5625 -0.765625q0.53125 0 1.0 0.21875q0.46875 0.203125 0.765625 0.59375q0.3125 0.375 0.484375 0.921875q0.171875 0.53125 0.171875 1.15625q0 1.46875 -0.734375 2.265625q-0.71875 0.796875 -1.734375 0.796875q-1.015625 0 -1.59375 -0.84375l0 0.71875zm0 -2.890625q0 1.015625 0.28125 1.484375q0.453125 0.734375 1.234375 0.734375q0.625 0 1.078125 -0.546875q0.46875 -0.546875 0.46875 -1.640625q0 -1.109375 -0.4375 -1.640625q-0.4375 -0.53125 -1.078125 -0.53125q-0.625 0 -1.09375 0.546875q-0.453125 0.546875 -0.453125 1.59375z" fill-rule="nonzero"></path><path fill="#000000" fill-opacity="0.0" d="m252.2336 432.1391l444.063 1.0393677" fill-rule="evenodd"></path><path stroke="#595959" stroke-width="1.0" stroke-linejoin="round" stroke-linecap="butt" d="m252.2336 432.1391l438.063 1.0253601" fill-rule="evenodd"></path><path fill="#595959" stroke="#595959" stroke-width="1.0" stroke-linecap="butt" d="m690.2927 434.81616l4.541992 -1.6411133l-4.5342407 -1.6623535z" fill-rule="evenodd"></path><path fill="#000000" fill-opacity="0.0" d="m457.1017 405.9647l29.795258 0l0 25.51181l-29.795258 0z" fill-rule="evenodd"></path><path fill="#000000" d="m466.44547 423.50156l0.953125 -0.15625q0.078125 0.578125 0.4375 0.890625q0.375 0.296875 1.03125 0.296875q0.671875 0 0.984375 -0.265625q0.328125 -0.265625 0.328125 -0.640625q0 -0.328125 -0.28125 -0.515625q-0.203125 -0.125 -0.984375 -0.328125q-1.0625 -0.265625 -1.484375 -0.453125q-0.40625 -0.203125 -0.625 -0.546875q-0.203125 -0.34375 -0.203125 -0.765625q0 -0.390625 0.171875 -0.703125q0.171875 -0.328125 0.484375 -0.546875q0.21875 -0.171875 0.609375 -0.28125q0.390625 -0.109375 0.828125 -0.109375q0.671875 0 1.171875 0.1875q0.515625 0.1875 0.75 0.53125q0.25 0.328125 0.34375 0.875l-0.9375 0.125q-0.078125 -0.4375 -0.390625 -0.671875q-0.296875 -0.25 -0.859375 -0.25q-0.671875 0 -0.953125 0.21875q-0.28125 0.21875 -0.28125 0.515625q0 0.1875 0.109375 0.328125q0.125 0.15625 0.375 0.265625q0.140625 0.046875 0.859375 0.25q1.015625 0.265625 1.421875 0.4375q0.40625 0.171875 0.640625 0.515625q0.234375 0.328125 0.234375 0.828125q0 0.484375 -0.28125 0.90625q-0.28125 0.421875 -0.8125 0.65625q-0.53125 0.234375 -1.203125 0.234375q-1.109375 0 -1.703125 -0.453125q-0.578125 -0.46875 -0.734375 -1.375z" fill-rule="nonzero"></path><path fill="#ffffff" d="m143.18039 389.1122l0 0c0 -18.577637 15.123611 -33.637787 33.779526 -33.637787l0 0c8.958893 0 17.550842 3.5439758 23.885727 9.852295c6.3349 6.3082886 9.893799 14.864197 9.893799 23.785492l0 0c0 18.577637 -15.123611 33.637817 -33.779526 33.637817l0 0c-18.655914 0 -33.779526 -15.060181 -33.779526 -33.637817z" fill-rule="evenodd"></path><path stroke="#595959" stroke-width="1.0" stroke-linejoin="round" stroke-linecap="butt" d="m143.18039 389.1122l0 0c0 -18.577637 15.123611 -33.637787 33.779526 -33.637787l0 0c8.958893 0 17.550842 3.5439758 23.885727 9.852295c6.3349 6.3082886 9.893799 14.864197 9.893799 23.785492l0 0c0 18.577637 -15.123611 33.637817 -33.779526 33.637817l0 0c-18.655914 0 -33.779526 -15.060181 -33.779526 -33.637817z" fill-rule="evenodd"></path><path fill="#f4cccc" d="m737.09186 389.1134l0 0c0 -22.465363 18.902771 -40.677155 42.22046 -40.677155l0 0c11.197571 0 21.936523 4.285614 29.854431 11.9140625c7.9178467 7.6284485 12.366089 17.974854 12.366089 28.763092l0 0c0 22.465393 -18.902771 40.677185 -42.22052 40.677185l0 0c-23.317688 0 -42.22046 -18.211792 -42.22046 -40.677185z" fill-rule="evenodd"></path><path stroke="#595959" stroke-width="1.0" stroke-linejoin="round" stroke-linecap="butt" d="m737.09186 389.1134l0 0c0 -22.465363 18.902771 -40.677155 42.22046 -40.677155l0 0c11.197571 0 21.936523 4.285614 29.854431 11.9140625c7.9178467 7.6284485 12.366089 17.974854 12.366089 28.763092l0 0c0 22.465393 -18.902771 40.677185 -42.22052 40.677185l0 0c-23.317688 0 -42.22046 -18.211792 -42.22046 -40.677185z" fill-rule="evenodd"></path><path fill="#000000" d="m765.9122 392.85342l-1.328125 0l-0.125 -0.78125l-0.03125 0q-0.375 0.421875 -0.8125 0.671875q-0.4375 0.234375 -1.03125 0.234375q-0.9375 0 -1.359375 -0.59375q-0.40625 -0.59375 -0.40625 -1.625l0 -3.359375l1.609375 0l0 3.15625q0 0.546875 0.15625 0.796875q0.171875 0.25 0.640625 0.25q0.3125 0 0.546875 -0.125q0.234375 -0.125 0.515625 -0.5l0 -3.578125l1.625 0l0 5.453125zm3.0187988 0.421875l0 1.609375l-1.609375 0l0 -7.484375l1.3125 0l0.125 0.546875l0.03125 0q0.328125 -0.296875 0.75 -0.484375q0.4375 -0.203125 0.875 -0.203125q0.515625 0 0.921875 0.203125q0.40625 0.203125 0.6875 0.5625q0.28125 0.359375 0.421875 0.875q0.15625 0.515625 0.15625 1.140625q0 0.703125 -0.203125 1.25q-0.1875 0.546875 -0.515625 0.921875q-0.328125 0.375 -0.75 0.578125q-0.421875 0.1875 -0.890625 0.1875q-0.75 0 -1.359375 -0.59375l0.046875 0.890625zm0 -1.96875q0.234375 0.1875 0.484375 0.28125q0.25 0.078125 0.453125 0.078125q0.46875 0 0.765625 -0.375q0.3125 -0.390625 0.3125 -1.234375q0 -1.46875 -1.0 -1.46875q-0.515625 0 -1.015625 0.5l0 2.21875zm4.503174 -1.1875q0 -0.671875 0.1875 -1.1875q0.203125 -0.53125 0.53125 -0.890625q0.328125 -0.375 0.734375 -0.578125q0.421875 -0.203125 0.875 -0.203125q0.484375 0 0.796875 0.171875q0.3125 0.15625 0.609375 0.421875l-0.0625 -0.859375l0 -1.859375l1.625 0l0 7.71875l-1.328125 0l-0.125 -0.5625l-0.03125 0q-0.296875 0.296875 -0.703125 0.5q-0.390625 0.1875 -0.8125 0.1875q-0.515625 0 -0.9375 -0.1875q-0.421875 -0.203125 -0.734375 -0.5625q-0.296875 -0.375 -0.46875 -0.90625q-0.15625 -0.53125 -0.15625 -1.203125zm1.65625 -0.015625q0 0.8125 0.28125 1.1875q0.28125 0.375 0.78125 0.375q0.28125 0 0.5 -0.109375q0.234375 -0.125 0.453125 -0.390625l0 -2.21875q-0.21875 -0.203125 -0.453125 -0.28125q-0.21875 -0.078125 -0.453125 -0.078125q-0.453125 0 -0.78125 0.375q-0.328125 0.375 -0.328125 1.140625zm4.893799 1.234375q0 -0.46875 0.1875 -0.8125q0.203125 -0.34375 0.640625 -0.578125q0.4375 -0.25 1.109375 -0.390625q0.6875 -0.15625 1.65625 -0.21875q-0.046875 -0.375 -0.328125 -0.578125q-0.28125 -0.203125 -0.828125 -0.203125q-0.40625 0 -0.8125 0.140625q-0.390625 0.125 -0.859375 0.359375l-0.5625 -1.046875q0.5625 -0.328125 1.203125 -0.53125q0.640625 -0.21875 1.34375 -0.21875q1.140625 0 1.796875 0.609375q0.671875 0.609375 0.671875 1.859375l0 3.125l-1.328125 0l-0.125 -0.609375l-0.03125 0q-0.421875 0.3125 -0.921875 0.53125q-0.5 0.203125 -1.015625 0.203125q-0.421875 0 -0.75 -0.125q-0.328125 -0.125 -0.5625 -0.34375q-0.234375 -0.234375 -0.359375 -0.53125q-0.125 -0.296875 -0.125 -0.640625zm1.546875 -0.125q0 0.265625 0.203125 0.390625q0.203125 0.125 0.5625 0.125q0.359375 0 0.671875 -0.140625q0.328125 -0.15625 0.609375 -0.375l0 -0.90625q-0.609375 0.03125 -1.0 0.109375q-0.390625 0.078125 -0.625 0.203125q-0.234375 0.109375 -0.328125 0.265625q-0.09375 0.15625 -0.09375 0.328125zm6.08136 -2.546875l-1.375 0l0 -1.203125l1.453125 -0.0625l0.21875 -1.453125l1.328125 0l0 1.453125l2.3125 0l0 1.265625l-2.3125 0l0 1.90625q0 0.625 0.265625 0.890625q0.28125 0.25 0.875 0.25q0.328125 0 0.578125 -0.046875q0.265625 -0.0625 0.515625 -0.140625l0.28125 1.15625q-0.359375 0.109375 -0.8125 0.203125q-0.4375 0.09375 -0.96875 0.09375q-0.640625 0 -1.09375 -0.171875q-0.453125 -0.171875 -0.734375 -0.484375q-0.28125 -0.3125 -0.40625 -0.75q-0.125 -0.453125 -0.125 -0.984375l0 -1.921875zm5.096924 1.453125q0 -0.671875 0.234375 -1.1875q0.234375 -0.53125 0.625 -0.890625q0.40625 -0.375 0.90625 -0.578125q0.515625 -0.203125 1.0625 -0.203125q0.625 0 1.109375 0.203125q0.484375 0.203125 0.796875 0.5625q0.328125 0.34375 0.484375 0.828125q0.171875 0.46875 0.171875 1.03125q0 0.21875 -0.015625 0.421875q-0.015625 0.1875 -0.046875 0.296875l-3.671875 0q0.09375 0.609375 0.53125 0.890625q0.453125 0.265625 1.046875 0.265625q0.375 0 0.703125 -0.09375q0.34375 -0.09375 0.71875 -0.28125l0.515625 0.96875q-0.453125 0.296875 -1.03125 0.46875q-0.5625 0.15625 -1.125 0.15625q-0.640625 0 -1.1875 -0.1875q-0.546875 -0.1875 -0.953125 -0.546875q-0.40625 -0.375 -0.640625 -0.90625q-0.234375 -0.53125 -0.234375 -1.21875zm3.9375 -0.59375q0 -0.453125 -0.265625 -0.734375q-0.25 -0.296875 -0.8125 -0.296875q-0.4375 0 -0.78125 0.265625q-0.328125 0.25 -0.4375 0.765625l2.296875 0z" fill-rule="nonzero"></path><path fill="#000000" fill-opacity="0.0" d="m200.84564 365.32672l0 -20.409454l51.40158 0" fill-rule="evenodd"></path><path stroke="#595959" stroke-width="1.0" stroke-linejoin="round" stroke-linecap="butt" d="m200.84566 365.3267l0 -20.409454l45.40158 0" fill-rule="evenodd"></path><path fill="#595959" stroke="#595959" stroke-width="1.0" stroke-linecap="butt" d="m246.24724 346.56897l4.538086 -1.6517334l-4.538086 -1.6517334z" fill-rule="evenodd"></path><path fill="#000000" fill-opacity="0.0" d="m200.84564 412.89774l0 19.937012l51.40158 0" fill-rule="evenodd"></path><path stroke="#595959" stroke-width="1.0" stroke-linejoin="round" stroke-linecap="butt" d="m200.84566 412.8977l0 19.937012l45.40158 0" fill-rule="evenodd"></path><path fill="#595959" stroke="#595959" stroke-width="1.0" stroke-linecap="butt" d="m246.24724 434.48645l4.538086 -1.6517334l-4.538086 -1.6517334z" fill-rule="evenodd"></path><path fill="#000000" fill-opacity="0.0" d="m696.63904 344.91724l52.81891 0l0 15.433075" fill-rule="evenodd"></path><path stroke="#595959" stroke-width="1.0" stroke-linejoin="round" stroke-linecap="butt" d="m696.63904 344.91724l52.81891 0l0 9.433075" fill-rule="evenodd"></path><path fill="#595959" stroke="#595959" stroke-width="1.0" stroke-linecap="butt" d="m747.8062 354.3503l1.6517334 4.538086l1.6517334 -4.538086z" fill-rule="evenodd"></path><path fill="#000000" fill-opacity="0.0" d="m696.63904 433.53006l52.81891 0l0 -15.653534" fill-rule="evenodd"></path><path stroke="#595959" stroke-width="1.0" stroke-linejoin="round" stroke-linecap="butt" d="m696.63904 433.53006l52.81891 0l0 -9.653534" fill-rule="evenodd"></path><path fill="#595959" stroke="#595959" stroke-width="1.0" stroke-linecap="butt" d="m751.1097 423.87653l-1.6517334 -4.5381165l-1.6517334 4.5381165z" fill-rule="evenodd"></path><path fill="#000000" fill-opacity="0.0" d="m44.333332 366.4357l56.50394 0.34646606" fill-rule="evenodd"></path><path stroke="#595959" stroke-width="1.0" stroke-linejoin="round" stroke-linecap="butt" d="m44.333332 366.4357l50.504047 0.30966187" fill-rule="evenodd"></path><path fill="#595959" stroke="#595959" stroke-width="1.0" stroke-linecap="butt" d="m94.827255 368.39706l4.5481415 -1.6238708l-4.5278854 -1.6795349z" fill-rule="evenodd"></path><path fill="#000000" fill-opacity="0.0" d="m861.08923 366.78217l58.078735 0.18896484" fill-rule="evenodd"></path><path stroke="#595959" stroke-width="1.0" stroke-linejoin="round" stroke-linecap="butt" d="m861.08923 366.78217l52.078735 0.1694336" fill-rule="evenodd"></path><path fill="#595959" stroke="#595959" stroke-width="1.0" stroke-linecap="butt" d="m913.16266 368.60333l4.543396 -1.6369629l-4.532654 -1.6664734z" fill-rule="evenodd"></path><path fill="#000000" fill-opacity="0.0" d="m211.50853 316.6867l29.795273 0l0 25.51181l-29.795273 0z" fill-rule="evenodd"></path><path fill="#000000" d="m220.85228 334.2236l0.953125 -0.15625q0.078125 0.578125 0.4375 0.890625q0.375 0.296875 1.03125 0.296875q0.671875 0 0.984375 -0.265625q0.328125 -0.265625 0.328125 -0.640625q0 -0.328125 -0.28125 -0.515625q-0.203125 -0.125 -0.984375 -0.328125q-1.0625 -0.265625 -1.484375 -0.453125q-0.40625 -0.203125 -0.625 -0.546875q-0.203125 -0.34375 -0.203125 -0.765625q0 -0.390625 0.171875 -0.703125q0.171875 -0.328125 0.484375 -0.546875q0.21875 -0.171875 0.609375 -0.28125q0.390625 -0.109375 0.828125 -0.109375q0.671875 0 1.171875 0.1875q0.515625 0.1875 0.75 0.53125q0.25 0.328125 0.34375 0.875l-0.9375 0.125q-0.078125 -0.4375 -0.390625 -0.671875q-0.296875 -0.25 -0.859375 -0.25q-0.671875 0 -0.953125 0.21875q-0.28125 0.21875 -0.28125 0.515625q0 0.1875 0.109375 0.328125q0.125 0.15625 0.375 0.265625q0.140625 0.046875 0.859375 0.25q1.015625 0.265625 1.421875 0.4375q0.40625 0.171875 0.640625 0.515625q0.234375 0.328125 0.234375 0.828125q0 0.484375 -0.28125 0.90625q-0.28125 0.421875 -0.8125 0.65625q-0.53125 0.234375 -1.203125 0.234375q-1.109375 0 -1.703125 -0.453125q-0.578125 -0.46875 -0.734375 -1.375z" fill-rule="nonzero"></path><path fill="#000000" fill-opacity="0.0" d="m211.50853 406.77975l29.795273 0l0 25.51181l-29.795273 0z" fill-rule="evenodd"></path><path fill="#000000" d="m220.85228 424.31662l0.953125 -0.15625q0.078125 0.578125 0.4375 0.890625q0.375 0.296875 1.03125 0.296875q0.671875 0 0.984375 -0.265625q0.328125 -0.265625 0.328125 -0.640625q0 -0.328125 -0.28125 -0.515625q-0.203125 -0.125 -0.984375 -0.328125q-1.0625 -0.265625 -1.484375 -0.453125q-0.40625 -0.203125 -0.625 -0.546875q-0.203125 -0.34375 -0.203125 -0.765625q0 -0.390625 0.171875 -0.703125q0.171875 -0.328125 0.484375 -0.546875q0.21875 -0.171875 0.609375 -0.28125q0.390625 -0.109375 0.828125 -0.109375q0.671875 0 1.171875 0.1875q0.515625 0.1875 0.75 0.53125q0.25 0.328125 0.34375 0.875l-0.9375 0.125q-0.078125 -0.4375 -0.390625 -0.671875q-0.296875 -0.25 -0.859375 -0.25q-0.671875 0 -0.953125 0.21875q-0.28125 0.21875 -0.28125 0.515625q0 0.1875 0.109375 0.328125q0.125 0.15625 0.375 0.265625q0.140625 0.046875 0.859375 0.25q1.015625 0.265625 1.421875 0.4375q0.40625 0.171875 0.640625 0.515625q0.234375 0.328125 0.234375 0.828125q0 0.484375 -0.28125 0.90625q-0.28125 0.421875 -0.8125 0.65625q-0.53125 0.234375 -1.203125 0.234375q-1.109375 0 -1.703125 -0.453125q-0.578125 -0.46875 -0.734375 -1.375z" fill-rule="nonzero"></path><path fill="#000000" fill-opacity="0.0" d="m115.50853 354.5937l29.795273 0l0 25.51181l-29.795273 0z" fill-rule="evenodd"></path><path fill="#000000" d="m124.85228 372.13058l0.953125 -0.15625q0.078125 0.578125 0.4375 0.890625q0.375 0.296875 1.03125 0.296875q0.671875 0 0.984375 -0.265625q0.328125 -0.265625 0.328125 -0.640625q0 -0.328125 -0.28125 -0.515625q-0.203125 -0.125 -0.984375 -0.328125q-1.0625 -0.265625 -1.484375 -0.453125q-0.40625 -0.203125 -0.625 -0.546875q-0.203125 -0.34375 -0.203125 -0.765625q0 -0.390625 0.171875 -0.703125q0.171875 -0.328125 0.484375 -0.546875q0.21875 -0.171875 0.609375 -0.28125q0.390625 -0.109375 0.828125 -0.109375q0.671875 0 1.171875 0.1875q0.515625 0.1875 0.75 0.53125q0.25 0.328125 0.34375 0.875l-0.9375 0.125q-0.078125 -0.4375 -0.390625 -0.671875q-0.296875 -0.25 -0.859375 -0.25q-0.671875 0 -0.953125 0.21875q-0.28125 0.21875 -0.28125 0.515625q0 0.1875 0.109375 0.328125q0.125 0.15625 0.375 0.265625q0.140625 0.046875 0.859375 0.25q1.015625 0.265625 1.421875 0.4375q0.40625 0.171875 0.640625 0.515625q0.234375 0.328125 0.234375 0.828125q0 0.484375 -0.28125 0.90625q-0.28125 0.421875 -0.8125 0.65625q-0.53125 0.234375 -1.203125 0.234375q-1.109375 0 -1.703125 -0.453125q-0.578125 -0.46875 -0.734375 -1.375z" fill-rule="nonzero"></path><path fill="#000000" fill-opacity="0.0" d="m54.62481 334.40765l29.795273 0l0 25.51181l-29.795273 0z" fill-rule="evenodd"></path><path fill="#000000" d="m64.202934 358.39014l1.65625 -0.265625q0.140625 1.0 0.765625 1.53125q0.640625 0.515625 1.78125 0.515625q1.15625 0 1.703125 -0.46875q0.5625 -0.46875 0.5625 -1.09375q0 -0.5625 -0.484375 -0.890625q-0.34375 -0.21875 -1.703125 -0.5625q-1.84375 -0.46875 -2.5625 -0.796875q-0.703125 -0.34375 -1.078125 -0.9375q-0.359375 -0.609375 -0.359375 -1.328125q0 -0.65625 0.296875 -1.21875q0.3125 -0.5625 0.828125 -0.9375q0.390625 -0.28125 1.0625 -0.484375q0.671875 -0.203125 1.4375 -0.203125q1.171875 0 2.046875 0.34375q0.875 0.328125 1.28125 0.90625q0.421875 0.5625 0.578125 1.515625l-1.625 0.21875q-0.109375 -0.75 -0.65625 -1.171875q-0.53125 -0.4375 -1.5 -0.4375q-1.15625 0 -1.640625 0.390625q-0.484375 0.375 -0.484375 0.875q0 0.328125 0.203125 0.59375q0.203125 0.265625 0.640625 0.4375q0.25 0.09375 1.46875 0.4375q1.765625 0.46875 2.46875 0.765625q0.703125 0.296875 1.09375 0.875q0.40625 0.578125 0.40625 1.4375q0 0.828125 -0.484375 1.578125q-0.484375 0.734375 -1.40625 1.140625q-0.921875 0.390625 -2.078125 0.390625q-1.921875 0 -2.9375 -0.796875q-1.0 -0.796875 -1.28125 -2.359375z" fill-rule="nonzero"></path><path fill="#000000" fill-opacity="0.0" d="m707.50854 406.77975l29.795288 0l0 25.51181l-29.795288 0z" fill-rule="evenodd"></path><path fill="#000000" d="m716.8523 424.31662l0.953125 -0.15625q0.078125 0.578125 0.4375 0.890625q0.375 0.296875 1.03125 0.296875q0.671875 0 0.984375 -0.265625q0.328125 -0.265625 0.328125 -0.640625q0 -0.328125 -0.28125 -0.515625q-0.203125 -0.125 -0.984375 -0.328125q-1.0625 -0.265625 -1.484375 -0.453125q-0.40625 -0.203125 -0.625 -0.546875q-0.203125 -0.34375 -0.203125 -0.765625q0 -0.390625 0.171875 -0.703125q0.171875 -0.328125 0.484375 -0.546875q0.21875 -0.171875 0.609375 -0.28125q0.390625 -0.109375 0.828125 -0.109375q0.671875 0 1.171875 0.1875q0.515625 0.1875 0.75 0.53125q0.25 0.328125 0.34375 0.875l-0.9375 0.125q-0.078125 -0.4375 -0.390625 -0.671875q-0.296875 -0.25 -0.859375 -0.25q-0.671875 0 -0.953125 0.21875q-0.28125 0.21875 -0.28125 0.515625q0 0.1875 0.109375 0.328125q0.125 0.15625 0.375 0.265625q0.140625 0.046875 0.859375 0.25q1.015625 0.265625 1.421875 0.4375q0.40625 0.171875 0.640625 0.515625q0.234375 0.328125 0.234375 0.828125q0 0.484375 -0.28125 0.90625q-0.28125 0.421875 -0.8125 0.65625q-0.53125 0.234375 -1.203125 0.234375q-1.109375 0 -1.703125 -0.453125q-0.578125 -0.46875 -0.734375 -1.375z" fill-rule="nonzero"></path><path fill="#000000" fill-opacity="0.0" d="m707.50854 318.77975l29.795288 0l0 25.51181l-29.795288 0z" fill-rule="evenodd"></path><path fill="#000000" d="m718.1179 338.01974l-0.890625 0l0 -7.875l0.96875 0l0 2.8125q0.609375 -0.765625 1.5625 -0.765625q0.53125 0 1.0 0.21875q0.46875 0.203125 0.765625 0.59375q0.3125 0.375 0.484375 0.921875q0.171875 0.53125 0.171875 1.15625q0 1.46875 -0.734375 2.265625q-0.71875 0.796875 -1.734375 0.796875q-1.015625 0 -1.59375 -0.84375l0 0.71875zm0 -2.890625q0 1.015625 0.28125 1.484375q0.453125 0.734375 1.234375 0.734375q0.625 0 1.078125 -0.546875q0.46875 -0.546875 0.46875 -1.640625q0 -1.109375 -0.4375 -1.640625q-0.4375 -0.53125 -1.078125 -0.53125q-0.625 0 -1.09375 0.546875q-0.453125 0.546875 -0.453125 1.59375z" fill-rule="nonzero"></path><path fill="#000000" fill-opacity="0.0" d="m822.6713 361.89603l29.795288 0l0 25.51181l-29.795288 0z" fill-rule="evenodd"></path><path fill="#000000" d="m834.5151 380.27664l0.125 0.84375q-0.40625 0.09375 -0.71875 0.09375q-0.53125 0 -0.828125 -0.171875q-0.28125 -0.171875 -0.40625 -0.4375q-0.109375 -0.265625 -0.109375 -1.140625l0 -3.28125l-0.71875 0l0 -0.75l0.71875 0l0 -1.40625l0.953125 -0.59375l0 2.0l0.984375 0l0 0.75l-0.984375 0l0 3.34375q0 0.40625 0.046875 0.53125q0.0625 0.109375 0.171875 0.1875q0.125 0.0625 0.328125 0.0625q0.171875 0 0.4375 -0.03125z" fill-rule="nonzero"></path><path fill="#000000" fill-opacity="0.0" d="m872.71783 336.12857l29.795288 0l0 25.51181l-29.795288 0z" fill-rule="evenodd"></path><path fill="#000000" d="m886.6241 361.54858l0.234375 1.484375q-0.703125 0.140625 -1.265625 0.140625q-0.90625 0 -1.40625 -0.28125q-0.5 -0.296875 -0.703125 -0.75q-0.203125 -0.46875 -0.203125 -1.984375l0 -5.65625l-1.234375 0l0 -1.3125l1.234375 0l0 -2.4375l1.65625 -1.0l0 3.4375l1.6875 0l0 1.3125l-1.6875 0l0 5.75q0 0.71875 0.078125 0.921875q0.09375 0.203125 0.296875 0.328125q0.203125 0.125 0.578125 0.125q0.265625 0 0.734375 -0.078125z" fill-rule="nonzero"></path><path fill="#000000" fill-opacity="0.0" d="m100.84968 366.78152l21.165352 0l0 22.330688l21.16536 0" fill-rule="evenodd"></path><path stroke="#595959" stroke-width="1.0" stroke-linejoin="round" stroke-linecap="butt" d="m100.84968 366.7815l21.165352 0l0 22.330719l15.1653595 0" fill-rule="evenodd"></path><path fill="#595959" stroke="#595959" stroke-width="1.0" stroke-linecap="butt" d="m137.18039 390.76395l4.538086 -1.6517334l-4.538086 -1.6517334z" fill-rule="evenodd"></path><path fill="#000000" fill-opacity="0.0" d="m821.53284 389.1134l21.955261 0l0 -22.330688l17.60376 0" fill-rule="evenodd"></path><path stroke="#595959" stroke-width="1.0" stroke-linejoin="round" stroke-linecap="butt" d="m821.53284 389.1134l21.955261 0l0 -22.330719l11.60376 0" fill-rule="evenodd"></path><path fill="#595959" stroke="#595959" stroke-width="1.0" stroke-linecap="butt" d="m855.09186 368.43442l4.538086 -1.6517334l-4.538086 -1.6517334z" fill-rule="evenodd"></path><path fill="#78909c" d="m489.07086 264.7953l20.653534 0l0 -81.3071l41.3071 0l0 81.3071l20.653564 0l-41.30713 41.307068z" fill-rule="evenodd"></path><path stroke="#595959" stroke-width="1.0" stroke-linejoin="round" stroke-linecap="butt" d="m489.07086 264.7953l20.653534 0l0 -81.3071l41.3071 0l0 81.3071l20.653564 0l-41.30713 41.307068z" fill-rule="evenodd"></path><path fill="#000000" fill-opacity="0.0" d="m410.34573 344.20926l25.00003 0l0 -137.69728l-154.42847 0l0 -99.72003l24.987488 0" fill-rule="evenodd"></path><path stroke="#595959" stroke-width="1.0" stroke-linejoin="round" stroke-linecap="butt" stroke-dasharray="4.0,3.0" d="m410.34576 344.2093l25.0 0l0 -137.69731l-154.42847 0l0 -99.72003l18.987488 0" fill-rule="evenodd"></path><path fill="#595959" stroke="#595959" stroke-width="1.0" stroke-linecap="butt" d="m299.9048 108.44367l4.5381165 -1.6517258l-4.5381165 -1.6517334z" fill-rule="evenodd"></path><path fill="#000000" fill-opacity="0.0" d="m754.83093 106.8059l24.999512 0l0 105.285576l-157.50348 0l0 132.57268" fill-rule="evenodd"></path><path stroke="#595959" stroke-width="1.0" stroke-linejoin="round" stroke-linecap="butt" stroke-dasharray="4.0,3.0" d="m754.83093 106.8059l24.999512 0l0 105.285576l-157.50348 0l0 132.57268" fill-rule="evenodd"></path><path fill="#000000" fill-opacity="0.0" d="m622.3688 344.18225l21.952759 0.31497192" fill-rule="evenodd"></path><path stroke="#595959" stroke-width="1.0" stroke-linejoin="round" stroke-linecap="butt" stroke-dasharray="4.0,3.0" d="m622.3688 344.18225l15.953369 0.22888184" fill-rule="evenodd"></path><path fill="#595959" stroke="#595959" stroke-width="1.0" stroke-linecap="butt" d="m638.29846 346.0627l4.5612793 -1.5864868l-4.513916 -1.7166443z" fill-rule="evenodd"></path><path fill="#000000" fill-opacity="0.0" d="m143.18039 389.1122l57.66928 -23.77951" fill-rule="evenodd"></path><path stroke="#595959" stroke-width="1.0" stroke-linejoin="round" stroke-linecap="butt" d="m143.18039 389.1122l52.122345 -21.49231" fill-rule="evenodd"></path><path fill="#595959" stroke="#595959" stroke-width="1.0" stroke-linecap="butt" d="m195.93239 369.14694l3.5657806 -3.2569885l-4.8250885 0.2029419z" fill-rule="evenodd"></path><path fill="#000000" fill-opacity="0.0" d="m143.18039 389.1122l57.66928 23.779541" fill-rule="evenodd"></path><path stroke="#595959" stroke-width="1.0" stroke-linejoin="round" stroke-linecap="butt" d="m143.18039 389.1122l52.122345 21.49228" fill-rule="evenodd"></path><path fill="#595959" stroke="#595959" stroke-width="1.0" stroke-linecap="butt" d="m194.67308 412.1315l4.8250885 0.2029419l-3.5657806 -3.256958z" fill-rule="evenodd"></path></g></svg>

