<?xml version="1.0" standalone="yes"?>

<svg version="1.1" viewBox="0.0 0.0 960.0 540.0" fill="none" stroke="none" stroke-linecap="square" stroke-miterlimit="10" xmlns="http://www.w3.org/2000/svg" xmlns:xlink="http://www.w3.org/1999/xlink"><clipPath id="g2549d28fde_0_300.0"><path d="m0 0l960.0 0l0 540.0l-960.0 0l0 -540.0z" clip-rule="nonzero"></path></clipPath><g clip-path="url(#g2549d28fde_0_300.0)"><path fill="#ffffff" d="m0 0l960.0 0l0 540.0l-960.0 0z" fill-rule="evenodd"></path><path fill="#eeeeee" d="m100.83727 201.22414l760.25195 0l0 260.9134l-760.25195 0z" fill-rule="evenodd"></path><path stroke="#595959" stroke-width="1.0" stroke-linejoin="round" stroke-linecap="butt" d="m100.83727 201.22414l760.25195 0l0 260.9134l-760.25195 0z" fill-rule="evenodd"></path><path fill="#000000" d="m111.05602 447.72128q0.140625 -0.65625 0.453125 -1.171875q0.3125 -0.53125 0.71875 -0.890625q0.421875 -0.359375 0.90625 -0.5625q0.5 -0.203125 0.96875 -0.203125q0.5 0 0.828125 0.1875q0.328125 0.1875 0.625 0.515625l0.1875 -1.0l0.421875 -2.046875l0.90625 0l-1.65625 7.828125l-0.75 0l0.078125 -0.703125l-0.03125 0q-0.40625 0.34375 -0.921875 0.59375q-0.515625 0.234375 -1.0 0.234375q-0.53125 0 -0.921875 -0.171875q-0.375 -0.1875 -0.609375 -0.546875q-0.234375 -0.359375 -0.296875 -0.875q-0.046875 -0.515625 0.09375 -1.1875zm0.9375 -0.015625q-0.203125 0.96875 0.09375 1.515625q0.3125 0.53125 1.0625 0.53125q0.78125 0 1.671875 -0.8125l0.5625 -2.65625q-0.296875 -0.34375 -0.609375 -0.484375q-0.3125 -0.140625 -0.671875 -0.140625q-0.34375 0 -0.6875 0.15625q-0.328125 0.140625 -0.609375 0.40625q-0.28125 0.265625 -0.5 0.640625q-0.203125 0.375 -0.3125 0.84375zm6.362564 -2.671875l3.390625 0l-1.140625 5.34375l-0.90625 0l0.984375 -4.609375l-2.484375 0l0.15625 -0.734375zm3.078125 -1.109375q-0.3125 0 -0.484375 -0.171875q-0.15625 -0.1875 -0.09375 -0.515625q0.0625 -0.3125 0.3125 -0.5q0.25 -0.203125 0.5625 -0.203125q0.3125 0 0.46875 0.203125q0.15625 0.1875 0.09375 0.5q-0.0625 0.328125 -0.3125 0.515625q-0.234375 0.171875 -0.546875 0.171875zm2.987564 1.109375l0.703125 0l-0.078125 0.703125l0.03125 0q0.28125 -0.375 0.609375 -0.609375q0.328125 -0.234375 0.78125 -0.234375q0.8125 0 0.8125 0.9375q0.328125 -0.421875 0.671875 -0.671875q0.34374237 -0.265625 0.7968674 -0.265625q0.5625 0 0.765625 0.4375q0.203125 0.421875 0.03125 1.21875l-0.8125 3.828125l-0.8593674 0l0.7968674 -3.75q0.203125 -0.953125 -0.390625 -0.953125q-0.28124237 0 -0.5468674 0.203125q-0.25 0.203125 -0.53125 0.625l-0.828125 3.875l-0.71875 0l0.796875 -3.75q0.203125 -0.953125 -0.40625 -0.953125q-0.28125 0 -0.53125 0.203125q-0.25 0.203125 -0.53125 0.625l-0.828125 3.875l-0.875 0l1.140625 -5.34375zm5.7844315 3.953125q0.09375 -0.453125 0.375 -0.78125q0.28125 -0.34375 0.796875 -0.578125q0.53125 -0.234375 1.296875 -0.390625q0.78125 -0.15625 1.828125 -0.25q0.046875 -0.265625 0.015625 -0.5q-0.03125 -0.25 -0.15625 -0.4375q-0.125 -0.1875 -0.375 -0.296875q-0.234375 -0.109375 -0.625 -0.109375q-0.53125 0 -1.0625 0.203125q-0.515625 0.203125 -0.9375 0.4375l-0.21875 -0.609375q0.21875 -0.140625 0.515625 -0.265625q0.3125 -0.140625 0.625 -0.25q0.328125 -0.109375 0.6875 -0.1875q0.359375 -0.078125 0.71875 -0.078125q1.09375 0 1.5 0.609375q0.40625 0.59375 0.203125 1.59375l-0.703125 3.28125l-0.75 0l0.078125 -0.71875l-0.03125 0q-0.53125 0.34375 -1.125 0.59375q-0.59375 0.25 -1.171875 0.25q-0.375 0 -0.6875 -0.109375q-0.296875 -0.09375 -0.515625 -0.28125q-0.203125 -0.203125 -0.28125 -0.46875q-0.078125 -0.28125 0 -0.65625zm0.890625 -0.0625q-0.046875 0.234375 0.015625 0.390625q0.0625 0.15625 0.1875 0.265625q0.140625 0.109375 0.34375 0.15625q0.21875 0.046875 0.453125 0.046875q0.453125 0 0.9375 -0.203125q0.5 -0.203125 1.046875 -0.59375l0.296875 -1.40625q-0.875 0.0625 -1.484375 0.1875q-0.59375 0.125 -0.984375 0.296875q-0.375 0.171875 -0.578125 0.390625q-0.1875 0.203125 -0.234375 0.46875zm6.143814 1.90625l-0.390625 1.796875l-0.90625 0l1.625 -7.59375l0.75 0l-0.078125 0.6875l0.03125 0q0.453125 -0.359375 1.0 -0.59375q0.546875 -0.234375 1.046875 -0.234375q0.53125 0 0.890625 0.203125q0.375 0.1875 0.578125 0.546875q0.21875 0.359375 0.25 0.859375q0.03125 0.5 -0.109375 1.125q-0.140625 0.6875 -0.453125 1.21875q-0.296875 0.53125 -0.71875 0.90625q-0.421875 0.375 -0.90625 0.5625q-0.46875 0.1875 -0.953125 0.1875q-0.375 0 -0.78125 -0.171875q-0.390625 -0.1875 -0.671875 -0.515625l-0.203125 1.015625zm0.359375 -1.703125q0.3125 0.34375 0.671875 0.484375q0.359375 0.140625 0.640625 0.140625q0.71875 0 1.296875 -0.5625q0.578125 -0.5625 0.78125 -1.5625q0.09375 -0.4375 0.078125 -0.796875q0 -0.375 -0.125 -0.625q-0.125 -0.265625 -0.390625 -0.40625q-0.25 -0.140625 -0.640625 -0.140625q-0.359375 0 -0.796875 0.203125q-0.4375 0.1875 -0.953125 0.59375l-0.5625 2.671875z" fill-rule="nonzero"></path><path fill="#000000" d="m152.96577 452.31503q-1.140625 -0.890625 -1.8125 -2.140625q-0.671875 -1.265625 -0.671875 -2.859375q0 -1.59375 0.671875 -2.84375q0.671875 -1.25 1.8125 -2.140625l0.5 0.453125q-1.125 0.9375 -1.640625 2.046875q-0.515625 1.09375 -0.515625 2.484375q0 1.40625 0.515625 2.5q0.515625 1.09375 1.640625 2.03125l-0.5 0.46875l0 0zm2.721939 -9.75l0.8125 0l3.609375 9.578125l-0.8125 0l-3.609375 -9.578125zm6.190689 6.421875q0 -0.453125 0.203125 -0.78125q0.21875 -0.34375 0.6875 -0.578125q0.46875 -0.234375 1.203125 -0.390625q0.75 -0.15625 1.78125 -0.25q-0.015625 -0.265625 -0.09375 -0.5q-0.078125 -0.25 -0.25 -0.4375q-0.15625 -0.1875 -0.421875 -0.296875q-0.265625 -0.109375 -0.65625 -0.109375q-0.53125 0 -1.015625 0.203125q-0.484375 0.203125 -0.859375 0.4375l-0.34375 -0.609375q0.1875 -0.140625 0.453125 -0.265625q0.28125 -0.140625 0.578125 -0.25q0.3125 -0.109375 0.640625 -0.1875q0.34375 -0.078125 0.703125 -0.078125q1.09375 0 1.625 0.609375q0.546875 0.59375 0.546875 1.59375l0 3.28125l-0.75 0l-0.078125 -0.71875l-0.03125 0q-0.453125 0.34375 -1.0 0.59375q-0.53125 0.25 -1.109375 0.25q-0.375 0 -0.703125 -0.109375q-0.328125 -0.09375 -0.578125 -0.28125q-0.25 -0.203125 -0.390625 -0.46875q-0.140625 -0.28125 -0.140625 -0.65625zm0.875 -0.0625q0 0.234375 0.09375 0.390625q0.109375 0.15625 0.265625 0.265625q0.15625 0.109375 0.375 0.15625q0.21875 0.046875 0.453125 0.046875q0.453125 0 0.890625 -0.203125q0.453125 -0.203125 0.921875 -0.59375l0 -1.40625q-0.859375 0.0625 -1.4375 0.1875q-0.578125 0.125 -0.921875 0.296875q-0.34375 0.171875 -0.5 0.390625q-0.140625 0.203125 -0.140625 0.46875zm11.959503 -2.515625l4.734375 0l0 0.6875l-4.734375 0l0 -0.6875zm10.737564 0.65625l-4.109375 2.78125l0 -0.859375l3.3125 -2.234375l0 -0.046875l-3.3125 -2.234375l0 -0.875l4.109375 2.78125l0 0.6875zm12.272003 5.25q-1.140625 -0.890625 -1.8125 -2.140625q-0.671875 -1.265625 -0.671875 -2.859375q0 -1.59375 0.671875 -2.84375q0.671875 -1.25 1.8125 -2.140625l0.5 0.453125q-1.125 0.9375 -1.640625 2.046875q-0.515625 1.09375 -0.515625 2.484375q0 1.40625 0.515625 2.5q0.515625 1.09375 1.640625 2.03125l-0.5 0.46875l0 0zm2.518814 -3.328125q0 -0.453125 0.203125 -0.78125q0.21875 -0.34375 0.6875 -0.578125q0.46875 -0.234375 1.203125 -0.390625q0.75 -0.15625 1.78125 -0.25q-0.015625 -0.265625 -0.09375 -0.5q-0.078125 -0.25 -0.25 -0.4375q-0.15625 -0.1875 -0.421875 -0.296875q-0.265625 -0.109375 -0.65625 -0.109375q-0.53125 0 -1.015625 0.203125q-0.484375 0.203125 -0.859375 0.4375l-0.34375 -0.609375q0.1875 -0.140625 0.453125 -0.265625q0.28125 -0.140625 0.578125 -0.25q0.3125 -0.109375 0.640625 -0.1875q0.34375 -0.078125 0.703125 -0.078125q1.09375 0 1.625 0.609375q0.546875 0.59375 0.546875 1.59375l0 3.28125l-0.75 0l-0.078125 -0.71875l-0.03125 0q-0.453125 0.34375 -1.0 0.59375q-0.53125 0.25 -1.109375 0.25q-0.375 0 -0.703125 -0.109375q-0.328125 -0.09375 -0.578125 -0.28125q-0.25 -0.203125 -0.390625 -0.46875q-0.140625 -0.28125 -0.140625 -0.65625zm0.875 -0.0625q0 0.234375 0.09375 0.390625q0.109375 0.15625 0.265625 0.265625q0.15625 0.109375 0.375 0.15625q0.21875 0.046875 0.453125 0.046875q0.453125 0 0.890625 -0.203125q0.453125 -0.203125 0.921875 -0.59375l0 -1.40625q-0.859375 0.0625 -1.4375 0.1875q-0.578125 0.125 -0.921875 0.296875q-0.34375 0.171875 -0.5 0.390625q-0.140625 0.203125 -0.140625 0.46875zm6.800064 3.21875q0.671875 -0.296875 1.015625 -0.734375q0.34375 -0.4375 0.359375 -1.09375q-0.046875 0 -0.09375 0.015625q-0.046875 0 -0.109375 0q-0.359375 0 -0.609375 -0.203125q-0.25 -0.203125 -0.25 -0.625q0 -0.40625 0.265625 -0.609375q0.265625 -0.21875 0.609375 -0.21875q0.5 0 0.75 0.375q0.25 0.375 0.25 1.03125q0 0.96875 -0.515625 1.625q-0.515625 0.671875 -1.421875 1.015625l-0.25 -0.578125zm11.506378 -3.15625q0 -0.453125 0.203125 -0.78125q0.21875 -0.34375 0.6875 -0.578125q0.46875 -0.234375 1.203125 -0.390625q0.75 -0.15625 1.78125 -0.25q-0.015625 -0.265625 -0.09375 -0.5q-0.078125 -0.25 -0.25 -0.4375q-0.15625 -0.1875 -0.421875 -0.296875q-0.265625 -0.109375 -0.65625 -0.109375q-0.53125 0 -1.015625 0.203125q-0.484375 0.203125 -0.859375 0.4375l-0.34375 -0.609375q0.1875 -0.140625 0.453125 -0.265625q0.28125 -0.140625 0.578125 -0.25q0.3125 -0.109375 0.640625 -0.1875q0.34375 -0.078125 0.703125 -0.078125q1.09375 0 1.625 0.609375q0.546875 0.59375 0.546875 1.59375l0 3.28125l-0.75 0l-0.078125 -0.71875l-0.03125 0q-0.453125 0.34375 -1.0 0.59375q-0.53125 0.25 -1.109375 0.25q-0.375 0 -0.703125 -0.109375q-0.328125 -0.09375 -0.578125 -0.28125q-0.25 -0.203125 -0.390625 -0.46875q-0.140625 -0.28125 -0.140625 -0.65625zm0.875 -0.0625q0 0.234375 0.09375 0.390625q0.109375 0.15625 0.265625 0.265625q0.15625 0.109375 0.375 0.15625q0.21875 0.046875 0.453125 0.046875q0.453125 0 0.890625 -0.203125q0.453125 -0.203125 0.921875 -0.59375l0 -1.40625q-0.859375 0.0625 -1.4375 0.1875q-0.578125 0.125 -0.921875 0.296875q-0.34375 0.171875 -0.5 0.390625q-0.140625 0.203125 -0.140625 0.46875zm5.971939 2.921875q1.109375 -0.9375 1.625 -2.03125q0.53125 -1.09375 0.53125 -2.5q0 -1.390625 -0.53125 -2.484375q-0.515625 -1.109375 -1.625 -2.046875l0.5 -0.453125q1.140625 0.890625 1.796875 2.140625q0.671875 1.25 0.671875 2.84375q0 1.59375 -0.671875 2.859375q-0.65625 1.25 -1.796875 2.140625l-0.5 -0.46875zm6.393814 0q1.109375 -0.9375 1.625 -2.03125q0.53125 -1.09375 0.53125 -2.5q0 -1.390625 -0.53125 -2.484375q-0.515625 -1.109375 -1.625 -2.046875l0.5 -0.453125q1.140625 0.890625 1.796875 2.140625q0.671875 1.25 0.671875 2.84375q0 1.59375 -0.671875 2.859375q-0.65625 1.25 -1.796875 2.140625l-0.5 -0.46875zm17.006378 -1.46875l-0.75 0l-0.078125 -0.9375l-0.03125 0q-0.40625 0.46875 -0.890625 0.765625q-0.484375 0.296875 -1.109375 0.296875q-0.96875 0 -1.421875 -0.53125q-0.4375 -0.546875 -0.4375 -1.625l0 -3.3125l0.921875 0l0 3.203125q0 0.75 0.28125 1.125q0.28125 0.359375 0.9375 0.359375q0.46875 0 0.84375 -0.234375q0.375 -0.234375 0.828125 -0.75l0 -3.703125l0.90625 0l0 5.34375zm2.753189 0.453125l0 1.796875l-0.90625 0l0 -7.59375l0.75 0l0.078125 0.6875l0.03125 0q0.375 -0.359375 0.859375 -0.59375q0.5 -0.234375 1.0 -0.234375q0.53125 0 0.9375 0.203125q0.421875 0.1875 0.703125 0.546875q0.28126526 0.359375 0.42189026 0.859375q0.140625 0.5 0.140625 1.125q0 0.6875 -0.203125 1.21875q-0.1875 0.53125 -0.53126526 0.90625q-0.328125 0.375 -0.765625 0.5625q-0.4375 0.1875 -0.921875 0.1875q-0.375 0 -0.8125 -0.171875q-0.4375 -0.1875 -0.796875 -0.515625l0.015625 1.015625zm0 -1.703125q0.390625 0.34375 0.765625 0.484375q0.390625 0.140625 0.671875 0.140625q0.71875 0 1.171875 -0.5625q0.46875 -0.5625 0.46875 -1.5625q0 -0.4375 -0.09375 -0.796875q-0.078125 -0.375 -0.265625 -0.625q-0.171875 -0.265625 -0.46875 -0.40625q-0.28125 -0.140625 -0.671875 -0.140625q-0.359375 0 -0.765625 0.203125q-0.390625 0.1875 -0.8125 0.59375l0 2.671875zm5.128189 -1.40625q0 -0.65625 0.203125 -1.171875q0.203125 -0.53125 0.53125 -0.890625q0.34375 -0.359375 0.78125 -0.5625q0.453125 -0.203125 0.921875 -0.203125q0.5 0 0.859375 0.1875q0.375 0.1875 0.75 0.515625l-0.03125 -1.0l0 -2.046875l0.90625 0l0 7.828125l-0.75 0l-0.078125 -0.703125l-0.03125 0q-0.328125 0.34375 -0.796875 0.59375q-0.453125 0.234375 -0.9375 0.234375q-0.53125 0 -0.953125 -0.171875q-0.421875 -0.1875 -0.734375 -0.546875q-0.3125 -0.359375 -0.484375 -0.875q-0.15625 -0.515625 -0.15625 -1.1875zm0.9375 -0.015625q0 0.96875 0.40625 1.515625q0.421875 0.53125 1.171875 0.53125q0.78125 0 1.5 -0.8125l0 -2.65625q-0.359375 -0.34375 -0.703125 -0.484375q-0.34375 -0.140625 -0.703125 -0.140625q-0.34375 0 -0.65625 0.15625q-0.296875 0.140625 -0.53125 0.40625q-0.21875 0.265625 -0.359375 0.640625q-0.125 0.375 -0.125 0.84375zm5.6907043 1.28125q0 -0.453125 0.203125 -0.78125q0.21875 -0.34375 0.6875 -0.578125q0.46875 -0.234375 1.203125 -0.390625q0.75 -0.15625 1.78125 -0.25q-0.015625 -0.265625 -0.09375 -0.5q-0.078125 -0.25 -0.25 -0.4375q-0.15625 -0.1875 -0.421875 -0.296875q-0.265625 -0.109375 -0.65625 -0.109375q-0.53125 0 -1.015625 0.203125q-0.484375 0.203125 -0.859375 0.4375l-0.34375 -0.609375q0.1875 -0.140625 0.453125 -0.265625q0.28125 -0.140625 0.578125 -0.25q0.3125 -0.109375 0.640625 -0.1875q0.34375 -0.078125 0.703125 -0.078125q1.09375 0 1.625 0.609375q0.546875 0.59375 0.546875 1.59375l0 3.28125l-0.75 0l-0.078125 -0.71875l-0.03125 0q-0.453125 0.34375 -1.0 0.59375q-0.53125 0.25 -1.109375 0.25q-0.375 0 -0.703125 -0.109375q-0.328125 -0.09375 -0.578125 -0.28125q-0.25 -0.203125 -0.390625 -0.46875q-0.140625 -0.28125 -0.140625 -0.65625zm0.875 -0.0625q0 0.234375 0.09375 0.390625q0.109375 0.15625 0.265625 0.265625q0.15625 0.109375 0.375 0.15625q0.21875 0.046875 0.453125 0.046875q0.453125 0 0.890625 -0.203125q0.453125 -0.203125 0.921875 -0.59375l0 -1.40625q-0.859375 0.0625 -1.4375 0.1875q-0.578125 0.125 -0.921875 0.296875q-0.34375 0.171875 -0.5 0.390625q-0.140625 0.203125 -0.140625 0.46875zm6.893799 -3.15625l-1.5 0l0 -0.6875l1.53125 -0.046875l0.125 -1.5l0.75 0l0 1.5l2.625 0l0 0.734375l-2.625 0l0 2.546875q0 0.359375 0.0625 0.625q0.0625 0.265625 0.21875 0.453125q0.15625 0.1875 0.421875 0.28125q0.265625 0.09375 0.640625 0.09375q0.390625 0 0.6875 -0.0625q0.3125 -0.0625 0.609375 -0.171875l0.1875 0.65625q-0.359375 0.125 -0.796875 0.21875q-0.4375 0.09375 -0.875 0.09375q-0.59375 0 -0.984375 -0.15625q-0.390625 -0.15625 -0.640625 -0.4375q-0.234375 -0.296875 -0.34375 -0.703125q-0.09375 -0.40625 -0.09375 -0.90625l0 -2.53125zm4.8938293 1.953125q0 -0.671875 0.21875 -1.1875q0.234375 -0.515625 0.609375 -0.875q0.390625 -0.375 0.875 -0.5625q0.484375 -0.203125 1.0 -0.203125q0.578125 0 1.03125 0.1875q0.453125 0.1875 0.765625 0.515625q0.3125 0.328125 0.46875 0.796875q0.171875 0.453125 0.171875 1.015625q0 0.140625 -0.015625 0.28125q0 0.140625 -0.015625 0.234375l-4.1875 0q0.015625 0.421875 0.171875 0.765625q0.171875 0.34375 0.4375 0.59375q0.265625 0.234375 0.625 0.375q0.375 0.125 0.8125 0.125q0.484375 0 0.875 -0.125q0.390625 -0.140625 0.765625 -0.375l0.3125 0.59375q-0.390625 0.265625 -0.90625 0.453125q-0.5 0.171875 -1.15625 0.171875q-0.59375 0 -1.125 -0.1875q-0.515625 -0.1875 -0.90625 -0.546875q-0.390625 -0.359375 -0.609375 -0.875q-0.21875 -0.515625 -0.21875 -1.171875zm4.3125 -0.453125q0 -0.796875 -0.421875 -1.21875q-0.421875 -0.4375 -1.171875 -0.4375q-0.328125 0 -0.640625 0.109375q-0.296875 0.109375 -0.546875 0.328125q-0.234375 0.21875 -0.40625 0.53125q-0.15625 0.296875 -0.203125 0.6875l3.390625 0z" fill-rule="nonzero"></path><path fill="#d9d2e9" d="m251.88452 234.48135l444.063 0l0 188.37796l-444.063 0z" fill-rule="evenodd"></path><path stroke="#595959" stroke-width="1.0" stroke-linejoin="round" stroke-linecap="butt" d="m251.88452 234.48135l444.063 0l0 188.37796l-444.063 0z" fill-rule="evenodd"></path><path fill="#000000" d="m268.52515 404.13058q-0.3125 -0.15625 -0.578125 -0.203125q-0.265625 -0.0625 -0.625 -0.0625q-0.71875 0 -1.125 0.375q-0.390625 0.375 -0.53125 1.03125l-0.09375 0.484375l2.25 0l-0.15625 0.734375l-2.25 0l-0.984375 4.609375l-0.890625 0l0.984375 -4.609375l-1.515625 0l0.140625 -0.6875l1.53125 -0.046875l0.09375 -0.453125q0.203125 -0.984375 0.84375 -1.578125q0.65625 -0.59375 1.765625 -0.59375q0.796875 0 1.484375 0.3125l-0.34375 0.6875zm0.8781738 1.625l3.390625 0l-1.140625 5.34375l-0.90625 0l0.984375 -4.609375l-2.484375 0l0.15625 -0.734375zm3.078125 -1.109375q-0.3125 0 -0.484375 -0.171875q-0.15625 -0.1875 -0.09375 -0.515625q0.0625 -0.3125 0.3125 -0.5q0.25 -0.203125 0.5625 -0.203125q0.3125 0 0.46875 0.203125q0.15625 0.1875 0.09375 0.5q-0.0625 0.328125 -0.3125 0.515625q-0.234375 0.171875 -0.546875 0.171875zm3.9407043 1.109375l0.75 0l-0.203125 1.265625l0.03125 0q0.546875 -0.65625 1.25 -1.03125q0.703125 -0.375 1.4375 -0.375q0.296875 0 0.53125 0.0625q0.25 0.046875 0.484375 0.15625l-0.375 0.78125q-0.28125 -0.09375 -0.46875 -0.125q-0.171875 -0.046875 -0.5 -0.046875q-0.59375 0 -1.234375 0.34375q-0.625 0.34375 -1.265625 1.171875l-0.671875 3.140625l-0.90625 0l1.140625 -5.34375zm5.159424 4.046875q0.375 0.328125 0.84375 0.53125q0.484375 0.1875 1.203125 0.1875q0.734375 0 1.125 -0.234375q0.40625 -0.25 0.484375 -0.59375q0.0625 -0.3125 -0.265625 -0.546875q-0.328125 -0.25 -1.25 -0.484375q-0.390625 -0.109375 -0.734375 -0.25q-0.34375 -0.140625 -0.578125 -0.328125q-0.21875 -0.203125 -0.34375 -0.421875q-0.125 -0.234375 -0.0625 -0.515625q0.0625 -0.328125 0.265625 -0.609375q0.21875 -0.28125 0.53125 -0.484375q0.328125 -0.203125 0.78125 -0.3125q0.453125 -0.125 1.0 -0.125q0.609375 0 1.125 0.203125q0.53125 0.203125 0.859375 0.484375l-0.5625 0.578125q-0.28125 -0.25 -0.6875 -0.40625q-0.390625 -0.15625 -0.890625 -0.15625q-0.375 0 -0.640625 0.0625q-0.265625 0.0625 -0.453125 0.171875q-0.171875 0.109375 -0.265625 0.25q-0.078125 0.140625 -0.125 0.296875q-0.0625 0.328125 0.328125 0.546875q0.40625 0.203125 1.109375 0.390625q1.015625 0.28125 1.453125 0.640625q0.453125 0.34375 0.328125 0.953125q-0.0625 0.328125 -0.28125 0.625q-0.203125 0.28125 -0.5625 0.5q-0.34375 0.21875 -0.828125 0.34375q-0.46875 0.125 -1.046875 0.125q-0.78125 0 -1.40625 -0.234375q-0.609375 -0.25 -1.015625 -0.59375l0.5625 -0.59375zm8.128204 -3.3125l-1.5 0l0.140625 -0.6875l1.546875 -0.046875l0.4375 -1.5l0.75 0l-0.3125 1.5l2.625 0l-0.15625 0.734375l-2.625 0l-0.546875 2.546875q-0.078125 0.359375 -0.078125 0.625q0.015625 0.265625 0.125 0.453125q0.125 0.1875 0.359375 0.28125q0.25 0.09375 0.625 0.09375q0.390625 0 0.703125 -0.0625q0.328125 -0.0625 0.640625 -0.171875l0.0625 0.65625q-0.390625 0.125 -0.859375 0.21875q-0.453125 0.09375 -0.890625 0.09375q-0.59375 0 -0.953125 -0.15625q-0.34375 -0.15625 -0.53125 -0.4375q-0.1875 -0.296875 -0.203125 -0.703125q-0.015625 -0.40625 0.09375 -0.90625l0.546875 -2.53125z" fill-rule="nonzero"></path><path fill="#cfe2f3" d="m394.1286 30.39765l167.30707 0l0 73.00787l-167.30707 0z" fill-rule="evenodd"></path><path stroke="#595959" stroke-width="1.0" stroke-linejoin="round" stroke-linecap="butt" d="m394.1286 30.39765l167.30707 0l0 73.00787l-167.30707 0z" fill-rule="evenodd"></path><path fill="#000000" d="m474.1384 61.54284l2.34375 0l0 2.75l-0.125 1.53125q0.234375 -0.234375 0.515625 -0.4375q0.28125 -0.21875 0.609375 -0.390625q0.328125 -0.171875 0.71875 -0.265625q0.390625 -0.09375 0.84375 -0.09375q1.34375 0 1.953125 0.859375q0.625 0.859375 0.625 2.375l0 4.890625l-2.359375 0l0 -4.59375q0 -0.796875 -0.25 -1.15625q-0.25 -0.375 -0.90625 -0.375q-0.484375 0 -0.84375 0.203125q-0.359375 0.203125 -0.78125 0.625l0 5.296875l-2.34375 0l0 -11.21875z" fill-rule="nonzero"></path><path fill="#000000" fill-opacity="0.0" d="m295.042 66.586624l99.08661 0.3149643" fill-rule="evenodd"></path><path stroke="#595959" stroke-width="1.0" stroke-linejoin="round" stroke-linecap="butt" d="m295.042 66.586624l93.08667 0.2958908" fill-rule="evenodd"></path><path fill="#595959" stroke="#595959" stroke-width="1.0" stroke-linecap="butt" d="m388.12338 68.53424l4.543335 -1.6373062l-4.532837 -1.6661453z" fill-rule="evenodd"></path><path fill="#000000" fill-opacity="0.0" d="m561.43567 66.90159l106.36224 0" fill-rule="evenodd"></path><path stroke="#595959" stroke-width="1.0" stroke-linejoin="round" stroke-linecap="butt" d="m561.43567 66.90159l100.36224 0" fill-rule="evenodd"></path><path fill="#595959" stroke="#595959" stroke-width="1.0" stroke-linecap="butt" d="m661.7979 68.553314l4.538086 -1.6517258l-4.538086 -1.6517334z" fill-rule="evenodd"></path><path fill="#000000" fill-opacity="0.0" d="m327.65747 35.153557l29.51181 0l0 31.496063l-29.51181 0z" fill-rule="evenodd"></path><path fill="#000000" d="m344.34497 60.854805q-0.9375 0.796875 -1.796875 1.125q-0.859375 0.3125 -1.84375 0.3125q-1.609375 0 -2.484375 -0.78125q-0.875 -0.796875 -0.875 -2.03125q0 -0.734375 0.328125 -1.328125q0.328125 -0.59375 0.859375 -0.953125q0.53125 -0.359375 1.203125 -0.546875q0.5 -0.140625 1.484375 -0.25q2.03125 -0.25 2.984375 -0.578125q0 -0.34375 0 -0.4375q0 -1.015625 -0.46875 -1.4375q-0.640625 -0.5625 -1.90625 -0.5625q-1.171875 0 -1.734375 0.40625q-0.5625 0.40625 -0.828125 1.46875l-1.640625 -0.234375q0.234375 -1.046875 0.734375 -1.6875q0.515625 -0.640625 1.46875 -0.984375q0.96875 -0.359375 2.25 -0.359375q1.265625 0 2.046875 0.296875q0.78125 0.296875 1.15625 0.75q0.375 0.453125 0.515625 1.140625q0.09375 0.421875 0.09375 1.53125l0 2.234375q0 2.328125 0.09375 2.953125q0.109375 0.609375 0.4375 1.171875l-1.75 0q-0.265625 -0.515625 -0.328125 -1.21875zm-0.140625 -3.71875q-0.90625 0.359375 -2.734375 0.625q-1.03125 0.140625 -1.453125 0.328125q-0.421875 0.1875 -0.65625 0.546875q-0.234375 0.359375 -0.234375 0.796875q0 0.671875 0.5 1.125q0.515625 0.4375 1.484375 0.4375q0.96875 0 1.71875 -0.421875q0.75 -0.4375 1.109375 -1.15625q0.265625 -0.578125 0.265625 -1.671875l0 -0.609375z" fill-rule="nonzero"></path><path fill="#000000" fill-opacity="0.0" d="m596.39764 35.153557l29.51178 0l0 31.496063l-29.51178 0z" fill-rule="evenodd"></path><path fill="#000000" d="m608.1945 62.073555l-1.546875 0l0 -13.59375l1.65625 0l0 4.84375q1.0625 -1.328125 2.703125 -1.328125q0.90625 0 1.71875 0.375q0.8125 0.359375 1.328125 1.03125q0.53125 0.65625 0.828125 1.59375q0.296875 0.9375 0.296875 2.0q0 2.53125 -1.25 3.921875q-1.25 1.375 -3.0 1.375q-1.75 0 -2.734375 -1.453125l0 1.234375zm-0.015625 -5.0q0 1.765625 0.46875 2.5625q0.796875 1.28125 2.140625 1.28125q1.09375 0 1.890625 -0.9375q0.796875 -0.953125 0.796875 -2.84375q0 -1.921875 -0.765625 -2.84375q-0.765625 -0.921875 -1.84375 -0.921875q-1.09375 0 -1.890625 0.953125q-0.796875 0.953125 -0.796875 2.75z" fill-rule="nonzero"></path><path fill="#000000" fill-opacity="0.0" d="m0 147.69595l960.69293 1.3858337" fill-rule="evenodd"></path><path stroke="#595959" stroke-width="1.0" stroke-linejoin="round" stroke-linecap="butt" stroke-dasharray="1.0,3.0" d="m0 147.69595l960.69293 1.3858337" fill-rule="evenodd"></path><path fill="#eeeeee" d="m301.64435 247.9013l342.6772 0l0 122.61417l-342.6772 0z" fill-rule="evenodd"></path><path stroke="#595959" stroke-width="1.0" stroke-linejoin="round" stroke-linecap="butt" d="m301.64435 247.9013l342.6772 0l0 122.61417l-342.6772 0z" fill-rule="evenodd"></path><path fill="#000000" d="m313.19122 350.92737l2.734375 0l-1.28125 6.09375q-0.125 0.59375 0.09375 0.859375q0.21875 0.265625 0.6875 0.265625q0.453125 0 1.078125 -0.265625l0.09375 0.6875q-0.390625 0.125 -0.734375 0.21875q-0.34375 0.09375 -0.78125 0.09375q-0.859375 0 -1.203125 -0.484375q-0.34375 -0.484375 -0.140625 -1.4375l1.125 -5.296875l-1.828125 0l0.15625 -0.734375zm5.6438293 2.484375l0.703125 0l-0.078125 0.703125l0.03125 0q0.28125 -0.375 0.609375 -0.609375q0.328125 -0.234375 0.78125 -0.234375q0.8125 0 0.8125 0.9375q0.328125 -0.421875 0.671875 -0.671875q0.34375 -0.265625 0.796875 -0.265625q0.5625 0 0.765625 0.4375q0.203125 0.421875 0.03125 1.21875l-0.8125 3.828125l-0.859375 0l0.796875 -3.75q0.203125 -0.953125 -0.390625 -0.953125q-0.28125 0 -0.546875 0.203125q-0.25 0.203125 -0.53125 0.625l-0.828125 3.875l-0.71875 0l0.796875 -3.75q0.203125 -0.953125 -0.40625 -0.953125q-0.28125 0 -0.53125 0.203125q-0.25 0.203125 -0.53125 0.625l-0.828125 3.875l-0.875 0l1.140625 -5.34375zm5.784424 3.953125q0.09375 -0.453125 0.375 -0.78125q0.28125 -0.34375 0.796875 -0.578125q0.53125 -0.234375 1.296875 -0.390625q0.78125 -0.15625 1.828125 -0.25q0.046875 -0.265625 0.015625 -0.5q-0.03125 -0.25 -0.15625 -0.4375q-0.125 -0.1875 -0.375 -0.296875q-0.234375 -0.109375 -0.625 -0.109375q-0.53125 0 -1.0625 0.203125q-0.515625 0.203125 -0.9375 0.4375l-0.21875 -0.609375q0.21875 -0.140625 0.515625 -0.265625q0.3125 -0.140625 0.625 -0.25q0.328125 -0.109375 0.6875 -0.1875q0.359375 -0.078125 0.71875 -0.078125q1.09375 0 1.5 0.609375q0.40625 0.59375 0.203125 1.59375l-0.703125 3.28125l-0.75 0l0.078125 -0.71875l-0.03125 0q-0.53125 0.34375 -1.125 0.59375q-0.59375 0.25 -1.171875 0.25q-0.375 0 -0.6875 -0.109375q-0.296875 -0.09375 -0.515625 -0.28125q-0.203125 -0.203125 -0.28125 -0.46875q-0.078125 -0.28125 0 -0.65625zm0.890625 -0.0625q-0.046875 0.234375 0.015625 0.390625q0.0625 0.15625 0.1875 0.265625q0.140625 0.109375 0.34375 0.15625q0.21875 0.046875 0.453125 0.046875q0.453125 0 0.9375 -0.203125q0.5 -0.203125 1.046875 -0.59375l0.296875 -1.40625q-0.875 0.0625 -1.484375 0.1875q-0.59375 0.125 -0.984375 0.296875q-0.375 0.171875 -0.578125 0.390625q-0.1875 0.203125 -0.234375 0.46875zm6.1438293 1.90625l-0.390625 1.796875l-0.90625 0l1.625 -7.59375l0.75 0l-0.078125 0.6875l0.03125 0q0.453125 -0.359375 1.0 -0.59375q0.546875 -0.234375 1.046875 -0.234375q0.53125 0 0.890625 0.203125q0.375 0.1875 0.578125 0.546875q0.21875 0.359375 0.25 0.859375q0.03125 0.5 -0.109375 1.125q-0.140625 0.6875 -0.453125 1.21875q-0.296875 0.53125 -0.71875 0.90625q-0.421875 0.375 -0.90625 0.5625q-0.46875 0.1875 -0.953125 0.1875q-0.375 0 -0.78125 -0.171875q-0.390625 -0.1875 -0.671875 -0.515625l-0.203125 1.015625zm0.359375 -1.703125q0.3125 0.34375 0.671875 0.484375q0.359375 0.140625 0.640625 0.140625q0.71875 0 1.296875 -0.5625q0.578125 -0.5625 0.78125 -1.5625q0.09375 -0.4375 0.078125 -0.796875q0 -0.375 -0.125 -0.625q-0.125 -0.265625 -0.390625 -0.40625q-0.25 -0.140625 -0.640625 -0.140625q-0.359375 0 -0.796875 0.203125q-0.4375 0.1875 -0.953125 0.59375l-0.5625 2.671875z" fill-rule="nonzero"></path><path fill="#000000" d="m343.17593 353.41174l0.90625 0l1.234375 3.03125q0.171875 0.40625 0.3125 0.796875q0.15625 0.390625 0.296875 0.78125l0.046875 0q0.140625 -0.390625 0.265625 -0.78125q0.140625 -0.390625 0.3125 -0.796875l1.234375 -3.03125l0.859375 0l-2.203125 5.34375l-1.015625 0l-2.25 -5.34375zm6.815674 0l3.390625 0l0 5.34375l-0.90625 0l0 -4.609375l-2.484375 0l0 -0.734375zm2.84375 -1.109375q-0.3125 0 -0.515625 -0.171875q-0.203125 -0.1875 -0.203125 -0.515625q0 -0.3125 0.203125 -0.5q0.203125 -0.203125 0.515625 -0.203125q0.3125 0 0.515625 0.203125q0.203125 0.1875 0.203125 0.5q0 0.328125 -0.203125 0.515625q-0.203125 0.171875 -0.515625 0.171875zm3.3313293 3.796875q0 -0.671875 0.21875 -1.1875q0.234375 -0.515625 0.609375 -0.875q0.390625 -0.375 0.875 -0.5625q0.484375 -0.203125 1.0 -0.203125q0.578125 0 1.03125 0.1875q0.453125 0.1875 0.765625 0.515625q0.3125 0.328125 0.46875 0.796875q0.171875 0.453125 0.171875 1.015625q0 0.140625 -0.015625 0.28125q0 0.140625 -0.015625 0.234375l-4.1875 0q0.015625 0.421875 0.171875 0.765625q0.171875 0.34375 0.4375 0.59375q0.265625 0.234375 0.625 0.375q0.375 0.125 0.8125 0.125q0.484375 0 0.875 -0.125q0.390625 -0.140625 0.765625 -0.375l0.3125 0.59375q-0.390625 0.265625 -0.90625 0.453125q-0.5 0.171875 -1.15625 0.171875q-0.59375 0 -1.125 -0.1875q-0.515625 -0.1875 -0.90625 -0.546875q-0.390625 -0.359375 -0.609375 -0.875q-0.21875 -0.515625 -0.21875 -1.171875zm4.3125 -0.453125q0 -0.796875 -0.421875 -1.21875q-0.421875 -0.4375 -1.171875 -0.4375q-0.328125 0 -0.640625 0.109375q-0.296875 0.109375 -0.546875 0.328125q-0.234375 0.21875 -0.40625 0.53125q-0.15625 0.296875 -0.203125 0.6875l3.390625 0zm1.4094238 -2.234375l0.921875 0l0.640625 3.09375q0.078125 0.375 0.140625 0.75q0.078125 0.359375 0.125 0.734375l0.046875 0q0.078125 -0.375 0.15625 -0.734375q0.078125 -0.375 0.15625 -0.75l0.65625 -2.78125l0.765625 0l0.65625 2.78125q0.09375 0.375 0.171875 0.75q0.078125 0.359375 0.171875 0.734375l0.03125 0q0.078125 -0.375 0.140625 -0.734375q0.0625 -0.375 0.125 -0.75l0.65625 -3.09375l0.859375 0l-1.171875 5.34375l-1.09375 0l-0.625 -2.703125q-0.078125 -0.390625 -0.15625 -0.765625q-0.0625 -0.375 -0.140625 -0.78125l-0.046875 0q-0.0625 0.34375 -0.140625 0.71875q-0.0625 0.375 -0.15625 0.84375l-0.625 2.6875l-1.078125 0l-1.1875 -5.34375z" fill-rule="nonzero"></path><path fill="#cfe2f3" d="m466.6672 279.35257l135.02365 0l0 59.149597l-135.02365 0z" fill-rule="evenodd"></path><path stroke="#595959" stroke-width="1.0" stroke-linejoin="round" stroke-linecap="butt" d="m466.6672 279.35257l135.02365 0l0 59.149597l-135.02365 0z" fill-rule="evenodd"></path><path fill="#000000" d="m531.779 304.9486l1.609375 0l0 1.90625l-0.078125 1.03125q0.15625 -0.140625 0.34375 -0.28125q0.203125 -0.15625 0.421875 -0.265625q0.234375 -0.125 0.5 -0.1875q0.265625 -0.078125 0.578125 -0.078125q0.921875 0 1.34375 0.59375q0.421875 0.59375 0.421875 1.640625l0 3.359375l-1.609375 0l0 -3.15625q0 -0.546875 -0.1875 -0.796875q-0.171875 -0.265625 -0.625 -0.265625q-0.328125 0 -0.578125 0.15625q-0.25 0.140625 -0.53125 0.421875l0 3.640625l-1.609375 0l0 -7.71875z" fill-rule="nonzero"></path><path fill="#000000" fill-opacity="0.0" d="m410.34573 309.10794l56.314972 -0.18896484" fill-rule="evenodd"></path><path stroke="#595959" stroke-width="1.0" stroke-linejoin="round" stroke-linecap="butt" d="m410.34576 309.10797l50.315002 -0.16885376" fill-rule="evenodd"></path><path fill="#595959" stroke="#595959" stroke-width="1.0" stroke-linecap="butt" d="m460.6663 310.59085l4.5325317 -1.6669617l-4.5436096 -1.6365051z" fill-rule="evenodd"></path><path fill="#000000" fill-opacity="0.0" d="m601.69086 308.92737l42.64563 0.28347778" fill-rule="evenodd"></path><path stroke="#595959" stroke-width="1.0" stroke-linejoin="round" stroke-linecap="butt" d="m601.6908 308.92737l36.645813 0.24359131" fill-rule="evenodd"></path><path fill="#595959" stroke="#595959" stroke-width="1.0" stroke-linecap="butt" d="m638.3256 310.82266l4.549011 -1.6215515l-4.5270386 -1.6818542z" fill-rule="evenodd"></path><path fill="#000000" fill-opacity="0.0" d="m423.62616 283.2058l23.811035 0l0 25.51181l-23.811035 0z" fill-rule="evenodd"></path><path fill="#000000" d="m437.07928 301.74268q-0.546875 0.453125 -1.046875 0.640625q-0.484375 0.1875 -1.0625 0.1875q-0.9375 0 -1.453125 -0.453125q-0.5 -0.46875 -0.5 -1.171875q0 -0.421875 0.1875 -0.765625q0.203125 -0.34375 0.5 -0.546875q0.3125 -0.21875 0.703125 -0.328125q0.28125 -0.078125 0.859375 -0.140625q1.171875 -0.140625 1.71875 -0.34375q0.015625 -0.1875 0.015625 -0.25q0 -0.59375 -0.28125 -0.828125q-0.359375 -0.328125 -1.09375 -0.328125q-0.6875 0 -1.015625 0.234375q-0.3125 0.234375 -0.46875 0.84375l-0.953125 -0.125q0.125 -0.609375 0.421875 -0.984375q0.296875 -0.375 0.859375 -0.5625q0.5625 -0.203125 1.296875 -0.203125q0.734375 0 1.1875 0.171875q0.453125 0.171875 0.65625 0.4375q0.21875 0.25 0.3125 0.640625q0.046875 0.25 0.046875 0.90625l0 1.28125q0 1.34375 0.0625 1.703125q0.0625 0.359375 0.25 0.6875l-1.015625 0q-0.15625 -0.296875 -0.1875 -0.703125zm-0.09375 -2.15625q-0.515625 0.21875 -1.578125 0.359375q-0.59375 0.09375 -0.84375 0.203125q-0.234375 0.09375 -0.375 0.3125q-0.140625 0.203125 -0.140625 0.453125q0 0.390625 0.296875 0.65625q0.296875 0.25 0.859375 0.25q0.5625 0 0.984375 -0.25q0.4375 -0.25 0.65625 -0.671875q0.140625 -0.328125 0.140625 -0.96875l0 -0.34375z" fill-rule="nonzero"></path><path fill="#000000" fill-opacity="0.0" d="m608.17633 283.2058l23.811035 0l0 25.51181l-23.811035 0z" fill-rule="evenodd"></path><path fill="#000000" d="m618.7857 302.4458l-0.890625 0l0 -7.875l0.96875 0l0 2.8125q0.609375 -0.765625 1.5625 -0.765625q0.53125 0 1.0 0.21875q0.46875 0.203125 0.765625 0.59375q0.3125 0.375 0.484375 0.921875q0.171875 0.53125 0.171875 1.15625q0 1.46875 -0.734375 2.265625q-0.71875 0.796875 -1.734375 0.796875q-1.015625 0 -1.59375 -0.84375l0 0.71875zm0 -2.890625q0 1.015625 0.28125 1.484375q0.453125 0.734375 1.234375 0.734375q0.625 0 1.078125 -0.546875q0.46875 -0.546875 0.46875 -1.640625q0 -1.109375 -0.4375 -1.640625q-0.4375 -0.53125 -1.078125 -0.53125q-0.625 0 -1.09375 0.546875q-0.453125 0.546875 -0.453125 1.59375z" fill-rule="nonzero"></path><path fill="#d9ead3" d="m342.78668 309.10794l0 0c0 -18.577637 15.123627 -33.637787 33.77954 -33.637787l0 0c8.958893 0 17.550842 3.5439758 23.885712 9.852295c6.3349 6.3082886 9.893799 14.864197 9.893799 23.785492l0 0c0 18.577667 -15.123596 33.637817 -33.77951 33.637817l0 0c-18.655914 0 -33.77954 -15.06015 -33.77954 -33.637817z" fill-rule="evenodd"></path><path stroke="#595959" stroke-width="1.0" stroke-linejoin="round" stroke-linecap="butt" d="m342.78668 309.10794l0 0c0 -18.577637 15.123627 -33.637787 33.77954 -33.637787l0 0c8.958893 0 17.550842 3.5439758 23.885712 9.852295c6.3349 6.3082886 9.893799 14.864197 9.893799 23.785492l0 0c0 18.577667 -15.123596 33.637817 -33.77951 33.637817l0 0c-18.655914 0 -33.77954 -15.06015 -33.77954 -33.637817z" fill-rule="evenodd"></path><path fill="#000000" d="m364.12234 307.39484l1.625 0l0.859375 2.578125q0.125 0.40625 0.25 0.828125q0.125 0.421875 0.25 0.84375l0.03125 0q0.125 -0.421875 0.234375 -0.84375q0.125 -0.421875 0.25 -0.828125l0.859375 -2.578125l1.5625 0l-2.015625 5.453125l-1.859375 0l-2.046875 -5.453125zm6.925049 0l3.796875 0l0 5.453125l-1.609375 0l0 -4.1875l-2.1875 0l0 -1.265625zm2.921875 -0.8125q-0.46875 0 -0.78125 -0.25q-0.296875 -0.265625 -0.296875 -0.71875q0 -0.453125 0.296875 -0.734375q0.3125 -0.28125 0.78125 -0.28125q0.46875 0 0.765625 0.28125q0.3125 0.28125 0.3125 0.734375q0 0.453125 -0.3125 0.71875q-0.296875 0.25 -0.765625 0.25zm3.2063293 3.53125q0 -0.671875 0.234375 -1.1875q0.234375 -0.53125 0.625 -0.890625q0.40625 -0.375 0.90625 -0.578125q0.515625 -0.203125 1.0625 -0.203125q0.625 0 1.109375 0.203125q0.484375 0.203125 0.796875 0.5625q0.328125 0.34375 0.484375 0.828125q0.171875 0.46875 0.171875 1.03125q0 0.21875 -0.015625 0.421875q-0.015625 0.1875 -0.046875 0.296875l-3.671875 0q0.09375 0.609375 0.53125 0.890625q0.453125 0.265625 1.046875 0.265625q0.375 0 0.703125 -0.09375q0.34375 -0.09375 0.71875 -0.28125l0.515625 0.96875q-0.453125 0.296875 -1.03125 0.46875q-0.5625 0.15625 -1.125 0.15625q-0.640625 0 -1.1875 -0.1875q-0.546875 -0.1875 -0.953125 -0.546875q-0.40625 -0.375 -0.640625 -0.90625q-0.234375 -0.53125 -0.234375 -1.21875zm3.9375 -0.59375q0 -0.453125 -0.265625 -0.734375q-0.25 -0.296875 -0.8125 -0.296875q-0.4375 0 -0.78125 0.265625q-0.328125 0.25 -0.4375 0.765625l2.296875 0zm1.8937988 -2.125l1.578125 0l0.328125 2.53125q0.0625 0.40625 0.09375 0.796875q0.046875 0.390625 0.09375 0.8125l0.03125 0q0.0625 -0.421875 0.109375 -0.828125q0.0625 -0.40625 0.15625 -0.78125l0.328125 -1.8125l1.140625 0l0.359375 1.8125q0.078125 0.40625 0.140625 0.796875q0.078125 0.390625 0.125 0.8125l0.046875 0q0.046875 -0.421875 0.078125 -0.8125q0.046875 -0.390625 0.09375 -0.796875l0.328125 -2.53125l1.484375 0l-0.859375 5.453125l-1.859375 0l-0.3125 -1.8125q-0.0625 -0.390625 -0.109375 -0.78125q-0.046875 -0.390625 -0.09375 -0.828125l-0.046875 0q-0.03125 0.296875 -0.078125 0.671875q-0.03125 0.375 -0.125 0.9375l-0.296875 1.8125l-1.828125 0l-0.90625 -5.453125z" fill-rule="nonzero"></path><path fill="#000000" fill-opacity="0.0" d="m301.64435 309.2084l41.13388 -0.09451294" fill-rule="evenodd"></path><path stroke="#595959" stroke-width="1.0" stroke-linejoin="round" stroke-linecap="butt" d="m301.64435 309.2084l35.13388 -0.080718994" fill-rule="evenodd"></path><path fill="#595959" stroke="#595959" stroke-width="1.0" stroke-linecap="butt" d="m336.782 310.77942l4.5343018 -1.6621399l-4.54187 -1.6413269z" fill-rule="evenodd"></path><path fill="#000000" fill-opacity="0.0" d="m307.05905 281.5854l29.795288 0l0 25.51181l-29.795288 0z" fill-rule="evenodd"></path><path fill="#000000" d="m316.4028 299.12228l0.953125 -0.15625q0.078125 0.578125 0.4375 0.890625q0.375 0.296875 1.03125 0.296875q0.671875 0 0.984375 -0.265625q0.328125 -0.265625 0.328125 -0.640625q0 -0.328125 -0.28125 -0.515625q-0.203125 -0.125 -0.984375 -0.328125q-1.0625 -0.265625 -1.484375 -0.453125q-0.40625 -0.203125 -0.625 -0.546875q-0.203125 -0.34375 -0.203125 -0.765625q0 -0.390625 0.171875 -0.703125q0.171875 -0.328125 0.484375 -0.546875q0.21875 -0.171875 0.609375 -0.28125q0.390625 -0.109375 0.828125 -0.109375q0.671875 0 1.171875 0.1875q0.515625 0.1875 0.75 0.53125q0.25 0.328125 0.34375 0.875l-0.9375 0.125q-0.078125 -0.4375 -0.390625 -0.671875q-0.296875 -0.25 -0.859375 -0.25q-0.671875 0 -0.953125 0.21875q-0.28125 0.21875 -0.28125 0.515625q0 0.1875 0.109375 0.328125q0.125 0.15625 0.375 0.265625q0.140625 0.046875 0.859375 0.25q1.015625 0.265625 1.421875 0.4375q0.40625 0.171875 0.640625 0.515625q0.234375 0.328125 0.234375 0.828125q0 0.484375 -0.28125 0.90625q-0.28125 0.421875 -0.8125 0.65625q-0.53125 0.234375 -1.203125 0.234375q-1.109375 0 -1.703125 -0.453125q-0.578125 -0.46875 -0.734375 -1.375z" fill-rule="nonzero"></path><path fill="#000000" fill-opacity="0.0" d="m251.91208 309.49185l49.73227 -0.28344727" fill-rule="evenodd"></path><path stroke="#595959" stroke-width="1.0" stroke-linejoin="round" stroke-linecap="butt" d="m251.91208 309.49185l43.73239 -0.24926758" fill-rule="evenodd"></path><path fill="#595959" stroke="#595959" stroke-width="1.0" stroke-linecap="butt" d="m295.65387 310.8943l4.528595 -1.6775513l-4.5474243 -1.6258545z" fill-rule="evenodd"></path><path fill="#000000" fill-opacity="0.0" d="m644.32153 309.2084l51.968506 0.28344727" fill-rule="evenodd"></path><path stroke="#595959" stroke-width="1.0" stroke-linejoin="round" stroke-linecap="butt" d="m644.32153 309.2084l45.968567 0.25073242" fill-rule="evenodd"></path><path fill="#595959" stroke="#595959" stroke-width="1.0" stroke-linecap="butt" d="m690.2811 311.11084l4.546997 -1.6269531l-4.5289917 -1.6764526z" fill-rule="evenodd"></path><path fill="#000000" fill-opacity="0.0" d="m259.50854 281.5854l29.795258 0l0 25.51181l-29.795258 0z" fill-rule="evenodd"></path><path fill="#000000" d="m268.8523 299.12228l0.953125 -0.15625q0.078125 0.578125 0.4375 0.890625q0.375 0.296875 1.03125 0.296875q0.671875 0 0.984375 -0.265625q0.328125 -0.265625 0.328125 -0.640625q0 -0.328125 -0.28125 -0.515625q-0.203125 -0.125 -0.984375 -0.328125q-1.0625 -0.265625 -1.484375 -0.453125q-0.40625 -0.203125 -0.625 -0.546875q-0.203125 -0.34375 -0.203125 -0.765625q0 -0.390625 0.171875 -0.703125q0.171875 -0.328125 0.484375 -0.546875q0.21875 -0.171875 0.609375 -0.28125q0.390625 -0.109375 0.828125 -0.109375q0.671875 0 1.171875 0.1875q0.515625 0.1875 0.75 0.53125q0.25 0.328125 0.34375 0.875l-0.9375 0.125q-0.078125 -0.4375 -0.390625 -0.671875q-0.296875 -0.25 -0.859375 -0.25q-0.671875 0 -0.953125 0.21875q-0.28125 0.21875 -0.28125 0.515625q0 0.1875 0.109375 0.328125q0.125 0.15625 0.375 0.265625q0.140625 0.046875 0.859375 0.25q1.015625 0.265625 1.421875 0.4375q0.40625 0.171875 0.640625 0.515625q0.234375 0.328125 0.234375 0.828125q0 0.484375 -0.28125 0.90625q-0.28125 0.421875 -0.8125 0.65625q-0.53125 0.234375 -1.203125 0.234375q-1.109375 0 -1.703125 -0.453125q-0.578125 -0.46875 -0.734375 -1.375z" fill-rule="nonzero"></path><path fill="#000000" fill-opacity="0.0" d="m657.56116 282.3956l29.795288 0l0 25.51181l-29.795288 0z" fill-rule="evenodd"></path><path fill="#000000" d="m668.17053 301.6356l-0.890625 0l0 -7.875l0.96875 0l0 2.8125q0.609375 -0.765625 1.5625 -0.765625q0.53125 0 1.0 0.21875q0.46875 0.203125 0.765625 0.59375q0.3125 0.375 0.484375 0.921875q0.171875 0.53125 0.171875 1.15625q0 1.46875 -0.734375 2.265625q-0.71875 0.796875 -1.734375 0.796875q-1.015625 0 -1.59375 -0.84375l0 0.71875zm0 -2.890625q0 1.015625 0.28125 1.484375q0.453125 0.734375 1.234375 0.734375q0.625 0 1.078125 -0.546875q0.46875 -0.546875 0.46875 -1.640625q0 -1.109375 -0.4375 -1.640625q-0.4375 -0.53125 -1.078125 -0.53125q-0.625 0 -1.09375 0.546875q-0.453125 0.546875 -0.453125 1.59375z" fill-rule="nonzero"></path><path fill="#000000" fill-opacity="0.0" d="m252.2336 397.03778l444.063 1.0393677" fill-rule="evenodd"></path><path stroke="#595959" stroke-width="1.0" stroke-linejoin="round" stroke-linecap="butt" d="m252.2336 397.03778l438.063 1.0253296" fill-rule="evenodd"></path><path fill="#595959" stroke="#595959" stroke-width="1.0" stroke-linecap="butt" d="m690.2927 399.7148l4.541992 -1.6410828l-4.5342407 -1.6623535z" fill-rule="evenodd"></path><path fill="#000000" fill-opacity="0.0" d="m457.1017 370.86337l29.795258 0l0 25.51181l-29.795258 0z" fill-rule="evenodd"></path><path fill="#000000" d="m466.44547 388.40024l0.953125 -0.15625q0.078125 0.578125 0.4375 0.890625q0.375 0.296875 1.03125 0.296875q0.671875 0 0.984375 -0.265625q0.328125 -0.265625 0.328125 -0.640625q0 -0.328125 -0.28125 -0.515625q-0.203125 -0.125 -0.984375 -0.328125q-1.0625 -0.265625 -1.484375 -0.453125q-0.40625 -0.203125 -0.625 -0.546875q-0.203125 -0.34375 -0.203125 -0.765625q0 -0.390625 0.171875 -0.703125q0.171875 -0.328125 0.484375 -0.546875q0.21875 -0.171875 0.609375 -0.28125q0.390625 -0.109375 0.828125 -0.109375q0.671875 0 1.171875 0.1875q0.515625 0.1875 0.75 0.53125q0.25 0.328125 0.34375 0.875l-0.9375 0.125q-0.078125 -0.4375 -0.390625 -0.671875q-0.296875 -0.25 -0.859375 -0.25q-0.671875 0 -0.953125 0.21875q-0.28125 0.21875 -0.28125 0.515625q0 0.1875 0.109375 0.328125q0.125 0.15625 0.375 0.265625q0.140625 0.046875 0.859375 0.25q1.015625 0.265625 1.421875 0.4375q0.40625 0.171875 0.640625 0.515625q0.234375 0.328125 0.234375 0.828125q0 0.484375 -0.28125 0.90625q-0.28125 0.421875 -0.8125 0.65625q-0.53125 0.234375 -1.203125 0.234375q-1.109375 0 -1.703125 -0.453125q-0.578125 -0.46875 -0.734375 -1.375z" fill-rule="nonzero"></path><path fill="#ffffff" d="m143.18039 354.0109l0 0c0 -18.577637 15.123611 -33.637787 33.779526 -33.637787l0 0c8.958893 0 17.550842 3.5439758 23.885727 9.852295c6.3349 6.3082886 9.893799 14.864197 9.893799 23.785492l0 0c0 18.577637 -15.123611 33.637817 -33.779526 33.637817l0 0c-18.655914 0 -33.779526 -15.060181 -33.779526 -33.637817z" fill-rule="evenodd"></path><path stroke="#595959" stroke-width="1.0" stroke-linejoin="round" stroke-linecap="butt" d="m143.18039 354.0109l0 0c0 -18.577637 15.123611 -33.637787 33.779526 -33.637787l0 0c8.958893 0 17.550842 3.5439758 23.885727 9.852295c6.3349 6.3082886 9.893799 14.864197 9.893799 23.785492l0 0c0 18.577637 -15.123611 33.637817 -33.779526 33.637817l0 0c-18.655914 0 -33.779526 -15.060181 -33.779526 -33.637817z" fill-rule="evenodd"></path><path fill="#f4cccc" d="m737.09186 354.0121l0 0c0 -22.465363 18.902771 -40.677155 42.22046 -40.677155l0 0c11.197571 0 21.936523 4.285614 29.854431 11.9140625c7.9178467 7.6284485 12.366089 17.974854 12.366089 28.763092l0 0c0 22.465393 -18.902771 40.677185 -42.22052 40.677185l0 0c-23.317688 0 -42.22046 -18.211792 -42.22046 -40.677185z" fill-rule="evenodd"></path><path stroke="#595959" stroke-width="1.0" stroke-linejoin="round" stroke-linecap="butt" d="m737.09186 354.0121l0 0c0 -22.465363 18.902771 -40.677155 42.22046 -40.677155l0 0c11.197571 0 21.936523 4.285614 29.854431 11.9140625c7.9178467 7.6284485 12.366089 17.974854 12.366089 28.763092l0 0c0 22.465393 -18.902771 40.677185 -42.22052 40.677185l0 0c-23.317688 0 -42.22046 -18.211792 -42.22046 -40.677185z" fill-rule="evenodd"></path><path fill="#000000" d="m765.9122 357.7521l-1.328125 0l-0.125 -0.78125l-0.03125 0q-0.375 0.421875 -0.8125 0.671875q-0.4375 0.234375 -1.03125 0.234375q-0.9375 0 -1.359375 -0.59375q-0.40625 -0.59375 -0.40625 -1.625l0 -3.359375l1.609375 0l0 3.15625q0 0.546875 0.15625 0.796875q0.171875 0.25 0.640625 0.25q0.3125 0 0.546875 -0.125q0.234375 -0.125 0.515625 -0.5l0 -3.578125l1.625 0l0 5.453125zm3.0187988 0.421875l0 1.609375l-1.609375 0l0 -7.484375l1.3125 0l0.125 0.546875l0.03125 0q0.328125 -0.296875 0.75 -0.484375q0.4375 -0.203125 0.875 -0.203125q0.515625 0 0.921875 0.203125q0.40625 0.203125 0.6875 0.5625q0.28125 0.359375 0.421875 0.875q0.15625 0.515625 0.15625 1.140625q0 0.703125 -0.203125 1.25q-0.1875 0.546875 -0.515625 0.921875q-0.328125 0.375 -0.75 0.578125q-0.421875 0.1875 -0.890625 0.1875q-0.75 0 -1.359375 -0.59375l0.046875 0.890625zm0 -1.96875q0.234375 0.1875 0.484375 0.28125q0.25 0.078125 0.453125 0.078125q0.46875 0 0.765625 -0.375q0.3125 -0.390625 0.3125 -1.234375q0 -1.46875 -1.0 -1.46875q-0.515625 0 -1.015625 0.5l0 2.21875zm4.503174 -1.1875q0 -0.671875 0.1875 -1.1875q0.203125 -0.53125 0.53125 -0.890625q0.328125 -0.375 0.734375 -0.578125q0.421875 -0.203125 0.875 -0.203125q0.484375 0 0.796875 0.171875q0.3125 0.15625 0.609375 0.421875l-0.0625 -0.859375l0 -1.859375l1.625 0l0 7.71875l-1.328125 0l-0.125 -0.5625l-0.03125 0q-0.296875 0.296875 -0.703125 0.5q-0.390625 0.1875 -0.8125 0.1875q-0.515625 0 -0.9375 -0.1875q-0.421875 -0.203125 -0.734375 -0.5625q-0.296875 -0.375 -0.46875 -0.90625q-0.15625 -0.53125 -0.15625 -1.203125zm1.65625 -0.015625q0 0.8125 0.28125 1.1875q0.28125 0.375 0.78125 0.375q0.28125 0 0.5 -0.109375q0.234375 -0.125 0.453125 -0.390625l0 -2.21875q-0.21875 -0.203125 -0.453125 -0.28125q-0.21875 -0.078125 -0.453125 -0.078125q-0.453125 0 -0.78125 0.375q-0.328125 0.375 -0.328125 1.140625zm4.893799 1.234375q0 -0.46875 0.1875 -0.8125q0.203125 -0.34375 0.640625 -0.578125q0.4375 -0.25 1.109375 -0.390625q0.6875 -0.15625 1.65625 -0.21875q-0.046875 -0.375 -0.328125 -0.578125q-0.28125 -0.203125 -0.828125 -0.203125q-0.40625 0 -0.8125 0.140625q-0.390625 0.125 -0.859375 0.359375l-0.5625 -1.046875q0.5625 -0.328125 1.203125 -0.53125q0.640625 -0.21875 1.34375 -0.21875q1.140625 0 1.796875 0.609375q0.671875 0.609375 0.671875 1.859375l0 3.125l-1.328125 0l-0.125 -0.609375l-0.03125 0q-0.421875 0.3125 -0.921875 0.53125q-0.5 0.203125 -1.015625 0.203125q-0.421875 0 -0.75 -0.125q-0.328125 -0.125 -0.5625 -0.34375q-0.234375 -0.234375 -0.359375 -0.53125q-0.125 -0.296875 -0.125 -0.640625zm1.546875 -0.125q0 0.265625 0.203125 0.390625q0.203125 0.125 0.5625 0.125q0.359375 0 0.671875 -0.140625q0.328125 -0.15625 0.609375 -0.375l0 -0.90625q-0.609375 0.03125 -1.0 0.109375q-0.390625 0.078125 -0.625 0.203125q-0.234375 0.109375 -0.328125 0.265625q-0.09375 0.15625 -0.09375 0.328125zm6.08136 -2.546875l-1.375 0l0 -1.203125l1.453125 -0.0625l0.21875 -1.453125l1.328125 0l0 1.453125l2.3125 0l0 1.265625l-2.3125 0l0 1.90625q0 0.625 0.265625 0.890625q0.28125 0.25 0.875 0.25q0.328125 0 0.578125 -0.046875q0.265625 -0.0625 0.515625 -0.140625l0.28125 1.15625q-0.359375 0.109375 -0.8125 0.203125q-0.4375 0.09375 -0.96875 0.09375q-0.640625 0 -1.09375 -0.171875q-0.453125 -0.171875 -0.734375 -0.484375q-0.28125 -0.3125 -0.40625 -0.75q-0.125 -0.453125 -0.125 -0.984375l0 -1.921875zm5.096924 1.453125q0 -0.671875 0.234375 -1.1875q0.234375 -0.53125 0.625 -0.890625q0.40625 -0.375 0.90625 -0.578125q0.515625 -0.203125 1.0625 -0.203125q0.625 0 1.109375 0.203125q0.484375 0.203125 0.796875 0.5625q0.328125 0.34375 0.484375 0.828125q0.171875 0.46875 0.171875 1.03125q0 0.21875 -0.015625 0.421875q-0.015625 0.1875 -0.046875 0.296875l-3.671875 0q0.09375 0.609375 0.53125 0.890625q0.453125 0.265625 1.046875 0.265625q0.375 0 0.703125 -0.09375q0.34375 -0.09375 0.71875 -0.28125l0.515625 0.96875q-0.453125 0.296875 -1.03125 0.46875q-0.5625 0.15625 -1.125 0.15625q-0.640625 0 -1.1875 -0.1875q-0.546875 -0.1875 -0.953125 -0.546875q-0.40625 -0.375 -0.640625 -0.90625q-0.234375 -0.53125 -0.234375 -1.21875zm3.9375 -0.59375q0 -0.453125 -0.265625 -0.734375q-0.25 -0.296875 -0.8125 -0.296875q-0.4375 0 -0.78125 0.265625q-0.328125 0.25 -0.4375 0.765625l2.296875 0z" fill-rule="nonzero"></path><path fill="#000000" fill-opacity="0.0" d="m200.84564 330.2254l0 -20.409454l51.40158 0" fill-rule="evenodd"></path><path stroke="#595959" stroke-width="1.0" stroke-linejoin="round" stroke-linecap="butt" d="m200.84566 330.2254l0 -20.409454l45.40158 0" fill-rule="evenodd"></path><path fill="#595959" stroke="#595959" stroke-width="1.0" stroke-linecap="butt" d="m246.24724 311.46768l4.538086 -1.6517334l-4.538086 -1.6517334z" fill-rule="evenodd"></path><path fill="#000000" fill-opacity="0.0" d="m200.84564 377.79642l0 19.937012l51.40158 0" fill-rule="evenodd"></path><path stroke="#595959" stroke-width="1.0" stroke-linejoin="round" stroke-linecap="butt" d="m200.84566 377.79642l0 19.937012l45.40158 0" fill-rule="evenodd"></path><path fill="#595959" stroke="#595959" stroke-width="1.0" stroke-linecap="butt" d="m246.24724 399.38516l4.538086 -1.6517334l-4.538086 -1.6517334z" fill-rule="evenodd"></path><path fill="#000000" fill-opacity="0.0" d="m696.63904 309.81592l52.81891 0l0 15.433075" fill-rule="evenodd"></path><path stroke="#595959" stroke-width="1.0" stroke-linejoin="round" stroke-linecap="butt" d="m696.63904 309.81592l52.81891 0l0 9.433075" fill-rule="evenodd"></path><path fill="#595959" stroke="#595959" stroke-width="1.0" stroke-linecap="butt" d="m747.8062 319.249l1.6517334 4.538086l1.6517334 -4.538086z" fill-rule="evenodd"></path><path fill="#000000" fill-opacity="0.0" d="m696.63904 398.42874l52.81891 0l0 -15.653534" fill-rule="evenodd"></path><path stroke="#595959" stroke-width="1.0" stroke-linejoin="round" stroke-linecap="butt" d="m696.63904 398.4287l52.81891 0l0 -9.653534" fill-rule="evenodd"></path><path fill="#595959" stroke="#595959" stroke-width="1.0" stroke-linecap="butt" d="m751.1097 388.77518l-1.6517334 -4.538086l-1.6517334 4.538086z" fill-rule="evenodd"></path><path fill="#000000" fill-opacity="0.0" d="m44.333332 331.33438l56.50394 0.34646606" fill-rule="evenodd"></path><path stroke="#595959" stroke-width="1.0" stroke-linejoin="round" stroke-linecap="butt" d="m44.333332 331.33438l50.504047 0.30966187" fill-rule="evenodd"></path><path fill="#595959" stroke="#595959" stroke-width="1.0" stroke-linecap="butt" d="m94.827255 333.29575l4.5481415 -1.6238708l-4.5278854 -1.6795349z" fill-rule="evenodd"></path><path fill="#000000" fill-opacity="0.0" d="m861.08923 331.68085l58.078735 0.18896484" fill-rule="evenodd"></path><path stroke="#595959" stroke-width="1.0" stroke-linejoin="round" stroke-linecap="butt" d="m861.08923 331.68085l52.078735 0.1694336" fill-rule="evenodd"></path><path fill="#595959" stroke="#595959" stroke-width="1.0" stroke-linecap="butt" d="m913.16266 333.502l4.543396 -1.6369629l-4.532654 -1.6664734z" fill-rule="evenodd"></path><path fill="#000000" fill-opacity="0.0" d="m211.50853 281.5854l29.795273 0l0 25.51181l-29.795273 0z" fill-rule="evenodd"></path><path fill="#000000" d="m220.85228 299.12228l0.953125 -0.15625q0.078125 0.578125 0.4375 0.890625q0.375 0.296875 1.03125 0.296875q0.671875 0 0.984375 -0.265625q0.328125 -0.265625 0.328125 -0.640625q0 -0.328125 -0.28125 -0.515625q-0.203125 -0.125 -0.984375 -0.328125q-1.0625 -0.265625 -1.484375 -0.453125q-0.40625 -0.203125 -0.625 -0.546875q-0.203125 -0.34375 -0.203125 -0.765625q0 -0.390625 0.171875 -0.703125q0.171875 -0.328125 0.484375 -0.546875q0.21875 -0.171875 0.609375 -0.28125q0.390625 -0.109375 0.828125 -0.109375q0.671875 0 1.171875 0.1875q0.515625 0.1875 0.75 0.53125q0.25 0.328125 0.34375 0.875l-0.9375 0.125q-0.078125 -0.4375 -0.390625 -0.671875q-0.296875 -0.25 -0.859375 -0.25q-0.671875 0 -0.953125 0.21875q-0.28125 0.21875 -0.28125 0.515625q0 0.1875 0.109375 0.328125q0.125 0.15625 0.375 0.265625q0.140625 0.046875 0.859375 0.25q1.015625 0.265625 1.421875 0.4375q0.40625 0.171875 0.640625 0.515625q0.234375 0.328125 0.234375 0.828125q0 0.484375 -0.28125 0.90625q-0.28125 0.421875 -0.8125 0.65625q-0.53125 0.234375 -1.203125 0.234375q-1.109375 0 -1.703125 -0.453125q-0.578125 -0.46875 -0.734375 -1.375z" fill-rule="nonzero"></path><path fill="#000000" fill-opacity="0.0" d="m211.50853 371.67844l29.795273 0l0 25.51181l-29.795273 0z" fill-rule="evenodd"></path><path fill="#000000" d="m220.85228 389.2153l0.953125 -0.15625q0.078125 0.578125 0.4375 0.890625q0.375 0.296875 1.03125 0.296875q0.671875 0 0.984375 -0.265625q0.328125 -0.265625 0.328125 -0.640625q0 -0.328125 -0.28125 -0.515625q-0.203125 -0.125 -0.984375 -0.328125q-1.0625 -0.265625 -1.484375 -0.453125q-0.40625 -0.203125 -0.625 -0.546875q-0.203125 -0.34375 -0.203125 -0.765625q0 -0.390625 0.171875 -0.703125q0.171875 -0.328125 0.484375 -0.546875q0.21875 -0.171875 0.609375 -0.28125q0.390625 -0.109375 0.828125 -0.109375q0.671875 0 1.171875 0.1875q0.515625 0.1875 0.75 0.53125q0.25 0.328125 0.34375 0.875l-0.9375 0.125q-0.078125 -0.4375 -0.390625 -0.671875q-0.296875 -0.25 -0.859375 -0.25q-0.671875 0 -0.953125 0.21875q-0.28125 0.21875 -0.28125 0.515625q0 0.1875 0.109375 0.328125q0.125 0.15625 0.375 0.265625q0.140625 0.046875 0.859375 0.25q1.015625 0.265625 1.421875 0.4375q0.40625 0.171875 0.640625 0.515625q0.234375 0.328125 0.234375 0.828125q0 0.484375 -0.28125 0.90625q-0.28125 0.421875 -0.8125 0.65625q-0.53125 0.234375 -1.203125 0.234375q-1.109375 0 -1.703125 -0.453125q-0.578125 -0.46875 -0.734375 -1.375z" fill-rule="nonzero"></path><path fill="#000000" fill-opacity="0.0" d="m123.50853 321.5854l29.795273 0l0 25.51181l-29.795273 0z" fill-rule="evenodd"></path><path fill="#000000" d="m132.85228 339.12228l0.953125 -0.15625q0.078125 0.578125 0.4375 0.890625q0.375 0.296875 1.03125 0.296875q0.671875 0 0.984375 -0.265625q0.328125 -0.265625 0.328125 -0.640625q0 -0.328125 -0.28125 -0.515625q-0.203125 -0.125 -0.984375 -0.328125q-1.0625 -0.265625 -1.484375 -0.453125q-0.40625 -0.203125 -0.625 -0.546875q-0.203125 -0.34375 -0.203125 -0.765625q0 -0.390625 0.171875 -0.703125q0.171875 -0.328125 0.484375 -0.546875q0.21875 -0.171875 0.609375 -0.28125q0.390625 -0.109375 0.828125 -0.109375q0.671875 0 1.171875 0.1875q0.515625 0.1875 0.75 0.53125q0.25 0.328125 0.34375 0.875l-0.9375 0.125q-0.078125 -0.4375 -0.390625 -0.671875q-0.296875 -0.25 -0.859375 -0.25q-0.671875 0 -0.953125 0.21875q-0.28125 0.21875 -0.28125 0.515625q0 0.1875 0.109375 0.328125q0.125 0.15625 0.375 0.265625q0.140625 0.046875 0.859375 0.25q1.015625 0.265625 1.421875 0.4375q0.40625 0.171875 0.640625 0.515625q0.234375 0.328125 0.234375 0.828125q0 0.484375 -0.28125 0.90625q-0.28125 0.421875 -0.8125 0.65625q-0.53125 0.234375 -1.203125 0.234375q-1.109375 0 -1.703125 -0.453125q-0.578125 -0.46875 -0.734375 -1.375z" fill-rule="nonzero"></path><path fill="#000000" fill-opacity="0.0" d="m54.62481 299.30634l29.795273 0l0 25.51181l-29.795273 0z" fill-rule="evenodd"></path><path fill="#000000" d="m64.202934 323.28882l1.65625 -0.265625q0.140625 1.0 0.765625 1.53125q0.640625 0.515625 1.78125 0.515625q1.15625 0 1.703125 -0.46875q0.5625 -0.46875 0.5625 -1.09375q0 -0.5625 -0.484375 -0.890625q-0.34375 -0.21875 -1.703125 -0.5625q-1.84375 -0.46875 -2.5625 -0.796875q-0.703125 -0.34375 -1.078125 -0.9375q-0.359375 -0.609375 -0.359375 -1.328125q0 -0.65625 0.296875 -1.21875q0.3125 -0.5625 0.828125 -0.9375q0.390625 -0.28125 1.0625 -0.484375q0.671875 -0.203125 1.4375 -0.203125q1.171875 0 2.046875 0.34375q0.875 0.328125 1.28125 0.90625q0.421875 0.5625 0.578125 1.515625l-1.625 0.21875q-0.109375 -0.75 -0.65625 -1.171875q-0.53125 -0.4375 -1.5 -0.4375q-1.15625 0 -1.640625 0.390625q-0.484375 0.375 -0.484375 0.875q0 0.328125 0.203125 0.59375q0.203125 0.265625 0.640625 0.4375q0.25 0.09375 1.46875 0.4375q1.765625 0.46875 2.46875 0.765625q0.703125 0.296875 1.09375 0.875q0.40625 0.578125 0.40625 1.4375q0 0.828125 -0.484375 1.578125q-0.484375 0.734375 -1.40625 1.140625q-0.921875 0.390625 -2.078125 0.390625q-1.921875 0 -2.9375 -0.796875q-1.0 -0.796875 -1.28125 -2.359375z" fill-rule="nonzero"></path><path fill="#000000" fill-opacity="0.0" d="m707.50854 371.67844l29.795288 0l0 25.51181l-29.795288 0z" fill-rule="evenodd"></path><path fill="#000000" d="m716.8523 389.2153l0.953125 -0.15625q0.078125 0.578125 0.4375 0.890625q0.375 0.296875 1.03125 0.296875q0.671875 0 0.984375 -0.265625q0.328125 -0.265625 0.328125 -0.640625q0 -0.328125 -0.28125 -0.515625q-0.203125 -0.125 -0.984375 -0.328125q-1.0625 -0.265625 -1.484375 -0.453125q-0.40625 -0.203125 -0.625 -0.546875q-0.203125 -0.34375 -0.203125 -0.765625q0 -0.390625 0.171875 -0.703125q0.171875 -0.328125 0.484375 -0.546875q0.21875 -0.171875 0.609375 -0.28125q0.390625 -0.109375 0.828125 -0.109375q0.671875 0 1.171875 0.1875q0.515625 0.1875 0.75 0.53125q0.25 0.328125 0.34375 0.875l-0.9375 0.125q-0.078125 -0.4375 -0.390625 -0.671875q-0.296875 -0.25 -0.859375 -0.25q-0.671875 0 -0.953125 0.21875q-0.28125 0.21875 -0.28125 0.515625q0 0.1875 0.109375 0.328125q0.125 0.15625 0.375 0.265625q0.140625 0.046875 0.859375 0.25q1.015625 0.265625 1.421875 0.4375q0.40625 0.171875 0.640625 0.515625q0.234375 0.328125 0.234375 0.828125q0 0.484375 -0.28125 0.90625q-0.28125 0.421875 -0.8125 0.65625q-0.53125 0.234375 -1.203125 0.234375q-1.109375 0 -1.703125 -0.453125q-0.578125 -0.46875 -0.734375 -1.375z" fill-rule="nonzero"></path><path fill="#000000" fill-opacity="0.0" d="m707.50854 283.67844l29.795288 0l0 25.51181l-29.795288 0z" fill-rule="evenodd"></path><path fill="#000000" d="m718.1179 302.91843l-0.890625 0l0 -7.875l0.96875 0l0 2.8125q0.609375 -0.765625 1.5625 -0.765625q0.53125 0 1.0 0.21875q0.46875 0.203125 0.765625 0.59375q0.3125 0.375 0.484375 0.921875q0.171875 0.53125 0.171875 1.15625q0 1.46875 -0.734375 2.265625q-0.71875 0.796875 -1.734375 0.796875q-1.015625 0 -1.59375 -0.84375l0 0.71875zm0 -2.890625q0 1.015625 0.28125 1.484375q0.453125 0.734375 1.234375 0.734375q0.625 0 1.078125 -0.546875q0.46875 -0.546875 0.46875 -1.640625q0 -1.109375 -0.4375 -1.640625q-0.4375 -0.53125 -1.078125 -0.53125q-0.625 0 -1.09375 0.546875q-0.453125 0.546875 -0.453125 1.59375z" fill-rule="nonzero"></path><path fill="#000000" fill-opacity="0.0" d="m822.6713 326.7947l29.795288 0l0 25.51181l-29.795288 0z" fill-rule="evenodd"></path><path fill="#000000" d="m834.5151 345.17532l0.125 0.84375q-0.40625 0.09375 -0.71875 0.09375q-0.53125 0 -0.828125 -0.171875q-0.28125 -0.171875 -0.40625 -0.4375q-0.109375 -0.265625 -0.109375 -1.140625l0 -3.28125l-0.71875 0l0 -0.75l0.71875 0l0 -1.40625l0.953125 -0.59375l0 2.0l0.984375 0l0 0.75l-0.984375 0l0 3.34375q0 0.40625 0.046875 0.53125q0.0625 0.109375 0.171875 0.1875q0.125 0.0625 0.328125 0.0625q0.171875 0 0.4375 -0.03125z" fill-rule="nonzero"></path><path fill="#000000" fill-opacity="0.0" d="m872.71783 301.02725l29.795288 0l0 25.51181l-29.795288 0z" fill-rule="evenodd"></path><path fill="#000000" d="m886.6241 326.44727l0.234375 1.484375q-0.703125 0.140625 -1.265625 0.140625q-0.90625 0 -1.40625 -0.28125q-0.5 -0.296875 -0.703125 -0.75q-0.203125 -0.46875 -0.203125 -1.984375l0 -5.65625l-1.234375 0l0 -1.3125l1.234375 0l0 -2.4375l1.65625 -1.0l0 3.4375l1.6875 0l0 1.3125l-1.6875 0l0 5.75q0 0.71875 0.078125 0.921875q0.09375 0.203125 0.296875 0.328125q0.203125 0.125 0.578125 0.125q0.265625 0 0.734375 -0.078125z" fill-rule="nonzero"></path><path fill="#000000" fill-opacity="0.0" d="m100.84968 331.6802l21.165352 0l0 22.330688l21.16536 0" fill-rule="evenodd"></path><path stroke="#595959" stroke-width="1.0" stroke-linejoin="round" stroke-linecap="butt" d="m100.84968 331.6802l21.165352 0l0 22.330688l15.1653595 0" fill-rule="evenodd"></path><path fill="#595959" stroke="#595959" stroke-width="1.0" stroke-linecap="butt" d="m137.18039 355.66263l4.538086 -1.6517334l-4.538086 -1.6517334z" fill-rule="evenodd"></path><path fill="#000000" fill-opacity="0.0" d="m821.53284 354.0121l21.257019 0l0 -22.330688l18.302002 0" fill-rule="evenodd"></path><path stroke="#595959" stroke-width="1.0" stroke-linejoin="round" stroke-linecap="butt" d="m821.53284 354.0121l21.257019 0l0 -22.330688l12.302002 0" fill-rule="evenodd"></path><path fill="#595959" stroke="#595959" stroke-width="1.0" stroke-linecap="butt" d="m855.09186 333.33313l4.538086 -1.6517334l-4.538086 -1.6517334z" fill-rule="evenodd"></path><path fill="#000000" fill-opacity="0.0" d="m143.18039 354.0109l57.66928 -23.77951" fill-rule="evenodd"></path><path stroke="#595959" stroke-width="1.0" stroke-linejoin="round" stroke-linecap="butt" d="m143.18039 354.0109l52.122345 -21.49228" fill-rule="evenodd"></path><path fill="#595959" stroke="#595959" stroke-width="1.0" stroke-linecap="butt" d="m195.93239 334.04562l3.5657806 -3.256958l-4.8250885 0.2029419z" fill-rule="evenodd"></path><path fill="#000000" fill-opacity="0.0" d="m143.18039 354.0109l57.66928 23.779541" fill-rule="evenodd"></path><path stroke="#595959" stroke-width="1.0" stroke-linejoin="round" stroke-linecap="butt" d="m143.18039 354.0109l52.122345 21.49231" fill-rule="evenodd"></path><path fill="#595959" stroke="#595959" stroke-width="1.0" stroke-linecap="butt" d="m194.67308 377.0302l4.8250885 0.2029419l-3.5657806 -3.256958z" fill-rule="evenodd"></path><path fill="#000000" fill-opacity="0.0" d="m167.02028 66.901505l56.314957 -0.1889801" fill-rule="evenodd"></path><path stroke="#595959" stroke-width="1.0" stroke-linejoin="round" stroke-linecap="butt" d="m167.02028 66.901505l50.315002 -0.1688385" fill-rule="evenodd"></path><path fill="#595959" stroke="#595959" stroke-width="1.0" stroke-linecap="butt" d="m217.34082 68.384384l4.5325317 -1.666954l-4.543625 -1.6364899z" fill-rule="evenodd"></path><path fill="#000000" fill-opacity="0.0" d="m180.3007 40.99935l23.811035 0l0 25.51181l-23.811035 0z" fill-rule="evenodd"></path><path fill="#000000" d="m193.75383 59.53623q-0.546875 0.453125 -1.046875 0.640625q-0.484375 0.1875 -1.0625 0.1875q-0.9375 0 -1.453125 -0.453125q-0.5 -0.46875 -0.5 -1.171875q0 -0.421875 0.1875 -0.765625q0.203125 -0.34375 0.5 -0.546875q0.3125 -0.21875 0.703125 -0.328125q0.28125 -0.078125 0.859375 -0.140625q1.171875 -0.140625 1.71875 -0.34375q0.015625 -0.1875 0.015625 -0.25q0 -0.59375 -0.28125 -0.828125q-0.359375 -0.328125 -1.09375 -0.328125q-0.6875 0 -1.015625 0.234375q-0.3125 0.234375 -0.46875 0.84375l-0.953125 -0.125q0.125 -0.609375 0.421875 -0.984375q0.296875 -0.375 0.859375 -0.5625q0.5625 -0.203125 1.296875 -0.203125q0.734375 0 1.1875 0.171875q0.453125 0.171875 0.65625 0.4375q0.21875 0.25 0.3125 0.640625q0.046875 0.25 0.046875 0.90625l0 1.28125q0 1.34375 0.0625 1.703125q0.0625 0.359375 0.25 0.6875l-1.015625 0q-0.15625 -0.296875 -0.1875 -0.703125zm-0.09375 -2.15625q-0.515625 0.21875 -1.578125 0.359375q-0.59375 0.09375 -0.84375 0.203125q-0.234375 0.09375 -0.375 0.3125q-0.140625 0.203125 -0.140625 0.453125q0 0.390625 0.296875 0.65625q0.296875 0.25 0.859375 0.25q0.5625 0 0.984375 -0.25q0.4375 -0.25 0.65625 -0.671875q0.140625 -0.328125 0.140625 -0.96875l0 -0.34375z" fill-rule="nonzero"></path><path fill="#d9ead3" d="m99.46123 66.901505l0 0c0 -18.57764 15.123611 -33.637794 33.779526 -33.637794l0 0c8.958893 0 17.550842 3.543972 23.885727 9.85228c6.3349 6.3083115 9.893799 14.864216 9.893799 23.785515l0 0c0 18.577644 -15.123611 33.637794 -33.779526 33.637794l0 0c-18.655914 0 -33.779526 -15.06015 -33.779526 -33.637794z" fill-rule="evenodd"></path><path stroke="#595959" stroke-width="1.0" stroke-linejoin="round" stroke-linecap="butt" d="m99.46123 66.901505l0 0c0 -18.57764 15.123611 -33.637794 33.779526 -33.637794l0 0c8.958893 0 17.550842 3.543972 23.885727 9.85228c6.3349 6.3083115 9.893799 14.864216 9.893799 23.785515l0 0c0 18.577644 -15.123611 33.637794 -33.779526 33.637794l0 0c-18.655914 0 -33.779526 -15.06015 -33.779526 -33.637794z" fill-rule="evenodd"></path><path fill="#000000" d="m120.796875 65.18838l1.625 0l0.859375 2.578125q0.125 0.40625 0.25 0.828125q0.125 0.421875 0.25 0.84375l0.03125 0q0.125 -0.421875 0.234375 -0.84375q0.125 -0.421875 0.25 -0.828125l0.859375 -2.578125l1.5625 0l-2.015625 5.453125l-1.859375 0l-2.046875 -5.453125zm6.925064 0l3.796875 0l0 5.453125l-1.609375 0l0 -4.1875l-2.1875 0l0 -1.265625zm2.921875 -0.8125q-0.46875 0 -0.78125 -0.25q-0.296875 -0.265625 -0.296875 -0.71875q0 -0.453125 0.296875 -0.734375q0.3125 -0.28125 0.78125 -0.28125q0.46875 0 0.765625 0.28125q0.3125 0.28125 0.3125 0.734375q0 0.453125 -0.3125 0.71875q-0.296875 0.25 -0.765625 0.25zm3.206314 3.53125q0 -0.671875 0.234375 -1.1875q0.234375 -0.53125 0.625 -0.890625q0.40625 -0.375 0.90625 -0.578125q0.515625 -0.203125 1.0625 -0.203125q0.625 0 1.109375 0.203125q0.484375 0.203125 0.796875 0.5625q0.328125 0.34375 0.484375 0.828125q0.171875 0.46875 0.171875 1.03125q0 0.21875 -0.015625 0.421875q-0.015625 0.1875 -0.046875 0.296875l-3.671875 0q0.09375 0.609375 0.53125 0.890625q0.453125 0.265625 1.046875 0.265625q0.375 0 0.703125 -0.09375q0.34375 -0.09375 0.71875 -0.28125l0.515625 0.96875q-0.453125 0.296875 -1.03125 0.46875q-0.5625 0.15625 -1.125 0.15625q-0.640625 0 -1.1875 -0.1875q-0.546875 -0.1875 -0.953125 -0.546875q-0.40625 -0.375 -0.640625 -0.90625q-0.234375 -0.53125 -0.234375 -1.21875zm3.9375 -0.59375q0 -0.453125 -0.265625 -0.734375q-0.25 -0.296875 -0.8125 -0.296875q-0.4375 0 -0.78125 0.265625q-0.328125 0.25 -0.4375 0.765625l2.296875 0zm1.8938141 -2.125l1.578125 0l0.328125 2.53125q0.0625 0.40625 0.09375 0.796875q0.046875 0.390625 0.09375 0.8125l0.03125 0q0.0625 -0.421875 0.109375 -0.828125q0.0625 -0.40625 0.15625 -0.78125l0.328125 -1.8125l1.140625 0l0.359375 1.8125q0.078125 0.40625 0.140625 0.796875q0.078125 0.390625 0.125 0.8125l0.046875 0q0.046875 -0.421875 0.078125 -0.8125q0.046875 -0.390625 0.09375 -0.796875l0.328125 -2.53125l1.484375 0l-0.859375 5.453125l-1.859375 0l-0.3125 -1.8125q-0.0625 -0.390625 -0.109375 -0.78125q-0.046875 -0.390625 -0.09375 -0.828125l-0.046875 0q-0.03125 0.296875 -0.078125 0.671875q-0.03125 0.375 -0.125 0.9375l-0.296875 1.8125l-1.828125 0l-0.90625 -5.453125z" fill-rule="nonzero"></path><path fill="#000000" fill-opacity="0.0" d="m58.32737 66.995995l41.133858 -0.09449005" fill-rule="evenodd"></path><path stroke="#595959" stroke-width="1.0" stroke-linejoin="round" stroke-linecap="butt" d="m58.327366 66.995995l35.133877 -0.080703735" fill-rule="evenodd"></path><path fill="#595959" stroke="#595959" stroke-width="1.0" stroke-linecap="butt" d="m93.465034 68.56702l4.534294 -1.6621552l-4.5418854 -1.641304z" fill-rule="evenodd"></path><path fill="#000000" fill-opacity="0.0" d="m63.7336 39.378952l29.795277 0l0 25.51181l-29.795277 0z" fill-rule="evenodd"></path><path fill="#000000" d="m73.07735 56.91583l0.953125 -0.15625q0.078125 0.578125 0.4375 0.890625q0.375 0.296875 1.03125 0.296875q0.671875 0 0.984375 -0.265625q0.328125 -0.265625 0.328125 -0.640625q0 -0.328125 -0.28125 -0.515625q-0.203125 -0.125 -0.984375 -0.328125q-1.0625 -0.265625 -1.484375 -0.453125q-0.40625 -0.203125 -0.625 -0.546875q-0.203125 -0.34375 -0.203125 -0.765625q0 -0.390625 0.171875 -0.703125q0.171875 -0.328125 0.484375 -0.546875q0.21875 -0.171875 0.609375 -0.28125q0.390625 -0.109375 0.828125 -0.109375q0.671875 0 1.171875 0.1875q0.515625 0.1875 0.75 0.53125q0.25 0.328125 0.34375 0.875l-0.9375 0.125q-0.078125 -0.4375 -0.390625 -0.671875q-0.296875 -0.25 -0.859375 -0.25q-0.671875 0 -0.953125 0.21875q-0.28125 0.21875 -0.28125 0.515625q0 0.1875 0.109375 0.328125q0.125 0.15625 0.375 0.265625q0.140625 0.046875 0.859375 0.25q1.015625 0.265625 1.421875 0.4375q0.40625 0.171875 0.640625 0.515625q0.234375 0.328125 0.234375 0.828125q0 0.484375 -0.28125 0.90625q-0.28125 0.421875 -0.8125 0.65625q-0.53125 0.234375 -1.203125 0.234375q-1.109375 0 -1.703125 -0.453125q-0.578125 -0.46875 -0.734375 -1.375z" fill-rule="nonzero"></path><path fill="#f4cccc" d="m772.68243 79.908005l0 0c0 -22.465374 18.90271 -40.677162 42.22046 -40.677162l0 0c11.197571 0 21.936523 4.285618 29.85437 11.914066c7.9179077 7.6284485 12.366089 17.974842 12.366089 28.763096l0 0c0 22.465378 -18.902771 40.67717 -42.22046 40.67717l0 0c-23.317749 0 -42.22046 -18.211792 -42.22046 -40.67717z" fill-rule="evenodd"></path><path stroke="#595959" stroke-width="1.0" stroke-linejoin="round" stroke-linecap="butt" d="m772.68243 79.908005l0 0c0 -22.465374 18.90271 -40.677162 42.22046 -40.677162l0 0c11.197571 0 21.936523 4.285618 29.85437 11.914066c7.9179077 7.6284485 12.366089 17.974842 12.366089 28.763096l0 0c0 22.465378 -18.902771 40.67717 -42.22046 40.67717l0 0c-23.317749 0 -42.22046 -18.211792 -42.22046 -40.67717z" fill-rule="evenodd"></path><path fill="#000000" d="m801.5027 83.648l-1.328125 0l-0.125 -0.78125l-0.03125 0q-0.375 0.421875 -0.8125 0.671875q-0.4375 0.234375 -1.03125 0.234375q-0.9375 0 -1.359375 -0.59375q-0.40625 -0.59375 -0.40625 -1.625l0 -3.359375l1.609375 0l0 3.15625q0 0.546875 0.15625 0.796875q0.171875 0.25 0.640625 0.25q0.3125 0 0.546875 -0.125q0.234375 -0.125 0.515625 -0.5l0 -3.578125l1.625 0l0 5.453125zm3.0187988 0.421875l0 1.609375l-1.609375 0l0 -7.484375l1.3125 0l0.125 0.546875l0.03125 0q0.328125 -0.296875 0.75 -0.484375q0.4375 -0.203125 0.875 -0.203125q0.515625 0 0.921875 0.203125q0.40625 0.203125 0.6875 0.5625q0.28125 0.359375 0.421875 0.875q0.15625 0.515625 0.15625 1.140625q0 0.703125 -0.203125 1.25q-0.1875 0.546875 -0.515625 0.921875q-0.328125 0.375 -0.75 0.578125q-0.421875 0.1875 -0.890625 0.1875q-0.75 0 -1.359375 -0.59375l0.046875 0.890625zm0 -1.96875q0.234375 0.1875 0.484375 0.28125q0.25 0.078125 0.453125 0.078125q0.46875 0 0.765625 -0.375q0.3125 -0.390625 0.3125 -1.234375q0 -1.46875 -1.0 -1.46875q-0.515625 0 -1.015625 0.5l0 2.21875zm4.503235 -1.1875q0 -0.671875 0.1875 -1.1875q0.203125 -0.53125 0.53125 -0.890625q0.328125 -0.375 0.734375 -0.578125q0.421875 -0.203125 0.875 -0.203125q0.484375 0 0.796875 0.171875q0.3125 0.15625 0.609375 0.421875l-0.0625 -0.859375l0 -1.859375l1.625 0l0 7.71875l-1.328125 0l-0.125 -0.5625l-0.03125 0q-0.296875 0.296875 -0.703125 0.5q-0.390625 0.1875 -0.8125 0.1875q-0.515625 0 -0.9375 -0.1875q-0.421875 -0.203125 -0.734375 -0.5625q-0.296875 -0.375 -0.46875 -0.90625q-0.15625 -0.53125 -0.15625 -1.203125zm1.65625 -0.015625q0 0.8125 0.28125 1.1875q0.28125 0.375 0.78125 0.375q0.28125 0 0.5 -0.109375q0.234375 -0.125 0.453125 -0.390625l0 -2.21875q-0.21875 -0.203125 -0.453125 -0.28125q-0.21875 -0.078125 -0.453125 -0.078125q-0.453125 0 -0.78125 0.375q-0.328125 0.375 -0.328125 1.140625zm4.893799 1.234375q0 -0.46875 0.1875 -0.8125q0.203125 -0.34375 0.640625 -0.578125q0.4375 -0.25 1.109375 -0.390625q0.6875 -0.15625 1.65625 -0.21875q-0.046875 -0.375 -0.328125 -0.578125q-0.28125 -0.203125 -0.828125 -0.203125q-0.40625 0 -0.8125 0.140625q-0.390625 0.125 -0.859375 0.359375l-0.5625 -1.046875q0.5625 -0.328125 1.203125 -0.53125q0.640625 -0.21875 1.34375 -0.21875q1.140625 0 1.796875 0.609375q0.671875 0.609375 0.671875 1.859375l0 3.125l-1.328125 0l-0.125 -0.609375l-0.03125 0q-0.421875 0.3125 -0.921875 0.53125q-0.5 0.203125 -1.015625 0.203125q-0.421875 0 -0.75 -0.125q-0.328125 -0.125 -0.5625 -0.34375q-0.234375 -0.234375 -0.359375 -0.53125q-0.125 -0.296875 -0.125 -0.640625zm1.546875 -0.125q0 0.265625 0.203125 0.390625q0.203125 0.125 0.5625 0.125q0.359375 0 0.671875 -0.140625q0.328125 -0.15625 0.609375 -0.375l0 -0.90625q-0.609375 0.03125 -1.0 0.109375q-0.390625 0.078125 -0.625 0.203125q-0.234375 0.109375 -0.328125 0.265625q-0.09375 0.15625 -0.09375 0.328125zm6.081299 -2.546875l-1.375 0l0 -1.203125l1.453125 -0.0625l0.21875 -1.453125l1.328125 0l0 1.453125l2.3125 0l0 1.265625l-2.3125 0l0 1.90625q0 0.625 0.265625 0.890625q0.28125 0.25 0.875 0.25q0.328125 0 0.578125 -0.046875q0.265625 -0.0625 0.515625 -0.140625l0.28125 1.15625q-0.359375 0.109375 -0.8125 0.203125q-0.4375 0.09375 -0.96875 0.09375q-0.640625 0 -1.09375 -0.171875q-0.453125 -0.171875 -0.734375 -0.484375q-0.28125 -0.3125 -0.40625 -0.75q-0.125 -0.453125 -0.125 -0.984375l0 -1.921875zm5.096924 1.453125q0 -0.671875 0.234375 -1.1875q0.234375 -0.53125 0.625 -0.890625q0.40625 -0.375 0.90625 -0.578125q0.515625 -0.203125 1.0625 -0.203125q0.625 0 1.109375 0.203125q0.484375 0.203125 0.796875 0.5625q0.328125 0.34375 0.484375 0.828125q0.171875 0.46875 0.171875 1.03125q0 0.21875 -0.015625 0.421875q-0.015625 0.1875 -0.046875 0.296875l-3.671875 0q0.09375 0.609375 0.53125 0.890625q0.453125 0.265625 1.046875 0.265625q0.375 0 0.703125 -0.09375q0.34375 -0.09375 0.71875 -0.28125l0.515625 0.96875q-0.453125 0.296875 -1.03125 0.46875q-0.5625 0.15625 -1.125 0.15625q-0.640625 0 -1.1875 -0.1875q-0.546875 -0.1875 -0.953125 -0.546875q-0.40625 -0.375 -0.640625 -0.90625q-0.234375 -0.53125 -0.234375 -1.21875zm3.9375 -0.59375q0 -0.453125 -0.265625 -0.734375q-0.25 -0.296875 -0.8125 -0.296875q-0.4375 0 -0.78125 0.265625q-0.328125 0.25 -0.4375 0.765625l2.296875 0z" fill-rule="nonzero"></path><path fill="#000000" fill-opacity="0.0" d="m737.0912 82.052025l29.795288 0l0 25.511818l-29.795288 0z" fill-rule="evenodd"></path><path fill="#000000" d="m746.43494 99.588905l0.953125 -0.15625q0.078125 0.578125 0.4375 0.890625q0.375 0.296875 1.03125 0.296875q0.671875 0 0.984375 -0.265625q0.328125 -0.265625 0.328125 -0.640625q0 -0.328125 -0.28125 -0.515625q-0.203125 -0.125 -0.984375 -0.328125q-1.0625 -0.265625 -1.484375 -0.453125q-0.40625 -0.203125 -0.625 -0.546875q-0.203125 -0.34375 -0.203125 -0.765625q0 -0.390625 0.171875 -0.703125q0.171875 -0.328125 0.484375 -0.546875q0.21875 -0.171875 0.609375 -0.28125q0.390625 -0.109375 0.828125 -0.109375q0.671875 0 1.171875 0.1875q0.515625 0.1875 0.75 0.53125q0.25 0.328125 0.34375 0.875l-0.9375 0.125q-0.078125 -0.4375 -0.390625 -0.671875q-0.296875 -0.25 -0.859375 -0.25q-0.671875 0 -0.953125 0.21875q-0.28125 0.21875 -0.28125 0.515625q0 0.1875 0.109375 0.328125q0.125 0.15625 0.375 0.265625q0.140625 0.046875 0.859375 0.25q1.015625 0.265625 1.421875 0.4375q0.40625 0.171875 0.640625 0.515625q0.234375 0.328125 0.234375 0.828125q0 0.484375 -0.28125 0.90625q-0.28125 0.421875 -0.8125 0.65625q-0.53125 0.234375 -1.203125 0.234375q-1.109375 0 -1.703125 -0.453125q-0.578125 -0.46875 -0.734375 -1.375z" fill-rule="nonzero"></path><path fill="#000000" fill-opacity="0.0" d="m737.0912 24.40111l29.795288 0l0 25.511812l-29.795288 0z" fill-rule="evenodd"></path><path fill="#000000" d="m747.70056 43.64111l-0.890625 0l0 -7.875l0.96875 0l0 2.8125q0.609375 -0.765625 1.5625 -0.765625q0.53125 0 1.0 0.21875q0.46875 0.203125 0.765625 0.59375q0.3125 0.375 0.484375 0.921875q0.171875 0.53125 0.171875 1.15625q0 1.46875 -0.734375 2.265625q-0.71875 0.796875 -1.734375 0.796875q-1.015625 0 -1.59375 -0.84375l0 0.71875zm0 -2.890625q0 1.015625 0.28125 1.484375q0.453125 0.734375 1.234375 0.734375q0.625 0 1.078125 -0.546875q0.46875 -0.546875 0.46875 -1.640625q0 -1.109375 -0.4375 -1.640625q-0.4375 -0.53125 -1.078125 -0.53125q-0.625 0 -1.09375 0.546875q-0.453125 0.546875 -0.453125 1.59375z" fill-rule="nonzero"></path><path fill="#000000" fill-opacity="0.0" d="m858.2619 52.690617l29.795227 0l0 25.511814l-29.795227 0z" fill-rule="evenodd"></path><path fill="#000000" d="m870.10565 71.07124l0.125 0.84375q-0.40625 0.09375 -0.71875 0.09375q-0.53125 0 -0.828125 -0.171875q-0.28125 -0.171875 -0.40625 -0.4375q-0.109375 -0.265625 -0.109375 -1.140625l0 -3.28125l-0.71875 0l0 -0.75l0.71875 0l0 -1.40625l0.953125 -0.59375l0 2.0l0.984375 0l0 0.75l-0.984375 0l0 3.34375q0 0.40625 0.046875 0.53125q0.0625 0.109375 0.171875 0.1875q0.125 0.0625 0.328125 0.0625q0.171875 0 0.4375 -0.03125z" fill-rule="nonzero"></path><path fill="#000000" fill-opacity="0.0" d="m856.7454 83.83659l55.811035 0" fill-rule="evenodd"></path><path stroke="#595959" stroke-width="1.0" stroke-linejoin="round" stroke-linecap="butt" d="m856.7454 83.836586l49.811035 0" fill-rule="evenodd"></path><path fill="#595959" stroke="#595959" stroke-width="1.0" stroke-linecap="butt" d="m906.55646 85.48832l4.538086 -1.6517334l-4.538086 -1.6517334z" fill-rule="evenodd"></path><path fill="#000000" fill-opacity="0.0" d="m725.5839 50.861443l59.4646 0.28346634" fill-rule="evenodd"></path><path stroke="#595959" stroke-width="1.0" stroke-linejoin="round" stroke-linecap="butt" d="m725.5839 50.861443l53.46466 0.25486374" fill-rule="evenodd"></path><path fill="#595959" stroke="#595959" stroke-width="1.0" stroke-linecap="butt" d="m779.04065 52.768017l4.5459595 -1.6300812l-4.5302124 -1.6733437z" fill-rule="evenodd"></path><path fill="#000000" fill-opacity="0.0" d="m728.1981 108.954575l56.850403 -0.28347015" fill-rule="evenodd"></path><path stroke="#595959" stroke-width="1.0" stroke-linejoin="round" stroke-linecap="butt" d="m728.19806 108.95457l50.850525 -0.25354004" fill-rule="evenodd"></path><path fill="#595959" stroke="#595959" stroke-width="1.0" stroke-linecap="butt" d="m779.05676 110.35274l4.529846 -1.6743393l-4.5463257 -1.6290894z" fill-rule="evenodd"></path><path fill="#000000" fill-opacity="0.0" d="m889.4969 489.57657l57.606323 0l0 41.322845l-57.606323 0z" fill-rule="evenodd"></path><path fill="#595959" d="m923.82513 512.58484l1.140625 -0.15625q0.203125 0.96875 0.671875 1.40625q0.46875 0.421875 1.15625 0.421875q0.796875 0 1.34375 -0.546875q0.5625 -0.5625 0.5625 -1.390625q0 -0.7968445 -0.515625 -1.2968445q-0.5 -0.515625 -1.296875 -0.515625q-0.328125 0 -0.8125 0.125l0.125 -1.0q0.125 0.015625 0.1875 0.015625q0.734375 0 1.3125 -0.375q0.59375 -0.390625 0.59375 -1.1875q0 -0.625 -0.4375 -1.03125q-0.421875 -0.421875 -1.09375 -0.421875q-0.671875 0 -1.109375 0.421875q-0.4375 0.421875 -0.578125 1.25l-1.140625 -0.203125q0.21875 -1.140625 0.953125 -1.765625q0.75 -0.640625 1.84375 -0.640625q0.765625 0 1.40625 0.328125q0.640625 0.328125 0.984375 0.890625q0.34375 0.5625 0.34375 1.203125q0 0.59375 -0.328125 1.09375q-0.328125 0.5 -0.953125 0.78125q0.8125 0.203125 1.265625 0.796875q0.46875 0.59375 0.46875 1.4999695q0 1.21875 -0.890625 2.078125q-0.890625 0.84375 -2.25 0.84375q-1.21875 0 -2.03125 -0.734375q-0.8125 -0.734375 -0.921875 -1.890625zm7.4749756 -5.6405945l0 -1.09375l6.03125 0l0 0.890625q-0.890625 0.953125 -1.765625 2.515625q-0.875 1.5625 -1.34375 3.2187195q-0.34375 1.171875 -0.4375 2.5625l-1.171875 0q0.015625 -1.09375 0.421875 -2.640625q0.421875 -1.5624695 1.1875 -2.9999695q0.765625 -1.453125 1.640625 -2.453125l-4.5625 0z" fill-rule="nonzero"></path></g></svg>

