<?xml version="1.0" standalone="yes"?>

<svg version="1.1" viewBox="0.0 0.0 960.0 540.0" fill="none" stroke="none" stroke-linecap="square" stroke-miterlimit="10" xmlns="http://www.w3.org/2000/svg" xmlns:xlink="http://www.w3.org/1999/xlink"><clipPath id="g2549d28fde_0_52.0"><path d="m0 0l960.0 0l0 540.0l-960.0 0l0 -540.0z" clip-rule="nonzero"></path></clipPath><g clip-path="url(#g2549d28fde_0_52.0)"><path fill="#ffffff" d="m0 0l960.0 0l0 540.0l-960.0 0z" fill-rule="evenodd"></path><path fill="#cfe2f3" d="m195.50754 57.771282l167.3071 0l0 73.00787l-167.3071 0z" fill-rule="evenodd"></path><path stroke="#595959" stroke-width="1.0" stroke-linejoin="round" stroke-linecap="butt" d="m195.50754 57.771282l167.3071 0l0 73.00787l-167.3071 0z" fill-rule="evenodd"></path><path fill="#000000" d="m275.51733 88.916466l2.34375 0l0 2.75l-0.125 1.53125q0.234375 -0.234375 0.515625 -0.4375q0.28125 -0.21875 0.609375 -0.390625q0.328125 -0.171875 0.71875 -0.265625q0.390625 -0.09375 0.84375 -0.09375q1.34375 0 1.953125 0.859375q0.625 0.859375 0.625 2.375l0 4.890625l-2.359375 0l0 -4.59375q0 -0.796875 -0.25 -1.15625q-0.25 -0.375 -0.90625 -0.375q-0.484375 0 -0.84375 0.203125q-0.359375 0.203125 -0.78125 0.625l0 5.296875l-2.34375 0l0 -11.21875z" fill-rule="nonzero"></path><path fill="#000000" fill-opacity="0.0" d="m96.42092 93.96026l99.08662 0.31495667" fill-rule="evenodd"></path><path stroke="#595959" stroke-width="1.0" stroke-linejoin="round" stroke-linecap="butt" d="m96.42092 93.96026l93.08665 0.2958908" fill-rule="evenodd"></path><path fill="#595959" stroke="#595959" stroke-width="1.0" stroke-linecap="butt" d="m189.50232 95.907875l4.543335 -1.6372986l-4.5328217 -1.666153z" fill-rule="evenodd"></path><path fill="#000000" fill-opacity="0.0" d="m362.81464 94.275215l106.36218 0" fill-rule="evenodd"></path><path stroke="#595959" stroke-width="1.0" stroke-linejoin="round" stroke-linecap="butt" d="m362.81464 94.27522l100.36221 0" fill-rule="evenodd"></path><path fill="#595959" stroke="#595959" stroke-width="1.0" stroke-linecap="butt" d="m463.17685 95.926956l4.538086 -1.6517334l-4.538086 -1.6517334z" fill-rule="evenodd"></path><path fill="#000000" fill-opacity="0.0" d="m118.26213 62.527187l29.51181 0l0 31.49606l-29.51181 0z" fill-rule="evenodd"></path><path fill="#000000" d="m134.94963 88.22843q-0.9375 0.796875 -1.796875 1.125q-0.859375 0.3125 -1.84375 0.3125q-1.609375 0 -2.484375 -0.78125q-0.875 -0.796875 -0.875 -2.03125q0 -0.734375 0.328125 -1.328125q0.328125 -0.59375 0.859375 -0.953125q0.53125 -0.359375 1.203125 -0.546875q0.5 -0.140625 1.484375 -0.25q2.03125 -0.25 2.984375 -0.578125q0 -0.34375 0 -0.4375q0 -1.015625 -0.46875 -1.4375q-0.640625 -0.5625 -1.90625 -0.5625q-1.171875 0 -1.734375 0.40625q-0.5625 0.40625 -0.828125 1.46875l-1.640625 -0.234375q0.234375 -1.046875 0.734375 -1.6875q0.515625 -0.640625 1.46875 -0.984375q0.96875 -0.359375 2.25 -0.359375q1.265625 0 2.046875 0.296875q0.78125 0.296875 1.15625 0.75q0.375 0.453125 0.515625 1.140625q0.09375 0.421875 0.09375 1.53125l0 2.234375q0 2.328125 0.09375 2.953125q0.109375 0.609375 0.4375 1.171875l-1.75 0q-0.265625 -0.515625 -0.328125 -1.21875zm-0.140625 -3.71875q-0.90625 0.359375 -2.734375 0.625q-1.03125 0.140625 -1.453125 0.328125q-0.421875 0.1875 -0.65625 0.546875q-0.234375 0.359375 -0.234375 0.796875q0 0.671875 0.5 1.125q0.515625 0.4375 1.484375 0.4375q0.96875 0 1.71875 -0.421875q0.75 -0.4375 1.109375 -1.15625q0.265625 -0.578125 0.265625 -1.671875l0 -0.609375z" fill-rule="nonzero"></path><path fill="#000000" fill-opacity="0.0" d="m387.0023 62.527187l29.51181 0l0 31.49606l-29.51181 0z" fill-rule="evenodd"></path><path fill="#000000" d="m398.79916 89.44718l-1.546875 0l0 -13.59375l1.65625 0l0 4.84375q1.0625 -1.328125 2.703125 -1.328125q0.90625 0 1.71875 0.375q0.8125 0.359375 1.328125 1.03125q0.53125 0.65625 0.828125 1.59375q0.296875 0.9375 0.296875 2.0q0 2.53125 -1.25 3.921875q-1.25 1.375 -3.0 1.375q-1.75 0 -2.734375 -1.453125l0 1.234375zm-0.015625 -5.0q0 1.765625 0.46875 2.5625q0.796875 1.28125 2.140625 1.28125q1.09375 0 1.890625 -0.9375q0.796875 -0.953125 0.796875 -2.84375q0 -1.921875 -0.765625 -2.84375q-0.765625 -0.921875 -1.84375 -0.921875q-1.09375 0 -1.890625 0.953125q-0.796875 0.953125 -0.796875 2.75z" fill-rule="nonzero"></path><path fill="#d9d2e9" d="m609.36505 57.4573l167.30713 0l0 73.007866l-167.30713 0z" fill-rule="evenodd"></path><path stroke="#595959" stroke-width="1.0" stroke-linejoin="round" stroke-linecap="butt" d="m609.36505 57.4573l167.30713 0l0 73.007866l-167.30713 0z" fill-rule="evenodd"></path><path fill="#000000" d="m689.48425 91.883736l5.53125 0l0 7.453125q0 0.71875 -0.171875 1.375q-0.15625 0.65625 -0.59375 1.15625q-0.421875 0.5 -1.140625 0.796875q-0.703125 0.296875 -1.765625 0.296875q-0.734375 0 -1.34375 -0.15625q-0.59375 -0.15625 -1.109375 -0.390625l0.6875 -1.6875q0.484375 0.234375 0.875 0.3125q0.390625 0.078125 0.734375 0.078125q0.859375 0 1.171875 -0.40625q0.3125 -0.40625 0.3125 -1.28125l0 -5.703125l-3.1875 0l0 -1.84375zm4.25 -1.171875q-0.6875 0 -1.125 -0.375q-0.4375 -0.390625 -0.4375 -1.046875q0 -0.65625 0.4375 -1.0625q0.4375 -0.40625 1.125 -0.40625q0.6875 0 1.125 0.40625q0.453125 0.40625 0.453125 1.0625q0 0.65625 -0.453125 1.046875q-0.4375 0.375 -1.125 0.375z" fill-rule="nonzero"></path><path fill="#000000" fill-opacity="0.0" d="m510.27844 93.64627l99.08661 0.3149643" fill-rule="evenodd"></path><path stroke="#595959" stroke-width="1.0" stroke-linejoin="round" stroke-linecap="butt" d="m510.27847 93.64627l93.08664 0.2958908" fill-rule="evenodd"></path><path fill="#595959" stroke="#595959" stroke-width="1.0" stroke-linecap="butt" d="m603.35986 95.59389l4.543335 -1.6372986l-4.532837 -1.666153z" fill-rule="evenodd"></path><path fill="#000000" fill-opacity="0.0" d="m776.6722 93.961235l106.36218 0" fill-rule="evenodd"></path><path stroke="#595959" stroke-width="1.0" stroke-linejoin="round" stroke-linecap="butt" d="m776.6722 93.961235l100.36218 0" fill-rule="evenodd"></path><path fill="#595959" stroke="#595959" stroke-width="1.0" stroke-linecap="butt" d="m877.03436 95.61297l4.538086 -1.6517334l-4.538086 -1.6517334z" fill-rule="evenodd"></path><path fill="#000000" fill-opacity="0.0" d="m550.2168 62.37068l29.51178 0l0 31.496063l-29.51178 0z" fill-rule="evenodd"></path><path fill="#000000" d="m566.9043 85.681305l1.640625 0.21875q-0.265625 1.6875 -1.375 2.65625q-1.109375 0.953125 -2.734375 0.953125q-2.015625 0 -3.25 -1.3125q-1.21875 -1.328125 -1.21875 -3.796875q0 -1.59375 0.515625 -2.78125q0.53125 -1.203125 1.609375 -1.796875q1.09375 -0.609375 2.359375 -0.609375q1.609375 0 2.625 0.8125q1.015625 0.8125 1.3125 2.3125l-1.625 0.25q-0.234375 -1.0 -0.828125 -1.5q-0.59375 -0.5 -1.421875 -0.5q-1.265625 0 -2.0625 0.90625q-0.78125 0.90625 -0.78125 2.859375q0 1.984375 0.765625 2.890625q0.765625 0.890625 1.984375 0.890625q0.984375 0 1.640625 -0.59375q0.65625 -0.609375 0.84375 -1.859375z" fill-rule="nonzero"></path><path fill="#000000" fill-opacity="0.0" d="m818.9569 62.37068l29.51184 0l0 31.496063l-29.51184 0z" fill-rule="evenodd"></path><path fill="#000000" d="m835.59753 89.29068l0 -1.25q-0.9375 1.46875 -2.75 1.46875q-1.171875 0 -2.171875 -0.640625q-0.984375 -0.65625 -1.53125 -1.8125q-0.53125 -1.171875 -0.53125 -2.6875q0 -1.46875 0.484375 -2.671875q0.5 -1.203125 1.46875 -1.84375q0.984375 -0.640625 2.203125 -0.640625q0.890625 0 1.578125 0.375q0.703125 0.375 1.140625 0.984375l0 -4.875l1.65625 0l0 13.59375l-1.546875 0zm-5.28125 -4.921875q0 1.890625 0.796875 2.828125q0.8125 0.9375 1.890625 0.9375q1.09375 0 1.859375 -0.890625q0.765625 -0.890625 0.765625 -2.734375q0 -2.015625 -0.78125 -2.953125q-0.78125 -0.953125 -1.921875 -0.953125q-1.109375 0 -1.859375 0.90625q-0.75 0.90625 -0.75 2.859375z" fill-rule="nonzero"></path><path fill="#eeeeee" d="m195.50656 201.6273l580.78735 0l0 277.6693l-580.78735 0z" fill-rule="evenodd"></path><path stroke="#595959" stroke-width="1.0" stroke-linejoin="round" stroke-linecap="butt" d="m195.50656 201.6273l580.78735 0l0 277.6693l-580.78735 0z" fill-rule="evenodd"></path><path fill="#000000" d="m207.16281 467.31284l-0.5625 2.625l-1.3125 0l2.359375 -11.0625l1.09375 0l-0.109375 1.0l0.046875 0q0.65625 -0.515625 1.4375 -0.84375q0.78125 -0.34375 1.5 -0.34375q0.78125 0 1.328125 0.28125q0.546875 0.28125 0.84375 0.796875q0.296875 0.515625 0.34375 1.25q0.0625 0.734375 -0.140625 1.640625q-0.203125 0.984375 -0.65625 1.765625q-0.453125 0.78125 -1.0625 1.328125q-0.59375 0.53125 -1.296875 0.8125q-0.703125 0.28125 -1.40625 0.28125q-0.546875 0 -1.125 -0.265625q-0.5625 -0.265625 -1.0 -0.734375l-0.28125 1.46875zm0.53125 -2.484375q0.453125 0.5 0.96875 0.71875q0.515625 0.203125 0.90625 0.203125q1.0625 0 1.90625 -0.8125q0.859375 -0.828125 1.15625 -2.28125q0.140625 -0.640625 0.125 -1.171875q0 -0.53125 -0.1875 -0.90625q-0.1875 -0.375 -0.578125 -0.578125q-0.375 -0.203125 -0.9375 -0.203125q-0.515625 0 -1.15625 0.28125q-0.640625 0.28125 -1.375 0.875l-0.828125 3.875zm8.131271 -0.1875q0.140625 -0.65625 0.5625 -1.140625q0.421875 -0.484375 1.171875 -0.84375q0.75 -0.359375 1.859375 -0.578125q1.125 -0.21875 2.65625 -0.34375q0.0625 -0.40625 0.03125 -0.75q-0.03125 -0.359375 -0.21875 -0.625q-0.1875 -0.265625 -0.546875 -0.421875q-0.34375 -0.15625 -0.90625 -0.15625q-0.765625 0 -1.546875 0.296875q-0.765625 0.296875 -1.375 0.625l-0.328125 -0.890625q0.34375 -0.203125 0.765625 -0.390625q0.4375 -0.203125 0.90625 -0.359375q0.484375 -0.171875 1.0 -0.265625q0.515625 -0.109375 1.03125 -0.109375q1.59375 0 2.1875 0.875q0.59375 0.875 0.28125 2.328125l-1.015625 4.765625l-1.0625 0l0.109375 -1.0625l-0.046875 0q-0.765625 0.515625 -1.640625 0.890625q-0.875 0.359375 -1.703125 0.359375q-0.546875 0 -1.0 -0.15625q-0.4375 -0.140625 -0.734375 -0.421875q-0.296875 -0.28125 -0.421875 -0.6875q-0.125 -0.40625 -0.015625 -0.9375zm1.3125 -0.09375q-0.078125 0.328125 0.015625 0.5625q0.09375 0.234375 0.296875 0.390625q0.203125 0.140625 0.5 0.21875q0.296875 0.078125 0.625 0.078125q0.671875 0 1.375 -0.296875q0.71875 -0.296875 1.5 -0.859375l0.4375 -2.046875q-1.25 0.09375 -2.140625 0.28125q-0.875 0.171875 -1.4375 0.421875q-0.546875 0.234375 -0.828125 0.546875q-0.265625 0.3125 -0.34375 0.703125zm10.568771 -5.671875l1.078125 0l-0.28125 1.84375l0.046875 0q0.8125 -0.9375 1.8125 -1.484375q1.0 -0.546875 2.09375 -0.546875q0.421875 0 0.765625 0.078125q0.359375 0.0625 0.703125 0.25l-0.546875 1.125q-0.375 -0.140625 -0.65625 -0.203125q-0.265625 -0.0625 -0.734375 -0.0625q-0.875 0 -1.78125 0.5q-0.90625 0.5 -1.890625 1.71875l-0.96875 4.5625l-1.296875 0l1.65625 -7.78125z" fill-rule="nonzero"></path><path fill="#cfe2f3" d="m396.664 244.53879l167.30707 0l0 73.00787l-167.30707 0z" fill-rule="evenodd"></path><path stroke="#595959" stroke-width="1.0" stroke-linejoin="round" stroke-linecap="butt" d="m396.664 244.53879l167.30707 0l0 73.00787l-167.30707 0z" fill-rule="evenodd"></path><path fill="#000000" d="m476.6738 275.68396l2.34375 0l0 2.75l-0.125 1.53125q0.234375 -0.234375 0.515625 -0.4375q0.28125 -0.21875 0.609375 -0.390625q0.328125 -0.171875 0.71875 -0.265625q0.390625 -0.09375 0.84375 -0.09375q1.34375 0 1.953125 0.859375q0.625 0.859375 0.625 2.375l0 4.890625l-2.359375 0l0 -4.59375q0 -0.796875 -0.25 -1.15625q-0.25 -0.375 -0.90625 -0.375q-0.484375 0 -0.84375 0.203125q-0.359375 0.203125 -0.78125 0.625l0 5.296875l-2.34375 0l0 -11.21875z" fill-rule="nonzero"></path><path fill="#000000" fill-opacity="0.0" d="m110.39547 280.34595l83.71653 0" fill-rule="evenodd"></path><path stroke="#595959" stroke-width="1.0" stroke-linejoin="round" stroke-linecap="butt" d="m110.39548 280.34595l77.71652 0" fill-rule="evenodd"></path><path fill="#595959" stroke="#595959" stroke-width="1.0" stroke-linecap="butt" d="m188.112 281.99768l4.538101 -1.6517334l-4.538101 -1.6517334z" fill-rule="evenodd"></path><path fill="#000000" fill-opacity="0.0" d="m776.29395 281.04364l84.47247 0" fill-rule="evenodd"></path><path stroke="#595959" stroke-width="1.0" stroke-linejoin="round" stroke-linecap="butt" d="m776.29395 281.04364l78.47247 0" fill-rule="evenodd"></path><path fill="#595959" stroke="#595959" stroke-width="1.0" stroke-linecap="butt" d="m854.7664 282.69537l4.538086 -1.6517334l-4.538086 -1.6517334z" fill-rule="evenodd"></path><path fill="#000000" fill-opacity="0.0" d="m563.97107 281.04272l212.53546 0.1574707" fill-rule="evenodd"></path><path stroke="#595959" stroke-width="1.0" stroke-linejoin="round" stroke-linecap="butt" d="m563.97107 281.04272l206.53552 0.15301514" fill-rule="evenodd"></path><path fill="#595959" stroke="#595959" stroke-width="1.0" stroke-linecap="butt" d="m770.5053 282.84747l4.5393677 -1.6483765l-4.536865 -1.6550903z" fill-rule="evenodd"></path><path fill="#000000" fill-opacity="0.0" d="m189.07346 279.81436l207.59055 1.228363" fill-rule="evenodd"></path><path stroke="#595959" stroke-width="1.0" stroke-linejoin="round" stroke-linecap="butt" d="m189.07346 279.81436l201.59067 1.1928711" fill-rule="evenodd"></path><path fill="#595959" stroke="#595959" stroke-width="1.0" stroke-linecap="butt" d="m390.65433 282.6589l4.5477905 -1.6248474l-4.5282288 -1.6785583z" fill-rule="evenodd"></path><path fill="#000000" fill-opacity="0.0" d="m110.39547 389.741l83.71653 0" fill-rule="evenodd"></path><path stroke="#595959" stroke-width="1.0" stroke-linejoin="round" stroke-linecap="butt" d="m110.39548 389.74103l77.71652 0" fill-rule="evenodd"></path><path fill="#595959" stroke="#595959" stroke-width="1.0" stroke-linecap="butt" d="m188.112 391.39276l4.538101 -1.6517334l-4.538101 -1.6517334z" fill-rule="evenodd"></path><path fill="#000000" fill-opacity="0.0" d="m776.6711 389.741l83.71649 0" fill-rule="evenodd"></path><path stroke="#595959" stroke-width="1.0" stroke-linejoin="round" stroke-linecap="butt" d="m776.6711 389.74103l77.71655 0" fill-rule="evenodd"></path><path fill="#595959" stroke="#595959" stroke-width="1.0" stroke-linecap="butt" d="m854.38763 391.39276l4.538086 -1.6517334l-4.538086 -1.6517334z" fill-rule="evenodd"></path><path fill="#000000" fill-opacity="0.0" d="m130.86745 249.54764l29.511826 0l0 31.496063l-29.511826 0z" fill-rule="evenodd"></path><path fill="#000000" d="m147.55495 275.24887q-0.9375 0.796875 -1.796875 1.125q-0.859375 0.3125 -1.84375 0.3125q-1.609375 0 -2.484375 -0.78125q-0.875 -0.796875 -0.875 -2.03125q0 -0.734375 0.328125 -1.328125q0.328125 -0.59375 0.859375 -0.953125q0.53125 -0.359375 1.203125 -0.546875q0.5 -0.140625 1.484375 -0.25q2.03125 -0.25 2.984375 -0.578125q0 -0.34375 0 -0.4375q0 -1.015625 -0.46875 -1.4375q-0.640625 -0.5625 -1.90625 -0.5625q-1.171875 0 -1.734375 0.40625q-0.5625 0.40625 -0.828125 1.46875l-1.640625 -0.234375q0.234375 -1.046875 0.734375 -1.6875q0.515625 -0.640625 1.46875 -0.984375q0.96875 -0.359375 2.25 -0.359375q1.265625 0 2.046875 0.296875q0.78125 0.296875 1.15625 0.75q0.375 0.453125 0.515625 1.140625q0.09375 0.421875 0.09375 1.53125l0 2.234375q0 2.328125 0.09375 2.953125q0.109375 0.609375 0.4375 1.171875l-1.75 0q-0.265625 -0.515625 -0.328125 -1.21875zm-0.140625 -3.71875q-0.90625 0.359375 -2.734375 0.625q-1.03125 0.140625 -1.453125 0.328125q-0.421875 0.1875 -0.65625 0.546875q-0.234375 0.359375 -0.234375 0.796875q0 0.671875 0.5 1.125q0.515625 0.4375 1.484375 0.4375q0.96875 0 1.71875 -0.421875q0.75 -0.4375 1.109375 -1.15625q0.265625 -0.578125 0.265625 -1.671875l0 -0.609375z" fill-rule="nonzero"></path><path fill="#000000" fill-opacity="0.0" d="m800.2533 249.54764l29.51178 0l0 31.496063l-29.51178 0z" fill-rule="evenodd"></path><path fill="#000000" d="m812.0502 276.46762l-1.546875 0l0 -13.59375l1.65625 0l0 4.84375q1.0625 -1.328125 2.703125 -1.328125q0.90625 0 1.71875 0.375q0.8125 0.359375 1.328125 1.03125q0.53125 0.65625 0.828125 1.59375q0.296875 0.9375 0.296875 2.0q0 2.53125 -1.25 3.921875q-1.25 1.375 -3.0 1.375q-1.75 0 -2.734375 -1.453125l0 1.234375zm-0.015625 -5.0q0 1.765625 0.46875 2.5625q0.796875 1.28125 2.140625 1.28125q1.09375 0 1.890625 -0.9375q0.796875 -0.953125 0.796875 -2.84375q0 -1.921875 -0.765625 -2.84375q-0.765625 -0.921875 -1.84375 -0.921875q-1.09375 0 -1.890625 0.953125q-0.796875 0.953125 -0.796875 2.75z" fill-rule="nonzero"></path><path fill="#000000" fill-opacity="0.0" d="m130.86745 358.45712l29.511826 0l0 31.496063l-29.511826 0z" fill-rule="evenodd"></path><path fill="#000000" d="m147.55495 381.76773l1.640625 0.21875q-0.265625 1.6875 -1.375 2.65625q-1.109375 0.953125 -2.734375 0.953125q-2.015625 0 -3.25 -1.3125q-1.21875 -1.328125 -1.21875 -3.796875q0 -1.59375 0.515625 -2.78125q0.53125 -1.203125 1.609375 -1.796875q1.09375 -0.609375 2.359375 -0.609375q1.609375 0 2.625 0.8125q1.015625 0.8125 1.3125 2.3125l-1.625 0.25q-0.234375 -1.0 -0.828125 -1.5q-0.59375 -0.5 -1.421875 -0.5q-1.265625 0 -2.0625 0.90625q-0.78125 0.90625 -0.78125 2.859375q0 1.984375 0.765625 2.890625q0.765625 0.890625 1.984375 0.890625q0.984375 0 1.640625 -0.59375q0.65625 -0.609375 0.84375 -1.859375z" fill-rule="nonzero"></path><path fill="#000000" fill-opacity="0.0" d="m803.77295 358.45712l29.51184 0l0 31.496063l-29.51184 0z" fill-rule="evenodd"></path><path fill="#000000" d="m820.4136 385.3771l0 -1.25q-0.9375 1.46875 -2.75 1.46875q-1.171875 0 -2.171875 -0.640625q-0.984375 -0.65625 -1.53125 -1.8125q-0.53125 -1.171875 -0.53125 -2.6875q0 -1.46875 0.484375 -2.671875q0.5 -1.203125 1.46875 -1.84375q0.984375 -0.640625 2.203125 -0.640625q0.890625 0 1.578125 0.375q0.703125 0.375 1.140625 0.984375l0 -4.875l1.65625 0l0 13.59375l-1.546875 0zm-5.28125 -4.921875q0 1.890625 0.796875 2.828125q0.8125 0.9375 1.890625 0.9375q1.09375 0 1.859375 -0.890625q0.765625 -0.890625 0.765625 -2.734375q0 -2.015625 -0.78125 -2.953125q-0.78125 -0.953125 -1.921875 -0.953125q-1.109375 0 -1.859375 0.90625q-0.75 0.90625 -0.75 2.859375z" fill-rule="nonzero"></path><path fill="#000000" fill-opacity="0.0" d="m278.11154 249.54764l29.51181 0l0 31.496063l-29.51181 0z" fill-rule="evenodd"></path><path fill="#000000" d="m294.79904 275.24887q-0.9375 0.796875 -1.796875 1.125q-0.859375 0.3125 -1.84375 0.3125q-1.609375 0 -2.484375 -0.78125q-0.875 -0.796875 -0.875 -2.03125q0 -0.734375 0.328125 -1.328125q0.328125 -0.59375 0.859375 -0.953125q0.53125 -0.359375 1.203125 -0.546875q0.5 -0.140625 1.484375 -0.25q2.03125 -0.25 2.984375 -0.578125q0 -0.34375 0 -0.4375q0 -1.015625 -0.46875 -1.4375q-0.640625 -0.5625 -1.90625 -0.5625q-1.171875 0 -1.734375 0.40625q-0.5625 0.40625 -0.828125 1.46875l-1.640625 -0.234375q0.234375 -1.046875 0.734375 -1.6875q0.515625 -0.640625 1.46875 -0.984375q0.96875 -0.359375 2.25 -0.359375q1.265625 0 2.046875 0.296875q0.78125 0.296875 1.15625 0.75q0.375 0.453125 0.515625 1.140625q0.09375 0.421875 0.09375 1.53125l0 2.234375q0 2.328125 0.09375 2.953125q0.109375 0.609375 0.4375 1.171875l-1.75 0q-0.265625 -0.515625 -0.328125 -1.21875zm-0.140625 -3.71875q-0.90625 0.359375 -2.734375 0.625q-1.03125 0.140625 -1.453125 0.328125q-0.421875 0.1875 -0.65625 0.546875q-0.234375 0.359375 -0.234375 0.796875q0 0.671875 0.5 1.125q0.515625 0.4375 1.484375 0.4375q0.96875 0 1.71875 -0.421875q0.75 -0.4375 1.109375 -1.15625q0.265625 -0.578125 0.265625 -1.671875l0 -0.609375z" fill-rule="nonzero"></path><path fill="#000000" fill-opacity="0.0" d="m655.3753 249.54764l29.51184 0l0 31.496063l-29.51184 0z" fill-rule="evenodd"></path><path fill="#000000" d="m667.1722 276.46762l-1.546875 0l0 -13.59375l1.65625 0l0 4.84375q1.0625 -1.328125 2.703125 -1.328125q0.90625 0 1.71875 0.375q0.8125 0.359375 1.328125 1.03125q0.53125 0.65625 0.828125 1.59375q0.296875 0.9375 0.296875 2.0q0 2.53125 -1.25 3.921875q-1.25 1.375 -3.0 1.375q-1.75 0 -2.734375 -1.453125l0 1.234375zm-0.015625 -5.0q0 1.765625 0.46875 2.5625q0.796875 1.28125 2.140625 1.28125q1.09375 0 1.890625 -0.9375q0.796875 -0.953125 0.796875 -2.84375q0 -1.921875 -0.765625 -2.84375q-0.765625 -0.921875 -1.84375 -0.921875q-1.09375 0 -1.890625 0.953125q-0.796875 0.953125 -0.796875 2.75z" fill-rule="nonzero"></path><path fill="#d9d2e9" d="m396.29193 354.12018l167.30707 0l0 73.00787l-167.30707 0z" fill-rule="evenodd"></path><path stroke="#595959" stroke-width="1.0" stroke-linejoin="round" stroke-linecap="butt" d="m396.29193 354.12018l167.30707 0l0 73.00787l-167.30707 0z" fill-rule="evenodd"></path><path fill="#000000" d="m476.41107 388.54663l5.53125 0l0 7.453125q0 0.71875 -0.171875 1.375q-0.15625 0.65625 -0.59375 1.15625q-0.421875 0.5 -1.140625 0.796875q-0.703125 0.296875 -1.765625 0.296875q-0.734375 0 -1.34375 -0.15625q-0.59375 -0.15625 -1.109375 -0.390625l0.6875 -1.6875q0.484375 0.234375 0.875 0.3125q0.390625 0.078125 0.734375 0.078125q0.859375 0 1.171875 -0.40625q0.3125 -0.40625 0.3125 -1.28125l0 -5.703125l-3.1875 0l0 -1.84375zm4.25 -1.171875q-0.6875 0 -1.125 -0.375q-0.4375 -0.390625 -0.4375 -1.046875q0 -0.65625 0.4375 -1.0625q0.4375 -0.40625 1.125 -0.40625q0.6875 0 1.125 0.40625q0.453125 0.40625 0.453125 1.0625q0 0.65625 -0.453125 1.046875q-0.4375 0.375 -1.125 0.375z" fill-rule="nonzero"></path><path fill="#000000" fill-opacity="0.0" d="m563.599 390.6241l212.53546 0.1574707" fill-rule="evenodd"></path><path stroke="#595959" stroke-width="1.0" stroke-linejoin="round" stroke-linecap="butt" d="m563.599 390.62408l206.53546 0.15307617" fill-rule="evenodd"></path><path fill="#595959" stroke="#595959" stroke-width="1.0" stroke-linecap="butt" d="m770.13324 392.42886l4.5393066 -1.6483765l-4.536865 -1.6550903z" fill-rule="evenodd"></path><path fill="#000000" fill-opacity="0.0" d="m188.70137 389.39578l207.59056 1.2283325" fill-rule="evenodd"></path><path stroke="#595959" stroke-width="1.0" stroke-linejoin="round" stroke-linecap="butt" d="m188.70135 389.39575l201.59067 1.1928406" fill-rule="evenodd"></path><path fill="#595959" stroke="#595959" stroke-width="1.0" stroke-linecap="butt" d="m390.28226 392.2403l4.5477905 -1.6248474l-4.5282593 -1.6785583z" fill-rule="evenodd"></path><path fill="#000000" fill-opacity="0.0" d="m277.73944 359.12903l29.51181 0l0 31.496063l-29.51181 0z" fill-rule="evenodd"></path><path fill="#000000" d="m294.42694 382.43967l1.640625 0.21875q-0.265625 1.6875 -1.375 2.65625q-1.109375 0.953125 -2.734375 0.953125q-2.015625 0 -3.25 -1.3125q-1.21875 -1.328125 -1.21875 -3.796875q0 -1.59375 0.515625 -2.78125q0.53125 -1.203125 1.609375 -1.796875q1.09375 -0.609375 2.359375 -0.609375q1.609375 0 2.625 0.8125q1.015625 0.8125 1.3125 2.3125l-1.625 0.25q-0.234375 -1.0 -0.828125 -1.5q-0.59375 -0.5 -1.421875 -0.5q-1.265625 0 -2.0625 0.90625q-0.78125 0.90625 -0.78125 2.859375q0 1.984375 0.765625 2.890625q0.765625 0.890625 1.984375 0.890625q0.984375 0 1.640625 -0.59375q0.65625 -0.609375 0.84375 -1.859375z" fill-rule="nonzero"></path><path fill="#000000" fill-opacity="0.0" d="m655.00323 359.12903l29.51178 0l0 31.496063l-29.51178 0z" fill-rule="evenodd"></path><path fill="#000000" d="m671.64386 386.04904l0 -1.25q-0.9375 1.46875 -2.75 1.46875q-1.171875 0 -2.171875 -0.640625q-0.984375 -0.65625 -1.53125 -1.8125q-0.53125 -1.171875 -0.53125 -2.6875q0 -1.46875 0.484375 -2.671875q0.5 -1.203125 1.46875 -1.84375q0.984375 -0.640625 2.203125 -0.640625q0.890625 0 1.578125 0.375q0.703125 0.375 1.140625 0.984375l0 -4.875l1.65625 0l0 13.59375l-1.546875 0zm-5.28125 -4.921875q0 1.890625 0.796875 2.828125q0.8125 0.9375 1.890625 0.9375q1.09375 0 1.859375 -0.890625q0.765625 -0.890625 0.765625 -2.734375q0 -2.015625 -0.78125 -2.953125q-0.78125 -0.953125 -1.921875 -0.953125q-1.109375 0 -1.859375 0.90625q-0.75 0.90625 -0.75 2.859375z" fill-rule="nonzero"></path><path fill="#000000" fill-opacity="0.0" d="m0 161.86029l960.69293 1.3858185" fill-rule="evenodd"></path><path stroke="#595959" stroke-width="1.0" stroke-linejoin="round" stroke-linecap="butt" stroke-dasharray="1.0,3.0" d="m0 161.86029l960.69293 1.3858185" fill-rule="evenodd"></path></g></svg>

