<?xml version="1.0" standalone="yes"?>

<svg version="1.1" viewBox="0.0 0.0 960.0 540.0" fill="none" stroke="none" stroke-linecap="square" stroke-miterlimit="10" xmlns="http://www.w3.org/2000/svg" xmlns:xlink="http://www.w3.org/1999/xlink"><clipPath id="g2549d28fde_0_344.0"><path d="m0 0l960.0 0l0 540.0l-960.0 0l0 -540.0z" clip-rule="nonzero"></path></clipPath><g clip-path="url(#g2549d28fde_0_344.0)"><path fill="#ffffff" d="m0 0l960.0 0l0 540.0l-960.0 0z" fill-rule="evenodd"></path><path fill="#eeeeee" d="m100.83727 172.32545l767.77954 0l0 260.9134l-767.77954 0z" fill-rule="evenodd"></path><path stroke="#595959" stroke-width="1.0" stroke-linejoin="round" stroke-linecap="butt" d="m100.83727 172.32545l767.77954 0l0 260.9134l-767.77954 0z" fill-rule="evenodd"></path><path fill="#000000" d="m111.05602 418.8226q0.140625 -0.65625 0.453125 -1.171875q0.3125 -0.53125 0.71875 -0.890625q0.421875 -0.359375 0.90625 -0.5625q0.5 -0.203125 0.96875 -0.203125q0.5 0 0.828125 0.1875q0.328125 0.1875 0.625 0.515625l0.1875 -1.0l0.421875 -2.046875l0.90625 0l-1.65625 7.828125l-0.75 0l0.078125 -0.703125l-0.03125 0q-0.40625 0.34375 -0.921875 0.59375q-0.515625 0.234375 -1.0 0.234375q-0.53125 0 -0.921875 -0.171875q-0.375 -0.1875 -0.609375 -0.546875q-0.234375 -0.359375 -0.296875 -0.875q-0.046875 -0.515625 0.09375 -1.1875zm0.9375 -0.015625q-0.203125 0.96875 0.09375 1.515625q0.3125 0.53125 1.0625 0.53125q0.78125 0 1.671875 -0.8125l0.5625 -2.65625q-0.296875 -0.34375 -0.609375 -0.484375q-0.3125 -0.140625 -0.671875 -0.140625q-0.34375 0 -0.6875 0.15625q-0.328125 0.140625 -0.609375 0.40625q-0.28125 0.265625 -0.5 0.640625q-0.203125 0.375 -0.3125 0.84375zm6.362564 -2.671875l3.390625 0l-1.140625 5.34375l-0.90625 0l0.984375 -4.609375l-2.484375 0l0.15625 -0.734375zm3.078125 -1.109375q-0.3125 0 -0.484375 -0.171875q-0.15625 -0.1875 -0.09375 -0.515625q0.0625 -0.3125 0.3125 -0.5q0.25 -0.203125 0.5625 -0.203125q0.3125 0 0.46875 0.203125q0.15625 0.1875 0.09375 0.5q-0.0625 0.328125 -0.3125 0.515625q-0.234375 0.171875 -0.546875 0.171875zm2.987564 1.109375l0.703125 0l-0.078125 0.703125l0.03125 0q0.28125 -0.375 0.609375 -0.609375q0.328125 -0.234375 0.78125 -0.234375q0.8125 0 0.8125 0.9375q0.328125 -0.421875 0.671875 -0.671875q0.34374237 -0.265625 0.7968674 -0.265625q0.5625 0 0.765625 0.4375q0.203125 0.421875 0.03125 1.21875l-0.8125 3.828125l-0.8593674 0l0.7968674 -3.75q0.203125 -0.953125 -0.390625 -0.953125q-0.28124237 0 -0.5468674 0.203125q-0.25 0.203125 -0.53125 0.625l-0.828125 3.875l-0.71875 0l0.796875 -3.75q0.203125 -0.953125 -0.40625 -0.953125q-0.28125 0 -0.53125 0.203125q-0.25 0.203125 -0.53125 0.625l-0.828125 3.875l-0.875 0l1.140625 -5.34375zm5.7844315 3.953125q0.09375 -0.453125 0.375 -0.78125q0.28125 -0.34375 0.796875 -0.578125q0.53125 -0.234375 1.296875 -0.390625q0.78125 -0.15625 1.828125 -0.25q0.046875 -0.265625 0.015625 -0.5q-0.03125 -0.25 -0.15625 -0.4375q-0.125 -0.1875 -0.375 -0.296875q-0.234375 -0.109375 -0.625 -0.109375q-0.53125 0 -1.0625 0.203125q-0.515625 0.203125 -0.9375 0.4375l-0.21875 -0.609375q0.21875 -0.140625 0.515625 -0.265625q0.3125 -0.140625 0.625 -0.25q0.328125 -0.109375 0.6875 -0.1875q0.359375 -0.078125 0.71875 -0.078125q1.09375 0 1.5 0.609375q0.40625 0.59375 0.203125 1.59375l-0.703125 3.28125l-0.75 0l0.078125 -0.71875l-0.03125 0q-0.53125 0.34375 -1.125 0.59375q-0.59375 0.25 -1.171875 0.25q-0.375 0 -0.6875 -0.109375q-0.296875 -0.09375 -0.515625 -0.28125q-0.203125 -0.203125 -0.28125 -0.46875q-0.078125 -0.28125 0 -0.65625zm0.890625 -0.0625q-0.046875 0.234375 0.015625 0.390625q0.0625 0.15625 0.1875 0.265625q0.140625 0.109375 0.34375 0.15625q0.21875 0.046875 0.453125 0.046875q0.453125 0 0.9375 -0.203125q0.5 -0.203125 1.046875 -0.59375l0.296875 -1.40625q-0.875 0.0625 -1.484375 0.1875q-0.59375 0.125 -0.984375 0.296875q-0.375 0.171875 -0.578125 0.390625q-0.1875 0.203125 -0.234375 0.46875zm6.143814 1.90625l-0.390625 1.796875l-0.90625 0l1.625 -7.59375l0.75 0l-0.078125 0.6875l0.03125 0q0.453125 -0.359375 1.0 -0.59375q0.546875 -0.234375 1.046875 -0.234375q0.53125 0 0.890625 0.203125q0.375 0.1875 0.578125 0.546875q0.21875 0.359375 0.25 0.859375q0.03125 0.5 -0.109375 1.125q-0.140625 0.6875 -0.453125 1.21875q-0.296875 0.53125 -0.71875 0.90625q-0.421875 0.375 -0.90625 0.5625q-0.46875 0.1875 -0.953125 0.1875q-0.375 0 -0.78125 -0.171875q-0.390625 -0.1875 -0.671875 -0.515625l-0.203125 1.015625zm0.359375 -1.703125q0.3125 0.34375 0.671875 0.484375q0.359375 0.140625 0.640625 0.140625q0.71875 0 1.296875 -0.5625q0.578125 -0.5625 0.78125 -1.5625q0.09375 -0.4375 0.078125 -0.796875q0 -0.375 -0.125 -0.625q-0.125 -0.265625 -0.390625 -0.40625q-0.25 -0.140625 -0.640625 -0.140625q-0.359375 0 -0.796875 0.203125q-0.4375 0.1875 -0.953125 0.59375l-0.5625 2.671875z" fill-rule="nonzero"></path><path fill="#000000" d="m148.8564 416.1351l0.703125 0l0.078125 0.703125l0.03125 0q0.203125 -0.375 0.46875 -0.609375q0.28125 -0.234375 0.734375 -0.234375q0.8125 0 1.015625 0.9375q0.234375 -0.421875 0.515625 -0.671875q0.296875 -0.265625 0.75 -0.265625q0.5625 0 0.859375 0.4375q0.296875 0.421875 0.296875 1.21875l0 3.828125l-0.859375 0l0 -3.75q0 -0.953125 -0.59375 -0.953125q-0.28125 0 -0.5 0.203125q-0.203125 0.203125 -0.40625 0.625l0 3.875l-0.71875 0l0 -3.75q0 -0.953125 -0.609375 -0.953125q-0.28125 0 -0.484375 0.203125q-0.203125 0.203125 -0.40625 0.625l0 3.875l-0.875 0l0 -5.34375zm6.628189 3.953125q0 -0.453125 0.203125 -0.78125q0.21875 -0.34375 0.6875 -0.578125q0.46875 -0.234375 1.203125 -0.390625q0.75 -0.15625 1.78125 -0.25q-0.015625 -0.265625 -0.09375 -0.5q-0.078125 -0.25 -0.25 -0.4375q-0.15625 -0.1875 -0.421875 -0.296875q-0.265625 -0.109375 -0.65625 -0.109375q-0.53125 0 -1.015625 0.203125q-0.484375 0.203125 -0.859375 0.4375l-0.34375 -0.609375q0.1875 -0.140625 0.453125 -0.265625q0.28125 -0.140625 0.578125 -0.25q0.3125 -0.109375 0.640625 -0.1875q0.34375 -0.078125 0.703125 -0.078125q1.09375 0 1.625 0.609375q0.546875 0.59375 0.546875 1.59375l0 3.28125l-0.75 0l-0.078125 -0.71875l-0.03125 0q-0.453125 0.34375 -1.0 0.59375q-0.53125 0.25 -1.109375 0.25q-0.375 0 -0.703125 -0.109375q-0.328125 -0.09375 -0.578125 -0.28125q-0.25 -0.203125 -0.390625 -0.46875q-0.140625 -0.28125 -0.140625 -0.65625zm0.875 -0.0625q0 0.234375 0.09375 0.390625q0.109375 0.15625 0.265625 0.265625q0.15625 0.109375 0.375 0.15625q0.21875 0.046875 0.453125 0.046875q0.453125 0 0.890625 -0.203125q0.453125 -0.203125 0.921875 -0.59375l0 -1.40625q-0.859375 0.0625 -1.4375 0.1875q-0.578125 0.125 -0.921875 0.296875q-0.34375 0.171875 -0.5 0.390625q-0.140625 0.203125 -0.140625 0.46875zm6.893814 -3.15625l-1.5 0l0 -0.6875l1.53125 -0.046875l0.125 -1.5l0.75 0l0 1.5l2.625 0l0 0.734375l-2.625 0l0 2.546875q0 0.359375 0.0625 0.625q0.0625 0.265625 0.21875 0.453125q0.15625 0.1875 0.421875 0.28125q0.265625 0.09375 0.640625 0.09375q0.390625 0 0.6875 -0.0625q0.3125 -0.0625 0.609375 -0.171875l0.1875 0.65625q-0.359375 0.125 -0.796875 0.21875q-0.4375 0.09375 -0.875 0.09375q-0.59375 0 -0.984375 -0.15625q-0.390625 -0.15625 -0.640625 -0.4375q-0.234375 -0.296875 -0.34375 -0.703125q-0.09375 -0.40625 -0.09375 -0.90625l0 -2.53125zm5.003189 1.953125q0 -0.671875 0.234375 -1.1875q0.25 -0.53125 0.65625 -0.890625q0.40625 -0.375 0.9375 -0.5625q0.546875 -0.1875 1.15625 -0.1875q0.65625 0 1.140625 0.234375q0.484375 0.234375 0.8125 0.546875l-0.453125 0.59375q-0.328125 -0.296875 -0.6875 -0.453125q-0.359375 -0.171875 -0.78125 -0.171875q-0.453125 0 -0.84375 0.15625q-0.390625 0.140625 -0.65625 0.421875q-0.265625 0.265625 -0.421875 0.65625q-0.15625 0.375 -0.15625 0.84375q0 0.453125 0.140625 0.828125q0.15625 0.375 0.421875 0.65625q0.28125 0.265625 0.65625 0.421875q0.375 0.140625 0.84375 0.140625q0.484375 0 0.890625 -0.1875q0.421875 -0.203125 0.765625 -0.484375l0.390625 0.578125q-0.4375 0.390625 -0.984375 0.609375q-0.53125 0.21875 -1.125 0.21875q-0.640625 0 -1.171875 -0.171875q-0.53125 -0.1875 -0.9375 -0.546875q-0.390625 -0.359375 -0.609375 -0.875q-0.21875 -0.53125 -0.21875 -1.1875zm6.534439 -5.171875l0.90625 0l0 2.125l-0.046875 1.265625q0.4375 -0.453125 0.921875 -0.75q0.484375 -0.296875 1.109375 -0.296875q0.953125 0 1.390625 0.546875q0.453125 0.546875 0.453125 1.609375l0 3.328125l-0.90625 0l0 -3.203125q0 -0.75 -0.28125 -1.125q-0.28125 -0.375 -0.9375 -0.375q-0.25 0 -0.453125 0.0625q-0.203125 0.0625 -0.40625 0.1875q-0.1875 0.125 -0.40625 0.3125q-0.203125 0.171875 -0.4375 0.40625l0 3.734375l-0.90625 0l0 -7.828125zm12.428253 2.484375l0.703125 0l0.078125 0.703125l0.03125 0q0.203125 -0.375 0.46875 -0.609375q0.28125 -0.234375 0.734375 -0.234375q0.8125 0 1.015625 0.9375q0.234375 -0.421875 0.515625 -0.671875q0.296875 -0.265625 0.75 -0.265625q0.5625 0 0.859375 0.4375q0.296875 0.421875 0.296875 1.21875l0 3.828125l-0.859375 0l0 -3.75q0 -0.953125 -0.59375 -0.953125q-0.28125 0 -0.5 0.203125q-0.203125 0.203125 -0.40625 0.625l0 3.875l-0.71875 0l0 -3.75q0 -0.953125 -0.609375 -0.953125q-0.28125 0 -0.484375 0.203125q-0.203125 0.203125 -0.40625 0.625l0 3.875l-0.875 0l0 -5.34375zm6.503189 2.6875q0 -0.671875 0.21875 -1.1875q0.234375 -0.515625 0.609375 -0.875q0.390625 -0.375 0.875 -0.5625q0.484375 -0.203125 1.0 -0.203125q0.578125 0 1.03125 0.1875q0.453125 0.1875 0.765625 0.515625q0.3125 0.328125 0.46875 0.796875q0.171875 0.453125 0.171875 1.015625q0 0.140625 -0.015625 0.28125q0 0.140625 -0.015625 0.234375l-4.1875 0q0.015625 0.421875 0.171875 0.765625q0.171875 0.34375 0.4375 0.59375q0.265625 0.234375 0.625 0.375q0.375 0.125 0.8125 0.125q0.484375 0 0.875 -0.125q0.390625 -0.140625 0.765625 -0.375l0.3125 0.59375q-0.390625 0.265625 -0.90625 0.453125q-0.5 0.171875 -1.15625 0.171875q-0.59375 0 -1.125 -0.1875q-0.515625 -0.1875 -0.90625 -0.546875q-0.390625 -0.359375 -0.609375 -0.875q-0.21875 -0.515625 -0.21875 -1.171875zm4.3125 -0.453125q0 -0.796875 -0.421875 -1.21875q-0.421875 -0.4375 -1.171875 -0.4375q-0.328125 0 -0.640625 0.109375q-0.296875 0.109375 -0.546875 0.328125q-0.234375 0.21875 -0.40625 0.53125q-0.15625 0.296875 -0.203125 0.6875l3.390625 0zm2.925064 -2.234375l0.75 0l0.078125 1.265625l0.03125 0q0.40625 -0.65625 1.015625 -1.03125q0.625 -0.375 1.359375 -0.375q0.296875 0 0.546875 0.0625q0.265625 0.046875 0.515625 0.15625l-0.203125 0.78125q-0.296875 -0.09375 -0.484375 -0.125q-0.1875 -0.046875 -0.515625 -0.046875q-0.59375 0 -1.15625 0.34375q-0.5625 0.34375 -1.03125 1.171875l0 3.140625l-0.90625 0l0 -5.34375zm6.362564 6.234375q0 0.421875 0.4375 0.6875q0.453125 0.265625 1.3125 0.265625q0.453125 0 0.828125 -0.09375q0.375 -0.09375 0.640625 -0.25q0.265625 -0.15625 0.390625 -0.359375q0.140625 -0.1875 0.140625 -0.40625q0 -0.375 -0.296875 -0.515625q-0.296875 -0.125 -0.921875 -0.125l-1.046875 0q-0.21875 0 -0.421875 -0.015625q-0.203125 -0.015625 -0.390625 -0.078125q-0.375 0.203125 -0.53125 0.421875q-0.140625 0.234375 -0.140625 0.46875zm-0.78125 0.09375q0 -0.328125 0.21875 -0.640625q0.234375 -0.296875 0.65625 -0.546875l0 -0.046875q-0.21875 -0.125 -0.390625 -0.328125q-0.15625 -0.21875 -0.15625 -0.5625q0 -0.25 0.15625 -0.515625q0.171875 -0.265625 0.484375 -0.484375l0 -0.03125q-0.28125 -0.21875 -0.484375 -0.5625q-0.1875 -0.34375 -0.1875 -0.828125q0 -0.4375 0.171875 -0.78125q0.171875 -0.359375 0.453125 -0.609375q0.296875 -0.25 0.671875 -0.390625q0.375 -0.140625 0.8125 -0.140625q0.4375 0 0.796875 0.140625l2.203125 0l0 0.6875l-1.421875 0q0.1875 0.203125 0.328125 0.484375q0.15625 0.28125 0.15625 0.640625q0 0.421875 -0.15625 0.765625q-0.15625 0.34375 -0.4375 0.578125q-0.28125 0.234375 -0.671875 0.375q-0.375 0.125 -0.796875 0.125q-0.21875 0 -0.453125 -0.046875q-0.234375 -0.0625 -0.453125 -0.15625q-0.421875 0.265625 -0.421875 0.609375q0 0.328125 0.296875 0.484375q0.296875 0.140625 0.8125 0.140625l1.203125 0q1.03125 0 1.53125 0.28125q0.5 0.28125 0.5 0.96875q0 0.375 -0.203125 0.71875q-0.203125 0.34375 -0.59375 0.59375q-0.390625 0.25 -0.9375 0.40625q-0.546875 0.15625 -1.234375 0.15625q-1.171875 0 -1.8125 -0.390625q-0.640625 -0.390625 -0.640625 -1.09375zm2.40625 -3.28125q0.515625 0 0.875 -0.34375q0.359375 -0.34375 0.359375 -0.921875q0 -0.28125 -0.109375 -0.5q-0.09375 -0.234375 -0.265625 -0.390625q-0.15625 -0.171875 -0.390625 -0.265625q-0.21875 -0.09375 -0.46875 -0.09375q-0.25 0 -0.484375 0.09375q-0.21875 0.09375 -0.390625 0.265625q-0.15625 0.15625 -0.265625 0.390625q-0.09375 0.21875 -0.09375 0.5q0 0.578125 0.359375 0.921875q0.359375 0.34375 0.875 0.34375zm3.956314 -0.359375q0 -0.671875 0.21875 -1.1875q0.234375 -0.515625 0.609375 -0.875q0.390625 -0.375 0.875 -0.5625q0.484375 -0.203125 1.0 -0.203125q0.578125 0 1.03125 0.1875q0.453125 0.1875 0.765625 0.515625q0.3125 0.328125 0.46875 0.796875q0.171875 0.453125 0.171875 1.015625q0 0.140625 -0.015625 0.28125q0 0.140625 -0.015625 0.234375l-4.1875 0q0.015625 0.421875 0.171875 0.765625q0.171875 0.34375 0.4375 0.59375q0.265625 0.234375 0.625 0.375q0.375 0.125 0.8125 0.125q0.484375 0 0.875 -0.125q0.390625 -0.140625 0.765625 -0.375l0.3125 0.59375q-0.390625 0.265625 -0.90625 0.453125q-0.5 0.171875 -1.15625 0.171875q-0.59375 0 -1.125 -0.1875q-0.515625 -0.1875 -0.90625 -0.546875q-0.390625 -0.359375 -0.609375 -0.875q-0.21875 -0.515625 -0.21875 -1.171875zm4.3125 -0.453125q0 -0.796875 -0.421875 -1.21875q-0.421875 -0.4375 -1.171875 -0.4375q-0.328125 0 -0.640625 0.109375q-0.296875 0.109375 -0.546875 0.328125q-0.234375 0.21875 -0.40625 0.53125q-0.15625 0.296875 -0.203125 0.6875l3.390625 0z" fill-rule="nonzero"></path><path fill="#d9d2e9" d="m251.88452 208.3727l455.68506 0l0 188.37798l-455.68506 0z" fill-rule="evenodd"></path><path stroke="#595959" stroke-width="1.0" stroke-linejoin="round" stroke-linecap="butt" d="m251.88452 208.3727l455.68506 0l0 188.37798l-455.68506 0z" fill-rule="evenodd"></path><path fill="#000000" d="m263.4314 377.16254l2.734375 0l-1.28125 6.09375q-0.125 0.59375 0.09375 0.859375q0.21875 0.265625 0.6875 0.265625q0.453125 0 1.078125 -0.265625l0.09375 0.6875q-0.390625 0.125 -0.734375 0.21875q-0.34375 0.09375 -0.78125 0.09375q-0.859375 0 -1.203125 -0.484375q-0.34375 -0.484375 -0.140625 -1.4375l1.125 -5.296875l-1.828125 0l0.15625 -0.734375zm5.175049 5.171875q0.140625 -0.671875 0.46875 -1.1875q0.34375 -0.515625 0.796875 -0.875q0.46875 -0.375 1.0 -0.5625q0.53125 -0.203125 1.046875 -0.203125q0.578125 0 0.984375 0.1875q0.421875 0.1875 0.65625 0.515625q0.25 0.328125 0.3125 0.796875q0.0625 0.453125 -0.0625 1.015625q-0.03125 0.140625 -0.0625 0.28125q-0.03125 0.140625 -0.078125 0.234375l-4.1875 0q-0.0625 0.421875 0.015625 0.765625q0.09375 0.34375 0.3125 0.59375q0.21875 0.234375 0.546875 0.375q0.34375 0.125 0.78125 0.125q0.484375 0 0.90625 -0.125q0.421875 -0.140625 0.84375 -0.375l0.1875 0.59375q-0.453125 0.265625 -1.0 0.453125q-0.546875 0.171875 -1.203125 0.171875q-0.59375 0 -1.078125 -0.1875q-0.484375 -0.1875 -0.796875 -0.546875q-0.3125 -0.359375 -0.421875 -0.875q-0.109375 -0.515625 0.03125 -1.171875zm4.40625 -0.453125q0.171875 -0.796875 -0.15625 -1.21875q-0.328125 -0.4375 -1.078125 -0.4375q-0.328125 0 -0.65625 0.109375q-0.328125 0.109375 -0.625 0.328125q-0.28125 0.21875 -0.515625 0.53125q-0.21875 0.296875 -0.359375 0.6875l3.390625 0zm8.300079 -3.859375q-0.3125 -0.15625 -0.578125 -0.203125q-0.265625 -0.0625 -0.625 -0.0625q-0.71875 0 -1.125 0.375q-0.390625 0.375 -0.53125 1.03125l-0.09375 0.484375l2.25 0l-0.15625 0.734375l-2.25 0l-0.984375 4.609375l-0.890625 0l0.984375 -4.609375l-1.515625 0l0.140625 -0.6875l1.53125 -0.046875l0.09375 -0.453125q0.203125 -0.984375 0.84375 -1.578125q0.65625 -0.59375 1.765625 -0.59375q0.796875 0 1.484375 0.3125l-0.34375 0.6875zm2.0031738 2.359375l-1.5 0l0.140625 -0.6875l1.546875 -0.046875l0.4375 -1.5l0.75 0l-0.3125 1.5l2.625 0l-0.15625 0.734375l-2.625 0l-0.546875 2.546875q-0.078125 0.359375 -0.078125 0.625q0.015625 0.265625 0.125 0.453125q0.125 0.1875 0.359375 0.28125q0.25 0.09375 0.625 0.09375q0.390625 0 0.703125 -0.0625q0.328125 -0.0625 0.640625 -0.171875l0.0625 0.65625q-0.390625 0.125 -0.859375 0.21875q-0.453125 0.09375 -0.890625 0.09375q-0.59375 0 -0.953125 -0.15625q-0.34375 -0.15625 -0.53125 -0.4375q-0.1875 -0.296875 -0.203125 -0.703125q-0.015625 -0.40625 0.09375 -0.90625l0.546875 -2.53125z" fill-rule="nonzero"></path><path fill="#cfe2f3" d="m394.1286 19.120115l167.30707 0l0 73.00787l-167.30707 0z" fill-rule="evenodd"></path><path stroke="#595959" stroke-width="1.0" stroke-linejoin="round" stroke-linecap="butt" d="m394.1286 19.120115l167.30707 0l0 73.00787l-167.30707 0z" fill-rule="evenodd"></path><path fill="#000000" d="m474.1384 50.265305l2.34375 0l0 2.75l-0.125 1.53125q0.234375 -0.234375 0.515625 -0.4375q0.28125 -0.21875 0.609375 -0.390625q0.328125 -0.171875 0.71875 -0.265625q0.390625 -0.09375 0.84375 -0.09375q1.34375 0 1.953125 0.859375q0.625 0.859375 0.625 2.375l0 4.890625l-2.359375 0l0 -4.59375q0 -0.796875 -0.25 -1.15625q-0.25 -0.375 -0.90625 -0.375q-0.484375 0 -0.84375 0.203125q-0.359375 0.203125 -0.78125 0.625l0 5.296875l-2.34375 0l0 -11.21875z" fill-rule="nonzero"></path><path fill="#000000" fill-opacity="0.0" d="m295.042 55.309093l99.08661 0.31496048" fill-rule="evenodd"></path><path stroke="#595959" stroke-width="1.0" stroke-linejoin="round" stroke-linecap="butt" d="m295.042 55.30909l93.08667 0.2958908" fill-rule="evenodd"></path><path fill="#595959" stroke="#595959" stroke-width="1.0" stroke-linecap="butt" d="m388.12338 57.256702l4.543335 -1.6372986l-4.532837 -1.6661491z" fill-rule="evenodd"></path><path fill="#000000" fill-opacity="0.0" d="m561.43567 55.624054l106.36224 0" fill-rule="evenodd"></path><path stroke="#595959" stroke-width="1.0" stroke-linejoin="round" stroke-linecap="butt" d="m561.43567 55.62405l100.36224 0" fill-rule="evenodd"></path><path fill="#595959" stroke="#595959" stroke-width="1.0" stroke-linecap="butt" d="m661.7979 57.275784l4.538086 -1.6517334l-4.538086 -1.6517296z" fill-rule="evenodd"></path><path fill="#000000" fill-opacity="0.0" d="m327.65747 23.87602l29.51181 0l0 31.496065l-29.51181 0z" fill-rule="evenodd"></path><path fill="#000000" d="m344.34497 49.57727q-0.9375 0.796875 -1.796875 1.125q-0.859375 0.3125 -1.84375 0.3125q-1.609375 0 -2.484375 -0.78125q-0.875 -0.796875 -0.875 -2.03125q0 -0.734375 0.328125 -1.328125q0.328125 -0.59375 0.859375 -0.953125q0.53125 -0.359375 1.203125 -0.546875q0.5 -0.140625 1.484375 -0.25q2.03125 -0.25 2.984375 -0.578125q0 -0.34375 0 -0.4375q0 -1.015625 -0.46875 -1.4375q-0.640625 -0.5625 -1.90625 -0.5625q-1.171875 0 -1.734375 0.40625q-0.5625 0.40625 -0.828125 1.46875l-1.640625 -0.234375q0.234375 -1.046875 0.734375 -1.6875q0.515625 -0.640625 1.46875 -0.984375q0.96875 -0.359375 2.25 -0.359375q1.265625 0 2.046875 0.296875q0.78125 0.296875 1.15625 0.75q0.375 0.453125 0.515625 1.140625q0.09375 0.421875 0.09375 1.53125l0 2.234375q0 2.328125 0.09375 2.953125q0.109375 0.609375 0.4375 1.171875l-1.75 0q-0.265625 -0.515625 -0.328125 -1.21875zm-0.140625 -3.71875q-0.90625 0.359375 -2.734375 0.625q-1.03125 0.140625 -1.453125 0.328125q-0.421875 0.1875 -0.65625 0.546875q-0.234375 0.359375 -0.234375 0.796875q0 0.671875 0.5 1.125q0.515625 0.4375 1.484375 0.4375q0.96875 0 1.71875 -0.421875q0.75 -0.4375 1.109375 -1.15625q0.265625 -0.578125 0.265625 -1.671875l0 -0.609375z" fill-rule="nonzero"></path><path fill="#000000" fill-opacity="0.0" d="m596.39764 23.87602l29.51178 0l0 31.496065l-29.51178 0z" fill-rule="evenodd"></path><path fill="#000000" d="m608.1945 50.79602l-1.546875 0l0 -13.59375l1.65625 0l0 4.84375q1.0625 -1.328125 2.703125 -1.328125q0.90625 0 1.71875 0.375q0.8125 0.359375 1.328125 1.03125q0.53125 0.65625 0.828125 1.59375q0.296875 0.9375 0.296875 2.0q0 2.53125 -1.25 3.921875q-1.25 1.375 -3.0 1.375q-1.75 0 -2.734375 -1.453125l0 1.234375zm-0.015625 -5.0q0 1.765625 0.46875 2.5625q0.796875 1.28125 2.140625 1.28125q1.09375 0 1.890625 -0.9375q0.796875 -0.953125 0.796875 -2.84375q0 -1.921875 -0.765625 -2.84375q-0.765625 -0.921875 -1.84375 -0.921875q-1.09375 0 -1.890625 0.953125q-0.796875 0.953125 -0.796875 2.75z" fill-rule="nonzero"></path><path fill="#000000" fill-opacity="0.0" d="m0 136.41843l960.69293 1.3858185" fill-rule="evenodd"></path><path stroke="#595959" stroke-width="1.0" stroke-linejoin="round" stroke-linecap="butt" stroke-dasharray="1.0,3.0" d="m0 136.41843l960.69293 1.3858185" fill-rule="evenodd"></path><path fill="#eeeeee" d="m317.52756 228.83727l315.811 0l0 103.244095l-315.811 0z" fill-rule="evenodd"></path><path stroke="#595959" stroke-width="1.0" stroke-linejoin="round" stroke-linecap="butt" d="m317.52756 228.83727l315.811 0l0 103.244095l-315.811 0z" fill-rule="evenodd"></path><path fill="#000000" d="m329.27756 314.9776l0.75 0l-0.203125 1.265625l0.03125 0q0.546875 -0.65625 1.25 -1.03125q0.703125 -0.375 1.4375 -0.375q0.296875 0 0.53125 0.0625q0.25 0.046875 0.484375 0.15625l-0.375 0.78125q-0.28125 -0.09375 -0.46875 -0.125q-0.171875 -0.046875 -0.5 -0.046875q-0.59375 0 -1.234375 0.34375q-0.625 0.34375 -1.265625 1.171875l-0.671875 3.140625l-0.90625 0l1.140625 -5.34375zm5.4407043 0l0.703125 0l-0.078125 0.703125l0.03125 0q0.28125 -0.375 0.609375 -0.609375q0.328125 -0.234375 0.78125 -0.234375q0.8125 0 0.8125 0.9375q0.328125 -0.421875 0.671875 -0.671875q0.34375 -0.265625 0.796875 -0.265625q0.5625 0 0.765625 0.4375q0.203125 0.421875 0.03125 1.21875l-0.8125 3.828125l-0.859375 0l0.796875 -3.75q0.203125 -0.953125 -0.390625 -0.953125q-0.28125 0 -0.546875 0.203125q-0.25 0.203125 -0.53125 0.625l-0.828125 3.875l-0.71875 0l0.796875 -3.75q0.203125 -0.953125 -0.40625 -0.953125q-0.28125 0 -0.53125 0.203125q-0.25 0.203125 -0.53125 0.625l-0.828125 3.875l-0.875 0l1.140625 -5.34375zm5.784424 3.953125q0.09375 -0.453125 0.375 -0.78125q0.28125 -0.34375 0.796875 -0.578125q0.53125 -0.234375 1.296875 -0.390625q0.78125 -0.15625 1.828125 -0.25q0.046875 -0.265625 0.015625 -0.5q-0.03125 -0.25 -0.15625 -0.4375q-0.125 -0.1875 -0.375 -0.296875q-0.234375 -0.109375 -0.625 -0.109375q-0.53125 0 -1.0625 0.203125q-0.515625 0.203125 -0.9375 0.4375l-0.21875 -0.609375q0.21875 -0.140625 0.515625 -0.265625q0.3125 -0.140625 0.625 -0.25q0.328125 -0.109375 0.6875 -0.1875q0.359375 -0.078125 0.71875 -0.078125q1.09375 0 1.5 0.609375q0.40625 0.59375 0.203125 1.59375l-0.703125 3.28125l-0.75 0l0.078125 -0.71875l-0.03125 0q-0.53125 0.34375 -1.125 0.59375q-0.59375 0.25 -1.171875 0.25q-0.375 0 -0.6875 -0.109375q-0.296875 -0.09375 -0.515625 -0.28125q-0.203125 -0.203125 -0.28125 -0.46875q-0.078125 -0.28125 0 -0.65625zm0.890625 -0.0625q-0.046875 0.234375 0.015625 0.390625q0.0625 0.15625 0.1875 0.265625q0.140625 0.109375 0.34375 0.15625q0.21875 0.046875 0.453125 0.046875q0.453125 0 0.9375 -0.203125q0.5 -0.203125 1.046875 -0.59375l0.296875 -1.40625q-0.875 0.0625 -1.484375 0.1875q-0.59375 0.125 -0.984375 0.296875q-0.375 0.171875 -0.578125 0.390625q-0.1875 0.203125 -0.234375 0.46875zm6.1438293 1.90625l-0.390625 1.796875l-0.90625 0l1.625 -7.59375l0.75 0l-0.078125 0.6875l0.03125 0q0.453125 -0.359375 1.0 -0.59375q0.546875 -0.234375 1.046875 -0.234375q0.53125 0 0.890625 0.203125q0.375 0.1875 0.578125 0.546875q0.21875 0.359375 0.25 0.859375q0.03125 0.5 -0.109375 1.125q-0.140625 0.6875 -0.453125 1.21875q-0.296875 0.53125 -0.71875 0.90625q-0.421875 0.375 -0.90625 0.5625q-0.46875 0.1875 -0.953125 0.1875q-0.375 0 -0.78125 -0.171875q-0.390625 -0.1875 -0.671875 -0.515625l-0.203125 1.015625zm0.359375 -1.703125q0.3125 0.34375 0.671875 0.484375q0.359375 0.140625 0.640625 0.140625q0.71875 0 1.296875 -0.5625q0.578125 -0.5625 0.78125 -1.5625q0.09375 -0.4375 0.078125 -0.796875q0 -0.375 -0.125 -0.625q-0.125 -0.265625 -0.390625 -0.40625q-0.25 -0.140625 -0.640625 -0.140625q-0.359375 0 -0.796875 0.203125q-0.4375 0.1875 -0.953125 0.59375l-0.5625 2.671875z" fill-rule="nonzero"></path><path fill="#000000" d="m359.51227 312.49323l0.90625 0l0 2.125l-0.015625 1.046875q0.375 -0.375 0.859375 -0.59375q0.484375 -0.234375 0.953125 -0.234375q0.53125 0 0.953125 0.203125q0.421875 0.1875 0.703125 0.546875q0.28125 0.359375 0.421875 0.859375q0.140625 0.5 0.140625 1.109375q0 0.6875 -0.203125 1.234375q-0.1875 0.53125 -0.53125 0.90625q-0.328125 0.375 -0.765625 0.5625q-0.4375 0.1875 -0.921875 0.1875q-0.375 0 -0.828125 -0.1875q-0.4375 -0.1875 -0.828125 -0.53125l-0.03125 0l-0.078125 0.59375l-0.734375 0l0 -7.828125zm0.90625 6.578125q0.390625 0.34375 0.78125 0.484375q0.390625 0.140625 0.671875 0.140625q0.359375 0 0.65625 -0.140625q0.296875 -0.15625 0.515625 -0.421875q0.21875 -0.28125 0.328125 -0.671875q0.125 -0.390625 0.125 -0.890625q0 -0.4375 -0.09375 -0.796875q-0.078125 -0.375 -0.265625 -0.625q-0.171875 -0.265625 -0.46875 -0.40625q-0.28125 -0.140625 -0.671875 -0.140625q-0.359375 0 -0.765625 0.203125q-0.390625 0.1875 -0.8125 0.59375l0 2.671875zm10.034424 1.25l-0.75 0l-0.078125 -0.9375l-0.03125 0q-0.40625 0.46875 -0.890625 0.765625q-0.484375 0.296875 -1.109375 0.296875q-0.96875 0 -1.421875 -0.53125q-0.4375 -0.546875 -0.4375 -1.625l0 -3.3125l0.921875 0l0 3.203125q0 0.75 0.28125 1.125q0.28125 0.359375 0.9375 0.359375q0.46875 0 0.84375 -0.234375q0.375 -0.234375 0.828125 -0.75l0 -3.703125l0.90625 0l0 5.34375zm1.8157043 -5.34375l3.390625 0l0 5.34375l-0.90625 0l0 -4.609375l-2.484375 0l0 -0.734375zm2.84375 -1.109375q-0.3125 0 -0.515625 -0.171875q-0.203125 -0.1875 -0.203125 -0.515625q0 -0.3125 0.203125 -0.5q0.203125 -0.203125 0.515625 -0.203125q0.3125 0 0.515625 0.203125q0.203125 0.1875 0.203125 0.5q0 0.328125 -0.203125 0.515625q-0.203125 0.171875 -0.515625 0.171875zm3.4562988 -1.375l2.734375 0l0 6.09375q0 0.59375 0.28125 0.859375q0.28125 0.265625 0.75 0.265625q0.453125 0 1.015625 -0.265625l0.234375 0.6875q-0.359375 0.125 -0.6875 0.21875q-0.3125 0.09375 -0.75 0.09375q-0.859375 0 -1.3125 -0.484375q-0.4375 -0.484375 -0.4375 -1.4375l0 -5.296875l-1.828125 0l0 -0.734375zm6.1594543 5.171875q0 -0.65625 0.203125 -1.171875q0.203125 -0.53125 0.53125 -0.890625q0.34375 -0.359375 0.78125 -0.5625q0.453125 -0.203125 0.921875 -0.203125q0.5 0 0.859375 0.1875q0.375 0.1875 0.75 0.515625l-0.03125 -1.0l0 -2.046875l0.90625 0l0 7.828125l-0.75 0l-0.078125 -0.703125l-0.03125 0q-0.328125 0.34375 -0.796875 0.59375q-0.453125 0.234375 -0.9375 0.234375q-0.53125 0 -0.953125 -0.171875q-0.421875 -0.1875 -0.734375 -0.546875q-0.3125 -0.359375 -0.484375 -0.875q-0.15625 -0.515625 -0.15625 -1.1875zm0.9375 -0.015625q0 0.96875 0.40625 1.515625q0.421875 0.53125 1.171875 0.53125q0.78125 0 1.5 -0.8125l0 -2.65625q-0.359375 -0.34375 -0.703125 -0.484375q-0.34375 -0.140625 -0.703125 -0.140625q-0.34375 0 -0.65625 0.15625q-0.296875 0.140625 -0.53125 0.40625q-0.21875 0.265625 -0.359375 0.640625q-0.125 0.375 -0.125 0.84375z" fill-rule="nonzero"></path><path fill="#cfe2f3" d="m354.01837 257.13123l135.02362 0l0 46.362183l-135.02362 0z" fill-rule="evenodd"></path><path stroke="#595959" stroke-width="1.0" stroke-linejoin="round" stroke-linecap="butt" d="m354.01837 257.13123l135.02362 0l0 46.362183l-135.02362 0z" fill-rule="evenodd"></path><path fill="#000000" d="m419.13016 276.33356l1.609375 0l0 1.90625l-0.078125 1.03125q0.15625 -0.140625 0.34375 -0.28125q0.203125 -0.15625 0.421875 -0.265625q0.234375 -0.125 0.5 -0.1875q0.265625 -0.078125 0.578125 -0.078125q0.921875 0 1.34375 0.59375q0.421875 0.59375 0.421875 1.640625l0 3.359375l-1.609375 0l0 -3.15625q0 -0.546875 -0.1875 -0.796875q-0.171875 -0.265625 -0.625 -0.265625q-0.328125 0 -0.578125 0.15625q-0.25 0.140625 -0.53125 0.421875l0 3.640625l-1.609375 0l0 -7.71875z" fill-rule="nonzero"></path><path fill="#f4cccc" d="m525.00525 280.37207l0 0c0 -20.160553 16.717041 -36.50392 37.338623 -36.50392l0 0c9.902771 0 19.400024 3.845932 26.402344 10.691742c7.0023193 6.84581 10.936218 16.130753 10.936218 25.81218l0 0c0 20.160583 -16.717041 36.503937 -37.338562 36.503937l0 0c-20.621582 0 -37.338623 -16.343353 -37.338623 -36.503937z" fill-rule="evenodd"></path><path stroke="#595959" stroke-width="1.0" stroke-linejoin="round" stroke-linecap="butt" d="m525.00525 280.37207l0 0c0 -20.160553 16.717041 -36.50392 37.338623 -36.50392l0 0c9.902771 0 19.400024 3.845932 26.402344 10.691742c7.0023193 6.84581 10.936218 16.130753 10.936218 25.81218l0 0c0 20.160583 -16.717041 36.503937 -37.338562 36.503937l0 0c-20.621582 0 -37.338623 -16.343353 -37.338623 -36.503937z" fill-rule="evenodd"></path><path fill="#000000" d="m547.1562 276.39334l1.609375 0l0 1.90625l-0.046875 0.84375q0.328125 -0.296875 0.71875 -0.453125q0.40625 -0.171875 0.8125 -0.171875q0.5 0 0.90625 0.203125q0.421875 0.203125 0.703125 0.5625q0.28125 0.34375 0.421875 0.859375q0.15625 0.515625 0.15625 1.140625q0 0.703125 -0.203125 1.265625q-0.1875 0.546875 -0.515625 0.921875q-0.328125 0.375 -0.75 0.578125q-0.421875 0.1875 -0.890625 0.1875q-0.390625 0 -0.765625 -0.171875q-0.375 -0.1875 -0.71875 -0.546875l-0.046875 0l-0.125 0.59375l-1.265625 0l0 -7.71875zm1.609375 6.171875q0.234375 0.1875 0.484375 0.28125q0.25 0.078125 0.46875 0.078125q0.453125 0 0.75 -0.375q0.3125 -0.390625 0.3125 -1.234375q0 -1.46875 -1.0 -1.46875q-0.515625 0 -1.015625 0.5l0 2.21875zm9.768799 1.546875l-1.328125 0l-0.125 -0.78125l-0.03125 0q-0.375 0.421875 -0.8125 0.671875q-0.4375 0.234375 -1.03125 0.234375q-0.9375 0 -1.359375 -0.59375q-0.40625 -0.59375 -0.40625 -1.625l0 -3.359375l1.609375 0l0 3.15625q0 0.546875 0.15625 0.796875q0.171875 0.25 0.640625 0.25q0.3125 0 0.546875 -0.125q0.234375 -0.125 0.515625 -0.5l0 -3.578125l1.625 0l0 5.453125zm1.4875488 -5.453125l3.796875 0l0 5.453125l-1.609375 0l0 -4.1875l-2.1875 0l0 -1.265625zm2.921875 -0.8125q-0.46875 0 -0.78125 -0.25q-0.296875 -0.265625 -0.296875 -0.71875q0 -0.453125 0.296875 -0.734375q0.3125 -0.28125 0.78125 -0.28125q0.46875 0 0.765625 0.28125q0.3125 0.28125 0.3125 0.734375q0 0.453125 -0.3125 0.71875q-0.296875 0.25 -0.765625 0.25zm3.2844849 -1.453125l3.203125 0l0 5.65625q0 0.25 0.0625 0.421875q0.078125 0.171875 0.203125 0.28125q0.125 0.09375 0.28125 0.140625q0.15625 0.046875 0.328125 0.046875q0.1875 0 0.390625 -0.03125q0.21875 -0.046875 0.46875 -0.15625l0.359375 1.1875q-0.21875 0.078125 -0.40625 0.140625q-0.1875 0.046875 -0.375 0.078125q-0.1875 0.046875 -0.40625 0.0625q-0.203125 0.015625 -0.453125 0.015625q-1.03125 0 -1.5625 -0.609375q-0.515625 -0.609375 -0.515625 -1.65625l0 -4.296875l-1.578125 0l0 -1.28125zm6.221924 4.984375q0 -0.671875 0.1875 -1.1875q0.203125 -0.53125 0.53125 -0.890625q0.328125 -0.375 0.734375 -0.578125q0.421875 -0.203125 0.875 -0.203125q0.484375 0 0.796875 0.171875q0.3125 0.15625 0.609375 0.421875l-0.0625 -0.859375l0 -1.859375l1.625 0l0 7.71875l-1.328125 0l-0.125 -0.5625l-0.03125 0q-0.296875 0.296875 -0.703125 0.5q-0.390625 0.1875 -0.8125 0.1875q-0.515625 0 -0.9375 -0.1875q-0.421875 -0.203125 -0.734375 -0.5625q-0.296875 -0.375 -0.46875 -0.90625q-0.15625 -0.53125 -0.15625 -1.203125zm1.65625 -0.015625q0 0.8125 0.28125 1.1875q0.28125 0.375 0.78125 0.375q0.28125 0 0.5 -0.109375q0.234375 -0.125 0.453125 -0.390625l0 -2.21875q-0.21875 -0.203125 -0.453125 -0.28125q-0.21875 -0.078125 -0.453125 -0.078125q-0.453125 0 -0.78125 0.375q-0.328125 0.375 -0.328125 1.140625z" fill-rule="nonzero"></path><path fill="#d9ead3" d="m134.62598 302.60892l0 0c0 -20.160553 16.717056 -36.503937 37.338593 -36.503937l0 0c9.9028015 0 19.400024 3.8459473 26.402359 10.691772c7.00235 6.8457947 10.936218 16.130737 10.936218 25.812164l0 0c0 20.160583 -16.717056 36.503937 -37.338577 36.503937l0 0c-20.621536 0 -37.338593 -16.343353 -37.338593 -36.503937z" fill-rule="evenodd"></path><path stroke="#595959" stroke-width="1.0" stroke-linejoin="round" stroke-linecap="butt" d="m134.62598 302.60892l0 0c0 -20.160553 16.717056 -36.503937 37.338593 -36.503937l0 0c9.9028015 0 19.400024 3.8459473 26.402359 10.691772c7.00235 6.8457947 10.936218 16.130737 10.936218 25.812164l0 0c0 20.160583 -16.717056 36.503937 -37.338577 36.503937l0 0c-20.621536 0 -37.338593 -16.343353 -37.338593 -36.503937z" fill-rule="evenodd"></path><path fill="#000000" d="m156.37065 300.8958l1.21875 0l0.125 0.671875l0.03125 0q0.15625 -0.328125 0.421875 -0.5625q0.28125 -0.25 0.75 -0.25q0.359375 0 0.609375 0.234375q0.25 0.21875 0.34375 0.65625q0.15625 -0.375 0.4375 -0.625q0.296875 -0.265625 0.765625 -0.265625q0.578125 0 0.890625 0.46875q0.3125 0.46875 0.3125 1.296875l0 3.828125l-1.515625 0l0 -3.703125q0 -0.515625 -0.296875 -0.515625q-0.296875 0 -0.515625 0.53125l0 3.6875l-1.234375 0l0 -3.703125q0 -0.515625 -0.328125 -0.515625q-0.15625 0 -0.265625 0.140625q-0.109375 0.125 -0.234375 0.390625l0 3.6875l-1.515625 0l0 -5.453125zm6.675064 3.9375q0 -0.46875 0.1875 -0.8125q0.203125 -0.34375 0.640625 -0.578125q0.4375 -0.25 1.109375 -0.390625q0.6875 -0.15625 1.65625 -0.21875q-0.046875 -0.375 -0.328125 -0.578125q-0.28125 -0.203125 -0.828125 -0.203125q-0.40625 0 -0.8125 0.140625q-0.390625 0.125 -0.859375 0.359375l-0.5625 -1.046875q0.5625 -0.328125 1.203125 -0.53125q0.640625 -0.21875 1.34375 -0.21875q1.140625 0 1.796875 0.609375q0.671875 0.609375 0.671875 1.859375l0 3.125l-1.328125 0l-0.125 -0.609375l-0.03125 0q-0.421875 0.3125 -0.921875 0.53125q-0.5 0.203125 -1.015625 0.203125q-0.421875 0 -0.75 -0.125q-0.328125 -0.125 -0.5625 -0.34375q-0.234375 -0.234375 -0.359375 -0.53125q-0.125 -0.296875 -0.125 -0.640625zm1.546875 -0.125q0 0.265625 0.203125 0.390625q0.203125 0.125 0.5625 0.125q0.359375 0 0.671875 -0.140625q0.328125 -0.15625 0.609375 -0.375l0 -0.90625q-0.609375 0.03125 -1.0 0.109375q-0.390625 0.078125 -0.625 0.203125q-0.234375 0.109375 -0.328125 0.265625q-0.09375 0.15625 -0.09375 0.328125zm6.081314 -2.546875l-1.375 0l0 -1.203125l1.453125 -0.0625l0.21875 -1.453125l1.328125 0l0 1.453125l2.3125 0l0 1.265625l-2.3125 0l0 1.90625q0 0.625 0.265625 0.890625q0.28125 0.25 0.875 0.25q0.328125 0 0.578125 -0.046875q0.265625 -0.0625 0.515625 -0.140625l0.28125 1.15625q-0.359375 0.109375 -0.8125 0.203125q-0.4375 0.09375 -0.96875 0.09375q-0.640625 0 -1.09375 -0.171875q-0.453125 -0.171875 -0.734375 -0.484375q-0.28125 -0.3125 -0.40625 -0.75q-0.125 -0.453125 -0.125 -0.984375l0 -1.921875zm5.221939 1.453125q0 -0.671875 0.25 -1.203125q0.265625 -0.546875 0.703125 -0.90625q0.4375 -0.359375 1.0 -0.546875q0.578125 -0.203125 1.203125 -0.203125q0.65625 0 1.171875 0.21875q0.53125 0.203125 0.875 0.53125l-0.75 1.0q-0.59375 -0.4375 -1.203125 -0.4375q-0.703125 0 -1.15625 0.421875q-0.4375 0.421875 -0.4375 1.125q0 0.71875 0.421875 1.140625q0.4375 0.421875 1.109375 0.421875q0.4375 0 0.796875 -0.15625q0.359375 -0.15625 0.65625 -0.359375l0.65625 1.015625q-0.5 0.421875 -1.109375 0.609375q-0.59375 0.1875 -1.15625 0.1875q-0.640625 0 -1.1875 -0.1875q-0.546875 -0.1875 -0.96875 -0.546875q-0.40625 -0.375 -0.640625 -0.90625q-0.234375 -0.53125 -0.234375 -1.21875zm6.456314 -4.984375l1.609375 0l0 1.90625l-0.078125 1.03125q0.15625 -0.140625 0.34375 -0.28125q0.203125 -0.15625 0.421875 -0.265625q0.234375 -0.125 0.5 -0.1875q0.265625 -0.078125 0.578125 -0.078125q0.921875 0 1.34375 0.59375q0.421875 0.59375 0.421875 1.640625l0 3.359375l-1.609375 0l0 -3.15625q0 -0.546875 -0.1875 -0.796875q-0.171875 -0.265625 -0.625 -0.265625q-0.328125 0 -0.578125 0.15625q-0.25 0.140625 -0.53125 0.421875l0 3.640625l-1.609375 0l0 -7.71875z" fill-rule="nonzero"></path><path fill="#000000" fill-opacity="0.0" d="m835.4001 302.56223l33.228394 0.2204895" fill-rule="evenodd"></path><path stroke="#595959" stroke-width="1.0" stroke-linejoin="round" stroke-linecap="butt" d="m835.4001 302.56223l27.228516 0.18069458" fill-rule="evenodd"></path><path fill="#595959" stroke="#595959" stroke-width="1.0" stroke-linecap="butt" d="m862.6176 304.3946l4.54895 -1.621582l-4.5270386 -1.6818237z" fill-rule="evenodd"></path><path fill="#000000" fill-opacity="0.0" d="m100.83727 302.78217l33.79528 -0.18899536" fill-rule="evenodd"></path><path stroke="#595959" stroke-width="1.0" stroke-linejoin="round" stroke-linecap="butt" d="m100.83727 302.78217l27.795372 -0.15545654" fill-rule="evenodd"></path><path fill="#595959" stroke="#595959" stroke-width="1.0" stroke-linecap="butt" d="m128.64188 304.27844l4.5287933 -1.6770935l-4.5472717 -1.6263428z" fill-rule="evenodd"></path><path fill="#000000" fill-opacity="0.0" d="m44.333332 302.4357l56.50394 0.34646606" fill-rule="evenodd"></path><path stroke="#595959" stroke-width="1.0" stroke-linejoin="round" stroke-linecap="butt" d="m44.333332 302.4357l50.504047 0.30966187" fill-rule="evenodd"></path><path fill="#595959" stroke="#595959" stroke-width="1.0" stroke-linecap="butt" d="m94.827255 304.39706l4.5481415 -1.6238708l-4.5278854 -1.6795349z" fill-rule="evenodd"></path><path fill="#000000" fill-opacity="0.0" d="m868.6168 302.78217l58.078735 0.18896484" fill-rule="evenodd"></path><path stroke="#595959" stroke-width="1.0" stroke-linejoin="round" stroke-linecap="butt" d="m868.6168 302.78217l52.078735 0.1694336" fill-rule="evenodd"></path><path fill="#595959" stroke="#595959" stroke-width="1.0" stroke-linecap="butt" d="m920.6902 304.60333l4.543457 -1.6369629l-4.532715 -1.6664734z" fill-rule="evenodd"></path><path fill="#000000" fill-opacity="0.0" d="m102.62139 277.01138l29.79528 0l0 25.51181l-29.79528 0z" fill-rule="evenodd"></path><path fill="#000000" d="m111.96514 294.54825l0.953125 -0.15625q0.078125 0.578125 0.4375 0.890625q0.375 0.296875 1.03125 0.296875q0.671875 0 0.984375 -0.265625q0.328125 -0.265625 0.328125 -0.640625q0 -0.328125 -0.28125 -0.515625q-0.203125 -0.125 -0.984375 -0.328125q-1.0625 -0.265625 -1.484375 -0.453125q-0.40625 -0.203125 -0.625 -0.546875q-0.203125 -0.34375 -0.203125 -0.765625q0 -0.390625 0.171875 -0.703125q0.171875 -0.328125 0.484375 -0.546875q0.21875 -0.171875 0.609375 -0.28125q0.390625 -0.109375 0.828125 -0.109375q0.671875 0 1.171875 0.1875q0.515625 0.1875 0.75 0.53125q0.25 0.328125 0.34375 0.875l-0.9375 0.125q-0.078125 -0.4375 -0.390625 -0.671875q-0.296875 -0.25 -0.859375 -0.25q-0.671875 0 -0.953125 0.21875q-0.28125 0.21875 -0.28125 0.515625q0 0.1875 0.109375 0.328125q0.125 0.15625 0.375 0.265625q0.140625 0.046875 0.859375 0.25q1.015625 0.265625 1.421875 0.4375q0.40625 0.171875 0.640625 0.515625q0.234375 0.328125 0.234375 0.828125q0 0.484375 -0.28125 0.90625q-0.28125 0.421875 -0.8125 0.65625q-0.53125 0.234375 -1.203125 0.234375q-1.109375 0 -1.703125 -0.453125q-0.578125 -0.46875 -0.734375 -1.375z" fill-rule="nonzero"></path><path fill="#000000" fill-opacity="0.0" d="m54.62481 270.40765l29.795273 0l0 25.51181l-29.795273 0z" fill-rule="evenodd"></path><path fill="#000000" d="m64.202934 294.39014l1.65625 -0.265625q0.140625 1.0 0.765625 1.53125q0.640625 0.515625 1.78125 0.515625q1.15625 0 1.703125 -0.46875q0.5625 -0.46875 0.5625 -1.09375q0 -0.5625 -0.484375 -0.890625q-0.34375 -0.21875 -1.703125 -0.5625q-1.84375 -0.46875 -2.5625 -0.796875q-0.703125 -0.34375 -1.078125 -0.9375q-0.359375 -0.609375 -0.359375 -1.328125q0 -0.65625 0.296875 -1.21875q0.3125 -0.5625 0.828125 -0.9375q0.390625 -0.28125 1.0625 -0.484375q0.671875 -0.203125 1.4375 -0.203125q1.171875 0 2.046875 0.34375q0.875 0.328125 1.28125 0.90625q0.421875 0.5625 0.578125 1.515625l-1.625 0.21875q-0.109375 -0.75 -0.65625 -1.171875q-0.53125 -0.4375 -1.5 -0.4375q-1.15625 0 -1.640625 0.390625q-0.484375 0.375 -0.484375 0.875q0 0.328125 0.203125 0.59375q0.203125 0.265625 0.640625 0.4375q0.25 0.09375 1.46875 0.4375q1.765625 0.46875 2.46875 0.765625q0.703125 0.296875 1.09375 0.875q0.40625 0.578125 0.40625 1.4375q0 0.828125 -0.484375 1.578125q-0.484375 0.734375 -1.40625 1.140625q-0.921875 0.390625 -2.078125 0.390625q-1.921875 0 -2.9375 -0.796875q-1.0 -0.796875 -1.28125 -2.359375z" fill-rule="nonzero"></path><path fill="#000000" fill-opacity="0.0" d="m833.0899 274.5937l29.795288 0l0 25.51181l-29.795288 0z" fill-rule="evenodd"></path><path fill="#000000" d="m844.93365 292.97433l0.125 0.84375q-0.40625 0.09375 -0.71875 0.09375q-0.53125 0 -0.828125 -0.171875q-0.28125 -0.171875 -0.40625 -0.4375q-0.109375 -0.265625 -0.109375 -1.140625l0 -3.28125l-0.71875 0l0 -0.75l0.71875 0l0 -1.40625l0.953125 -0.59375l0 2.0l0.984375 0l0 0.75l-0.984375 0l0 3.34375q0 0.40625 0.046875 0.53125q0.0625 0.109375 0.171875 0.1875q0.125 0.0625 0.328125 0.0625q0.171875 0 0.4375 -0.03125z" fill-rule="nonzero"></path><path fill="#000000" fill-opacity="0.0" d="m872.71783 272.12857l29.795288 0l0 25.51181l-29.795288 0z" fill-rule="evenodd"></path><path fill="#000000" d="m886.6241 297.54858l0.234375 1.484375q-0.703125 0.140625 -1.265625 0.140625q-0.90625 0 -1.40625 -0.28125q-0.5 -0.296875 -0.703125 -0.75q-0.203125 -0.46875 -0.203125 -1.984375l0 -5.65625l-1.234375 0l0 -1.3125l1.234375 0l0 -2.4375l1.65625 -1.0l0 3.4375l1.6875 0l0 1.3125l-1.6875 0l0 5.75q0 0.71875 0.078125 0.921875q0.09375 0.203125 0.296875 0.328125q0.203125 0.125 0.578125 0.125q0.265625 0 0.734375 -0.078125z" fill-rule="nonzero"></path><path fill="#000000" fill-opacity="0.0" d="m209.30315 302.60892l42.582672 -0.03149414" fill-rule="evenodd"></path><path stroke="#595959" stroke-width="1.0" stroke-linejoin="round" stroke-linecap="butt" d="m209.30315 302.60892l36.582687 -0.027069092" fill-rule="evenodd"></path><path fill="#595959" stroke="#595959" stroke-width="1.0" stroke-linecap="butt" d="m245.88705 304.2336l4.536865 -1.6550903l-4.5393066 -1.6483765z" fill-rule="evenodd"></path><path fill="#000000" fill-opacity="0.0" d="m210.62206 277.0105l42.64566 0l0 25.51181l-42.64566 0z" fill-rule="evenodd"></path><path fill="#000000" d="m224.07518 295.54736q-0.546875 0.453125 -1.046875 0.640625q-0.484375 0.1875 -1.0625 0.1875q-0.9375 0 -1.453125 -0.453125q-0.5 -0.46875 -0.5 -1.171875q0 -0.421875 0.1875 -0.765625q0.203125 -0.34375 0.5 -0.546875q0.3125 -0.21875 0.703125 -0.328125q0.28125 -0.078125 0.859375 -0.140625q1.171875 -0.140625 1.71875 -0.34375q0.015625 -0.1875 0.015625 -0.25q0 -0.59375 -0.28125 -0.828125q-0.359375 -0.328125 -1.09375 -0.328125q-0.6875 0 -1.015625 0.234375q-0.3125 0.234375 -0.46875 0.84375l-0.953125 -0.125q0.125 -0.609375 0.421875 -0.984375q0.296875 -0.375 0.859375 -0.5625q0.5625 -0.203125 1.296875 -0.203125q0.734375 0 1.1875 0.171875q0.453125 0.171875 0.65625 0.4375q0.21875 0.25 0.3125 0.640625q0.046875 0.25 0.046875 0.90625l0 1.28125q0 1.34375 0.0625 1.703125q0.0625 0.359375 0.25 0.6875l-1.015625 0q-0.15625 -0.296875 -0.1875 -0.703125zm-0.09375 -2.15625q-0.515625 0.21875 -1.578125 0.359375q-0.59375 0.09375 -0.84375 0.203125q-0.234375 0.09375 -0.375 0.3125q-0.140625 0.203125 -0.140625 0.453125q0 0.390625 0.296875 0.65625q0.296875 0.25 0.859375 0.25q0.5625 0 0.984375 -0.25q0.4375 -0.25 0.65625 -0.671875q0.140625 -0.328125 0.140625 -0.96875l0 -0.34375zm7.277771 1.59375l0 -2.171875l-2.140625 0l0 -0.890625l2.140625 0l0 -2.15625l0.921875 0l0 2.15625l2.140625 0l0 0.890625l-2.140625 0l0 2.171875l-0.921875 0zm9.277481 0.40625l0.125 0.84375q-0.40625 0.09375 -0.71875 0.09375q-0.53125 0 -0.828125 -0.171875q-0.28125 -0.171875 -0.40625 -0.4375q-0.109375 -0.265625 -0.109375 -1.140625l0 -3.28125l-0.71875 0l0 -0.75l0.71875 0l0 -1.40625l0.953125 -0.59375l0 2.0l0.984375 0l0 0.75l-0.984375 0l0 3.34375q0 0.40625 0.046875 0.53125q0.0625 0.109375 0.171875 0.1875q0.125 0.0625 0.328125 0.0625q0.171875 0 0.4375 -0.03125z" fill-rule="nonzero"></path><path fill="#000000" fill-opacity="0.0" d="m707.5696 302.56168l43.40155 0" fill-rule="evenodd"></path><path stroke="#595959" stroke-width="1.0" stroke-linejoin="round" stroke-linecap="butt" d="m707.5696 302.56168l37.40155 0" fill-rule="evenodd"></path><path fill="#595959" stroke="#595959" stroke-width="1.0" stroke-linecap="butt" d="m744.9711 304.2134l4.538086 -1.6517334l-4.538086 -1.6517334z" fill-rule="evenodd"></path><path fill="#000000" fill-opacity="0.0" d="m705.2267 275.61514l42.64569 0l0 25.51181l-42.64569 0z" fill-rule="evenodd"></path><path fill="#000000" d="m717.07043 293.9958l0.125 0.84375q-0.40625 0.09375 -0.71875 0.09375q-0.53125 0 -0.828125 -0.171875q-0.28125 -0.171875 -0.40625 -0.4375q-0.109375 -0.265625 -0.109375 -1.140625l0 -3.28125l-0.71875 0l0 -0.75l0.71875 0l0 -1.40625l0.953125 -0.59375l0 2.0l0.984375 0l0 0.75l-0.984375 0l0 3.34375q0 0.40625 0.046875 0.53125q0.0625 0.109375 0.171875 0.1875q0.125 0.0625 0.328125 0.0625q0.171875 0 0.4375 -0.03125zm5.8275757 -0.40625l0 -2.171875l-2.140625 0l0 -0.890625l2.140625 0l0 -2.15625l0.921875 0l0 2.15625l2.140625 0l0 0.890625l-2.140625 0l0 2.171875l-0.921875 0zm9.277466 0.40625l0.125 0.84375q-0.40625 0.09375 -0.71875 0.09375q-0.53125 0 -0.828125 -0.171875q-0.28125 -0.171875 -0.40625 -0.4375q-0.109375 -0.265625 -0.109375 -1.140625l0 -3.28125l-0.71875 0l0 -0.75l0.71875 0l0 -1.40625l0.953125 -0.59375l0 2.0l0.984375 0l0 0.75l-0.984375 0l0 3.34375q0 0.40625 0.046875 0.53125q0.0625 0.109375 0.171875 0.1875q0.125 0.0625 0.328125 0.0625q0.171875 0 0.4375 -0.03125z" fill-rule="nonzero"></path><path fill="#000000" fill-opacity="0.0" d="m317.52756 280.45932l36.503937 -0.1574707" fill-rule="evenodd"></path><path stroke="#595959" stroke-width="1.0" stroke-linejoin="round" stroke-linecap="butt" d="m317.52756 280.45932l30.503967 -0.1315918" fill-rule="evenodd"></path><path fill="#595959" stroke="#595959" stroke-width="1.0" stroke-linecap="butt" d="m348.03867 281.97943l4.530945 -1.6712952l-4.5451965 -1.6321411z" fill-rule="evenodd"></path><path fill="#000000" fill-opacity="0.0" d="m489.042 280.31232l35.968506 0.06298828" fill-rule="evenodd"></path><path stroke="#595959" stroke-width="1.0" stroke-linejoin="round" stroke-linecap="butt" d="m489.042 280.31232l29.968506 0.052490234" fill-rule="evenodd"></path><path fill="#595959" stroke="#595959" stroke-width="1.0" stroke-linecap="butt" d="m519.0076 282.01654l4.5409546 -1.6437988l-4.5351562 -1.659668z" fill-rule="evenodd"></path><path fill="#000000" fill-opacity="0.0" d="m599.68243 280.37207l33.66931 0.09448242" fill-rule="evenodd"></path><path stroke="#595959" stroke-width="1.0" stroke-linejoin="round" stroke-linecap="butt" d="m599.68243 280.3721l27.669312 0.07763672" fill-rule="evenodd"></path><path fill="#595959" stroke="#595959" stroke-width="1.0" stroke-linecap="butt" d="m627.3471 282.10147l4.5427246 -1.6390076l-4.5334473 -1.6644592z" fill-rule="evenodd"></path><path fill="#000000" fill-opacity="0.0" d="m320.01675 254.40674l29.795258 0l0 25.51181l-29.795258 0z" fill-rule="evenodd"></path><path fill="#000000" d="m333.46988 272.9436q-0.546875 0.453125 -1.046875 0.640625q-0.484375 0.1875 -1.0625 0.1875q-0.9375 0 -1.453125 -0.453125q-0.5 -0.46875 -0.5 -1.171875q0 -0.421875 0.1875 -0.765625q0.203125 -0.34375 0.5 -0.546875q0.3125 -0.21875 0.703125 -0.328125q0.28125 -0.078125 0.859375 -0.140625q1.171875 -0.140625 1.71875 -0.34375q0.015625 -0.1875 0.015625 -0.25q0 -0.59375 -0.28125 -0.828125q-0.359375 -0.328125 -1.09375 -0.328125q-0.6875 0 -1.015625 0.234375q-0.3125 0.234375 -0.46875 0.84375l-0.953125 -0.125q0.125 -0.609375 0.421875 -0.984375q0.296875 -0.375 0.859375 -0.5625q0.5625 -0.203125 1.296875 -0.203125q0.734375 0 1.1875 0.171875q0.453125 0.171875 0.65625 0.4375q0.21875 0.25 0.3125 0.640625q0.046875 0.25 0.046875 0.90625l0 1.28125q0 1.34375 0.0625 1.703125q0.0625 0.359375 0.25 0.6875l-1.015625 0q-0.15625 -0.296875 -0.1875 -0.703125zm-0.09375 -2.15625q-0.515625 0.21875 -1.578125 0.359375q-0.59375 0.09375 -0.84375 0.203125q-0.234375 0.09375 -0.375 0.3125q-0.140625 0.203125 -0.140625 0.453125q0 0.390625 0.296875 0.65625q0.296875 0.25 0.859375 0.25q0.5625 0 0.984375 -0.25q0.4375 -0.25 0.65625 -0.671875q0.140625 -0.328125 0.140625 -0.96875l0 -0.34375z" fill-rule="nonzero"></path><path fill="#000000" fill-opacity="0.0" d="m492.80743 253.70906l29.795288 0l0 25.511826l-29.795288 0z" fill-rule="evenodd"></path><path fill="#000000" d="m503.4168 272.94907l-0.890625 0l0 -7.875l0.96875 0l0 2.8125q0.609375 -0.765625 1.5625 -0.765625q0.53125 0 1.0 0.21875q0.46875 0.203125 0.765625 0.59375q0.3125 0.375 0.484375 0.921875q0.171875 0.53125 0.171875 1.15625q0 1.46875 -0.734375 2.265625q-0.71875 0.796875 -1.734375 0.796875q-1.015625 0 -1.59375 -0.84375l0 0.71875zm0 -2.890625q0 1.015625 0.28125 1.484375q0.453125 0.734375 1.234375 0.734375q0.625 0 1.078125 -0.546875q0.46875 -0.546875 0.46875 -1.640625q0 -1.109375 -0.4375 -1.640625q-0.4375 -0.53125 -1.078125 -0.53125q-0.625 0 -1.09375 0.546875q-0.453125 0.546875 -0.453125 1.59375z" fill-rule="nonzero"></path><path fill="#000000" fill-opacity="0.0" d="m599.64465 254.40674l29.795288 0l0 25.51181l-29.795288 0z" fill-rule="evenodd"></path><path fill="#000000" d="m611.4884 272.78735l0.125 0.84375q-0.40625 0.09375 -0.71875 0.09375q-0.53125 0 -0.828125 -0.171875q-0.28125 -0.171875 -0.40625 -0.4375q-0.109375 -0.265625 -0.109375 -1.140625l0 -3.28125l-0.71875 0l0 -0.75l0.71875 0l0 -1.40625l0.953125 -0.59375l0 2.0l0.984375 0l0 0.75l-0.984375 0l0 3.34375q0 0.40625 0.046875 0.53125q0.0625 0.109375 0.171875 0.1875q0.125 0.0625 0.328125 0.0625q0.171875 0 0.4375 -0.03125z" fill-rule="nonzero"></path><path fill="#000000" fill-opacity="0.0" d="m290.40945 280.20734l27.118103 0.25198364" fill-rule="evenodd"></path><path stroke="#595959" stroke-width="1.0" stroke-linejoin="round" stroke-linecap="butt" d="m294.19928 280.24255l17.328552 0.16101074" fill-rule="evenodd"></path><path fill="#595959" stroke="#595959" stroke-width="1.0" stroke-linecap="butt" d="m290.90942 280.212c0.008453369 -0.9084778 0.7517395 -1.638092 1.6602173 -1.6296692c0.9084778 0.008453369 1.638092 0.75177 1.6296387 1.6602173c-0.008422852 0.9084778 -0.7517395 1.638092 -1.6602173 1.6296387c-0.90844727 -0.008422852 -1.6380615 -0.7517395 -1.6296387 -1.6601868z" fill-rule="nonzero"></path><path fill="#595959" stroke="#595959" stroke-width="1.0" stroke-linecap="butt" d="m311.51248 282.05524l4.553253 -1.6094971l-4.522583 -1.6938171z" fill-rule="evenodd"></path><path fill="#000000" fill-opacity="0.0" d="m633.33856 280.45932l23.874023 0.1574707" fill-rule="evenodd"></path><path stroke="#595959" stroke-width="1.0" stroke-linejoin="round" stroke-linecap="butt" d="m633.33856 280.45932l20.084106 0.1324768" fill-rule="evenodd"></path><path fill="#595959" stroke="#595959" stroke-width="1.0" stroke-linecap="butt" d="m656.7126 280.6135c-0.0059814453 0.9085083 -0.74731445 1.6401062 -1.6557617 1.6341248c-0.9085083 -0.006011963 -1.6401367 -0.747345 -1.6341553 -1.6558228c0.0059814453 -0.9084778 0.74731445 -1.6401062 1.6558228 -1.6341248c0.9085083 0.006011963 1.6401367 0.747345 1.6340942 1.6558228z" fill-rule="nonzero"></path><path fill="#000000" fill-opacity="0.0" d="m295.04105 363.5087l364.94492 1.3858032" fill-rule="evenodd"></path><path stroke="#595959" stroke-width="1.0" stroke-linejoin="round" stroke-linecap="butt" d="m298.83102 363.5231l357.3649 1.3570251" fill-rule="evenodd"></path><path fill="#595959" stroke="#595959" stroke-width="1.0" stroke-linecap="butt" d="m295.54105 363.5106c0.0034484863 -0.9085083 0.7427368 -1.6421814 1.6512451 -1.6387329c0.9085083 0.0034484863 1.6421814 0.7427368 1.6387329 1.6512146c-0.0034484863 0.9085083 -0.7427368 1.6422119 -1.6512451 1.6387634c-0.9084778 -0.0034484863 -1.6421814 -0.7427368 -1.6387329 -1.6512451z" fill-rule="nonzero"></path><path fill="#595959" stroke="#595959" stroke-width="1.0" stroke-linecap="butt" d="m659.48596 364.8926c-0.003479004 0.9085083 -0.7427368 1.6422119 -1.6512451 1.6387634c-0.9085083 -0.0034484863 -1.6422119 -0.7427368 -1.6387329 -1.6512451c0.0034179688 -0.9085083 0.7427368 -1.6421814 1.6511841 -1.6387329c0.9085083 0.0034484863 1.6422119 0.7427368 1.638794 1.6512146z" fill-rule="nonzero"></path><path fill="#000000" fill-opacity="0.0" d="m272.86786 302.18652l20.157501 -21.039368" fill-rule="evenodd"></path><path stroke="#595959" stroke-width="1.0" stroke-linejoin="round" stroke-linecap="butt" stroke-dasharray="1.0,3.0" d="m272.86786 302.18652l20.157501 -21.039368" fill-rule="evenodd"></path><path fill="#000000" fill-opacity="0.0" d="m252.32643 302.87158l23.244095 -0.09448242" fill-rule="evenodd"></path><path stroke="#595959" stroke-width="1.0" stroke-linejoin="round" stroke-linecap="butt" d="m252.32645 302.87158l19.454132 -0.07910156" fill-rule="evenodd"></path><path fill="#595959" stroke="#595959" stroke-width="1.0" stroke-linecap="butt" d="m275.07056 302.7791c0.003692627 0.9085083 -0.7298279 1.6479797 -1.6383057 1.6516724c-0.9085083 0.003692627 -1.6479797 -0.72979736 -1.6516724 -1.6383057c-0.003692627 -0.9084778 0.72979736 -1.6479797 1.6382751 -1.6516724c0.9085083 -0.003692627 1.6480103 0.72979736 1.6517029 1.6383057z" fill-rule="nonzero"></path><path fill="#000000" fill-opacity="0.0" d="m678.2152 302.81366l29.35437 -0.25198364" fill-rule="evenodd"></path><path stroke="#595959" stroke-width="1.0" stroke-linejoin="round" stroke-linecap="butt" d="m682.00507 302.78113l19.564758 -0.16793823" fill-rule="evenodd"></path><path fill="#595959" stroke="#595959" stroke-width="1.0" stroke-linecap="butt" d="m678.7152 302.80936c-0.0078125 -0.9084778 0.7223511 -1.6512756 1.6307983 -1.6590576c0.9085083 -0.0078125 1.6513062 0.7223511 1.6590576 1.6308289c0.0078125 0.9084778 -0.7223511 1.6512451 -1.6307983 1.6590576c-0.9085083 0.0077819824 -1.6512451 -0.7223511 -1.6590576 -1.6308289z" fill-rule="nonzero"></path><path fill="#595959" stroke="#595959" stroke-width="1.0" stroke-linecap="butt" d="m701.5839 304.26486l4.5238037 -1.6906433l-4.552124 -1.6127014z" fill-rule="evenodd"></path><path fill="#000000" fill-opacity="0.0" d="m654.4173 280.46457l27.905518 23.02362" fill-rule="evenodd"></path><path stroke="#595959" stroke-width="1.0" stroke-linejoin="round" stroke-linecap="butt" stroke-dasharray="1.0,3.0" d="m654.4173 280.46457l27.905518 23.02362" fill-rule="evenodd"></path><path fill="#000000" fill-opacity="0.0" d="m468.80743 338.59277l29.795288 0l0 25.51181l-29.795288 0z" fill-rule="evenodd"></path><path fill="#000000" d="m480.65118 356.97342l0.125 0.84375q-0.40625 0.09375 -0.71875 0.09375q-0.53125 0 -0.828125 -0.171875q-0.28125 -0.171875 -0.40625 -0.4375q-0.109375 -0.265625 -0.109375 -1.140625l0 -3.28125l-0.71875 0l0 -0.75l0.71875 0l0 -1.40625l0.953125 -0.59375l0 2.0l0.984375 0l0 0.75l-0.984375 0l0 3.34375q0 0.40625 0.046875 0.53125q0.0625 0.109375 0.171875 0.1875q0.125 0.0625 0.328125 0.0625q0.171875 0 0.4375 -0.03125z" fill-rule="nonzero"></path><path fill="#000000" fill-opacity="0.0" d="m289.5981 253.38348l29.795288 0l0 25.51181l-29.795288 0z" fill-rule="evenodd"></path><path fill="#000000" d="m303.05124 271.92035q-0.546875 0.453125 -1.046875 0.640625q-0.484375 0.1875 -1.0625 0.1875q-0.9375 0 -1.453125 -0.453125q-0.5 -0.46875 -0.5 -1.171875q0 -0.421875 0.1875 -0.765625q0.203125 -0.34375 0.5 -0.546875q0.3125 -0.21875 0.703125 -0.328125q0.28125 -0.078125 0.859375 -0.140625q1.171875 -0.140625 1.71875 -0.34375q0.015625 -0.1875 0.015625 -0.25q0 -0.59375 -0.28125 -0.828125q-0.359375 -0.328125 -1.09375 -0.328125q-0.6875 0 -1.015625 0.234375q-0.3125 0.234375 -0.46875 0.84375l-0.953125 -0.125q0.125 -0.609375 0.421875 -0.984375q0.296875 -0.375 0.859375 -0.5625q0.5625 -0.203125 1.296875 -0.203125q0.734375 0 1.1875 0.171875q0.453125 0.171875 0.65625 0.4375q0.21875 0.25 0.3125 0.640625q0.046875 0.25 0.046875 0.90625l0 1.28125q0 1.34375 0.0625 1.703125q0.0625 0.359375 0.25 0.6875l-1.015625 0q-0.15625 -0.296875 -0.1875 -0.703125zm-0.09375 -2.15625q-0.515625 0.21875 -1.578125 0.359375q-0.59375 0.09375 -0.84375 0.203125q-0.234375 0.09375 -0.375 0.3125q-0.140625 0.203125 -0.140625 0.453125q0 0.390625 0.296875 0.65625q0.296875 0.25 0.859375 0.25q0.5625 0 0.984375 -0.25q0.4375 -0.25 0.65625 -0.671875q0.140625 -0.328125 0.140625 -0.96875l0 -0.34375z" fill-rule="nonzero"></path><path fill="#000000" fill-opacity="0.0" d="m629.7842 254.36021l29.795288 0l0 25.511826l-29.795288 0z" fill-rule="evenodd"></path><path fill="#000000" d="m641.6279 272.74084l0.125 0.84375q-0.40625 0.09375 -0.71875 0.09375q-0.53125 0 -0.828125 -0.171875q-0.28125 -0.171875 -0.40625 -0.4375q-0.109375 -0.265625 -0.109375 -1.140625l0 -3.28125l-0.71875 0l0 -0.75l0.71875 0l0 -1.40625l0.953125 -0.59375l0 2.0l0.984375 0l0 0.75l-0.984375 0l0 3.34375q0 0.40625 0.046875 0.53125q0.0625 0.109375 0.171875 0.1875q0.125 0.0625 0.328125 0.0625q0.171875 0 0.4375 -0.03125z" fill-rule="nonzero"></path><path fill="#ffffff" d="m750.95917 302.56223l0 0c0 -22.465363 18.902771 -40.677155 42.22046 -40.677155l0 0c11.197571 0 21.936523 4.285614 29.85437 11.9140625c7.9179077 7.6284485 12.366089 17.974854 12.366089 28.763092l0 0c0 22.465393 -18.90271 40.677185 -42.22046 40.677185l0 0c-23.317688 0 -42.22046 -18.211792 -42.22046 -40.677185z" fill-rule="evenodd"></path><path stroke="#595959" stroke-width="1.0" stroke-linejoin="round" stroke-linecap="butt" d="m750.95917 302.56223l0 0c0 -22.465363 18.902771 -40.677155 42.22046 -40.677155l0 0c11.197571 0 21.936523 4.285614 29.85437 11.9140625c7.9179077 7.6284485 12.366089 17.974854 12.366089 28.763092l0 0c0 22.465393 -18.90271 40.677185 -42.22046 40.677185l0 0c-23.317688 0 -42.22046 -18.211792 -42.22046 -40.677185z" fill-rule="evenodd"></path><path fill="#000000" fill-opacity="0.0" d="m792.9119 302.7827l42.48816 -0.2204895" fill-rule="evenodd"></path><path stroke="#595959" stroke-width="1.0" stroke-linejoin="round" stroke-linecap="butt" d="m792.9119 302.7827l36.48828 -0.18936157" fill-rule="evenodd"></path><path fill="#595959" stroke="#595959" stroke-width="1.0" stroke-linecap="butt" d="m829.40875 304.2451l4.52948 -1.6752625l-4.546631 -1.6281738z" fill-rule="evenodd"></path><path fill="#000000" fill-opacity="0.0" d="m763.32526 273.79913l30.2677 28.97638" fill-rule="evenodd"></path><path stroke="#595959" stroke-width="1.0" stroke-linejoin="round" stroke-linecap="butt" d="m763.32526 273.79913l30.2677 28.97638" fill-rule="evenodd"></path><path fill="#000000" fill-opacity="0.0" d="m763.32526 331.32532l30.2677 -28.53543" fill-rule="evenodd"></path><path stroke="#595959" stroke-width="1.0" stroke-linejoin="round" stroke-linecap="butt" d="m763.32526 331.32532l30.2677 -28.53543" fill-rule="evenodd"></path></g></svg>

