<?xml version="1.0" standalone="yes"?>

<svg version="1.1" viewBox="0.0 0.0 960.0 540.0" fill="none" stroke="none" stroke-linecap="square" stroke-miterlimit="10" xmlns="http://www.w3.org/2000/svg" xmlns:xlink="http://www.w3.org/1999/xlink"><clipPath id="g2549d28fde_0_344.0"><path d="m0 0l960.0 0l0 540.0l-960.0 0l0 -540.0z" clip-rule="nonzero"></path></clipPath><g clip-path="url(#g2549d28fde_0_344.0)"><path fill="#ffffff" d="m0 0l960.0 0l0 540.0l-960.0 0z" fill-rule="evenodd"></path><path fill="#eeeeee" d="m100.83727 204.14363l767.77954 0l0 260.9134l-767.77954 0z" fill-rule="evenodd"></path><path stroke="#595959" stroke-width="1.0" stroke-linejoin="round" stroke-linecap="butt" d="m100.83727 204.14363l767.77954 0l0 260.9134l-767.77954 0z" fill-rule="evenodd"></path><path fill="#000000" d="m111.05602 450.64078q0.140625 -0.65625 0.453125 -1.171875q0.3125 -0.53125 0.71875 -0.890625q0.421875 -0.359375 0.90625 -0.5625q0.5 -0.203125 0.96875 -0.203125q0.5 0 0.828125 0.1875q0.328125 0.1875 0.625 0.515625l0.1875 -1.0l0.421875 -2.046875l0.90625 0l-1.65625 7.828125l-0.75 0l0.078125 -0.703125l-0.03125 0q-0.40625 0.34375 -0.921875 0.59375q-0.515625 0.234375 -1.0 0.234375q-0.53125 0 -0.921875 -0.171875q-0.375 -0.1875 -0.609375 -0.546875q-0.234375 -0.359375 -0.296875 -0.875q-0.046875 -0.515625 0.09375 -1.1875zm0.9375 -0.015625q-0.203125 0.96875 0.09375 1.515625q0.3125 0.53125 1.0625 0.53125q0.78125 0 1.671875 -0.8125l0.5625 -2.65625q-0.296875 -0.34375 -0.609375 -0.484375q-0.3125 -0.140625 -0.671875 -0.140625q-0.34375 0 -0.6875 0.15625q-0.328125 0.140625 -0.609375 0.40625q-0.28125 0.265625 -0.5 0.640625q-0.203125 0.375 -0.3125 0.84375zm6.362564 -2.671875l3.390625 0l-1.140625 5.34375l-0.90625 0l0.984375 -4.609375l-2.484375 0l0.15625 -0.734375zm3.078125 -1.109375q-0.3125 0 -0.484375 -0.171875q-0.15625 -0.1875 -0.09375 -0.515625q0.0625 -0.3125 0.3125 -0.5q0.25 -0.203125 0.5625 -0.203125q0.3125 0 0.46875 0.203125q0.15625 0.1875 0.09375 0.5q-0.0625 0.328125 -0.3125 0.515625q-0.234375 0.171875 -0.546875 0.171875zm2.987564 1.109375l0.703125 0l-0.078125 0.703125l0.03125 0q0.28125 -0.375 0.609375 -0.609375q0.328125 -0.234375 0.78125 -0.234375q0.8125 0 0.8125 0.9375q0.328125 -0.421875 0.671875 -0.671875q0.34374237 -0.265625 0.7968674 -0.265625q0.5625 0 0.765625 0.4375q0.203125 0.421875 0.03125 1.21875l-0.8125 3.828125l-0.8593674 0l0.7968674 -3.75q0.203125 -0.953125 -0.390625 -0.953125q-0.28124237 0 -0.5468674 0.203125q-0.25 0.203125 -0.53125 0.625l-0.828125 3.875l-0.71875 0l0.796875 -3.75q0.203125 -0.953125 -0.40625 -0.953125q-0.28125 0 -0.53125 0.203125q-0.25 0.203125 -0.53125 0.625l-0.828125 3.875l-0.875 0l1.140625 -5.34375zm5.7844315 3.953125q0.09375 -0.453125 0.375 -0.78125q0.28125 -0.34375 0.796875 -0.578125q0.53125 -0.234375 1.296875 -0.390625q0.78125 -0.15625 1.828125 -0.25q0.046875 -0.265625 0.015625 -0.5q-0.03125 -0.25 -0.15625 -0.4375q-0.125 -0.1875 -0.375 -0.296875q-0.234375 -0.109375 -0.625 -0.109375q-0.53125 0 -1.0625 0.203125q-0.515625 0.203125 -0.9375 0.4375l-0.21875 -0.609375q0.21875 -0.140625 0.515625 -0.265625q0.3125 -0.140625 0.625 -0.25q0.328125 -0.109375 0.6875 -0.1875q0.359375 -0.078125 0.71875 -0.078125q1.09375 0 1.5 0.609375q0.40625 0.59375 0.203125 1.59375l-0.703125 3.28125l-0.75 0l0.078125 -0.71875l-0.03125 0q-0.53125 0.34375 -1.125 0.59375q-0.59375 0.25 -1.171875 0.25q-0.375 0 -0.6875 -0.109375q-0.296875 -0.09375 -0.515625 -0.28125q-0.203125 -0.203125 -0.28125 -0.46875q-0.078125 -0.28125 0 -0.65625zm0.890625 -0.0625q-0.046875 0.234375 0.015625 0.390625q0.0625 0.15625 0.1875 0.265625q0.140625 0.109375 0.34375 0.15625q0.21875 0.046875 0.453125 0.046875q0.453125 0 0.9375 -0.203125q0.5 -0.203125 1.046875 -0.59375l0.296875 -1.40625q-0.875 0.0625 -1.484375 0.1875q-0.59375 0.125 -0.984375 0.296875q-0.375 0.171875 -0.578125 0.390625q-0.1875 0.203125 -0.234375 0.46875zm6.143814 1.90625l-0.390625 1.796875l-0.90625 0l1.625 -7.59375l0.75 0l-0.078125 0.6875l0.03125 0q0.453125 -0.359375 1.0 -0.59375q0.546875 -0.234375 1.046875 -0.234375q0.53125 0 0.890625 0.203125q0.375 0.1875 0.578125 0.546875q0.21875 0.359375 0.25 0.859375q0.03125 0.5 -0.109375 1.125q-0.140625 0.6875 -0.453125 1.21875q-0.296875 0.53125 -0.71875 0.90625q-0.421875 0.375 -0.90625 0.5625q-0.46875 0.1875 -0.953125 0.1875q-0.375 0 -0.78125 -0.171875q-0.390625 -0.1875 -0.671875 -0.515625l-0.203125 1.015625zm0.359375 -1.703125q0.3125 0.34375 0.671875 0.484375q0.359375 0.140625 0.640625 0.140625q0.71875 0 1.296875 -0.5625q0.578125 -0.5625 0.78125 -1.5625q0.09375 -0.4375 0.078125 -0.796875q0 -0.375 -0.125 -0.625q-0.125 -0.265625 -0.390625 -0.40625q-0.25 -0.140625 -0.640625 -0.140625q-0.359375 0 -0.796875 0.203125q-0.4375 0.1875 -0.953125 0.59375l-0.5625 2.671875z" fill-rule="nonzero"></path><path fill="#000000" d="m148.8564 447.95328l0.703125 0l0.078125 0.703125l0.03125 0q0.203125 -0.375 0.46875 -0.609375q0.28125 -0.234375 0.734375 -0.234375q0.8125 0 1.015625 0.9375q0.234375 -0.421875 0.515625 -0.671875q0.296875 -0.265625 0.75 -0.265625q0.5625 0 0.859375 0.4375q0.296875 0.421875 0.296875 1.21875l0 3.828125l-0.859375 0l0 -3.75q0 -0.953125 -0.59375 -0.953125q-0.28125 0 -0.5 0.203125q-0.203125 0.203125 -0.40625 0.625l0 3.875l-0.71875 0l0 -3.75q0 -0.953125 -0.609375 -0.953125q-0.28125 0 -0.484375 0.203125q-0.203125 0.203125 -0.40625 0.625l0 3.875l-0.875 0l0 -5.34375zm6.628189 3.953125q0 -0.453125 0.203125 -0.78125q0.21875 -0.34375 0.6875 -0.578125q0.46875 -0.234375 1.203125 -0.390625q0.75 -0.15625 1.78125 -0.25q-0.015625 -0.265625 -0.09375 -0.5q-0.078125 -0.25 -0.25 -0.4375q-0.15625 -0.1875 -0.421875 -0.296875q-0.265625 -0.109375 -0.65625 -0.109375q-0.53125 0 -1.015625 0.203125q-0.484375 0.203125 -0.859375 0.4375l-0.34375 -0.609375q0.1875 -0.140625 0.453125 -0.265625q0.28125 -0.140625 0.578125 -0.25q0.3125 -0.109375 0.640625 -0.1875q0.34375 -0.078125 0.703125 -0.078125q1.09375 0 1.625 0.609375q0.546875 0.59375 0.546875 1.59375l0 3.28125l-0.75 0l-0.078125 -0.71875l-0.03125 0q-0.453125 0.34375 -1.0 0.59375q-0.53125 0.25 -1.109375 0.25q-0.375 0 -0.703125 -0.109375q-0.328125 -0.09375 -0.578125 -0.28125q-0.25 -0.203125 -0.390625 -0.46875q-0.140625 -0.28125 -0.140625 -0.65625zm0.875 -0.0625q0 0.234375 0.09375 0.390625q0.109375 0.15625 0.265625 0.265625q0.15625 0.109375 0.375 0.15625q0.21875 0.046875 0.453125 0.046875q0.453125 0 0.890625 -0.203125q0.453125 -0.203125 0.921875 -0.59375l0 -1.40625q-0.859375 0.0625 -1.4375 0.1875q-0.578125 0.125 -0.921875 0.296875q-0.34375 0.171875 -0.5 0.390625q-0.140625 0.203125 -0.140625 0.46875zm6.893814 -3.15625l-1.5 0l0 -0.6875l1.53125 -0.046875l0.125 -1.5l0.75 0l0 1.5l2.625 0l0 0.734375l-2.625 0l0 2.546875q0 0.359375 0.0625 0.625q0.0625 0.265625 0.21875 0.453125q0.15625 0.1875 0.421875 0.28125q0.265625 0.09375 0.640625 0.09375q0.390625 0 0.6875 -0.0625q0.3125 -0.0625 0.609375 -0.171875l0.1875 0.65625q-0.359375 0.125 -0.796875 0.21875q-0.4375 0.09375 -0.875 0.09375q-0.59375 0 -0.984375 -0.15625q-0.390625 -0.15625 -0.640625 -0.4375q-0.234375 -0.296875 -0.34375 -0.703125q-0.09375 -0.40625 -0.09375 -0.90625l0 -2.53125zm5.003189 1.953125q0 -0.671875 0.234375 -1.1875q0.25 -0.53125 0.65625 -0.890625q0.40625 -0.375 0.9375 -0.5625q0.546875 -0.1875 1.15625 -0.1875q0.65625 0 1.140625 0.234375q0.484375 0.234375 0.8125 0.546875l-0.453125 0.59375q-0.328125 -0.296875 -0.6875 -0.453125q-0.359375 -0.171875 -0.78125 -0.171875q-0.453125 0 -0.84375 0.15625q-0.390625 0.140625 -0.65625 0.421875q-0.265625 0.265625 -0.421875 0.65625q-0.15625 0.375 -0.15625 0.84375q0 0.453125 0.140625 0.828125q0.15625 0.375 0.421875 0.65625q0.28125 0.265625 0.65625 0.421875q0.375 0.140625 0.84375 0.140625q0.484375 0 0.890625 -0.1875q0.421875 -0.203125 0.765625 -0.484375l0.390625 0.578125q-0.4375 0.390625 -0.984375 0.609375q-0.53125 0.21875 -1.125 0.21875q-0.640625 0 -1.171875 -0.171875q-0.53125 -0.1875 -0.9375 -0.546875q-0.390625 -0.359375 -0.609375 -0.875q-0.21875 -0.53125 -0.21875 -1.1875zm6.534439 -5.171875l0.90625 0l0 2.125l-0.046875 1.265625q0.4375 -0.453125 0.921875 -0.75q0.484375 -0.296875 1.109375 -0.296875q0.953125 0 1.390625 0.546875q0.453125 0.546875 0.453125 1.609375l0 3.328125l-0.90625 0l0 -3.203125q0 -0.75 -0.28125 -1.125q-0.28125 -0.375 -0.9375 -0.375q-0.25 0 -0.453125 0.0625q-0.203125 0.0625 -0.40625 0.1875q-0.1875 0.125 -0.40625 0.3125q-0.203125 0.171875 -0.4375 0.40625l0 3.734375l-0.90625 0l0 -7.828125zm16.537628 9.765625q-1.140625 -0.890625 -1.8125 -2.140625q-0.671875 -1.265625 -0.671875 -2.859375q0 -1.59375 0.671875 -2.84375q0.671875 -1.25 1.8125 -2.140625l0.5 0.453125q-1.125 0.9375 -1.640625 2.046875q-0.515625 1.09375 -0.515625 2.484375q0 1.40625 0.515625 2.5q0.515625 1.09375 1.640625 2.03125l-0.5 0.46875l0 0zm2.393814 -4.59375q0 -0.671875 0.21875 -1.1875q0.234375 -0.515625 0.609375 -0.875q0.390625 -0.375 0.875 -0.5625q0.484375 -0.203125 1.0 -0.203125q0.578125 0 1.03125 0.1875q0.453125 0.1875 0.765625 0.515625q0.3125 0.328125 0.46875 0.796875q0.171875 0.453125 0.171875 1.015625q0 0.140625 -0.015625 0.28125q0 0.140625 -0.015625 0.234375l-4.1875 0q0.015625 0.421875 0.171875 0.765625q0.171875 0.34375 0.4375 0.59375q0.265625 0.234375 0.625 0.375q0.375 0.125 0.8125 0.125q0.484375 0 0.875 -0.125q0.390625 -0.140625 0.765625 -0.375l0.3125 0.59375q-0.390625 0.265625 -0.90625 0.453125q-0.5 0.171875 -1.15625 0.171875q-0.59375 0 -1.125 -0.1875q-0.515625 -0.1875 -0.90625 -0.546875q-0.390625 -0.359375 -0.609375 -0.875q-0.21875 -0.515625 -0.21875 -1.171875zm4.3125 -0.453125q0 -0.796875 -0.421875 -1.21875q-0.421875 -0.4375 -1.171875 -0.4375q-0.328125 0 -0.640625 0.109375q-0.296875 0.109375 -0.546875 0.328125q-0.234375 0.21875 -0.40625 0.53125q-0.15625 0.296875 -0.203125 0.6875l3.390625 0zm2.300064 -2.234375l3.390625 0l0 5.34375l-0.90625 0l0 -4.609375l-2.484375 0l0 -0.734375zm2.84375 -1.109375q-0.3125 0 -0.515625 -0.171875q-0.203125 -0.1875 -0.203125 -0.515625q0 -0.3125 0.203125 -0.5q0.203125 -0.203125 0.515625 -0.203125q0.3125 0 0.515625 0.203125q0.203125 0.1875 0.203125 0.5q0 0.328125 -0.203125 0.515625q-0.203125 0.171875 -0.515625 0.171875zm4.831314 1.84375l-1.5 0l0 -0.6875l1.53125 -0.046875l0.125 -1.5l0.75 0l0 1.5l2.625 0l0 0.734375l-2.625 0l0 2.546875q0 0.359375 0.0625 0.625q0.0625 0.265625 0.21875 0.453125q0.15625 0.1875 0.421875 0.28125q0.265625 0.09375 0.640625 0.09375q0.390625 0 0.6875 -0.0625q0.3125 -0.0625 0.609375 -0.171875l0.1875 0.65625q-0.359375 0.125 -0.796875 0.21875q-0.4375 0.09375 -0.875 0.09375q-0.59375 0 -0.984375 -0.15625q-0.390625 -0.15625 -0.640625 -0.4375q-0.234375 -0.296875 -0.34375 -0.703125q-0.09375 -0.40625 -0.09375 -0.90625l0 -2.53125zm5.143814 -3.21875l0.90625 0l0 2.125l-0.046875 1.265625q0.4375 -0.453125 0.921875 -0.75q0.484375 -0.296875 1.109375 -0.296875q0.953125 0 1.390625 0.546875q0.453125 0.546875 0.453125 1.609375l0 3.328125l-0.90625 0l0 -3.203125q0 -0.75 -0.28125 -1.125q-0.28125 -0.375 -0.9375 -0.375q-0.25 0 -0.453125 0.0625q-0.203125 0.0625 -0.40625 0.1875q-0.1875 0.125 -0.40625 0.3125q-0.203125 0.171875 -0.4375 0.40625l0 3.734375l-0.90625 0l0 -7.828125zm6.143814 5.171875q0 -0.671875 0.21875 -1.1875q0.234375 -0.515625 0.609375 -0.875q0.390625 -0.375 0.875 -0.5625q0.484375 -0.203125 1.0 -0.203125q0.578125 0 1.03125 0.1875q0.453125 0.1875 0.765625 0.515625q0.3125 0.328125 0.46875 0.796875q0.171875 0.453125 0.171875 1.015625q0 0.140625 -0.015625 0.28125q0 0.140625 -0.015625 0.234375l-4.1875 0q0.015625 0.421875 0.171875 0.765625q0.171875 0.34375 0.4375 0.59375q0.265625 0.234375 0.625 0.375q0.375 0.125 0.8125 0.125q0.484375 0 0.875 -0.125q0.390625 -0.140625 0.765625 -0.375l0.3125 0.59375q-0.390625 0.265625 -0.90625 0.453125q-0.5 0.171875 -1.15625 0.171875q-0.59375 0 -1.125 -0.1875q-0.515625 -0.1875 -0.90625 -0.546875q-0.390625 -0.359375 -0.609375 -0.875q-0.21875 -0.515625 -0.21875 -1.171875zm4.3125 -0.453125q0 -0.796875 -0.421875 -1.21875q-0.421875 -0.4375 -1.171875 -0.4375q-0.328125 0 -0.640625 0.109375q-0.296875 0.109375 -0.546875 0.328125q-0.234375 0.21875 -0.40625 0.53125q-0.15625 0.296875 -0.203125 0.6875l3.390625 0zm2.925064 -2.234375l0.75 0l0.078125 1.265625l0.03125 0q0.40625 -0.65625 1.015625 -1.03125q0.625 -0.375 1.359375 -0.375q0.296875 0 0.546875 0.0625q0.265625 0.046875 0.515625 0.15625l-0.203125 0.78125q-0.296875 -0.09375 -0.484375 -0.125q-0.1875 -0.046875 -0.515625 -0.046875q-0.59375 0 -1.15625 0.34375q-0.5625 0.34375 -1.03125 1.171875l0 3.140625l-0.90625 0l0 -5.34375zm12.162628 0l3.390625 0l0 5.34375l-0.90625 0l0 -4.609375l-2.484375 0l0 -0.734375zm2.84375 -1.109375q-0.3125 0 -0.515625 -0.171875q-0.203125 -0.1875 -0.203125 -0.515625q0 -0.3125 0.203125 -0.5q0.203125 -0.203125 0.515625 -0.203125q0.3125 0 0.515625 0.203125q0.203125 0.1875 0.203125 0.5q0 0.328125 -0.203125 0.515625q-0.203125 0.171875 -0.515625 0.171875zm3.221939 3.796875q0 -0.65625 0.203125 -1.171875q0.203125 -0.53125 0.53125 -0.890625q0.34375 -0.359375 0.78125 -0.5625q0.453125 -0.203125 0.921875 -0.203125q0.5 0 0.859375 0.1875q0.375 0.1875 0.75 0.515625l-0.03125 -1.0l0 -2.046875l0.90625 0l0 7.828125l-0.75 0l-0.078125 -0.703125l-0.03125 0q-0.328125 0.34375 -0.796875 0.59375q-0.453125 0.234375 -0.9375 0.234375q-0.53125 0 -0.953125 -0.171875q-0.421875 -0.1875 -0.734375 -0.546875q-0.3125 -0.359375 -0.484375 -0.875q-0.15625 -0.515625 -0.15625 -1.1875zm0.9375 -0.015625q0 0.96875 0.40625 1.515625q0.421875 0.53125 1.171875 0.53125q0.78125 0 1.5 -0.8125l0 -2.65625q-0.359375 -0.34375 -0.703125 -0.484375q-0.34375 -0.140625 -0.703125 -0.140625q-0.34375 0 -0.65625 0.15625q-0.296875 0.140625 -0.53125 0.40625q-0.21875 0.265625 -0.359375 0.640625q-0.125 0.375 -0.125 0.84375zm12.178253 -2.671875l3.390625 0l0 5.34375l-0.90625 0l0 -4.609375l-2.484375 0l0 -0.734375zm2.84375 -1.109375q-0.3125 0 -0.515625 -0.171875q-0.203125 -0.1875 -0.203125 -0.515625q0 -0.3125 0.203125 -0.5q0.203125 -0.203125 0.515625 -0.203125q0.3125 0 0.515625 0.203125q0.203125 0.1875 0.203125 0.5q0 0.328125 -0.203125 0.515625q-0.203125 0.171875 -0.515625 0.171875zm3.2219543 3.796875q0 -0.65625 0.203125 -1.171875q0.203125 -0.53125 0.53125 -0.890625q0.34375 -0.359375 0.78125 -0.5625q0.453125 -0.203125 0.921875 -0.203125q0.5 0 0.859375 0.1875q0.375 0.1875 0.75 0.515625l-0.03125 -1.0l0 -2.046875l0.90625 0l0 7.828125l-0.75 0l-0.078125 -0.703125l-0.03125 0q-0.328125 0.34375 -0.796875 0.59375q-0.453125 0.234375 -0.9375 0.234375q-0.53125 0 -0.953125 -0.171875q-0.421875 -0.1875 -0.734375 -0.546875q-0.3125 -0.359375 -0.484375 -0.875q-0.15625 -0.515625 -0.15625 -1.1875zm0.9375 -0.015625q0 0.96875 0.40625 1.515625q0.421875 0.53125 1.171875 0.53125q0.78125 0 1.5 -0.8125l0 -2.65625q-0.359375 -0.34375 -0.703125 -0.484375q-0.34375 -0.140625 -0.703125 -0.140625q-0.34375 0 -0.65625 0.15625q-0.296875 0.140625 -0.53125 0.40625q-0.21875 0.265625 -0.359375 0.640625q-0.125 0.375 -0.125 0.84375zm6.143799 4.140625q1.109375 -0.9375 1.625 -2.03125q0.53125 -1.09375 0.53125 -2.5q0 -1.390625 -0.53125 -2.484375q-0.515625 -1.109375 -1.625 -2.046875l0.5 -0.453125q1.140625 0.890625 1.796875 2.140625q0.671875 1.25 0.671875 2.84375q0 1.59375 -0.671875 2.859375q-0.65625 1.25 -1.796875 2.140625l-0.5 -0.46875z" fill-rule="nonzero"></path><path fill="#d9d2e9" d="m251.88452 240.19089l455.68506 0l0 188.37796l-455.68506 0z" fill-rule="evenodd"></path><path stroke="#595959" stroke-width="1.0" stroke-linejoin="round" stroke-linecap="butt" d="m251.88452 240.19089l455.68506 0l0 188.37796l-455.68506 0z" fill-rule="evenodd"></path><path fill="#000000" d="m263.4314 408.9807l2.734375 0l-1.28125 6.09375q-0.125 0.59375 0.09375 0.859375q0.21875 0.265625 0.6875 0.265625q0.453125 0 1.078125 -0.265625l0.09375 0.6875q-0.390625 0.125 -0.734375 0.21875q-0.34375 0.09375 -0.78125 0.09375q-0.859375 0 -1.203125 -0.484375q-0.34375 -0.484375 -0.140625 -1.4375l1.125 -5.296875l-1.828125 0l0.15625 -0.734375zm5.175049 5.171875q0.140625 -0.671875 0.46875 -1.1875q0.34375 -0.515625 0.796875 -0.875q0.46875 -0.375 1.0 -0.5625q0.53125 -0.203125 1.046875 -0.203125q0.578125 0 0.984375 0.1875q0.421875 0.1875 0.65625 0.515625q0.25 0.328125 0.3125 0.796875q0.0625 0.453125 -0.0625 1.015625q-0.03125 0.140625 -0.0625 0.28125q-0.03125 0.140625 -0.078125 0.234375l-4.1875 0q-0.0625 0.421875 0.015625 0.765625q0.09375 0.34375 0.3125 0.59375q0.21875 0.234375 0.546875 0.375q0.34375 0.125 0.78125 0.125q0.484375 0 0.90625 -0.125q0.421875 -0.140625 0.84375 -0.375l0.1875 0.59375q-0.453125 0.265625 -1.0 0.453125q-0.546875 0.171875 -1.203125 0.171875q-0.59375 0 -1.078125 -0.1875q-0.484375 -0.1875 -0.796875 -0.546875q-0.3125 -0.359375 -0.421875 -0.875q-0.109375 -0.515625 0.03125 -1.171875zm4.40625 -0.453125q0.171875 -0.796875 -0.15625 -1.21875q-0.328125 -0.4375 -1.078125 -0.4375q-0.328125 0 -0.65625 0.109375q-0.328125 0.109375 -0.625 0.328125q-0.28125 0.21875 -0.515625 0.53125q-0.21875 0.296875 -0.359375 0.6875l3.390625 0zm8.300079 -3.859375q-0.3125 -0.15625 -0.578125 -0.203125q-0.265625 -0.0625 -0.625 -0.0625q-0.71875 0 -1.125 0.375q-0.390625 0.375 -0.53125 1.03125l-0.09375 0.484375l2.25 0l-0.15625 0.734375l-2.25 0l-0.984375 4.609375l-0.890625 0l0.984375 -4.609375l-1.515625 0l0.140625 -0.6875l1.53125 -0.046875l0.09375 -0.453125q0.203125 -0.984375 0.84375 -1.578125q0.65625 -0.59375 1.765625 -0.59375q0.796875 0 1.484375 0.3125l-0.34375 0.6875zm2.0031738 2.359375l-1.5 0l0.140625 -0.6875l1.546875 -0.046875l0.4375 -1.5l0.75 0l-0.3125 1.5l2.625 0l-0.15625 0.734375l-2.625 0l-0.546875 2.546875q-0.078125 0.359375 -0.078125 0.625q0.015625 0.265625 0.125 0.453125q0.125 0.1875 0.359375 0.28125q0.25 0.09375 0.625 0.09375q0.390625 0 0.703125 -0.0625q0.328125 -0.0625 0.640625 -0.171875l0.0625 0.65625q-0.390625 0.125 -0.859375 0.21875q-0.453125 0.09375 -0.890625 0.09375q-0.59375 0 -0.953125 -0.15625q-0.34375 -0.15625 -0.53125 -0.4375q-0.1875 -0.296875 -0.203125 -0.703125q-0.015625 -0.40625 0.09375 -0.90625l0.546875 -2.53125z" fill-rule="nonzero"></path><path fill="#cfe2f3" d="m394.1286 36.39284l167.30707 0l0 73.00787l-167.30707 0z" fill-rule="evenodd"></path><path stroke="#595959" stroke-width="1.0" stroke-linejoin="round" stroke-linecap="butt" d="m394.1286 36.39284l167.30707 0l0 73.00787l-167.30707 0z" fill-rule="evenodd"></path><path fill="#000000" d="m474.1384 67.538025l2.34375 0l0 2.75l-0.125 1.53125q0.234375 -0.234375 0.515625 -0.4375q0.28125 -0.21875 0.609375 -0.390625q0.328125 -0.171875 0.71875 -0.265625q0.390625 -0.09375 0.84375 -0.09375q1.34375 0 1.953125 0.859375q0.625 0.859375 0.625 2.375l0 4.890625l-2.359375 0l0 -4.59375q0 -0.796875 -0.25 -1.15625q-0.25 -0.375 -0.90625 -0.375q-0.484375 0 -0.84375 0.203125q-0.359375 0.203125 -0.78125 0.625l0 5.296875l-2.34375 0l0 -11.21875z" fill-rule="nonzero"></path><path fill="#000000" fill-opacity="0.0" d="m295.042 72.58182l99.08661 0.31495667" fill-rule="evenodd"></path><path stroke="#595959" stroke-width="1.0" stroke-linejoin="round" stroke-linecap="butt" d="m295.042 72.58182l93.08667 0.2958908" fill-rule="evenodd"></path><path fill="#595959" stroke="#595959" stroke-width="1.0" stroke-linecap="butt" d="m388.12338 74.52943l4.543335 -1.6372986l-4.532837 -1.6661453z" fill-rule="evenodd"></path><path fill="#000000" fill-opacity="0.0" d="m561.43567 72.896774l106.36224 0" fill-rule="evenodd"></path><path stroke="#595959" stroke-width="1.0" stroke-linejoin="round" stroke-linecap="butt" d="m561.43567 72.896774l100.36224 0" fill-rule="evenodd"></path><path fill="#595959" stroke="#595959" stroke-width="1.0" stroke-linecap="butt" d="m661.7979 74.54851l4.538086 -1.6517334l-4.538086 -1.6517334z" fill-rule="evenodd"></path><path fill="#000000" fill-opacity="0.0" d="m327.65747 41.148746l29.51181 0l0 31.49606l-29.51181 0z" fill-rule="evenodd"></path><path fill="#000000" d="m344.34497 66.84999q-0.9375 0.796875 -1.796875 1.125q-0.859375 0.3125 -1.84375 0.3125q-1.609375 0 -2.484375 -0.78125q-0.875 -0.796875 -0.875 -2.03125q0 -0.734375 0.328125 -1.328125q0.328125 -0.5937462 0.859375 -0.9531212q0.53125 -0.359375 1.203125 -0.546875q0.5 -0.140625 1.484375 -0.25q2.03125 -0.25 2.984375 -0.578125q0 -0.34375 0 -0.4375q0 -1.015625 -0.46875 -1.4375q-0.640625 -0.5625 -1.90625 -0.5625q-1.171875 0 -1.734375 0.40625q-0.5625 0.40625 -0.828125 1.46875l-1.640625 -0.234375q0.234375 -1.046875 0.734375 -1.6875q0.515625 -0.640625 1.46875 -0.984375q0.96875 -0.359375 2.25 -0.359375q1.265625 0 2.046875 0.296875q0.78125 0.296875 1.15625 0.75q0.375 0.453125 0.515625 1.140625q0.09375 0.421875 0.09375 1.53125l0 2.234375q0 2.3281212 0.09375 2.9531212q0.109375 0.609375 0.4375 1.171875l-1.75 0q-0.265625 -0.515625 -0.328125 -1.21875zm-0.140625 -3.7187462q-0.90625 0.359375 -2.734375 0.625q-1.03125 0.140625 -1.453125 0.3281212q-0.421875 0.1875 -0.65625 0.546875q-0.234375 0.359375 -0.234375 0.796875q0 0.671875 0.5 1.125q0.515625 0.4375 1.484375 0.4375q0.96875 0 1.71875 -0.421875q0.75 -0.4375 1.109375 -1.15625q0.265625 -0.578125 0.265625 -1.6718712l0 -0.609375z" fill-rule="nonzero"></path><path fill="#000000" fill-opacity="0.0" d="m596.39764 41.148746l29.51178 0l0 31.49606l-29.51178 0z" fill-rule="evenodd"></path><path fill="#000000" d="m608.1945 68.06874l-1.546875 0l0 -13.593746l1.65625 0l0 4.84375q1.0625 -1.328125 2.703125 -1.328125q0.90625 0 1.71875 0.375q0.8125 0.359375 1.328125 1.03125q0.53125 0.65625 0.828125 1.59375q0.296875 0.9375 0.296875 2.0q0 2.5312462 -1.25 3.9218712q-1.25 1.375 -3.0 1.375q-1.75 0 -2.734375 -1.453125l0 1.234375zm-0.015625 -4.999996q0 1.7656212 0.46875 2.5624962q0.796875 1.28125 2.140625 1.28125q1.09375 0 1.890625 -0.9375q0.796875 -0.953125 0.796875 -2.8437462q0 -1.921875 -0.765625 -2.84375q-0.765625 -0.921875 -1.84375 -0.921875q-1.09375 0 -1.890625 0.953125q-0.796875 0.953125 -0.796875 2.75z" fill-rule="nonzero"></path><path fill="#000000" fill-opacity="0.0" d="m0 151.87297l960.69293 1.3858185" fill-rule="evenodd"></path><path stroke="#595959" stroke-width="1.0" stroke-linejoin="round" stroke-linecap="butt" stroke-dasharray="1.0,3.0" d="m0 151.87297l960.69293 1.3858185" fill-rule="evenodd"></path><path fill="#eeeeee" d="m317.52756 260.65546l315.811 0l0 103.24408l-315.811 0z" fill-rule="evenodd"></path><path stroke="#595959" stroke-width="1.0" stroke-linejoin="round" stroke-linecap="butt" d="m317.52756 260.65546l315.811 0l0 103.24408l-315.811 0z" fill-rule="evenodd"></path><path fill="#000000" d="m329.27756 346.79578l0.75 0l-0.203125 1.265625l0.03125 0q0.546875 -0.65625 1.25 -1.03125q0.703125 -0.375 1.4375 -0.375q0.296875 0 0.53125 0.0625q0.25 0.046875 0.484375 0.15625l-0.375 0.78125q-0.28125 -0.09375 -0.46875 -0.125q-0.171875 -0.046875 -0.5 -0.046875q-0.59375 0 -1.234375 0.34375q-0.625 0.34375 -1.265625 1.171875l-0.671875 3.140625l-0.90625 0l1.140625 -5.34375zm5.4407043 0l0.703125 0l-0.078125 0.703125l0.03125 0q0.28125 -0.375 0.609375 -0.609375q0.328125 -0.234375 0.78125 -0.234375q0.8125 0 0.8125 0.9375q0.328125 -0.421875 0.671875 -0.671875q0.34375 -0.265625 0.796875 -0.265625q0.5625 0 0.765625 0.4375q0.203125 0.421875 0.03125 1.21875l-0.8125 3.828125l-0.859375 0l0.796875 -3.75q0.203125 -0.953125 -0.390625 -0.953125q-0.28125 0 -0.546875 0.203125q-0.25 0.203125 -0.53125 0.625l-0.828125 3.875l-0.71875 0l0.796875 -3.75q0.203125 -0.953125 -0.40625 -0.953125q-0.28125 0 -0.53125 0.203125q-0.25 0.203125 -0.53125 0.625l-0.828125 3.875l-0.875 0l1.140625 -5.34375zm5.784424 3.953125q0.09375 -0.453125 0.375 -0.78125q0.28125 -0.34375 0.796875 -0.578125q0.53125 -0.234375 1.296875 -0.390625q0.78125 -0.15625 1.828125 -0.25q0.046875 -0.265625 0.015625 -0.5q-0.03125 -0.25 -0.15625 -0.4375q-0.125 -0.1875 -0.375 -0.296875q-0.234375 -0.109375 -0.625 -0.109375q-0.53125 0 -1.0625 0.203125q-0.515625 0.203125 -0.9375 0.4375l-0.21875 -0.609375q0.21875 -0.140625 0.515625 -0.265625q0.3125 -0.140625 0.625 -0.25q0.328125 -0.109375 0.6875 -0.1875q0.359375 -0.078125 0.71875 -0.078125q1.09375 0 1.5 0.609375q0.40625 0.59375 0.203125 1.59375l-0.703125 3.28125l-0.75 0l0.078125 -0.71875l-0.03125 0q-0.53125 0.34375 -1.125 0.59375q-0.59375 0.25 -1.171875 0.25q-0.375 0 -0.6875 -0.109375q-0.296875 -0.09375 -0.515625 -0.28125q-0.203125 -0.203125 -0.28125 -0.46875q-0.078125 -0.28125 0 -0.65625zm0.890625 -0.0625q-0.046875 0.234375 0.015625 0.390625q0.0625 0.15625 0.1875 0.265625q0.140625 0.109375 0.34375 0.15625q0.21875 0.046875 0.453125 0.046875q0.453125 0 0.9375 -0.203125q0.5 -0.203125 1.046875 -0.59375l0.296875 -1.40625q-0.875 0.0625 -1.484375 0.1875q-0.59375 0.125 -0.984375 0.296875q-0.375 0.171875 -0.578125 0.390625q-0.1875 0.203125 -0.234375 0.46875zm6.1438293 1.90625l-0.390625 1.796875l-0.90625 0l1.625 -7.59375l0.75 0l-0.078125 0.6875l0.03125 0q0.453125 -0.359375 1.0 -0.59375q0.546875 -0.234375 1.046875 -0.234375q0.53125 0 0.890625 0.203125q0.375 0.1875 0.578125 0.546875q0.21875 0.359375 0.25 0.859375q0.03125 0.5 -0.109375 1.125q-0.140625 0.6875 -0.453125 1.21875q-0.296875 0.53125 -0.71875 0.90625q-0.421875 0.375 -0.90625 0.5625q-0.46875 0.1875 -0.953125 0.1875q-0.375 0 -0.78125 -0.171875q-0.390625 -0.1875 -0.671875 -0.515625l-0.203125 1.015625zm0.359375 -1.703125q0.3125 0.34375 0.671875 0.484375q0.359375 0.140625 0.640625 0.140625q0.71875 0 1.296875 -0.5625q0.578125 -0.5625 0.78125 -1.5625q0.09375 -0.4375 0.078125 -0.796875q0 -0.375 -0.125 -0.625q-0.125 -0.265625 -0.390625 -0.40625q-0.25 -0.140625 -0.640625 -0.140625q-0.359375 0 -0.796875 0.203125q-0.4375 0.1875 -0.953125 0.59375l-0.5625 2.671875z" fill-rule="nonzero"></path><path fill="#000000" d="m359.51227 344.3114l0.90625 0l0 2.125l-0.015625 1.046875q0.375 -0.375 0.859375 -0.59375q0.484375 -0.234375 0.953125 -0.234375q0.53125 0 0.953125 0.203125q0.421875 0.1875 0.703125 0.546875q0.28125 0.359375 0.421875 0.859375q0.140625 0.5 0.140625 1.109375q0 0.6875 -0.203125 1.234375q-0.1875 0.53125 -0.53125 0.90625q-0.328125 0.375 -0.765625 0.5625q-0.4375 0.1875 -0.921875 0.1875q-0.375 0 -0.828125 -0.1875q-0.4375 -0.1875 -0.828125 -0.53125l-0.03125 0l-0.078125 0.59375l-0.734375 0l0 -7.828125zm0.90625 6.578125q0.390625 0.34375 0.78125 0.484375q0.390625 0.140625 0.671875 0.140625q0.359375 0 0.65625 -0.140625q0.296875 -0.15625 0.515625 -0.421875q0.21875 -0.28125 0.328125 -0.671875q0.125 -0.390625 0.125 -0.890625q0 -0.4375 -0.09375 -0.796875q-0.078125 -0.375 -0.265625 -0.625q-0.171875 -0.265625 -0.46875 -0.40625q-0.28125 -0.140625 -0.671875 -0.140625q-0.359375 0 -0.765625 0.203125q-0.390625 0.1875 -0.8125 0.59375l0 2.671875zm10.034424 1.25l-0.75 0l-0.078125 -0.9375l-0.03125 0q-0.40625 0.46875 -0.890625 0.765625q-0.484375 0.296875 -1.109375 0.296875q-0.96875 0 -1.421875 -0.53125q-0.4375 -0.546875 -0.4375 -1.625l0 -3.3125l0.921875 0l0 3.203125q0 0.75 0.28125 1.125q0.28125 0.359375 0.9375 0.359375q0.46875 0 0.84375 -0.234375q0.375 -0.234375 0.828125 -0.75l0 -3.703125l0.90625 0l0 5.34375zm1.8157043 -5.34375l3.390625 0l0 5.34375l-0.90625 0l0 -4.609375l-2.484375 0l0 -0.734375zm2.84375 -1.109375q-0.3125 0 -0.515625 -0.171875q-0.203125 -0.1875 -0.203125 -0.515625q0 -0.3125 0.203125 -0.5q0.203125 -0.203125 0.515625 -0.203125q0.3125 0 0.515625 0.203125q0.203125 0.1875 0.203125 0.5q0 0.328125 -0.203125 0.515625q-0.203125 0.171875 -0.515625 0.171875zm3.4562988 -1.375l2.734375 0l0 6.09375q0 0.59375 0.28125 0.859375q0.28125 0.265625 0.75 0.265625q0.453125 0 1.015625 -0.265625l0.234375 0.6875q-0.359375 0.125 -0.6875 0.21875q-0.3125 0.09375 -0.75 0.09375q-0.859375 0 -1.3125 -0.484375q-0.4375 -0.484375 -0.4375 -1.4375l0 -5.296875l-1.828125 0l0 -0.734375zm6.1594543 5.171875q0 -0.65625 0.203125 -1.171875q0.203125 -0.53125 0.53125 -0.890625q0.34375 -0.359375 0.78125 -0.5625q0.453125 -0.203125 0.921875 -0.203125q0.5 0 0.859375 0.1875q0.375 0.1875 0.75 0.515625l-0.03125 -1.0l0 -2.046875l0.90625 0l0 7.828125l-0.75 0l-0.078125 -0.703125l-0.03125 0q-0.328125 0.34375 -0.796875 0.59375q-0.453125 0.234375 -0.9375 0.234375q-0.53125 0 -0.953125 -0.171875q-0.421875 -0.1875 -0.734375 -0.546875q-0.3125 -0.359375 -0.484375 -0.875q-0.15625 -0.515625 -0.15625 -1.1875zm0.9375 -0.015625q0 0.96875 0.40625 1.515625q0.421875 0.53125 1.171875 0.53125q0.78125 0 1.5 -0.8125l0 -2.65625q-0.359375 -0.34375 -0.703125 -0.484375q-0.34375 -0.140625 -0.703125 -0.140625q-0.34375 0 -0.65625 0.15625q-0.296875 0.140625 -0.53125 0.40625q-0.21875 0.265625 -0.359375 0.640625q-0.125 0.375 -0.125 0.84375z" fill-rule="nonzero"></path><path fill="#cfe2f3" d="m354.01837 288.9494l135.02362 0l0 46.362183l-135.02362 0z" fill-rule="evenodd"></path><path stroke="#595959" stroke-width="1.0" stroke-linejoin="round" stroke-linecap="butt" d="m354.01837 288.9494l135.02362 0l0 46.362183l-135.02362 0z" fill-rule="evenodd"></path><path fill="#000000" d="m419.13016 308.15173l1.609375 0l0 1.90625l-0.078125 1.03125q0.15625 -0.140625 0.34375 -0.28125q0.203125 -0.15625 0.421875 -0.265625q0.234375 -0.125 0.5 -0.1875q0.265625 -0.078125 0.578125 -0.078125q0.921875 0 1.34375 0.59375q0.421875 0.59375 0.421875 1.640625l0 3.359375l-1.609375 0l0 -3.15625q0 -0.546875 -0.1875 -0.796875q-0.171875 -0.265625 -0.625 -0.265625q-0.328125 0 -0.578125 0.15625q-0.25 0.140625 -0.53125 0.421875l0 3.640625l-1.609375 0l0 -7.71875z" fill-rule="nonzero"></path><path fill="#f4cccc" d="m525.00525 312.19025l0 0c0 -20.160553 16.717041 -36.503937 37.338623 -36.503937l0 0c9.902771 0 19.400024 3.8459473 26.402344 10.691772c7.0023193 6.8457947 10.936218 16.130737 10.936218 25.812164l0 0c0 20.160583 -16.717041 36.503937 -37.338562 36.503937l0 0c-20.621582 0 -37.338623 -16.343353 -37.338623 -36.503937z" fill-rule="evenodd"></path><path stroke="#595959" stroke-width="1.0" stroke-linejoin="round" stroke-linecap="butt" d="m525.00525 312.19025l0 0c0 -20.160553 16.717041 -36.503937 37.338623 -36.503937l0 0c9.902771 0 19.400024 3.8459473 26.402344 10.691772c7.0023193 6.8457947 10.936218 16.130737 10.936218 25.812164l0 0c0 20.160583 -16.717041 36.503937 -37.338562 36.503937l0 0c-20.621582 0 -37.338623 -16.343353 -37.338623 -36.503937z" fill-rule="evenodd"></path><path fill="#000000" d="m547.1562 308.21152l1.609375 0l0 1.90625l-0.046875 0.84375q0.328125 -0.296875 0.71875 -0.453125q0.40625 -0.171875 0.8125 -0.171875q0.5 0 0.90625 0.203125q0.421875 0.203125 0.703125 0.5625q0.28125 0.34375 0.421875 0.859375q0.15625 0.515625 0.15625 1.140625q0 0.703125 -0.203125 1.265625q-0.1875 0.546875 -0.515625 0.921875q-0.328125 0.375 -0.75 0.578125q-0.421875 0.1875 -0.890625 0.1875q-0.390625 0 -0.765625 -0.171875q-0.375 -0.1875 -0.71875 -0.546875l-0.046875 0l-0.125 0.59375l-1.265625 0l0 -7.71875zm1.609375 6.171875q0.234375 0.1875 0.484375 0.28125q0.25 0.078125 0.46875 0.078125q0.453125 0 0.75 -0.375q0.3125 -0.390625 0.3125 -1.234375q0 -1.46875 -1.0 -1.46875q-0.515625 0 -1.015625 0.5l0 2.21875zm9.768799 1.546875l-1.328125 0l-0.125 -0.78125l-0.03125 0q-0.375 0.421875 -0.8125 0.671875q-0.4375 0.234375 -1.03125 0.234375q-0.9375 0 -1.359375 -0.59375q-0.40625 -0.59375 -0.40625 -1.625l0 -3.359375l1.609375 0l0 3.15625q0 0.546875 0.15625 0.796875q0.171875 0.25 0.640625 0.25q0.3125 0 0.546875 -0.125q0.234375 -0.125 0.515625 -0.5l0 -3.578125l1.625 0l0 5.453125zm1.4875488 -5.453125l3.796875 0l0 5.453125l-1.609375 0l0 -4.1875l-2.1875 0l0 -1.265625zm2.921875 -0.8125q-0.46875 0 -0.78125 -0.25q-0.296875 -0.265625 -0.296875 -0.71875q0 -0.453125 0.296875 -0.734375q0.3125 -0.28125 0.78125 -0.28125q0.46875 0 0.765625 0.28125q0.3125 0.28125 0.3125 0.734375q0 0.453125 -0.3125 0.71875q-0.296875 0.25 -0.765625 0.25zm3.2844849 -1.453125l3.203125 0l0 5.65625q0 0.25 0.0625 0.421875q0.078125 0.171875 0.203125 0.28125q0.125 0.09375 0.28125 0.140625q0.15625 0.046875 0.328125 0.046875q0.1875 0 0.390625 -0.03125q0.21875 -0.046875 0.46875 -0.15625l0.359375 1.1875q-0.21875 0.078125 -0.40625 0.140625q-0.1875 0.046875 -0.375 0.078125q-0.1875 0.046875 -0.40625 0.0625q-0.203125 0.015625 -0.453125 0.015625q-1.03125 0 -1.5625 -0.609375q-0.515625 -0.609375 -0.515625 -1.65625l0 -4.296875l-1.578125 0l0 -1.28125zm6.221924 4.984375q0 -0.671875 0.1875 -1.1875q0.203125 -0.53125 0.53125 -0.890625q0.328125 -0.375 0.734375 -0.578125q0.421875 -0.203125 0.875 -0.203125q0.484375 0 0.796875 0.171875q0.3125 0.15625 0.609375 0.421875l-0.0625 -0.859375l0 -1.859375l1.625 0l0 7.71875l-1.328125 0l-0.125 -0.5625l-0.03125 0q-0.296875 0.296875 -0.703125 0.5q-0.390625 0.1875 -0.8125 0.1875q-0.515625 0 -0.9375 -0.1875q-0.421875 -0.203125 -0.734375 -0.5625q-0.296875 -0.375 -0.46875 -0.90625q-0.15625 -0.53125 -0.15625 -1.203125zm1.65625 -0.015625q0 0.8125 0.28125 1.1875q0.28125 0.375 0.78125 0.375q0.28125 0 0.5 -0.109375q0.234375 -0.125 0.453125 -0.390625l0 -2.21875q-0.21875 -0.203125 -0.453125 -0.28125q-0.21875 -0.078125 -0.453125 -0.078125q-0.453125 0 -0.78125 0.375q-0.328125 0.375 -0.328125 1.140625z" fill-rule="nonzero"></path><path fill="#d9ead3" d="m134.62598 334.4271l0 0c0 -20.160553 16.717056 -36.503937 37.338593 -36.503937l0 0c9.9028015 0 19.400024 3.8459473 26.402359 10.691772c7.00235 6.8457947 10.936218 16.130737 10.936218 25.812164l0 0c0 20.160583 -16.717056 36.503937 -37.338577 36.503937l0 0c-20.621536 0 -37.338593 -16.343353 -37.338593 -36.503937z" fill-rule="evenodd"></path><path stroke="#595959" stroke-width="1.0" stroke-linejoin="round" stroke-linecap="butt" d="m134.62598 334.4271l0 0c0 -20.160553 16.717056 -36.503937 37.338593 -36.503937l0 0c9.9028015 0 19.400024 3.8459473 26.402359 10.691772c7.00235 6.8457947 10.936218 16.130737 10.936218 25.812164l0 0c0 20.160583 -16.717056 36.503937 -37.338577 36.503937l0 0c-20.621536 0 -37.338593 -16.343353 -37.338593 -36.503937z" fill-rule="evenodd"></path><path fill="#000000" d="m156.37065 332.714l1.21875 0l0.125 0.671875l0.03125 0q0.15625 -0.328125 0.421875 -0.5625q0.28125 -0.25 0.75 -0.25q0.359375 0 0.609375 0.234375q0.25 0.21875 0.34375 0.65625q0.15625 -0.375 0.4375 -0.625q0.296875 -0.265625 0.765625 -0.265625q0.578125 0 0.890625 0.46875q0.3125 0.46875 0.3125 1.296875l0 3.828125l-1.515625 0l0 -3.703125q0 -0.515625 -0.296875 -0.515625q-0.296875 0 -0.515625 0.53125l0 3.6875l-1.234375 0l0 -3.703125q0 -0.515625 -0.328125 -0.515625q-0.15625 0 -0.265625 0.140625q-0.109375 0.125 -0.234375 0.390625l0 3.6875l-1.515625 0l0 -5.453125zm6.675064 3.9375q0 -0.46875 0.1875 -0.8125q0.203125 -0.34375 0.640625 -0.578125q0.4375 -0.25 1.109375 -0.390625q0.6875 -0.15625 1.65625 -0.21875q-0.046875 -0.375 -0.328125 -0.578125q-0.28125 -0.203125 -0.828125 -0.203125q-0.40625 0 -0.8125 0.140625q-0.390625 0.125 -0.859375 0.359375l-0.5625 -1.046875q0.5625 -0.328125 1.203125 -0.53125q0.640625 -0.21875 1.34375 -0.21875q1.140625 0 1.796875 0.609375q0.671875 0.609375 0.671875 1.859375l0 3.125l-1.328125 0l-0.125 -0.609375l-0.03125 0q-0.421875 0.3125 -0.921875 0.53125q-0.5 0.203125 -1.015625 0.203125q-0.421875 0 -0.75 -0.125q-0.328125 -0.125 -0.5625 -0.34375q-0.234375 -0.234375 -0.359375 -0.53125q-0.125 -0.296875 -0.125 -0.640625zm1.546875 -0.125q0 0.265625 0.203125 0.390625q0.203125 0.125 0.5625 0.125q0.359375 0 0.671875 -0.140625q0.328125 -0.15625 0.609375 -0.375l0 -0.90625q-0.609375 0.03125 -1.0 0.109375q-0.390625 0.078125 -0.625 0.203125q-0.234375 0.109375 -0.328125 0.265625q-0.09375 0.15625 -0.09375 0.328125zm6.081314 -2.546875l-1.375 0l0 -1.203125l1.453125 -0.0625l0.21875 -1.453125l1.328125 0l0 1.453125l2.3125 0l0 1.265625l-2.3125 0l0 1.90625q0 0.625 0.265625 0.890625q0.28125 0.25 0.875 0.25q0.328125 0 0.578125 -0.046875q0.265625 -0.0625 0.515625 -0.140625l0.28125 1.15625q-0.359375 0.109375 -0.8125 0.203125q-0.4375 0.09375 -0.96875 0.09375q-0.640625 0 -1.09375 -0.171875q-0.453125 -0.171875 -0.734375 -0.484375q-0.28125 -0.3125 -0.40625 -0.75q-0.125 -0.453125 -0.125 -0.984375l0 -1.921875zm5.221939 1.453125q0 -0.671875 0.25 -1.203125q0.265625 -0.546875 0.703125 -0.90625q0.4375 -0.359375 1.0 -0.546875q0.578125 -0.203125 1.203125 -0.203125q0.65625 0 1.171875 0.21875q0.53125 0.203125 0.875 0.53125l-0.75 1.0q-0.59375 -0.4375 -1.203125 -0.4375q-0.703125 0 -1.15625 0.421875q-0.4375 0.421875 -0.4375 1.125q0 0.71875 0.421875 1.140625q0.4375 0.421875 1.109375 0.421875q0.4375 0 0.796875 -0.15625q0.359375 -0.15625 0.65625 -0.359375l0.65625 1.015625q-0.5 0.421875 -1.109375 0.609375q-0.59375 0.1875 -1.15625 0.1875q-0.640625 0 -1.1875 -0.1875q-0.546875 -0.1875 -0.96875 -0.546875q-0.40625 -0.375 -0.640625 -0.90625q-0.234375 -0.53125 -0.234375 -1.21875zm6.456314 -4.984375l1.609375 0l0 1.90625l-0.078125 1.03125q0.15625 -0.140625 0.34375 -0.28125q0.203125 -0.15625 0.421875 -0.265625q0.234375 -0.125 0.5 -0.1875q0.265625 -0.078125 0.578125 -0.078125q0.921875 0 1.34375 0.59375q0.421875 0.59375 0.421875 1.640625l0 3.359375l-1.609375 0l0 -3.15625q0 -0.546875 -0.1875 -0.796875q-0.171875 -0.265625 -0.625 -0.265625q-0.328125 0 -0.578125 0.15625q-0.25 0.140625 -0.53125 0.421875l0 3.640625l-1.609375 0l0 -7.71875z" fill-rule="nonzero"></path><path fill="#000000" fill-opacity="0.0" d="m835.4001 334.3804l33.228394 0.2204895" fill-rule="evenodd"></path><path stroke="#595959" stroke-width="1.0" stroke-linejoin="round" stroke-linecap="butt" d="m835.4001 334.3804l27.228516 0.18069458" fill-rule="evenodd"></path><path fill="#595959" stroke="#595959" stroke-width="1.0" stroke-linecap="butt" d="m862.6176 336.21277l4.54895 -1.621582l-4.5270386 -1.6817932z" fill-rule="evenodd"></path><path fill="#000000" fill-opacity="0.0" d="m100.83727 334.60034l33.79528 -0.18899536" fill-rule="evenodd"></path><path stroke="#595959" stroke-width="1.0" stroke-linejoin="round" stroke-linecap="butt" d="m100.83727 334.60034l27.795372 -0.15542603" fill-rule="evenodd"></path><path fill="#595959" stroke="#595959" stroke-width="1.0" stroke-linecap="butt" d="m128.64188 336.09662l4.5287933 -1.6770935l-4.5472717 -1.6263123z" fill-rule="evenodd"></path><path fill="#000000" fill-opacity="0.0" d="m44.333332 334.25388l56.50394 0.34646606" fill-rule="evenodd"></path><path stroke="#595959" stroke-width="1.0" stroke-linejoin="round" stroke-linecap="butt" d="m44.333332 334.25388l50.504047 0.30966187" fill-rule="evenodd"></path><path fill="#595959" stroke="#595959" stroke-width="1.0" stroke-linecap="butt" d="m94.827255 336.21524l4.5481415 -1.6238708l-4.5278854 -1.6795349z" fill-rule="evenodd"></path><path fill="#000000" fill-opacity="0.0" d="m868.6168 334.60034l58.078735 0.18896484" fill-rule="evenodd"></path><path stroke="#595959" stroke-width="1.0" stroke-linejoin="round" stroke-linecap="butt" d="m868.6168 334.60034l52.078735 0.1694336" fill-rule="evenodd"></path><path fill="#595959" stroke="#595959" stroke-width="1.0" stroke-linecap="butt" d="m920.6902 336.4215l4.543457 -1.6369629l-4.532715 -1.6664734z" fill-rule="evenodd"></path><path fill="#000000" fill-opacity="0.0" d="m102.62139 308.82956l29.79528 0l0 25.51181l-29.79528 0z" fill-rule="evenodd"></path><path fill="#000000" d="m111.96514 326.36642l0.953125 -0.15625q0.078125 0.578125 0.4375 0.890625q0.375 0.296875 1.03125 0.296875q0.671875 0 0.984375 -0.265625q0.328125 -0.265625 0.328125 -0.640625q0 -0.328125 -0.28125 -0.515625q-0.203125 -0.125 -0.984375 -0.328125q-1.0625 -0.265625 -1.484375 -0.453125q-0.40625 -0.203125 -0.625 -0.546875q-0.203125 -0.34375 -0.203125 -0.765625q0 -0.390625 0.171875 -0.703125q0.171875 -0.328125 0.484375 -0.546875q0.21875 -0.171875 0.609375 -0.28125q0.390625 -0.109375 0.828125 -0.109375q0.671875 0 1.171875 0.1875q0.515625 0.1875 0.75 0.53125q0.25 0.328125 0.34375 0.875l-0.9375 0.125q-0.078125 -0.4375 -0.390625 -0.671875q-0.296875 -0.25 -0.859375 -0.25q-0.671875 0 -0.953125 0.21875q-0.28125 0.21875 -0.28125 0.515625q0 0.1875 0.109375 0.328125q0.125 0.15625 0.375 0.265625q0.140625 0.046875 0.859375 0.25q1.015625 0.265625 1.421875 0.4375q0.40625 0.171875 0.640625 0.515625q0.234375 0.328125 0.234375 0.828125q0 0.484375 -0.28125 0.90625q-0.28125 0.421875 -0.8125 0.65625q-0.53125 0.234375 -1.203125 0.234375q-1.109375 0 -1.703125 -0.453125q-0.578125 -0.46875 -0.734375 -1.375z" fill-rule="nonzero"></path><path fill="#000000" fill-opacity="0.0" d="m54.62481 302.22583l29.795273 0l0 25.51181l-29.795273 0z" fill-rule="evenodd"></path><path fill="#000000" d="m64.202934 326.2083l1.65625 -0.265625q0.140625 1.0 0.765625 1.53125q0.640625 0.515625 1.78125 0.515625q1.15625 0 1.703125 -0.46875q0.5625 -0.46875 0.5625 -1.09375q0 -0.5625 -0.484375 -0.890625q-0.34375 -0.21875 -1.703125 -0.5625q-1.84375 -0.46875 -2.5625 -0.796875q-0.703125 -0.34375 -1.078125 -0.9375q-0.359375 -0.609375 -0.359375 -1.328125q0 -0.65625 0.296875 -1.21875q0.3125 -0.5625 0.828125 -0.9375q0.390625 -0.28125 1.0625 -0.484375q0.671875 -0.203125 1.4375 -0.203125q1.171875 0 2.046875 0.34375q0.875 0.328125 1.28125 0.90625q0.421875 0.5625 0.578125 1.515625l-1.625 0.21875q-0.109375 -0.75 -0.65625 -1.171875q-0.53125 -0.4375 -1.5 -0.4375q-1.15625 0 -1.640625 0.390625q-0.484375 0.375 -0.484375 0.875q0 0.328125 0.203125 0.59375q0.203125 0.265625 0.640625 0.4375q0.25 0.09375 1.46875 0.4375q1.765625 0.46875 2.46875 0.765625q0.703125 0.296875 1.09375 0.875q0.40625 0.578125 0.40625 1.4375q0 0.828125 -0.484375 1.578125q-0.484375 0.734375 -1.40625 1.140625q-0.921875 0.390625 -2.078125 0.390625q-1.921875 0 -2.9375 -0.796875q-1.0 -0.796875 -1.28125 -2.359375z" fill-rule="nonzero"></path><path fill="#000000" fill-opacity="0.0" d="m833.0899 306.41187l29.795288 0l0 25.51181l-29.795288 0z" fill-rule="evenodd"></path><path fill="#000000" d="m844.93365 324.7925l0.125 0.84375q-0.40625 0.09375 -0.71875 0.09375q-0.53125 0 -0.828125 -0.171875q-0.28125 -0.171875 -0.40625 -0.4375q-0.109375 -0.265625 -0.109375 -1.140625l0 -3.28125l-0.71875 0l0 -0.75l0.71875 0l0 -1.40625l0.953125 -0.59375l0 2.0l0.984375 0l0 0.75l-0.984375 0l0 3.34375q0 0.40625 0.046875 0.53125q0.0625 0.109375 0.171875 0.1875q0.125 0.0625 0.328125 0.0625q0.171875 0 0.4375 -0.03125z" fill-rule="nonzero"></path><path fill="#000000" fill-opacity="0.0" d="m872.71783 303.94675l29.795288 0l0 25.51181l-29.795288 0z" fill-rule="evenodd"></path><path fill="#000000" d="m886.6241 329.36676l0.234375 1.484375q-0.703125 0.140625 -1.265625 0.140625q-0.90625 0 -1.40625 -0.28125q-0.5 -0.296875 -0.703125 -0.75q-0.203125 -0.46875 -0.203125 -1.984375l0 -5.65625l-1.234375 0l0 -1.3125l1.234375 0l0 -2.4375l1.65625 -1.0l0 3.4375l1.6875 0l0 1.3125l-1.6875 0l0 5.75q0 0.71875 0.078125 0.921875q0.09375 0.203125 0.296875 0.328125q0.203125 0.125 0.578125 0.125q0.265625 0 0.734375 -0.078125z" fill-rule="nonzero"></path><path fill="#000000" fill-opacity="0.0" d="m209.30315 334.4271l42.582672 -0.03149414" fill-rule="evenodd"></path><path stroke="#595959" stroke-width="1.0" stroke-linejoin="round" stroke-linecap="butt" d="m209.30315 334.4271l36.582687 -0.027069092" fill-rule="evenodd"></path><path fill="#595959" stroke="#595959" stroke-width="1.0" stroke-linecap="butt" d="m245.88705 336.0518l4.536865 -1.6550903l-4.5393066 -1.6483765z" fill-rule="evenodd"></path><path fill="#000000" fill-opacity="0.0" d="m210.62206 308.82867l42.64566 0l0 25.51181l-42.64566 0z" fill-rule="evenodd"></path><path fill="#000000" d="m224.07518 327.36554q-0.546875 0.453125 -1.046875 0.640625q-0.484375 0.1875 -1.0625 0.1875q-0.9375 0 -1.453125 -0.453125q-0.5 -0.46875 -0.5 -1.171875q0 -0.421875 0.1875 -0.765625q0.203125 -0.34375 0.5 -0.546875q0.3125 -0.21875 0.703125 -0.328125q0.28125 -0.078125 0.859375 -0.140625q1.171875 -0.140625 1.71875 -0.34375q0.015625 -0.1875 0.015625 -0.25q0 -0.59375 -0.28125 -0.828125q-0.359375 -0.328125 -1.09375 -0.328125q-0.6875 0 -1.015625 0.234375q-0.3125 0.234375 -0.46875 0.84375l-0.953125 -0.125q0.125 -0.609375 0.421875 -0.984375q0.296875 -0.375 0.859375 -0.5625q0.5625 -0.203125 1.296875 -0.203125q0.734375 0 1.1875 0.171875q0.453125 0.171875 0.65625 0.4375q0.21875 0.25 0.3125 0.640625q0.046875 0.25 0.046875 0.90625l0 1.28125q0 1.34375 0.0625 1.703125q0.0625 0.359375 0.25 0.6875l-1.015625 0q-0.15625 -0.296875 -0.1875 -0.703125zm-0.09375 -2.15625q-0.515625 0.21875 -1.578125 0.359375q-0.59375 0.09375 -0.84375 0.203125q-0.234375 0.09375 -0.375 0.3125q-0.140625 0.203125 -0.140625 0.453125q0 0.390625 0.296875 0.65625q0.296875 0.25 0.859375 0.25q0.5625 0 0.984375 -0.25q0.4375 -0.25 0.65625 -0.671875q0.140625 -0.328125 0.140625 -0.96875l0 -0.34375zm7.277771 1.59375l0 -2.171875l-2.140625 0l0 -0.890625l2.140625 0l0 -2.15625l0.921875 0l0 2.15625l2.140625 0l0 0.890625l-2.140625 0l0 2.171875l-0.921875 0zm9.277481 0.40625l0.125 0.84375q-0.40625 0.09375 -0.71875 0.09375q-0.53125 0 -0.828125 -0.171875q-0.28125 -0.171875 -0.40625 -0.4375q-0.109375 -0.265625 -0.109375 -1.140625l0 -3.28125l-0.71875 0l0 -0.75l0.71875 0l0 -1.40625l0.953125 -0.59375l0 2.0l0.984375 0l0 0.75l-0.984375 0l0 3.34375q0 0.40625 0.046875 0.53125q0.0625 0.109375 0.171875 0.1875q0.125 0.0625 0.328125 0.0625q0.171875 0 0.4375 -0.03125z" fill-rule="nonzero"></path><path fill="#000000" fill-opacity="0.0" d="m707.5696 334.37985l43.40155 0" fill-rule="evenodd"></path><path stroke="#595959" stroke-width="1.0" stroke-linejoin="round" stroke-linecap="butt" d="m707.5696 334.37985l37.40155 0" fill-rule="evenodd"></path><path fill="#595959" stroke="#595959" stroke-width="1.0" stroke-linecap="butt" d="m744.9711 336.0316l4.538086 -1.6517334l-4.538086 -1.6517334z" fill-rule="evenodd"></path><path fill="#000000" fill-opacity="0.0" d="m705.2267 307.43332l42.64569 0l0 25.51181l-42.64569 0z" fill-rule="evenodd"></path><path fill="#000000" d="m717.07043 325.81396l0.125 0.84375q-0.40625 0.09375 -0.71875 0.09375q-0.53125 0 -0.828125 -0.171875q-0.28125 -0.171875 -0.40625 -0.4375q-0.109375 -0.265625 -0.109375 -1.140625l0 -3.28125l-0.71875 0l0 -0.75l0.71875 0l0 -1.40625l0.953125 -0.59375l0 2.0l0.984375 0l0 0.75l-0.984375 0l0 3.34375q0 0.40625 0.046875 0.53125q0.0625 0.109375 0.171875 0.1875q0.125 0.0625 0.328125 0.0625q0.171875 0 0.4375 -0.03125zm5.8275757 -0.40625l0 -2.171875l-2.140625 0l0 -0.890625l2.140625 0l0 -2.15625l0.921875 0l0 2.15625l2.140625 0l0 0.890625l-2.140625 0l0 2.171875l-0.921875 0zm9.277466 0.40625l0.125 0.84375q-0.40625 0.09375 -0.71875 0.09375q-0.53125 0 -0.828125 -0.171875q-0.28125 -0.171875 -0.40625 -0.4375q-0.109375 -0.265625 -0.109375 -1.140625l0 -3.28125l-0.71875 0l0 -0.75l0.71875 0l0 -1.40625l0.953125 -0.59375l0 2.0l0.984375 0l0 0.75l-0.984375 0l0 3.34375q0 0.40625 0.046875 0.53125q0.0625 0.109375 0.171875 0.1875q0.125 0.0625 0.328125 0.0625q0.171875 0 0.4375 -0.03125z" fill-rule="nonzero"></path><path fill="#000000" fill-opacity="0.0" d="m317.52756 312.2775l36.503937 -0.1574707" fill-rule="evenodd"></path><path stroke="#595959" stroke-width="1.0" stroke-linejoin="round" stroke-linecap="butt" d="m317.52756 312.2775l30.503967 -0.1315918" fill-rule="evenodd"></path><path fill="#595959" stroke="#595959" stroke-width="1.0" stroke-linecap="butt" d="m348.03867 313.7976l4.530945 -1.6712952l-4.5451965 -1.6321411z" fill-rule="evenodd"></path><path fill="#000000" fill-opacity="0.0" d="m489.042 312.1305l35.968506 0.06298828" fill-rule="evenodd"></path><path stroke="#595959" stroke-width="1.0" stroke-linejoin="round" stroke-linecap="butt" d="m489.042 312.1305l29.968506 0.052490234" fill-rule="evenodd"></path><path fill="#595959" stroke="#595959" stroke-width="1.0" stroke-linecap="butt" d="m519.0076 313.83472l4.5409546 -1.6437988l-4.5351562 -1.659668z" fill-rule="evenodd"></path><path fill="#000000" fill-opacity="0.0" d="m599.68243 312.19025l33.66931 0.09451294" fill-rule="evenodd"></path><path stroke="#595959" stroke-width="1.0" stroke-linejoin="round" stroke-linecap="butt" d="m599.68243 312.19025l27.669312 0.07766724" fill-rule="evenodd"></path><path fill="#595959" stroke="#595959" stroke-width="1.0" stroke-linecap="butt" d="m627.3471 313.91962l4.5427246 -1.638977l-4.5334473 -1.6644592z" fill-rule="evenodd"></path><path fill="#000000" fill-opacity="0.0" d="m320.01675 286.2249l29.795258 0l0 25.51181l-29.795258 0z" fill-rule="evenodd"></path><path fill="#000000" d="m333.46988 304.76178q-0.546875 0.453125 -1.046875 0.640625q-0.484375 0.1875 -1.0625 0.1875q-0.9375 0 -1.453125 -0.453125q-0.5 -0.46875 -0.5 -1.171875q0 -0.421875 0.1875 -0.765625q0.203125 -0.34375 0.5 -0.546875q0.3125 -0.21875 0.703125 -0.328125q0.28125 -0.078125 0.859375 -0.140625q1.171875 -0.140625 1.71875 -0.34375q0.015625 -0.1875 0.015625 -0.25q0 -0.59375 -0.28125 -0.828125q-0.359375 -0.328125 -1.09375 -0.328125q-0.6875 0 -1.015625 0.234375q-0.3125 0.234375 -0.46875 0.84375l-0.953125 -0.125q0.125 -0.609375 0.421875 -0.984375q0.296875 -0.375 0.859375 -0.5625q0.5625 -0.203125 1.296875 -0.203125q0.734375 0 1.1875 0.171875q0.453125 0.171875 0.65625 0.4375q0.21875 0.25 0.3125 0.640625q0.046875 0.25 0.046875 0.90625l0 1.28125q0 1.34375 0.0625 1.703125q0.0625 0.359375 0.25 0.6875l-1.015625 0q-0.15625 -0.296875 -0.1875 -0.703125zm-0.09375 -2.15625q-0.515625 0.21875 -1.578125 0.359375q-0.59375 0.09375 -0.84375 0.203125q-0.234375 0.09375 -0.375 0.3125q-0.140625 0.203125 -0.140625 0.453125q0 0.390625 0.296875 0.65625q0.296875 0.25 0.859375 0.25q0.5625 0 0.984375 -0.25q0.4375 -0.25 0.65625 -0.671875q0.140625 -0.328125 0.140625 -0.96875l0 -0.34375z" fill-rule="nonzero"></path><path fill="#000000" fill-opacity="0.0" d="m492.80743 285.52725l29.795288 0l0 25.51181l-29.795288 0z" fill-rule="evenodd"></path><path fill="#000000" d="m503.4168 304.76724l-0.890625 0l0 -7.875l0.96875 0l0 2.8125q0.609375 -0.765625 1.5625 -0.765625q0.53125 0 1.0 0.21875q0.46875 0.203125 0.765625 0.59375q0.3125 0.375 0.484375 0.921875q0.171875 0.53125 0.171875 1.15625q0 1.46875 -0.734375 2.265625q-0.71875 0.796875 -1.734375 0.796875q-1.015625 0 -1.59375 -0.84375l0 0.71875zm0 -2.890625q0 1.015625 0.28125 1.484375q0.453125 0.734375 1.234375 0.734375q0.625 0 1.078125 -0.546875q0.46875 -0.546875 0.46875 -1.640625q0 -1.109375 -0.4375 -1.640625q-0.4375 -0.53125 -1.078125 -0.53125q-0.625 0 -1.09375 0.546875q-0.453125 0.546875 -0.453125 1.59375z" fill-rule="nonzero"></path><path fill="#000000" fill-opacity="0.0" d="m599.64465 286.2249l29.795288 0l0 25.51181l-29.795288 0z" fill-rule="evenodd"></path><path fill="#000000" d="m611.4884 304.60553l0.125 0.84375q-0.40625 0.09375 -0.71875 0.09375q-0.53125 0 -0.828125 -0.171875q-0.28125 -0.171875 -0.40625 -0.4375q-0.109375 -0.265625 -0.109375 -1.140625l0 -3.28125l-0.71875 0l0 -0.75l0.71875 0l0 -1.40625l0.953125 -0.59375l0 2.0l0.984375 0l0 0.75l-0.984375 0l0 3.34375q0 0.40625 0.046875 0.53125q0.0625 0.109375 0.171875 0.1875q0.125 0.0625 0.328125 0.0625q0.171875 0 0.4375 -0.03125z" fill-rule="nonzero"></path><path fill="#000000" fill-opacity="0.0" d="m290.40945 312.0255l27.118103 0.25198364" fill-rule="evenodd"></path><path stroke="#595959" stroke-width="1.0" stroke-linejoin="round" stroke-linecap="butt" d="m294.19928 312.06073l17.328552 0.16101074" fill-rule="evenodd"></path><path fill="#595959" stroke="#595959" stroke-width="1.0" stroke-linecap="butt" d="m290.90942 312.03018c0.008453369 -0.9084778 0.7517395 -1.638092 1.6602173 -1.6296387c0.9084778 0.008422852 1.638092 0.7517395 1.6296387 1.6601868c-0.008422852 0.9084778 -0.7517395 1.638092 -1.6602173 1.6296692c-0.90844727 -0.008453369 -1.6380615 -0.75177 -1.6296387 -1.6602173z" fill-rule="nonzero"></path><path fill="#595959" stroke="#595959" stroke-width="1.0" stroke-linecap="butt" d="m311.51248 313.8734l4.553253 -1.6094971l-4.522583 -1.6938171z" fill-rule="evenodd"></path><path fill="#000000" fill-opacity="0.0" d="m633.33856 312.2775l23.874023 0.1574707" fill-rule="evenodd"></path><path stroke="#595959" stroke-width="1.0" stroke-linejoin="round" stroke-linecap="butt" d="m633.33856 312.2775l20.084106 0.1324768" fill-rule="evenodd"></path><path fill="#595959" stroke="#595959" stroke-width="1.0" stroke-linecap="butt" d="m656.7126 312.43167c-0.0059814453 0.9085083 -0.74731445 1.6401062 -1.6557617 1.6341248c-0.9085083 -0.0059814453 -1.6401367 -0.74731445 -1.6341553 -1.6558228c0.0059814453 -0.9084778 0.74731445 -1.6401062 1.6558228 -1.6340942c0.9085083 0.0059814453 1.6401367 0.74731445 1.6340942 1.6557922z" fill-rule="nonzero"></path><path fill="#000000" fill-opacity="0.0" d="m295.04105 395.32687l364.94492 1.3858032" fill-rule="evenodd"></path><path stroke="#595959" stroke-width="1.0" stroke-linejoin="round" stroke-linecap="butt" d="m298.83102 395.34125l357.3649 1.3570251" fill-rule="evenodd"></path><path fill="#595959" stroke="#595959" stroke-width="1.0" stroke-linecap="butt" d="m295.54105 395.32877c0.0034484863 -0.9085083 0.7427368 -1.6422119 1.6512451 -1.6387634c0.9085083 0.0034484863 1.6421814 0.7427368 1.6387329 1.6512451c-0.0034484863 0.9085083 -0.7427368 1.6421814 -1.6512451 1.6387329c-0.9084778 -0.0034484863 -1.6421814 -0.7427368 -1.6387329 -1.6512146z" fill-rule="nonzero"></path><path fill="#595959" stroke="#595959" stroke-width="1.0" stroke-linecap="butt" d="m659.48596 396.7108c-0.003479004 0.9085083 -0.7427368 1.6421814 -1.6512451 1.6387329c-0.9085083 -0.0034484863 -1.6422119 -0.7427368 -1.6387329 -1.6512146c0.0034179688 -0.9085083 0.7427368 -1.6422119 1.6511841 -1.6387634c0.9085083 0.0034484863 1.6422119 0.7427368 1.638794 1.6512451z" fill-rule="nonzero"></path><path fill="#000000" fill-opacity="0.0" d="m272.86786 334.0047l20.157501 -21.039368" fill-rule="evenodd"></path><path stroke="#595959" stroke-width="1.0" stroke-linejoin="round" stroke-linecap="butt" stroke-dasharray="1.0,3.0" d="m272.86786 334.0047l20.157501 -21.039368" fill-rule="evenodd"></path><path fill="#000000" fill-opacity="0.0" d="m252.32643 334.68976l23.244095 -0.09448242" fill-rule="evenodd"></path><path stroke="#595959" stroke-width="1.0" stroke-linejoin="round" stroke-linecap="butt" d="m252.32645 334.68976l19.454132 -0.07910156" fill-rule="evenodd"></path><path fill="#595959" stroke="#595959" stroke-width="1.0" stroke-linecap="butt" d="m275.07056 334.5973c0.003692627 0.9085083 -0.7298279 1.6479797 -1.6383057 1.6516724c-0.9085083 0.003692627 -1.6479797 -0.72979736 -1.6516724 -1.6382751c-0.003692627 -0.9085083 0.72979736 -1.6479797 1.6382751 -1.6516724c0.9085083 -0.003692627 1.6480103 0.72979736 1.6517029 1.6382751z" fill-rule="nonzero"></path><path fill="#000000" fill-opacity="0.0" d="m678.2152 334.63184l29.35437 -0.25198364" fill-rule="evenodd"></path><path stroke="#595959" stroke-width="1.0" stroke-linejoin="round" stroke-linecap="butt" d="m682.00507 334.5993l19.564758 -0.16793823" fill-rule="evenodd"></path><path fill="#595959" stroke="#595959" stroke-width="1.0" stroke-linecap="butt" d="m678.7152 334.62753c-0.0078125 -0.9084778 0.7223511 -1.6512451 1.6307983 -1.6590576c0.9085083 -0.0077819824 1.6513062 0.7223511 1.6590576 1.6308289c0.0078125 0.9084778 -0.7223511 1.6512451 -1.6307983 1.6590576c-0.9085083 0.0077819824 -1.6512451 -0.7223511 -1.6590576 -1.6308289z" fill-rule="nonzero"></path><path fill="#595959" stroke="#595959" stroke-width="1.0" stroke-linecap="butt" d="m701.5839 336.08304l4.5238037 -1.6906433l-4.552124 -1.6127014z" fill-rule="evenodd"></path><path fill="#000000" fill-opacity="0.0" d="m654.4173 312.28275l27.905518 23.02362" fill-rule="evenodd"></path><path stroke="#595959" stroke-width="1.0" stroke-linejoin="round" stroke-linecap="butt" stroke-dasharray="1.0,3.0" d="m654.4173 312.28275l27.905518 23.02362" fill-rule="evenodd"></path><path fill="#000000" fill-opacity="0.0" d="m468.80743 370.41095l29.795288 0l0 25.51181l-29.795288 0z" fill-rule="evenodd"></path><path fill="#000000" d="m480.65118 388.7916l0.125 0.84375q-0.40625 0.09375 -0.71875 0.09375q-0.53125 0 -0.828125 -0.171875q-0.28125 -0.171875 -0.40625 -0.4375q-0.109375 -0.265625 -0.109375 -1.140625l0 -3.28125l-0.71875 0l0 -0.75l0.71875 0l0 -1.40625l0.953125 -0.59375l0 2.0l0.984375 0l0 0.75l-0.984375 0l0 3.34375q0 0.40625 0.046875 0.53125q0.0625 0.109375 0.171875 0.1875q0.125 0.0625 0.328125 0.0625q0.171875 0 0.4375 -0.03125z" fill-rule="nonzero"></path><path fill="#000000" fill-opacity="0.0" d="m289.5981 285.20166l29.795288 0l0 25.51181l-29.795288 0z" fill-rule="evenodd"></path><path fill="#000000" d="m303.05124 303.73853q-0.546875 0.453125 -1.046875 0.640625q-0.484375 0.1875 -1.0625 0.1875q-0.9375 0 -1.453125 -0.453125q-0.5 -0.46875 -0.5 -1.171875q0 -0.421875 0.1875 -0.765625q0.203125 -0.34375 0.5 -0.546875q0.3125 -0.21875 0.703125 -0.328125q0.28125 -0.078125 0.859375 -0.140625q1.171875 -0.140625 1.71875 -0.34375q0.015625 -0.1875 0.015625 -0.25q0 -0.59375 -0.28125 -0.828125q-0.359375 -0.328125 -1.09375 -0.328125q-0.6875 0 -1.015625 0.234375q-0.3125 0.234375 -0.46875 0.84375l-0.953125 -0.125q0.125 -0.609375 0.421875 -0.984375q0.296875 -0.375 0.859375 -0.5625q0.5625 -0.203125 1.296875 -0.203125q0.734375 0 1.1875 0.171875q0.453125 0.171875 0.65625 0.4375q0.21875 0.25 0.3125 0.640625q0.046875 0.25 0.046875 0.90625l0 1.28125q0 1.34375 0.0625 1.703125q0.0625 0.359375 0.25 0.6875l-1.015625 0q-0.15625 -0.296875 -0.1875 -0.703125zm-0.09375 -2.15625q-0.515625 0.21875 -1.578125 0.359375q-0.59375 0.09375 -0.84375 0.203125q-0.234375 0.09375 -0.375 0.3125q-0.140625 0.203125 -0.140625 0.453125q0 0.390625 0.296875 0.65625q0.296875 0.25 0.859375 0.25q0.5625 0 0.984375 -0.25q0.4375 -0.25 0.65625 -0.671875q0.140625 -0.328125 0.140625 -0.96875l0 -0.34375z" fill-rule="nonzero"></path><path fill="#000000" fill-opacity="0.0" d="m629.7842 286.1784l29.795288 0l0 25.51181l-29.795288 0z" fill-rule="evenodd"></path><path fill="#000000" d="m641.6279 304.55902l0.125 0.84375q-0.40625 0.09375 -0.71875 0.09375q-0.53125 0 -0.828125 -0.171875q-0.28125 -0.171875 -0.40625 -0.4375q-0.109375 -0.265625 -0.109375 -1.140625l0 -3.28125l-0.71875 0l0 -0.75l0.71875 0l0 -1.40625l0.953125 -0.59375l0 2.0l0.984375 0l0 0.75l-0.984375 0l0 3.34375q0 0.40625 0.046875 0.53125q0.0625 0.109375 0.171875 0.1875q0.125 0.0625 0.328125 0.0625q0.171875 0 0.4375 -0.03125z" fill-rule="nonzero"></path><path fill="#ffffff" d="m750.95917 334.3804l0 0c0 -22.465363 18.902771 -40.677155 42.22046 -40.677155l0 0c11.197571 0 21.936523 4.285614 29.85437 11.9140625c7.9179077 7.6284485 12.366089 17.974854 12.366089 28.763092l0 0c0 22.465393 -18.90271 40.677185 -42.22046 40.677185l0 0c-23.317688 0 -42.22046 -18.211792 -42.22046 -40.677185z" fill-rule="evenodd"></path><path stroke="#595959" stroke-width="1.0" stroke-linejoin="round" stroke-linecap="butt" d="m750.95917 334.3804l0 0c0 -22.465363 18.902771 -40.677155 42.22046 -40.677155l0 0c11.197571 0 21.936523 4.285614 29.85437 11.9140625c7.9179077 7.6284485 12.366089 17.974854 12.366089 28.763092l0 0c0 22.465393 -18.90271 40.677185 -42.22046 40.677185l0 0c-23.317688 0 -42.22046 -18.211792 -42.22046 -40.677185z" fill-rule="evenodd"></path><path fill="#000000" fill-opacity="0.0" d="m792.9119 334.6009l42.48816 -0.2204895" fill-rule="evenodd"></path><path stroke="#595959" stroke-width="1.0" stroke-linejoin="round" stroke-linecap="butt" d="m792.9119 334.6009l36.48828 -0.18936157" fill-rule="evenodd"></path><path fill="#595959" stroke="#595959" stroke-width="1.0" stroke-linecap="butt" d="m829.40875 336.06326l4.52948 -1.6752625l-4.546631 -1.6281738z" fill-rule="evenodd"></path><path fill="#000000" fill-opacity="0.0" d="m763.32526 305.6173l30.2677 28.97638" fill-rule="evenodd"></path><path stroke="#595959" stroke-width="1.0" stroke-linejoin="round" stroke-linecap="butt" d="m763.32526 305.6173l30.2677 28.97638" fill-rule="evenodd"></path><path fill="#000000" fill-opacity="0.0" d="m763.32526 363.14352l30.2677 -28.535461" fill-rule="evenodd"></path><path stroke="#595959" stroke-width="1.0" stroke-linejoin="round" stroke-linecap="butt" d="m763.32526 363.14352l30.2677 -28.535461" fill-rule="evenodd"></path><path fill="#d9ead3" d="m103.853615 71.834404l0 0c0 -20.160568 16.717049 -36.503937 37.338585 -36.503937l0 0c9.9028015 0 19.400024 3.8459396 26.402359 10.691757c7.00235 6.8458138 10.936218 16.130733 10.936218 25.81218l0 0c0 20.160568 -16.717056 36.503937 -37.338577 36.503937l0 0c-20.621536 0 -37.338585 -16.343369 -37.338585 -36.503937z" fill-rule="evenodd"></path><path stroke="#595959" stroke-width="1.0" stroke-linejoin="round" stroke-linecap="butt" d="m103.853615 71.834404l0 0c0 -20.160568 16.717049 -36.503937 37.338585 -36.503937l0 0c9.9028015 0 19.400024 3.8459396 26.402359 10.691757c7.00235 6.8458138 10.936218 16.130733 10.936218 25.81218l0 0c0 20.160568 -16.717056 36.503937 -37.338577 36.503937l0 0c-20.621536 0 -37.338585 -16.343369 -37.338585 -36.503937z" fill-rule="evenodd"></path><path fill="#000000" d="m125.59828 70.12128l1.21875 0l0.125 0.671875l0.03125 0q0.15625 -0.328125 0.421875 -0.5625q0.28125 -0.25 0.75 -0.25q0.359375 0 0.609375 0.234375q0.25 0.21875 0.34375 0.65625q0.15625 -0.375 0.4375 -0.625q0.296875 -0.265625 0.765625 -0.265625q0.578125 0 0.890625 0.46875q0.3125 0.46875 0.3125 1.296875l0 3.828125l-1.515625 0l0 -3.703125q0 -0.515625 -0.296875 -0.515625q-0.296875 0 -0.515625 0.53125l0 3.6875l-1.234375 0l0 -3.703125q0 -0.515625 -0.328125 -0.515625q-0.15625 0 -0.265625 0.140625q-0.109375 0.125 -0.234375 0.390625l0 3.6875l-1.515625 0l0 -5.453125zm6.675064 3.9375q0 -0.46875 0.1875 -0.8125q0.203125 -0.34375 0.640625 -0.578125q0.4375 -0.25 1.109375 -0.390625q0.6875 -0.15625 1.65625 -0.21875q-0.046875 -0.375 -0.328125 -0.578125q-0.28125 -0.203125 -0.828125 -0.203125q-0.40625 0 -0.8125 0.140625q-0.390625 0.125 -0.859375 0.359375l-0.5625 -1.046875q0.5625 -0.328125 1.203125 -0.53125q0.640625 -0.21875 1.34375 -0.21875q1.140625 0 1.796875 0.609375q0.671875 0.609375 0.671875 1.859375l0 3.125l-1.328125 0l-0.125 -0.609375l-0.03125 0q-0.421875 0.3125 -0.921875 0.53125q-0.5 0.203125 -1.015625 0.203125q-0.421875 0 -0.75 -0.125q-0.328125 -0.125 -0.5625 -0.34375q-0.234375 -0.234375 -0.359375 -0.53125q-0.125 -0.296875 -0.125 -0.640625zm1.546875 -0.125q0 0.265625 0.203125 0.390625q0.203125 0.125 0.5625 0.125q0.359375 0 0.671875 -0.140625q0.328125 -0.15625 0.609375 -0.375l0 -0.90625q-0.609375 0.03125 -1.0 0.109375q-0.390625 0.078125 -0.625 0.203125q-0.234375 0.109375 -0.328125 0.265625q-0.09375 0.15625 -0.09375 0.328125zm6.081314 -2.546875l-1.375 0l0 -1.203125l1.453125 -0.0625l0.21875 -1.453125l1.328125 0l0 1.453125l2.3125 0l0 1.265625l-2.3125 0l0 1.90625q0 0.625 0.265625 0.890625q0.28125 0.25 0.875 0.25q0.328125 0 0.578125 -0.046875q0.265625 -0.0625 0.515625 -0.140625l0.28125 1.15625q-0.359375 0.109375 -0.8125 0.203125q-0.4375 0.09375 -0.96875 0.09375q-0.640625 0 -1.09375 -0.171875q-0.453125 -0.171875 -0.734375 -0.484375q-0.28125 -0.3125 -0.40625 -0.75q-0.125 -0.453125 -0.125 -0.984375l0 -1.921875zm5.221939 1.453125q0 -0.671875 0.25 -1.203125q0.265625 -0.546875 0.703125 -0.90625q0.4375 -0.359375 1.0 -0.546875q0.578125 -0.203125 1.203125 -0.203125q0.65625 0 1.171875 0.21875q0.53125 0.203125 0.875 0.53125l-0.75 1.0q-0.59375 -0.4375 -1.203125 -0.4375q-0.703125 0 -1.15625 0.421875q-0.4375 0.421875 -0.4375 1.125q0 0.71875 0.421875 1.140625q0.4375 0.421875 1.109375 0.421875q0.4375 0 0.796875 -0.15625q0.359375 -0.15625 0.65625 -0.359375l0.65625 1.015625q-0.5 0.421875 -1.109375 0.609375q-0.59375 0.1875 -1.15625 0.1875q-0.640625 0 -1.1875 -0.1875q-0.546875 -0.1875 -0.96875 -0.546875q-0.40625 -0.375 -0.640625 -0.90625q-0.234375 -0.53125 -0.234375 -1.21875zm6.456314 -4.984375l1.609375 0l0 1.90625l-0.078125 1.03125q0.15625 -0.140625 0.34375 -0.28125q0.203125 -0.15625 0.421875 -0.265625q0.234375 -0.125 0.5 -0.1875q0.265625 -0.078125 0.578125 -0.078125q0.921875 0 1.34375 0.59375q0.421875 0.59375 0.421875 1.640625l0 3.359375l-1.609375 0l0 -3.15625q0 -0.546875 -0.1875 -0.796875q-0.171875 -0.265625 -0.625 -0.265625q-0.328125 0 -0.578125 0.15625q-0.25 0.140625 -0.53125 0.421875l0 3.640625l-1.609375 0l0 -7.71875z" fill-rule="nonzero"></path><path fill="#000000" fill-opacity="0.0" d="m70.058334 72.023384l33.79528 -0.1889801" fill-rule="evenodd"></path><path stroke="#595959" stroke-width="1.0" stroke-linejoin="round" stroke-linecap="butt" d="m70.058334 72.023384l27.795372 -0.15542603" fill-rule="evenodd"></path><path fill="#595959" stroke="#595959" stroke-width="1.0" stroke-linecap="butt" d="m97.862946 73.51966l4.5287857 -1.6770782l-4.5472565 -1.6263351z" fill-rule="evenodd"></path><path fill="#000000" fill-opacity="0.0" d="m71.84902 46.236866l29.79528 0l0 25.511814l-29.79528 0z" fill-rule="evenodd"></path><path fill="#000000" d="m81.19277 63.773743l0.953125 -0.15625q0.078125 0.578125 0.4375 0.890625q0.375 0.296875 1.03125 0.296875q0.671875 0 0.984375 -0.265625q0.328125 -0.265625 0.328125 -0.640625q0 -0.328125 -0.28125 -0.515625q-0.203125 -0.125 -0.984375 -0.328125q-1.0625 -0.265625 -1.484375 -0.453125q-0.40625 -0.203125 -0.625 -0.546875q-0.203125 -0.34375 -0.203125 -0.765625q0 -0.390625 0.171875 -0.703125q0.171875 -0.328125 0.484375 -0.546875q0.21875 -0.171875 0.609375 -0.28125q0.390625 -0.109375 0.828125 -0.109375q0.671875 0 1.171875 0.1875q0.515625 0.1875 0.75 0.53125q0.25 0.328125 0.34375 0.875l-0.9375 0.125q-0.078125 -0.4375 -0.390625 -0.671875q-0.296875 -0.25 -0.859375 -0.25q-0.671875 0 -0.953125 0.21875q-0.28125 0.21875 -0.28125 0.515625q0 0.1875 0.109375 0.328125q0.125 0.15625 0.375 0.265625q0.140625 0.046875 0.859375 0.25q1.015625 0.265625 1.421875 0.4375q0.40625 0.171875 0.640625 0.515625q0.234375 0.328125 0.234375 0.828125q0 0.484375 -0.28125 0.90625q-0.28125 0.421875 -0.8125 0.65625q-0.53125 0.234375 -1.203125 0.234375q-1.109375 0 -1.703125 -0.453125q-0.578125 -0.46875 -0.734375 -1.375z" fill-rule="nonzero"></path><path fill="#000000" fill-opacity="0.0" d="m178.53078 71.834404l42.582672 -0.03149414" fill-rule="evenodd"></path><path stroke="#595959" stroke-width="1.0" stroke-linejoin="round" stroke-linecap="butt" d="m178.53078 71.834404l36.582672 -0.027053833" fill-rule="evenodd"></path><path fill="#595959" stroke="#595959" stroke-width="1.0" stroke-linecap="butt" d="m215.11469 73.459076l4.536865 -1.6550827l-4.539322 -1.6483765z" fill-rule="evenodd"></path><path fill="#000000" fill-opacity="0.0" d="m179.84969 46.23598l42.64566 0l0 25.511806l-42.64566 0z" fill-rule="evenodd"></path><path fill="#000000" d="m193.30281 64.77286q-0.546875 0.453125 -1.046875 0.640625q-0.484375 0.1875 -1.0625 0.1875q-0.9375 0 -1.453125 -0.453125q-0.5 -0.46875 -0.5 -1.1718788q0 -0.421875 0.1875 -0.765625q0.203125 -0.34375 0.5 -0.546875q0.3125 -0.21875 0.703125 -0.328125q0.28125 -0.078125 0.859375 -0.140625q1.171875 -0.140625 1.71875 -0.34375q0.015625 -0.1875 0.015625 -0.25q0 -0.59375 -0.28125 -0.828125q-0.359375 -0.328125 -1.09375 -0.328125q-0.6875 0 -1.015625 0.234375q-0.3125 0.234375 -0.46875 0.84375l-0.953125 -0.125q0.125 -0.609375 0.421875 -0.984375q0.296875 -0.375 0.859375 -0.5625q0.5625 -0.203125 1.296875 -0.203125q0.734375 0 1.1875 0.171875q0.453125 0.171875 0.65625 0.4375q0.21875 0.25 0.3125 0.640625q0.046875 0.25 0.046875 0.90625l0 1.28125q0 1.3437538 0.0625 1.7031288q0.0625 0.359375 0.25 0.6875l-1.015625 0q-0.15625 -0.296875 -0.1875 -0.703125zm-0.09375 -2.1562538q-0.515625 0.21875 -1.578125 0.359375q-0.59375 0.09375 -0.84375 0.203125q-0.234375 0.09375 -0.375 0.3125q-0.140625 0.203125 -0.140625 0.453125q0 0.3906288 0.296875 0.6562538q0.296875 0.25 0.859375 0.25q0.5625 0 0.984375 -0.25q0.4375 -0.25 0.65625 -0.6718788q0.140625 -0.328125 0.140625 -0.96875l0 -0.34375zm7.277771 1.5937538l0 -2.1718788l-2.140625 0l0 -0.890625l2.140625 0l0 -2.15625l0.921875 0l0 2.15625l2.140625 0l0 0.890625l-2.140625 0l0 2.1718788l-0.921875 0zm9.277481 0.40625l0.125 0.84375q-0.40625 0.09375 -0.71875 0.09375q-0.53125 0 -0.828125 -0.171875q-0.28125 -0.171875 -0.40625 -0.4375q-0.109375 -0.265625 -0.109375 -1.1406288l0 -3.28125l-0.71875 0l0 -0.75l0.71875 0l0 -1.40625l0.953125 -0.59375l0 2.0l0.984375 0l0 0.75l-0.984375 0l0 3.34375q0 0.4062538 0.046875 0.5312538q0.0625 0.109375 0.171875 0.1875q0.125 0.0625 0.328125 0.0625q0.171875 0 0.4375 -0.03125z" fill-rule="nonzero"></path><path fill="#f4cccc" d="m786.9265 71.83378l0 0c0 -20.160564 16.717041 -36.503937 37.338623 -36.503937l0 0c9.902771 0 19.399963 3.8459396 26.402344 10.691757c7.0023193 6.8458176 10.936218 16.130733 10.936218 25.81218l0 0c0 20.160568 -16.717041 36.503937 -37.338562 36.503937l0 0c-20.621582 0 -37.338623 -16.343369 -37.338623 -36.503937z" fill-rule="evenodd"></path><path stroke="#595959" stroke-width="1.0" stroke-linejoin="round" stroke-linecap="butt" d="m786.9265 71.83378l0 0c0 -20.160564 16.717041 -36.503937 37.338623 -36.503937l0 0c9.902771 0 19.399963 3.8459396 26.402344 10.691757c7.0023193 6.8458176 10.936218 16.130733 10.936218 25.81218l0 0c0 20.160568 -16.717041 36.503937 -37.338562 36.503937l0 0c-20.621582 0 -37.338623 -16.343369 -37.338623 -36.503937z" fill-rule="evenodd"></path><path fill="#000000" d="m809.07745 67.85503l1.609375 0l0 1.90625l-0.046875 0.84375q0.328125 -0.296875 0.71875 -0.453125q0.40625 -0.171875 0.8125 -0.171875q0.5 0 0.90625 0.203125q0.421875 0.203125 0.703125 0.5625q0.28125 0.34375 0.421875 0.859375q0.15625 0.515625 0.15625 1.140625q0 0.703125 -0.203125 1.265625q-0.1875 0.546875 -0.515625 0.921875q-0.328125 0.375 -0.75 0.578125q-0.421875 0.1875 -0.890625 0.1875q-0.390625 0 -0.765625 -0.171875q-0.375 -0.1875 -0.71875 -0.546875l-0.046875 0l-0.125 0.59375l-1.265625 0l0 -7.71875zm1.609375 6.171875q0.234375 0.1875 0.484375 0.28125q0.25 0.078125 0.46875 0.078125q0.453125 0 0.75 -0.375q0.3125 -0.390625 0.3125 -1.234375q0 -1.46875 -1.0 -1.46875q-0.515625 0 -1.015625 0.5l0 2.21875zm9.768799 1.546875l-1.328125 0l-0.125 -0.78125l-0.03125 0q-0.375 0.421875 -0.8125 0.671875q-0.4375 0.234375 -1.03125 0.234375q-0.9375 0 -1.359375 -0.59375q-0.40625 -0.59375 -0.40625 -1.625l0 -3.359375l1.609375 0l0 3.15625q0 0.546875 0.15625 0.796875q0.171875 0.25 0.640625 0.25q0.3125 0 0.546875 -0.125q0.234375 -0.125 0.515625 -0.5l0 -3.578125l1.625 0l0 5.453125zm1.4875488 -5.453125l3.796875 0l0 5.453125l-1.609375 0l0 -4.1875l-2.1875 0l0 -1.265625zm2.921875 -0.8125q-0.46875 0 -0.78125 -0.25q-0.296875 -0.265625 -0.296875 -0.71875q0 -0.453125 0.296875 -0.734375q0.3125 -0.28125 0.78125 -0.28125q0.46875 0 0.765625 0.28125q0.3125 0.28125 0.3125 0.734375q0 0.453125 -0.3125 0.71875q-0.296875 0.25 -0.765625 0.25zm3.2844849 -1.453125l3.203125 0l0 5.65625q0 0.25 0.0625 0.421875q0.078125 0.171875 0.203125 0.28125q0.125 0.09375 0.28125 0.140625q0.15625 0.046875 0.328125 0.046875q0.1875 0 0.390625 -0.03125q0.21875 -0.046875 0.46875 -0.15625l0.359375 1.1875q-0.21875 0.078125 -0.40625 0.140625q-0.1875 0.046875 -0.375 0.078125q-0.1875 0.046875 -0.40625 0.0625q-0.203125 0.015625 -0.453125 0.015625q-1.03125 0 -1.5625 -0.609375q-0.515625 -0.609375 -0.515625 -1.65625l0 -4.296875l-1.578125 0l0 -1.28125zm6.221924 4.984375q0 -0.671875 0.1875 -1.1875q0.203125 -0.53125 0.53125 -0.890625q0.328125 -0.375 0.734375 -0.578125q0.421875 -0.203125 0.875 -0.203125q0.484375 0 0.796875 0.171875q0.3125 0.15625 0.609375 0.421875l-0.0625 -0.859375l0 -1.859375l1.625 0l0 7.71875l-1.328125 0l-0.125 -0.5625l-0.03125 0q-0.296875 0.296875 -0.703125 0.5q-0.390625 0.1875 -0.8125 0.1875q-0.515625 0 -0.9375 -0.1875q-0.421875 -0.203125 -0.734375 -0.5625q-0.296875 -0.375 -0.46875 -0.90625q-0.15625 -0.53125 -0.15625 -1.203125zm1.65625 -0.015625q0 0.8125 0.28125 1.1875q0.28125 0.375 0.78125 0.375q0.28125 0 0.5 -0.109375q0.234375 -0.125 0.453125 -0.390625l0 -2.21875q-0.21875 -0.203125 -0.453125 -0.28125q-0.21875 -0.078125 -0.453125 -0.078125q-0.453125 0 -0.78125 0.375q-0.328125 0.375 -0.328125 1.140625z" fill-rule="nonzero"></path><path fill="#000000" fill-opacity="0.0" d="m750.958 71.77079l35.968506 0.06298828" fill-rule="evenodd"></path><path stroke="#595959" stroke-width="1.0" stroke-linejoin="round" stroke-linecap="butt" d="m750.958 71.77079l29.968506 0.052482605" fill-rule="evenodd"></path><path fill="#595959" stroke="#595959" stroke-width="1.0" stroke-linecap="butt" d="m780.92365 73.475l4.5409546 -1.6437759l-4.5352173 -1.6596832z" fill-rule="evenodd"></path><path fill="#000000" fill-opacity="0.0" d="m861.6037 71.83378l33.66931 0.09449005" fill-rule="evenodd"></path><path stroke="#595959" stroke-width="1.0" stroke-linejoin="round" stroke-linecap="butt" d="m861.6037 71.83378l27.66925 0.07765198" fill-rule="evenodd"></path><path fill="#595959" stroke="#595959" stroke-width="1.0" stroke-linecap="butt" d="m889.2684 73.563156l4.5427246 -1.6389923l-4.5334473 -1.6644592z" fill-rule="evenodd"></path><path fill="#000000" fill-opacity="0.0" d="m754.7287 45.17076l29.795288 0l0 25.51181l-29.795288 0z" fill-rule="evenodd"></path><path fill="#000000" d="m765.3381 64.41076l-0.890625 0l0 -7.874996l0.96875 0l0 2.8125q0.609375 -0.765625 1.5625 -0.765625q0.53125 0 1.0 0.21875q0.46875 0.203125 0.765625 0.59375q0.3125 0.375 0.484375 0.921875q0.171875 0.53125 0.171875 1.15625q0 1.46875 -0.734375 2.265625q-0.71875 0.7968712 -1.734375 0.7968712q-1.015625 0 -1.59375 -0.8437462l0 0.7187462zm0 -2.8906212q0 1.015625 0.28125 1.484375q0.453125 0.734375 1.234375 0.734375q0.625 0 1.078125 -0.546875q0.46875 -0.546875 0.46875 -1.640625q0 -1.109375 -0.4375 -1.640625q-0.4375 -0.53125 -1.078125 -0.53125q-0.625 0 -1.09375 0.546875q-0.453125 0.546875 -0.453125 1.59375z" fill-rule="nonzero"></path><path fill="#000000" fill-opacity="0.0" d="m861.5659 45.868435l29.795288 0l0 25.511814l-29.795288 0z" fill-rule="evenodd"></path><path fill="#000000" d="m873.40967 64.24906l0.125 0.84375q-0.40625 0.09375 -0.71875 0.09375q-0.53125 0 -0.828125 -0.171875q-0.28125 -0.171875 -0.40625 -0.4375q-0.109375 -0.265625 -0.109375 -1.140625l0 -3.28125l-0.71875 0l0 -0.75l0.71875 0l0 -1.40625l0.953125 -0.59375l0 2.0l0.984375 0l0 0.75l-0.984375 0l0 3.34375q0 0.40625 0.046875 0.53125q0.0625 0.109375 0.171875 0.1875q0.125 0.0625 0.328125 0.0625q0.171875 0 0.4375 -0.03125z" fill-rule="nonzero"></path><path fill="#000000" fill-opacity="0.0" d="m889.4969 489.57657l57.606323 0l0 41.322845l-57.606323 0z" fill-rule="evenodd"></path><path fill="#595959" d="m923.82513 512.58484l1.140625 -0.15625q0.203125 0.96875 0.671875 1.40625q0.46875 0.421875 1.15625 0.421875q0.796875 0 1.34375 -0.546875q0.5625 -0.5625 0.5625 -1.390625q0 -0.7968445 -0.515625 -1.2968445q-0.5 -0.515625 -1.296875 -0.515625q-0.328125 0 -0.8125 0.125l0.125 -1.0q0.125 0.015625 0.1875 0.015625q0.734375 0 1.3125 -0.375q0.59375 -0.390625 0.59375 -1.1875q0 -0.625 -0.4375 -1.03125q-0.421875 -0.421875 -1.09375 -0.421875q-0.671875 0 -1.109375 0.421875q-0.4375 0.421875 -0.578125 1.25l-1.140625 -0.203125q0.21875 -1.140625 0.953125 -1.765625q0.75 -0.640625 1.84375 -0.640625q0.765625 0 1.40625 0.328125q0.640625 0.328125 0.984375 0.890625q0.34375 0.5625 0.34375 1.203125q0 0.59375 -0.328125 1.09375q-0.328125 0.5 -0.953125 0.78125q0.8125 0.203125 1.265625 0.796875q0.46875 0.59375 0.46875 1.4999695q0 1.21875 -0.890625 2.078125q-0.890625 0.84375 -2.25 0.84375q-1.21875 0 -2.03125 -0.734375q-0.8125 -0.734375 -0.921875 -1.890625zm7.5843506 0.296875l1.09375 -0.09375q0.140625 0.765625 0.53125 1.125q0.390625 0.34375 1.015625 0.34375q0.515625 0 0.90625 -0.234375q0.40625 -0.25 0.65625 -0.640625q0.265625 -0.40625 0.421875 -1.09375q0.171875 -0.6874695 0.171875 -1.4062195q0 -0.078125 0 -0.21875q-0.34375 0.546875 -0.9375 0.890625q-0.59375 0.328125 -1.28125 0.328125q-1.15625 0 -1.953125 -0.828125q-0.796875 -0.84375 -0.796875 -2.21875q0 -1.421875 0.828125 -2.28125q0.828125 -0.859375 2.09375 -0.859375q0.90625 0 1.65625 0.5q0.75 0.484375 1.140625 1.390625q0.390625 0.890625 0.390625 2.609375q0 1.78125 -0.390625 2.8437195q-0.375 1.046875 -1.140625 1.609375q-0.765625 0.546875 -1.796875 0.546875q-1.09375 0 -1.796875 -0.59375q-0.6875 -0.609375 -0.8125 -1.71875zm4.671875 -4.1093445q0 -0.984375 -0.53125 -1.546875q-0.515625 -0.578125 -1.25 -0.578125q-0.765625 0 -1.328125 0.625q-0.5625 0.609375 -0.5625 1.609375q0 0.875 0.53125 1.4375q0.53125 0.546875 1.328125 0.546875q0.796875 0 1.296875 -0.546875q0.515625 -0.5625 0.515625 -1.546875z" fill-rule="nonzero"></path></g></svg>

