<?xml version="1.0" standalone="yes"?>

<svg version="1.1" viewBox="0.0 0.0 960.0 540.0" fill="none" stroke="none" stroke-linecap="square" stroke-miterlimit="10" xmlns="http://www.w3.org/2000/svg" xmlns:xlink="http://www.w3.org/1999/xlink"><clipPath id="g268b6cad09_0_0.0"><path d="m0 0l960.0 0l0 540.0l-960.0 0l0 -540.0z" clip-rule="nonzero"></path></clipPath><g clip-path="url(#g268b6cad09_0_0.0)"><path fill="#ffffff" d="m0 0l960.0 0l0 540.0l-960.0 0z" fill-rule="evenodd"></path><path fill="#eeeeee" d="m189.22835 313.15894l580.7874 0l0 169.7323l-580.7874 0z" fill-rule="evenodd"></path><path stroke="#595959" stroke-width="1.0" stroke-linejoin="round" stroke-linecap="butt" d="m189.22835 313.15894l580.7874 0l0 169.7323l-580.7874 0z" fill-rule="evenodd"></path><path fill="#000000" d="m200.0096 466.37622q0.1875 -0.9375 0.640625 -1.703125q0.46875 -0.765625 1.078125 -1.28125q0.609375 -0.53125 1.296875 -0.8125q0.703125 -0.296875 1.390625 -0.296875q0.71875 0 1.203125 0.28125q0.484375 0.265625 0.9375 0.734375l0.25 -1.453125l0.640625 -2.984375l1.3125 0l-2.421875 11.390625l-1.078125 0l0.09375 -1.03125l-0.046875 0q-0.578125 0.5 -1.328125 0.859375q-0.734375 0.359375 -1.453125 0.359375q-0.78125 0 -1.328125 -0.265625q-0.546875 -0.28125 -0.890625 -0.796875q-0.34375 -0.515625 -0.4375 -1.265625q-0.078125 -0.75 0.140625 -1.734375zm1.359375 -0.015625q-0.296875 1.40625 0.125 2.203125q0.4375 0.78125 1.53125 0.78125q1.15625 0 2.4375 -1.171875l0.828125 -3.875q-0.421875 -0.5 -0.890625 -0.703125q-0.453125 -0.203125 -0.96875 -0.203125q-0.515625 0 -1.0 0.21875q-0.46875 0.203125 -0.890625 0.609375q-0.40625 0.390625 -0.71875 0.9375q-0.3125 0.53125 -0.453125 1.203125zm9.553146 -3.890625l4.9375 0l-1.65625 7.78125l-1.3125 0l1.421875 -6.703125l-3.625 0l0.234375 -1.078125zm4.46875 -1.59375q-0.453125 0 -0.703125 -0.265625q-0.234375 -0.28125 -0.140625 -0.75q0.109375 -0.453125 0.453125 -0.734375q0.359375 -0.28125 0.8125 -0.28125q0.453125 0 0.703125 0.28125q0.25 0.28125 0.140625 0.734375q-0.09375 0.46875 -0.453125 0.75q-0.359375 0.265625 -0.8125 0.265625zm4.6468964 1.59375l1.03125 0l-0.109375 1.03125l0.046875 0q0.40625 -0.546875 0.859375 -0.875q0.46875 -0.34375 1.140625 -0.34375q1.1875 0 1.1875 1.34375q0.484375 -0.609375 0.96875 -0.96875q0.5 -0.375 1.15625 -0.375q0.8125 0 1.125 0.625q0.3125 0.609375 0.0625 1.78125l-1.1875 5.5625l-1.265625 0l1.15625 -5.453125q0.296875 -1.375 -0.546875 -1.375q-0.40625 0 -0.78125 0.296875q-0.359375 0.296875 -0.796875 0.90625l-1.203125 5.625l-1.046875 0l1.15625 -5.453125q0.296875 -1.375 -0.59375 -1.375q-0.40625 0 -0.765625 0.296875q-0.34375 0.296875 -0.78125 0.90625l-1.203125 5.625l-1.265625 0l1.65625 -7.78125zm8.709396 5.765625q0.140625 -0.65625 0.5625 -1.140625q0.421875 -0.484375 1.171875 -0.84375q0.75 -0.359375 1.859375 -0.578125q1.125 -0.21875 2.65625 -0.34375q0.0625 -0.40625 0.03125 -0.75q-0.03125 -0.359375 -0.21875 -0.625q-0.1875 -0.265625 -0.546875 -0.421875q-0.34375 -0.15625 -0.90625 -0.15625q-0.765625 0 -1.546875 0.296875q-0.765625 0.296875 -1.375 0.625l-0.328125 -0.890625q0.34375 -0.203125 0.765625 -0.390625q0.4375 -0.203125 0.90625 -0.359375q0.484375 -0.171875 1.0 -0.265625q0.515625 -0.109375 1.03125 -0.109375q1.59375 0 2.1875 0.875q0.59375 0.875 0.28125 2.328125l-1.015625 4.765625l-1.0625 0l0.109375 -1.0625l-0.046875 0q-0.765625 0.515625 -1.640625 0.890625q-0.875 0.359375 -1.703125 0.359375q-0.546875 0 -1.0 -0.15625q-0.4375 -0.140625 -0.734375 -0.421875q-0.296875 -0.28125 -0.421875 -0.6875q-0.125 -0.40625 -0.015625 -0.9375zm1.3125 -0.09375q-0.078125 0.328125 0.015625 0.5625q0.09375 0.234375 0.296875 0.390625q0.203125 0.140625 0.5 0.21875q0.296875 0.078125 0.625 0.078125q0.671875 0 1.375 -0.296875q0.71875 -0.296875 1.5 -0.859375l0.4375 -2.046875q-1.25 0.09375 -2.140625 0.28125q-0.875 0.171875 -1.4375 0.421875q-0.546875 0.234375 -0.828125 0.546875q-0.265625 0.3125 -0.34375 0.703125zm9.225021 2.765625l-0.5625 2.625l-1.3125 0l2.359375 -11.0625l1.09375 0l-0.109375 1.0l0.046875 0q0.65625 -0.515625 1.4375 -0.84375q0.78125 -0.34375 1.5 -0.34375q0.78125 0 1.328125 0.28125q0.546875 0.28125 0.84375 0.796875q0.296875 0.515625 0.34375 1.25q0.0625 0.734375 -0.140625 1.640625q-0.203125 0.984375 -0.65625 1.765625q-0.453125 0.78125 -1.0625 1.328125q-0.59375 0.53125 -1.296875 0.8125q-0.703125 0.28125 -1.40625 0.28125q-0.546875 0 -1.125 -0.265625q-0.5625 -0.265625 -1.0 -0.734375l-0.28125 1.46875zm0.53125 -2.484375q0.453125 0.5 0.96875 0.71875q0.515625 0.203125 0.90625 0.203125q1.0625 0 1.90625 -0.8125q0.859375 -0.828125 1.15625 -2.28125q0.140625 -0.640625 0.125 -1.171875q0 -0.53125 -0.1875 -0.90625q-0.1875 -0.375 -0.578125 -0.578125q-0.375 -0.203125 -0.9375 -0.203125q-0.515625 0 -1.15625 0.28125q-0.640625 0.28125 -1.375 0.875l-0.828125 3.875z" fill-rule="nonzero"></path><path fill="#000000" d="m264.76596 460.1106q-0.46875 -0.234375 -0.890625 -0.296875q-0.40625 -0.078125 -0.90625 -0.078125q-1.0625 0 -1.515625 0.546875q-0.453125 0.53125 -0.453125 1.484375l0 0.703125l3.265625 0l0 1.078125l-3.265625 0l0 6.703125l-1.296875 0l0 -6.703125l-2.234375 0l0 -1.0l2.234375 -0.078125l0 -0.65625q0 -1.421875 0.75 -2.28125q0.765625 -0.859375 2.390625 -0.859375q1.140625 0 2.234375 0.4375l-0.3125 1.0zm12.543793 11.4375q0 0.609375 0.640625 0.984375q0.65625 0.390625 1.90625 0.390625q0.671875 0 1.21875 -0.140625q0.546875 -0.125 0.921875 -0.359375q0.390625 -0.21875 0.59375 -0.515625q0.203125 -0.28125 0.203125 -0.578125q0 -0.5625 -0.453125 -0.765625q-0.4375 -0.1875 -1.328125 -0.1875l-1.515625 0q-0.34375 0 -0.640625 -0.03125q-0.296875 -0.015625 -0.546875 -0.09375q-0.5625 0.296875 -0.78125 0.625q-0.21875 0.328125 -0.21875 0.671875zm-1.125 0.125q0 -0.46875 0.328125 -0.921875q0.328125 -0.4375 0.953125 -0.796875l0 -0.078125q-0.328125 -0.171875 -0.578125 -0.46875q-0.234375 -0.3125 -0.234375 -0.796875q0 -0.375 0.234375 -0.765625q0.25 -0.390625 0.703125 -0.703125l0 -0.0625q-0.40625 -0.296875 -0.6875 -0.796875q-0.28125 -0.515625 -0.28125 -1.21875q0 -0.640625 0.25 -1.140625q0.25 -0.515625 0.65625 -0.875q0.421875 -0.359375 0.96875 -0.5625q0.5625 -0.203125 1.1875 -0.203125q0.640625 0 1.15625 0.1875l3.21875 0l0 1.015625l-2.09375 0q0.28125 0.28125 0.5 0.703125q0.21875 0.421875 0.21875 0.921875q0 0.625 -0.234375 1.125q-0.21875 0.5 -0.625 0.84375q-0.40625 0.34375 -0.96875 0.53125q-0.546875 0.171875 -1.171875 0.171875q-0.296875 0 -0.65625 -0.0625q-0.34375 -0.078125 -0.65625 -0.21875q-0.609375 0.375 -0.609375 0.890625q0 0.46875 0.421875 0.6875q0.421875 0.21875 1.203125 0.21875l1.734375 0q1.5 0 2.234375 0.421875q0.734375 0.40625 0.734375 1.390625q0 0.546875 -0.3125 1.046875q-0.296875 0.5 -0.859375 0.859375q-0.5625 0.375 -1.359375 0.59375q-0.796875 0.21875 -1.796875 0.21875q-1.703125 0 -2.640625 -0.5625q-0.9375 -0.546875 -0.9375 -1.59375zm3.5 -4.765625q0.75 0 1.265625 -0.5q0.53125 -0.5 0.53125 -1.34375q0 -0.390625 -0.15625 -0.71875q-0.140625 -0.34375 -0.375 -0.578125q-0.234375 -0.25 -0.5625 -0.390625q-0.328125 -0.140625 -0.703125 -0.140625q-0.375 0 -0.703125 0.140625q-0.328125 0.140625 -0.5625 0.390625q-0.234375 0.234375 -0.390625 0.578125q-0.140625 0.328125 -0.140625 0.71875q0 0.84375 0.53125 1.34375q0.53125 0.5 1.265625 0.5z" fill-rule="nonzero"></path><path fill="#cfe2f3" d="m394.1286 47.027096l167.30707 0l0 73.00787l-167.30707 0z" fill-rule="evenodd"></path><path stroke="#595959" stroke-width="1.0" stroke-linejoin="round" stroke-linecap="butt" d="m394.1286 47.027096l167.30707 0l0 73.00787l-167.30707 0z" fill-rule="evenodd"></path><path fill="#000000" d="m474.1384 78.17229l2.34375 0l0 2.75l-0.125 1.53125q0.234375 -0.234375 0.515625 -0.4375q0.28125 -0.21875 0.609375 -0.390625q0.328125 -0.171875 0.71875 -0.265625q0.390625 -0.09375 0.84375 -0.09375q1.34375 0 1.953125 0.859375q0.625 0.859375 0.625 2.375l0 4.890625l-2.359375 0l0 -4.59375q0 -0.796875 -0.25 -1.15625q-0.25 -0.375 -0.90625 -0.375q-0.484375 0 -0.84375 0.203125q-0.359375 0.203125 -0.78125 0.625l0 5.296875l-2.34375 0l0 -11.21875z" fill-rule="nonzero"></path><path fill="#000000" fill-opacity="0.0" d="m295.042 83.21607l99.08661 0.3149643" fill-rule="evenodd"></path><path stroke="#595959" stroke-width="1.0" stroke-linejoin="round" stroke-linecap="butt" d="m295.042 83.21607l93.08667 0.2958908" fill-rule="evenodd"></path><path fill="#595959" stroke="#595959" stroke-width="1.0" stroke-linecap="butt" d="m388.12338 85.16369l4.543335 -1.6372986l-4.532837 -1.666153z" fill-rule="evenodd"></path><path fill="#000000" fill-opacity="0.0" d="m561.43567 83.53104l106.36224 0" fill-rule="evenodd"></path><path stroke="#595959" stroke-width="1.0" stroke-linejoin="round" stroke-linecap="butt" d="m561.43567 83.53104l100.36224 0" fill-rule="evenodd"></path><path fill="#595959" stroke="#595959" stroke-width="1.0" stroke-linecap="butt" d="m661.7979 85.18277l4.538086 -1.6517334l-4.538086 -1.6517334z" fill-rule="evenodd"></path><path fill="#000000" fill-opacity="0.0" d="m327.65747 50.387653l29.51181 0l0 31.49606l-29.51181 0z" fill-rule="evenodd"></path><path fill="#000000" d="m344.34497 76.088905q-0.9375 0.796875 -1.796875 1.125q-0.859375 0.3125 -1.84375 0.3125q-1.609375 0 -2.484375 -0.78125q-0.875 -0.796875 -0.875 -2.03125q0 -0.734375 0.328125 -1.328125q0.328125 -0.59375 0.859375 -0.953125q0.53125 -0.359375 1.203125 -0.546875q0.5 -0.140625 1.484375 -0.25q2.03125 -0.25 2.984375 -0.578125q0 -0.34375 0 -0.4375q0 -1.015625 -0.46875 -1.4375q-0.640625 -0.5625 -1.90625 -0.5625q-1.171875 0 -1.734375 0.40625q-0.5625 0.40625 -0.828125 1.46875l-1.640625 -0.234375q0.234375 -1.046875 0.734375 -1.6875q0.515625 -0.640625 1.46875 -0.984375q0.96875 -0.359375 2.25 -0.359375q1.265625 0 2.046875 0.296875q0.78125 0.296875 1.15625 0.75q0.375 0.453125 0.515625 1.140625q0.09375 0.421875 0.09375 1.53125l0 2.234375q0 2.328125 0.09375 2.953125q0.109375 0.609375 0.4375 1.171875l-1.75 0q-0.265625 -0.515625 -0.328125 -1.21875zm-0.140625 -3.71875q-0.90625 0.359375 -2.734375 0.625q-1.03125 0.140625 -1.453125 0.328125q-0.421875 0.1875 -0.65625 0.546875q-0.234375 0.359375 -0.234375 0.796875q0 0.671875 0.5 1.125q0.515625 0.4375 1.484375 0.4375q0.96875 0 1.71875 -0.421875q0.75 -0.4375 1.109375 -1.15625q0.265625 -0.578125 0.265625 -1.671875l0 -0.609375z" fill-rule="nonzero"></path><path fill="#000000" fill-opacity="0.0" d="m596.39764 51.783l29.51178 0l0 31.496067l-29.51178 0z" fill-rule="evenodd"></path><path fill="#000000" d="m608.1945 78.703l-1.546875 0l0 -13.59375l1.65625 0l0 4.84375q1.0625 -1.328125 2.703125 -1.328125q0.90625 0 1.71875 0.375q0.8125 0.359375 1.328125 1.03125q0.53125 0.65625 0.828125 1.59375q0.296875 0.9375 0.296875 2.0q0 2.53125 -1.25 3.921875q-1.25 1.375 -3.0 1.375q-1.75 0 -2.734375 -1.453125l0 1.234375zm-0.015625 -5.0q0 1.765625 0.46875 2.5625q0.796875 1.28125 2.140625 1.28125q1.09375 0 1.890625 -0.9375q0.796875 -0.953125 0.796875 -2.84375q0 -1.921875 -0.765625 -2.84375q-0.765625 -0.921875 -1.84375 -0.921875q-1.09375 0 -1.890625 0.953125q-0.796875 0.953125 -0.796875 2.75z" fill-rule="nonzero"></path><path fill="#d9ead3" d="m344.23578 197.27907l0 0c0 -14.3594055 11.4149475 -26.0 25.496033 -26.0l0 0c6.7619934 0 13.247009 2.739273 18.028442 7.615219c4.7814636 4.875946 7.467621 11.489151 7.467621 18.38478l0 0c0 14.3594055 -11.4149475 26.0 -25.496063 26.0l0 0c-14.081085 0 -25.496033 -11.6405945 -25.496033 -26.0z" fill-rule="evenodd"></path><path stroke="#595959" stroke-width="1.0" stroke-linejoin="round" stroke-linecap="butt" d="m344.23578 197.27907l0 0c0 -14.3594055 11.4149475 -26.0 25.496033 -26.0l0 0c6.7619934 0 13.247009 2.739273 18.028442 7.615219c4.7814636 4.875946 7.467621 11.489151 7.467621 18.38478l0 0c0 14.3594055 -11.4149475 26.0 -25.496063 26.0l0 0c-14.081085 0 -25.496033 -11.6405945 -25.496033 -26.0z" fill-rule="evenodd"></path><path fill="#000000" d="m373.83807 193.88907q-0.78125 -0.296875 -1.65625 -0.296875q-0.765625 0 -1.125 0.34375q-0.359375 0.328125 -0.359375 1.046875l0 0.21875l2.734375 0l0 1.84375l-2.734375 0l0 6.09375l-2.359375 0l0 -6.09375l-2.09375 0l0 -1.75l2.09375 -0.09375l0 -0.203125q0 -0.6875 0.203125 -1.28125q0.21875 -0.59375 0.640625 -1.03125q0.4375 -0.4375 1.109375 -0.6875q0.671875 -0.265625 1.59375 -0.265625q0.6875 0 1.28125 0.125q0.609375 0.125 1.125 0.3125l-0.453125 1.71875z" fill-rule="nonzero"></path><path fill="#f4cccc" d="m559.344 197.27907l0 0c0 -14.3594055 11.414978 -26.0 25.496033 -26.0l0 0c6.762024 0 13.247009 2.739273 18.028442 7.615219c4.781433 4.875946 7.4676514 11.489151 7.4676514 18.38478l0 0c0 14.3594055 -11.414978 26.0 -25.496094 26.0l0 0c-14.081055 0 -25.496033 -11.6405945 -25.496033 -26.0z" fill-rule="evenodd"></path><path stroke="#595959" stroke-width="1.0" stroke-linejoin="round" stroke-linecap="butt" d="m559.344 197.27907l0 0c0 -14.3594055 11.414978 -26.0 25.496033 -26.0l0 0c6.762024 0 13.247009 2.739273 18.028442 7.615219c4.781433 4.875946 7.4676514 11.489151 7.4676514 18.38478l0 0c0 14.3594055 -11.414978 26.0 -25.496094 26.0l0 0c-14.081055 0 -25.496033 -11.6405945 -25.496033 -26.0z" fill-rule="evenodd"></path><path fill="#000000" d="m582.79004 204.12344q0 0.453125 0.53125 0.6875q0.546875 0.234375 1.484375 0.234375q0.96875 0 1.546875 -0.28125q0.59375 -0.28125 0.59375 -0.703125q0 -0.375 -0.359375 -0.5q-0.34375 -0.125 -1.03125 -0.125l-0.984375 0q-0.4375 0 -0.71875 -0.03125q-0.28125 -0.015625 -0.5 -0.0625q-0.296875 0.203125 -0.4375 0.375q-0.125 0.1875 -0.125 0.40625zm-1.921875 0.359375q0 -0.96875 1.234375 -1.578125l0 -0.0625q-0.3125 -0.21875 -0.5625 -0.53125q-0.234375 -0.328125 -0.234375 -0.828125q0 -0.40625 0.265625 -0.796875q0.265625 -0.40625 0.671875 -0.703125l0 -0.0625q-0.421875 -0.28125 -0.734375 -0.796875q-0.296875 -0.53125 -0.296875 -1.234375q0 -0.71875 0.28125 -1.25q0.28125 -0.546875 0.734375 -0.90625q0.46875 -0.359375 1.078125 -0.53125q0.625 -0.1875 1.296875 -0.1875q0.734375 0 1.3125 0.1875l3.21875 0l0 1.71875l-1.625 0q0.140625 0.171875 0.25 0.453125q0.125 0.28125 0.125 0.59375q0 0.6875 -0.265625 1.1875q-0.25 0.5 -0.6875 0.828125q-0.4375 0.328125 -1.046875 0.484375q-0.59375 0.15625 -1.28125 0.15625q-0.515625 0 -1.09375 -0.15625q-0.171875 0.125 -0.265625 0.265625q-0.078125 0.125 -0.078125 0.3125q0 0.3125 0.3125 0.46875q0.328125 0.140625 1.03125 0.140625l1.46875 0q1.5625 0 2.390625 0.46875q0.828125 0.453125 0.828125 1.53125q0 0.625 -0.34375 1.140625q-0.328125 0.53125 -0.9375 0.90625q-0.609375 0.375 -1.5 0.59375q-0.875 0.21875 -1.9375 0.21875q-0.78125 0 -1.4375 -0.125q-0.65625 -0.109375 -1.140625 -0.359375q-0.484375 -0.25 -0.765625 -0.640625q-0.265625 -0.375 -0.265625 -0.90625zm3.734375 -5.28125q0.5 0 0.859375 -0.328125q0.359375 -0.328125 0.359375 -0.984375q0 -0.640625 -0.359375 -0.96875q-0.359375 -0.328125 -0.859375 -0.328125q-0.5 0 -0.84375 0.328125q-0.34375 0.328125 -0.34375 0.96875q0 0.65625 0.34375 0.984375q0.34375 0.328125 0.84375 0.328125z" fill-rule="nonzero"></path><path fill="#000000" fill-opacity="0.0" d="m293.24365 197.27907l50.992126 0" fill-rule="evenodd"></path><path stroke="#595959" stroke-width="1.0" stroke-linejoin="round" stroke-linecap="butt" d="m293.24365 197.27905l44.992126 0" fill-rule="evenodd"></path><path fill="#595959" stroke="#595959" stroke-width="1.0" stroke-linecap="butt" d="m338.23578 198.93079l4.538086 -1.6517334l-4.538086 -1.6517334z" fill-rule="evenodd"></path><path fill="#000000" fill-opacity="0.0" d="m395.22787 197.27907l50.992126 0" fill-rule="evenodd"></path><path stroke="#595959" stroke-width="1.0" stroke-linejoin="round" stroke-linecap="butt" d="m395.2279 197.27905l44.992126 0" fill-rule="evenodd"></path><path fill="#595959" stroke="#595959" stroke-width="1.0" stroke-linecap="butt" d="m440.22003 198.93079l4.538086 -1.6517334l-4.538086 -1.6517334z" fill-rule="evenodd"></path><path fill="#000000" fill-opacity="0.0" d="m508.35187 197.27907l50.992126 0" fill-rule="evenodd"></path><path stroke="#595959" stroke-width="1.0" stroke-linejoin="round" stroke-linecap="butt" d="m508.35187 197.27905l44.992126 0" fill-rule="evenodd"></path><path fill="#595959" stroke="#595959" stroke-width="1.0" stroke-linecap="butt" d="m553.344 198.93079l4.538086 -1.6517334l-4.538086 -1.6517334z" fill-rule="evenodd"></path><path fill="#000000" fill-opacity="0.0" d="m610.3361 197.27907l50.992126 0" fill-rule="evenodd"></path><path stroke="#595959" stroke-width="1.0" stroke-linejoin="round" stroke-linecap="butt" d="m610.3361 197.27905l44.992126 0" fill-rule="evenodd"></path><path fill="#595959" stroke="#595959" stroke-width="1.0" stroke-linecap="butt" d="m655.32825 198.93079l4.538086 -1.6517334l-4.538086 -1.6517334z" fill-rule="evenodd"></path><path fill="#000000" fill-opacity="0.0" d="m301.3224 163.783l36.91339 0l0 31.496063l-36.91339 0z" fill-rule="evenodd"></path><path fill="#000000" d="m318.0099 189.48425q-0.9375 0.796875 -1.796875 1.125q-0.859375 0.3125 -1.84375 0.3125q-1.609375 0 -2.484375 -0.78125q-0.875 -0.796875 -0.875 -2.03125q0 -0.734375 0.328125 -1.328125q0.328125 -0.59375 0.859375 -0.953125q0.53125 -0.359375 1.203125 -0.546875q0.5 -0.140625 1.484375 -0.25q2.03125 -0.25 2.984375 -0.578125q0 -0.34375 0 -0.4375q0 -1.015625 -0.46875 -1.4375q-0.640625 -0.5625 -1.90625 -0.5625q-1.171875 0 -1.734375 0.40625q-0.5625 0.40625 -0.828125 1.46875l-1.640625 -0.234375q0.234375 -1.046875 0.734375 -1.6875q0.515625 -0.640625 1.46875 -0.984375q0.96875 -0.359375 2.25 -0.359375q1.265625 0 2.046875 0.296875q0.78125 0.296875 1.15625 0.75q0.375 0.453125 0.515625 1.140625q0.09375 0.421875 0.09375 1.53125l0 2.234375q0 2.328125 0.09375 2.953125q0.109375 0.609375 0.4375 1.171875l-1.75 0q-0.265625 -0.515625 -0.328125 -1.21875zm-0.140625 -3.71875q-0.90625 0.359375 -2.734375 0.625q-1.03125 0.140625 -1.453125 0.328125q-0.421875 0.1875 -0.65625 0.546875q-0.234375 0.359375 -0.234375 0.796875q0 0.671875 0.5 1.125q0.515625 0.4375 1.484375 0.4375q0.96875 0 1.71875 -0.421875q0.75 -0.4375 1.109375 -1.15625q0.265625 -0.578125 0.265625 -1.671875l0 -0.609375zm3.985077 -6.859375l0 -1.9375l1.78125 0l0 1.53125q0 1.234375 -0.28125 1.78125q-0.40625 0.75 -1.25 1.140625l-0.40625 -0.671875q0.5 -0.203125 0.75 -0.640625q0.25 -0.4375 0.265625 -1.203125l-0.859375 0z" fill-rule="nonzero"></path><path fill="#000000" fill-opacity="0.0" d="m405.96805 163.783l29.51181 0l0 31.496063l-29.51181 0z" fill-rule="evenodd"></path><path fill="#000000" d="m422.65555 189.48425q-0.9375 0.796875 -1.796875 1.125q-0.859375 0.3125 -1.84375 0.3125q-1.609375 0 -2.484375 -0.78125q-0.875 -0.796875 -0.875 -2.03125q0 -0.734375 0.328125 -1.328125q0.328125 -0.59375 0.859375 -0.953125q0.53125 -0.359375 1.203125 -0.546875q0.5 -0.140625 1.484375 -0.25q2.03125 -0.25 2.984375 -0.578125q0 -0.34375 0 -0.4375q0 -1.015625 -0.46875 -1.4375q-0.640625 -0.5625 -1.90625 -0.5625q-1.171875 0 -1.734375 0.40625q-0.5625 0.40625 -0.828125 1.46875l-1.640625 -0.234375q0.234375 -1.046875 0.734375 -1.6875q0.515625 -0.640625 1.46875 -0.984375q0.96875 -0.359375 2.25 -0.359375q1.265625 0 2.046875 0.296875q0.78125 0.296875 1.15625 0.75q0.375 0.453125 0.515625 1.140625q0.09375 0.421875 0.09375 1.53125l0 2.234375q0 2.328125 0.09375 2.953125q0.109375 0.609375 0.4375 1.171875l-1.75 0q-0.265625 -0.515625 -0.328125 -1.21875zm-0.140625 -3.71875q-0.90625 0.359375 -2.734375 0.625q-1.03125 0.140625 -1.453125 0.328125q-0.421875 0.1875 -0.65625 0.546875q-0.234375 0.359375 -0.234375 0.796875q0 0.671875 0.5 1.125q0.515625 0.4375 1.484375 0.4375q0.96875 0 1.71875 -0.421875q0.75 -0.4375 1.109375 -1.15625q0.265625 -0.578125 0.265625 -1.671875l0 -0.609375z" fill-rule="nonzero"></path><path fill="#000000" fill-opacity="0.0" d="m514.0763 163.783l29.51178 0l0 31.496063l-29.51178 0z" fill-rule="evenodd"></path><path fill="#000000" d="m525.87317 190.703l-1.546875 0l0 -13.59375l1.65625 0l0 4.84375q1.0625 -1.328125 2.703125 -1.328125q0.90625 0 1.71875 0.375q0.8125 0.359375 1.328125 1.03125q0.53125 0.65625 0.828125 1.59375q0.296875 0.9375 0.296875 2.0q0 2.53125 -1.25 3.921875q-1.25 1.375 -3.0 1.375q-1.75 0 -2.734375 -1.453125l0 1.234375zm-0.015625 -5.0q0 1.765625 0.46875 2.5625q0.796875 1.28125 2.140625 1.28125q1.09375 0 1.890625 -0.9375q0.796875 -0.953125 0.796875 -2.84375q0 -1.921875 -0.765625 -2.84375q-0.765625 -0.921875 -1.84375 -0.921875q-1.09375 0 -1.890625 0.953125q-0.796875 0.953125 -0.796875 2.75z" fill-rule="nonzero"></path><path fill="#000000" fill-opacity="0.0" d="m614.95026 163.783l36.91339 0l0 31.496063l-36.91339 0z" fill-rule="evenodd"></path><path fill="#000000" d="m626.74713 190.703l-1.546875 0l0 -13.59375l1.65625 0l0 4.84375q1.0625 -1.328125 2.703125 -1.328125q0.90625 0 1.71875 0.375q0.8125 0.359375 1.328125 1.03125q0.53125 0.65625 0.828125 1.59375q0.296875 0.9375 0.296875 2.0q0 2.53125 -1.25 3.921875q-1.25 1.375 -3.0 1.375q-1.75 0 -2.734375 -1.453125l0 1.234375zm-0.015625 -5.0q0 1.765625 0.46875 2.5625q0.796875 1.28125 2.140625 1.28125q1.09375 0 1.890625 -0.9375q0.796875 -0.953125 0.796875 -2.84375q0 -1.921875 -0.765625 -2.84375q-0.765625 -0.921875 -1.84375 -0.921875q-1.09375 0 -1.890625 0.953125q-0.796875 0.953125 -0.796875 2.75zm8.750732 -6.796875l0 -1.9375l1.78125 0l0 1.53125q0 1.234375 -0.28125 1.78125q-0.40625 0.75 -1.25 1.140625l-0.40625 -0.671875q0.5 -0.203125 0.75 -0.640625q0.25 -0.4375 0.265625 -1.203125l-0.859375 0z" fill-rule="nonzero"></path><path fill="#cfe2f3" d="m393.72308 361.655l167.30713 0l0 73.00787l-167.30713 0z" fill-rule="evenodd"></path><path stroke="#595959" stroke-width="1.0" stroke-linejoin="round" stroke-linecap="butt" d="m393.72308 361.655l167.30713 0l0 73.00787l-167.30713 0z" fill-rule="evenodd"></path><path fill="#000000" d="m473.73288 392.8002l2.34375 0l0 2.75l-0.125 1.53125q0.234375 -0.234375 0.515625 -0.4375q0.28125 -0.21875 0.609375 -0.390625q0.328125 -0.171875 0.71875 -0.265625q0.390625 -0.09375 0.84375 -0.09375q1.34375 0 1.953125 0.859375q0.625 0.859375 0.625 2.375l0 4.890625l-2.359375 0l0 -4.59375q0 -0.796875 -0.25 -1.15625q-0.25 -0.375 -0.90625 -0.375q-0.484375 0 -0.84375 0.203125q-0.359375 0.203125 -0.78125 0.625l0 5.296875l-2.34375 0l0 -11.21875z" fill-rule="nonzero"></path><path fill="#000000" fill-opacity="0.0" d="m310.00787 397.90698l83.71652 0.25195312" fill-rule="evenodd"></path><path stroke="#595959" stroke-width="1.0" stroke-linejoin="round" stroke-linecap="butt" d="m310.00787 397.90698l77.71658 0.23391724" fill-rule="evenodd"></path><path fill="#595959" stroke="#595959" stroke-width="1.0" stroke-linecap="butt" d="m387.71945 399.79263l4.5430603 -1.6380615l-4.5331116 -1.6654053z" fill-rule="evenodd"></path><path fill="#000000" fill-opacity="0.0" d="m561.0302 398.15894l87.46454 -0.25195312" fill-rule="evenodd"></path><path stroke="#595959" stroke-width="1.0" stroke-linejoin="round" stroke-linecap="butt" d="m561.0302 398.15897l81.4646 -0.2347107" fill-rule="evenodd"></path><path fill="#595959" stroke="#595959" stroke-width="1.0" stroke-linecap="butt" d="m642.4995 399.576l4.533325 -1.6647949l-4.5428467 -1.6386414z" fill-rule="evenodd"></path><path fill="#000000" fill-opacity="0.0" d="m333.25198 366.41092l29.51181 0l0 31.496063l-29.51181 0z" fill-rule="evenodd"></path><path fill="#000000" d="m349.93948 392.11215q-0.9375 0.796875 -1.796875 1.125q-0.859375 0.3125 -1.84375 0.3125q-1.609375 0 -2.484375 -0.78125q-0.875 -0.796875 -0.875 -2.03125q0 -0.734375 0.328125 -1.328125q0.328125 -0.59375 0.859375 -0.953125q0.53125 -0.359375 1.203125 -0.546875q0.5 -0.140625 1.484375 -0.25q2.03125 -0.25 2.984375 -0.578125q0 -0.34375 0 -0.4375q0 -1.015625 -0.46875 -1.4375q-0.640625 -0.5625 -1.90625 -0.5625q-1.171875 0 -1.734375 0.40625q-0.5625 0.40625 -0.828125 1.46875l-1.640625 -0.234375q0.234375 -1.046875 0.734375 -1.6875q0.515625 -0.640625 1.46875 -0.984375q0.96875 -0.359375 2.25 -0.359375q1.265625 0 2.046875 0.296875q0.78125 0.296875 1.15625 0.75q0.375 0.453125 0.515625 1.140625q0.09375 0.421875 0.09375 1.53125l0 2.234375q0 2.328125 0.09375 2.953125q0.109375 0.609375 0.4375 1.171875l-1.75 0q-0.265625 -0.515625 -0.328125 -1.21875zm-0.140625 -3.71875q-0.90625 0.359375 -2.734375 0.625q-1.03125 0.140625 -1.453125 0.328125q-0.421875 0.1875 -0.65625 0.546875q-0.234375 0.359375 -0.234375 0.796875q0 0.671875 0.5 1.125q0.515625 0.4375 1.484375 0.4375q0.96875 0 1.71875 -0.421875q0.75 -0.4375 1.109375 -1.15625q0.265625 -0.578125 0.265625 -1.671875l0 -0.609375z" fill-rule="nonzero"></path><path fill="#000000" fill-opacity="0.0" d="m586.9921 366.41092l29.51184 0l0 31.496063l-29.51184 0z" fill-rule="evenodd"></path><path fill="#000000" d="m598.789 393.3309l-1.546875 0l0 -13.59375l1.65625 0l0 4.84375q1.0625 -1.328125 2.703125 -1.328125q0.90625 0 1.71875 0.375q0.8125 0.359375 1.328125 1.03125q0.53125 0.65625 0.828125 1.59375q0.296875 0.9375 0.296875 2.0q0 2.53125 -1.25 3.921875q-1.25 1.375 -3.0 1.375q-1.75 0 -2.734375 -1.453125l0 1.234375zm-0.015625 -5.0q0 1.765625 0.46875 2.5625q0.796875 1.28125 2.140625 1.28125q1.09375 0 1.890625 -0.9375q0.796875 -0.953125 0.796875 -2.84375q0 -1.921875 -0.765625 -2.84375q-0.765625 -0.921875 -1.84375 -0.921875q-1.09375 0 -1.890625 0.953125q-0.796875 0.953125 -0.796875 2.75z" fill-rule="nonzero"></path><path fill="#d9ead3" d="m259.01575 397.90698l0 0c0 -14.3594055 11.414978 -26.0 25.496063 -26.0l0 0c6.761963 0 13.247009 2.7392578 18.028442 7.615204c4.781433 4.875946 7.467621 11.489166 7.467621 18.384796l0 0c0 14.3594055 -11.414978 26.0 -25.496063 26.0l0 0c-14.081085 0 -25.496063 -11.6405945 -25.496063 -26.0z" fill-rule="evenodd"></path><path stroke="#595959" stroke-width="1.0" stroke-linejoin="round" stroke-linecap="butt" d="m259.01575 397.90698l0 0c0 -14.3594055 11.414978 -26.0 25.496063 -26.0l0 0c6.761963 0 13.247009 2.7392578 18.028442 7.615204c4.781433 4.875946 7.467621 11.489166 7.467621 18.384796l0 0c0 14.3594055 -11.414978 26.0 -25.496063 26.0l0 0c-14.081085 0 -25.496063 -11.6405945 -25.496063 -26.0z" fill-rule="evenodd"></path><path fill="#000000" d="m288.61804 394.51697q-0.78125 -0.296875 -1.65625 -0.296875q-0.765625 0 -1.125 0.34375q-0.359375 0.328125 -0.359375 1.046875l0 0.21875l2.734375 0l0 1.84375l-2.734375 0l0 6.09375l-2.359375 0l0 -6.09375l-2.09375 0l0 -1.75l2.09375 -0.09375l0 -0.203125q0 -0.6875 0.203125 -1.28125q0.21875 -0.59375 0.640625 -1.03125q0.4375 -0.4375 1.109375 -0.6875q0.671875 -0.265625 1.59375 -0.265625q0.6875 0 1.28125 0.125q0.609375 0.125 1.125 0.3125l-0.453125 1.71875z" fill-rule="nonzero"></path><path fill="#000000" fill-opacity="0.0" d="m189.22835 398.0251l69.79527 -0.12597656" fill-rule="evenodd"></path><path stroke="#595959" stroke-width="1.0" stroke-linejoin="round" stroke-linecap="butt" d="m189.22835 398.0251l63.795273 -0.11514282" fill-rule="evenodd"></path><path fill="#595959" stroke="#595959" stroke-width="1.0" stroke-linecap="butt" d="m253.02661 399.56168l4.5351257 -1.6599121l-4.541092 -1.6435547z" fill-rule="evenodd"></path><path fill="#000000" fill-opacity="0.0" d="m207.10236 364.41092l36.91339 0l0 31.496063l-36.91339 0z" fill-rule="evenodd"></path><path fill="#000000" d="m223.78986 390.11215q-0.9375 0.796875 -1.796875 1.125q-0.859375 0.3125 -1.84375 0.3125q-1.609375 0 -2.484375 -0.78125q-0.875 -0.796875 -0.875 -2.03125q0 -0.734375 0.328125 -1.328125q0.328125 -0.59375 0.859375 -0.953125q0.53125 -0.359375 1.203125 -0.546875q0.5 -0.140625 1.484375 -0.25q2.03125 -0.25 2.984375 -0.578125q0 -0.34375 0 -0.4375q0 -1.015625 -0.46875 -1.4375q-0.640625 -0.5625 -1.90625 -0.5625q-1.171875 0 -1.734375 0.40625q-0.5625 0.40625 -0.828125 1.46875l-1.640625 -0.234375q0.234375 -1.046875 0.734375 -1.6875q0.515625 -0.640625 1.46875 -0.984375q0.96875 -0.359375 2.25 -0.359375q1.265625 0 2.046875 0.296875q0.78125 0.296875 1.15625 0.75q0.375 0.453125 0.515625 1.140625q0.09375 0.421875 0.09375 1.53125l0 2.234375q0 2.328125 0.09375 2.953125q0.109375 0.609375 0.4375 1.171875l-1.75 0q-0.265625 -0.515625 -0.328125 -1.21875zm-0.140625 -3.71875q-0.90625 0.359375 -2.734375 0.625q-1.03125 0.140625 -1.453125 0.328125q-0.421875 0.1875 -0.65625 0.546875q-0.234375 0.359375 -0.234375 0.796875q0 0.671875 0.5 1.125q0.515625 0.4375 1.484375 0.4375q0.96875 0 1.71875 -0.421875q0.75 -0.4375 1.109375 -1.15625q0.265625 -0.578125 0.265625 -1.671875l0 -0.609375zm3.9850922 -6.859375l0 -1.9375l1.78125 0l0 1.53125q0 1.234375 -0.28125 1.78125q-0.40625 0.75 -1.25 1.140625l-0.40625 -0.671875q0.5 -0.203125 0.75 -0.640625q0.25 -0.4375 0.265625 -1.203125l-0.859375 0z" fill-rule="nonzero"></path><path fill="#f4cccc" d="m648.49603 397.90698l0 0c0 -14.3594055 11.414978 -26.0 25.496094 -26.0l0 0c6.761963 0 13.247009 2.7392578 18.028442 7.615204c4.781433 4.875946 7.4675903 11.489166 7.4675903 18.384796l0 0c0 14.3594055 -11.414917 26.0 -25.496033 26.0l0 0c-14.081116 0 -25.496094 -11.6405945 -25.496094 -26.0z" fill-rule="evenodd"></path><path stroke="#595959" stroke-width="1.0" stroke-linejoin="round" stroke-linecap="butt" d="m648.49603 397.90698l0 0c0 -14.3594055 11.414978 -26.0 25.496094 -26.0l0 0c6.761963 0 13.247009 2.7392578 18.028442 7.615204c4.781433 4.875946 7.4675903 11.489166 7.4675903 18.384796l0 0c0 14.3594055 -11.414917 26.0 -25.496033 26.0l0 0c-14.081116 0 -25.496094 -11.6405945 -25.496094 -26.0z" fill-rule="evenodd"></path><path fill="#000000" d="m671.94214 404.75134q0 0.453125 0.53125 0.6875q0.546875 0.234375 1.484375 0.234375q0.96875 0 1.546875 -0.28125q0.59375 -0.28125 0.59375 -0.703125q0 -0.375 -0.359375 -0.5q-0.34375 -0.125 -1.03125 -0.125l-0.984375 0q-0.4375 0 -0.71875 -0.03125q-0.28125 -0.015625 -0.5 -0.0625q-0.296875 0.203125 -0.4375 0.375q-0.125 0.1875 -0.125 0.40625zm-1.921875 0.359375q0 -0.96875 1.234375 -1.578125l0 -0.0625q-0.3125 -0.21875 -0.5625 -0.53125q-0.234375 -0.328125 -0.234375 -0.828125q0 -0.40625 0.265625 -0.796875q0.265625 -0.40625 0.671875 -0.703125l0 -0.0625q-0.421875 -0.28125 -0.734375 -0.796875q-0.296875 -0.53125 -0.296875 -1.234375q0 -0.71875 0.28125 -1.25q0.28125 -0.546875 0.734375 -0.90625q0.46875 -0.359375 1.078125 -0.53125q0.625 -0.1875 1.296875 -0.1875q0.734375 0 1.3125 0.1875l3.21875 0l0 1.71875l-1.625 0q0.140625 0.171875 0.25 0.453125q0.125 0.28125 0.125 0.59375q0 0.6875 -0.265625 1.1875q-0.25 0.5 -0.6875 0.828125q-0.4375 0.328125 -1.046875 0.484375q-0.59375 0.15625 -1.28125 0.15625q-0.515625 0 -1.09375 -0.15625q-0.171875 0.125 -0.265625 0.265625q-0.078125 0.125 -0.078125 0.3125q0 0.3125 0.3125 0.46875q0.328125 0.140625 1.03125 0.140625l1.46875 0q1.5625 0 2.390625 0.46875q0.828125 0.453125 0.828125 1.53125q0 0.625 -0.34375 1.140625q-0.328125 0.53125 -0.9375 0.90625q-0.609375 0.375 -1.5 0.59375q-0.875 0.21875 -1.9375 0.21875q-0.78125 0 -1.4375 -0.125q-0.65625 -0.109375 -1.140625 -0.359375q-0.484375 -0.25 -0.765625 -0.640625q-0.265625 -0.375 -0.265625 -0.90625zm3.734375 -5.28125q0.5 0 0.859375 -0.328125q0.359375 -0.328125 0.359375 -0.984375q0 -0.640625 -0.359375 -0.96875q-0.359375 -0.328125 -0.859375 -0.328125q-0.5 0 -0.84375 0.328125q-0.34375 0.328125 -0.34375 0.96875q0 0.65625 0.34375 0.984375q0.34375 0.328125 0.84375 0.328125z" fill-rule="nonzero"></path><path fill="#000000" fill-opacity="0.0" d="m699.48816 397.90698l70.519714 0.12597656" fill-rule="evenodd"></path><path stroke="#595959" stroke-width="1.0" stroke-linejoin="round" stroke-linecap="butt" d="m699.48816 397.90698l64.519714 0.11529541" fill-rule="evenodd"></path><path fill="#595959" stroke="#595959" stroke-width="1.0" stroke-linecap="butt" d="m764.00494 399.67398l4.5410156 -1.6436157l-4.535095 -1.6598511z" fill-rule="evenodd"></path><path fill="#000000" fill-opacity="0.0" d="m714.10236 365.41092l36.91339 0l0 31.496063l-36.91339 0z" fill-rule="evenodd"></path><path fill="#000000" d="m725.89923 392.3309l-1.546875 0l0 -13.59375l1.65625 0l0 4.84375q1.0625 -1.328125 2.703125 -1.328125q0.90625 0 1.71875 0.375q0.8125 0.359375 1.328125 1.03125q0.53125 0.65625 0.828125 1.59375q0.296875 0.9375 0.296875 2.0q0 2.53125 -1.25 3.921875q-1.25 1.375 -3.0 1.375q-1.75 0 -2.734375 -1.453125l0 1.234375zm-0.015625 -5.0q0 1.765625 0.46875 2.5625q0.796875 1.28125 2.140625 1.28125q1.09375 0 1.890625 -0.9375q0.796875 -0.953125 0.796875 -2.84375q0 -1.921875 -0.765625 -2.84375q-0.765625 -0.921875 -1.84375 -0.921875q-1.09375 0 -1.890625 0.953125q-0.796875 0.953125 -0.796875 2.75zm8.750732 -6.796875l0 -1.9375l1.78125 0l0 1.53125q0 1.234375 -0.28125 1.78125q-0.40625 0.75 -1.25 1.140625l-0.40625 -0.671875q0.5 -0.203125 0.75 -0.640625q0.25 -0.4375 0.265625 -1.203125l-0.859375 0z" fill-rule="nonzero"></path><path fill="#000000" fill-opacity="0.0" d="m105.51181 398.0251l83.71654 0" fill-rule="evenodd"></path><path stroke="#595959" stroke-width="1.0" stroke-linejoin="round" stroke-linecap="butt" d="m105.51181 398.0251l77.71654 0" fill-rule="evenodd"></path><path fill="#595959" stroke="#595959" stroke-width="1.0" stroke-linecap="butt" d="m183.22835 399.67682l4.538101 -1.6517334l-4.538101 -1.6517334z" fill-rule="evenodd"></path><path fill="#000000" fill-opacity="0.0" d="m770.01575 398.0251l84.47241 0" fill-rule="evenodd"></path><path stroke="#595959" stroke-width="1.0" stroke-linejoin="round" stroke-linecap="butt" d="m770.01575 398.0251l78.47241 0" fill-rule="evenodd"></path><path fill="#595959" stroke="#595959" stroke-width="1.0" stroke-linecap="butt" d="m848.48816 399.67682l4.538147 -1.6517334l-4.538147 -1.6517334z" fill-rule="evenodd"></path><path fill="#000000" fill-opacity="0.0" d="m127.10236 364.41092l36.913383 0l0 31.496063l-36.913383 0z" fill-rule="evenodd"></path><path fill="#000000" d="m143.78986 390.11215q-0.9375 0.796875 -1.796875 1.125q-0.859375 0.3125 -1.84375 0.3125q-1.609375 0 -2.484375 -0.78125q-0.875 -0.796875 -0.875 -2.03125q0 -0.734375 0.328125 -1.328125q0.328125 -0.59375 0.859375 -0.953125q0.53125 -0.359375 1.203125 -0.546875q0.5 -0.140625 1.484375 -0.25q2.03125 -0.25 2.984375 -0.578125q0 -0.34375 0 -0.4375q0 -1.015625 -0.46875 -1.4375q-0.640625 -0.5625 -1.90625 -0.5625q-1.171875 0 -1.734375 0.40625q-0.5625 0.40625 -0.828125 1.46875l-1.640625 -0.234375q0.234375 -1.046875 0.734375 -1.6875q0.515625 -0.640625 1.46875 -0.984375q0.96875 -0.359375 2.25 -0.359375q1.265625 0 2.046875 0.296875q0.78125 0.296875 1.15625 0.75q0.375 0.453125 0.515625 1.140625q0.09375 0.421875 0.09375 1.53125l0 2.234375q0 2.328125 0.09375 2.953125q0.109375 0.609375 0.4375 1.171875l-1.75 0q-0.265625 -0.515625 -0.328125 -1.21875zm-0.140625 -3.71875q-0.90625 0.359375 -2.734375 0.625q-1.03125 0.140625 -1.453125 0.328125q-0.421875 0.1875 -0.65625 0.546875q-0.234375 0.359375 -0.234375 0.796875q0 0.671875 0.5 1.125q0.515625 0.4375 1.484375 0.4375q0.96875 0 1.71875 -0.421875q0.75 -0.4375 1.109375 -1.15625q0.265625 -0.578125 0.265625 -1.671875l0 -0.609375zm3.9850922 -6.859375l0 -1.9375l1.78125 0l0 1.53125q0 1.234375 -0.28125 1.78125q-0.40625 0.75 -1.25 1.140625l-0.40625 -0.671875q0.5 -0.203125 0.75 -0.640625q0.25 -0.4375 0.265625 -1.203125l-0.859375 0z" fill-rule="nonzero"></path><path fill="#000000" fill-opacity="0.0" d="m794.10236 365.41092l36.91339 0l0 31.496063l-36.91339 0z" fill-rule="evenodd"></path><path fill="#000000" d="m805.89923 392.3309l-1.546875 0l0 -13.59375l1.65625 0l0 4.84375q1.0625 -1.328125 2.703125 -1.328125q0.90625 0 1.71875 0.375q0.8125 0.359375 1.328125 1.03125q0.53125 0.65625 0.828125 1.59375q0.296875 0.9375 0.296875 2.0q0 2.53125 -1.25 3.921875q-1.25 1.375 -3.0 1.375q-1.75 0 -2.734375 -1.453125l0 1.234375zm-0.015625 -5.0q0 1.765625 0.46875 2.5625q0.796875 1.28125 2.140625 1.28125q1.09375 0 1.890625 -0.9375q0.796875 -0.953125 0.796875 -2.84375q0 -1.921875 -0.765625 -2.84375q-0.765625 -0.921875 -1.84375 -0.921875q-1.09375 0 -1.890625 0.953125q-0.796875 0.953125 -0.796875 2.75zm8.750732 -6.796875l0 -1.9375l1.78125 0l0 1.53125q0 1.234375 -0.28125 1.78125q-0.40625 0.75 -1.25 1.140625l-0.40625 -0.671875q0.5 -0.203125 0.75 -0.640625q0.25 -0.4375 0.265625 -1.203125l-0.859375 0z" fill-rule="nonzero"></path><path fill="#000000" fill-opacity="0.0" d="m0 266.51147l960.69293 1.3858032" fill-rule="evenodd"></path><path stroke="#595959" stroke-width="1.0" stroke-linejoin="round" stroke-linecap="butt" stroke-dasharray="1.0,3.0" d="m0 266.51147l960.69293 1.3858032" fill-rule="evenodd"></path></g></svg>

