<?xml version="1.0" standalone="yes"?>

<svg version="1.1" viewBox="0.0 0.0 960.0 540.0" fill="none" stroke="none" stroke-linecap="square" stroke-miterlimit="10" xmlns="http://www.w3.org/2000/svg" xmlns:xlink="http://www.w3.org/1999/xlink"><clipPath id="g2563b22d09_0_30.0"><path d="m0 0l960.0 0l0 540.0l-960.0 0l0 -540.0z" clip-rule="nonzero"></path></clipPath><g clip-path="url(#g2563b22d09_0_30.0)"><path fill="#ffffff" d="m0 0l960.0 0l0 540.0l-960.0 0z" fill-rule="evenodd"></path><path fill="#d9d2e9" d="m114.41732 306.27982l733.95276 0l0 202.33069l-733.95276 0z" fill-rule="evenodd"></path><path stroke="#595959" stroke-width="1.0" stroke-linejoin="round" stroke-linecap="butt" d="m114.41732 306.27982l733.95276 0l0 202.33069l-733.95276 0z" fill-rule="evenodd"></path><path fill="#000000" d="m125.19857 492.09552q0.1875 -0.9375 0.640625 -1.703125q0.46875 -0.765625 1.078125 -1.28125q0.609375 -0.53125 1.2968826 -0.8125q0.703125 -0.296875 1.390625 -0.296875q0.71875 0 1.203125 0.28125q0.484375 0.265625 0.9375 0.734375l0.25 -1.453125l0.640625 -2.984375l1.3125 0l-2.421875 11.390625l-1.078125 0l0.09375 -1.03125l-0.046875 0q-0.578125 0.5 -1.328125 0.859375q-0.734375 0.359375 -1.4531326 0.359375q-0.78125 0 -1.328125 -0.265625q-0.546875 -0.28125 -0.890625 -0.796875q-0.34375 -0.515625 -0.4375 -1.265625q-0.078125 -0.75 0.140625 -1.734375zm1.359375 -0.015625q-0.296875 1.40625 0.125 2.203125q0.4375 0.78125 1.5312576 0.78125q1.15625 0 2.4375 -1.171875l0.828125 -3.875q-0.421875 -0.5 -0.890625 -0.703125q-0.453125 -0.203125 -0.96875 -0.203125q-0.515625 0 -1.0 0.21875q-0.46875 0.203125 -0.8906326 0.609375q-0.40625 0.390625 -0.71875 0.9375q-0.3125 0.53125 -0.453125 1.203125zm9.553154 -3.890625l4.9375 0l-1.65625 7.78125l-1.3125 0l1.421875 -6.703125l-3.625 0l0.234375 -1.078125zm4.46875 -1.59375q-0.453125 0 -0.703125 -0.265625q-0.234375 -0.28125 -0.140625 -0.75q0.109375 -0.453125 0.453125 -0.734375q0.359375 -0.28125 0.8125 -0.28125q0.453125 0 0.703125 0.28125q0.25 0.28125 0.140625 0.734375q-0.09375 0.46875 -0.453125 0.75q-0.359375 0.265625 -0.8125 0.265625zm4.6468964 1.59375l1.03125 0l-0.109375 1.03125l0.046875 0q0.40625 -0.546875 0.859375 -0.875q0.46875 -0.34375 1.140625 -0.34375q1.1875 0 1.1875 1.34375q0.484375 -0.609375 0.96875 -0.96875q0.5 -0.375 1.15625 -0.375q0.8125 0 1.125 0.625q0.3125 0.609375 0.0625 1.78125l-1.1875 5.5625l-1.265625 0l1.15625 -5.453125q0.296875 -1.375 -0.546875 -1.375q-0.40625 0 -0.78125 0.296875q-0.359375 0.296875 -0.796875 0.90625l-1.203125 5.625l-1.046875 0l1.15625 -5.453125q0.296875 -1.375 -0.59375 -1.375q-0.40625 0 -0.765625 0.296875q-0.34375 0.296875 -0.78125 0.90625l-1.203125 5.625l-1.265625 0l1.65625 -7.78125zm8.709396 5.765625q0.140625 -0.65625 0.5625 -1.140625q0.421875 -0.484375 1.171875 -0.84375q0.75 -0.359375 1.859375 -0.578125q1.125 -0.21875 2.65625 -0.34375q0.0625 -0.40625 0.03125 -0.75q-0.03125 -0.359375 -0.21875 -0.625q-0.1875 -0.265625 -0.546875 -0.421875q-0.34375 -0.15625 -0.90625 -0.15625q-0.765625 0 -1.546875 0.296875q-0.765625 0.296875 -1.375 0.625l-0.328125 -0.890625q0.34375 -0.203125 0.765625 -0.390625q0.4375 -0.203125 0.90625 -0.359375q0.484375 -0.171875 1.0 -0.265625q0.515625 -0.109375 1.03125 -0.109375q1.59375 0 2.1875 0.875q0.59375 0.875 0.28125 2.328125l-1.015625 4.765625l-1.0625 0l0.109375 -1.0625l-0.046875 0q-0.765625 0.515625 -1.640625 0.890625q-0.875 0.359375 -1.703125 0.359375q-0.546875 0 -1.0 -0.15625q-0.4375 -0.140625 -0.734375 -0.421875q-0.296875 -0.28125 -0.421875 -0.6875q-0.125 -0.40625 -0.015625 -0.9375zm1.3125 -0.09375q-0.078125 0.328125 0.015625 0.5625q0.09375 0.234375 0.296875 0.390625q0.203125 0.140625 0.5 0.21875q0.296875 0.078125 0.625 0.078125q0.671875 0 1.375 -0.296875q0.71875 -0.296875 1.5 -0.859375l0.4375 -2.046875q-1.25 0.09375 -2.140625 0.28125q-0.875 0.171875 -1.4375 0.421875q-0.546875 0.234375 -0.828125 0.546875q-0.265625 0.3125 -0.34375 0.703125zm9.225021 2.765625l-0.5625 2.625l-1.3125 0l2.359375 -11.0625l1.09375 0l-0.109375 1.0l0.046875 0q0.65625 -0.515625 1.4375 -0.84375q0.78125 -0.34375 1.5 -0.34375q0.78125 0 1.328125 0.28125q0.546875 0.28125 0.84375 0.796875q0.296875 0.515625 0.34375 1.25q0.0625 0.734375 -0.140625 1.640625q-0.203125 0.984375 -0.65625 1.765625q-0.453125 0.78125 -1.0625 1.328125q-0.59375 0.53125 -1.296875 0.8125q-0.703125 0.28125 -1.40625 0.28125q-0.546875 0 -1.125 -0.265625q-0.5625 -0.265625 -1.0 -0.734375l-0.28125 1.46875zm0.53125 -2.484375q0.453125 0.5 0.96875 0.71875q0.515625 0.203125 0.90625 0.203125q1.0625 0 1.90625 -0.8125q0.859375 -0.828125 1.15625 -2.28125q0.140625 -0.640625 0.125 -1.171875q0 -0.53125 -0.1875 -0.90625q-0.1875 -0.375 -0.578125 -0.578125q-0.375 -0.203125 -0.9375 -0.203125q-0.515625 0 -1.15625 0.28125q-0.640625 0.28125 -1.375 0.875l-0.828125 3.875z" fill-rule="nonzero"></path><path fill="#000000" d="m189.95496 485.8299q-0.46875 -0.234375 -0.890625 -0.296875q-0.40625 -0.078125 -0.90625 -0.078125q-1.0625 0 -1.515625 0.546875q-0.453125 0.53125 -0.453125 1.484375l0 0.703125l3.265625 0l0 1.078125l-3.265625 0l0 6.703125l-1.296875 0l0 -6.703125l-2.234375 0l0 -1.0l2.234375 -0.078125l0 -0.65625q0 -1.421875 0.75 -2.28125q0.765625 -0.859375 2.390625 -0.859375q1.140625 0 2.234375 0.4375l-0.3125 1.0zm12.543793 11.4375q0 0.609375 0.640625 0.984375q0.65625 0.390625 1.90625 0.390625q0.671875 0 1.21875 -0.140625q0.546875 -0.125 0.921875 -0.359375q0.390625 -0.21875 0.59375 -0.515625q0.203125 -0.28125 0.203125 -0.578125q0 -0.5625 -0.453125 -0.765625q-0.4375 -0.1875 -1.328125 -0.1875l-1.515625 0q-0.34375 0 -0.640625 -0.03125q-0.296875 -0.015625 -0.546875 -0.09375q-0.5625 0.296875 -0.78125 0.625q-0.21875 0.328125 -0.21875 0.671875zm-1.125 0.125q0 -0.46875 0.328125 -0.921875q0.328125 -0.4375 0.953125 -0.796875l0 -0.078125q-0.328125 -0.171875 -0.578125 -0.46875q-0.234375 -0.3125 -0.234375 -0.796875q0 -0.375 0.234375 -0.765625q0.25 -0.390625 0.703125 -0.703125l0 -0.0625q-0.40625 -0.296875 -0.6875 -0.796875q-0.28125 -0.515625 -0.28125 -1.21875q0 -0.640625 0.25 -1.140625q0.25 -0.515625 0.65625 -0.875q0.421875 -0.359375 0.96875 -0.5625q0.5625 -0.203125 1.1875 -0.203125q0.640625 0 1.15625 0.1875l3.21875 0l0 1.015625l-2.09375 0q0.28125 0.28125 0.5 0.703125q0.21875 0.421875 0.21875 0.921875q0 0.625 -0.234375 1.125q-0.21875 0.5 -0.625 0.84375q-0.40625 0.34375 -0.96875 0.53125q-0.546875 0.171875 -1.171875 0.171875q-0.296875 0 -0.65625 -0.0625q-0.34375 -0.078125 -0.65625 -0.21875q-0.609375 0.375 -0.609375 0.890625q0 0.46875 0.421875 0.6875q0.421875 0.21875 1.203125 0.21875l1.734375 0q1.5 0 2.234375 0.421875q0.734375 0.40625 0.734375 1.390625q0 0.546875 -0.3125 1.046875q-0.296875 0.5 -0.859375 0.859375q-0.5625 0.375 -1.359375 0.59375q-0.796875 0.21875 -1.796875 0.21875q-1.703125 0 -2.640625 -0.5625q-0.9375 -0.546875 -0.9375 -1.59375zm3.5 -4.765625q0.75 0 1.265625 -0.5q0.53125 -0.5 0.53125 -1.34375q0 -0.390625 -0.15625 -0.71875q-0.140625 -0.34375 -0.375 -0.578125q-0.234375 -0.25 -0.5625 -0.390625q-0.328125 -0.140625 -0.703125 -0.140625q-0.375 0 -0.703125 0.140625q-0.328125 0.140625 -0.5625 0.390625q-0.234375 0.234375 -0.390625 0.578125q-0.140625 0.328125 -0.140625 0.71875q0 0.84375 0.53125 1.34375q0.53125 0.5 1.265625 0.5z" fill-rule="nonzero"></path><path fill="#ffffff" d="m446.6691 235.44928l66.66177 0l0 15.91951l-66.66177 0zm0 23.879272l66.66177 0l0 15.919525l-66.66177 0z" fill-rule="evenodd"></path><path stroke="#595959" stroke-width="1.0" stroke-linejoin="round" stroke-linecap="butt" d="m446.6691 235.44928l66.66177 0l0 15.91951l-66.66177 0zm0 23.879272l66.66177 0l0 15.919525l-66.66177 0z" fill-rule="evenodd"></path><path fill="#eeeeee" d="m189.22835 36.878403l580.7874 0l0 169.73228l-580.7874 0z" fill-rule="evenodd"></path><path stroke="#595959" stroke-width="1.0" stroke-linejoin="round" stroke-linecap="butt" d="m189.22835 36.878403l580.7874 0l0 169.73228l-580.7874 0z" fill-rule="evenodd"></path><path fill="#000000" d="m200.0096 190.09569q0.1875 -0.9375 0.640625 -1.703125q0.46875 -0.765625 1.078125 -1.28125q0.609375 -0.53125 1.296875 -0.8125q0.703125 -0.296875 1.390625 -0.296875q0.71875 0 1.203125 0.28125q0.484375 0.265625 0.9375 0.734375l0.25 -1.453125l0.640625 -2.984375l1.3125 0l-2.421875 11.390625l-1.078125 0l0.09375 -1.03125l-0.046875 0q-0.578125 0.5 -1.328125 0.859375q-0.734375 0.359375 -1.453125 0.359375q-0.78125 0 -1.328125 -0.265625q-0.546875 -0.28125 -0.890625 -0.796875q-0.34375 -0.515625 -0.4375 -1.265625q-0.078125 -0.75 0.140625 -1.734375zm1.359375 -0.015625q-0.296875 1.40625 0.125 2.203125q0.4375 0.78125 1.53125 0.78125q1.15625 0 2.4375 -1.171875l0.828125 -3.875q-0.421875 -0.5 -0.890625 -0.703125q-0.453125 -0.203125 -0.96875 -0.203125q-0.515625 0 -1.0 0.21875q-0.46875 0.203125 -0.890625 0.609375q-0.40625 0.390625 -0.71875 0.9375q-0.3125 0.53125 -0.453125 1.203125zm9.553146 -3.890625l4.9375 0l-1.65625 7.78125l-1.3125 0l1.421875 -6.703125l-3.625 0l0.234375 -1.078125zm4.46875 -1.59375q-0.453125 0 -0.703125 -0.265625q-0.234375 -0.28125 -0.140625 -0.75q0.109375 -0.453125 0.453125 -0.734375q0.359375 -0.28125 0.8125 -0.28125q0.453125 0 0.703125 0.28125q0.25 0.28125 0.140625 0.734375q-0.09375 0.46875 -0.453125 0.75q-0.359375 0.265625 -0.8125 0.265625zm4.6468964 1.59375l1.03125 0l-0.109375 1.03125l0.046875 0q0.40625 -0.546875 0.859375 -0.875q0.46875 -0.34375 1.140625 -0.34375q1.1875 0 1.1875 1.34375q0.484375 -0.609375 0.96875 -0.96875q0.5 -0.375 1.15625 -0.375q0.8125 0 1.125 0.625q0.3125 0.609375 0.0625 1.78125l-1.1875 5.5625l-1.265625 0l1.15625 -5.453125q0.296875 -1.375 -0.546875 -1.375q-0.40625 0 -0.78125 0.296875q-0.359375 0.296875 -0.796875 0.90625l-1.203125 5.625l-1.046875 0l1.15625 -5.453125q0.296875 -1.375 -0.59375 -1.375q-0.40625 0 -0.765625 0.296875q-0.34375 0.296875 -0.78125 0.90625l-1.203125 5.625l-1.265625 0l1.65625 -7.78125zm8.709396 5.765625q0.140625 -0.65625 0.5625 -1.140625q0.421875 -0.484375 1.171875 -0.84375q0.75 -0.359375 1.859375 -0.578125q1.125 -0.21875 2.65625 -0.34375q0.0625 -0.40625 0.03125 -0.75q-0.03125 -0.359375 -0.21875 -0.625q-0.1875 -0.265625 -0.546875 -0.421875q-0.34375 -0.15625 -0.90625 -0.15625q-0.765625 0 -1.546875 0.296875q-0.765625 0.296875 -1.375 0.625l-0.328125 -0.890625q0.34375 -0.203125 0.765625 -0.390625q0.4375 -0.203125 0.90625 -0.359375q0.484375 -0.171875 1.0 -0.265625q0.515625 -0.109375 1.03125 -0.109375q1.59375 0 2.1875 0.875q0.59375 0.875 0.28125 2.328125l-1.015625 4.765625l-1.0625 0l0.109375 -1.0625l-0.046875 0q-0.765625 0.515625 -1.640625 0.890625q-0.875 0.359375 -1.703125 0.359375q-0.546875 0 -1.0 -0.15625q-0.4375 -0.140625 -0.734375 -0.421875q-0.296875 -0.28125 -0.421875 -0.6875q-0.125 -0.40625 -0.015625 -0.9375zm1.3125 -0.09375q-0.078125 0.328125 0.015625 0.5625q0.09375 0.234375 0.296875 0.390625q0.203125 0.140625 0.5 0.21875q0.296875 0.078125 0.625 0.078125q0.671875 0 1.375 -0.296875q0.71875 -0.296875 1.5 -0.859375l0.4375 -2.046875q-1.25 0.09375 -2.140625 0.28125q-0.875 0.171875 -1.4375 0.421875q-0.546875 0.234375 -0.828125 0.546875q-0.265625 0.3125 -0.34375 0.703125zm9.225021 2.765625l-0.5625 2.625l-1.3125 0l2.359375 -11.0625l1.09375 0l-0.109375 1.0l0.046875 0q0.65625 -0.515625 1.4375 -0.84375q0.78125 -0.34375 1.5 -0.34375q0.78125 0 1.328125 0.28125q0.546875 0.28125 0.84375 0.796875q0.296875 0.515625 0.34375 1.25q0.0625 0.734375 -0.140625 1.640625q-0.203125 0.984375 -0.65625 1.765625q-0.453125 0.78125 -1.0625 1.328125q-0.59375 0.53125 -1.296875 0.8125q-0.703125 0.28125 -1.40625 0.28125q-0.546875 0 -1.125 -0.265625q-0.5625 -0.265625 -1.0 -0.734375l-0.28125 1.46875zm0.53125 -2.484375q0.453125 0.5 0.96875 0.71875q0.515625 0.203125 0.90625 0.203125q1.0625 0 1.90625 -0.8125q0.859375 -0.828125 1.15625 -2.28125q0.140625 -0.640625 0.125 -1.171875q0 -0.53125 -0.1875 -0.90625q-0.1875 -0.375 -0.578125 -0.578125q-0.375 -0.203125 -0.9375 -0.203125q-0.515625 0 -1.15625 0.28125q-0.640625 0.28125 -1.375 0.875l-0.828125 3.875z" fill-rule="nonzero"></path><path fill="#000000" d="m262.75034 196.78319q-1.65625 -1.296875 -2.625 -3.109375q-0.96875 -1.828125 -0.96875 -4.15625q0 -2.3125 0.96875 -4.140625q0.96875 -1.828125 2.625 -3.125l0.71875 0.671875q-1.609375 1.359375 -2.375 2.96875q-0.75 1.59375 -0.75 3.625q0 2.03125 0.75 3.640625q0.765625 1.59375 2.375 2.953125l-0.71875 0.671875l0 0zm11.615662 -12.953125q-0.46875 -0.234375 -0.890625 -0.296875q-0.40625 -0.078125 -0.90625 -0.078125q-1.0625 0 -1.515625 0.546875q-0.453125 0.53125 -0.453125 1.484375l0 0.703125l3.265625 0l0 1.078125l-3.265625 0l0 6.703125l-1.296875 0l0 -6.703125l-2.234375 0l0 -1.0l2.234375 -0.078125l0 -0.65625q0 -1.421875 0.75 -2.28125q0.765625 -0.859375 2.390625 -0.859375q1.140625 0 2.234375 0.4375l-0.3125 1.0zm4.131256 3.765625q0.765625 -0.40625 1.1875 -1.03125q0.4375 -0.640625 0.484375 -1.484375q-0.203125 0.09375 -0.421875 0.09375q-0.515625 0 -0.828125 -0.3125q-0.3125 -0.3125 -0.3125 -0.828125q0 -0.5625 0.328125 -0.90625q0.34375 -0.34375 0.859375 -0.34375q0.640625 0 1.03125 0.515625q0.40625 0.515625 0.40625 1.421875q0 1.203125 -0.609375 2.15625q-0.609375 0.9375 -1.671875 1.5l-0.453125 -0.78125zm19.231293 5.21875q0 -0.609375 0.375 -0.984375q0.375 -0.375 0.921875 -0.375q0.546875 0 0.921875 0.375q0.375 0.375 0.375 0.984375q0 0.609375 -0.375 0.984375q-0.375 0.359375 -0.921875 0.359375q-0.546875 0 -0.921875 -0.359375q-0.375 -0.375 -0.375 -0.984375zm24.637543 -8.984375q-0.46875 -0.234375 -0.890625 -0.296875q-0.40625 -0.078125 -0.90625 -0.078125q-1.0625 0 -1.515625 0.546875q-0.453125 0.53125 -0.453125 1.484375l0 0.703125l3.265625 0l0 1.078125l-3.265625 0l0 6.703125l-1.296875 0l0 -6.703125l-2.234375 0l0 -1.0l2.234375 -0.078125l0 -0.65625q0 -1.421875 0.75 -2.28125q0.765625 -0.859375 2.390625 -0.859375q1.140625 0 2.234375 0.4375l-0.3125 1.0zm2.6156616 12.28125q1.609375 -1.359375 2.375 -2.953125q0.765625 -1.609375 0.765625 -3.640625q0 -2.03125 -0.765625 -3.625q-0.765625 -1.609375 -2.375 -2.96875l0.71875 -0.671875q1.671875 1.296875 2.625 3.125q0.96875 1.828125 0.96875 4.140625q0 2.328125 -0.96875 4.15625q-0.953125 1.8125 -2.625 3.109375l-0.71875 -0.671875zm24.168793 0.671875q-1.65625 -1.296875 -2.625 -3.109375q-0.96875 -1.828125 -0.96875 -4.15625q0 -2.3125 0.96875 -4.140625q0.96875 -1.828125 2.625 -3.125l0.71875 0.671875q-1.609375 1.359375 -2.375 2.96875q-0.75 1.59375 -0.75 3.625q0 2.03125 0.75 3.640625q0.765625 1.59375 2.375 2.953125l-0.71875 0.671875l0 0zm4.959381 -1.515625q0 0.609375 0.640625 0.984375q0.65625 0.390625 1.90625 0.390625q0.671875 0 1.21875 -0.140625q0.546875 -0.125 0.921875 -0.359375q0.390625 -0.21875 0.59375 -0.515625q0.203125 -0.28125 0.203125 -0.578125q0 -0.5625 -0.453125 -0.765625q-0.4375 -0.1875 -1.328125 -0.1875l-1.515625 0q-0.34375 0 -0.640625 -0.03125q-0.296875 -0.015625 -0.546875 -0.09375q-0.5625 0.296875 -0.78125 0.625q-0.21875 0.328125 -0.21875 0.671875zm-1.125 0.125q0 -0.46875 0.328125 -0.921875q0.328125 -0.4375 0.953125 -0.796875l0 -0.078125q-0.328125 -0.171875 -0.578125 -0.46875q-0.234375 -0.3125 -0.234375 -0.796875q0 -0.375 0.234375 -0.765625q0.25 -0.390625 0.703125 -0.703125l0 -0.0625q-0.40625 -0.296875 -0.6875 -0.796875q-0.28125 -0.515625 -0.28125 -1.21875q0 -0.640625 0.25 -1.140625q0.25 -0.515625 0.65625 -0.875q0.421875 -0.359375 0.96875 -0.5625q0.5625 -0.203125 1.1875 -0.203125q0.640625 0 1.15625 0.1875l3.21875 0l0 1.015625l-2.09375 0q0.28125 0.28125 0.5 0.703125q0.21875 0.421875 0.21875 0.921875q0 0.625 -0.234375 1.125q-0.21875 0.5 -0.625 0.84375q-0.40625 0.34375 -0.96875 0.53125q-0.546875 0.171875 -1.171875 0.171875q-0.296875 0 -0.65625 -0.0625q-0.34375 -0.078125 -0.65625 -0.21875q-0.609375 0.375 -0.609375 0.890625q0 0.46875 0.421875 0.6875q0.421875 0.21875 1.203125 0.21875l1.734375 0q1.5 0 2.234375 0.421875q0.734375 0.40625 0.734375 1.390625q0 0.546875 -0.3125 1.046875q-0.296875 0.5 -0.859375 0.859375q-0.5625 0.375 -1.359375 0.59375q-0.796875 0.21875 -1.796875 0.21875q-1.703125 0 -2.640625 -0.5625q-0.9375 -0.546875 -0.9375 -1.59375zm3.5 -4.765625q0.75 0 1.265625 -0.5q0.53125 -0.5 0.53125 -1.34375q0 -0.390625 -0.15625 -0.71875q-0.140625 -0.34375 -0.375 -0.578125q-0.234375 -0.25 -0.5625 -0.390625q-0.328125 -0.140625 -0.703125 -0.140625q-0.375 0 -0.703125 0.140625q-0.328125 0.140625 -0.5625 0.390625q-0.234375 0.234375 -0.390625 0.578125q-0.140625 0.328125 -0.140625 0.71875q0 0.84375 0.53125 1.34375q0.53125 0.5 1.265625 0.5zm18.043793 2.1875q0 -0.609375 0.375 -0.984375q0.375 -0.375 0.921875 -0.375q0.546875 0 0.921875 0.375q0.375 0.375 0.375 0.984375q0 0.609375 -0.375 0.984375q-0.375 0.359375 -0.921875 0.359375q-0.546875 0 -0.921875 -0.359375q-0.375 -0.375 -0.375 -0.984375zm17.981293 2.453125q0 0.609375 0.640625 0.984375q0.65625 0.390625 1.90625 0.390625q0.671875 0 1.21875 -0.140625q0.546875 -0.125 0.921875 -0.359375q0.390625 -0.21875 0.59375 -0.515625q0.203125 -0.28125 0.203125 -0.578125q0 -0.5625 -0.453125 -0.765625q-0.4375 -0.1875 -1.328125 -0.1875l-1.515625 0q-0.34375 0 -0.640625 -0.03125q-0.296875 -0.015625 -0.546875 -0.09375q-0.5625 0.296875 -0.78125 0.625q-0.21875 0.328125 -0.21875 0.671875zm-1.125 0.125q0 -0.46875 0.328125 -0.921875q0.328125 -0.4375 0.953125 -0.796875l0 -0.078125q-0.328125 -0.171875 -0.578125 -0.46875q-0.234375 -0.3125 -0.234375 -0.796875q0 -0.375 0.234375 -0.765625q0.25 -0.390625 0.703125 -0.703125l0 -0.0625q-0.40625 -0.296875 -0.6875 -0.796875q-0.28125 -0.515625 -0.28125 -1.21875q0 -0.640625 0.25 -1.140625q0.25 -0.515625 0.65625 -0.875q0.421875 -0.359375 0.96875 -0.5625q0.5625 -0.203125 1.1875 -0.203125q0.640625 0 1.15625 0.1875l3.21875 0l0 1.015625l-2.09375 0q0.28125 0.28125 0.5 0.703125q0.21875 0.421875 0.21875 0.921875q0 0.625 -0.234375 1.125q-0.21875 0.5 -0.625 0.84375q-0.40625 0.34375 -0.96875 0.53125q-0.546875 0.171875 -1.171875 0.171875q-0.296875 0 -0.65625 -0.0625q-0.34375 -0.078125 -0.65625 -0.21875q-0.609375 0.375 -0.609375 0.890625q0 0.46875 0.421875 0.6875q0.421875 0.21875 1.203125 0.21875l1.734375 0q1.5 0 2.234375 0.421875q0.734375 0.40625 0.734375 1.390625q0 0.546875 -0.3125 1.046875q-0.296875 0.5 -0.859375 0.859375q-0.5625 0.375 -1.359375 0.59375q-0.796875 0.21875 -1.796875 0.21875q-1.703125 0 -2.640625 -0.5625q-0.9375 -0.546875 -0.9375 -1.59375zm3.5 -4.765625q0.75 0 1.265625 -0.5q0.53125 -0.5 0.53125 -1.34375q0 -0.390625 -0.15625 -0.71875q-0.140625 -0.34375 -0.375 -0.578125q-0.234375 -0.25 -0.5625 -0.390625q-0.328125 -0.140625 -0.703125 -0.140625q-0.375 0 -0.703125 0.140625q-0.328125 0.140625 -0.5625 0.390625q-0.234375 0.234375 -0.390625 0.578125q-0.140625 0.328125 -0.140625 0.71875q0 0.84375 0.53125 1.34375q0.53125 0.5 1.265625 0.5zm8.412537 -3.03125q0.765625 -0.40625 1.1875 -1.03125q0.4375 -0.640625 0.484375 -1.484375q-0.203125 0.09375 -0.421875 0.09375q-0.515625 0 -0.828125 -0.3125q-0.3125 -0.3125 -0.3125 -0.828125q0 -0.5625 0.328125 -0.90625q0.34375 -0.34375 0.859375 -0.34375q0.640625 0 1.03125 0.515625q0.40625 0.515625 0.40625 1.421875q0 1.203125 -0.609375 2.15625q-0.609375 0.9375 -1.671875 1.5l-0.453125 -0.78125zm8.084381 8.515625q1.609375 -1.359375 2.375 -2.953125q0.765625 -1.609375 0.765625 -3.640625q0 -2.03125 -0.765625 -3.625q-0.765625 -1.609375 -2.375 -2.96875l0.71875 -0.671875q1.671875 1.296875 2.625 3.125q0.96875 1.828125 0.96875 4.140625q0 2.328125 -0.96875 4.15625q-0.953125 1.8125 -2.625 3.109375l-0.71875 -0.671875z" fill-rule="nonzero"></path><path fill="#cfe2f3" d="m393.72308 85.374466l167.30713 0l0 73.00787l-167.30713 0z" fill-rule="evenodd"></path><path stroke="#595959" stroke-width="1.0" stroke-linejoin="round" stroke-linecap="butt" d="m393.72308 85.374466l167.30713 0l0 73.00787l-167.30713 0z" fill-rule="evenodd"></path><path fill="#000000" d="m473.73288 116.51965l2.34375 0l0 2.75l-0.125 1.53125q0.234375 -0.234375 0.515625 -0.4375q0.28125 -0.21875 0.609375 -0.390625q0.328125 -0.171875 0.71875 -0.265625q0.390625 -0.09375 0.84375 -0.09375q1.34375 0 1.953125 0.859375q0.625 0.859375 0.625 2.375l0 4.890625l-2.359375 0l0 -4.59375q0 -0.796875 -0.25 -1.15625q-0.25 -0.375 -0.90625 -0.375q-0.484375 0 -0.84375 0.203125q-0.359375 0.203125 -0.78125 0.625l0 5.296875l-2.34375 0l0 -11.21875z" fill-rule="nonzero"></path><path fill="#000000" fill-opacity="0.0" d="m329.14697 122.41042l64.566925 -0.5354309" fill-rule="evenodd"></path><path stroke="#595959" stroke-width="1.0" stroke-linejoin="round" stroke-linecap="butt" d="m329.14697 122.41042l58.56714 -0.48567963" fill-rule="evenodd"></path><path fill="#595959" stroke="#595959" stroke-width="1.0" stroke-linecap="butt" d="m387.7278 123.576416l4.524231 -1.6893005l-4.5516357 -1.6140442z" fill-rule="evenodd"></path><path fill="#000000" fill-opacity="0.0" d="m561.0302 121.8784l65.543274 0.5669327" fill-rule="evenodd"></path><path stroke="#595959" stroke-width="1.0" stroke-linejoin="round" stroke-linecap="butt" d="m561.0302 121.8784l59.543457 0.5150299" fill-rule="evenodd"></path><path fill="#595959" stroke="#595959" stroke-width="1.0" stroke-linecap="butt" d="m620.55945 124.045105l4.552185 -1.6124191l-4.5236206 -1.690918z" fill-rule="evenodd"></path><path fill="#ffffff" d="m245.43045 122.41042l0 0c0 -22.908943 18.74057 -41.480316 41.858276 -41.480316l0 0c11.101501 0 21.748291 4.3702393 29.598267 12.149307c7.849945 7.779068 12.259979 18.32975 12.259979 29.331009l0 0c0 22.908943 -18.74057 41.480324 -41.858246 41.480324l0 0c-23.117706 0 -41.858276 -18.57138 -41.858276 -41.480324z" fill-rule="evenodd"></path><path stroke="#595959" stroke-width="1.0" stroke-linejoin="round" stroke-linecap="butt" d="m245.43045 122.41042l0 0c0 -22.908943 18.74057 -41.480316 41.858276 -41.480316l0 0c11.101501 0 21.748291 4.3702393 29.598267 12.149307c7.849945 7.779068 12.259979 18.32975 12.259979 29.331009l0 0c0 22.908943 -18.74057 41.480324 -41.858246 41.480324l0 0c-23.117706 0 -41.858276 -18.57138 -41.858276 -41.480324z" fill-rule="evenodd"></path><path fill="#000000" d="m276.99493 119.020424q-0.78125 -0.296875 -1.65625 -0.296875q-0.765625 0 -1.125 0.34375q-0.359375 0.328125 -0.359375 1.046875l0 0.21875l2.734375 0l0 1.84375l-2.734375 0l0 6.0937576l-2.359375 0l0 -6.0937576l-2.09375 0l0 -1.75l2.09375 -0.09375l0 -0.203125q0 -0.6875 0.203125 -1.28125q0.21875 -0.59375 0.640625 -1.03125q0.4375 -0.4375 1.109375 -0.6875q0.671875 -0.265625 1.59375 -0.265625q0.6875 0 1.28125 0.125q0.609375 0.125 1.125 0.3125l-0.453125 1.71875zm3.928131 3.359375q1.671875 -0.75 1.796875 -2.21875q-0.1875 0.046875 -0.328125 0.046875q-0.65625 0 -1.0625 -0.390625q-0.40625 -0.40625 -0.40625 -1.078125q0 -0.734375 0.421875 -1.171875q0.4375 -0.453125 1.109375 -0.453125q0.921875 0 1.390625 0.6875q0.484375 0.671875 0.484375 1.875q0 1.3125 -0.6875 2.3125q-0.6875 1.0 -2.09375 1.640625l-0.625 -1.25zm9.303162 4.203125q0 -0.390625 0.140625 -0.734375q0.140625 -0.34375 0.375 -0.59375q0.25 -0.265625 0.59375 -0.40625q0.34375 -0.140625 0.75 -0.140625q0.421875 0 0.765625 0.140625q0.34375 0.140625 0.578125 0.40625q0.25 0.25 0.375 0.59375q0.140625 0.34375 0.140625 0.734375q0 0.8125 -0.515625 1.34375q-0.515625 0.5312576 -1.34375 0.5312576q-0.828125 0 -1.34375 -0.5312576q-0.515625 -0.53125 -0.515625 -1.34375zm15.568756 -7.5625q-0.78125 -0.296875 -1.65625 -0.296875q-0.765625 0 -1.125 0.34375q-0.359375 0.328125 -0.359375 1.046875l0 0.21875l2.734375 0l0 1.84375l-2.734375 0l0 6.0937576l-2.359375 0l0 -6.0937576l-2.09375 0l0 -1.75l2.09375 -0.09375l0 -0.203125q0 -0.6875 0.203125 -1.28125q0.21875 -0.59375 0.640625 -1.03125q0.4375 -0.4375 1.109375 -0.6875q0.671875 -0.265625 1.59375 -0.265625q0.6875 0 1.28125 0.125q0.609375 0.125 1.125 0.3125l-0.453125 1.71875z" fill-rule="nonzero"></path><path fill="#000000" fill-opacity="0.0" d="m189.22835 121.744545l56.18898 0.6614151" fill-rule="evenodd"></path><path stroke="#595959" stroke-width="1.0" stroke-linejoin="round" stroke-linecap="butt" d="m189.22835 121.744545l50.189392 0.5907974" fill-rule="evenodd"></path><path fill="#595959" stroke="#595959" stroke-width="1.0" stroke-linecap="butt" d="m239.3983 123.98696l4.5572205 -1.5982056l-4.518341 -1.7050323z" fill-rule="evenodd"></path><path fill="#000000" fill-opacity="0.0" d="m710.2756 122.43142l59.748047 -0.69290924" fill-rule="evenodd"></path><path stroke="#595959" stroke-width="1.0" stroke-linejoin="round" stroke-linecap="butt" d="m710.2756 122.43142l53.748474 -0.6233368" fill-rule="evenodd"></path><path fill="#595959" stroke="#595959" stroke-width="1.0" stroke-linecap="butt" d="m764.04315 123.45971l4.5186768 -1.7042465l-4.556946 -1.598999z" fill-rule="evenodd"></path><path fill="#000000" fill-opacity="0.0" d="m105.51181 121.744545l83.71654 0" fill-rule="evenodd"></path><path stroke="#595959" stroke-width="1.0" stroke-linejoin="round" stroke-linecap="butt" d="m105.51181 121.744545l77.71654 0" fill-rule="evenodd"></path><path fill="#595959" stroke="#595959" stroke-width="1.0" stroke-linecap="butt" d="m183.22835 123.39628l4.538101 -1.6517334l-4.538101 -1.6517334z" fill-rule="evenodd"></path><path fill="#000000" fill-opacity="0.0" d="m770.01575 121.744545l84.47241 0" fill-rule="evenodd"></path><path stroke="#595959" stroke-width="1.0" stroke-linejoin="round" stroke-linecap="butt" d="m770.01575 121.744545l78.47241 0" fill-rule="evenodd"></path><path fill="#595959" stroke="#595959" stroke-width="1.0" stroke-linecap="butt" d="m848.48816 123.39628l4.538147 -1.6517334l-4.538147 -1.6517334z" fill-rule="evenodd"></path><path fill="#ffffff" d="m626.5591 122.43142l0 0c0 -22.908943 18.74054 -41.48031 41.858215 -41.48031l0 0c11.101501 0 21.748352 4.3702316 29.598267 12.1493c7.8499756 7.779068 12.26001 18.32975 12.26001 29.331009l0 0c0 22.908943 -18.74054 41.480324 -41.858276 41.480324l0 0c-23.117676 0 -41.858215 -18.57138 -41.858215 -41.480324z" fill-rule="evenodd"></path><path stroke="#595959" stroke-width="1.0" stroke-linejoin="round" stroke-linecap="butt" d="m626.5591 122.43142l0 0c0 -22.908943 18.74054 -41.48031 41.858215 -41.48031l0 0c11.101501 0 21.748352 4.3702316 29.598267 12.1493c7.8499756 7.779068 12.26001 18.32975 12.26001 29.331009l0 0c0 22.908943 -18.74054 41.480324 -41.858276 41.480324l0 0c-23.117676 0 -41.858215 -18.57138 -41.858215 -41.480324z" fill-rule="evenodd"></path><path fill="#000000" d="m651.9673 129.2758q0 0.453125 0.53125 0.6875q0.546875 0.234375 1.484375 0.234375q0.96875 0 1.546875 -0.28125q0.59375 -0.28125 0.59375 -0.703125q0 -0.375 -0.359375 -0.5q-0.34375 -0.125 -1.03125 -0.125l-0.984375 0q-0.4375 0 -0.71875 -0.03125q-0.28125 -0.015625 -0.5 -0.0625q-0.296875 0.203125 -0.4375 0.375q-0.125 0.1875 -0.125 0.40625zm-1.921875 0.359375q0 -0.96875 1.234375 -1.578125l0 -0.0625q-0.3125 -0.21875 -0.5625 -0.53125q-0.234375 -0.328125 -0.234375 -0.828125q0 -0.40625 0.265625 -0.796875q0.265625 -0.40625 0.671875 -0.703125l0 -0.0625q-0.421875 -0.28125 -0.734375 -0.796875q-0.296875 -0.53125 -0.296875 -1.234375q0 -0.71875 0.28125 -1.25q0.28125 -0.546875 0.734375 -0.90625q0.46875 -0.359375 1.078125 -0.53125q0.625 -0.1875 1.296875 -0.1875q0.734375 0 1.3125 0.1875l3.21875 0l0 1.71875l-1.625 0q0.140625 0.171875 0.25 0.453125q0.125 0.28125 0.125 0.59375q0 0.6875 -0.265625 1.1875q-0.25 0.5 -0.6875 0.828125q-0.4375 0.328125 -1.046875 0.484375q-0.59375 0.15625 -1.28125 0.15625q-0.515625 0 -1.09375 -0.15625q-0.171875 0.125 -0.265625 0.265625q-0.078125 0.125 -0.078125 0.3125q0 0.3125 0.3125 0.46875q0.328125 0.140625 1.03125 0.140625l1.46875 0q1.5625 0 2.390625 0.46875q0.828125 0.453125 0.828125 1.53125q0 0.625 -0.34375 1.140625q-0.328125 0.53125 -0.9375 0.90625q-0.609375 0.375 -1.5 0.59375q-0.875 0.21875 -1.9375 0.21875q-0.78125 0 -1.4375 -0.125q-0.65625 -0.109375 -1.140625 -0.359375q-0.484375 -0.25 -0.765625 -0.640625q-0.265625 -0.375 -0.265625 -0.90625zm3.734375 -5.28125q0.5 0 0.859375 -0.328125q0.359375 -0.328125 0.359375 -0.984375q0 -0.640625 -0.359375 -0.96875q-0.359375 -0.328125 -0.859375 -0.328125q-0.5 0 -0.84375 0.328125q-0.34375 0.328125 -0.34375 0.96875q0 0.65625 0.34375 0.984375q0.34375 0.328125 0.84375 0.328125zm7.9750366 2.25q0 -0.390625 0.140625 -0.734375q0.140625 -0.34375 0.375 -0.59375q0.25 -0.265625 0.59375 -0.40625q0.34375 -0.140625 0.75 -0.140625q0.421875 0 0.765625 0.140625q0.34375 0.140625 0.578125 0.40625q0.25 0.25 0.375 0.59375q0.140625 0.34375 0.140625 0.734375q0 0.8125 -0.515625 1.34375q-0.515625 0.53125 -1.34375 0.53125q-0.828125 0 -1.34375 -0.53125q-0.515625 -0.53125 -0.515625 -1.34375zm9.412476 2.671875q0 0.453125 0.53125 0.6875q0.546875 0.234375 1.484375 0.234375q0.96875 0 1.546875 -0.28125q0.59375 -0.28125 0.59375 -0.703125q0 -0.375 -0.359375 -0.5q-0.34375 -0.125 -1.03125 -0.125l-0.984375 0q-0.4375 0 -0.71875 -0.03125q-0.28125 -0.015625 -0.5 -0.0625q-0.296875 0.203125 -0.4375 0.375q-0.125 0.1875 -0.125 0.40625zm-1.921875 0.359375q0 -0.96875 1.234375 -1.578125l0 -0.0625q-0.3125 -0.21875 -0.5625 -0.53125q-0.234375 -0.328125 -0.234375 -0.828125q0 -0.40625 0.265625 -0.796875q0.265625 -0.40625 0.671875 -0.703125l0 -0.0625q-0.421875 -0.28125 -0.734375 -0.796875q-0.296875 -0.53125 -0.296875 -1.234375q0 -0.71875 0.28125 -1.25q0.28125 -0.546875 0.734375 -0.90625q0.46875 -0.359375 1.078125 -0.53125q0.625 -0.1875 1.296875 -0.1875q0.734375 0 1.3125 0.1875l3.21875 0l0 1.71875l-1.625 0q0.140625 0.171875 0.25 0.453125q0.125 0.28125 0.125 0.59375q0 0.6875 -0.265625 1.1875q-0.25 0.5 -0.6875 0.828125q-0.4375 0.328125 -1.046875 0.484375q-0.59375 0.15625 -1.28125 0.15625q-0.515625 0 -1.09375 -0.15625q-0.171875 0.125 -0.265625 0.265625q-0.078125 0.125 -0.078125 0.3125q0 0.3125 0.3125 0.46875q0.328125 0.140625 1.03125 0.140625l1.46875 0q1.5625 0 2.390625 0.46875q0.828125 0.453125 0.828125 1.53125q0 0.625 -0.34375 1.140625q-0.328125 0.53125 -0.9375 0.90625q-0.609375 0.375 -1.5 0.59375q-0.875 0.21875 -1.9375 0.21875q-0.78125 0 -1.4375 -0.125q-0.65625 -0.109375 -1.140625 -0.359375q-0.484375 -0.25 -0.765625 -0.640625q-0.265625 -0.375 -0.265625 -0.90625zm3.734375 -5.28125q0.5 0 0.859375 -0.328125q0.359375 -0.328125 0.359375 -0.984375q0 -0.640625 -0.359375 -0.96875q-0.359375 -0.328125 -0.859375 -0.328125q-0.5 0 -0.84375 0.328125q-0.34375 0.328125 -0.34375 0.96875q0 0.65625 0.34375 0.984375q0.34375 0.328125 0.84375 0.328125zm8.271912 -1.953125q1.671875 -0.75 1.796875 -2.21875q-0.1875 0.046875 -0.328125 0.046875q-0.65625 0 -1.0625 -0.390625q-0.40625 -0.40625 -0.40625 -1.078125q0 -0.734375 0.421875 -1.171875q0.4375 -0.453125 1.109375 -0.453125q0.921875 0 1.390625 0.6875q0.484375 0.671875 0.484375 1.875q0 1.3125 -0.6875 2.3125q-0.6875 1.0 -2.09375 1.640625l-0.625 -1.25z" fill-rule="nonzero"></path><path fill="#eeeeee" d="m255.34908 322.92285l446.17328 0l0 169.73227l-446.17328 0z" fill-rule="evenodd"></path><path stroke="#595959" stroke-width="1.0" stroke-linejoin="round" stroke-linecap="butt" d="m255.34908 322.92285l446.17328 0l0 169.73227l-446.17328 0z" fill-rule="evenodd"></path><path fill="#000000" d="m266.13034 476.14014q0.1875 -0.9375 0.640625 -1.703125q0.46875 -0.765625 1.078125 -1.28125q0.609375 -0.53125 1.296875 -0.8125q0.703125 -0.296875 1.390625 -0.296875q0.71875 0 1.203125 0.28125q0.484375 0.265625 0.9375 0.734375l0.25 -1.453125l0.640625 -2.984375l1.3125 0l-2.421875 11.390625l-1.078125 0l0.09375 -1.03125l-0.046875 0q-0.578125 0.5 -1.328125 0.859375q-0.734375 0.359375 -1.453125 0.359375q-0.78125 0 -1.328125 -0.265625q-0.546875 -0.28125 -0.890625 -0.796875q-0.34375 -0.515625 -0.4375 -1.265625q-0.078125 -0.75 0.140625 -1.734375zm1.359375 -0.015625q-0.296875 1.40625 0.125 2.203125q0.4375 0.78125 1.53125 0.78125q1.15625 0 2.4375 -1.171875l0.828125 -3.875q-0.421875 -0.5 -0.890625 -0.703125q-0.453125 -0.203125 -0.96875 -0.203125q-0.515625 0 -1.0 0.21875q-0.46875 0.203125 -0.890625 0.609375q-0.40625 0.390625 -0.71875 0.9375q-0.3125 0.53125 -0.453125 1.203125zm9.553131 -3.890625l4.9375 0l-1.65625 7.78125l-1.3125 0l1.421875 -6.703125l-3.625 0l0.234375 -1.078125zm4.46875 -1.59375q-0.453125 0 -0.703125 -0.265625q-0.234375 -0.28125 -0.140625 -0.75q0.109375 -0.453125 0.453125 -0.734375q0.359375 -0.28125 0.8125 -0.28125q0.453125 0 0.703125 0.28125q0.25 0.28125 0.140625 0.734375q-0.09375 0.46875 -0.453125 0.75q-0.359375 0.265625 -0.8125 0.265625zm4.6469116 1.59375l1.03125 0l-0.109375 1.03125l0.046875 0q0.40625 -0.546875 0.859375 -0.875q0.46875 -0.34375 1.140625 -0.34375q1.1875 0 1.1875 1.34375q0.484375 -0.609375 0.96875 -0.96875q0.5 -0.375 1.15625 -0.375q0.8125 0 1.125 0.625q0.3125 0.609375 0.0625 1.78125l-1.1875 5.5625l-1.265625 0l1.15625 -5.453125q0.296875 -1.375 -0.546875 -1.375q-0.40625 0 -0.78125 0.296875q-0.359375 0.296875 -0.796875 0.90625l-1.203125 5.625l-1.046875 0l1.15625 -5.453125q0.296875 -1.375 -0.59375 -1.375q-0.40625 0 -0.765625 0.296875q-0.34375 0.296875 -0.78125 0.90625l-1.203125 5.625l-1.265625 0l1.65625 -7.78125zm8.709381 5.765625q0.140625 -0.65625 0.5625 -1.140625q0.421875 -0.484375 1.171875 -0.84375q0.75 -0.359375 1.859375 -0.578125q1.125 -0.21875 2.65625 -0.34375q0.0625 -0.40625 0.03125 -0.75q-0.03125 -0.359375 -0.21875 -0.625q-0.1875 -0.265625 -0.546875 -0.421875q-0.34375 -0.15625 -0.90625 -0.15625q-0.765625 0 -1.546875 0.296875q-0.765625 0.296875 -1.375 0.625l-0.328125 -0.890625q0.34375 -0.203125 0.765625 -0.390625q0.4375 -0.203125 0.90625 -0.359375q0.484375 -0.171875 1.0 -0.265625q0.515625 -0.109375 1.03125 -0.109375q1.59375 0 2.1875 0.875q0.59375 0.875 0.28125 2.328125l-1.015625 4.765625l-1.0625 0l0.109375 -1.0625l-0.046875 0q-0.765625 0.515625 -1.640625 0.890625q-0.875 0.359375 -1.703125 0.359375q-0.546875 0 -1.0 -0.15625q-0.4375 -0.140625 -0.734375 -0.421875q-0.296875 -0.28125 -0.421875 -0.6875q-0.125 -0.40625 -0.015625 -0.9375zm1.3125 -0.09375q-0.078125 0.328125 0.015625 0.5625q0.09375 0.234375 0.296875 0.390625q0.203125 0.140625 0.5 0.21875q0.296875 0.078125 0.625 0.078125q0.671875 0 1.375 -0.296875q0.71875 -0.296875 1.5 -0.859375l0.4375 -2.046875q-1.25 0.09375 -2.140625 0.28125q-0.875 0.171875 -1.4375 0.421875q-0.546875 0.234375 -0.828125 0.546875q-0.265625 0.3125 -0.34375 0.703125zm9.225037 2.765625l-0.5625 2.625l-1.3125 0l2.359375 -11.0625l1.09375 0l-0.109375 1.0l0.046875 0q0.65625 -0.515625 1.4375 -0.84375q0.78125 -0.34375 1.5 -0.34375q0.78125 0 1.328125 0.28125q0.546875 0.28125 0.84375 0.796875q0.296875 0.515625 0.34375 1.25q0.0625 0.734375 -0.140625 1.640625q-0.203125 0.984375 -0.65625 1.765625q-0.453125 0.78125 -1.0625 1.328125q-0.59375 0.53125 -1.296875 0.8125q-0.703125 0.28125 -1.40625 0.28125q-0.546875 0 -1.125 -0.265625q-0.5625 -0.265625 -1.0 -0.734375l-0.28125 1.46875zm0.53125 -2.484375q0.453125 0.5 0.96875 0.71875q0.515625 0.203125 0.90625 0.203125q1.0625 0 1.90625 -0.8125q0.859375 -0.828125 1.15625 -2.28125q0.140625 -0.640625 0.125 -1.171875q0 -0.53125 -0.1875 -0.90625q-0.1875 -0.375 -0.578125 -0.578125q-0.375 -0.203125 -0.9375 -0.203125q-0.515625 0 -1.15625 0.28125q-0.640625 0.28125 -1.375 0.875l-0.828125 3.875z" fill-rule="nonzero"></path><path fill="#000000" d="m330.88672 469.8745q-0.46875 -0.234375 -0.890625 -0.296875q-0.40625 -0.078125 -0.90625 -0.078125q-1.0625 0 -1.515625 0.546875q-0.453125 0.53125 -0.453125 1.484375l0 0.703125l3.265625 0l0 1.078125l-3.265625 0l0 6.703125l-1.296875 0l0 -6.703125l-2.234375 0l0 -1.0l2.234375 -0.078125l0 -0.65625q0 -1.421875 0.75 -2.28125q0.765625 -0.859375 2.390625 -0.859375q1.140625 0 2.234375 0.4375l-0.3125 1.0zm4.131256 3.765625q0.765625 -0.40625 1.1875 -1.03125q0.4375 -0.640625 0.484375 -1.484375q-0.203125 0.09375 -0.421875 0.09375q-0.515625 0 -0.828125 -0.3125q-0.3125 -0.3125 -0.3125 -0.828125q0 -0.5625 0.328125 -0.90625q0.34375 -0.34375 0.859375 -0.34375q0.640625 0 1.03125 0.515625q0.40625 0.515625 0.40625 1.421875q0 1.203125 -0.609375 2.15625q-0.609375 0.9375 -1.671875 1.5l-0.453125 -0.78125zm18.012543 7.671875q0 0.609375 0.640625 0.984375q0.65625 0.390625 1.90625 0.390625q0.671875 0 1.21875 -0.140625q0.546875 -0.125 0.921875 -0.359375q0.390625 -0.21875 0.59375 -0.515625q0.203125 -0.28125 0.203125 -0.578125q0 -0.5625 -0.453125 -0.765625q-0.4375 -0.1875 -1.328125 -0.1875l-1.515625 0q-0.34375 0 -0.640625 -0.03125q-0.296875 -0.015625 -0.546875 -0.09375q-0.5625 0.296875 -0.78125 0.625q-0.21875 0.328125 -0.21875 0.671875zm-1.125 0.125q0 -0.46875 0.328125 -0.921875q0.328125 -0.4375 0.953125 -0.796875l0 -0.078125q-0.328125 -0.171875 -0.578125 -0.46875q-0.234375 -0.3125 -0.234375 -0.796875q0 -0.375 0.234375 -0.765625q0.25 -0.390625 0.703125 -0.703125l0 -0.0625q-0.40625 -0.296875 -0.6875 -0.796875q-0.28125 -0.515625 -0.28125 -1.21875q0 -0.640625 0.25 -1.140625q0.25 -0.515625 0.65625 -0.875q0.421875 -0.359375 0.96875 -0.5625q0.5625 -0.203125 1.1875 -0.203125q0.640625 0 1.15625 0.1875l3.21875 0l0 1.015625l-2.09375 0q0.28125 0.28125 0.5 0.703125q0.21875 0.421875 0.21875 0.921875q0 0.625 -0.234375 1.125q-0.21875 0.5 -0.625 0.84375q-0.40625 0.34375 -0.96875 0.53125q-0.546875 0.171875 -1.171875 0.171875q-0.296875 0 -0.65625 -0.0625q-0.34375 -0.078125 -0.65625 -0.21875q-0.609375 0.375 -0.609375 0.890625q0 0.46875 0.421875 0.6875q0.421875 0.21875 1.203125 0.21875l1.734375 0q1.5 0 2.234375 0.421875q0.734375 0.40625 0.734375 1.390625q0 0.546875 -0.3125 1.046875q-0.296875 0.5 -0.859375 0.859375q-0.5625 0.375 -1.359375 0.59375q-0.796875 0.21875 -1.796875 0.21875q-1.703125 0 -2.640625 -0.5625q-0.9375 -0.546875 -0.9375 -1.59375zm3.5 -4.765625q0.75 0 1.265625 -0.5q0.53125 -0.5 0.53125 -1.34375q0 -0.390625 -0.15625 -0.71875q-0.140625 -0.34375 -0.375 -0.578125q-0.234375 -0.25 -0.5625 -0.390625q-0.328125 -0.140625 -0.703125 -0.140625q-0.375 0 -0.703125 0.140625q-0.328125 0.140625 -0.5625 0.390625q-0.234375 0.234375 -0.390625 0.578125q-0.140625 0.328125 -0.140625 0.71875q0 0.84375 0.53125 1.34375q0.53125 0.5 1.265625 0.5zm8.412537 -3.03125q0.765625 -0.40625 1.1875 -1.03125q0.4375 -0.640625 0.484375 -1.484375q-0.203125 0.09375 -0.421875 0.09375q-0.515625 0 -0.828125 -0.3125q-0.3125 -0.3125 -0.3125 -0.828125q0 -0.5625 0.328125 -0.90625q0.34375 -0.34375 0.859375 -0.34375q0.640625 0 1.03125 0.515625q0.40625 0.515625 0.40625 1.421875q0 1.203125 -0.609375 2.15625q-0.609375 0.9375 -1.671875 1.5l-0.453125 -0.78125z" fill-rule="nonzero"></path><path fill="#cfe2f3" d="m393.72308 371.41855l167.30713 0l0 73.00787l-167.30713 0z" fill-rule="evenodd"></path><path stroke="#595959" stroke-width="1.0" stroke-linejoin="round" stroke-linecap="butt" d="m393.72308 371.41855l167.30713 0l0 73.00787l-167.30713 0z" fill-rule="evenodd"></path><path fill="#000000" d="m473.73288 402.56372l2.34375 0l0 2.75l-0.125 1.53125q0.234375 -0.234375 0.515625 -0.4375q0.28125 -0.21875 0.609375 -0.390625q0.328125 -0.171875 0.71875 -0.265625q0.390625 -0.09375 0.84375 -0.09375q1.34375 0 1.953125 0.859375q0.625 0.859375 0.625 2.375l0 4.890625l-2.359375 0l0 -4.59375q0 -0.796875 -0.25 -1.15625q-0.25 -0.375 -0.90625 -0.375q-0.484375 0 -0.84375 0.203125q-0.359375 0.203125 -0.78125 0.625l0 5.296875l-2.34375 0l0 -11.21875z" fill-rule="nonzero"></path><path fill="#000000" fill-opacity="0.0" d="m358.64197 408.45605l35.08661 -0.5354309" fill-rule="evenodd"></path><path stroke="#595959" stroke-width="1.0" stroke-linejoin="round" stroke-linecap="butt" d="m358.64194 408.4561l29.08731 -0.4439087" fill-rule="evenodd"></path><path fill="#595959" stroke="#595959" stroke-width="1.0" stroke-linecap="butt" d="m387.75446 409.66373l4.5123596 -1.7207642l-4.5627747 -1.5823059z" fill-rule="evenodd"></path><path fill="#000000" fill-opacity="0.0" d="m561.0302 407.9225l38.141724 0.56692505" fill-rule="evenodd"></path><path stroke="#595959" stroke-width="1.0" stroke-linejoin="round" stroke-linecap="butt" d="m561.0302 407.9225l32.142334 0.4777832" fill-rule="evenodd"></path><path fill="#595959" stroke="#595959" stroke-width="1.0" stroke-linecap="butt" d="m593.148 410.0518l4.562195 -1.5841064l-4.5130615 -1.7189941z" fill-rule="evenodd"></path><path fill="#ffffff" d="m294.075 408.45605l0 0c0 -17.55133 14.453796 -31.77951 32.283478 -31.77951l0 0c8.562103 0 16.77353 3.348175 22.82785 9.308014c6.0543213 5.9598083 9.455627 14.04306 9.455627 22.471497l0 0c0 17.551361 -14.453827 31.779541 -32.283478 31.779541l0 0c-17.829681 0 -32.283478 -14.22818 -32.283478 -31.779541z" fill-rule="evenodd"></path><path stroke="#595959" stroke-width="1.0" stroke-linejoin="round" stroke-linecap="butt" d="m294.075 408.45605l0 0c0 -17.55133 14.453796 -31.77951 32.283478 -31.77951l0 0c8.562103 0 16.77353 3.348175 22.82785 9.308014c6.0543213 5.9598083 9.455627 14.04306 9.455627 22.471497l0 0c0 17.551361 -14.453827 31.779541 -32.283478 31.779541l0 0c-17.829681 0 -32.283478 -14.22818 -32.283478 -31.779541z" fill-rule="evenodd"></path><path fill="#000000" d="m325.6647 405.06607q-0.78125 -0.296875 -1.65625 -0.296875q-0.765625 0 -1.125 0.34375q-0.359375 0.328125 -0.359375 1.046875l0 0.21875l2.734375 0l0 1.84375l-2.734375 0l0 6.09375l-2.359375 0l0 -6.09375l-2.09375 0l0 -1.75l2.09375 -0.09375l0 -0.203125q0 -0.6875 0.203125 -1.28125q0.21875 -0.59375 0.640625 -1.03125q0.4375 -0.4375 1.109375 -0.6875q0.671875 -0.265625 1.59375 -0.265625q0.6875 0 1.28125 0.125q0.609375 0.125 1.125 0.3125l-0.453125 1.71875zm3.9281616 3.359375q1.671875 -0.75 1.796875 -2.21875q-0.1875 0.046875 -0.328125 0.046875q-0.65625 0 -1.0625 -0.390625q-0.40625 -0.40625 -0.40625 -1.078125q0 -0.734375 0.421875 -1.171875q0.4375 -0.453125 1.109375 -0.453125q0.921875 0 1.390625 0.6875q0.484375 0.671875 0.484375 1.875q0 1.3125 -0.6875 2.3125q-0.6875 1.0 -2.09375 1.640625l-0.625 -1.25z" fill-rule="nonzero"></path><path fill="#000000" fill-opacity="0.0" d="m255.34908 407.789l38.740158 0.6614075" fill-rule="evenodd"></path><path stroke="#595959" stroke-width="1.0" stroke-linejoin="round" stroke-linecap="butt" d="m255.34908 407.789l32.741043 0.55895996" fill-rule="evenodd"></path><path fill="#595959" stroke="#595959" stroke-width="1.0" stroke-linecap="butt" d="m288.06192 409.99948l4.5656433 -1.5740051l-4.509247 -1.7289734z" fill-rule="evenodd"></path><path fill="#000000" fill-opacity="0.0" d="m663.72406 408.4774l37.795227 -0.6929016" fill-rule="evenodd"></path><path stroke="#595959" stroke-width="1.0" stroke-linejoin="round" stroke-linecap="butt" d="m663.72406 408.47742l31.796204 -0.5829468" fill-rule="evenodd"></path><path fill="#595959" stroke="#595959" stroke-width="1.0" stroke-linecap="butt" d="m695.55054 409.54593l4.50708 -1.7346497l-4.567627 -1.5682678z" fill-rule="evenodd"></path><path fill="#000000" fill-opacity="0.0" d="m219.07338 407.7894l36.283478 0" fill-rule="evenodd"></path><path stroke="#595959" stroke-width="1.0" stroke-linejoin="round" stroke-linecap="butt" d="m219.0734 407.7894l30.283463 0" fill-rule="evenodd"></path><path fill="#595959" stroke="#595959" stroke-width="1.0" stroke-linecap="butt" d="m249.35686 409.44113l4.538086 -1.6517334l-4.538086 -1.6517334z" fill-rule="evenodd"></path><path fill="#000000" fill-opacity="0.0" d="m701.52234 407.789l40.094482 0" fill-rule="evenodd"></path><path stroke="#595959" stroke-width="1.0" stroke-linejoin="round" stroke-linecap="butt" d="m701.52234 407.789l34.094482 0" fill-rule="evenodd"></path><path fill="#595959" stroke="#595959" stroke-width="1.0" stroke-linecap="butt" d="m735.6168 409.44073l4.538086 -1.6517334l-4.538086 -1.6517334z" fill-rule="evenodd"></path><path fill="#ffffff" d="m599.1571 408.4774l0 0c0 -17.542633 14.453796 -31.763763 32.283447 -31.763763l0 0c8.562134 0 16.77356 3.346527 22.82788 9.303406c6.0543213 5.956848 9.455627 14.036102 9.455627 22.460358l0 0c0 17.542664 -14.453796 31.763794 -32.28351 31.763794l0 0c-17.82965 0 -32.283447 -14.22113 -32.283447 -31.763794z" fill-rule="evenodd"></path><path stroke="#595959" stroke-width="1.0" stroke-linejoin="round" stroke-linecap="butt" d="m599.1571 408.4774l0 0c0 -17.542633 14.453796 -31.763763 32.283447 -31.763763l0 0c8.562134 0 16.77356 3.346527 22.82788 9.303406c6.0543213 5.956848 9.455627 14.036102 9.455627 22.460358l0 0c0 17.542664 -14.453796 31.763794 -32.28351 31.763794l0 0c-17.82965 0 -32.283447 -14.22113 -32.283447 -31.763794z" fill-rule="evenodd"></path><path fill="#000000" d="m624.5906 415.32178q0 0.453125 0.53125 0.6875q0.546875 0.234375 1.484375 0.234375q0.96875 0 1.546875 -0.28125q0.59375 -0.28125 0.59375 -0.703125q0 -0.375 -0.359375 -0.5q-0.34375 -0.125 -1.03125 -0.125l-0.984375 0q-0.4375 0 -0.71875 -0.03125q-0.28125 -0.015625 -0.5 -0.0625q-0.296875 0.203125 -0.4375 0.375q-0.125 0.1875 -0.125 0.40625zm-1.921875 0.359375q0 -0.96875 1.234375 -1.578125l0 -0.0625q-0.3125 -0.21875 -0.5625 -0.53125q-0.234375 -0.328125 -0.234375 -0.828125q0 -0.40625 0.265625 -0.796875q0.265625 -0.40625 0.671875 -0.703125l0 -0.0625q-0.421875 -0.28125 -0.734375 -0.796875q-0.296875 -0.53125 -0.296875 -1.234375q0 -0.71875 0.28125 -1.25q0.28125 -0.546875 0.734375 -0.90625q0.46875 -0.359375 1.078125 -0.53125q0.625 -0.1875 1.296875 -0.1875q0.734375 0 1.3125 0.1875l3.21875 0l0 1.71875l-1.625 0q0.140625 0.171875 0.25 0.453125q0.125 0.28125 0.125 0.59375q0 0.6875 -0.265625 1.1875q-0.25 0.5 -0.6875 0.828125q-0.4375 0.328125 -1.046875 0.484375q-0.59375 0.15625 -1.28125 0.15625q-0.515625 0 -1.09375 -0.15625q-0.171875 0.125 -0.265625 0.265625q-0.078125 0.125 -0.078125 0.3125q0 0.3125 0.3125 0.46875q0.328125 0.140625 1.03125 0.140625l1.46875 0q1.5625 0 2.390625 0.46875q0.828125 0.453125 0.828125 1.53125q0 0.625 -0.34375 1.140625q-0.328125 0.53125 -0.9375 0.90625q-0.609375 0.375 -1.5 0.59375q-0.875 0.21875 -1.9375 0.21875q-0.78125 0 -1.4375 -0.125q-0.65625 -0.109375 -1.140625 -0.359375q-0.484375 -0.25 -0.765625 -0.640625q-0.265625 -0.375 -0.265625 -0.90625zm3.734375 -5.28125q0.5 0 0.859375 -0.328125q0.359375 -0.328125 0.359375 -0.984375q0 -0.640625 -0.359375 -0.96875q-0.359375 -0.328125 -0.859375 -0.328125q-0.5 0 -0.84375 0.328125q-0.34375 0.328125 -0.34375 0.96875q0 0.65625 0.34375 0.984375q0.34375 0.328125 0.84375 0.328125zm8.271851 -1.953125q1.671875 -0.75 1.796875 -2.21875q-0.1875 0.046875 -0.328125 0.046875q-0.65625 0 -1.0625 -0.390625q-0.40625 -0.40625 -0.40625 -1.078125q0 -0.734375 0.421875 -1.171875q0.4375 -0.453125 1.109375 -0.453125q0.921875 0 1.390625 0.6875q0.484375 0.671875 0.484375 1.875q0 1.3125 -0.6875 2.3125q-0.6875 1.0 -2.09375 1.640625l-0.625 -1.25z" fill-rule="nonzero"></path><path fill="#ffffff" d="m154.50645 407.7894l0 0c0 -17.551361 14.453796 -31.779541 32.283463 -31.779541l0 0c8.562119 0 16.773544 3.3482056 22.827866 9.308014c6.0543213 5.9598083 9.455597 14.04306 9.455597 22.471527l0 0c0 17.551361 -14.453796 31.779541 -32.283463 31.779541l0 0c-17.829666 0 -32.283463 -14.22818 -32.283463 -31.779541z" fill-rule="evenodd"></path><path stroke="#595959" stroke-width="1.0" stroke-linejoin="round" stroke-linecap="butt" d="m154.50645 407.7894l0 0c0 -17.551361 14.453796 -31.779541 32.283463 -31.779541l0 0c8.562119 0 16.773544 3.3482056 22.827866 9.308014c6.0543213 5.9598083 9.455597 14.04306 9.455597 22.471527l0 0c0 17.551361 -14.453796 31.779541 -32.283463 31.779541l0 0c-17.829666 0 -32.283463 -14.22818 -32.283463 -31.779541z" fill-rule="evenodd"></path><path fill="#000000" d="m190.89616 404.39938q-0.78125 -0.296875 -1.65625 -0.296875q-0.765625 0 -1.125 0.34375q-0.359375 0.328125 -0.359375 1.046875l0 0.21875l2.734375 0l0 1.84375l-2.734375 0l0 6.09375l-2.359375 0l0 -6.09375l-2.09375 0l0 -1.75l2.09375 -0.09375l0 -0.203125q0 -0.6875 0.203125 -1.28125q0.21875 -0.59375 0.640625 -1.03125q0.4375 -0.4375 1.109375 -0.6875q0.671875 -0.265625 1.59375 -0.265625q0.6875 0 1.28125 0.125q0.609375 0.125 1.125 0.3125l-0.453125 1.71875z" fill-rule="nonzero"></path><path fill="#ffffff" d="m741.6191 407.7894l0 0c0 -17.551361 14.453796 -31.779541 32.283447 -31.779541l0 0c8.562073 0 16.773499 3.3482056 22.82782 9.308014c6.0543213 5.9598083 9.455627 14.04306 9.455627 22.471527l0 0c0 17.551361 -14.453796 31.779541 -32.283447 31.779541l0 0c-17.82965 0 -32.283447 -14.22818 -32.283447 -31.779541z" fill-rule="evenodd"></path><path stroke="#595959" stroke-width="1.0" stroke-linejoin="round" stroke-linecap="butt" d="m741.6191 407.7894l0 0c0 -17.551361 14.453796 -31.779541 32.283447 -31.779541l0 0c8.562073 0 16.773499 3.3482056 22.82782 9.308014c6.0543213 5.9598083 9.455627 14.04306 9.455627 22.471527l0 0c0 17.551361 -14.453796 31.779541 -32.283447 31.779541l0 0c-17.82965 0 -32.283447 -14.22818 -32.283447 -31.779541z" fill-rule="evenodd"></path><path fill="#000000" d="m771.8525 414.63376q0 0.453125 0.53125 0.6875q0.546875 0.234375 1.484375 0.234375q0.96875 0 1.546875 -0.28125q0.59375 -0.28125 0.59375 -0.703125q0 -0.375 -0.359375 -0.5q-0.34375 -0.125 -1.03125 -0.125l-0.984375 0q-0.4375 0 -0.71875 -0.03125q-0.28125 -0.015625 -0.5 -0.0625q-0.296875 0.203125 -0.4375 0.375q-0.125 0.1875 -0.125 0.40625zm-1.921875 0.359375q0 -0.96875 1.234375 -1.578125l0 -0.0625q-0.3125 -0.21875 -0.5625 -0.53125q-0.234375 -0.328125 -0.234375 -0.828125q0 -0.40625 0.265625 -0.796875q0.265625 -0.40625 0.671875 -0.703125l0 -0.0625q-0.421875 -0.28125 -0.734375 -0.796875q-0.296875 -0.53125 -0.296875 -1.234375q0 -0.71875 0.28125 -1.25q0.28125 -0.546875 0.734375 -0.90625q0.46875 -0.359375 1.078125 -0.53125q0.625 -0.1875 1.296875 -0.1875q0.734375 0 1.3125 0.1875l3.21875 0l0 1.71875l-1.625 0q0.140625 0.171875 0.25 0.453125q0.125 0.28125 0.125 0.59375q0 0.6875 -0.265625 1.1875q-0.25 0.5 -0.6875 0.828125q-0.4375 0.328125 -1.046875 0.484375q-0.59375 0.15625 -1.28125 0.15625q-0.515625 0 -1.09375 -0.15625q-0.171875 0.125 -0.265625 0.265625q-0.078125 0.125 -0.078125 0.3125q0 0.3125 0.3125 0.46875q0.328125 0.140625 1.03125 0.140625l1.46875 0q1.5625 0 2.390625 0.46875q0.828125 0.453125 0.828125 1.53125q0 0.625 -0.34375 1.140625q-0.328125 0.53125 -0.9375 0.90625q-0.609375 0.375 -1.5 0.59375q-0.875 0.21875 -1.9375 0.21875q-0.78125 0 -1.4375 -0.125q-0.65625 -0.109375 -1.140625 -0.359375q-0.484375 -0.25 -0.765625 -0.640625q-0.265625 -0.375 -0.265625 -0.90625zm3.734375 -5.28125q0.5 0 0.859375 -0.328125q0.359375 -0.328125 0.359375 -0.984375q0 -0.640625 -0.359375 -0.96875q-0.359375 -0.328125 -0.859375 -0.328125q-0.5 0 -0.84375 0.328125q-0.34375 0.328125 -0.34375 0.96875q0 0.65625 0.34375 0.984375q0.34375 0.328125 0.84375 0.328125z" fill-rule="nonzero"></path><path fill="#000000" fill-opacity="0.0" d="m114.41732 407.44516l40.09449 0.34646606" fill-rule="evenodd"></path><path stroke="#595959" stroke-width="1.0" stroke-linejoin="round" stroke-linecap="butt" d="m114.41732 407.44516l34.09472 0.2946167" fill-rule="evenodd"></path><path fill="#595959" stroke="#595959" stroke-width="1.0" stroke-linecap="butt" d="m148.49776 409.39145l4.5522003 -1.6124573l-4.523651 -1.6908875z" fill-rule="evenodd"></path><path fill="#000000" fill-opacity="0.0" d="m806.186 407.7894l42.173218 -0.34646606" fill-rule="evenodd"></path><path stroke="#595959" stroke-width="1.0" stroke-linejoin="round" stroke-linecap="butt" d="m806.1859 407.7894l36.1734 -0.29714966" fill-rule="evenodd"></path><path fill="#595959" stroke="#595959" stroke-width="1.0" stroke-linecap="butt" d="m842.3729 409.14392l4.524414 -1.6889648l-4.5515137 -1.6143799z" fill-rule="evenodd"></path><path fill="#000000" fill-opacity="0.0" d="m30.700787 407.44516l83.71654 0" fill-rule="evenodd"></path><path stroke="#595959" stroke-width="1.0" stroke-linejoin="round" stroke-linecap="butt" d="m30.700787 407.44516l77.71654 0" fill-rule="evenodd"></path><path fill="#595959" stroke="#595959" stroke-width="1.0" stroke-linecap="butt" d="m108.41732 409.0969l4.538101 -1.6517334l-4.538101 -1.6517334z" fill-rule="evenodd"></path><path fill="#000000" fill-opacity="0.0" d="m848.37006 407.44516l84.47247 0" fill-rule="evenodd"></path><path stroke="#595959" stroke-width="1.0" stroke-linejoin="round" stroke-linecap="butt" d="m848.37006 407.44516l78.47247 0" fill-rule="evenodd"></path><path fill="#595959" stroke="#595959" stroke-width="1.0" stroke-linecap="butt" d="m926.8425 409.0969l4.538086 -1.6517334l-4.538086 -1.6517334z" fill-rule="evenodd"></path></g></svg>

