<?xml version="1.0" standalone="yes"?>

<svg version="1.1" viewBox="0.0 0.0 960.0 540.0" fill="none" stroke="none" stroke-linecap="square" stroke-miterlimit="10" xmlns="http://www.w3.org/2000/svg" xmlns:xlink="http://www.w3.org/1999/xlink"><clipPath id="g2549d28fde_0_457.0"><path d="m0 0l960.0 0l0 540.0l-960.0 0l0 -540.0z" clip-rule="nonzero"></path></clipPath><g clip-path="url(#g2549d28fde_0_457.0)"><path fill="#ffffff" d="m0 0l960.0 0l0 540.0l-960.0 0z" fill-rule="evenodd"></path><path fill="#d9ead3" d="m100.83727 148.60367l781.7323 0l0 377.41733l-781.7323 0z" fill-rule="evenodd"></path><path stroke="#595959" stroke-width="1.0" stroke-linejoin="round" stroke-linecap="butt" d="m100.83727 148.60367l781.7323 0l0 377.41733l-781.7323 0z" fill-rule="evenodd"></path><path fill="#000000" d="m111.05602 511.60474q0.140625 -0.65625 0.453125 -1.171875q0.3125 -0.53125 0.71875 -0.890625q0.421875 -0.359375 0.90625 -0.5625q0.5 -0.203125 0.96875 -0.203125q0.5 0 0.828125 0.1875q0.328125 0.1875 0.625 0.515625l0.1875 -1.0l0.421875 -2.046875l0.90625 0l-1.65625 7.828125l-0.75 0l0.078125 -0.703125l-0.03125 0q-0.40625 0.34375 -0.921875 0.59375q-0.515625 0.234375 -1.0 0.234375q-0.53125 0 -0.921875 -0.171875q-0.375 -0.1875 -0.609375 -0.546875q-0.234375 -0.359375 -0.296875 -0.875q-0.046875 -0.515625 0.09375 -1.1875zm0.9375 -0.015625q-0.203125 0.96875 0.09375 1.515625q0.3125 0.53125 1.0625 0.53125q0.78125 0 1.671875 -0.8125l0.5625 -2.65625q-0.296875 -0.34375 -0.609375 -0.484375q-0.3125 -0.140625 -0.671875 -0.140625q-0.34375 0 -0.6875 0.15625q-0.328125 0.140625 -0.609375 0.40625q-0.28125 0.265625 -0.5 0.640625q-0.203125 0.375 -0.3125 0.84375zm6.362564 -2.671875l3.390625 0l-1.140625 5.34375l-0.90625 0l0.984375 -4.609375l-2.484375 0l0.15625 -0.734375zm3.078125 -1.109375q-0.3125 0 -0.484375 -0.171875q-0.15625 -0.1875 -0.09375 -0.515625q0.0625 -0.3125 0.3125 -0.5q0.25 -0.203125 0.5625 -0.203125q0.3125 0 0.46875 0.203125q0.15625 0.1875 0.09375 0.5q-0.0625 0.328125 -0.3125 0.515625q-0.234375 0.171875 -0.546875 0.171875zm2.987564 1.109375l0.703125 0l-0.078125 0.703125l0.03125 0q0.28125 -0.375 0.609375 -0.609375q0.328125 -0.234375 0.78125 -0.234375q0.8125 0 0.8125 0.9375q0.328125 -0.421875 0.671875 -0.671875q0.34374237 -0.265625 0.7968674 -0.265625q0.5625 0 0.765625 0.4375q0.203125 0.421875 0.03125 1.21875l-0.8125 3.828125l-0.8593674 0l0.7968674 -3.75q0.203125 -0.953125 -0.390625 -0.953125q-0.28124237 0 -0.5468674 0.203125q-0.25 0.203125 -0.53125 0.625l-0.828125 3.875l-0.71875 0l0.796875 -3.75q0.203125 -0.953125 -0.40625 -0.953125q-0.28125 0 -0.53125 0.203125q-0.25 0.203125 -0.53125 0.625l-0.828125 3.875l-0.875 0l1.140625 -5.34375zm5.7844315 3.953125q0.09375 -0.453125 0.375 -0.78125q0.28125 -0.34375 0.796875 -0.578125q0.53125 -0.234375 1.296875 -0.390625q0.78125 -0.15625 1.828125 -0.25q0.046875 -0.265625 0.015625 -0.5q-0.03125 -0.25 -0.15625 -0.4375q-0.125 -0.1875 -0.375 -0.296875q-0.234375 -0.109375 -0.625 -0.109375q-0.53125 0 -1.0625 0.203125q-0.515625 0.203125 -0.9375 0.4375l-0.21875 -0.609375q0.21875 -0.140625 0.515625 -0.265625q0.3125 -0.140625 0.625 -0.25q0.328125 -0.109375 0.6875 -0.1875q0.359375 -0.078125 0.71875 -0.078125q1.09375 0 1.5 0.609375q0.40625 0.59375 0.203125 1.59375l-0.703125 3.28125l-0.75 0l0.078125 -0.71875l-0.03125 0q-0.53125 0.34375 -1.125 0.59375q-0.59375 0.25 -1.171875 0.25q-0.375 0 -0.6875 -0.109375q-0.296875 -0.09375 -0.515625 -0.28125q-0.203125 -0.203125 -0.28125 -0.46875q-0.078125 -0.28125 0 -0.65625zm0.890625 -0.0625q-0.046875 0.234375 0.015625 0.390625q0.0625 0.15625 0.1875 0.265625q0.140625 0.109375 0.34375 0.15625q0.21875 0.046875 0.453125 0.046875q0.453125 0 0.9375 -0.203125q0.5 -0.203125 1.046875 -0.59375l0.296875 -1.40625q-0.875 0.0625 -1.484375 0.1875q-0.59375 0.125 -0.984375 0.296875q-0.375 0.171875 -0.578125 0.390625q-0.1875 0.203125 -0.234375 0.46875zm6.143814 1.90625l-0.390625 1.796875l-0.90625 0l1.625 -7.59375l0.75 0l-0.078125 0.6875l0.03125 0q0.453125 -0.359375 1.0 -0.59375q0.546875 -0.234375 1.046875 -0.234375q0.53125 0 0.890625 0.203125q0.375 0.1875 0.578125 0.546875q0.21875 0.359375 0.25 0.859375q0.03125 0.5 -0.109375 1.125q-0.140625 0.6875 -0.453125 1.21875q-0.296875 0.53125 -0.71875 0.90625q-0.421875 0.375 -0.90625 0.5625q-0.46875 0.1875 -0.953125 0.1875q-0.375 0 -0.78125 -0.171875q-0.390625 -0.1875 -0.671875 -0.515625l-0.203125 1.015625zm0.359375 -1.703125q0.3125 0.34375 0.671875 0.484375q0.359375 0.140625 0.640625 0.140625q0.71875 0 1.296875 -0.5625q0.578125 -0.5625 0.78125 -1.5625q0.09375 -0.4375 0.078125 -0.796875q0 -0.375 -0.125 -0.625q-0.125 -0.265625 -0.390625 -0.40625q-0.25 -0.140625 -0.640625 -0.140625q-0.359375 0 -0.796875 0.203125q-0.4375 0.1875 -0.953125 0.59375l-0.5625 2.671875z" fill-rule="nonzero"></path><path fill="#000000" d="m148.8564 511.60474q0 -0.65625 0.203125 -1.171875q0.203125 -0.53125 0.53125 -0.890625q0.34375 -0.359375 0.78125 -0.5625q0.453125 -0.203125 0.921875 -0.203125q0.5 0 0.859375 0.1875q0.375 0.1875 0.75 0.515625l-0.03125 -1.0l0 -2.046875l0.90625 0l0 7.828125l-0.75 0l-0.078125 -0.703125l-0.03125 0q-0.328125 0.34375 -0.796875 0.59375q-0.453125 0.234375 -0.9375 0.234375q-0.53125 0 -0.953125 -0.171875q-0.421875 -0.1875 -0.734375 -0.546875q-0.3125 -0.359375 -0.484375 -0.875q-0.15625 -0.515625 -0.15625 -1.1875zm0.9375 -0.015625q0 0.96875 0.40625 1.515625q0.421875 0.53125 1.171875 0.53125q0.78125 0 1.5 -0.8125l0 -2.65625q-0.359375 -0.34375 -0.703125 -0.484375q-0.34375 -0.140625 -0.703125 -0.140625q-0.34375 0 -0.65625 0.15625q-0.296875 0.140625 -0.53125 0.40625q-0.21875 0.265625 -0.359375 0.640625q-0.125 0.375 -0.125 0.84375zm10.362564 2.671875l-0.75 0l-0.078125 -0.9375l-0.03125 0q-0.40625 0.46875 -0.890625 0.765625q-0.484375 0.296875 -1.109375 0.296875q-0.96875 0 -1.421875 -0.53125q-0.4375 -0.546875 -0.4375 -1.625l0 -3.3125l0.921875 0l0 3.203125q0 0.75 0.28125 1.125q0.28125 0.359375 0.9375 0.359375q0.46875 0 0.84375 -0.234375q0.375 -0.234375 0.828125 -0.75l0 -3.703125l0.90625 0l0 5.34375zm2.753189 0.453125l0 1.796875l-0.90625 0l0 -7.59375l0.75 0l0.078125 0.6875l0.03125 0q0.375 -0.359375 0.859375 -0.59375q0.5 -0.234375 1.0 -0.234375q0.53125 0 0.9375 0.203125q0.421875 0.1875 0.703125 0.546875q0.28125 0.359375 0.421875 0.859375q0.140625 0.5 0.140625 1.125q0 0.6875 -0.203125 1.21875q-0.1875 0.53125 -0.53125 0.90625q-0.328125 0.375 -0.765625 0.5625q-0.4375 0.1875 -0.921875 0.1875q-0.375 0 -0.8125 -0.171875q-0.4375 -0.1875 -0.796875 -0.515625l0.015625 1.015625zm0 -1.703125q0.390625 0.34375 0.765625 0.484375q0.390625 0.140625 0.671875 0.140625q0.71875 0 1.171875 -0.5625q0.46875 -0.5625 0.46875 -1.5625q0 -0.4375 -0.09375 -0.796875q-0.078125 -0.375 -0.265625 -0.625q-0.171875 -0.265625 -0.46875 -0.40625q-0.28125 -0.140625 -0.671875 -0.140625q-0.359375 0 -0.765625 0.203125q-0.390625 0.1875 -0.8125 0.59375l0 2.671875zm17.022003 -5.71875q-0.34375 -0.15625 -0.625 -0.203125q-0.265625 -0.0625 -0.625 -0.0625q-0.71875 0 -1.046875 0.375q-0.3125 0.375 -0.3125 1.03125l0 0.484375l2.25 0l0 0.734375l-2.25 0l0 4.609375l-0.890625 0l0 -4.609375l-1.515625 0l0 -0.6875l1.515625 -0.046875l0 -0.453125q0 -0.984375 0.515625 -1.578125q0.53125 -0.59375 1.640625 -0.59375q0.796875 0 1.546875 0.3125l-0.203125 0.6875zm1.2219391 1.625l3.390625 0l0 5.34375l-0.90625 0l0 -4.609375l-2.484375 0l0 -0.734375zm2.84375 -1.109375q-0.3125 0 -0.515625 -0.171875q-0.203125 -0.1875 -0.203125 -0.515625q0 -0.3125 0.203125 -0.5q0.203125 -0.203125 0.515625 -0.203125q0.3125 0 0.515625 0.203125q0.203125 0.1875 0.203125 0.5q0 0.328125 -0.203125 0.515625q-0.203125 0.171875 -0.515625 0.171875zm3.456314 -1.375l2.734375 0l0 6.09375q0 0.59375 0.28125 0.859375q0.28125 0.265625 0.75 0.265625q0.453125 0 1.015625 -0.265625l0.234375 0.6875q-0.359375 0.125 -0.6875 0.21875q-0.3125 0.09375 -0.75 0.09375q-0.859375 0 -1.3125 -0.484375q-0.4375 -0.484375 -0.4375 -1.4375l0 -5.296875l-1.828125 0l0 -0.734375zm6.393814 0l2.734375 0l0 6.09375q0 0.59375 0.28125 0.859375q0.28125 0.265625 0.75 0.265625q0.453125 0 1.015625 -0.265625l0.234375 0.6875q-0.359375 0.125 -0.6875 0.21875q-0.3125 0.09375 -0.75 0.09375q-0.859375 0 -1.3125 -0.484375q-0.4375 -0.484375 -0.4375 -1.4375l0 -5.296875l-1.828125 0l0 -0.734375z" fill-rule="nonzero"></path><path fill="#d9d2e9" d="m232.14436 170.2336l499.55908 0l0 346.04724l-499.55908 0z" fill-rule="evenodd"></path><path stroke="#595959" stroke-width="1.0" stroke-linejoin="round" stroke-linecap="butt" d="m232.14436 170.2336l499.55908 0l0 346.04724l-499.55908 0z" fill-rule="evenodd"></path><path fill="#000000" d="m248.78499 497.55206q-0.3125 -0.15625 -0.578125 -0.203125q-0.265625 -0.0625 -0.625 -0.0625q-0.71875 0 -1.125 0.375q-0.390625 0.375 -0.53125 1.03125l-0.09375 0.484375l2.25 0l-0.15625 0.734375l-2.25 0l-0.984375 4.609375l-0.890625 0l0.984375 -4.609375l-1.515625 0l0.140625 -0.6875l1.53125 -0.046875l0.09375 -0.453125q0.203125 -0.984375 0.84375 -1.578125q0.65625 -0.59375 1.765625 -0.59375q0.796875 0 1.484375 0.3125l-0.34375 0.6875zm0.8781891 1.625l3.390625 0l-1.140625 5.34375l-0.90625 0l0.984375 -4.609375l-2.484375 0l0.15625 -0.734375zm3.078125 -1.109375q-0.3125 0 -0.484375 -0.171875q-0.15625 -0.1875 -0.09375 -0.515625q0.0625 -0.3125 0.3125 -0.5q0.25 -0.203125 0.5625 -0.203125q0.3125 0 0.46875 0.203125q0.15625 0.1875 0.09375 0.5q-0.0625 0.328125 -0.3125 0.515625q-0.234375 0.171875 -0.546875 0.171875zm3.9406738 1.109375l0.75 0l-0.203125 1.265625l0.03125 0q0.546875 -0.65625 1.25 -1.03125q0.703125 -0.375 1.4375 -0.375q0.296875 0 0.53125 0.0625q0.25 0.046875 0.484375 0.15625l-0.375 0.78125q-0.28125 -0.09375 -0.46875 -0.125q-0.171875 -0.046875 -0.5 -0.046875q-0.59375 0 -1.234375 0.34375q-0.625 0.34375 -1.265625 1.171875l-0.671875 3.140625l-0.90623474 0l1.1406097 -5.34375zm5.1594543 4.046875q0.375 0.328125 0.84375 0.53125q0.484375 0.1875 1.203125 0.1875q0.734375 0 1.125 -0.234375q0.40625 -0.25 0.484375 -0.59375q0.0625 -0.3125 -0.265625 -0.546875q-0.328125 -0.25 -1.25 -0.484375q-0.390625 -0.109375 -0.734375 -0.25q-0.34375 -0.140625 -0.578125 -0.328125q-0.21875 -0.203125 -0.34375 -0.421875q-0.125 -0.234375 -0.0625 -0.515625q0.0625 -0.328125 0.265625 -0.609375q0.21875 -0.28125 0.53125 -0.484375q0.328125 -0.203125 0.78125 -0.3125q0.453125 -0.125 1.0 -0.125q0.609375 0 1.125 0.203125q0.53125 0.203125 0.859375 0.484375l-0.5625 0.578125q-0.28125 -0.25 -0.6875 -0.40625q-0.390625 -0.15625 -0.890625 -0.15625q-0.375 0 -0.640625 0.0625q-0.265625 0.0625 -0.453125 0.171875q-0.171875 0.109375 -0.265625 0.25q-0.078125 0.140625 -0.125 0.296875q-0.0625 0.328125 0.328125 0.546875q0.40625 0.203125 1.109375 0.390625q1.015625 0.28125 1.453125 0.640625q0.453125 0.34375 0.328125 0.953125q-0.0625 0.328125 -0.28125 0.625q-0.203125 0.28125 -0.5625 0.5q-0.34375 0.21875 -0.828125 0.34375q-0.46875 0.125 -1.046875 0.125q-0.78125 0 -1.40625 -0.234375q-0.609375 -0.25 -1.015625 -0.59375l0.5625 -0.59375zm8.128174 -3.3125l-1.5 0l0.140625 -0.6875l1.546875 -0.046875l0.4375 -1.5l0.75 0l-0.3125 1.5l2.625 0l-0.15625 0.734375l-2.625 0l-0.546875 2.546875q-0.078125 0.359375 -0.078125 0.625q0.015625 0.265625 0.125 0.453125q0.125 0.1875 0.359375 0.28125q0.25 0.09375 0.625 0.09375q0.390625 0 0.703125 -0.0625q0.328125 -0.0625 0.640625 -0.171875l0.0625 0.65625q-0.390625 0.125 -0.859375 0.21875q-0.453125 0.09375 -0.890625 0.09375q-0.59375 0 -0.953125 -0.15625q-0.34375 -0.15625 -0.53125 -0.4375q-0.1875 -0.296875 -0.203125 -0.703125q-0.015625 -0.40625 0.09375 -0.90625l0.546875 -2.53125z" fill-rule="nonzero"></path><path fill="#cfe2f3" d="m394.1286 31.097084l167.30707 0l0 73.00787l-167.30707 0z" fill-rule="evenodd"></path><path stroke="#595959" stroke-width="1.0" stroke-linejoin="round" stroke-linecap="butt" d="m394.1286 31.097084l167.30707 0l0 73.00787l-167.30707 0z" fill-rule="evenodd"></path><path fill="#000000" d="m474.1384 62.24227l2.34375 0l0 2.75l-0.125 1.53125q0.234375 -0.234375 0.515625 -0.4375q0.28125 -0.21875 0.609375 -0.390625q0.328125 -0.171875 0.71875 -0.265625q0.390625 -0.09375 0.84375 -0.09375q1.34375 0 1.953125 0.859375q0.625 0.859375 0.625 2.375l0 4.890625l-2.359375 0l0 -4.59375q0 -0.796875 -0.25 -1.15625q-0.25 -0.375 -0.90625 -0.375q-0.484375 0 -0.84375 0.203125q-0.359375 0.203125 -0.78125 0.625l0 5.296875l-2.34375 0l0 -11.21875z" fill-rule="nonzero"></path><path fill="#000000" fill-opacity="0.0" d="m295.042 67.28606l99.08661 0.3149643" fill-rule="evenodd"></path><path stroke="#595959" stroke-width="1.0" stroke-linejoin="round" stroke-linecap="butt" d="m295.042 67.28606l93.08667 0.2958908" fill-rule="evenodd"></path><path fill="#595959" stroke="#595959" stroke-width="1.0" stroke-linecap="butt" d="m388.12338 69.23367l4.543335 -1.6372986l-4.532837 -1.666153z" fill-rule="evenodd"></path><path fill="#000000" fill-opacity="0.0" d="m561.43567 67.60102l106.36224 0" fill-rule="evenodd"></path><path stroke="#595959" stroke-width="1.0" stroke-linejoin="round" stroke-linecap="butt" d="m561.43567 67.60102l100.36224 0" fill-rule="evenodd"></path><path fill="#595959" stroke="#595959" stroke-width="1.0" stroke-linecap="butt" d="m661.7979 69.252754l4.538086 -1.6517334l-4.538086 -1.6517334z" fill-rule="evenodd"></path><path fill="#000000" fill-opacity="0.0" d="m327.65747 35.85299l29.51181 0l0 31.496063l-29.51181 0z" fill-rule="evenodd"></path><path fill="#000000" d="m344.34497 61.554237q-0.9375 0.796875 -1.796875 1.125q-0.859375 0.3125 -1.84375 0.3125q-1.609375 0 -2.484375 -0.78125q-0.875 -0.796875 -0.875 -2.03125q0 -0.734375 0.328125 -1.328125q0.328125 -0.59375 0.859375 -0.953125q0.53125 -0.359375 1.203125 -0.546875q0.5 -0.140625 1.484375 -0.25q2.03125 -0.25 2.984375 -0.578125q0 -0.34375 0 -0.4375q0 -1.015625 -0.46875 -1.4375q-0.640625 -0.5625 -1.90625 -0.5625q-1.171875 0 -1.734375 0.40625q-0.5625 0.40625 -0.828125 1.46875l-1.640625 -0.234375q0.234375 -1.046875 0.734375 -1.6875q0.515625 -0.640625 1.46875 -0.984375q0.96875 -0.359375 2.25 -0.359375q1.265625 0 2.046875 0.296875q0.78125 0.296875 1.15625 0.75q0.375 0.453125 0.515625 1.140625q0.09375 0.421875 0.09375 1.53125l0 2.234375q0 2.328125 0.09375 2.953125q0.109375 0.609375 0.4375 1.171875l-1.75 0q-0.265625 -0.515625 -0.328125 -1.21875zm-0.140625 -3.71875q-0.90625 0.359375 -2.734375 0.625q-1.03125 0.140625 -1.453125 0.328125q-0.421875 0.1875 -0.65625 0.546875q-0.234375 0.359375 -0.234375 0.796875q0 0.671875 0.5 1.125q0.515625 0.4375 1.484375 0.4375q0.96875 0 1.71875 -0.421875q0.75 -0.4375 1.109375 -1.15625q0.265625 -0.578125 0.265625 -1.671875l0 -0.609375z" fill-rule="nonzero"></path><path fill="#000000" fill-opacity="0.0" d="m596.39764 35.85299l29.51178 0l0 31.496063l-29.51178 0z" fill-rule="evenodd"></path><path fill="#000000" d="m608.1945 62.772987l-1.546875 0l0 -13.59375l1.65625 0l0 4.84375q1.0625 -1.328125 2.703125 -1.328125q0.90625 0 1.71875 0.375q0.8125 0.359375 1.328125 1.03125q0.53125 0.65625 0.828125 1.59375q0.296875 0.9375 0.296875 2.0q0 2.53125 -1.25 3.921875q-1.25 1.375 -3.0 1.375q-1.75 0 -2.734375 -1.453125l0 1.234375zm-0.015625 -5.0q0 1.765625 0.46875 2.5625q0.796875 1.28125 2.140625 1.28125q1.09375 0 1.890625 -0.9375q0.796875 -0.953125 0.796875 -2.84375q0 -1.921875 -0.765625 -2.84375q-0.765625 -0.921875 -1.84375 -0.921875q-1.09375 0 -1.890625 0.953125q-0.796875 0.953125 -0.796875 2.75z" fill-rule="nonzero"></path><path fill="#000000" fill-opacity="0.0" d="m0 136.41843l960.69293 1.3858185" fill-rule="evenodd"></path><path stroke="#595959" stroke-width="1.0" stroke-linejoin="round" stroke-linecap="butt" stroke-dasharray="1.0,3.0" d="m0 136.41843l960.69293 1.3858185" fill-rule="evenodd"></path><path fill="#eeeeee" d="m248.38058 192.55643l441.98422 0l0 273.00787l-441.98422 0z" fill-rule="evenodd"></path><path stroke="#595959" stroke-width="1.0" stroke-linejoin="round" stroke-linecap="butt" d="m248.38058 192.55643l441.98422 0l0 273.00787l-441.98422 0z" fill-rule="evenodd"></path><path fill="#000000" d="m259.92746 445.97617l2.734375 0l-1.28125 6.09375q-0.125 0.59375 0.09375 0.859375q0.21875 0.265625 0.6875 0.265625q0.453125 0 1.078125 -0.265625l0.09375 0.6875q-0.390625 0.125 -0.734375 0.21875q-0.34375 0.09375 -0.78125 0.09375q-0.859375 0 -1.203125 -0.484375q-0.34375 -0.484375 -0.140625 -1.4375l1.125 -5.296875l-1.828125 0l0.15625 -0.734375zm5.643799 2.484375l0.703125 0l-0.078125 0.703125l0.03125 0q0.28125 -0.375 0.609375 -0.609375q0.328125 -0.234375 0.78125 -0.234375q0.8125 0 0.8125 0.9375q0.328125 -0.421875 0.671875 -0.671875q0.34375 -0.265625 0.796875 -0.265625q0.5625 0 0.765625 0.4375q0.203125 0.421875 0.03125 1.21875l-0.8125 3.828125l-0.859375 0l0.796875 -3.75q0.203125 -0.953125 -0.390625 -0.953125q-0.28125 0 -0.546875 0.203125q-0.25 0.203125 -0.53125 0.625l-0.828125 3.875l-0.71875 0l0.796875 -3.75q0.203125 -0.953125 -0.40625 -0.953125q-0.28125 0 -0.53125 0.203125q-0.25 0.203125 -0.53125 0.625l-0.828125 3.875l-0.875 0l1.140625 -5.34375zm5.7844543 3.953125q0.09375 -0.453125 0.375 -0.78125q0.28125 -0.34375 0.796875 -0.578125q0.53125 -0.234375 1.296875 -0.390625q0.78125 -0.15625 1.828125 -0.25q0.046875 -0.265625 0.015625 -0.5q-0.03125 -0.25 -0.15625 -0.4375q-0.125 -0.1875 -0.375 -0.296875q-0.234375 -0.109375 -0.625 -0.109375q-0.53125 0 -1.0625 0.203125q-0.515625 0.203125 -0.9375 0.4375l-0.21875 -0.609375q0.21875 -0.140625 0.515625 -0.265625q0.3125 -0.140625 0.625 -0.25q0.328125 -0.109375 0.6875 -0.1875q0.359375 -0.078125 0.71875 -0.078125q1.09375 0 1.5 0.609375q0.40625 0.59375 0.203125 1.59375l-0.703125 3.28125l-0.75 0l0.078125 -0.71875l-0.03125 0q-0.53125 0.34375 -1.125 0.59375q-0.59375 0.25 -1.171875 0.25q-0.375 0 -0.6875 -0.109375q-0.296875 -0.09375 -0.515625 -0.28125q-0.203125 -0.203125 -0.28125 -0.46875q-0.078125 -0.28125 0 -0.65625zm0.890625 -0.0625q-0.046875 0.234375 0.015625 0.390625q0.0625 0.15625 0.1875 0.265625q0.140625 0.109375 0.34375 0.15625q0.21875 0.046875 0.453125 0.046875q0.453125 0 0.9375 -0.203125q0.5 -0.203125 1.046875 -0.59375l0.296875 -1.40625q-0.875 0.0625 -1.484375 0.1875q-0.59375 0.125 -0.984375 0.296875q-0.375 0.171875 -0.578125 0.390625q-0.1875 0.203125 -0.234375 0.46875zm6.143799 1.90625l-0.390625 1.796875l-0.90625 0l1.625 -7.59375l0.75 0l-0.078125 0.6875l0.03125 0q0.453125 -0.359375 1.0 -0.59375q0.546875 -0.234375 1.046875 -0.234375q0.53125 0 0.890625 0.203125q0.375 0.1875 0.578125 0.546875q0.21875 0.359375 0.25 0.859375q0.03125 0.5 -0.109375 1.125q-0.140625 0.6875 -0.453125 1.21875q-0.296875 0.53125 -0.71875 0.90625q-0.421875 0.375 -0.90625 0.5625q-0.46875 0.1875 -0.953125 0.1875q-0.375 0 -0.78125 -0.171875q-0.390625 -0.1875 -0.671875 -0.515625l-0.203125 1.015625zm0.359375 -1.703125q0.3125 0.34375 0.671875 0.484375q0.359375 0.140625 0.640625 0.140625q0.71875 0 1.296875 -0.5625q0.578125 -0.5625 0.78125 -1.5625q0.09375 -0.4375 0.078125 -0.796875q0 -0.375 -0.125 -0.625q-0.125 -0.265625 -0.390625 -0.40625q-0.25 -0.140625 -0.640625 -0.140625q-0.359375 0 -0.796875 0.203125q-0.4375 0.1875 -0.953125 0.59375l-0.5625 2.671875z" fill-rule="nonzero"></path><path fill="#000000" d="m290.22464 451.14804q0 -0.671875 0.234375 -1.1875q0.25 -0.53125 0.65625 -0.890625q0.40625 -0.375 0.9375 -0.5625q0.546875 -0.1875 1.15625 -0.1875q0.65625 0 1.140625 0.234375q0.484375 0.234375 0.8125 0.546875l-0.453125 0.59375q-0.328125 -0.296875 -0.6875 -0.453125q-0.359375 -0.171875 -0.78125 -0.171875q-0.453125 0 -0.84375 0.15625q-0.390625 0.140625 -0.65625 0.421875q-0.265625 0.265625 -0.421875 0.65625q-0.15625 0.375 -0.15625 0.84375q0 0.453125 0.140625 0.828125q0.15625 0.375 0.421875 0.65625q0.28125 0.265625 0.65625 0.421875q0.375 0.140625 0.84375 0.140625q0.484375 0 0.890625 -0.1875q0.421875 -0.203125 0.765625 -0.484375l0.390625 0.578125q-0.4375 0.390625 -0.984375 0.609375q-0.53125 0.21875 -1.125 0.21875q-0.640625 0 -1.171875 -0.171875q-0.53125 -0.1875 -0.9375 -0.546875q-0.390625 -0.359375 -0.609375 -0.875q-0.21875 -0.53125 -0.21875 -1.1875zm6.1750793 0q0 -0.671875 0.21875 -1.1875q0.21875 -0.53125 0.578125 -0.890625q0.359375 -0.375 0.828125 -0.5625q0.484375 -0.1875 1.015625 -0.1875q0.53125 0 1.0 0.1875q0.484375 0.1875 0.84375 0.5625q0.375 0.359375 0.578125 0.890625q0.21875 0.515625 0.21875 1.1875q0 0.65625 -0.21875 1.1875q-0.203125 0.515625 -0.578125 0.875q-0.359375 0.359375 -0.84375 0.546875q-0.46875 0.171875 -1.0 0.171875q-0.53125 0 -1.015625 -0.171875q-0.46875 -0.1875 -0.828125 -0.546875q-0.359375 -0.359375 -0.578125 -0.875q-0.21875 -0.53125 -0.21875 -1.1875zm0.9375 0q0 0.453125 0.125 0.828125q0.125 0.375 0.34375 0.65625q0.21875 0.265625 0.53125 0.421875q0.328125 0.140625 0.703125 0.140625q0.390625 0 0.703125 -0.140625q0.3125 -0.15625 0.53125 -0.421875q0.234375 -0.28125 0.34375 -0.65625q0.125 -0.375 0.125 -0.828125q0 -0.46875 -0.125 -0.84375q-0.109375 -0.390625 -0.34375 -0.65625q-0.21875 -0.28125 -0.53125 -0.421875q-0.3125 -0.15625 -0.703125 -0.15625q-0.375 0 -0.703125 0.15625q-0.3125 0.140625 -0.53125 0.421875q-0.21875 0.265625 -0.34375 0.65625q-0.125 0.375 -0.125 0.84375zm5.815674 -2.6875l0.75 0l0.078125 0.90625l0.046875 0q0.421875 -0.453125 0.90625 -0.75q0.484375 -0.296875 1.109375 -0.296875q0.953125 0 1.390625 0.546875q0.453125 0.546875 0.453125 1.609375l0 3.328125l-0.90625 0l0 -3.203125q0 -0.75 -0.28125 -1.125q-0.28125 -0.375 -0.9375 -0.375q-0.25 0 -0.453125 0.0625q-0.203125 0.0625 -0.40625 0.1875q-0.1875 0.125 -0.40625 0.3125q-0.203125 0.171875 -0.4375 0.40625l0 3.734375l-0.90625 0l0 -5.34375zm7.6438293 0.734375l-1.5 0l0 -0.6875l1.53125 -0.046875l0.125 -1.5l0.75 0l0 1.5l2.625 0l0 0.734375l-2.625 0l0 2.546875q0 0.359375 0.0625 0.625q0.0625 0.265625 0.21875 0.453125q0.15625 0.1875 0.421875 0.28125q0.265625 0.09375 0.640625 0.09375q0.390625 0 0.6875 -0.0625q0.3125 -0.0625 0.609375 -0.171875l0.1875 0.65625q-0.359375 0.125 -0.796875 0.21875q-0.4375 0.09375 -0.875 0.09375q-0.59375 0 -0.984375 -0.15625q-0.390625 -0.15625 -0.640625 -0.4375q-0.234375 -0.296875 -0.34375 -0.703125q-0.09375 -0.40625 -0.09375 -0.90625l0 -2.53125zm4.893799 1.953125q0 -0.671875 0.21875 -1.1875q0.234375 -0.515625 0.609375 -0.875q0.390625 -0.375 0.875 -0.5625q0.484375 -0.203125 1.0 -0.203125q0.578125 0 1.03125 0.1875q0.453125 0.1875 0.765625 0.515625q0.3125 0.328125 0.46875 0.796875q0.171875 0.453125 0.171875 1.015625q0 0.140625 -0.015625 0.28125q0 0.140625 -0.015625 0.234375l-4.1875 0q0.015625 0.421875 0.171875 0.765625q0.171875 0.34375 0.4375 0.59375q0.265625 0.234375 0.625 0.375q0.375 0.125 0.8125 0.125q0.484375 0 0.875 -0.125q0.390625 -0.140625 0.765625 -0.375l0.3125 0.59375q-0.390625 0.265625 -0.90625 0.453125q-0.5 0.171875 -1.15625 0.171875q-0.59375 0 -1.125 -0.1875q-0.515625 -0.1875 -0.90625 -0.546875q-0.390625 -0.359375 -0.609375 -0.875q-0.21875 -0.515625 -0.21875 -1.171875zm4.3125 -0.453125q0 -0.796875 -0.421875 -1.21875q-0.421875 -0.4375 -1.171875 -0.4375q-0.328125 0 -0.640625 0.109375q-0.296875 0.109375 -0.546875 0.328125q-0.234375 0.21875 -0.40625 0.53125q-0.15625 0.296875 -0.203125 0.6875l3.390625 0zm2.3313293 -2.234375l0.75 0l0.078125 0.90625l0.046875 0q0.421875 -0.453125 0.90625 -0.75q0.484375 -0.296875 1.109375 -0.296875q0.953125 0 1.390625 0.546875q0.453125 0.546875 0.453125 1.609375l0 3.328125l-0.90625 0l0 -3.203125q0 -0.75 -0.28125 -1.125q-0.28125 -0.375 -0.9375 -0.375q-0.25 0 -0.453125 0.0625q-0.203125 0.0625 -0.40625 0.1875q-0.1875 0.125 -0.40625 0.3125q-0.203125 0.171875 -0.4375 0.40625l0 3.734375l-0.90625 0l0 -5.34375zm7.643799 0.734375l-1.5 0l0 -0.6875l1.53125 -0.046875l0.125 -1.5l0.75 0l0 1.5l2.625 0l0 0.734375l-2.625 0l0 2.546875q0 0.359375 0.0625 0.625q0.0625 0.265625 0.21875 0.453125q0.15625 0.1875 0.421875 0.28125q0.265625 0.09375 0.640625 0.09375q0.390625 0 0.6875 -0.0625q0.3125 -0.0625 0.609375 -0.171875l0.1875 0.65625q-0.359375 0.125 -0.796875 0.21875q-0.4375 0.09375 -0.875 0.09375q-0.59375 0 -0.984375 -0.15625q-0.390625 -0.15625 -0.640625 -0.4375q-0.234375 -0.296875 -0.34375 -0.703125q-0.09375 -0.40625 -0.09375 -0.90625l0 -2.53125zm5.3625793 3.3125q0.453125 0.328125 0.96875 0.53125q0.515625 0.1875 1.234375 0.1875q0.734375 0 1.078125 -0.234375q0.359375 -0.25 0.359375 -0.59375q0 -0.3125 -0.390625 -0.546875q-0.375 -0.25 -1.34375 -0.484375q-0.421875 -0.109375 -0.796875 -0.25q-0.359375 -0.140625 -0.640625 -0.328125q-0.265625 -0.203125 -0.4375 -0.421875q-0.171875 -0.234375 -0.171875 -0.515625q0 -0.328125 0.140625 -0.609375q0.15625 -0.28125 0.4375 -0.484375q0.28125 -0.203125 0.703125 -0.3125q0.421875 -0.125 0.96875 -0.125q0.609375 0 1.171875 0.203125q0.578125 0.203125 0.96875 0.484375l-0.4375 0.578125q-0.34375 -0.25 -0.78125 -0.40625q-0.421875 -0.15625 -0.921875 -0.15625q-0.375 0 -0.625 0.0625q-0.25 0.0625 -0.40625 0.171875q-0.15625 0.109375 -0.21875 0.25q-0.0625 0.140625 -0.0625 0.296875q0 0.328125 0.4375 0.546875q0.453125 0.203125 1.1875 0.390625q1.078125 0.28125 1.59375 0.640625q0.53125 0.34375 0.53125 0.953125q0 0.328125 -0.15625 0.625q-0.140625 0.28125 -0.453125 0.5q-0.296875 0.21875 -0.75 0.34375q-0.4375 0.125 -1.015625 0.125q-0.78125 0 -1.453125 -0.234375q-0.671875 -0.25 -1.15625 -0.59375l0.4375 -0.59375z" fill-rule="nonzero"></path><path fill="#d9ead3" d="m270.22977 319.71738l0 0c0 -18.577667 15.123596 -33.637817 33.77951 -33.637817l0 0c8.958893 0 17.550842 3.5439758 23.885742 9.852295c6.3349 6.308319 9.893799 14.864227 9.893799 23.785522l0 0c0 18.577637 -15.123627 33.637787 -33.77954 33.637787l0 0c-18.655914 0 -33.77951 -15.06015 -33.77951 -33.637787z" fill-rule="evenodd"></path><path stroke="#595959" stroke-width="1.0" stroke-linejoin="round" stroke-linecap="butt" d="m270.22977 319.71738l0 0c0 -18.577667 15.123596 -33.637817 33.77951 -33.637817l0 0c8.958893 0 17.550842 3.5439758 23.885742 9.852295c6.3349 6.308319 9.893799 14.864227 9.893799 23.785522l0 0c0 18.577637 -15.123627 33.637787 -33.77954 33.637787l0 0c-18.655914 0 -33.77951 -15.06015 -33.77951 -33.637787z" fill-rule="evenodd"></path><path fill="#000000" d="m291.95602 314.223q0 -0.671875 0.25 -1.203125q0.265625 -0.546875 0.703125 -0.90625q0.4375 -0.359375 1.0 -0.546875q0.578125 -0.203125 1.203125 -0.203125q0.65625 0 1.171875 0.21875q0.53125 0.203125 0.875 0.53125l-0.75 1.0q-0.59375 -0.4375 -1.203125 -0.4375q-0.703125 0 -1.15625 0.421875q-0.4375 0.421875 -0.4375 1.125q0 0.71875 0.421875 1.140625q0.4375 0.421875 1.109375 0.421875q0.4375 0 0.796875 -0.15625q0.359375 -0.15625 0.65625 -0.359375l0.65625 1.015625q-0.5 0.421875 -1.109375 0.609375q-0.59375 0.1875 -1.15625 0.1875q-0.640625 0 -1.1875 -0.1875q-0.546875 -0.1875 -0.96875 -0.546875q-0.40625 -0.375 -0.640625 -0.90625q-0.234375 -0.53125 -0.234375 -1.21875zm6.1750793 0q0 -0.671875 0.234375 -1.203125q0.234375 -0.546875 0.625 -0.90625q0.390625 -0.359375 0.890625 -0.546875q0.5 -0.203125 1.03125 -0.203125q0.546875 0 1.046875 0.203125q0.5 0.1875 0.890625 0.546875q0.390625 0.359375 0.609375 0.90625q0.234375 0.53125 0.234375 1.203125q0 0.6875 -0.234375 1.21875q-0.21875 0.53125 -0.609375 0.90625q-0.390625 0.359375 -0.890625 0.546875q-0.5 0.1875 -1.046875 0.1875q-0.53125 0 -1.03125 -0.1875q-0.5 -0.1875 -0.890625 -0.546875q-0.390625 -0.375 -0.625 -0.90625q-0.234375 -0.53125 -0.234375 -1.21875zm1.65625 0q0 0.71875 0.28125 1.140625q0.28125 0.421875 0.84375 0.421875q0.5625 0 0.84375 -0.421875q0.28125 -0.421875 0.28125 -1.140625q0 -0.703125 -0.28125 -1.125q-0.28125 -0.421875 -0.84375 -0.421875q-0.5625 0 -0.84375 0.421875q-0.28125 0.421875 -0.28125 1.125zm5.018799 -2.71875l1.3125 0l0.125 0.71875l0.046875 0q0.34375 -0.34375 0.796875 -0.59375q0.46875 -0.265625 1.078125 -0.265625q0.921875 0 1.34375 0.59375q0.4375 0.59375 0.4375 1.640625l0 3.359375l-1.609375 0l0 -3.15625q0 -0.546875 -0.1875 -0.796875q-0.171875 -0.265625 -0.625 -0.265625q-0.328125 0 -0.578125 0.15625q-0.25 0.140625 -0.53125 0.421875l0 3.640625l-1.609375 0l0 -5.453125zm7.5032043 1.265625l-1.375 0l0 -1.203125l1.453125 -0.0625l0.21875 -1.453125l1.328125 0l0 1.453125l2.3125 0l0 1.265625l-2.3125 0l0 1.90625q0 0.625 0.265625 0.890625q0.28125 0.25 0.875 0.25q0.328125 0 0.578125 -0.046875q0.265625 -0.0625 0.515625 -0.140625l0.28125 1.15625q-0.359375 0.109375 -0.8125 0.203125q-0.4375 0.09375 -0.96875 0.09375q-0.640625 0 -1.09375 -0.171875q-0.453125 -0.171875 -0.734375 -0.484375q-0.28125 -0.3125 -0.40625 -0.75q-0.125 -0.453125 -0.125 -0.984375l0 -1.921875z" fill-rule="nonzero"></path><path fill="#000000" d="m291.83102 327.223q0 -0.671875 0.234375 -1.1875q0.234375 -0.53125 0.625 -0.890625q0.40625 -0.375 0.90625 -0.578125q0.515625 -0.203125 1.0625 -0.203125q0.625 0 1.109375 0.203125q0.484375 0.203125 0.796875 0.5625q0.328125 0.34375 0.484375 0.828125q0.171875 0.46875 0.171875 1.03125q0 0.21875 -0.015625 0.421875q-0.015625 0.1875 -0.046875 0.296875l-3.671875 0q0.09375 0.609375 0.53125 0.890625q0.453125 0.265625 1.046875 0.265625q0.375 0 0.703125 -0.09375q0.34375 -0.09375 0.71875 -0.28125l0.515625 0.96875q-0.453125 0.296875 -1.03125 0.46875q-0.5625 0.15625 -1.125 0.15625q-0.640625 0 -1.1875 -0.1875q-0.546875 -0.1875 -0.953125 -0.546875q-0.40625 -0.375 -0.640625 -0.90625q-0.234375 -0.53125 -0.234375 -1.21875zm3.9375 -0.59375q0 -0.453125 -0.265625 -0.734375q-0.25 -0.296875 -0.8125 -0.296875q-0.4375 0 -0.78125 0.265625q-0.328125 0.25 -0.4375 0.765625l2.296875 0zm2.6438293 -2.125l1.3125 0l0.125 0.71875l0.046875 0q0.34375 -0.34375 0.796875 -0.59375q0.46875 -0.265625 1.078125 -0.265625q0.921875 0 1.34375 0.59375q0.4375 0.59375 0.4375 1.640625l0 3.359375l-1.609375 0l0 -3.15625q0 -0.546875 -0.1875 -0.796875q-0.171875 -0.265625 -0.625 -0.265625q-0.328125 0 -0.578125 0.15625q-0.25 0.140625 -0.53125 0.421875l0 3.640625l-1.609375 0l0 -5.453125zm7.503174 1.265625l-1.375 0l0 -1.203125l1.453125 -0.0625l0.21875 -1.453125l1.328125 0l0 1.453125l2.3125 0l0 1.265625l-2.3125 0l0 1.90625q0 0.625 0.265625 0.890625q0.28125 0.25 0.875 0.25q0.328125 0 0.578125 -0.046875q0.265625 -0.0625 0.515625 -0.140625l0.28125 1.15625q-0.359375 0.109375 -0.8125 0.203125q-0.4375 0.09375 -0.96875 0.09375q-0.640625 0 -1.09375 -0.171875q-0.453125 -0.171875 -0.734375 -0.484375q-0.28125 -0.3125 -0.40625 -0.75q-0.125 -0.453125 -0.125 -0.984375l0 -1.921875zm5.8000793 2.46875q0.46875 0.296875 0.9375 0.484375q0.484375 0.171875 1.03125 0.171875q0.5625 0 0.796875 -0.125q0.25 -0.125 0.25 -0.34375q0 -0.25 -0.40625 -0.40625q-0.390625 -0.15625 -1.046875 -0.34375q-0.359375 -0.109375 -0.71875 -0.234375q-0.34375 -0.140625 -0.625 -0.328125q-0.265625 -0.203125 -0.4375 -0.453125q-0.171875 -0.25 -0.171875 -0.59375q0 -0.359375 0.171875 -0.671875q0.1875 -0.328125 0.5 -0.546875q0.328125 -0.21875 0.796875 -0.34375q0.46875 -0.140625 1.046875 -0.140625q0.734375 0 1.328125 0.25q0.609375 0.234375 1.03125 0.5l-0.71875 0.96875q-0.375 -0.21875 -0.78125 -0.359375q-0.390625 -0.15625 -0.828125 -0.15625q-0.515625 0 -0.734375 0.109375q-0.203125 0.109375 -0.203125 0.328125q0 0.109375 0.109375 0.21875q0.109375 0.09375 0.296875 0.171875q0.1875 0.078125 0.4375 0.15625q0.265625 0.0625 0.546875 0.140625q0.40625 0.109375 0.765625 0.25q0.375 0.140625 0.640625 0.328125q0.28125 0.171875 0.4375 0.4375q0.171875 0.265625 0.171875 0.625q0 0.375 -0.171875 0.703125q-0.171875 0.3125 -0.515625 0.546875q-0.328125 0.234375 -0.828125 0.375q-0.5 0.125 -1.171875 0.125q-0.734375 0 -1.4375 -0.234375q-0.703125 -0.25 -1.234375 -0.59375l0.734375 -1.015625z" fill-rule="nonzero"></path><path fill="#000000" fill-opacity="0.0" d="m232.34 319.52838l37.88977 0.18899536" fill-rule="evenodd"></path><path stroke="#595959" stroke-width="1.0" stroke-linejoin="round" stroke-linecap="butt" d="m232.34 319.52838l31.889862 0.15905762" fill-rule="evenodd"></path><path fill="#595959" stroke="#595959" stroke-width="1.0" stroke-linecap="butt" d="m264.2216 321.33914l4.546295 -1.6290894l-4.5298157 -1.6743469z" fill-rule="evenodd"></path><path fill="#000000" fill-opacity="0.0" d="m243.05905 291.3379l29.795288 0l0 25.51181l-29.795288 0z" fill-rule="evenodd"></path><path fill="#000000" d="m252.4028 308.87476l0.953125 -0.15625q0.078125 0.578125 0.4375 0.890625q0.375 0.296875 1.03125 0.296875q0.671875 0 0.984375 -0.265625q0.328125 -0.265625 0.328125 -0.640625q0 -0.328125 -0.28125 -0.515625q-0.203125 -0.125 -0.984375 -0.328125q-1.0625 -0.265625 -1.484375 -0.453125q-0.40625 -0.203125 -0.625 -0.546875q-0.203125 -0.34375 -0.203125 -0.765625q0 -0.390625 0.171875 -0.703125q0.171875 -0.328125 0.484375 -0.546875q0.21875 -0.171875 0.609375 -0.28125q0.390625 -0.109375 0.828125 -0.109375q0.671875 0 1.171875 0.1875q0.515625 0.1875 0.75 0.53125q0.25 0.328125 0.34375 0.875l-0.9375 0.125q-0.078125 -0.4375 -0.390625 -0.671875q-0.296875 -0.25 -0.859375 -0.25q-0.671875 0 -0.953125 0.21875q-0.28125 0.21875 -0.28125 0.515625q0 0.1875 0.109375 0.328125q0.125 0.15625 0.375 0.265625q0.140625 0.046875 0.859375 0.25q1.015625 0.265625 1.421875 0.4375q0.40625 0.171875 0.640625 0.515625q0.234375 0.328125 0.234375 0.828125q0 0.484375 -0.28125 0.90625q-0.28125 0.421875 -0.8125 0.65625q-0.53125 0.234375 -1.203125 0.234375q-1.109375 0 -1.703125 -0.453125q-0.578125 -0.46875 -0.734375 -1.375z" fill-rule="nonzero"></path><path fill="#000000" fill-opacity="0.0" d="m690.35956 318.61917l41.51184 0.2204895" fill-rule="evenodd"></path><path stroke="#595959" stroke-width="1.0" stroke-linejoin="round" stroke-linecap="butt" d="m690.35956 318.61917l35.5119 0.18859863" fill-rule="evenodd"></path><path fill="#595959" stroke="#595959" stroke-width="1.0" stroke-linecap="butt" d="m725.86273 320.4595l4.546753 -1.6276245l-4.529236 -1.6758118z" fill-rule="evenodd"></path><path fill="#000000" fill-opacity="0.0" d="m690.3559 289.63516l35.716553 0l0 25.51181l-35.716553 0z" fill-rule="evenodd"></path><path fill="#000000" d="m700.1059 311.06268l0 -10.0625l2.125 0l0 0.796875l-1.15625 0l0 8.46875l1.15625 0l0 0.796875l-2.125 0zm3.8200073 -2.1875l-0.890625 0l0 -7.875l0.96875 0l0 2.8125q0.609375 -0.765625 1.5625 -0.765625q0.53125 0 1.0 0.21875q0.46875 0.203125 0.765625 0.59375q0.3125 0.375 0.484375 0.921875q0.171875 0.53125 0.171875 1.15625q0 1.46875 -0.734375 2.265625q-0.71875 0.796875 -1.734375 0.796875q-1.015625 0 -1.59375 -0.84375l0 0.71875zm0 -2.890625q0 1.015625 0.28125 1.484375q0.453125 0.734375 1.234375 0.734375q0.625 0 1.078125 -0.546875q0.46875 -0.546875 0.46875 -1.640625q0 -1.109375 -0.4375 -1.640625q-0.4375 -0.53125 -1.078125 -0.53125q-0.625 0 -1.09375 0.546875q-0.453125 0.546875 -0.453125 1.59375zm6.6608887 5.078125l-2.140625 0l0 -0.796875l1.171875 0l0 -8.46875l-1.171875 0l0 -0.796875l2.140625 0l0 10.0625z" fill-rule="nonzero"></path><path fill="#000000" fill-opacity="0.0" d="m232.23885 489.50656l499.62207 1.3228455" fill-rule="evenodd"></path><path stroke="#595959" stroke-width="1.0" stroke-linejoin="round" stroke-linecap="butt" d="m232.23885 489.50656l493.62207 1.3069763" fill-rule="evenodd"></path><path fill="#595959" stroke="#595959" stroke-width="1.0" stroke-linecap="butt" d="m725.85657 492.46524l4.5424194 -1.6397095l-4.5336914 -1.6637573z" fill-rule="evenodd"></path><path fill="#000000" fill-opacity="0.0" d="m457.1017 463.22052l29.795258 0l0 25.51181l-29.795258 0z" fill-rule="evenodd"></path><path fill="#000000" d="m466.44547 480.7574l0.953125 -0.15625q0.078125 0.578125 0.4375 0.890625q0.375 0.296875 1.03125 0.296875q0.671875 0 0.984375 -0.265625q0.328125 -0.265625 0.328125 -0.640625q0 -0.328125 -0.28125 -0.515625q-0.203125 -0.125 -0.984375 -0.328125q-1.0625 -0.265625 -1.484375 -0.453125q-0.40625 -0.203125 -0.625 -0.546875q-0.203125 -0.34375 -0.203125 -0.765625q0 -0.390625 0.171875 -0.703125q0.171875 -0.328125 0.484375 -0.546875q0.21875 -0.171875 0.609375 -0.28125q0.390625 -0.109375 0.828125 -0.109375q0.671875 0 1.171875 0.1875q0.515625 0.1875 0.75 0.53125q0.25 0.328125 0.34375 0.875l-0.9375 0.125q-0.078125 -0.4375 -0.390625 -0.671875q-0.296875 -0.25 -0.859375 -0.25q-0.671875 0 -0.953125 0.21875q-0.28125 0.21875 -0.28125 0.515625q0 0.1875 0.109375 0.328125q0.125 0.15625 0.375 0.265625q0.140625 0.046875 0.859375 0.25q1.015625 0.265625 1.421875 0.4375q0.40625 0.171875 0.640625 0.515625q0.234375 0.328125 0.234375 0.828125q0 0.484375 -0.28125 0.90625q-0.28125 0.421875 -0.8125 0.65625q-0.53125 0.234375 -1.203125 0.234375q-1.109375 0 -1.703125 -0.453125q-0.578125 -0.46875 -0.734375 -1.375z" fill-rule="nonzero"></path><path fill="#ffffff" d="m132.71527 373.28665l0 0c0 -18.577637 15.123611 -33.637787 33.779526 -33.637787l0 0c8.958893 0 17.550842 3.5439453 23.885727 9.852264c6.3349 6.308319 9.893799 14.864227 9.893799 23.785522l0 0c0 18.577637 -15.123611 33.637787 -33.779526 33.637787l0 0c-18.655914 0 -33.779526 -15.06015 -33.779526 -33.637787z" fill-rule="evenodd"></path><path stroke="#595959" stroke-width="1.0" stroke-linejoin="round" stroke-linecap="butt" d="m132.71527 373.28665l0 0c0 -18.577637 15.123611 -33.637787 33.779526 -33.637787l0 0c8.958893 0 17.550842 3.5439453 23.885727 9.852264c6.3349 6.308319 9.893799 14.864227 9.893799 23.785522l0 0c0 18.577637 -15.123611 33.637787 -33.779526 33.637787l0 0c-18.655914 0 -33.779526 -15.06015 -33.779526 -33.637787z" fill-rule="evenodd"></path><path fill="#f4cccc" d="m762.32544 380.32602l0 0c0 -22.465393 18.902771 -40.677185 42.22052 -40.677185l0 0c11.19751 0 21.936462 4.285614 29.85437 11.9140625c7.9178467 7.6284485 12.366089 17.974854 12.366089 28.763123l0 0c0 22.465363 -18.902771 40.677155 -42.22046 40.677155l0 0c-23.317749 0 -42.22052 -18.211792 -42.22052 -40.677155z" fill-rule="evenodd"></path><path stroke="#595959" stroke-width="1.0" stroke-linejoin="round" stroke-linecap="butt" d="m762.32544 380.32602l0 0c0 -22.465393 18.902771 -40.677185 42.22052 -40.677185l0 0c11.19751 0 21.936462 4.285614 29.85437 11.9140625c7.9178467 7.6284485 12.366089 17.974854 12.366089 28.763123l0 0c0 22.465363 -18.902771 40.677155 -42.22046 40.677155l0 0c-23.317749 0 -42.22052 -18.211792 -42.22052 -40.677155z" fill-rule="evenodd"></path><path fill="#000000" d="m797.8833 377.70663q-0.53125 -0.203125 -1.140625 -0.203125q-0.53125 0 -0.78125 0.234375q-0.25 0.21875 -0.25 0.71875l0 0.15625l1.890625 0l0 1.265625l-1.890625 0l0 4.1875l-1.609375 0l0 -4.1875l-1.4375 0l0 -1.203125l1.4375 -0.0625l0 -0.140625q0 -0.484375 0.140625 -0.890625q0.140625 -0.40625 0.4375 -0.703125q0.296875 -0.296875 0.75 -0.46875q0.46875 -0.1875 1.109375 -0.1875q0.484375 0 0.890625 0.09375q0.40625 0.078125 0.765625 0.203125l-0.3125 1.1875zm1.1437988 0.90625l3.796875 0l0 5.453125l-1.609375 0l0 -4.1875l-2.1875 0l0 -1.265625zm2.921875 -0.8125q-0.46875 0 -0.78125 -0.25q-0.296875 -0.265625 -0.296875 -0.71875q0 -0.453125 0.296875 -0.734375q0.3125 -0.28125 0.78125 -0.28125q0.46875 0 0.765625 0.28125q0.3125 0.28125 0.3125 0.734375q0 0.453125 -0.3125 0.71875q-0.296875 0.25 -0.765625 0.25zm3.2844849 -1.453125l3.203125 0l0 5.65625q0 0.25 0.0625 0.421875q0.078125 0.171875 0.203125 0.28125q0.125 0.09375 0.28125 0.140625q0.15625 0.046875 0.328125 0.046875q0.1875 0 0.390625 -0.03125q0.21875 -0.046875 0.46875 -0.15625l0.359375 1.1875q-0.21875 0.078125 -0.40625 0.140625q-0.1875 0.046875 -0.375 0.078125q-0.1875 0.046875 -0.40625 0.0625q-0.203125 0.015625 -0.453125 0.015625q-1.03125 0 -1.5625 -0.609375q-0.515625 -0.609375 -0.515625 -1.65625l0 -4.296875l-1.578125 0l0 -1.28125zm6.393799 0l3.203125 0l0 5.65625q0 0.25 0.0625 0.421875q0.078125 0.171875 0.203125 0.28125q0.125 0.09375 0.28125 0.140625q0.15625 0.046875 0.328125 0.046875q0.1875 0 0.390625 -0.03125q0.21875 -0.046875 0.46875 -0.15625l0.359375 1.1875q-0.21875 0.078125 -0.40625 0.140625q-0.1875 0.046875 -0.375 0.078125q-0.1875 0.046875 -0.40625 0.0625q-0.203125 0.015625 -0.453125 0.015625q-1.03125 0 -1.5625 -0.609375q-0.515625 -0.609375 -0.515625 -1.65625l0 -4.296875l-1.578125 0l0 -1.28125z" fill-rule="nonzero"></path><path fill="#000000" fill-opacity="0.0" d="m190.38052 349.50113l0 -30.677155l41.76378 0" fill-rule="evenodd"></path><path stroke="#595959" stroke-width="1.0" stroke-linejoin="round" stroke-linecap="butt" d="m190.38054 349.50116l0 -30.677185l35.76378 0" fill-rule="evenodd"></path><path fill="#595959" stroke="#595959" stroke-width="1.0" stroke-linecap="butt" d="m226.14432 320.4757l4.538101 -1.6517334l-4.538101 -1.6517334z" fill-rule="evenodd"></path><path fill="#000000" fill-opacity="0.0" d="m190.38052 397.07217l0 92.69458l41.95276 0l0 -0.34814453" fill-rule="evenodd"></path><path stroke="#595959" stroke-width="1.0" stroke-linejoin="round" stroke-linecap="butt" d="m190.38054 397.07217l0 92.69461l35.96286 0" fill-rule="evenodd"></path><path fill="#595959" stroke="#595959" stroke-width="1.0" stroke-linecap="butt" d="m226.43924 491.4157l4.434616 -1.912262l-4.626297 -1.3856201z" fill-rule="evenodd"></path><path fill="#000000" fill-opacity="0.0" d="m731.6994 318.8385l42.992126 0l0 32.724396" fill-rule="evenodd"></path><path stroke="#595959" stroke-width="1.0" stroke-linejoin="round" stroke-linecap="butt" d="m731.6994 318.8385l42.992126 0l0 26.724396" fill-rule="evenodd"></path><path fill="#595959" stroke="#595959" stroke-width="1.0" stroke-linecap="butt" d="m773.0398 345.5629l1.6517334 4.5381165l1.6517334 -4.5381165z" fill-rule="evenodd"></path><path fill="#000000" fill-opacity="0.0" d="m731.8254 490.8844l0 0.052337646l42.86615 0l0 -81.847626" fill-rule="evenodd"></path><path stroke="#595959" stroke-width="1.0" stroke-linejoin="round" stroke-linecap="butt" d="m731.8254 490.8844l0 0.05230713l42.86615 0l0 -75.847595" fill-rule="evenodd"></path><path fill="#595959" stroke="#595959" stroke-width="1.0" stroke-linecap="butt" d="m776.34326 415.0891l-1.6517334 -4.538086l-1.6517334 4.538086z" fill-rule="evenodd"></path><path fill="#000000" fill-opacity="0.0" d="m44.333332 336.96588l56.50394 0.34646606" fill-rule="evenodd"></path><path stroke="#595959" stroke-width="1.0" stroke-linejoin="round" stroke-linecap="butt" d="m44.333332 336.96588l50.504047 0.30966187" fill-rule="evenodd"></path><path fill="#595959" stroke="#595959" stroke-width="1.0" stroke-linecap="butt" d="m94.827255 338.92725l4.5481415 -1.6238708l-4.5278854 -1.6795349z" fill-rule="evenodd"></path><path fill="#000000" fill-opacity="0.0" d="m882.5696 337.31235l58.078735 0.18896484" fill-rule="evenodd"></path><path stroke="#595959" stroke-width="1.0" stroke-linejoin="round" stroke-linecap="butt" d="m882.5696 337.31235l52.078735 0.1694336" fill-rule="evenodd"></path><path fill="#595959" stroke="#595959" stroke-width="1.0" stroke-linecap="butt" d="m934.64294 339.1335l4.543457 -1.6369629l-4.532715 -1.6664734z" fill-rule="evenodd"></path><path fill="#000000" fill-opacity="0.0" d="m54.62481 302.40765l29.795273 0l0 25.51181l-29.795273 0z" fill-rule="evenodd"></path><path fill="#000000" d="m64.202934 326.39014l1.65625 -0.265625q0.140625 1.0 0.765625 1.53125q0.640625 0.515625 1.78125 0.515625q1.15625 0 1.703125 -0.46875q0.5625 -0.46875 0.5625 -1.09375q0 -0.5625 -0.484375 -0.890625q-0.34375 -0.21875 -1.703125 -0.5625q-1.84375 -0.46875 -2.5625 -0.796875q-0.703125 -0.34375 -1.078125 -0.9375q-0.359375 -0.609375 -0.359375 -1.328125q0 -0.65625 0.296875 -1.21875q0.3125 -0.5625 0.828125 -0.9375q0.390625 -0.28125 1.0625 -0.484375q0.671875 -0.203125 1.4375 -0.203125q1.171875 0 2.046875 0.34375q0.875 0.328125 1.28125 0.90625q0.421875 0.5625 0.578125 1.515625l-1.625 0.21875q-0.109375 -0.75 -0.65625 -1.171875q-0.53125 -0.4375 -1.5 -0.4375q-1.15625 0 -1.640625 0.390625q-0.484375 0.375 -0.484375 0.875q0 0.328125 0.203125 0.59375q0.203125 0.265625 0.640625 0.4375q0.25 0.09375 1.46875 0.4375q1.765625 0.46875 2.46875 0.765625q0.703125 0.296875 1.09375 0.875q0.40625 0.578125 0.40625 1.4375q0 0.828125 -0.484375 1.578125q-0.484375 0.734375 -1.40625 1.140625q-0.921875 0.390625 -2.078125 0.390625q-1.921875 0 -2.9375 -0.796875q-1.0 -0.796875 -1.28125 -2.359375z" fill-rule="nonzero"></path><path fill="#000000" fill-opacity="0.0" d="m739.50854 462.77975l29.795288 0l0 25.51181l-29.795288 0z" fill-rule="evenodd"></path><path fill="#000000" d="m748.8523 480.31662l0.953125 -0.15625q0.078125 0.578125 0.4375 0.890625q0.375 0.296875 1.03125 0.296875q0.671875 0 0.984375 -0.265625q0.328125 -0.265625 0.328125 -0.640625q0 -0.328125 -0.28125 -0.515625q-0.203125 -0.125 -0.984375 -0.328125q-1.0625 -0.265625 -1.484375 -0.453125q-0.40625 -0.203125 -0.625 -0.546875q-0.203125 -0.34375 -0.203125 -0.765625q0 -0.390625 0.171875 -0.703125q0.171875 -0.328125 0.484375 -0.546875q0.21875 -0.171875 0.609375 -0.28125q0.390625 -0.109375 0.828125 -0.109375q0.671875 0 1.171875 0.1875q0.515625 0.1875 0.75 0.53125q0.25 0.328125 0.34375 0.875l-0.9375 0.125q-0.078125 -0.4375 -0.390625 -0.671875q-0.296875 -0.25 -0.859375 -0.25q-0.671875 0 -0.953125 0.21875q-0.28125 0.21875 -0.28125 0.515625q0 0.1875 0.109375 0.328125q0.125 0.15625 0.375 0.265625q0.140625 0.046875 0.859375 0.25q1.015625 0.265625 1.421875 0.4375q0.40625 0.171875 0.640625 0.515625q0.234375 0.328125 0.234375 0.828125q0 0.484375 -0.28125 0.90625q-0.28125 0.421875 -0.8125 0.65625q-0.53125 0.234375 -1.203125 0.234375q-1.109375 0 -1.703125 -0.453125q-0.578125 -0.46875 -0.734375 -1.375z" fill-rule="nonzero"></path><path fill="#000000" fill-opacity="0.0" d="m737.774 290.96558l41.13385 0l0 25.51181l-41.13385 0z" fill-rule="evenodd"></path><path fill="#000000" d="m747.524 312.39307l0 -10.0625l2.125 0l0 0.796875l-1.15625 0l0 8.46875l1.15625 0l0 0.796875l-2.125 0zm3.8200073 -2.1875l-0.890625 0l0 -7.875l0.96875 0l0 2.8125q0.609375 -0.765625 1.5625 -0.765625q0.53125 0 1.0 0.21875q0.46875 0.203125 0.765625 0.59375q0.3125 0.375 0.484375 0.921875q0.171875 0.53125 0.171875 1.15625q0 1.46875 -0.734375 2.265625q-0.71875 0.796875 -1.734375 0.796875q-1.015625 0 -1.59375 -0.84375l0 0.71875zm0 -2.890625q0 1.015625 0.28125 1.484375q0.453125 0.734375 1.234375 0.734375q0.625 0 1.078125 -0.546875q0.46875 -0.546875 0.46875 -1.640625q0 -1.109375 -0.4375 -1.640625q-0.4375 -0.53125 -1.078125 -0.53125q-0.625 0 -1.09375 0.546875q-0.453125 0.546875 -0.453125 1.59375zm6.6608887 5.078125l-2.140625 0l0 -0.796875l1.171875 0l0 -8.46875l-1.171875 0l0 -0.796875l2.140625 0l0 10.0625z" fill-rule="nonzero"></path><path fill="#000000" fill-opacity="0.0" d="m896.71783 304.12857l29.795288 0l0 25.51181l-29.795288 0z" fill-rule="evenodd"></path><path fill="#000000" d="m910.6241 329.54858l0.234375 1.484375q-0.703125 0.140625 -1.265625 0.140625q-0.90625 0 -1.40625 -0.28125q-0.5 -0.296875 -0.703125 -0.75q-0.203125 -0.46875 -0.203125 -1.984375l0 -5.65625l-1.234375 0l0 -1.3125l1.234375 0l0 -2.4375l1.65625 -1.0l0 3.4375l1.6875 0l0 1.3125l-1.6875 0l0 5.75q0 0.71875 0.078125 0.921875q0.09375 0.203125 0.296875 0.328125q0.203125 0.125 0.578125 0.125q0.265625 0 0.734375 -0.078125z" fill-rule="nonzero"></path><path fill="#000000" fill-opacity="0.0" d="m846.7664 380.32602l16.955444 0l0 -43.02362l18.85559 0" fill-rule="evenodd"></path><path stroke="#595959" stroke-width="1.0" stroke-linejoin="round" stroke-linecap="butt" d="m846.7664 380.326l16.955444 0l0 -43.02359l12.855591 0" fill-rule="evenodd"></path><path fill="#595959" stroke="#595959" stroke-width="1.0" stroke-linecap="butt" d="m876.57745 338.95413l4.538086 -1.6517334l-4.538086 -1.6517334z" fill-rule="evenodd"></path><path fill="#000000" fill-opacity="0.0" d="m819.50854 321.57043l29.795288 0l0 25.51181l-29.795288 0z" fill-rule="evenodd"></path><path fill="#000000" d="m831.3523 339.95108l0.125 0.84375q-0.40625 0.09375 -0.71875 0.09375q-0.53125 0 -0.828125 -0.171875q-0.28125 -0.171875 -0.40625 -0.4375q-0.109375 -0.265625 -0.109375 -1.140625l0 -3.28125l-0.71875 0l0 -0.75l0.71875 0l0 -1.40625l0.953125 -0.59375l0 2.0l0.984375 0l0 0.75l-0.984375 0l0 3.34375q0 0.40625 0.046875 0.53125q0.0625 0.109375 0.171875 0.1875q0.125 0.0625 0.328125 0.0625q0.171875 0 0.4375 -0.03125z" fill-rule="nonzero"></path><path fill="#000000" fill-opacity="0.0" d="m100.83727 337.31235l10.789993 0l0 35.968506l21.084023 0" fill-rule="evenodd"></path><path stroke="#595959" stroke-width="1.0" stroke-linejoin="round" stroke-linecap="butt" d="m100.83727 337.31235l10.789993 0l0 35.968506l15.0840225 0" fill-rule="evenodd"></path><path fill="#595959" stroke="#595959" stroke-width="1.0" stroke-linecap="butt" d="m126.71129 374.9326l4.538101 -1.6517334l-4.538101 -1.6517334z" fill-rule="evenodd"></path><path fill="#000000" fill-opacity="0.0" d="m132.71527 373.28665l57.669296 -23.779541" fill-rule="evenodd"></path><path stroke="#595959" stroke-width="1.0" stroke-linejoin="round" stroke-linecap="butt" d="m132.71527 373.28665l52.122345 -21.49228" fill-rule="evenodd"></path><path fill="#595959" stroke="#595959" stroke-width="1.0" stroke-linecap="butt" d="m185.46727 353.32138l3.5657654 -3.256958l-4.8250732 0.2029419z" fill-rule="evenodd"></path><path fill="#000000" fill-opacity="0.0" d="m132.71527 373.28665l57.669296 23.77951" fill-rule="evenodd"></path><path stroke="#595959" stroke-width="1.0" stroke-linejoin="round" stroke-linecap="butt" d="m132.71527 373.28665l52.122345 21.49231" fill-rule="evenodd"></path><path fill="#595959" stroke="#595959" stroke-width="1.0" stroke-linecap="butt" d="m184.20796 396.30597l4.8250732 0.2029419l-3.5657654 -3.256958z" fill-rule="evenodd"></path><path fill="#fff2cc" d="m357.1706 207.20735l313.60632 0l0 237.92125l-313.60632 0z" fill-rule="evenodd"></path><path stroke="#595959" stroke-width="1.0" stroke-linejoin="round" stroke-linecap="butt" d="m357.1706 207.20735l313.60632 0l0 237.92125l-313.60632 0z" fill-rule="evenodd"></path><path fill="#000000" d="m368.71747 425.5405l2.734375 0l-1.28125 6.09375q-0.125 0.59375 0.09375 0.859375q0.21875 0.265625 0.6875 0.265625q0.453125 0 1.078125 -0.265625l0.09375 0.6875q-0.390625 0.125 -0.734375 0.21875q-0.34375 0.09375 -0.78125 0.09375q-0.859375 0 -1.203125 -0.484375q-0.34375 -0.484375 -0.140625 -1.4375l1.125 -5.296875l-1.828125 0l0.15625 -0.734375zm5.1750793 5.171875q0.140625 -0.671875 0.46875 -1.1875q0.34375 -0.515625 0.796875 -0.875q0.46875 -0.375 1.0 -0.5625q0.53125 -0.203125 1.046875 -0.203125q0.578125 0 0.984375 0.1875q0.421875 0.1875 0.65625 0.515625q0.25 0.328125 0.3125 0.796875q0.0625 0.453125 -0.0625 1.015625q-0.03125 0.140625 -0.0625 0.28125q-0.03125 0.140625 -0.078125 0.234375l-4.1875 0q-0.0625 0.421875 0.015625 0.765625q0.09375 0.34375 0.3125 0.59375q0.21875 0.234375 0.546875 0.375q0.34375 0.125 0.78125 0.125q0.484375 0 0.90625 -0.125q0.421875 -0.140625 0.84375 -0.375l0.1875 0.59375q-0.453125 0.265625 -1.0 0.453125q-0.546875 0.171875 -1.203125 0.171875q-0.59375 0 -1.078125 -0.1875q-0.484375 -0.1875 -0.796875 -0.546875q-0.3125 -0.359375 -0.421875 -0.875q-0.109375 -0.515625 0.03125 -1.171875zm4.40625 -0.453125q0.171875 -0.796875 -0.15625 -1.21875q-0.328125 -0.4375 -1.078125 -0.4375q-0.328125 0 -0.65625 0.109375q-0.328125 0.109375 -0.625 0.328125q-0.28125 0.21875 -0.515625 0.53125q-0.21875 0.296875 -0.359375 0.6875l3.390625 0zm8.300049 -3.859375q-0.3125 -0.15625 -0.578125 -0.203125q-0.265625 -0.0625 -0.625 -0.0625q-0.71875 0 -1.125 0.375q-0.390625 0.375 -0.53125 1.03125l-0.09375 0.484375l2.25 0l-0.15625 0.734375l-2.25 0l-0.984375 4.609375l-0.890625 0l0.984375 -4.609375l-1.515625 0l0.140625 -0.6875l1.53125 -0.046875l0.09375 -0.453125q0.203125 -0.984375 0.84375 -1.578125q0.65625 -0.59375 1.765625 -0.59375q0.796875 0 1.484375 0.3125l-0.34375 0.6875zm2.0032043 2.359375l-1.5 0l0.140625 -0.6875l1.546875 -0.046875l0.4375 -1.5l0.75 0l-0.3125 1.5l2.625 0l-0.15625 0.734375l-2.625 0l-0.546875 2.546875q-0.078125 0.359375 -0.078125 0.625q0.015625 0.265625 0.125 0.453125q0.125 0.1875 0.359375 0.28125q0.25 0.09375 0.625 0.09375q0.390625 0 0.703125 -0.0625q0.328125 -0.0625 0.640625 -0.171875l0.0625 0.65625q-0.390625 0.125 -0.859375 0.21875q-0.453125 0.09375 -0.890625 0.09375q-0.59375 0 -0.953125 -0.15625q-0.34375 -0.15625 -0.53125 -0.4375q-0.1875 -0.296875 -0.203125 -0.703125q-0.015625 -0.40625 0.09375 -0.90625l0.546875 -2.53125z" fill-rule="nonzero"></path><path fill="#ead1dc" d="m394.1286 215.23097l228.15747 0l0 158.04726l-228.15747 0z" fill-rule="evenodd"></path><path stroke="#595959" stroke-width="1.0" stroke-linejoin="round" stroke-linecap="butt" d="m394.1286 215.23097l228.15747 0l0 158.04726l-228.15747 0z" fill-rule="evenodd"></path><path fill="#000000" d="m404.34735 358.86197q0.140625 -0.65625 0.453125 -1.171875q0.3125 -0.53125 0.71875 -0.890625q0.421875 -0.359375 0.90625 -0.5625q0.5 -0.203125 0.96875 -0.203125q0.5 0 0.828125 0.1875q0.328125 0.1875 0.625 0.515625l0.1875 -1.0l0.421875 -2.046875l0.90625 0l-1.65625 7.828125l-0.75 0l0.078125 -0.703125l-0.03125 0q-0.40625 0.34375 -0.921875 0.59375q-0.515625 0.234375 -1.0 0.234375q-0.53125 0 -0.921875 -0.171875q-0.375 -0.1875 -0.609375 -0.546875q-0.234375 -0.359375 -0.296875 -0.875q-0.046875 -0.515625 0.09375 -1.1875zm0.9375 -0.015625q-0.203125 0.96875 0.09375 1.515625q0.3125 0.53125 1.0625 0.53125q0.78125 0 1.671875 -0.8125l0.5625 -2.65625q-0.296875 -0.34375 -0.609375 -0.484375q-0.3125 -0.140625 -0.671875 -0.140625q-0.34375 0 -0.6875 0.15625q-0.328125 0.140625 -0.609375 0.40625q-0.28125 0.265625 -0.5 0.640625q-0.203125 0.375 -0.3125 0.84375zm6.3625793 -2.671875l3.390625 0l-1.140625 5.34375l-0.90625 0l0.984375 -4.609375l-2.484375 0l0.15625 -0.734375zm3.078125 -1.109375q-0.3125 0 -0.484375 -0.171875q-0.15625 -0.1875 -0.09375 -0.515625q0.0625 -0.3125 0.3125 -0.5q0.25 -0.203125 0.5625 -0.203125q0.3125 0 0.46875 0.203125q0.15625 0.1875 0.09375 0.5q-0.0625 0.328125 -0.3125 0.515625q-0.234375 0.171875 -0.546875 0.171875zm2.9875488 1.109375l0.703125 0l-0.078125 0.703125l0.03125 0q0.28125 -0.375 0.609375 -0.609375q0.328125 -0.234375 0.78125 -0.234375q0.8125 0 0.8125 0.9375q0.328125 -0.421875 0.671875 -0.671875q0.34375 -0.265625 0.796875 -0.265625q0.5625 0 0.765625 0.4375q0.203125 0.421875 0.03125 1.21875l-0.8125 3.828125l-0.859375 0l0.796875 -3.75q0.203125 -0.953125 -0.390625 -0.953125q-0.28125 0 -0.546875 0.203125q-0.25 0.203125 -0.53125 0.625l-0.828125 3.875l-0.71875 0l0.796875 -3.75q0.203125 -0.953125 -0.40625 -0.953125q-0.28125 0 -0.53125 0.203125q-0.25 0.203125 -0.53125 0.625l-0.828125 3.875l-0.875 0l1.140625 -5.34375zm5.7844543 3.953125q0.09375 -0.453125 0.375 -0.78125q0.28125 -0.34375 0.796875 -0.578125q0.53125 -0.234375 1.296875 -0.390625q0.78125 -0.15625 1.828125 -0.25q0.046875 -0.265625 0.015625 -0.5q-0.03125 -0.25 -0.15625 -0.4375q-0.125 -0.1875 -0.375 -0.296875q-0.234375 -0.109375 -0.625 -0.109375q-0.53125 0 -1.0625 0.203125q-0.515625 0.203125 -0.9375 0.4375l-0.21875 -0.609375q0.21875 -0.140625 0.515625 -0.265625q0.3125 -0.140625 0.625 -0.25q0.328125 -0.109375 0.6875 -0.1875q0.359375 -0.078125 0.71875 -0.078125q1.09375 0 1.5 0.609375q0.40625 0.59375 0.203125 1.59375l-0.703125 3.28125l-0.75 0l0.078125 -0.71875l-0.03125 0q-0.53125 0.34375 -1.125 0.59375q-0.59375 0.25 -1.171875 0.25q-0.375 0 -0.6875 -0.109375q-0.296875 -0.09375 -0.515625 -0.28125q-0.203125 -0.203125 -0.28125 -0.46875q-0.078125 -0.28125 0 -0.65625zm0.890625 -0.0625q-0.046875 0.234375 0.015625 0.390625q0.0625 0.15625 0.1875 0.265625q0.140625 0.109375 0.34375 0.15625q0.21875 0.046875 0.453125 0.046875q0.453125 0 0.9375 -0.203125q0.5 -0.203125 1.046875 -0.59375l0.296875 -1.40625q-0.875 0.0625 -1.484375 0.1875q-0.59375 0.125 -0.984375 0.296875q-0.375 0.171875 -0.578125 0.390625q-0.1875 0.203125 -0.234375 0.46875zm6.143799 1.90625l-0.390625 1.796875l-0.90625 0l1.625 -7.59375l0.75 0l-0.078125 0.6875l0.03125 0q0.453125 -0.359375 1.0 -0.59375q0.546875 -0.234375 1.046875 -0.234375q0.53125 0 0.890625 0.203125q0.375 0.1875 0.578125 0.546875q0.21875 0.359375 0.25 0.859375q0.03125 0.5 -0.109375 1.125q-0.140625 0.6875 -0.453125 1.21875q-0.296875 0.53125 -0.71875 0.90625q-0.421875 0.375 -0.90625 0.5625q-0.46875 0.1875 -0.953125 0.1875q-0.375 0 -0.78125 -0.171875q-0.390625 -0.1875 -0.671875 -0.515625l-0.203125 1.015625zm0.359375 -1.703125q0.3125 0.34375 0.671875 0.484375q0.359375 0.140625 0.640625 0.140625q0.71875 0 1.296875 -0.5625q0.578125 -0.5625 0.78125 -1.5625q0.09375 -0.4375 0.078125 -0.796875q0 -0.375 -0.125 -0.625q-0.125 -0.265625 -0.390625 -0.40625q-0.25 -0.140625 -0.640625 -0.140625q-0.359375 0 -0.796875 0.203125q-0.4375 0.1875 -0.953125 0.59375l-0.5625 2.671875z" fill-rule="nonzero"></path><path fill="#000000" d="m443.39774 363.28384l-0.8125 0l3.609375 -9.578125l0.8125 0l-3.609375 9.578125zm13.287628 -6.5625q0 -0.40625 0.25 -0.671875q0.265625 -0.265625 0.640625 -0.265625q0.375 0 0.625 0.265625q0.265625 0.265625 0.265625 0.671875q0 0.421875 -0.265625 0.671875q-0.25 0.25 -0.625 0.25q-0.375 0 -0.640625 -0.25q-0.25 -0.25 -0.25 -0.671875zm0 4.0q0 -0.40625 0.25 -0.671875q0.265625 -0.265625 0.640625 -0.265625q0.375 0 0.625 0.265625q0.265625 0.265625 0.265625 0.671875q0 0.421875 -0.265625 0.671875q-0.25 0.25 -0.625 0.25q-0.375 0 -0.640625 -0.25q-0.25 -0.25 -0.25 -0.671875z" fill-rule="nonzero"></path><path fill="#000000" fill-opacity="0.0" d="m390.0 405.3491l251.59058 1.5433044" fill-rule="evenodd"></path><path stroke="#595959" stroke-width="1.0" stroke-linejoin="round" stroke-linecap="butt" d="m393.78995 405.37234l244.01065 1.4967957" fill-rule="evenodd"></path><path fill="#595959" stroke="#595959" stroke-width="1.0" stroke-linecap="butt" d="m390.5 405.35214c0.005554199 -0.9084778 0.7465515 -1.6404419 1.6550598 -1.6348572c0.9084778 0.005554199 1.6404419 0.7465515 1.6348572 1.6550293c-0.005554199 0.9085083 -0.7465515 1.6404724 -1.6550598 1.6348877c-0.9084778 -0.005554199 -1.6404419 -0.7465515 -1.6348572 -1.6550598z" fill-rule="nonzero"></path><path fill="#595959" stroke="#595959" stroke-width="1.0" stroke-linecap="butt" d="m641.0906 406.8893c-0.0056152344 0.9085083 -0.74658203 1.6404724 -1.6550903 1.6348877c-0.90844727 -0.005584717 -1.6404419 -0.74658203 -1.6348877 -1.6550598c0.0056152344 -0.9084778 0.74658203 -1.6404419 1.6550903 -1.6348877c0.9085083 0.005584717 1.6404419 0.74658203 1.6348877 1.6550598z" fill-rule="nonzero"></path><path fill="#000000" fill-opacity="0.0" d="m366.7716 319.20868l18.582672 -39.748047" fill-rule="evenodd"></path><path stroke="#595959" stroke-width="1.0" stroke-linejoin="round" stroke-linecap="butt" stroke-dasharray="1.0,3.0" d="m366.7716 319.20868l16.97757 -36.314697" fill-rule="evenodd"></path><path fill="#595959" stroke="#595959" stroke-width="1.0" stroke-linecap="butt" d="m385.14255 279.9136c0.82299805 0.38476562 1.1782532 1.3638611 0.79348755 2.1868591c-0.38476562 0.82299805 -1.3638611 1.1782837 -2.1868591 0.79351807c-0.82299805 -0.38476562 -1.1782837 -1.3638611 -0.79351807 -2.1868896c0.38476562 -0.82299805 1.3638611 -1.1782532 2.1868896 -0.79348755z" fill-rule="nonzero"></path><path fill="#000000" fill-opacity="0.0" d="m337.78882 319.71738l32.944885 -0.18899536" fill-rule="evenodd"></path><path stroke="#595959" stroke-width="1.0" stroke-linejoin="round" stroke-linecap="butt" d="m337.78882 319.71735l29.154907 -0.16723633" fill-rule="evenodd"></path><path fill="#595959" stroke="#595959" stroke-width="1.0" stroke-linecap="butt" d="m370.23367 319.53125c0.005218506 0.9084778 -0.72702026 1.6492004 -1.6355286 1.654419c-0.9084778 0.0051879883 -1.6492004 -0.7270508 -1.654419 -1.6355591c-0.0051879883 -0.9084778 0.7270508 -1.6492004 1.6355591 -1.6543884c0.9084778 -0.005218506 1.6492004 0.72702026 1.6543884 1.6355286z" fill-rule="nonzero"></path><path fill="#000000" fill-opacity="0.0" d="m650.68243 319.88452l40.724365 -0.34646606" fill-rule="evenodd"></path><path stroke="#595959" stroke-width="1.0" stroke-linejoin="round" stroke-linecap="butt" d="m654.4723 319.8523l30.934753 -0.2632141" fill-rule="evenodd"></path><path fill="#595959" stroke="#595959" stroke-width="1.0" stroke-linecap="butt" d="m651.1824 319.88025c-0.0076904297 -0.9084778 0.72247314 -1.6511841 1.6309814 -1.6589355c0.90844727 -0.0077209473 1.6511841 0.72247314 1.6589355 1.6309509c0.0076904297 0.9084778 -0.72247314 1.6512146 -1.6309814 1.6589355c-0.90844727 0.0077209473 -1.6511841 -0.72247314 -1.6589355 -1.6309509z" fill-rule="nonzero"></path><path fill="#595959" stroke="#595959" stroke-width="1.0" stroke-linecap="butt" d="m685.4211 321.24078l4.5238647 -1.6902771l-4.551941 -1.6130676z" fill-rule="evenodd"></path><path fill="#000000" fill-opacity="0.0" d="m637.1182 280.79095l17.543274 41.228333" fill-rule="evenodd"></path><path stroke="#595959" stroke-width="1.0" stroke-linejoin="round" stroke-linecap="butt" stroke-dasharray="1.0,3.0" d="m637.1182 280.79095l17.543274 41.228333" fill-rule="evenodd"></path><path fill="#000000" fill-opacity="0.0" d="m613.11975 281.61313l27.086609 -0.09448242" fill-rule="evenodd"></path><path stroke="#595959" stroke-width="1.0" stroke-linejoin="round" stroke-linecap="butt" d="m613.11975 281.61313l23.29663 -0.08126831" fill-rule="evenodd"></path><path fill="#595959" stroke="#595959" stroke-width="1.0" stroke-linecap="butt" d="m639.70636 281.5204c0.0031738281 0.9085083 -0.7307129 1.6475525 -1.6392212 1.6507263c-0.9085083 0.0031738281 -1.647583 -0.7307434 -1.6507568 -1.6392517c-0.0031738281 -0.9085083 0.7307739 -1.6475525 1.6392822 -1.6507263c0.9085083 -0.0031738281 1.647522 0.7307434 1.6506958 1.6392517z" fill-rule="nonzero"></path><path fill="#ffffff" d="m412.9406 282.4455l0 0c0 -11.880646 9.624115 -21.51181 21.496063 -21.51181l0 0c5.701111 0 11.168701 2.2664185 15.200012 6.300659c4.0312805 4.0342407 6.296051 9.505859 6.296051 15.211151l0 0c0 11.880646 -9.624115 21.51181 -21.496063 21.51181l0 0c-11.871948 0 -21.496063 -9.631165 -21.496063 -21.51181z" fill-rule="evenodd"></path><path stroke="#595959" stroke-width="1.0" stroke-linejoin="round" stroke-linecap="butt" d="m412.9406 282.4455l0 0c0 -11.880646 9.624115 -21.51181 21.496063 -21.51181l0 0c5.701111 0 11.168701 2.2664185 15.200012 6.300659c4.0312805 4.0342407 6.296051 9.505859 6.296051 15.211151l0 0c0 11.880646 -9.624115 21.51181 -21.496063 21.51181l0 0c-11.871948 0 -21.496063 -9.631165 -21.496063 -21.51181z" fill-rule="evenodd"></path><path fill="#000000" d="m433.41165 287.9511l-1.359375 0l3.625 -9.578125l1.34375 0l-3.609375 9.578125z" fill-rule="nonzero"></path><path fill="#ffffff" d="m565.8127 281.61313l0 0c0 -13.124359 10.590027 -23.763763 23.653503 -23.763763l0 0c6.2733154 0 12.289734 2.503662 16.725586 6.9602356c4.435913 4.4565735 6.9279785 10.500977 6.9279785 16.803528l0 0c0 13.12439 -10.590027 23.763794 -23.653564 23.763794l0 0c-13.063477 0 -23.653503 -10.639404 -23.653503 -23.763794z" fill-rule="evenodd"></path><path stroke="#595959" stroke-width="1.0" stroke-linejoin="round" stroke-linecap="butt" d="m565.8127 281.61313l0 0c0 -13.124359 10.590027 -23.763763 23.653503 -23.763763l0 0c6.2733154 0 12.289734 2.503662 16.725586 6.9602356c4.435913 4.4565735 6.9279785 10.500977 6.9279785 16.803528l0 0c0 13.12439 -10.590027 23.763794 -23.653564 23.763794l0 0c-13.063477 0 -23.653503 -10.639404 -23.653503 -23.763794z" fill-rule="evenodd"></path><path fill="#000000" d="m588.30054 280.19687q0 -0.28125 0.09375 -0.515625q0.09375 -0.234375 0.25 -0.40625q0.171875 -0.171875 0.40625 -0.265625q0.234375 -0.109375 0.515625 -0.109375q0.296875 0 0.53125 0.109375q0.234375 0.09375 0.390625 0.265625q0.171875 0.171875 0.265625 0.40625q0.09375 0.234375 0.09375 0.515625q0 0.546875 -0.359375 0.921875q-0.34375 0.359375 -0.921875 0.359375q-0.5625 0 -0.921875 -0.359375q-0.34375 -0.375 -0.34375 -0.921875zm0 4.0q0 -0.28125 0.09375 -0.515625q0.09375 -0.234375 0.25 -0.40625q0.171875 -0.171875 0.40625 -0.265625q0.234375 -0.109375 0.515625 -0.109375q0.296875 0 0.53125 0.109375q0.234375 0.09375 0.390625 0.265625q0.171875 0.171875 0.265625 0.40625q0.09375 0.234375 0.09375 0.515625q0 0.546875 -0.359375 0.921875q-0.34375 0.359375 -0.921875 0.359375q-0.5625 0 -0.921875 -0.359375q-0.34375 -0.375 -0.34375 -0.921875z" fill-rule="nonzero"></path><path fill="#eeeeee" d="m465.3491 220.0578l90.86612 0l0 144.22046l-90.86612 0z" fill-rule="evenodd"></path><path stroke="#595959" stroke-width="1.0" stroke-linejoin="round" stroke-linecap="butt" d="m465.3491 220.0578l90.86612 0l0 144.22046l-90.86612 0z" fill-rule="evenodd"></path><path fill="#000000" d="m476.17722 352.9714l-0.390625 1.796875l-0.90625 0l1.625 -7.59375l0.75 0l-0.078125 0.6875l0.03125 0q0.453125 -0.359375 1.0 -0.59375q0.546875 -0.234375 1.046875 -0.234375q0.53125 0 0.890625 0.203125q0.375 0.1875 0.578125 0.546875q0.21875 0.359375 0.25 0.859375q0.03125 0.5 -0.109375 1.125q-0.140625 0.6875 -0.453125 1.21875q-0.296875 0.53125 -0.71875 0.90625q-0.421875 0.375 -0.90625 0.5625q-0.46875 0.1875 -0.953125 0.1875q-0.375 0 -0.78125 -0.171875q-0.390625 -0.1875 -0.671875 -0.515625l-0.203125 1.015625zm0.359375 -1.703125q0.3125 0.34375 0.671875 0.484375q0.359375 0.140625 0.640625 0.140625q0.71875 0 1.296875 -0.5625q0.578125 -0.5625 0.78125 -1.5625q0.09375 -0.4375 0.078125 -0.796875q0 -0.375 -0.125 -0.625q-0.125 -0.265625 -0.390625 -0.40625q-0.25 -0.140625 -0.640625 -0.140625q-0.359375 0 -0.796875 0.203125q-0.4375 0.1875 -0.953125 0.59375l-0.5625 2.671875zm5.393799 -0.140625q0.09375 -0.453125 0.375 -0.78125q0.28125 -0.34375 0.796875 -0.578125q0.53125 -0.234375 1.296875 -0.390625q0.78125 -0.15625 1.828125 -0.25q0.046875 -0.265625 0.015625 -0.5q-0.03125 -0.25 -0.15625 -0.4375q-0.125 -0.1875 -0.375 -0.296875q-0.234375 -0.109375 -0.625 -0.109375q-0.53125 0 -1.0625 0.203125q-0.515625 0.203125 -0.9375 0.4375l-0.21875 -0.609375q0.21875 -0.140625 0.515625 -0.265625q0.3125 -0.140625 0.625 -0.25q0.328125 -0.109375 0.6875 -0.1875q0.359375 -0.078125 0.71875 -0.078125q1.09375 0 1.5 0.609375q0.40625 0.59375 0.203125 1.59375l-0.703125 3.28125l-0.75 0l0.078125 -0.71875l-0.03125 0q-0.53125 0.34375 -1.125 0.59375q-0.59375 0.25 -1.171875 0.25q-0.375 0 -0.6875 -0.109375q-0.296875 -0.09375 -0.515625 -0.28125q-0.203125 -0.203125 -0.28125 -0.46875q-0.078125 -0.28125 0 -0.65625zm0.890625 -0.0625q-0.046875 0.234375 0.015625 0.390625q0.0625 0.15625 0.1875 0.265625q0.140625 0.109375 0.34375 0.15625q0.21875 0.046875 0.453125 0.046875q0.453125 0 0.9375 -0.203125q0.5 -0.203125 1.046875 -0.59375l0.296875 -1.40625q-0.875 0.0625 -1.484375 0.1875q-0.59375 0.125 -0.984375 0.296875q-0.375 0.171875 -0.578125 0.390625q-0.1875 0.203125 -0.234375 0.46875zm7.0657043 -3.890625l0.75 0l-0.203125 1.265625l0.03125 0q0.546875 -0.65625 1.25 -1.03125q0.703125 -0.375 1.4375 -0.375q0.296875 0 0.53125 0.0625q0.25 0.046875 0.484375 0.15625l-0.375 0.78125q-0.28125 -0.09375 -0.46875 -0.125q-0.171875 -0.046875 -0.5 -0.046875q-0.59375 0 -1.234375 0.34375q-0.625 0.34375 -1.265625 1.171875l-0.671875 3.140625l-0.90625 0l1.140625 -5.34375z" fill-rule="nonzero"></path><path fill="#cfe2f3" d="m477.90814 247.42783l67.55902 0l0 20.188965l-67.55902 0z" fill-rule="evenodd"></path><path stroke="#595959" stroke-width="1.0" stroke-linejoin="round" stroke-linecap="butt" d="m477.90814 247.42783l67.55902 0l0 20.188965l-67.55902 0z" fill-rule="evenodd"></path><path fill="#000000" d="m509.8658 254.59294l1.171875 0l0 1.375l-0.0625 0.76560974q0.125 -0.109375 0.265625 -0.21875q0.140625 -0.109375 0.296875 -0.1875q0.171875 -0.09375 0.359375 -0.140625q0.20315552 -0.046875 0.42190552 -0.046875q0.671875 0 0.96875 0.4375q0.3125 0.421875 0.3125 1.171875l0 2.453125l-1.171875 0l0 -2.296875q0 -0.40625 -0.125 -0.578125q-0.125 -0.1875 -0.45315552 -0.1875q-0.25 0 -0.4375 0.109375q-0.171875 0.09375 -0.375 0.3125l0 2.640625l-1.171875 0l0 -5.6093597z" fill-rule="nonzero"></path><path fill="#fff2cc" d="m477.90814 284.6509l67.55902 0l0 54.992126l-67.55902 0z" fill-rule="evenodd"></path><path stroke="#595959" stroke-width="1.0" stroke-linejoin="round" stroke-linecap="butt" d="m477.90814 284.6509l67.55902 0l0 54.992126l-67.55902 0z" fill-rule="evenodd"></path><path fill="#000000" d="m505.2721 319.067l0 -2.609375l2.609375 0l0 2.609375l-2.609375 0zm5.1832886 0l0 -2.609375l2.609375 0l0 2.609375l-2.609375 0zm5.1832886 0l0 -2.609375l2.609375 0l0 2.609375l-2.609375 0z" fill-rule="nonzero"></path><path fill="#000000" fill-opacity="0.0" d="m384.40518 282.57147l28.53543 -0.12597656" fill-rule="evenodd"></path><path stroke="#595959" stroke-width="1.0" stroke-linejoin="round" stroke-linecap="butt" d="m384.40518 282.57147l22.535461 -0.099487305" fill-rule="evenodd"></path><path fill="#595959" stroke="#595959" stroke-width="1.0" stroke-linecap="butt" d="m406.94797 284.12372l4.5307617 -1.6717529l-4.545349 -1.6316833z" fill-rule="evenodd"></path><path fill="#000000" fill-opacity="0.0" d="m449.6367 267.23434l0 -9.700775l28.283447 0" fill-rule="evenodd"></path><path stroke="#595959" stroke-width="1.0" stroke-linejoin="round" stroke-linecap="butt" d="m449.6367 267.23434l0 -9.700806l22.283478 0" fill-rule="evenodd"></path><path fill="#595959" stroke="#595959" stroke-width="1.0" stroke-linecap="butt" d="m471.92017 259.18527l4.538086 -1.6517334l-4.538086 -1.6517181z" fill-rule="evenodd"></path><path fill="#000000" fill-opacity="0.0" d="m449.6367 297.65665l0 14.48819l28.283447 0" fill-rule="evenodd"></path><path stroke="#595959" stroke-width="1.0" stroke-linejoin="round" stroke-linecap="butt" d="m449.6367 297.65665l0 14.48819l22.283478 0" fill-rule="evenodd"></path><path fill="#595959" stroke="#595959" stroke-width="1.0" stroke-linecap="butt" d="m471.92017 313.79657l4.538086 -1.6517334l-4.538086 -1.6517334z" fill-rule="evenodd"></path><path fill="#000000" fill-opacity="0.0" d="m545.46716 257.5223l27.275635 0l0 7.2756042" fill-rule="evenodd"></path><path stroke="#595959" stroke-width="1.0" stroke-linejoin="round" stroke-linecap="butt" d="m545.46716 257.5223l27.275635 0l0 1.2756042" fill-rule="evenodd"></path><path fill="#595959" stroke="#595959" stroke-width="1.0" stroke-linecap="butt" d="m571.09106 258.7979l1.6517334 4.538086l1.6517334 -4.538086z" fill-rule="evenodd"></path><path fill="#000000" fill-opacity="0.0" d="m545.46716 312.14697l27.275635 0l0 -13.732269" fill-rule="evenodd"></path><path stroke="#595959" stroke-width="1.0" stroke-linejoin="round" stroke-linecap="butt" d="m545.46716 312.14697l27.275635 0l0 -7.7322693" fill-rule="evenodd"></path><path fill="#595959" stroke="#595959" stroke-width="1.0" stroke-linecap="butt" d="m574.39453 304.4147l-1.6517334 -4.5381165l-1.6517334 4.5381165z" fill-rule="evenodd"></path><path fill="#000000" fill-opacity="0.0" d="m195.05905 291.3379l29.795288 0l0 25.51181l-29.795288 0z" fill-rule="evenodd"></path><path fill="#000000" d="m204.4028 308.87476l0.953125 -0.15625q0.078125 0.578125 0.4375 0.890625q0.375 0.296875 1.03125 0.296875q0.671875 0 0.984375 -0.265625q0.328125 -0.265625 0.328125 -0.640625q0 -0.328125 -0.28125 -0.515625q-0.203125 -0.125 -0.984375 -0.328125q-1.0625 -0.265625 -1.484375 -0.453125q-0.40625 -0.203125 -0.625 -0.546875q-0.203125 -0.34375 -0.203125 -0.765625q0 -0.390625 0.171875 -0.703125q0.171875 -0.328125 0.484375 -0.546875q0.21875 -0.171875 0.609375 -0.28125q0.390625 -0.109375 0.828125 -0.109375q0.671875 0 1.171875 0.1875q0.515625 0.1875 0.75 0.53125q0.25 0.328125 0.34375 0.875l-0.9375 0.125q-0.078125 -0.4375 -0.390625 -0.671875q-0.296875 -0.25 -0.859375 -0.25q-0.671875 0 -0.953125 0.21875q-0.28125 0.21875 -0.28125 0.515625q0 0.1875 0.109375 0.328125q0.125 0.15625 0.375 0.265625q0.140625 0.046875 0.859375 0.25q1.015625 0.265625 1.421875 0.4375q0.40625 0.171875 0.640625 0.515625q0.234375 0.328125 0.234375 0.828125q0 0.484375 -0.28125 0.90625q-0.28125 0.421875 -0.8125 0.65625q-0.53125 0.234375 -1.203125 0.234375q-1.109375 0 -1.703125 -0.453125q-0.578125 -0.46875 -0.734375 -1.375z" fill-rule="nonzero"></path><path fill="#000000" fill-opacity="0.0" d="m195.05905 461.4309l29.795288 0l0 25.51181l-29.795288 0z" fill-rule="evenodd"></path><path fill="#000000" d="m204.4028 478.96777l0.953125 -0.15625q0.078125 0.578125 0.4375 0.890625q0.375 0.296875 1.03125 0.296875q0.671875 0 0.984375 -0.265625q0.328125 -0.265625 0.328125 -0.640625q0 -0.328125 -0.28125 -0.515625q-0.203125 -0.125 -0.984375 -0.328125q-1.0625 -0.265625 -1.484375 -0.453125q-0.40625 -0.203125 -0.625 -0.546875q-0.203125 -0.34375 -0.203125 -0.765625q0 -0.390625 0.171875 -0.703125q0.171875 -0.328125 0.484375 -0.546875q0.21875 -0.171875 0.609375 -0.28125q0.390625 -0.109375 0.828125 -0.109375q0.671875 0 1.171875 0.1875q0.515625 0.1875 0.75 0.53125q0.25 0.328125 0.34375 0.875l-0.9375 0.125q-0.078125 -0.4375 -0.390625 -0.671875q-0.296875 -0.25 -0.859375 -0.25q-0.671875 0 -0.953125 0.21875q-0.28125 0.21875 -0.28125 0.515625q0 0.1875 0.109375 0.328125q0.125 0.15625 0.375 0.265625q0.140625 0.046875 0.859375 0.25q1.015625 0.265625 1.421875 0.4375q0.40625 0.171875 0.640625 0.515625q0.234375 0.328125 0.234375 0.828125q0 0.484375 -0.28125 0.90625q-0.28125 0.421875 -0.8125 0.65625q-0.53125 0.234375 -1.203125 0.234375q-1.109375 0 -1.703125 -0.453125q-0.578125 -0.46875 -0.734375 -1.375z" fill-rule="nonzero"></path><path fill="#000000" fill-opacity="0.0" d="m332.7957 292.03625l31.873993 0l0 25.51181l-31.873993 0z" fill-rule="evenodd"></path><path fill="#000000" d="m342.5457 313.46375l0 -10.0625l2.125 0l0 0.796875l-1.15625 0l0 8.46875l1.15625 0l0 0.796875l-2.125 0zm6.6637573 -2.890625q-0.546875 0.453125 -1.046875 0.640625q-0.484375 0.1875 -1.0625 0.1875q-0.9375 0 -1.453125 -0.453125q-0.5 -0.46875 -0.5 -1.171875q0 -0.421875 0.1875 -0.765625q0.203125 -0.34375 0.5 -0.546875q0.3125 -0.21875 0.703125 -0.328125q0.28125 -0.078125 0.859375 -0.140625q1.171875 -0.140625 1.71875 -0.34375q0.015625 -0.1875 0.015625 -0.25q0 -0.59375 -0.28125 -0.828125q-0.359375 -0.328125 -1.09375 -0.328125q-0.6875 0 -1.015625 0.234375q-0.3125 0.234375 -0.46875 0.84375l-0.953125 -0.125q0.125 -0.609375 0.421875 -0.984375q0.296875 -0.375 0.859375 -0.5625q0.5625 -0.203125 1.296875 -0.203125q0.734375 0 1.1875 0.171875q0.453125 0.171875 0.65625 0.4375q0.21875 0.25 0.3125 0.640625q0.046875 0.25 0.046875 0.90625l0 1.28125q0 1.34375 0.0625 1.703125q0.0625 0.359375 0.25 0.6875l-1.015625 0q-0.15625 -0.296875 -0.1875 -0.703125zm-0.09375 -2.15625q-0.515625 0.21875 -1.578125 0.359375q-0.59375 0.09375 -0.84375 0.203125q-0.234375 0.09375 -0.375 0.3125q-0.140625 0.203125 -0.140625 0.453125q0 0.390625 0.296875 0.65625q0.296875 0.25 0.859375 0.25q0.5625 0 0.984375 -0.25q0.4375 -0.25 0.65625 -0.671875q0.140625 -0.328125 0.140625 -0.96875l0 -0.34375zm3.9108887 5.046875l-2.140625 0l0 -0.796875l1.171875 0l0 -8.46875l-1.171875 0l0 -0.796875l2.140625 0l0 10.0625z" fill-rule="nonzero"></path><path fill="#000000" fill-opacity="0.0" d="m502.6404 378.6404l37.88974 0l0 25.51181l-37.88974 0z" fill-rule="evenodd"></path><path fill="#000000" d="m512.3904 400.06793l0 -10.0625l2.125 0l0 0.796875l-1.15625 0l0 8.46875l1.15625 0l0 0.796875l-2.125 0zm7.5150757 0l-2.140625 0l0 -0.796875l1.171875 0l0 -8.46875l-1.171875 0l0 -0.796875l2.140625 0l0 10.0625z" fill-rule="nonzero"></path><path fill="#000000" fill-opacity="0.0" d="m356.0835 251.33858l48.91339 0l0 25.511826l-48.91339 0z" fill-rule="evenodd"></path><path fill="#000000" d="m369.53662 269.87546q-0.546875 0.453125 -1.046875 0.640625q-0.484375 0.1875 -1.0625 0.1875q-0.9375 0 -1.453125 -0.453125q-0.5 -0.46875 -0.5 -1.171875q0 -0.421875 0.1875 -0.765625q0.203125 -0.34375 0.5 -0.546875q0.3125 -0.21875 0.703125 -0.328125q0.28125 -0.078125 0.859375 -0.140625q1.171875 -0.140625 1.71875 -0.34375q0.015625 -0.1875 0.015625 -0.25q0 -0.59375 -0.28125 -0.828125q-0.359375 -0.328125 -1.09375 -0.328125q-0.6875 0 -1.015625 0.234375q-0.3125 0.234375 -0.46875 0.84375l-0.953125 -0.125q0.125 -0.609375 0.421875 -0.984375q0.296875 -0.375 0.859375 -0.5625q0.5625 -0.203125 1.296875 -0.203125q0.734375 0 1.1875 0.171875q0.453125 0.171875 0.65625 0.4375q0.21875 0.25 0.3125 0.640625q0.046875 0.25 0.046875 0.90625l0 1.28125q0 1.34375 0.0625 1.703125q0.0625 0.359375 0.25 0.6875l-1.015625 0q-0.15625 -0.296875 -0.1875 -0.703125zm-0.09375 -2.15625q-0.515625 0.21875 -1.578125 0.359375q-0.59375 0.09375 -0.84375 0.203125q-0.234375 0.09375 -0.375 0.3125q-0.140625 0.203125 -0.140625 0.453125q0 0.390625 0.296875 0.65625q0.296875 0.25 0.859375 0.25q0.5625 0 0.984375 -0.25q0.4375 -0.25 0.65625 -0.671875q0.140625 -0.328125 0.140625 -0.96875l0 -0.34375zm5.527771 -1.75l0 -1.09375l1.09375 0l0 1.09375l-1.09375 0zm0 4.609375l0 -1.09375l1.09375 0l0 1.09375l-1.09375 0zm5.671295 2.1875l0 -10.0625l2.125 0l0 0.796875l-1.15625 0l0 8.46875l1.15625 0l0 0.796875l-2.125 0zm6.663788 -2.890625q-0.546875 0.453125 -1.046875 0.640625q-0.484375 0.1875 -1.0625 0.1875q-0.9375 0 -1.453125 -0.453125q-0.5 -0.46875 -0.5 -1.171875q0 -0.421875 0.1875 -0.765625q0.203125 -0.34375 0.5 -0.546875q0.3125 -0.21875 0.703125 -0.328125q0.28125 -0.078125 0.859375 -0.140625q1.171875 -0.140625 1.71875 -0.34375q0.015625 -0.1875 0.015625 -0.25q0 -0.59375 -0.28125 -0.828125q-0.359375 -0.328125 -1.09375 -0.328125q-0.6875 0 -1.015625 0.234375q-0.3125 0.234375 -0.46875 0.84375l-0.953125 -0.125q0.125 -0.609375 0.421875 -0.984375q0.296875 -0.375 0.859375 -0.5625q0.5625 -0.203125 1.296875 -0.203125q0.734375 0 1.1875 0.171875q0.453125 0.171875 0.65625 0.4375q0.21875 0.25 0.3125 0.640625q0.046875 0.25 0.046875 0.90625l0 1.28125q0 1.34375 0.0625 1.703125q0.0625 0.359375 0.25 0.6875l-1.015625 0q-0.15625 -0.296875 -0.1875 -0.703125zm-0.09375 -2.15625q-0.515625 0.21875 -1.578125 0.359375q-0.59375 0.09375 -0.84375 0.203125q-0.234375 0.09375 -0.375 0.3125q-0.140625 0.203125 -0.140625 0.453125q0 0.390625 0.296875 0.65625q0.296875 0.25 0.859375 0.25q0.5625 0 0.984375 -0.25q0.4375 -0.25 0.65625 -0.671875q0.140625 -0.328125 0.140625 -0.96875l0 -0.34375zm3.9108582 5.046875l-2.140625 0l0 -0.796875l1.171875 0l0 -8.46875l-1.171875 0l0 -0.796875l2.140625 0l0 10.0625z" fill-rule="nonzero"></path><path fill="#000000" fill-opacity="0.0" d="m442.3614 229.43091l29.795258 0l0 25.51181l-29.795258 0z" fill-rule="evenodd"></path><path fill="#000000" d="m455.8145 247.96779q-0.546875 0.453125 -1.046875 0.640625q-0.484375 0.1875 -1.0625 0.1875q-0.9375 0 -1.453125 -0.453125q-0.5 -0.46875 -0.5 -1.171875q0 -0.421875 0.1875 -0.765625q0.203125 -0.34375 0.5 -0.546875q0.3125 -0.21875 0.703125 -0.328125q0.28125 -0.078125 0.859375 -0.140625q1.171875 -0.140625 1.71875 -0.34375q0.015625 -0.1875 0.015625 -0.25q0 -0.59375 -0.28125 -0.828125q-0.359375 -0.328125 -1.09375 -0.328125q-0.6875 0 -1.015625 0.234375q-0.3125 0.234375 -0.46875 0.84375l-0.953125 -0.125q0.125 -0.609375 0.421875 -0.984375q0.296875 -0.375 0.859375 -0.5625q0.5625 -0.203125 1.296875 -0.203125q0.734375 0 1.1875 0.171875q0.453125 0.171875 0.65625 0.4375q0.21875 0.25 0.3125 0.640625q0.046875 0.25 0.046875 0.90625l0 1.28125q0 1.34375 0.0625 1.703125q0.0625 0.359375 0.25 0.6875l-1.015625 0q-0.15625 -0.296875 -0.1875 -0.703125zm-0.09375 -2.15625q-0.515625 0.21875 -1.578125 0.359375q-0.59375 0.09375 -0.84375 0.203125q-0.234375 0.09375 -0.375 0.3125q-0.140625 0.203125 -0.140625 0.453125q0 0.390625 0.296875 0.65625q0.296875 0.25 0.859375 0.25q0.5625 0 0.984375 -0.25q0.4375 -0.25 0.65625 -0.671875q0.140625 -0.328125 0.140625 -0.96875l0 -0.34375z" fill-rule="nonzero"></path><path fill="#000000" fill-opacity="0.0" d="m440.26984 303.85022l32.944885 0l0 25.51181l-32.944885 0z" fill-rule="evenodd"></path><path fill="#000000" d="m450.01984 325.2777l0 -10.0625l2.125 0l0 0.796875l-1.15625 0l0 8.46875l1.15625 0l0 0.796875l-2.125 0zm6.6637573 -2.890625q-0.546875 0.453125 -1.046875 0.640625q-0.484375 0.1875 -1.0625 0.1875q-0.9375 0 -1.453125 -0.453125q-0.5 -0.46875 -0.5 -1.171875q0 -0.421875 0.1875 -0.765625q0.203125 -0.34375 0.5 -0.546875q0.3125 -0.21875 0.703125 -0.328125q0.28125 -0.078125 0.859375 -0.140625q1.171875 -0.140625 1.71875 -0.34375q0.015625 -0.1875 0.015625 -0.25q0 -0.59375 -0.28125 -0.828125q-0.359375 -0.328125 -1.09375 -0.328125q-0.6875 0 -1.015625 0.234375q-0.3125 0.234375 -0.46875 0.84375l-0.953125 -0.125q0.125 -0.609375 0.421875 -0.984375q0.296875 -0.375 0.859375 -0.5625q0.5625 -0.203125 1.296875 -0.203125q0.734375 0 1.1875 0.171875q0.453125 0.171875 0.65625 0.4375q0.21875 0.25 0.3125 0.640625q0.046875 0.25 0.046875 0.90625l0 1.28125q0 1.34375 0.0625 1.703125q0.0625 0.359375 0.25 0.6875l-1.015625 0q-0.15625 -0.296875 -0.1875 -0.703125zm-0.09375 -2.15625q-0.515625 0.21875 -1.578125 0.359375q-0.59375 0.09375 -0.84375 0.203125q-0.234375 0.09375 -0.375 0.3125q-0.140625 0.203125 -0.140625 0.453125q0 0.390625 0.296875 0.65625q0.296875 0.25 0.859375 0.25q0.5625 0 0.984375 -0.25q0.4375 -0.25 0.65625 -0.671875q0.140625 -0.328125 0.140625 -0.96875l0 -0.34375zm3.9108887 5.046875l-2.140625 0l0 -0.796875l1.171875 0l0 -8.46875l-1.171875 0l0 -0.796875l2.140625 0l0 10.0625z" fill-rule="nonzero"></path><path fill="#000000" fill-opacity="0.0" d="m551.2451 230.12859l29.795288 0l0 25.51181l-29.795288 0z" fill-rule="evenodd"></path><path fill="#000000" d="m561.8545 249.36858l-0.890625 0l0 -7.875l0.96875 0l0 2.8125q0.609375 -0.765625 1.5625 -0.765625q0.53125 0 1.0 0.21875q0.46875 0.203125 0.765625 0.59375q0.3125 0.375 0.484375 0.921875q0.171875 0.53125 0.171875 1.15625q0 1.46875 -0.734375 2.265625q-0.71875 0.796875 -1.734375 0.796875q-1.015625 0 -1.59375 -0.84375l0 0.71875zm0 -2.890625q0 1.015625 0.28125 1.484375q0.453125 0.734375 1.234375 0.734375q0.625 0 1.078125 -0.546875q0.46875 -0.546875 0.46875 -1.640625q0 -1.109375 -0.4375 -1.640625q-0.4375 -0.53125 -1.078125 -0.53125q-0.625 0 -1.09375 0.546875q-0.453125 0.546875 -0.453125 1.59375z" fill-rule="nonzero"></path><path fill="#000000" fill-opacity="0.0" d="m551.2466 303.85022l32.944885 0l0 25.51181l-32.944885 0z" fill-rule="evenodd"></path><path fill="#000000" d="m560.9966 325.2777l0 -10.0625l2.125 0l0 0.796875l-1.15625 0l0 8.46875l1.15625 0l0 0.796875l-2.125 0zm3.8200073 -2.1875l-0.890625 0l0 -7.875l0.96875 0l0 2.8125q0.609375 -0.765625 1.5625 -0.765625q0.53125 0 1.0 0.21875q0.46875 0.203125 0.765625 0.59375q0.3125 0.375 0.484375 0.921875q0.171875 0.53125 0.171875 1.15625q0 1.46875 -0.734375 2.265625q-0.71875 0.796875 -1.734375 0.796875q-1.015625 0 -1.59375 -0.84375l0 0.71875zm0 -2.890625q0 1.015625 0.28125 1.484375q0.453125 0.734375 1.234375 0.734375q0.625 0 1.078125 -0.546875q0.46875 -0.546875 0.46875 -1.640625q0 -1.109375 -0.4375 -1.640625q-0.4375 -0.53125 -1.078125 -0.53125q-0.625 0 -1.09375 0.546875q-0.453125 0.546875 -0.453125 1.59375zm6.6608887 5.078125l-2.140625 0l0 -0.796875l1.171875 0l0 -8.46875l-1.171875 0l0 -0.796875l2.140625 0l0 10.0625z" fill-rule="nonzero"></path><path fill="#000000" fill-opacity="0.0" d="m615.2466 254.45486l32.944885 0l0 25.51181l-32.944885 0z" fill-rule="evenodd"></path><path fill="#000000" d="m624.9966 275.88235l0 -10.0625l2.125 0l0 0.796875l-1.15625 0l0 8.46875l1.15625 0l0 0.796875l-2.125 0zm3.8200073 -2.1875l-0.890625 0l0 -7.875l0.96875 0l0 2.8125q0.609375 -0.765625 1.5625 -0.765625q0.53125 0 1.0 0.21875q0.46875 0.203125 0.765625 0.59375q0.3125 0.375 0.484375 0.921875q0.171875 0.53125 0.171875 1.15625q0 1.46875 -0.734375 2.265625q-0.71875 0.796875 -1.734375 0.796875q-1.015625 0 -1.59375 -0.84375l0 0.71875zm0 -2.890625q0 1.015625 0.28125 1.484375q0.453125 0.734375 1.234375 0.734375q0.625 0 1.078125 -0.546875q0.46875 -0.546875 0.46875 -1.640625q0 -1.109375 -0.4375 -1.640625q-0.4375 -0.53125 -1.078125 -0.53125q-0.625 0 -1.09375 0.546875q-0.453125 0.546875 -0.453125 1.59375zm6.6608887 5.078125l-2.140625 0l0 -0.796875l1.171875 0l0 -8.46875l-1.171875 0l0 -0.796875l2.140625 0l0 10.0625z" fill-rule="nonzero"></path><path fill="#000000" fill-opacity="0.0" d="m186.41733 66.90026l56.314957 -0.18897247" fill-rule="evenodd"></path><path stroke="#595959" stroke-width="1.0" stroke-linejoin="round" stroke-linecap="butt" d="m186.41733 66.90026l50.315002 -0.1688385" fill-rule="evenodd"></path><path fill="#595959" stroke="#595959" stroke-width="1.0" stroke-linecap="butt" d="m236.73785 68.38314l4.5325317 -1.6669464l-4.5436096 -1.6364975z" fill-rule="evenodd"></path><path fill="#000000" fill-opacity="0.0" d="m188.59447 40.078693l42.48819 0l0 25.511814l-42.48819 0z" fill-rule="evenodd"></path><path fill="#000000" d="m204.66466 61.506195l0 -10.0625l2.125 0l0 0.796875l-1.15625 0l0 8.46875l1.15625 0l0 0.796875l-2.125 0zm6.6637726 -2.890625q-0.546875 0.453125 -1.046875 0.640625q-0.484375 0.1875 -1.0625 0.1875q-0.9375 0 -1.453125 -0.453125q-0.5 -0.46875 -0.5 -1.171875q0 -0.421875 0.1875 -0.765625q0.203125 -0.34375 0.5 -0.546875q0.3125 -0.21875 0.703125 -0.328125q0.28125 -0.078125 0.859375 -0.140625q1.171875 -0.140625 1.71875 -0.34375q0.015625 -0.1875 0.015625 -0.25q0 -0.59375 -0.28125 -0.828125q-0.359375 -0.328125 -1.09375 -0.328125q-0.6875 0 -1.015625 0.234375q-0.3125 0.234375 -0.46875 0.84375l-0.953125 -0.125q0.125 -0.609375 0.421875 -0.984375q0.296875 -0.375 0.859375 -0.5625q0.5625 -0.203125 1.296875 -0.203125q0.734375 0 1.1875 0.171875q0.453125 0.171875 0.65625 0.4375q0.21875 0.25 0.3125 0.640625q0.046875 0.25 0.046875 0.90625l0 1.28125q0 1.34375 0.0625 1.703125q0.0625 0.359375 0.25 0.6875l-1.015625 0q-0.15625 -0.296875 -0.1875 -0.703125zm-0.09375 -2.15625q-0.515625 0.21875 -1.578125 0.359375q-0.59375 0.09375 -0.84375 0.203125q-0.234375 0.09375 -0.375 0.3125q-0.140625 0.203125 -0.140625 0.453125q0 0.390625 0.296875 0.65625q0.296875 0.25 0.859375 0.25q0.5625 0 0.984375 -0.25q0.4375 -0.25 0.65625 -0.671875q0.140625 -0.328125 0.140625 -0.96875l0 -0.34375zm3.9108734 5.046875l-2.140625 0l0 -0.796875l1.171875 0l0 -8.46875l-1.171875 0l0 -0.796875l2.140625 0l0 10.0625z" fill-rule="nonzero"></path><path fill="#d9ead3" d="m80.055115 66.90026l0 0c0 -28.684017 23.809998 -51.937004 53.181107 -51.937004l0 0c14.104507 0 27.631332 5.471918 37.60472 15.211998c9.973389 9.740076 15.5763855 22.95046 15.5763855 36.725006l0 0c0 28.684021 -23.809998 51.93701 -53.181107 51.93701l0 0c-29.371109 0 -53.181107 -23.25299 -53.181107 -51.93701z" fill-rule="evenodd"></path><path stroke="#595959" stroke-width="1.0" stroke-linejoin="round" stroke-linecap="butt" d="m80.055115 66.90026l0 0c0 -28.684017 23.809998 -51.937004 53.181107 -51.937004l0 0c14.104507 0 27.631332 5.471918 37.60472 15.211998c9.973389 9.740076 15.5763855 22.95046 15.5763855 36.725006l0 0c0 28.684021 -23.809998 51.93701 -53.181107 51.93701l0 0c-29.371109 0 -53.181107 -23.25299 -53.181107 -51.93701z" fill-rule="evenodd"></path><path fill="#000000" d="m108.39534 67.90589q0 -0.671875 0.25 -1.203125q0.265625 -0.546875 0.703125 -0.90625q0.4375 -0.359375 1.0 -0.546875q0.578125 -0.203125 1.203125 -0.203125q0.65625 0 1.171875 0.21875q0.53125 0.203125 0.875 0.53125l-0.75 1.0q-0.59375 -0.4375 -1.203125 -0.4375q-0.703125 0 -1.15625 0.421875q-0.4375 0.421875 -0.4375 1.125q0 0.71875 0.421875 1.140625q0.4375 0.421875 1.109375 0.421875q0.4375 0 0.796875 -0.15625q0.359375 -0.15625 0.65625 -0.359375l0.65625 1.015625q-0.5 0.421875 -1.109375 0.609375q-0.59375 0.1875 -1.15625 0.1875q-0.640625 0 -1.1875 -0.1875q-0.546875 -0.1875 -0.96875 -0.546875q-0.40625 -0.375 -0.640625 -0.90625q-0.234375 -0.53125 -0.234375 -1.21875zm6.175064 0q0 -0.671875 0.234375 -1.203125q0.234375 -0.546875 0.625 -0.90625q0.390625 -0.359375 0.890625 -0.546875q0.5 -0.203125 1.03125 -0.203125q0.546875 0 1.046875 0.203125q0.5 0.1875 0.890625 0.546875q0.390625 0.359375 0.609375 0.90625q0.234375 0.53125 0.234375 1.203125q0 0.6875 -0.234375 1.21875q-0.21875 0.53125 -0.609375 0.90625q-0.390625 0.359375 -0.890625 0.546875q-0.5 0.1875 -1.046875 0.1875q-0.53125 0 -1.03125 -0.1875q-0.5 -0.1875 -0.890625 -0.546875q-0.390625 -0.375 -0.625 -0.90625q-0.234375 -0.53125 -0.234375 -1.21875zm1.65625 0q0 0.71875 0.28125 1.140625q0.28125 0.421875 0.84375 0.421875q0.5625 0 0.84375 -0.421875q0.28125 -0.421875 0.28125 -1.140625q0 -0.703125 -0.28125 -1.125q-0.28125 -0.421875 -0.84375 -0.421875q-0.5625 0 -0.84375 0.421875q-0.28125 0.421875 -0.28125 1.125zm5.018814 -2.71875l1.3125 0l0.125 0.71875l0.046875 0q0.34375 -0.34375 0.796875 -0.59375q0.46875 -0.265625 1.078125 -0.265625q0.921875 0 1.34375 0.59375q0.4375 0.59375 0.4375 1.640625l0 3.359375l-1.609375 0l0 -3.15625q0 -0.546875 -0.1875 -0.796875q-0.171875 -0.265625 -0.625 -0.265625q-0.328125 0 -0.578125 0.15625q-0.25 0.140625 -0.53125 0.421875l0 3.640625l-1.609375 0l0 -5.453125zm7.503189 1.265625l-1.375 0l0 -1.203125l1.453125 -0.0625l0.21875 -1.4531288l1.328125 0l0 1.4531288l2.3125 0l0 1.265625l-2.3125 0l0 1.90625q0 0.625 0.265625 0.890625q0.28125 0.25 0.875 0.25q0.328125 0 0.578125 -0.046875q0.265625 -0.0625 0.515625 -0.140625l0.28125 1.15625q-0.359375 0.109375 -0.8125 0.203125q-0.4375 0.09375 -0.96875 0.09375q-0.640625 0 -1.09375 -0.171875q-0.453125 -0.171875 -0.734375 -0.484375q-0.28125 -0.3125 -0.40625 -0.75q-0.125 -0.453125 -0.125 -0.984375l0 -1.921875zm5.096939 1.453125q0 -0.671875 0.234375 -1.1875q0.234375 -0.53125 0.625 -0.890625q0.40625 -0.375 0.90625 -0.578125q0.515625 -0.203125 1.0625 -0.203125q0.625 0 1.109375 0.203125q0.484375 0.203125 0.796875 0.5625q0.328125 0.34375 0.484375 0.828125q0.171875 0.46875 0.171875 1.03125q0 0.21875 -0.015625 0.421875q-0.015625 0.1875 -0.046875 0.296875l-3.671875 0q0.09375 0.609375 0.53125 0.890625q0.453125 0.265625 1.046875 0.265625q0.375 0 0.703125 -0.09375q0.34375 -0.09375 0.71875 -0.28125l0.515625 0.96875q-0.453125 0.296875 -1.03125 0.46875q-0.5625 0.15625 -1.125 0.15625q-0.640625 0 -1.1875 -0.1875q-0.546875 -0.1875 -0.953125 -0.546875q-0.40625 -0.375 -0.640625 -0.90625q-0.234375 -0.53125 -0.234375 -1.21875zm3.9375 -0.59375q0 -0.453125 -0.265625 -0.734375q-0.25 -0.296875 -0.8125 -0.296875q-0.4375 0 -0.78125 0.265625q-0.328125 0.25 -0.4375 0.765625l2.296875 0zm2.643814 -2.125l1.3125 0l0.125 0.71875l0.046875 0q0.34375 -0.34375 0.796875 -0.59375q0.46875 -0.265625 1.078125 -0.265625q0.921875 0 1.34375 0.59375q0.4375 0.59375 0.4375 1.640625l0 3.359375l-1.609375 0l0 -3.15625q0 -0.546875 -0.1875 -0.796875q-0.171875 -0.265625 -0.625 -0.265625q-0.328125 0 -0.578125 0.15625q-0.25 0.140625 -0.53125 0.421875l0 3.640625l-1.609375 0l0 -5.453125zm7.503189 1.265625l-1.375 0l0 -1.203125l1.453125 -0.0625l0.21875 -1.4531288l1.328125 0l0 1.4531288l2.3125 0l0 1.265625l-2.3125 0l0 1.90625q0 0.625 0.265625 0.890625q0.28125 0.25 0.875 0.25q0.328125 0 0.578125 -0.046875q0.265625 -0.0625 0.515625 -0.140625l0.28125 1.15625q-0.359375 0.109375 -0.8125 0.203125q-0.4375 0.09375 -0.96875 0.09375q-0.640625 0 -1.09375 -0.171875q-0.453125 -0.171875 -0.734375 -0.484375q-0.28125 -0.3125 -0.40625 -0.75q-0.125 -0.453125 -0.125 -0.984375l0 -1.921875zm5.800064 2.46875q0.46875 0.296875 0.9375 0.484375q0.484375 0.171875 1.03125 0.171875q0.5625 0 0.796875 -0.125q0.25 -0.125 0.25 -0.34375q0 -0.25 -0.40625 -0.40625q-0.390625 -0.15625 -1.046875 -0.34375q-0.359375 -0.109375 -0.71875 -0.234375q-0.34375 -0.140625 -0.625 -0.328125q-0.265625 -0.203125 -0.4375 -0.453125q-0.171875 -0.25 -0.171875 -0.59375q0 -0.359375 0.171875 -0.671875q0.1875 -0.328125 0.5 -0.546875q0.328125 -0.21875 0.796875 -0.34375q0.46875 -0.140625 1.046875 -0.140625q0.734375 0 1.328125 0.25q0.609375 0.234375 1.03125 0.5l-0.71875 0.96875q-0.375 -0.21875 -0.78125 -0.359375q-0.390625 -0.15625 -0.828125 -0.15625q-0.515625 0 -0.734375 0.109375q-0.203125 0.109375 -0.203125 0.328125q0 0.109375 0.109375 0.21875q0.109375 0.09375 0.296875 0.171875q0.1875 0.078125 0.4375 0.15625q0.265625 0.0625 0.546875 0.140625q0.40625 0.109375 0.765625 0.25q0.375 0.140625 0.640625 0.328125q0.28125 0.171875 0.4375 0.4375q0.171875 0.265625 0.171875 0.625q0 0.375 -0.171875 0.703125q-0.171875 0.3125 -0.515625 0.546875q-0.328125 0.234375 -0.828125 0.375q-0.5 0.125 -1.171875 0.125q-0.734375 0 -1.4375 -0.234375q-0.703125 -0.25 -1.234375 -0.59375l0.734375 -1.015625z" fill-rule="nonzero"></path><path fill="#000000" fill-opacity="0.0" d="m38.92126 66.99475l41.133854 -0.09449005" fill-rule="evenodd"></path><path stroke="#595959" stroke-width="1.0" stroke-linejoin="round" stroke-linecap="butt" d="m38.92126 66.99475l35.13387 -0.080703735" fill-rule="evenodd"></path><path fill="#595959" stroke="#595959" stroke-width="1.0" stroke-linecap="butt" d="m74.05893 68.56577l4.5342865 -1.6621552l-4.5418777 -1.641304z" fill-rule="evenodd"></path><path fill="#000000" fill-opacity="0.0" d="m47.369965 39.378952l29.795273 0l0 25.51181l-29.795273 0z" fill-rule="evenodd"></path><path fill="#000000" d="m56.713715 56.91583l0.953125 -0.15625q0.078125 0.578125 0.4375 0.890625q0.375 0.296875 1.03125 0.296875q0.671875 0 0.984375 -0.265625q0.328125 -0.265625 0.328125 -0.640625q0 -0.328125 -0.28125 -0.515625q-0.203125 -0.125 -0.984375 -0.328125q-1.0625 -0.265625 -1.484375 -0.453125q-0.40625 -0.203125 -0.625 -0.546875q-0.203125 -0.34375 -0.203125 -0.765625q0 -0.390625 0.171875 -0.703125q0.171875 -0.328125 0.484375 -0.546875q0.21875 -0.171875 0.609375 -0.28125q0.390625 -0.109375 0.828125 -0.109375q0.671875 0 1.171875 0.1875q0.515625 0.1875 0.75 0.53125q0.25 0.328125 0.34375 0.875l-0.9375 0.125q-0.078125 -0.4375 -0.390625 -0.671875q-0.296875 -0.25 -0.859375 -0.25q-0.671875 0 -0.953125 0.21875q-0.28125 0.21875 -0.28125 0.515625q0 0.1875 0.109375 0.328125q0.125 0.15625 0.375 0.265625q0.140625 0.046875 0.859375 0.25q1.015625 0.265625 1.421875 0.4375q0.40625 0.171875 0.640625 0.515625q0.234375 0.328125 0.234375 0.828125q0 0.484375 -0.28125 0.90625q-0.28125 0.421875 -0.8125 0.65625q-0.53125 0.234375 -1.203125 0.234375q-1.109375 0 -1.703125 -0.453125q-0.578125 -0.46875 -0.734375 -1.375z" fill-rule="nonzero"></path><path fill="#f4cccc" d="m772.68243 72.635284l0 0c0 -22.465382 18.90271 -40.67717 42.22046 -40.67717l0 0c11.197571 0 21.936523 4.285618 29.85437 11.914066c7.9179077 7.6284485 12.366089 17.974846 12.366089 28.763103l0 0c0 22.465378 -18.902771 40.677162 -42.22046 40.677162l0 0c-23.317749 0 -42.22046 -18.211784 -42.22046 -40.677162z" fill-rule="evenodd"></path><path stroke="#595959" stroke-width="1.0" stroke-linejoin="round" stroke-linecap="butt" d="m772.68243 72.635284l0 0c0 -22.465382 18.90271 -40.67717 42.22046 -40.67717l0 0c11.197571 0 21.936523 4.285618 29.85437 11.914066c7.9179077 7.6284485 12.366089 17.974846 12.366089 28.763103l0 0c0 22.465378 -18.902771 40.677162 -42.22046 40.677162l0 0c-23.317749 0 -42.22046 -18.211784 -42.22046 -40.677162z" fill-rule="evenodd"></path><path fill="#000000" d="m806.14355 69.919655q-0.625 -0.25 -1.34375 -0.25q-0.625 0 -0.921875 0.28125q-0.28125 0.265625 -0.28125 0.859375l0 0.171875l2.21875 0l0 1.5l-2.21875 0l0 4.953125l-1.921875 0l0 -4.953125l-1.703125 0l0 -1.421875l1.703125 -0.078125l0 -0.15625q0 -0.5625 0.171875 -1.046875q0.171875 -0.484375 0.515625 -0.84375q0.359375 -0.359375 0.90625 -0.5625q0.546875 -0.203125 1.296875 -0.203125q0.5625 0 1.046875 0.109375q0.484375 0.09375 0.90625 0.234375l-0.375 1.40625zm1.7937622 1.0625l4.5 0l0 6.453125l-1.921875 0l0 -4.953125l-2.578125 0l0 -1.5zm3.453125 -0.9375q-0.5625 0 -0.921875 -0.3125q-0.34375 -0.3125 -0.34375 -0.84375q0 -0.546875 0.34375 -0.875q0.359375 -0.328125 0.921875 -0.328125q0.5625 0 0.921875 0.328125q0.359375 0.328125 0.359375 0.875q0 0.53125 -0.359375 0.84375q-0.359375 0.3125 -0.921875 0.3125zm4.324951 -1.71875l3.78125 0l0 6.671875q0 0.296875 0.078125 0.5q0.09375 0.203125 0.234375 0.328125q0.15625 0.109375 0.34375 0.171875q0.1875 0.046875 0.375 0.046875q0.21875 0 0.46875 -0.046875q0.25 -0.046875 0.546875 -0.15625l0.4375 1.40625q-0.265625 0.078125 -0.484375 0.140625q-0.21875 0.0625 -0.453125 0.109375q-0.21875 0.046875 -0.46875 0.0625q-0.234375 0.03125 -0.53125 0.03125q-1.234375 0 -1.859375 -0.71875q-0.609375 -0.71875 -0.609375 -1.953125l0 -5.09375l-1.859375 0l0 -1.5zm7.996826 0l3.78125 0l0 6.671875q0 0.296875 0.078125 0.5q0.09375 0.203125 0.234375 0.328125q0.15625 0.109375 0.34375 0.171875q0.1875 0.046875 0.375 0.046875q0.21875 0 0.46875 -0.046875q0.25 -0.046875 0.546875 -0.15625l0.4375 1.40625q-0.265625 0.078125 -0.484375 0.140625q-0.21875 0.0625 -0.453125 0.109375q-0.21875 0.046875 -0.46875 0.0625q-0.234375 0.03125 -0.53125 0.03125q-1.234375 0 -1.859375 -0.71875q-0.609375 -0.71875 -0.609375 -1.953125l0 -5.09375l-1.859375 0l0 -1.5z" fill-rule="nonzero"></path><path fill="#000000" fill-opacity="0.0" d="m737.0912 74.779305l29.795288 0l0 25.51181l-29.795288 0z" fill-rule="evenodd"></path><path fill="#000000" d="m746.43494 92.31618l0.953125 -0.15625q0.078125 0.578125 0.4375 0.890625q0.375 0.296875 1.03125 0.296875q0.671875 0 0.984375 -0.265625q0.328125 -0.265625 0.328125 -0.640625q0 -0.328125 -0.28125 -0.515625q-0.203125 -0.125 -0.984375 -0.328125q-1.0625 -0.265625 -1.484375 -0.453125q-0.40625 -0.203125 -0.625 -0.546875q-0.203125 -0.34375 -0.203125 -0.765625q0 -0.390625 0.171875 -0.703125q0.171875 -0.328125 0.484375 -0.546875q0.21875 -0.171875 0.609375 -0.28125q0.390625 -0.109375 0.828125 -0.109375q0.671875 0 1.171875 0.1875q0.515625 0.1875 0.75 0.53125q0.25 0.328125 0.34375 0.875l-0.9375 0.125q-0.078125 -0.4375 -0.390625 -0.671875q-0.296875 -0.25 -0.859375 -0.25q-0.671875 0 -0.953125 0.21875q-0.28125 0.21875 -0.28125 0.515625q0 0.1875 0.109375 0.328125q0.125 0.15625 0.375 0.265625q0.140625 0.046875 0.859375 0.25q1.015625 0.265625 1.421875 0.4375q0.40625 0.171875 0.640625 0.515625q0.234375 0.328125 0.234375 0.828125q0 0.484375 -0.28125 0.90625q-0.28125 0.421875 -0.8125 0.65625q-0.53125 0.234375 -1.203125 0.234375q-1.109375 0 -1.703125 -0.453125q-0.578125 -0.46875 -0.734375 -1.375z" fill-rule="nonzero"></path><path fill="#000000" fill-opacity="0.0" d="m733.9423 17.128609l32.944885 0l0 25.51181l-32.944885 0z" fill-rule="evenodd"></path><path fill="#000000" d="m743.6923 38.55611l0 -10.062502l2.125 0l0 0.796875l-1.15625 0l0 8.468752l1.15625 0l0 0.796875l-2.125 0zm3.8200073 -2.1875l-0.890625 0l0 -7.875002l0.96875 0l0 2.8125q0.609375 -0.765625 1.5625 -0.765625q0.53125 0 1.0 0.21875q0.46875 0.203125 0.765625 0.59375q0.3125 0.375 0.484375 0.9218769q0.171875 0.53125 0.171875 1.15625q0 1.46875 -0.734375 2.265625q-0.71875 0.796875 -1.734375 0.796875q-1.015625 0 -1.59375 -0.84375l0 0.71875zm0 -2.890625q0 1.015625 0.28125 1.484375q0.453125 0.734375 1.234375 0.734375q0.625 0 1.078125 -0.546875q0.46875 -0.546875 0.46875 -1.640625q0 -1.109375 -0.4375 -1.6406269q-0.4375 -0.53125 -1.078125 -0.53125q-0.625 0 -1.09375 0.546875q-0.453125 0.5468769 -0.453125 1.5937519zm6.6608887 5.078125l-2.140625 0l0 -0.796875l1.171875 0l0 -8.468752l-1.171875 0l0 -0.796875l2.140625 0l0 10.062502z" fill-rule="nonzero"></path><path fill="#000000" fill-opacity="0.0" d="m874.2619 45.41789l29.795227 0l0 25.511814l-29.795227 0z" fill-rule="evenodd"></path><path fill="#000000" d="m886.10565 63.798515l0.125 0.84375q-0.40625 0.09375 -0.71875 0.09375q-0.53125 0 -0.828125 -0.171875q-0.28125 -0.171875 -0.40625 -0.4375q-0.109375 -0.265625 -0.109375 -1.140625l0 -3.28125l-0.71875 0l0 -0.75l0.71875 0l0 -1.40625l0.953125 -0.59375l0 2.0l0.984375 0l0 0.75l-0.984375 0l0 3.34375q0 0.40625 0.046875 0.53125q0.0625 0.109375 0.171875 0.1875q0.125 0.0625 0.328125 0.0625q0.171875 0 0.4375 -0.03125z" fill-rule="nonzero"></path><path fill="#000000" fill-opacity="0.0" d="m856.7454 76.563866l55.811035 0" fill-rule="evenodd"></path><path stroke="#595959" stroke-width="1.0" stroke-linejoin="round" stroke-linecap="butt" d="m856.7454 76.563866l49.811035 0" fill-rule="evenodd"></path><path fill="#595959" stroke="#595959" stroke-width="1.0" stroke-linecap="butt" d="m906.55646 78.2156l4.538086 -1.6517334l-4.538086 -1.6517334z" fill-rule="evenodd"></path><path fill="#000000" fill-opacity="0.0" d="m725.5839 43.58872l59.4646 0.28346252" fill-rule="evenodd"></path><path stroke="#595959" stroke-width="1.0" stroke-linejoin="round" stroke-linecap="butt" d="m725.5839 43.588715l53.46466 0.25486755" fill-rule="evenodd"></path><path fill="#595959" stroke="#595959" stroke-width="1.0" stroke-linecap="butt" d="m779.04065 45.495293l4.5459595 -1.6300812l-4.5302124 -1.6733475z" fill-rule="evenodd"></path><path fill="#000000" fill-opacity="0.0" d="m728.1981 101.68185l56.850403 -0.28346252" fill-rule="evenodd"></path><path stroke="#595959" stroke-width="1.0" stroke-linejoin="round" stroke-linecap="butt" d="m728.19806 101.68184l50.850525 -0.25354767" fill-rule="evenodd"></path><path fill="#595959" stroke="#595959" stroke-width="1.0" stroke-linecap="butt" d="m779.05676 103.08l4.529846 -1.6743393l-4.5463257 -1.6290817z" fill-rule="evenodd"></path><path fill="#000000" fill-opacity="0.0" d="m889.4969 489.57657l57.606323 0l0 41.322845l-57.606323 0z" fill-rule="evenodd"></path><path fill="#595959" d="m927.4814 515.03796l0 -2.234375l-4.03125 0l0 -1.0468445l4.234375 -6.03125l0.9375 0l0 6.03125l1.265625 0l0 1.0468445l-1.265625 0l0 2.234375l-1.140625 0zm0 -3.2812195l0 -4.1875l-2.921875 4.1875l2.921875 0zm3.7562256 0.8280945l1.140625 -0.15625q0.203125 0.96875 0.671875 1.40625q0.46875 0.421875 1.15625 0.421875q0.796875 0 1.34375 -0.546875q0.5625 -0.5625 0.5625 -1.390625q0 -0.7968445 -0.515625 -1.2968445q-0.5 -0.515625 -1.296875 -0.515625q-0.328125 0 -0.8125 0.125l0.125 -1.0q0.125 0.015625 0.1875 0.015625q0.734375 0 1.3125 -0.375q0.59375 -0.390625 0.59375 -1.1875q0 -0.625 -0.4375 -1.03125q-0.421875 -0.421875 -1.09375 -0.421875q-0.671875 0 -1.109375 0.421875q-0.4375 0.421875 -0.578125 1.25l-1.140625 -0.203125q0.21875 -1.140625 0.953125 -1.765625q0.75 -0.640625 1.84375 -0.640625q0.765625 0 1.40625 0.328125q0.640625 0.328125 0.984375 0.890625q0.34375 0.5625 0.34375 1.203125q0 0.59375 -0.328125 1.09375q-0.328125 0.5 -0.953125 0.78125q0.8125 0.203125 1.265625 0.796875q0.46875 0.59375 0.46875 1.4999695q0 1.21875 -0.890625 2.078125q-0.890625 0.84375 -2.25 0.84375q-1.21875 0 -2.03125 -0.734375q-0.8125 -0.734375 -0.921875 -1.890625z" fill-rule="nonzero"></path></g></svg>

